G04 Layer_Color=8388736*
%FSLAX44Y44*%
%MOMM*%
G71*
G01*
G75*
%ADD45R,1.2032X1.1032*%
G04:AMPARAMS|DCode=46|XSize=1.0032mm|YSize=1.4032mm|CornerRadius=0mm|HoleSize=0mm|Usage=FLASHONLY|Rotation=235.000|XOffset=0mm|YOffset=0mm|HoleType=Round|Shape=Rectangle|*
%AMROTATEDRECTD46*
4,1,4,-0.2870,0.8133,0.8624,0.0085,0.2870,-0.8133,-0.8624,-0.0085,-0.2870,0.8133,0.0*
%
%ADD46ROTATEDRECTD46*%

%ADD47R,1.1032X1.2032*%
%ADD48R,1.1532X1.2032*%
%ADD49R,2.3532X3.4532*%
%ADD50R,2.3532X1.1532*%
%ADD51R,2.1032X2.0032*%
%ADD52R,2.0032X1.9032*%
%ADD53R,2.2032X2.2032*%
%ADD54R,2.7033X1.0033*%
%ADD55R,1.6033X0.9032*%
%ADD56R,1.6033X2.1532*%
%ADD57R,1.6033X1.4831*%
%ADD58R,2.2032X1.6033*%
%ADD59C,1.3032*%
%ADD60C,1.4034*%
%ADD61O,3.7592X1.9812*%
%ADD62C,1.3033*%
%ADD63C,1.0033*%
%ADD64C,1.4531*%
%ADD65C,0.7032*%
D45*
X516890Y435230D02*
D03*
Y451230D02*
D03*
X496570Y435230D02*
D03*
Y451230D02*
D03*
X477520Y435230D02*
D03*
Y451230D02*
D03*
D46*
X517451Y417722D02*
D03*
X508709Y405238D02*
D03*
X485701Y417722D02*
D03*
X476959Y405238D02*
D03*
X456491Y417722D02*
D03*
X447749Y405238D02*
D03*
D47*
X433960Y458470D02*
D03*
X449960D02*
D03*
Y438150D02*
D03*
X433960D02*
D03*
D48*
X449960Y478790D02*
D03*
X433960D02*
D03*
X381380Y506730D02*
D03*
X365380D02*
D03*
D49*
X404920Y458470D02*
D03*
D50*
X346920Y435470D02*
D03*
Y458470D02*
D03*
Y481470D02*
D03*
D51*
X440690Y500380D02*
D03*
X490690D02*
D03*
X465690D02*
D03*
D52*
X413690Y548880D02*
D03*
X517690D02*
D03*
D53*
X341630Y408940D02*
D03*
X316230D02*
D03*
X290830D02*
D03*
D54*
X269519Y494139D02*
D03*
Y473601D02*
D03*
Y519379D02*
D03*
Y448869D02*
D03*
D55*
X544271Y418882D02*
D03*
Y429880D02*
D03*
Y440881D02*
D03*
Y451881D02*
D03*
Y462882D02*
D03*
Y473880D02*
D03*
Y484881D02*
D03*
Y495882D02*
D03*
Y506880D02*
D03*
D56*
X552971Y555130D02*
D03*
D57*
Y405280D02*
D03*
D58*
X648970Y405882D02*
D03*
Y563880D02*
D03*
D59*
X440690Y535880D02*
D03*
X490690D02*
D03*
D60*
X318531Y446080D02*
D03*
Y471480D02*
D03*
Y496880D02*
D03*
Y522280D02*
D03*
D61*
X241320Y542371D02*
D03*
Y425369D02*
D03*
D62*
X242019Y506369D02*
D03*
Y461371D02*
D03*
D63*
X245321Y425369D02*
D03*
X249319D02*
D03*
X237320D02*
D03*
X233319D02*
D03*
X245321Y542371D02*
D03*
X249319D02*
D03*
X237320D02*
D03*
X233319D02*
D03*
D64*
X652971Y435882D02*
D03*
Y515882D02*
D03*
D65*
X440690Y518882D02*
D03*
X419862Y454152D02*
D03*
X524764Y473880D02*
D03*
X343547Y508901D02*
D03*
X404876Y515874D02*
D03*
X404920Y493914D02*
D03*
X400304Y421386D02*
D03*
X366268D02*
D03*
X454914Y468376D02*
D03*
X389636D02*
D03*
X328930Y473710D02*
D03*
X291193Y480314D02*
D03*
X431292Y412496D02*
D03*
X460756Y455930D02*
D03*
X485902Y470408D02*
D03*
X466832Y550398D02*
D03*
X457454Y525526D02*
D03*
X332486Y442722D02*
D03*
X360680Y449580D02*
D03*
X465836Y480822D02*
D03*
X385572Y435102D02*
D03*
X364744Y458470D02*
D03*
X342646Y490474D02*
D03*
X250444Y477012D02*
D03*
X284988Y434340D02*
D03*
X314960Y430530D02*
D03*
X328930Y422656D02*
D03*
X357378Y411480D02*
D03*
X391414Y540512D02*
D03*
X558292Y520192D02*
D03*
X394268Y552704D02*
D03*
X520700Y508000D02*
D03*
X452120Y513588D02*
D03*
X220726Y484886D02*
D03*
X337312Y472694D02*
D03*
X377444Y478790D02*
D03*
X490982Y475742D02*
D03*
X302514Y519684D02*
D03*
X536702Y558546D02*
D03*
X531368Y551434D02*
D03*
X504698Y521716D02*
D03*
X432396Y528408D02*
D03*
X392938Y508000D02*
D03*
X288036Y551180D02*
D03*
X410718Y506730D02*
D03*
M02*
