M48
;Layer_Color=9474304
;FILE_FORMAT=4:4
METRIC,LZ
;TYPE=PLATED
T1F00S00C0.3000
T2F00S00C0.8001
T3F00S00C1.1000
T4F00S00C1.1001
T5F00S00C1.2499
%
T01
X00402413Y00405238
X00428244Y00429006
X00419608Y00439674
X0045847Y00454938
X00458684Y00462954
X0044488Y00468924
X004318Y00487934
X00420878Y0050419
X00427228Y00519938
X00433324Y00523494
X00421894Y00532638
X00409702Y00522732
X00399796Y00510794
X00398673Y00502813
X00399796Y00484378
X00459556Y00486349
X00470662Y00479298
X00470408Y00512826
X00458216Y00523494
X0051308Y0052832
X00518668Y00560832
X00533146Y00549656
X00559506Y00481444
X00593852Y00505353
X00609331Y004953
X00522478Y00426466
X00377698Y00429006
X0034692Y0044704
X00337566Y00470154
X00314072Y0045682
X00296418Y0042926
X00276098Y00421894
X00292354Y00529082
X00319532Y00545846
X00350901Y00493903
X0038354Y00490474
T02
X00233319Y00425369
X0023732
X0024132
X00245321
X00249319
X00318531Y0044608
Y0047148
Y0049688
Y0052228
X00249319Y00542371
X00245321
X0024132
X0023732
X00233319
T03
X0044069Y0053588
X0049069
T04
X00242019Y00461371
Y00506369
T05
X00652971Y00435882
Y00515882
M30
