G04 Layer_Color=65535*
%FSLAX44Y44*%
%MOMM*%
G71*
G01*
G75*
%ADD37C,0.2500*%
%ADD38C,0.0367*%
%ADD39C,0.1270*%
D37*
X339670Y491970D02*
G03*
X339670Y491970I-1250J0D01*
G01*
D38*
X623802Y572432D02*
X649885D01*
X555106Y572065D02*
X649885D01*
X554371Y571698D02*
X649885D01*
X452612Y571330D02*
X457021D01*
X468776D02*
X475389D01*
X485307D02*
X494491D01*
X501471D02*
X512125D01*
X517635D02*
X530493D01*
X534166D02*
X548861D01*
X551065D02*
X651721D01*
X656864D02*
X666783D01*
X675967D02*
X682947D01*
X694335D02*
X699111D01*
X453347Y570963D02*
X456653D01*
X469511D02*
X475021D01*
X485675D02*
X493757D01*
X501838D02*
X512125D01*
X518002D02*
X530125D01*
X534901D02*
X547759D01*
X549595D02*
X550698D01*
X551432D02*
X651721D01*
X657599D02*
X666049D01*
X675967D02*
X682212D01*
X694703D02*
X698376D01*
X453347Y570596D02*
X456653D01*
X469511D02*
X475021D01*
X485675D02*
X493757D01*
X501838D02*
X512125D01*
X518002D02*
X530125D01*
X534901D02*
X547759D01*
X549595D02*
X550698D01*
X551432D02*
X651721D01*
X657599D02*
X666049D01*
X675967D02*
X682212D01*
X694703D02*
X698376D01*
X453714Y570228D02*
X455919D01*
X469878D02*
X474286D01*
X486409D02*
X493389D01*
X502573D02*
X511757D01*
X518737D02*
X529391D01*
X532329D02*
X532697D01*
X535268D02*
X547391D01*
X548861D02*
X551065D01*
X552167D02*
X652089D01*
X658701D02*
X665681D01*
X677069D02*
X681845D01*
X695805D02*
X698009D01*
X454449Y569861D02*
X455551D01*
X470613D02*
X473919D01*
X486777D02*
X492654D01*
X502941D02*
X510655D01*
X514696D02*
X515431D01*
X519104D02*
X529023D01*
X531595D02*
X533799D01*
X536003D02*
X546656D01*
X548493D02*
X551432D01*
X552534D02*
X652089D01*
X659069D02*
X664947D01*
X677437D02*
X681110D01*
X696540D02*
X697274D01*
X454449Y569493D02*
X455551D01*
X470613D02*
X473919D01*
X486777D02*
X492654D01*
X502941D02*
X510655D01*
X514696D02*
X515431D01*
X519104D02*
X529023D01*
X531595D02*
X533799D01*
X536003D02*
X546656D01*
X548493D02*
X551432D01*
X552534D02*
X652089D01*
X659069D02*
X664947D01*
X677437D02*
X681110D01*
X696540D02*
X697274D01*
X470980Y569126D02*
X473184D01*
X486777D02*
X491553D01*
X503675D02*
X509921D01*
X514696D02*
X515798D01*
X519839D02*
X528288D01*
X531227D02*
X533799D01*
X536370D02*
X546289D01*
X547759D02*
X552167D01*
X552534D02*
X651721D01*
X659803D02*
X664579D01*
X678171D02*
X680743D01*
X471715Y568759D02*
X472817D01*
X487879D02*
X491553D01*
X504043D02*
X509553D01*
X514329D02*
X516533D01*
X520207D02*
X527921D01*
X530493D02*
X534901D01*
X537105D02*
X545554D01*
X547391D02*
X552167D01*
X552534D02*
X651721D01*
X653191D02*
X653558D01*
X660171D02*
X663844D01*
X678539D02*
X680008D01*
X300893Y568391D02*
X302729D01*
X471715D02*
X472817D01*
X487879D02*
X491553D01*
X504043D02*
X509553D01*
X514329D02*
X516533D01*
X520207D02*
X527921D01*
X530493D02*
X534901D01*
X537105D02*
X545554D01*
X547391D02*
X651721D01*
X653191D02*
X653558D01*
X660171D02*
X663844D01*
X678539D02*
X680008D01*
X300525Y568024D02*
X302729D01*
X324036D02*
X325873D01*
X471715D02*
X472082D01*
X487879D02*
X490450D01*
X497430D02*
X498532D01*
X504043D02*
X508818D01*
X513961D02*
X516900D01*
X520941D02*
X527186D01*
X530125D02*
X535268D01*
X537472D02*
X545187D01*
X546656D02*
X650987D01*
X652456D02*
X654293D01*
X660906D02*
X663477D01*
X679274D02*
X679641D01*
X300525Y567657D02*
X302729D01*
X323669D02*
X325873D01*
X375834D02*
X378773D01*
X480164D02*
X480899D01*
X488246D02*
X490083D01*
X496328D02*
X499267D01*
X504777D02*
X508818D01*
X513227D02*
X517635D01*
X521309D02*
X526819D01*
X529391D02*
X536003D01*
X538207D02*
X544452D01*
X546289D02*
X650987D01*
X652089D02*
X654660D01*
X661273D02*
X662742D01*
X670457D02*
X670824D01*
X263789Y567289D02*
X270034D01*
X300525D02*
X302362D01*
X323302D02*
X325873D01*
X358568D02*
X360772D01*
X368854D02*
X370691D01*
X374365D02*
X379875D01*
X395304D02*
X397141D01*
X480164D02*
X480899D01*
X488246D02*
X490083D01*
X496328D02*
X499267D01*
X504777D02*
X508818D01*
X513227D02*
X517635D01*
X521309D02*
X526819D01*
X529391D02*
X536003D01*
X538207D02*
X544452D01*
X546289D02*
X650987D01*
X652089D02*
X654660D01*
X661273D02*
X662742D01*
X670457D02*
X670824D01*
X263422Y566922D02*
X271136D01*
X300525D02*
X302362D01*
X323302D02*
X325873D01*
X358568D02*
X360772D01*
X368487D02*
X370691D01*
X373630D02*
X380242D01*
X394569D02*
X397141D01*
X479797D02*
X481266D01*
X488981D02*
X489348D01*
X496328D02*
X500369D01*
X505145D02*
X508451D01*
X512859D02*
X518002D01*
X522043D02*
X526084D01*
X529023D02*
X536370D01*
X538575D02*
X544085D01*
X545554D02*
X650619D01*
X651721D02*
X655395D01*
X661640D02*
X662375D01*
X670089D02*
X671559D01*
X263422Y566555D02*
X271871D01*
X300525D02*
X302362D01*
X323302D02*
X325873D01*
X358568D02*
X360772D01*
X368487D02*
X370691D01*
X373262D02*
X380610D01*
X393835D02*
X397141D01*
X462898D02*
X463633D01*
X479062D02*
X482369D01*
X495593D02*
X500369D01*
X506247D02*
X507349D01*
X512125D02*
X518737D01*
X522411D02*
X525717D01*
X529023D02*
X537105D01*
X539309D02*
X543350D01*
X545187D02*
X649885D01*
X650987D02*
X655762D01*
X669355D02*
X671926D01*
X263422Y566187D02*
X272606D01*
X300158D02*
X302362D01*
X323302D02*
X325138D01*
X358568D02*
X360772D01*
X368119D02*
X370324D01*
X373262D02*
X380977D01*
X393100D02*
X397141D01*
X462898D02*
X463633D01*
X479062D02*
X482369D01*
X495593D02*
X500369D01*
X506247D02*
X507349D01*
X512125D02*
X518737D01*
X522411D02*
X525717D01*
X529023D02*
X537105D01*
X539309D02*
X543350D01*
X545187D02*
X649885D01*
X650987D02*
X655762D01*
X669355D02*
X671926D01*
X263422Y565820D02*
X265259D01*
X269300D02*
X272973D01*
X300158D02*
X302362D01*
X358568D02*
X360772D01*
X368119D02*
X370324D01*
X373262D02*
X375099D01*
X377303D02*
X380977D01*
X392733D02*
X397141D01*
X462531D02*
X464000D01*
X478695D02*
X482369D01*
X495593D02*
X500737D01*
X506247D02*
X506614D01*
X511757D02*
X519839D01*
X523145D02*
X524982D01*
X528288D02*
X537472D01*
X539677D02*
X542983D01*
X544452D02*
X649517D01*
X650619D02*
X656497D01*
X668987D02*
X672661D01*
X687355D02*
X688825D01*
X263054Y565452D02*
X265259D01*
X270034D02*
X273340D01*
X300158D02*
X301995D01*
X358568D02*
X361140D01*
X367752D02*
X369956D01*
X372895D02*
X373997D01*
X377671D02*
X380977D01*
X391998D02*
X396773D01*
X461796D02*
X464735D01*
X477960D02*
X483470D01*
X494491D02*
X501838D01*
X511022D02*
X519839D01*
X523513D02*
X524615D01*
X527186D02*
X538207D01*
X540411D02*
X542248D01*
X544085D02*
X648783D01*
X649885D02*
X656864D01*
X668253D02*
X673028D01*
X686621D02*
X689192D01*
X263054Y565085D02*
X265259D01*
X270402D02*
X273340D01*
X300158D02*
X301995D01*
X358568D02*
X361140D01*
X367752D02*
X369956D01*
X378038D02*
X380977D01*
X391631D02*
X393835D01*
X394569D02*
X396773D01*
X461796D02*
X464735D01*
X477960D02*
X483470D01*
X494491D02*
X501838D01*
X511022D02*
X519839D01*
X523513D02*
X524615D01*
X527186D02*
X538207D01*
X540411D02*
X542248D01*
X544085D02*
X648783D01*
X649885D02*
X656864D01*
X668253D02*
X673028D01*
X686621D02*
X689192D01*
X263054Y564718D02*
X265259D01*
X270769D02*
X273708D01*
X299790D02*
X301995D01*
X358935D02*
X361140D01*
X367385D02*
X369589D01*
X378038D02*
X380977D01*
X391263D02*
X393100D01*
X394569D02*
X396773D01*
X445632D02*
X446735D01*
X461796D02*
X465837D01*
X477960D02*
X484205D01*
X494491D02*
X502573D01*
X510655D02*
X520207D01*
X526819D02*
X538575D01*
X540411D02*
X541881D01*
X543350D02*
X648783D01*
X649517D02*
X657599D01*
X667885D02*
X673763D01*
X686621D02*
X689192D01*
X263054Y564350D02*
X265259D01*
X271136D02*
X273708D01*
X299790D02*
X301995D01*
X358935D02*
X361140D01*
X367017D02*
X369221D01*
X378038D02*
X380977D01*
X391263D02*
X392365D01*
X394569D02*
X396773D01*
X445265D02*
X447469D01*
X461429D02*
X466205D01*
X477225D02*
X484573D01*
X493389D02*
X502941D01*
X509921D02*
X521309D01*
X526084D02*
X539309D01*
X542983D02*
X648415D01*
X648783D02*
X657599D01*
X667151D02*
X674130D01*
X686253D02*
X689927D01*
X263054Y563983D02*
X264891D01*
X271136D02*
X273708D01*
X292811D02*
X295749D01*
X299790D02*
X301995D01*
X333588D02*
X335424D01*
X344241D02*
X347180D01*
X358935D02*
X361140D01*
X367017D02*
X369221D01*
X378038D02*
X380977D01*
X391263D02*
X391631D01*
X394569D02*
X396773D01*
X445265D02*
X447469D01*
X461429D02*
X466205D01*
X477225D02*
X484573D01*
X493389D02*
X502941D01*
X509921D02*
X521309D01*
X526084D02*
X539309D01*
X542983D02*
X648415D01*
X648783D02*
X657599D01*
X667151D02*
X674130D01*
X686253D02*
X689927D01*
X262687Y563616D02*
X264891D01*
X271504D02*
X273708D01*
X277749D02*
X279586D01*
X284361D02*
X286198D01*
X291709D02*
X296852D01*
X299790D02*
X301627D01*
X305668D02*
X307872D01*
X310811D02*
X312648D01*
X317424D02*
X319261D01*
X322934D02*
X324771D01*
X328812D02*
X330281D01*
X332486D02*
X336159D01*
X343139D02*
X348282D01*
X358935D02*
X361140D01*
X366650D02*
X368854D01*
X378038D02*
X380977D01*
X394202D02*
X396406D01*
X444530D02*
X447837D01*
X460694D02*
X466939D01*
X476491D02*
X485307D01*
X492654D02*
X503675D01*
X509553D02*
X522043D01*
X525717D02*
X539677D01*
X542248D02*
X647681D01*
X648415D02*
X657967D01*
X666783D02*
X674130D01*
X685519D02*
X690294D01*
X262687Y563248D02*
X264891D01*
X271504D02*
X273708D01*
X277381D02*
X279586D01*
X284361D02*
X286198D01*
X291341D02*
X296852D01*
X299790D02*
X301627D01*
X305301D02*
X307872D01*
X310444D02*
X312648D01*
X317424D02*
X319261D01*
X322934D02*
X324771D01*
X328812D02*
X330281D01*
X332118D02*
X336526D01*
X342404D02*
X348649D01*
X358935D02*
X361140D01*
X366650D02*
X368854D01*
X378038D02*
X380977D01*
X394202D02*
X396406D01*
X444163D02*
X448571D01*
X459592D02*
X467307D01*
X476491D02*
X485675D01*
X492654D02*
X504043D01*
X508818D02*
X522411D01*
X524982D02*
X540411D01*
X541881D02*
X658701D01*
X666049D02*
X674865D01*
X684417D02*
X691029D01*
X262687Y562881D02*
X264891D01*
X271504D02*
X274075D01*
X277381D02*
X279586D01*
X283994D02*
X286198D01*
X290606D02*
X296484D01*
X299423D02*
X301627D01*
X304933D02*
X307505D01*
X310444D02*
X312648D01*
X317056D02*
X319261D01*
X322567D02*
X324771D01*
X328445D02*
X330281D01*
X331751D02*
X336526D01*
X341670D02*
X349017D01*
X358935D02*
X361140D01*
X366283D02*
X368487D01*
X378038D02*
X380610D01*
X394202D02*
X396406D01*
X444163D02*
X448571D01*
X459592D02*
X467307D01*
X476491D02*
X485675D01*
X492654D02*
X504043D01*
X508818D02*
X522411D01*
X524982D02*
X540411D01*
X541881D02*
X658701D01*
X666049D02*
X674865D01*
X684417D02*
X691029D01*
X262687Y562514D02*
X264891D01*
X271504D02*
X274075D01*
X277381D02*
X279586D01*
X283994D02*
X286198D01*
X290239D02*
X293178D01*
X295382D02*
X296484D01*
X299423D02*
X301627D01*
X304566D02*
X307138D01*
X310444D02*
X312648D01*
X317056D02*
X319261D01*
X322567D02*
X324771D01*
X328445D02*
X330281D01*
X331383D02*
X336894D01*
X341302D02*
X344241D01*
X346445D02*
X349384D01*
X358935D02*
X361140D01*
X366283D02*
X368487D01*
X377671D02*
X380610D01*
X394202D02*
X396406D01*
X444530D02*
X447837D01*
X460327D02*
X466939D01*
X477225D02*
X485307D01*
X493389D02*
X503675D01*
X509553D02*
X522043D01*
X525717D02*
X539677D01*
X542248D02*
X647313D01*
X648415D02*
X657967D01*
X666783D02*
X674865D01*
X685151D02*
X690294D01*
X262687Y562146D02*
X264524D01*
X271504D02*
X274075D01*
X277381D02*
X279586D01*
X283994D02*
X286198D01*
X289872D02*
X292443D01*
X296117D02*
X296484D01*
X299423D02*
X301627D01*
X304199D02*
X306770D01*
X310444D02*
X312648D01*
X317056D02*
X319261D01*
X322567D02*
X324771D01*
X328445D02*
X330281D01*
X331016D02*
X332486D01*
X333955D02*
X336894D01*
X341302D02*
X343874D01*
X346813D02*
X349384D01*
X359303D02*
X361507D01*
X365915D02*
X368119D01*
X377671D02*
X380242D01*
X394202D02*
X396406D01*
X445265D02*
X447469D01*
X461429D02*
X466205D01*
X477225D02*
X484573D01*
X493389D02*
X502941D01*
X509921D02*
X521309D01*
X526084D02*
X539309D01*
X540779D02*
X541513D01*
X542983D02*
X646579D01*
X648783D02*
X657967D01*
X667151D02*
X673763D01*
X686253D02*
X689927D01*
X262320Y561779D02*
X264524D01*
X271504D02*
X273708D01*
X277381D02*
X279218D01*
X283994D02*
X285831D01*
X289872D02*
X292076D01*
X299423D02*
X301260D01*
X303831D02*
X306403D01*
X310444D02*
X312281D01*
X317056D02*
X318893D01*
X322567D02*
X324404D01*
X328445D02*
X329914D01*
X330649D02*
X331751D01*
X334322D02*
X336894D01*
X340935D02*
X343139D01*
X347180D02*
X349384D01*
X359303D02*
X361507D01*
X365915D02*
X368119D01*
X377303D02*
X380242D01*
X393835D02*
X396039D01*
X445632D02*
X446735D01*
X461429D02*
X465837D01*
X477593D02*
X484205D01*
X493757D02*
X502573D01*
X510655D02*
X520207D01*
X526819D02*
X538575D01*
X540411D02*
X541881D01*
X543350D02*
X646579D01*
X649517D02*
X657599D01*
X667885D02*
X673028D01*
X686621D02*
X689927D01*
X262320Y561412D02*
X264524D01*
X271504D02*
X273708D01*
X277014D02*
X279218D01*
X283994D02*
X285831D01*
X289504D02*
X291709D01*
X299423D02*
X301260D01*
X303464D02*
X306036D01*
X310077D02*
X312281D01*
X317056D02*
X318893D01*
X322567D02*
X324404D01*
X328445D02*
X329914D01*
X330649D02*
X331383D01*
X334690D02*
X336894D01*
X340567D02*
X342772D01*
X347180D02*
X349751D01*
X359303D02*
X361507D01*
X365548D02*
X367752D01*
X376936D02*
X379875D01*
X393835D02*
X396039D01*
X445632D02*
X446735D01*
X461429D02*
X465837D01*
X477593D02*
X484205D01*
X493757D02*
X502573D01*
X510655D02*
X520207D01*
X526819D02*
X538575D01*
X540411D02*
X541881D01*
X543350D02*
X646579D01*
X649517D02*
X657599D01*
X667885D02*
X673028D01*
X686621D02*
X689927D01*
X262320Y561044D02*
X264524D01*
X271504D02*
X273708D01*
X277014D02*
X279218D01*
X283627D02*
X285831D01*
X289504D02*
X291341D01*
X299056D02*
X301260D01*
X303097D02*
X305668D01*
X310077D02*
X312281D01*
X316689D02*
X318893D01*
X322199D02*
X324404D01*
X328077D02*
X329914D01*
X330281D02*
X331016D01*
X334690D02*
X336894D01*
X340567D02*
X342772D01*
X347547D02*
X349751D01*
X359303D02*
X361507D01*
X365548D02*
X367752D01*
X376936D02*
X379508D01*
X393835D02*
X396039D01*
X461796D02*
X464735D01*
X477960D02*
X483470D01*
X494491D02*
X501838D01*
X511022D02*
X520207D01*
X523513D02*
X524615D01*
X527186D02*
X538207D01*
X539677D02*
X542248D01*
X544085D02*
X646211D01*
X649885D02*
X656864D01*
X668253D02*
X672661D01*
X687355D02*
X688825D01*
X262320Y560677D02*
X264524D01*
X271504D02*
X273708D01*
X277014D02*
X279218D01*
X283627D02*
X285831D01*
X289137D02*
X291341D01*
X299056D02*
X301260D01*
X302729D02*
X304933D01*
X310077D02*
X312281D01*
X316689D02*
X318893D01*
X322199D02*
X324404D01*
X328077D02*
X329914D01*
X330281D02*
X331016D01*
X334690D02*
X336894D01*
X340200D02*
X342404D01*
X347547D02*
X349751D01*
X359303D02*
X361507D01*
X365181D02*
X367385D01*
X376569D02*
X379140D01*
X393835D02*
X396039D01*
X462531D02*
X464000D01*
X478695D02*
X483103D01*
X494859D02*
X501471D01*
X506247D02*
X507349D01*
X511757D02*
X519839D01*
X523145D02*
X524982D01*
X527921D02*
X537472D01*
X539309D02*
X543350D01*
X544452D02*
X645476D01*
X650619D02*
X656497D01*
X669355D02*
X672661D01*
X687723D02*
X688825D01*
X262320Y560309D02*
X264156D01*
X271136D02*
X273708D01*
X277014D02*
X279218D01*
X283627D02*
X285831D01*
X289137D02*
X291341D01*
X299056D02*
X301260D01*
X302729D02*
X304566D01*
X310077D02*
X312281D01*
X316689D02*
X318893D01*
X322199D02*
X324404D01*
X328077D02*
X330649D01*
X334690D02*
X336894D01*
X340200D02*
X342404D01*
X347547D02*
X349751D01*
X359303D02*
X361507D01*
X365181D02*
X367017D01*
X376201D02*
X378773D01*
X393835D02*
X396039D01*
X462531D02*
X464000D01*
X478695D02*
X483103D01*
X494859D02*
X501471D01*
X506247D02*
X507349D01*
X511757D02*
X519839D01*
X523145D02*
X524982D01*
X527921D02*
X537472D01*
X539309D02*
X543350D01*
X544452D02*
X645476D01*
X650619D02*
X656497D01*
X669355D02*
X672661D01*
X687723D02*
X688825D01*
X261952Y559942D02*
X264156D01*
X271136D02*
X273708D01*
X277014D02*
X278851D01*
X283627D02*
X285463D01*
X288770D02*
X290974D01*
X299056D02*
X300893D01*
X302362D02*
X304199D01*
X310077D02*
X311913D01*
X316689D02*
X318526D01*
X322199D02*
X324036D01*
X328077D02*
X330281D01*
X334690D02*
X336894D01*
X339833D02*
X342037D01*
X347547D02*
X349751D01*
X359303D02*
X361507D01*
X364813D02*
X367017D01*
X375834D02*
X378405D01*
X393467D02*
X395671D01*
X462898D02*
X463633D01*
X479062D02*
X482369D01*
X495593D02*
X500737D01*
X505512D02*
X507716D01*
X512125D02*
X519104D01*
X522043D02*
X525717D01*
X528288D02*
X537105D01*
X538575D02*
X543350D01*
X545187D02*
X645476D01*
X650987D02*
X655762D01*
X669355D02*
X671926D01*
X261952Y559575D02*
X264156D01*
X271136D02*
X273708D01*
X276647D02*
X278851D01*
X283627D02*
X285463D01*
X288770D02*
X290974D01*
X299056D02*
X300893D01*
X301995D02*
X303831D01*
X309709D02*
X311913D01*
X316689D02*
X318526D01*
X322199D02*
X324036D01*
X328077D02*
X330281D01*
X334690D02*
X336526D01*
X339833D02*
X342037D01*
X347547D02*
X349751D01*
X359670D02*
X361507D01*
X364813D02*
X366650D01*
X375467D02*
X378038D01*
X393467D02*
X395671D01*
X479797D02*
X482001D01*
X488981D02*
X490083D01*
X495961D02*
X500369D01*
X505145D02*
X508451D01*
X512125D02*
X518737D01*
X522043D02*
X526084D01*
X529023D02*
X536370D01*
X538207D02*
X544085D01*
X545554D02*
X646211D01*
X651721D02*
X655395D01*
X670457D02*
X671559D01*
X261952Y559207D02*
X264156D01*
X271136D02*
X273340D01*
X276647D02*
X278851D01*
X283259D02*
X285463D01*
X288770D02*
X290974D01*
X298688D02*
X300893D01*
X301627D02*
X303831D01*
X309709D02*
X311913D01*
X316322D02*
X318526D01*
X321832D02*
X324036D01*
X327710D02*
X329914D01*
X334690D02*
X336526D01*
X339833D02*
X342037D01*
X347547D02*
X349751D01*
X359670D02*
X361874D01*
X364446D02*
X366650D01*
X375099D02*
X377671D01*
X393467D02*
X395671D01*
X479797D02*
X482001D01*
X488981D02*
X490083D01*
X495961D02*
X500369D01*
X505145D02*
X508451D01*
X512125D02*
X518737D01*
X522043D02*
X526084D01*
X529023D02*
X536370D01*
X538207D02*
X544085D01*
X545554D02*
X646211D01*
X651721D02*
X655395D01*
X670457D02*
X671559D01*
X261952Y558840D02*
X264156D01*
X270769D02*
X273340D01*
X276647D02*
X278851D01*
X283259D02*
X285463D01*
X288770D02*
X290606D01*
X298688D02*
X300893D01*
X301627D02*
X304199D01*
X309709D02*
X311913D01*
X316322D02*
X318526D01*
X321832D02*
X324036D01*
X327710D02*
X329914D01*
X334322D02*
X336526D01*
X339465D02*
X341670D01*
X347547D02*
X349751D01*
X359670D02*
X361874D01*
X364446D02*
X366283D01*
X374732D02*
X377303D01*
X393467D02*
X395671D01*
X480164D02*
X481266D01*
X488246D02*
X490450D01*
X496328D02*
X499634D01*
X504777D02*
X508818D01*
X513227D02*
X517635D01*
X520941D02*
X526819D01*
X529391D02*
X536003D01*
X537472D02*
X545187D01*
X545554D02*
X646211D01*
X652456D02*
X654660D01*
X661273D02*
X662742D01*
X261585Y558473D02*
X263789D01*
X270769D02*
X273340D01*
X276647D02*
X278851D01*
X283259D02*
X285463D01*
X288402D02*
X290606D01*
X298688D02*
X300893D01*
X301995D02*
X304199D01*
X309709D02*
X311913D01*
X316322D02*
X318526D01*
X321832D02*
X324036D01*
X327710D02*
X329914D01*
X334322D02*
X336526D01*
X339465D02*
X341670D01*
X347180D02*
X349384D01*
X359670D02*
X361874D01*
X364078D02*
X366283D01*
X374365D02*
X376936D01*
X393467D02*
X395671D01*
X471715D02*
X472817D01*
X480164D02*
X480899D01*
X487879D02*
X491185D01*
X497063D02*
X499267D01*
X504043D02*
X509553D01*
X513227D02*
X517635D01*
X520207D02*
X527186D01*
X530125D02*
X535268D01*
X537472D02*
X647313D01*
X653191D02*
X654293D01*
X661273D02*
X663477D01*
X261585Y558105D02*
X263789D01*
X270402D02*
X272973D01*
X276647D02*
X278484D01*
X283259D02*
X285096D01*
X288402D02*
X290606D01*
X298688D02*
X300525D01*
X301995D02*
X304566D01*
X309709D02*
X311546D01*
X316322D02*
X318158D01*
X321832D02*
X323669D01*
X327710D02*
X329914D01*
X334322D02*
X336526D01*
X339465D02*
X341670D01*
X347180D02*
X349384D01*
X359670D02*
X361874D01*
X364078D02*
X365915D01*
X373630D02*
X376569D01*
X393100D02*
X395304D01*
X471715D02*
X472817D01*
X480164D02*
X480899D01*
X487879D02*
X491185D01*
X497063D02*
X499267D01*
X504043D02*
X509553D01*
X513227D02*
X517635D01*
X520207D02*
X527186D01*
X530125D02*
X535268D01*
X537472D02*
X647313D01*
X653191D02*
X654293D01*
X661273D02*
X663477D01*
X261585Y557738D02*
X263789D01*
X270034D02*
X272973D01*
X276279D02*
X278484D01*
X282892D02*
X285096D01*
X288402D02*
X290606D01*
X298688D02*
X300525D01*
X302362D02*
X304566D01*
X309342D02*
X311546D01*
X315954D02*
X318158D01*
X321832D02*
X323669D01*
X327710D02*
X329547D01*
X334322D02*
X336159D01*
X339465D02*
X341670D01*
X347180D02*
X349384D01*
X359670D02*
X361874D01*
X363711D02*
X365915D01*
X373262D02*
X376201D01*
X393100D02*
X395304D01*
X470980D02*
X473184D01*
X487144D02*
X491553D01*
X497430D02*
X498532D01*
X503675D02*
X509921D01*
X513961D02*
X516900D01*
X520207D02*
X528288D01*
X530493D02*
X534901D01*
X536370D02*
X647313D01*
X660906D02*
X663844D01*
X679274D02*
X679641D01*
X261585Y557371D02*
X263789D01*
X270034D02*
X272606D01*
X276279D02*
X278484D01*
X282892D02*
X283259D01*
X283627D02*
X285096D01*
X288402D02*
X290606D01*
X298321D02*
X300525D01*
X302362D02*
X304933D01*
X309342D02*
X311546D01*
X315954D02*
X316322D01*
X316689D02*
X318158D01*
X321465D02*
X323669D01*
X327342D02*
X329547D01*
X334322D02*
X336159D01*
X339465D02*
X341670D01*
X347180D02*
X349384D01*
X359670D02*
X361874D01*
X363711D02*
X365548D01*
X372895D02*
X375467D01*
X393100D02*
X395304D01*
X454449D02*
X454816D01*
X470613D02*
X473919D01*
X486777D02*
X492287D01*
X502941D02*
X510655D01*
X514329D02*
X515798D01*
X519839D02*
X529023D01*
X531227D02*
X534166D01*
X536003D02*
X647681D01*
X660171D02*
X663844D01*
X678539D02*
X680008D01*
X261585Y557003D02*
X263789D01*
X269667D02*
X272606D01*
X276279D02*
X278484D01*
X282525D02*
X285096D01*
X288402D02*
X290606D01*
X298321D02*
X300525D01*
X302729D02*
X304933D01*
X309342D02*
X311546D01*
X315587D02*
X318158D01*
X321465D02*
X323669D01*
X327342D02*
X329547D01*
X333955D02*
X336159D01*
X339465D02*
X341670D01*
X346813D02*
X349017D01*
X360037D02*
X361874D01*
X363344D02*
X365548D01*
X372528D02*
X375099D01*
X393100D02*
X395304D01*
X454449D02*
X454816D01*
X470613D02*
X473919D01*
X486777D02*
X492287D01*
X502941D02*
X510655D01*
X514329D02*
X515798D01*
X519839D02*
X529023D01*
X531227D02*
X534166D01*
X536003D02*
X647681D01*
X660171D02*
X663844D01*
X678539D02*
X680008D01*
X261218Y556636D02*
X263422D01*
X269300D02*
X272238D01*
X276279D02*
X278484D01*
X282157D02*
X282892D01*
X283259D02*
X285096D01*
X288402D02*
X290606D01*
X298321D02*
X300525D01*
X302729D02*
X305301D01*
X309342D02*
X311546D01*
X315220D02*
X315954D01*
X316322D02*
X318158D01*
X321465D02*
X323669D01*
X327342D02*
X329547D01*
X333955D02*
X336159D01*
X339465D02*
X341670D01*
X346813D02*
X349017D01*
X360037D02*
X361874D01*
X363344D02*
X365181D01*
X372160D02*
X374732D01*
X393100D02*
X395304D01*
X453714D02*
X455919D01*
X469878D02*
X474286D01*
X486409D02*
X492654D01*
X502573D02*
X511022D01*
X514696D02*
X515798D01*
X519104D02*
X529023D01*
X531595D02*
X533799D01*
X536003D02*
X648415D01*
X659069D02*
X664579D01*
X678171D02*
X680743D01*
X261218Y556269D02*
X263422D01*
X268932D02*
X271871D01*
X276279D02*
X278484D01*
X282157D02*
X282892D01*
X283259D02*
X284729D01*
X288402D02*
X290606D01*
X298321D02*
X300158D01*
X303097D02*
X305301D01*
X309342D02*
X311546D01*
X315220D02*
X315954D01*
X316322D02*
X317791D01*
X321465D02*
X323669D01*
X327342D02*
X329179D01*
X333955D02*
X336159D01*
X339465D02*
X341670D01*
X346445D02*
X348649D01*
X360037D02*
X361874D01*
X362976D02*
X365181D01*
X371426D02*
X374365D01*
X383549D02*
X385385D01*
X392733D02*
X394937D01*
X453347D02*
X456653D01*
X469511D02*
X475021D01*
X485675D02*
X493389D01*
X501838D02*
X511757D01*
X518737D02*
X530125D01*
X532329D02*
X533064D01*
X534901D02*
X648783D01*
X659069D02*
X664947D01*
X677437D02*
X681110D01*
X696540D02*
X697274D01*
X261218Y555901D02*
X263422D01*
X268197D02*
X271504D01*
X276279D02*
X278484D01*
X281790D02*
X282525D01*
X283259D02*
X284729D01*
X288402D02*
X290974D01*
X298321D02*
X300158D01*
X303097D02*
X305301D01*
X309342D02*
X311546D01*
X314852D02*
X315587D01*
X316322D02*
X317791D01*
X321465D02*
X323302D01*
X327342D02*
X329179D01*
X333955D02*
X335792D01*
X339465D02*
X342037D01*
X346078D02*
X348649D01*
X360037D02*
X362242D01*
X362976D02*
X364813D01*
X371058D02*
X373630D01*
X383181D02*
X385385D01*
X392733D02*
X394937D01*
X453347D02*
X456653D01*
X469511D02*
X475021D01*
X485675D02*
X493389D01*
X501838D02*
X511757D01*
X518737D02*
X530125D01*
X532329D02*
X533064D01*
X534901D02*
X648783D01*
X659069D02*
X664947D01*
X677437D02*
X681110D01*
X696540D02*
X697274D01*
X261218Y555534D02*
X263422D01*
X267095D02*
X271136D01*
X276279D02*
X278851D01*
X281055D02*
X282525D01*
X283259D02*
X284729D01*
X288402D02*
X290974D01*
X294647D02*
X295382D01*
X297954D02*
X300158D01*
X303097D02*
X305668D01*
X309342D02*
X311913D01*
X314118D02*
X315587D01*
X316322D02*
X317791D01*
X321097D02*
X323302D01*
X326975D02*
X329179D01*
X333955D02*
X335792D01*
X339465D02*
X342037D01*
X345710D02*
X348282D01*
X360037D02*
X364446D01*
X371058D02*
X373262D01*
X382814D02*
X385385D01*
X392733D02*
X394937D01*
X437183D02*
X438285D01*
X452612D02*
X457021D01*
X468776D02*
X475389D01*
X485307D02*
X494491D01*
X501471D02*
X512859D01*
X518002D02*
X530493D01*
X534166D02*
X649517D01*
X657967D02*
X665681D01*
X677069D02*
X681845D01*
X695805D02*
X698009D01*
X261218Y555166D02*
X270769D01*
X276279D02*
X279218D01*
X280688D02*
X282157D01*
X282892D02*
X284729D01*
X288770D02*
X291709D01*
X293913D02*
X295015D01*
X297954D02*
X300158D01*
X303464D02*
X305668D01*
X309342D02*
X312281D01*
X313750D02*
X315220D01*
X315954D02*
X317791D01*
X321097D02*
X323302D01*
X326975D02*
X329179D01*
X333588D02*
X335792D01*
X339833D02*
X342404D01*
X345343D02*
X347915D01*
X360037D02*
X364446D01*
X370691D02*
X379875D01*
X382814D02*
X385385D01*
X392733D02*
X394937D01*
X436448D02*
X438653D01*
X452245D02*
X457755D01*
X468409D02*
X476491D01*
X484573D02*
X494859D01*
X500737D02*
X512859D01*
X517635D02*
X531227D01*
X534166D02*
X649885D01*
X657967D02*
X666049D01*
X676335D02*
X682212D01*
X694703D02*
X698009D01*
X260850Y554799D02*
X270402D01*
X276279D02*
X281790D01*
X282892D02*
X284729D01*
X288770D02*
X295015D01*
X297954D02*
X300158D01*
X303464D02*
X306036D01*
X309342D02*
X314852D01*
X315954D02*
X317791D01*
X321097D02*
X323302D01*
X326975D02*
X329179D01*
X333588D02*
X335792D01*
X339833D02*
X342772D01*
X344976D02*
X347547D01*
X360037D02*
X364078D01*
X370691D02*
X379875D01*
X382814D02*
X385385D01*
X389426D02*
X397508D01*
X436448D02*
X438653D01*
X452245D02*
X457755D01*
X468409D02*
X476491D01*
X484573D02*
X494859D01*
X500737D02*
X512859D01*
X517635D02*
X531227D01*
X534166D02*
X649885D01*
X657967D02*
X666049D01*
X676335D02*
X682212D01*
X694703D02*
X698009D01*
X260850Y554432D02*
X269667D01*
X276647D02*
X281422D01*
X282892D02*
X284361D01*
X288770D02*
X295015D01*
X297954D02*
X299790D01*
X303831D02*
X306036D01*
X309709D02*
X314485D01*
X315954D02*
X317424D01*
X321097D02*
X323302D01*
X326975D02*
X328812D01*
X333588D02*
X335792D01*
X340200D02*
X347180D01*
X360037D02*
X364078D01*
X370691D02*
X379875D01*
X382814D02*
X385385D01*
X389426D02*
X397508D01*
X436081D02*
X439387D01*
X451510D02*
X458123D01*
X468041D02*
X477225D01*
X484205D02*
X494859D01*
X500369D02*
X513227D01*
X516900D02*
X531595D01*
X533064D02*
X650619D01*
X656864D02*
X666783D01*
X675967D02*
X682947D01*
X694335D02*
X698376D01*
X260850Y554064D02*
X268565D01*
X276647D02*
X281055D01*
X282892D02*
X284361D01*
X289137D02*
X294647D01*
X297954D02*
X299790D01*
X303831D02*
X306403D01*
X309709D02*
X314118D01*
X315954D02*
X317424D01*
X321097D02*
X322934D01*
X326975D02*
X328812D01*
X333588D02*
X335424D01*
X340567D02*
X346813D01*
X360405D02*
X363711D01*
X370324D02*
X379508D01*
X382814D02*
X385018D01*
X389059D02*
X397508D01*
X436448D02*
X438653D01*
X452245D02*
X457755D01*
X468409D02*
X476491D01*
X484573D02*
X494859D01*
X500737D02*
X513227D01*
X517635D02*
X531227D01*
X533799D02*
X649885D01*
X657967D02*
X666049D01*
X676335D02*
X682212D01*
X695437D02*
X698009D01*
X260850Y553697D02*
X267095D01*
X277014D02*
X280688D01*
X282892D02*
X284361D01*
X289504D02*
X293913D01*
X297954D02*
X299790D01*
X304199D02*
X306403D01*
X310077D02*
X313383D01*
X315954D02*
X317424D01*
X321097D02*
X322934D01*
X326975D02*
X328812D01*
X333588D02*
X335424D01*
X340935D02*
X346078D01*
X360405D02*
X363711D01*
X370324D02*
X379508D01*
X382814D02*
X384651D01*
X389059D02*
X397508D01*
X436448D02*
X438653D01*
X452245D02*
X457755D01*
X468409D02*
X476491D01*
X484573D02*
X494859D01*
X500737D02*
X513227D01*
X517635D02*
X531227D01*
X533799D02*
X649885D01*
X657967D02*
X666049D01*
X676335D02*
X682212D01*
X695437D02*
X698009D01*
X277749Y553330D02*
X279586D01*
X290606D02*
X292811D01*
X310811D02*
X312648D01*
X342037D02*
X344976D01*
X437183D02*
X438285D01*
X452612D02*
X457021D01*
X468776D02*
X476123D01*
X485307D02*
X494491D01*
X501471D02*
X512125D01*
X518002D02*
X530493D01*
X534166D02*
X649517D01*
X658701D02*
X665681D01*
X677069D02*
X681845D01*
X695805D02*
X697274D01*
X453347Y552962D02*
X456653D01*
X469511D02*
X475389D01*
X485675D02*
X493757D01*
X501838D02*
X511757D01*
X518737D02*
X530125D01*
X531595D02*
X533064D01*
X535268D02*
X640333D01*
X640701D02*
X648783D01*
X659069D02*
X664947D01*
X677437D02*
X681110D01*
X696540D02*
X696907D01*
X453714Y552595D02*
X455919D01*
X469878D02*
X474286D01*
X486409D02*
X492654D01*
X502573D02*
X511022D01*
X514696D02*
X515431D01*
X519104D02*
X529391D01*
X531595D02*
X533799D01*
X535268D02*
X639599D01*
X641435D02*
X648415D01*
X659803D02*
X664579D01*
X678171D02*
X680743D01*
X453714Y552228D02*
X455919D01*
X469878D02*
X474286D01*
X486409D02*
X492654D01*
X502573D02*
X511022D01*
X514696D02*
X515431D01*
X519104D02*
X529391D01*
X531595D02*
X533799D01*
X535268D02*
X639599D01*
X641435D02*
X648415D01*
X659803D02*
X664579D01*
X678171D02*
X680743D01*
X454449Y551860D02*
X455551D01*
X470613D02*
X474286D01*
X486777D02*
X492654D01*
X497430D02*
X498165D01*
X502941D02*
X510655D01*
X514329D02*
X516533D01*
X519839D02*
X529023D01*
X530493D02*
X534166D01*
X536003D02*
X639599D01*
X641803D02*
X647681D01*
X660171D02*
X663844D01*
X678539D02*
X680008D01*
X470613Y551493D02*
X473919D01*
X487144D02*
X491553D01*
X497430D02*
X498532D01*
X503675D02*
X509921D01*
X513961D02*
X516900D01*
X519839D02*
X528288D01*
X530125D02*
X534901D01*
X536370D02*
X639231D01*
X642538D02*
X647313D01*
X660906D02*
X663477D01*
X679274D02*
X679641D01*
X470613Y551125D02*
X473919D01*
X487144D02*
X491553D01*
X497430D02*
X498532D01*
X503675D02*
X509921D01*
X513961D02*
X516900D01*
X519839D02*
X528288D01*
X530125D02*
X534901D01*
X536370D02*
X639231D01*
X642538D02*
X647313D01*
X660906D02*
X663477D01*
X679274D02*
X679641D01*
X470980Y550758D02*
X472817D01*
X480164D02*
X480899D01*
X487144D02*
X491185D01*
X497063D02*
X499267D01*
X504043D02*
X509553D01*
X513227D02*
X517635D01*
X520207D02*
X527921D01*
X530125D02*
X535268D01*
X537105D02*
X638497D01*
X642905D02*
X646579D01*
X653191D02*
X653558D01*
X661273D02*
X662742D01*
X471715Y550391D02*
X472082D01*
X479797D02*
X482001D01*
X488246D02*
X490450D01*
X495961D02*
X499634D01*
X504777D02*
X508818D01*
X512859D02*
X518002D01*
X520941D02*
X527186D01*
X529023D02*
X536003D01*
X537472D02*
X638497D01*
X643272D02*
X646211D01*
X652456D02*
X654293D01*
X661640D02*
X662375D01*
X471715Y550023D02*
X472082D01*
X479797D02*
X482001D01*
X488246D02*
X490450D01*
X495961D02*
X499634D01*
X504777D02*
X508818D01*
X512859D02*
X518002D01*
X520941D02*
X527186D01*
X529023D02*
X536003D01*
X537472D02*
X638497D01*
X643272D02*
X646211D01*
X652456D02*
X654293D01*
X661640D02*
X662375D01*
X462898Y549656D02*
X463633D01*
X479797D02*
X482369D01*
X488246D02*
X490450D01*
X495961D02*
X500369D01*
X504777D02*
X508451D01*
X512125D02*
X518737D01*
X521309D02*
X526819D01*
X529023D02*
X536370D01*
X538207D02*
X638497D01*
X644007D02*
X645476D01*
X652089D02*
X654660D01*
X670457D02*
X670824D01*
X462531Y549289D02*
X464000D01*
X479062D02*
X482369D01*
X488981D02*
X489348D01*
X495593D02*
X501471D01*
X505512D02*
X507716D01*
X511757D02*
X519104D01*
X522043D02*
X526084D01*
X528288D02*
X537105D01*
X538575D02*
X639231D01*
X644374D02*
X645109D01*
X651721D02*
X655395D01*
X670089D02*
X671559D01*
X462531Y548921D02*
X464000D01*
X479062D02*
X482369D01*
X488981D02*
X489348D01*
X495593D02*
X501471D01*
X505512D02*
X507716D01*
X511757D02*
X519104D01*
X522043D02*
X526084D01*
X528288D02*
X537105D01*
X538207D02*
X639231D01*
X644374D02*
X645109D01*
X651721D02*
X655395D01*
X670089D02*
X671559D01*
X461796Y548554D02*
X465103D01*
X477960D02*
X483103D01*
X494491D02*
X501471D01*
X505512D02*
X507349D01*
X511022D02*
X519839D01*
X522411D02*
X525717D01*
X527921D02*
X537472D01*
X538207D02*
X639599D01*
X650987D02*
X655762D01*
X669355D02*
X671926D01*
X445632Y548187D02*
X446735D01*
X461429D02*
X465103D01*
X477593D02*
X484205D01*
X494491D02*
X502573D01*
X506247D02*
X506614D01*
X510655D02*
X520207D01*
X523145D02*
X524615D01*
X527186D02*
X640333D01*
X650619D02*
X656497D01*
X668987D02*
X672661D01*
X687723D02*
X688825D01*
X445632Y547819D02*
X446735D01*
X461429D02*
X465103D01*
X477593D02*
X484205D01*
X494491D02*
X502573D01*
X506247D02*
X506614D01*
X510655D02*
X520207D01*
X523145D02*
X524615D01*
X527186D02*
X640333D01*
X650619D02*
X656497D01*
X668987D02*
X672661D01*
X687723D02*
X688825D01*
X445265Y547452D02*
X447469D01*
X461429D02*
X466205D01*
X477593D02*
X484573D01*
X493389D02*
X502941D01*
X509921D02*
X520941D01*
X523513D02*
X523880D01*
X526819D02*
X640701D01*
X649885D02*
X656864D01*
X668253D02*
X673028D01*
X687355D02*
X688825D01*
X444530Y547085D02*
X447837D01*
X460327D02*
X466939D01*
X476491D02*
X485307D01*
X493389D02*
X503675D01*
X509553D02*
X521309D01*
X526084D02*
X641435D01*
X649517D02*
X657599D01*
X667885D02*
X673763D01*
X686621D02*
X689192D01*
X444530Y546717D02*
X447837D01*
X460327D02*
X466939D01*
X476491D02*
X485307D01*
X493389D02*
X503675D01*
X509553D02*
X521309D01*
X526084D02*
X641435D01*
X649517D02*
X657599D01*
X667885D02*
X673763D01*
X686621D02*
X689192D01*
X428367Y546350D02*
X429469D01*
X444163D02*
X448571D01*
X460327D02*
X467307D01*
X476491D02*
X485675D01*
X492654D02*
X504043D01*
X508818D02*
X522411D01*
X525717D02*
X641803D01*
X648783D02*
X657967D01*
X667151D02*
X673763D01*
X686253D02*
X689927D01*
X427999Y545982D02*
X430203D01*
X443428D02*
X449673D01*
X459592D02*
X468041D01*
X475389D02*
X486409D01*
X492287D02*
X504777D01*
X508451D02*
X523145D01*
X524982D02*
X641803D01*
X648415D02*
X657967D01*
X666783D02*
X674865D01*
X685519D02*
X690294D01*
X427999Y545615D02*
X430203D01*
X443428D02*
X449673D01*
X459592D02*
X468041D01*
X475389D02*
X486409D01*
X492287D02*
X504777D01*
X508451D02*
X523145D01*
X524982D02*
X641803D01*
X648415D02*
X657967D01*
X666783D02*
X674865D01*
X685519D02*
X690294D01*
X428367Y545248D02*
X429469D01*
X444163D02*
X448939D01*
X460327D02*
X467307D01*
X476491D02*
X485675D01*
X492654D02*
X504043D01*
X508818D02*
X522043D01*
X525717D02*
X641803D01*
X648783D02*
X657599D01*
X667151D02*
X674130D01*
X686253D02*
X689927D01*
X428367Y544880D02*
X429101D01*
X444530D02*
X447837D01*
X460327D02*
X466939D01*
X476491D02*
X485307D01*
X493389D02*
X503675D01*
X509553D02*
X522043D01*
X526084D02*
X641435D01*
X649517D02*
X657599D01*
X667885D02*
X673028D01*
X686621D02*
X689192D01*
X428367Y544513D02*
X429101D01*
X444530D02*
X447837D01*
X460327D02*
X466939D01*
X476491D02*
X485307D01*
X493389D02*
X503675D01*
X509553D02*
X522043D01*
X526084D02*
X641435D01*
X649517D02*
X657599D01*
X667885D02*
X673028D01*
X686621D02*
X689192D01*
X445265Y544146D02*
X447837D01*
X460694D02*
X466205D01*
X477225D02*
X484573D01*
X493757D02*
X502941D01*
X509921D02*
X521309D01*
X523513D02*
X524615D01*
X526819D02*
X640333D01*
X649885D02*
X656864D01*
X668253D02*
X673028D01*
X687355D02*
X688825D01*
X445632Y543778D02*
X446735D01*
X461429D02*
X465837D01*
X477593D02*
X484205D01*
X493757D02*
X502573D01*
X506247D02*
X506614D01*
X510655D02*
X520941D01*
X523145D02*
X524982D01*
X526819D02*
X639599D01*
X650619D02*
X655762D01*
X669355D02*
X671926D01*
X687723D02*
X688090D01*
X461796Y543411D02*
X465103D01*
X477960D02*
X483470D01*
X494491D02*
X501838D01*
X505512D02*
X507716D01*
X511022D02*
X519839D01*
X522411D02*
X525717D01*
X527921D02*
X639599D01*
X650987D02*
X655762D01*
X670089D02*
X671559D01*
X461796Y543044D02*
X465103D01*
X477960D02*
X483470D01*
X494491D02*
X501838D01*
X505512D02*
X507716D01*
X511022D02*
X519839D01*
X522411D02*
X525717D01*
X527921D02*
X639599D01*
X650987D02*
X655762D01*
X670089D02*
X671559D01*
X462531Y542676D02*
X464735D01*
X478695D02*
X483103D01*
X488981D02*
X490083D01*
X494859D02*
X501471D01*
X505145D02*
X507716D01*
X511757D02*
X519104D01*
X522043D02*
X526084D01*
X527921D02*
X638497D01*
X652089D02*
X655395D01*
X670457D02*
X670824D01*
X462898Y542309D02*
X464000D01*
X479062D02*
X482369D01*
X488246D02*
X490450D01*
X495593D02*
X500737D01*
X504777D02*
X508818D01*
X512125D02*
X518737D01*
X521309D02*
X526819D01*
X529023D02*
X632619D01*
X633721D02*
X638129D01*
X644374D02*
X645476D01*
X652089D02*
X654660D01*
X462898Y541941D02*
X464000D01*
X479062D02*
X482369D01*
X488246D02*
X490450D01*
X495593D02*
X500737D01*
X504777D02*
X508818D01*
X512125D02*
X518737D01*
X521309D02*
X526819D01*
X529023D02*
X632619D01*
X633721D02*
X638129D01*
X644374D02*
X645476D01*
X652089D02*
X654660D01*
X471715Y541574D02*
X472817D01*
X479797D02*
X482001D01*
X487879D02*
X491185D01*
X495961D02*
X500369D01*
X504043D02*
X508818D01*
X512859D02*
X518002D01*
X520941D02*
X527186D01*
X529023D02*
X632251D01*
X634088D02*
X638129D01*
X644007D02*
X646211D01*
X653191D02*
X654293D01*
X470980Y541207D02*
X473184D01*
X480164D02*
X481266D01*
X487144D02*
X491553D01*
X496328D02*
X499634D01*
X504043D02*
X509921D01*
X513227D02*
X517635D01*
X520207D02*
X527921D01*
X529391D02*
X631517D01*
X635190D02*
X637394D01*
X643272D02*
X646579D01*
X661273D02*
X662742D01*
X470980Y540839D02*
X473184D01*
X480164D02*
X481266D01*
X487144D02*
X491553D01*
X496328D02*
X499634D01*
X504043D02*
X509921D01*
X513227D02*
X517635D01*
X520207D02*
X527921D01*
X529391D02*
X631517D01*
X635190D02*
X637394D01*
X643272D02*
X646579D01*
X661273D02*
X662742D01*
X454449Y540472D02*
X455551D01*
X470613D02*
X473919D01*
X480164D02*
X480899D01*
X486777D02*
X492287D01*
X497063D02*
X499267D01*
X502941D02*
X510655D01*
X513227D02*
X516900D01*
X519839D02*
X528288D01*
X530125D02*
X631517D01*
X635925D02*
X637027D01*
X642538D02*
X646579D01*
X660906D02*
X663477D01*
X453714Y540105D02*
X455919D01*
X469878D02*
X474286D01*
X486409D02*
X492654D01*
X497430D02*
X498165D01*
X502573D02*
X511022D01*
X514329D02*
X516533D01*
X519104D02*
X529023D01*
X530493D02*
X631149D01*
X642538D02*
X647313D01*
X660906D02*
X663844D01*
X679274D02*
X679641D01*
X453714Y539737D02*
X455919D01*
X469878D02*
X474286D01*
X486409D02*
X492654D01*
X497430D02*
X498165D01*
X502573D02*
X511022D01*
X514329D02*
X516533D01*
X519104D02*
X529023D01*
X530493D02*
X631149D01*
X642538D02*
X647313D01*
X660906D02*
X663844D01*
X679274D02*
X679641D01*
X437183Y539370D02*
X437551D01*
X453347D02*
X456653D01*
X469511D02*
X475389D01*
X485675D02*
X493389D01*
X501838D02*
X511757D01*
X514329D02*
X515798D01*
X518737D02*
X529391D01*
X531227D02*
X631517D01*
X641435D02*
X648415D01*
X660171D02*
X663844D01*
X678539D02*
X680008D01*
X437183Y539003D02*
X438285D01*
X452612D02*
X457021D01*
X468776D02*
X475389D01*
X485307D02*
X493757D01*
X501471D02*
X512125D01*
X514696D02*
X515431D01*
X518002D02*
X530125D01*
X531227D02*
X632251D01*
X641435D02*
X648415D01*
X659803D02*
X664579D01*
X678171D02*
X680743D01*
X437183Y538635D02*
X438285D01*
X452612D02*
X457021D01*
X468776D02*
X475389D01*
X485307D02*
X493757D01*
X501471D02*
X512125D01*
X514696D02*
X515431D01*
X518002D02*
X530125D01*
X530860D02*
X632251D01*
X641435D02*
X648415D01*
X659803D02*
X664579D01*
X678171D02*
X680743D01*
X436448Y538268D02*
X438653D01*
X452245D02*
X457755D01*
X468409D02*
X476123D01*
X484573D02*
X494859D01*
X501471D02*
X512859D01*
X517635D02*
X530493D01*
X530860D02*
X632619D01*
X640333D02*
X648783D01*
X658701D02*
X664947D01*
X677437D02*
X681110D01*
X435346Y537901D02*
X439387D01*
X451510D02*
X458123D01*
X468041D02*
X476491D01*
X484205D02*
X494859D01*
X500369D02*
X513227D01*
X516900D02*
X633354D01*
X639599D02*
X649517D01*
X657967D02*
X665681D01*
X677069D02*
X681845D01*
X695805D02*
X697274D01*
X435346Y537533D02*
X439387D01*
X451510D02*
X458123D01*
X468041D02*
X476491D01*
X484205D02*
X494859D01*
X500369D02*
X513227D01*
X516900D02*
X633354D01*
X639599D02*
X649517D01*
X657967D02*
X665681D01*
X677069D02*
X681845D01*
X695805D02*
X697274D01*
X420285Y537166D02*
X421019D01*
X435346D02*
X440489D01*
X451143D02*
X458857D01*
X467307D02*
X477225D01*
X483470D02*
X495961D01*
X499634D02*
X513961D01*
X516533D02*
X633721D01*
X639231D02*
X649885D01*
X657599D02*
X666049D01*
X676335D02*
X682212D01*
X695805D02*
X698009D01*
X436081Y536798D02*
X439755D01*
X451510D02*
X458123D01*
X468041D02*
X477225D01*
X484205D02*
X494859D01*
X500737D02*
X513227D01*
X516900D02*
X633354D01*
X639599D02*
X649517D01*
X658701D02*
X665681D01*
X677069D02*
X681845D01*
X695805D02*
X696907D01*
X436081Y536431D02*
X439755D01*
X451510D02*
X458123D01*
X468041D02*
X477225D01*
X484205D02*
X494859D01*
X500737D02*
X513227D01*
X516900D02*
X633354D01*
X639599D02*
X649517D01*
X658701D02*
X665681D01*
X677069D02*
X681845D01*
X695805D02*
X696907D01*
X436081Y536064D02*
X438653D01*
X452245D02*
X457755D01*
X468409D02*
X476491D01*
X484573D02*
X494859D01*
X501471D02*
X512859D01*
X517635D02*
X632619D01*
X640333D02*
X648783D01*
X658701D02*
X664947D01*
X677437D02*
X681110D01*
X436448Y535696D02*
X438653D01*
X452612D02*
X457021D01*
X468776D02*
X476123D01*
X485307D02*
X494491D01*
X501471D02*
X512125D01*
X514696D02*
X515431D01*
X518002D02*
X632251D01*
X641435D02*
X648415D01*
X659803D02*
X664579D01*
X678171D02*
X680743D01*
X436448Y535329D02*
X438653D01*
X452612D02*
X457021D01*
X468776D02*
X476123D01*
X485307D02*
X494491D01*
X501471D02*
X512125D01*
X514696D02*
X515431D01*
X518002D02*
X632251D01*
X641435D02*
X648415D01*
X659803D02*
X664579D01*
X678171D02*
X680743D01*
X437183Y534962D02*
X438285D01*
X453347D02*
X456653D01*
X469511D02*
X475389D01*
X485675D02*
X493389D01*
X497430D02*
X498165D01*
X501838D02*
X511757D01*
X514329D02*
X516533D01*
X518737D02*
X631517D01*
X641803D02*
X647681D01*
X660171D02*
X663844D01*
X679274D02*
X680008D01*
X453714Y534594D02*
X455919D01*
X469511D02*
X474286D01*
X486409D02*
X492654D01*
X497430D02*
X498532D01*
X502573D02*
X511022D01*
X513961D02*
X516533D01*
X519104D02*
X631149D01*
X642538D02*
X647313D01*
X660906D02*
X663477D01*
X454449Y534227D02*
X455551D01*
X470613D02*
X474286D01*
X486777D02*
X492287D01*
X497063D02*
X499267D01*
X502941D02*
X510655D01*
X513227D02*
X517635D01*
X519839D02*
X630415D01*
X635925D02*
X636292D01*
X642905D02*
X646579D01*
X661273D02*
X662742D01*
X454449Y533859D02*
X455551D01*
X470613D02*
X474286D01*
X486777D02*
X492287D01*
X497063D02*
X499267D01*
X502941D02*
X510655D01*
X513227D02*
X517635D01*
X519839D02*
X630415D01*
X635925D02*
X636292D01*
X642905D02*
X646579D01*
X661273D02*
X662742D01*
X454449Y533492D02*
X454816D01*
X470613D02*
X473184D01*
X480164D02*
X481266D01*
X487144D02*
X491553D01*
X496328D02*
X499634D01*
X503675D02*
X509921D01*
X512859D02*
X517635D01*
X520207D02*
X630047D01*
X635190D02*
X637027D01*
X643272D02*
X646211D01*
X661640D02*
X662375D01*
X462898Y533125D02*
X463633D01*
X470980D02*
X472817D01*
X479062D02*
X482001D01*
X487144D02*
X491553D01*
X495961D02*
X500369D01*
X504043D02*
X509553D01*
X512125D02*
X518737D01*
X520941D02*
X629313D01*
X634823D02*
X637394D01*
X644007D02*
X645476D01*
X653191D02*
X653558D01*
X462898Y532757D02*
X463633D01*
X470980D02*
X472817D01*
X479062D02*
X482001D01*
X487144D02*
X491553D01*
X495961D02*
X500369D01*
X504043D02*
X509553D01*
X512125D02*
X518737D01*
X520941D02*
X629313D01*
X634823D02*
X637394D01*
X644007D02*
X645476D01*
X653191D02*
X653558D01*
X462531Y532390D02*
X464000D01*
X471715D02*
X472082D01*
X479062D02*
X483103D01*
X487879D02*
X491185D01*
X495593D02*
X500737D01*
X504777D02*
X508818D01*
X511757D02*
X519104D01*
X521309D02*
X625639D01*
X626006D02*
X628945D01*
X634088D02*
X638129D01*
X644374D02*
X645109D01*
X652456D02*
X654293D01*
X461796Y532023D02*
X465103D01*
X477960D02*
X483103D01*
X488981D02*
X490083D01*
X494859D02*
X501471D01*
X505145D02*
X508451D01*
X511757D02*
X519839D01*
X522043D02*
X526084D01*
X526452D02*
X625639D01*
X627108D02*
X628210D01*
X633721D02*
X638497D01*
X652089D02*
X654660D01*
X461796Y531655D02*
X465103D01*
X477960D02*
X483103D01*
X488981D02*
X490083D01*
X494859D02*
X501471D01*
X505145D02*
X508451D01*
X511757D02*
X519839D01*
X522043D02*
X625639D01*
X627108D02*
X628210D01*
X633721D02*
X638497D01*
X652089D02*
X654660D01*
X445632Y531288D02*
X446735D01*
X461429D02*
X465103D01*
X477960D02*
X483470D01*
X488981D02*
X489348D01*
X494491D02*
X502573D01*
X505512D02*
X507716D01*
X511022D02*
X520207D01*
X522411D02*
X624904D01*
X627108D02*
X627843D01*
X633354D02*
X639231D01*
X651721D02*
X655395D01*
X670089D02*
X671559D01*
X444530Y530921D02*
X447469D01*
X460694D02*
X466205D01*
X477225D02*
X484573D01*
X493757D02*
X502573D01*
X506247D02*
X507349D01*
X509921D02*
X520941D01*
X523145D02*
X524982D01*
X525717D02*
X624537D01*
X632619D02*
X639599D01*
X650987D02*
X655762D01*
X669355D02*
X671926D01*
X444530Y530553D02*
X447469D01*
X460694D02*
X466205D01*
X477225D02*
X484573D01*
X493757D02*
X502573D01*
X506247D02*
X507349D01*
X509921D02*
X520941D01*
X523145D02*
X524982D01*
X525350D02*
X624537D01*
X632619D02*
X639599D01*
X650987D02*
X655762D01*
X669355D02*
X671926D01*
X428367Y530186D02*
X429469D01*
X444530D02*
X448571D01*
X460694D02*
X466939D01*
X477225D02*
X485307D01*
X493389D02*
X502941D01*
X509553D02*
X521309D01*
X523145D02*
X524615D01*
X524982D02*
X624170D01*
X632251D02*
X640333D01*
X650619D02*
X656497D01*
X668987D02*
X672661D01*
X427999Y529818D02*
X430203D01*
X444163D02*
X448939D01*
X459592D02*
X467307D01*
X476123D02*
X485675D01*
X492654D02*
X504043D01*
X508818D02*
X522043D01*
X524615D02*
X624170D01*
X631517D02*
X640701D01*
X649885D02*
X656864D01*
X668987D02*
X672661D01*
X687723D02*
X688825D01*
X427999Y529451D02*
X430203D01*
X444163D02*
X448939D01*
X459592D02*
X467307D01*
X476123D02*
X485675D01*
X492654D02*
X504043D01*
X508818D02*
X522043D01*
X524615D02*
X624170D01*
X631517D02*
X640701D01*
X649885D02*
X656864D01*
X668987D02*
X672661D01*
X687723D02*
X688825D01*
X427264Y529084D02*
X430571D01*
X443428D02*
X449673D01*
X459225D02*
X468041D01*
X475389D02*
X486409D01*
X492287D02*
X504777D01*
X508451D02*
X522411D01*
X524248D02*
X624537D01*
X631149D02*
X640701D01*
X649517D02*
X656864D01*
X668253D02*
X673028D01*
X686621D02*
X689192D01*
X426897Y528717D02*
X431305D01*
X443061D02*
X450041D01*
X459225D02*
X468409D01*
X475389D02*
X486777D01*
X491553D02*
X505145D01*
X507716D02*
X523145D01*
X523880D02*
X624904D01*
X630415D02*
X641435D01*
X648783D02*
X657599D01*
X667151D02*
X673763D01*
X686253D02*
X689192D01*
X426897Y528349D02*
X431305D01*
X443061D02*
X450041D01*
X459225D02*
X468409D01*
X475389D02*
X486777D01*
X491553D02*
X505145D01*
X507716D02*
X523145D01*
X523880D02*
X624904D01*
X630415D02*
X641435D01*
X648783D02*
X657599D01*
X667151D02*
X673763D01*
X686253D02*
X689192D01*
X427264Y527982D02*
X430571D01*
X443061D02*
X449673D01*
X459592D02*
X468041D01*
X476123D02*
X486409D01*
X492287D02*
X504777D01*
X508451D02*
X522411D01*
X523513D02*
X624537D01*
X631149D02*
X640701D01*
X649517D02*
X657599D01*
X667885D02*
X673028D01*
X686621D02*
X689192D01*
X427999Y527614D02*
X430203D01*
X444163D02*
X448939D01*
X459592D02*
X467307D01*
X476123D02*
X485675D01*
X492654D02*
X504043D01*
X508818D02*
X522043D01*
X523145D02*
X624170D01*
X631517D02*
X640701D01*
X649885D02*
X656497D01*
X668987D02*
X672661D01*
X687723D02*
X688090D01*
X427999Y527247D02*
X430203D01*
X444163D02*
X448939D01*
X459592D02*
X467307D01*
X476123D02*
X485675D01*
X492654D02*
X504043D01*
X508818D02*
X522043D01*
X522778D02*
X624170D01*
X631517D02*
X640701D01*
X649885D02*
X656497D01*
X668987D02*
X672661D01*
X687723D02*
X688090D01*
X428367Y526880D02*
X429469D01*
X444163D02*
X448571D01*
X460327D02*
X466939D01*
X476491D02*
X485307D01*
X493389D02*
X502941D01*
X509553D02*
X521309D01*
X522778D02*
X623435D01*
X632251D02*
X640333D01*
X650619D02*
X655762D01*
X669355D02*
X672661D01*
X444530Y526512D02*
X447469D01*
X460694D02*
X466205D01*
X477225D02*
X484573D01*
X493757D02*
X502941D01*
X506247D02*
X507349D01*
X509921D02*
X520941D01*
X522411D02*
X623067D01*
X632619D02*
X639599D01*
X650987D02*
X655395D01*
X670089D02*
X671559D01*
X444530Y526145D02*
X447469D01*
X460694D02*
X466205D01*
X477225D02*
X484573D01*
X493757D02*
X502941D01*
X506247D02*
X507349D01*
X509921D02*
X520941D01*
X522043D02*
X623067D01*
X632619D02*
X639599D01*
X650987D02*
X655395D01*
X670089D02*
X671559D01*
X445265Y525778D02*
X446735D01*
X461429D02*
X465837D01*
X477593D02*
X484205D01*
X488981D02*
X490083D01*
X494491D02*
X502573D01*
X505512D02*
X507716D01*
X510655D02*
X520207D01*
X522043D02*
X622333D01*
X633354D02*
X639231D01*
X652089D02*
X655395D01*
X670457D02*
X671559D01*
X445632Y525410D02*
X446367D01*
X461796D02*
X465103D01*
X477960D02*
X483470D01*
X488246D02*
X490450D01*
X494859D02*
X501838D01*
X504777D02*
X508451D01*
X511022D02*
X519839D01*
X521309D02*
X621965D01*
X627108D02*
X628210D01*
X633721D02*
X638497D01*
X652089D02*
X654660D01*
X462531Y525043D02*
X464735D01*
X471715D02*
X472817D01*
X478695D02*
X483103D01*
X487879D02*
X491185D01*
X494859D02*
X501471D01*
X504777D02*
X508818D01*
X511757D02*
X519104D01*
X520941D02*
X621231D01*
X626741D02*
X628945D01*
X634088D02*
X638129D01*
X653191D02*
X654293D01*
X462531Y524675D02*
X464735D01*
X471715D02*
X472817D01*
X478695D02*
X483103D01*
X487879D02*
X491185D01*
X494859D02*
X501471D01*
X504777D02*
X508818D01*
X511757D02*
X519104D01*
X520941D02*
X621231D01*
X626741D02*
X628945D01*
X634088D02*
X638129D01*
X653191D02*
X654293D01*
X462898Y524308D02*
X464000D01*
X470980D02*
X473184D01*
X479062D02*
X482369D01*
X487144D02*
X491553D01*
X495961D02*
X500369D01*
X503675D02*
X509553D01*
X512125D02*
X518737D01*
X520207D02*
X621231D01*
X625639D02*
X628945D01*
X635190D02*
X637394D01*
X644007D02*
X645476D01*
X454449Y523941D02*
X455551D01*
X470613D02*
X473919D01*
X479797D02*
X482001D01*
X486777D02*
X492287D01*
X495961D02*
X500369D01*
X502941D02*
X509921D01*
X512859D02*
X518002D01*
X520207D02*
X620863D01*
X625639D02*
X630047D01*
X635925D02*
X637027D01*
X644007D02*
X646211D01*
X454449Y523573D02*
X455551D01*
X470613D02*
X473919D01*
X479797D02*
X482001D01*
X486777D02*
X492287D01*
X495961D02*
X500369D01*
X502941D02*
X509921D01*
X512859D02*
X518002D01*
X520207D02*
X620863D01*
X625639D02*
X630047D01*
X635925D02*
X637027D01*
X644007D02*
X646211D01*
X453714Y523206D02*
X455919D01*
X469878D02*
X474286D01*
X480164D02*
X481266D01*
X486409D02*
X492654D01*
X496328D02*
X499634D01*
X502941D02*
X510655D01*
X513227D02*
X517635D01*
X519839D02*
X620129D01*
X624904D02*
X630047D01*
X643272D02*
X646579D01*
X661640D02*
X662375D01*
X437183Y522839D02*
X437551D01*
X453347D02*
X456653D01*
X469511D02*
X475021D01*
X485675D02*
X493389D01*
X497063D02*
X498532D01*
X502573D02*
X511022D01*
X513961D02*
X516900D01*
X518737D02*
X619026D01*
X624170D02*
X630415D01*
X642905D02*
X646579D01*
X661273D02*
X662742D01*
X437183Y522471D02*
X437551D01*
X453347D02*
X456653D01*
X469511D02*
X475021D01*
X485675D02*
X493389D01*
X497063D02*
X498532D01*
X502573D02*
X511022D01*
X513961D02*
X516900D01*
X518737D02*
X619026D01*
X624170D02*
X630415D01*
X642905D02*
X646579D01*
X661273D02*
X662742D01*
X436448Y522104D02*
X438285D01*
X452612D02*
X457021D01*
X468776D02*
X475389D01*
X485307D02*
X493757D01*
X497430D02*
X498532D01*
X501838D02*
X511757D01*
X514329D02*
X516533D01*
X518737D02*
X618659D01*
X623435D02*
X631149D01*
X641803D02*
X647313D01*
X660906D02*
X663477D01*
X436081Y521737D02*
X439387D01*
X452245D02*
X457755D01*
X468409D02*
X476123D01*
X484573D02*
X494491D01*
X501471D02*
X512125D01*
X514696D02*
X515798D01*
X517635D02*
X617924D01*
X623067D02*
X631517D01*
X641803D02*
X647681D01*
X660171D02*
X663844D01*
X679274D02*
X680008D01*
X436081Y521369D02*
X439387D01*
X452245D02*
X457755D01*
X468409D02*
X476123D01*
X484573D02*
X494491D01*
X501471D02*
X512125D01*
X514696D02*
X515798D01*
X517635D02*
X617924D01*
X623067D02*
X631517D01*
X641803D02*
X647681D01*
X660171D02*
X663844D01*
X679274D02*
X680008D01*
X419917Y521002D02*
X421019D01*
X435346D02*
X439755D01*
X451510D02*
X458123D01*
X468041D02*
X477225D01*
X484205D02*
X494859D01*
X500737D02*
X512859D01*
X516900D02*
X617924D01*
X623067D02*
X632251D01*
X640701D02*
X648415D01*
X659803D02*
X664579D01*
X678539D02*
X680743D01*
X419183Y520634D02*
X421387D01*
X434979D02*
X440489D01*
X451143D02*
X459225D01*
X467307D02*
X477593D01*
X483470D02*
X495593D01*
X500369D02*
X513961D01*
X516900D02*
X616822D01*
X622333D02*
X632619D01*
X640333D02*
X648783D01*
X659069D02*
X664947D01*
X677437D02*
X680743D01*
X419183Y520267D02*
X421387D01*
X434979D02*
X440489D01*
X451143D02*
X459225D01*
X467307D02*
X477593D01*
X483470D02*
X495593D01*
X500369D02*
X513961D01*
X516900D02*
X616822D01*
X622333D02*
X632619D01*
X640333D02*
X648783D01*
X659069D02*
X664947D01*
X677437D02*
X680743D01*
X368487Y519900D02*
X368854D01*
X418815D02*
X422121D01*
X434244D02*
X440857D01*
X450408D02*
X459225D01*
X466939D02*
X477593D01*
X483103D02*
X495961D01*
X499634D02*
X514329D01*
X515798D02*
X616822D01*
X621231D02*
X633354D01*
X639599D02*
X649517D01*
X658701D02*
X665681D01*
X677069D02*
X681110D01*
X419183Y519533D02*
X421387D01*
X434979D02*
X440489D01*
X451143D02*
X459225D01*
X467307D02*
X477593D01*
X483470D02*
X495961D01*
X500369D02*
X513961D01*
X516533D02*
X616455D01*
X621965D02*
X632619D01*
X640701D02*
X648783D01*
X659069D02*
X664947D01*
X678171D02*
X680743D01*
X419183Y519165D02*
X421387D01*
X434979D02*
X440489D01*
X451143D02*
X459225D01*
X467307D02*
X477593D01*
X483470D02*
X495961D01*
X500369D02*
X513961D01*
X516533D02*
X616455D01*
X621965D02*
X632619D01*
X640701D02*
X648783D01*
X659069D02*
X664947D01*
X678171D02*
X680743D01*
X419917Y518798D02*
X421019D01*
X435346D02*
X439755D01*
X451510D02*
X458857D01*
X468041D02*
X477225D01*
X484205D02*
X494859D01*
X500737D02*
X513227D01*
X516900D02*
X616455D01*
X623067D02*
X632251D01*
X641435D02*
X648415D01*
X659803D02*
X664579D01*
X678171D02*
X680008D01*
X436081Y518430D02*
X439387D01*
X452245D02*
X458123D01*
X468409D02*
X476491D01*
X484573D02*
X494491D01*
X501471D02*
X512859D01*
X514329D02*
X515798D01*
X516533D02*
X615720D01*
X623435D02*
X631517D01*
X641803D02*
X647681D01*
X660171D02*
X663844D01*
X679274D02*
X679641D01*
X436081Y518063D02*
X439387D01*
X452245D02*
X458123D01*
X468409D02*
X476491D01*
X484573D02*
X494491D01*
X501471D02*
X512859D01*
X514329D02*
X515798D01*
X516533D02*
X615720D01*
X623435D02*
X631517D01*
X641803D02*
X647681D01*
X660171D02*
X663844D01*
X679274D02*
X679641D01*
X436448Y517696D02*
X438653D01*
X452612D02*
X457021D01*
X468776D02*
X475389D01*
X485307D02*
X493757D01*
X497430D02*
X498165D01*
X501838D02*
X512125D01*
X514329D02*
X615353D01*
X624170D02*
X631149D01*
X642538D02*
X647313D01*
X660906D02*
X663477D01*
X437183Y517328D02*
X438285D01*
X453347D02*
X457021D01*
X469511D02*
X475389D01*
X480164D02*
X480899D01*
X485675D02*
X493389D01*
X497063D02*
X499267D01*
X502573D02*
X511757D01*
X513227D02*
X615353D01*
X618659D02*
X619026D01*
X624537D02*
X630415D01*
X642905D02*
X646579D01*
X661273D02*
X662742D01*
X437183Y516961D02*
X438285D01*
X453347D02*
X457021D01*
X469511D02*
X475389D01*
X480164D02*
X480899D01*
X485675D02*
X493389D01*
X497063D02*
X499267D01*
X502573D02*
X511757D01*
X513227D02*
X615353D01*
X618659D02*
X619026D01*
X624537D02*
X630415D01*
X642905D02*
X646579D01*
X661273D02*
X662742D01*
X453347Y516594D02*
X456653D01*
X469878D02*
X474286D01*
X480164D02*
X481266D01*
X486409D02*
X492654D01*
X496328D02*
X499634D01*
X502573D02*
X511022D01*
X513227D02*
X614986D01*
X617924D02*
X619761D01*
X624904D02*
X630047D01*
X643272D02*
X646211D01*
X661640D02*
X662375D01*
X453714Y516226D02*
X455551D01*
X462898D02*
X463633D01*
X469878D02*
X473919D01*
X479797D02*
X482001D01*
X486777D02*
X492287D01*
X495961D02*
X500369D01*
X502941D02*
X510655D01*
X512859D02*
X614251D01*
X617557D02*
X620129D01*
X625639D02*
X629313D01*
X635925D02*
X636292D01*
X644007D02*
X645476D01*
X454449Y515859D02*
X454816D01*
X462531D02*
X464735D01*
X470980D02*
X473184D01*
X478695D02*
X482369D01*
X487144D02*
X491553D01*
X495593D02*
X500737D01*
X503675D02*
X509921D01*
X512125D02*
X613883D01*
X616822D02*
X620863D01*
X626006D02*
X628945D01*
X635190D02*
X637027D01*
X644374D02*
X645109D01*
X454449Y515491D02*
X454816D01*
X462531D02*
X464735D01*
X470980D02*
X473184D01*
X478695D02*
X482369D01*
X487144D02*
X491553D01*
X495593D02*
X500737D01*
X503675D02*
X509921D01*
X512125D02*
X613883D01*
X616822D02*
X620863D01*
X626006D02*
X628945D01*
X635190D02*
X637027D01*
X644374D02*
X645109D01*
X445632Y515124D02*
X446367D01*
X462531D02*
X465103D01*
X470980D02*
X473184D01*
X478695D02*
X483103D01*
X487879D02*
X491185D01*
X494859D02*
X501471D01*
X504043D02*
X509553D01*
X511757D02*
X613883D01*
X616455D02*
X621231D01*
X626741D02*
X628210D01*
X634823D02*
X637394D01*
X653191D02*
X653558D01*
X445265Y514757D02*
X446735D01*
X461796D02*
X465103D01*
X471715D02*
X472082D01*
X477960D02*
X484205D01*
X488246D02*
X490450D01*
X494491D02*
X501838D01*
X504777D02*
X508818D01*
X511022D02*
X613149D01*
X615720D02*
X621965D01*
X627108D02*
X627843D01*
X634088D02*
X638129D01*
X652456D02*
X654293D01*
X445265Y514389D02*
X446735D01*
X461796D02*
X465103D01*
X471715D02*
X472082D01*
X477960D02*
X484205D01*
X488246D02*
X490450D01*
X494491D02*
X501838D01*
X504777D02*
X508818D01*
X511022D02*
X613149D01*
X615720D02*
X621965D01*
X627108D02*
X627843D01*
X634088D02*
X638129D01*
X652456D02*
X654293D01*
X444530Y514022D02*
X447837D01*
X460694D02*
X465837D01*
X477225D02*
X484205D01*
X488246D02*
X490083D01*
X493757D02*
X502573D01*
X505145D02*
X508451D01*
X510655D02*
X612781D01*
X615353D02*
X622333D01*
X633721D02*
X638497D01*
X652089D02*
X654660D01*
X428367Y513655D02*
X429469D01*
X444163D02*
X447837D01*
X460327D02*
X466939D01*
X477225D02*
X485307D01*
X488981D02*
X489348D01*
X493389D02*
X502941D01*
X505512D02*
X507349D01*
X509921D02*
X612047D01*
X614986D02*
X623067D01*
X633354D02*
X639231D01*
X651721D02*
X655395D01*
X670457D02*
X671559D01*
X428367Y513287D02*
X429469D01*
X444163D02*
X447837D01*
X460327D02*
X466939D01*
X477225D02*
X485307D01*
X488981D02*
X489348D01*
X493389D02*
X502941D01*
X505512D02*
X507349D01*
X509921D02*
X612047D01*
X614986D02*
X623067D01*
X633354D02*
X639231D01*
X651721D02*
X655395D01*
X670457D02*
X671559D01*
X427999Y512920D02*
X430203D01*
X444163D02*
X448939D01*
X460327D02*
X467307D01*
X476123D02*
X485675D01*
X492654D02*
X503675D01*
X506247D02*
X506614D01*
X509553D02*
X612047D01*
X614251D02*
X623435D01*
X632619D02*
X639599D01*
X650987D02*
X655762D01*
X670089D02*
X671559D01*
X427264Y512553D02*
X430571D01*
X443061D02*
X449673D01*
X459225D02*
X468041D01*
X476123D02*
X486409D01*
X492287D02*
X504043D01*
X508818D02*
X611679D01*
X613883D02*
X624170D01*
X632251D02*
X640333D01*
X650619D02*
X656497D01*
X669355D02*
X671926D01*
X427264Y512185D02*
X430571D01*
X443061D02*
X449673D01*
X459225D02*
X468041D01*
X476123D02*
X486409D01*
X492287D02*
X504043D01*
X508818D02*
X611679D01*
X613883D02*
X624170D01*
X632251D02*
X640333D01*
X650619D02*
X656497D01*
X669355D02*
X671926D01*
X411101Y511818D02*
X412203D01*
X426897D02*
X431305D01*
X443061D02*
X450041D01*
X459225D02*
X468409D01*
X475389D02*
X486777D01*
X491553D02*
X505145D01*
X508451D02*
X610945D01*
X613149D02*
X624537D01*
X631517D02*
X640701D01*
X649885D02*
X656497D01*
X668987D02*
X672661D01*
X410733Y511451D02*
X412937D01*
X426162D02*
X431673D01*
X442326D02*
X450408D01*
X458123D02*
X468776D01*
X475021D02*
X487144D01*
X491185D02*
X505512D01*
X507716D02*
X610945D01*
X612781D02*
X624537D01*
X631149D02*
X640701D01*
X649517D02*
X657599D01*
X668253D02*
X673028D01*
X410733Y511083D02*
X412937D01*
X426162D02*
X431673D01*
X442326D02*
X450408D01*
X458123D02*
X468776D01*
X475021D02*
X487144D01*
X491185D02*
X505512D01*
X507716D02*
X610945D01*
X612781D02*
X624537D01*
X631149D02*
X640701D01*
X649517D02*
X657599D01*
X668253D02*
X673028D01*
X411101Y510716D02*
X412203D01*
X426897D02*
X431673D01*
X443061D02*
X450041D01*
X459225D02*
X468409D01*
X475389D02*
X486777D01*
X491553D02*
X504777D01*
X508451D02*
X610577D01*
X613149D02*
X624537D01*
X631517D02*
X640701D01*
X649885D02*
X656864D01*
X668987D02*
X672661D01*
X411101Y510349D02*
X411835D01*
X427264D02*
X430571D01*
X443061D02*
X449673D01*
X459592D02*
X468041D01*
X476123D02*
X486409D01*
X492287D02*
X504777D01*
X508818D02*
X609842D01*
X613883D02*
X624170D01*
X632251D02*
X640333D01*
X650619D02*
X655762D01*
X669355D02*
X671926D01*
X411101Y509981D02*
X411835D01*
X427264D02*
X430571D01*
X443061D02*
X449673D01*
X459592D02*
X468041D01*
X476123D02*
X486409D01*
X492287D02*
X504777D01*
X508818D02*
X609842D01*
X613883D02*
X624170D01*
X632251D02*
X640333D01*
X650619D02*
X655762D01*
X669355D02*
X671926D01*
X427999Y509614D02*
X430571D01*
X443428D02*
X448939D01*
X459592D02*
X467307D01*
X476491D02*
X485675D01*
X492654D02*
X503675D01*
X506247D02*
X507349D01*
X509553D02*
X609842D01*
X614251D02*
X623435D01*
X632619D02*
X639599D01*
X650987D02*
X655762D01*
X670089D02*
X671559D01*
X428367Y509246D02*
X429469D01*
X444163D02*
X448571D01*
X460327D02*
X466939D01*
X476491D02*
X485307D01*
X488981D02*
X489348D01*
X493389D02*
X502941D01*
X505512D02*
X507716D01*
X509553D02*
X609475D01*
X614986D02*
X622333D01*
X633354D02*
X639231D01*
X652089D02*
X654660D01*
X670457D02*
X670824D01*
X428367Y508879D02*
X429469D01*
X444163D02*
X448571D01*
X460327D02*
X466939D01*
X476491D02*
X485307D01*
X488981D02*
X489348D01*
X493389D02*
X502941D01*
X505512D02*
X507716D01*
X509553D02*
X609475D01*
X614986D02*
X622333D01*
X633354D02*
X639231D01*
X652089D02*
X654660D01*
X670457D02*
X670824D01*
X444530Y508512D02*
X447837D01*
X460694D02*
X466205D01*
X477225D02*
X484573D01*
X488246D02*
X490450D01*
X493757D02*
X502573D01*
X505145D02*
X508451D01*
X509553D02*
X608740D01*
X609842D02*
X610945D01*
X615353D02*
X622333D01*
X633721D02*
X638497D01*
X652456D02*
X654293D01*
X445265Y508144D02*
X447469D01*
X461429D02*
X465837D01*
X471715D02*
X472817D01*
X477593D02*
X484205D01*
X487879D02*
X490450D01*
X494491D02*
X501838D01*
X504777D02*
X508818D01*
X509553D02*
X608373D01*
X609475D02*
X611679D01*
X615720D02*
X621231D01*
X634823D02*
X638129D01*
X653191D02*
X653558D01*
X445265Y507777D02*
X447469D01*
X461429D02*
X465837D01*
X471715D02*
X472817D01*
X477593D02*
X484205D01*
X487879D02*
X490450D01*
X494491D02*
X501838D01*
X504777D02*
X508818D01*
X509186D02*
X608373D01*
X609475D02*
X611679D01*
X615720D02*
X621231D01*
X634823D02*
X638129D01*
X653191D02*
X653558D01*
X445632Y507410D02*
X446735D01*
X461796D02*
X465103D01*
X470980D02*
X473184D01*
X477960D02*
X483470D01*
X487144D02*
X491553D01*
X494859D02*
X501471D01*
X504043D02*
X608373D01*
X608740D02*
X612047D01*
X616455D02*
X620863D01*
X627108D02*
X628210D01*
X634823D02*
X637394D01*
X454449Y507042D02*
X455551D01*
X462531D02*
X464735D01*
X470613D02*
X473919D01*
X478695D02*
X483103D01*
X486777D02*
X491553D01*
X495593D02*
X500737D01*
X503675D02*
X607638D01*
X608373D02*
X612047D01*
X616822D02*
X620863D01*
X626741D02*
X628945D01*
X635925D02*
X637027D01*
X453714Y506675D02*
X455919D01*
X462898D02*
X464000D01*
X469878D02*
X474286D01*
X479062D02*
X482369D01*
X486777D02*
X492654D01*
X495961D02*
X500369D01*
X502941D02*
X607271D01*
X607638D02*
X612781D01*
X617924D02*
X620129D01*
X626006D02*
X629313D01*
X635925D02*
X636292D01*
X644007D02*
X645476D01*
X453714Y506307D02*
X455919D01*
X462898D02*
X464000D01*
X469878D02*
X474286D01*
X479062D02*
X482369D01*
X486777D02*
X492654D01*
X495961D02*
X500369D01*
X502941D02*
X607271D01*
X607638D02*
X612781D01*
X617924D02*
X620129D01*
X626006D02*
X629313D01*
X635925D02*
X636292D01*
X644007D02*
X645476D01*
X437183Y505940D02*
X438285D01*
X453347D02*
X456653D01*
X462898D02*
X463633D01*
X469511D02*
X475021D01*
X479797D02*
X482001D01*
X485675D02*
X493389D01*
X495961D02*
X499634D01*
X502573D02*
X613149D01*
X618659D02*
X619761D01*
X624904D02*
X629313D01*
X643272D02*
X646211D01*
X436448Y505573D02*
X438653D01*
X452612D02*
X457021D01*
X468776D02*
X475389D01*
X480164D02*
X480899D01*
X485307D02*
X493757D01*
X497063D02*
X499267D01*
X501838D02*
X613883D01*
X624904D02*
X630047D01*
X643272D02*
X646579D01*
X661640D02*
X662375D01*
X436448Y505205D02*
X438653D01*
X452612D02*
X457021D01*
X468776D02*
X475389D01*
X480164D02*
X480899D01*
X485307D02*
X493757D01*
X497063D02*
X499267D01*
X501838D02*
X613883D01*
X624904D02*
X630047D01*
X643272D02*
X646579D01*
X661640D02*
X662375D01*
X419917Y504838D02*
X420285D01*
X436081D02*
X439387D01*
X452245D02*
X457755D01*
X468409D02*
X476123D01*
X484573D02*
X494491D01*
X497063D02*
X498532D01*
X501471D02*
X614251D01*
X624170D02*
X631149D01*
X642905D02*
X646579D01*
X661273D02*
X662742D01*
X419917Y504471D02*
X421019D01*
X435346D02*
X439755D01*
X451510D02*
X458123D01*
X468041D02*
X476491D01*
X484205D02*
X494859D01*
X497430D02*
X498165D01*
X500737D02*
X614986D01*
X624170D02*
X631149D01*
X642538D02*
X647313D01*
X660906D02*
X663477D01*
X419917Y504103D02*
X421019D01*
X435346D02*
X439755D01*
X451510D02*
X458123D01*
X468041D02*
X476491D01*
X484205D02*
X494859D01*
X497430D02*
X498165D01*
X500737D02*
X614986D01*
X624170D02*
X631149D01*
X642538D02*
X647313D01*
X660906D02*
X663477D01*
X419183Y503736D02*
X421387D01*
X434979D02*
X440489D01*
X451143D02*
X458857D01*
X467307D02*
X477225D01*
X484205D02*
X495593D01*
X500369D02*
X615353D01*
X623067D02*
X631517D01*
X641435D02*
X647681D01*
X660171D02*
X663844D01*
X418815Y503369D02*
X422121D01*
X434244D02*
X440857D01*
X450408D02*
X459225D01*
X466939D02*
X477593D01*
X483103D02*
X495961D01*
X499634D02*
X615720D01*
X622333D02*
X632251D01*
X640701D02*
X648415D01*
X659803D02*
X664579D01*
X678539D02*
X680008D01*
X418815Y503001D02*
X422121D01*
X434244D02*
X440857D01*
X450408D02*
X459225D01*
X466939D02*
X477593D01*
X483103D02*
X495961D01*
X499634D02*
X615720D01*
X622333D02*
X632251D01*
X640701D02*
X648415D01*
X659803D02*
X664579D01*
X678539D02*
X680008D01*
X418080Y502634D02*
X422856D01*
X433877D02*
X441224D01*
X450041D02*
X459592D01*
X466205D02*
X478695D01*
X482369D02*
X496328D01*
X499267D02*
X616455D01*
X621965D02*
X632619D01*
X640333D02*
X648783D01*
X659069D02*
X664947D01*
X678539D02*
X680743D01*
X418815Y502267D02*
X422489D01*
X434244D02*
X440857D01*
X450408D02*
X459592D01*
X466939D02*
X477593D01*
X483470D02*
X495961D01*
X499634D02*
X603965D01*
X604699D02*
X615720D01*
X622333D02*
X632251D01*
X641435D02*
X648415D01*
X659803D02*
X664579D01*
X678539D02*
X680008D01*
X418815Y501899D02*
X422489D01*
X434244D02*
X440857D01*
X450408D02*
X459592D01*
X466939D02*
X477593D01*
X483470D02*
X495961D01*
X499634D02*
X603965D01*
X604699D02*
X615720D01*
X622333D02*
X632251D01*
X641435D02*
X648415D01*
X659803D02*
X664579D01*
X678539D02*
X680008D01*
X418815Y501532D02*
X421387D01*
X434979D02*
X440489D01*
X451143D02*
X459225D01*
X467307D02*
X477593D01*
X484205D02*
X495593D01*
X500369D02*
X603965D01*
X605067D02*
X615353D01*
X623067D02*
X631517D01*
X641435D02*
X647681D01*
X660171D02*
X663844D01*
X679274D02*
X679641D01*
X419183Y501165D02*
X421387D01*
X435346D02*
X439755D01*
X451510D02*
X458857D01*
X468041D02*
X477225D01*
X484205D02*
X494859D01*
X497430D02*
X498165D01*
X500737D02*
X603597D01*
X605802D02*
X614986D01*
X624170D02*
X631149D01*
X642538D02*
X647313D01*
X660906D02*
X663477D01*
X419183Y500797D02*
X421387D01*
X435346D02*
X439755D01*
X451510D02*
X458857D01*
X468041D02*
X477225D01*
X484205D02*
X494859D01*
X497430D02*
X498165D01*
X500737D02*
X603597D01*
X605802D02*
X614986D01*
X624170D02*
X631149D01*
X642538D02*
X647313D01*
X660906D02*
X663477D01*
X419917Y500430D02*
X421019D01*
X436081D02*
X439387D01*
X452245D02*
X458123D01*
X468409D02*
X476123D01*
X485307D02*
X494491D01*
X497063D02*
X499267D01*
X501471D02*
X603597D01*
X606169D02*
X614251D01*
X624537D02*
X630415D01*
X642905D02*
X646579D01*
X661640D02*
X662742D01*
X436448Y500062D02*
X438653D01*
X452245D02*
X457021D01*
X468776D02*
X475389D01*
X480164D02*
X481266D01*
X485307D02*
X493757D01*
X496328D02*
X499267D01*
X501838D02*
X602863D01*
X606536D02*
X613883D01*
X624904D02*
X630047D01*
X643272D02*
X646211D01*
X436448Y499695D02*
X438653D01*
X452245D02*
X457021D01*
X468776D02*
X475389D01*
X480164D02*
X481266D01*
X485307D02*
X493757D01*
X496328D02*
X499267D01*
X501838D02*
X602863D01*
X606536D02*
X613883D01*
X624904D02*
X630047D01*
X643272D02*
X646211D01*
X437183Y499328D02*
X438285D01*
X453347D02*
X456653D01*
X469511D02*
X475021D01*
X479797D02*
X482001D01*
X485675D02*
X493389D01*
X495961D02*
X500369D01*
X502573D02*
X602863D01*
X607271D02*
X613149D01*
X618659D02*
X619026D01*
X625639D02*
X629313D01*
X644007D02*
X645476D01*
X437183Y498960D02*
X437551D01*
X453347D02*
X455919D01*
X462898D02*
X464000D01*
X469878D02*
X474286D01*
X479062D02*
X482369D01*
X486409D02*
X492654D01*
X495593D02*
X500369D01*
X502941D02*
X603597D01*
X607638D02*
X612781D01*
X617924D02*
X619761D01*
X626006D02*
X628945D01*
X644374D02*
X645109D01*
X437183Y498593D02*
X437551D01*
X453347D02*
X455919D01*
X462898D02*
X464000D01*
X469878D02*
X474286D01*
X479062D02*
X482369D01*
X486409D02*
X492654D01*
X495593D02*
X500369D01*
X502573D02*
X603597D01*
X607638D02*
X612781D01*
X617924D02*
X619761D01*
X626006D02*
X628945D01*
X644374D02*
X645109D01*
X445632Y498226D02*
X446367D01*
X453714D02*
X455551D01*
X461796D02*
X464735D01*
X469878D02*
X473919D01*
X478695D02*
X483103D01*
X486777D02*
X492287D01*
X494859D02*
X500737D01*
X502206D02*
X603965D01*
X608373D02*
X612047D01*
X617557D02*
X620129D01*
X626741D02*
X628210D01*
X635925D02*
X636292D01*
X445265Y497858D02*
X446735D01*
X454449D02*
X454816D01*
X461796D02*
X465837D01*
X470613D02*
X473919D01*
X477960D02*
X483470D01*
X487144D02*
X491553D01*
X494491D02*
X501838D01*
X502206D02*
X604699D01*
X608740D02*
X611679D01*
X616822D02*
X620863D01*
X627108D02*
X627843D01*
X635190D02*
X637027D01*
X444530Y497491D02*
X447837D01*
X460694D02*
X465837D01*
X471715D02*
X472817D01*
X477593D02*
X484205D01*
X487879D02*
X491185D01*
X494491D02*
X605067D01*
X609475D02*
X610945D01*
X616455D02*
X621231D01*
X634823D02*
X637394D01*
X444530Y497123D02*
X447837D01*
X460694D02*
X465837D01*
X471715D02*
X472817D01*
X477593D02*
X484205D01*
X487879D02*
X491185D01*
X494491D02*
X605067D01*
X609475D02*
X610945D01*
X616455D02*
X621231D01*
X634823D02*
X637394D01*
X427999Y496756D02*
X429469D01*
X444163D02*
X447837D01*
X460694D02*
X466205D01*
X471715D02*
X472082D01*
X477225D02*
X484573D01*
X488246D02*
X490450D01*
X493757D02*
X605067D01*
X609842D02*
X610577D01*
X615720D02*
X621965D01*
X634088D02*
X638129D01*
X652456D02*
X654293D01*
X427999Y496389D02*
X430203D01*
X444163D02*
X448939D01*
X459592D02*
X467307D01*
X476491D02*
X485307D01*
X488981D02*
X490083D01*
X492654D02*
X605802D01*
X615353D02*
X622333D01*
X633721D02*
X638497D01*
X652089D02*
X654660D01*
X427999Y496021D02*
X430203D01*
X444163D02*
X448939D01*
X459592D02*
X467307D01*
X476491D02*
X485307D01*
X488981D02*
X490083D01*
X492654D02*
X605802D01*
X615353D02*
X622333D01*
X633721D02*
X638497D01*
X652089D02*
X654660D01*
X411101Y495654D02*
X412203D01*
X427264D02*
X431305D01*
X443428D02*
X449673D01*
X459592D02*
X468041D01*
X476123D02*
X485675D01*
X492654D02*
X606536D01*
X614986D02*
X623067D01*
X633354D02*
X639231D01*
X651721D02*
X655395D01*
X670457D02*
X670824D01*
X411101Y495287D02*
X412937D01*
X426897D02*
X431673D01*
X442326D02*
X450041D01*
X458857D02*
X468409D01*
X475389D02*
X486777D01*
X491553D02*
X606536D01*
X614251D02*
X623435D01*
X632619D02*
X639599D01*
X651721D02*
X655395D01*
X670457D02*
X671559D01*
X411101Y494919D02*
X412937D01*
X426897D02*
X431673D01*
X442326D02*
X450041D01*
X458857D02*
X468409D01*
X475389D02*
X486777D01*
X491553D02*
X606536D01*
X614251D02*
X623435D01*
X632619D02*
X639599D01*
X651721D02*
X655395D01*
X670457D02*
X671559D01*
X409999Y494552D02*
X412937D01*
X426162D02*
X432040D01*
X441959D02*
X450408D01*
X458123D02*
X468776D01*
X475021D02*
X487144D01*
X491185D02*
X607271D01*
X613883D02*
X624170D01*
X632251D02*
X639599D01*
X650619D02*
X655762D01*
X670089D02*
X671926D01*
X409631Y494185D02*
X413672D01*
X425795D02*
X432775D01*
X441959D02*
X451143D01*
X458123D02*
X469511D01*
X474286D02*
X487879D01*
X490450D02*
X607638D01*
X613149D02*
X624170D01*
X631517D02*
X640333D01*
X649885D02*
X656497D01*
X668987D02*
X671926D01*
X409631Y493817D02*
X413672D01*
X425795D02*
X432775D01*
X441959D02*
X451143D01*
X458123D02*
X469511D01*
X474286D02*
X487879D01*
X490450D02*
X607638D01*
X613149D02*
X624170D01*
X631517D02*
X640333D01*
X649885D02*
X656497D01*
X668987D02*
X671926D01*
X409999Y493450D02*
X413305D01*
X425795D02*
X432040D01*
X442326D02*
X450408D01*
X458857D02*
X468776D01*
X475021D02*
X487144D01*
X491185D02*
X607271D01*
X613883D02*
X624170D01*
X632251D02*
X640333D01*
X650619D02*
X655762D01*
X669355D02*
X671926D01*
X410733Y493083D02*
X412937D01*
X426897D02*
X431673D01*
X442326D02*
X450041D01*
X458857D02*
X468409D01*
X475389D02*
X486777D01*
X491553D02*
X607271D01*
X614251D02*
X623435D01*
X632619D02*
X639231D01*
X651721D02*
X655395D01*
X670457D02*
X671559D01*
X410733Y492715D02*
X412937D01*
X426897D02*
X431673D01*
X442326D02*
X450041D01*
X458857D02*
X468409D01*
X475389D02*
X486777D01*
X491553D02*
X607271D01*
X614251D02*
X623435D01*
X632619D02*
X639231D01*
X651721D02*
X655395D01*
X670457D02*
X671559D01*
X411101Y492348D02*
X412203D01*
X426897D02*
X431305D01*
X443061D02*
X449673D01*
X459225D02*
X468041D01*
X476123D02*
X485675D01*
X492287D02*
X606536D01*
X614986D02*
X623067D01*
X633354D02*
X638497D01*
X652089D02*
X655395D01*
X427264Y491980D02*
X430203D01*
X443428D02*
X448939D01*
X459592D02*
X467307D01*
X476491D02*
X485675D01*
X488981D02*
X490083D01*
X492654D02*
X596985D01*
X597352D02*
X605802D01*
X615353D02*
X622333D01*
X633721D02*
X638497D01*
X652456D02*
X654293D01*
X427264Y491613D02*
X430203D01*
X443428D02*
X448939D01*
X459592D02*
X467307D01*
X476491D02*
X485675D01*
X488981D02*
X490083D01*
X492654D02*
X596985D01*
X597352D02*
X605802D01*
X615353D02*
X622333D01*
X633721D02*
X638497D01*
X652456D02*
X654293D01*
X427999Y491246D02*
X429469D01*
X444163D02*
X448571D01*
X460327D02*
X466939D01*
X471715D02*
X472817D01*
X477225D02*
X485307D01*
X488246D02*
X490450D01*
X493389D02*
X596618D01*
X597352D02*
X605067D01*
X615720D02*
X621965D01*
X634823D02*
X638129D01*
X653191D02*
X654293D01*
X428367Y490878D02*
X429101D01*
X444530D02*
X447837D01*
X460694D02*
X466205D01*
X470980D02*
X473184D01*
X477593D02*
X484573D01*
X487144D02*
X491185D01*
X493757D02*
X596618D01*
X598454D02*
X604699D01*
X609842D02*
X610945D01*
X616455D02*
X621231D01*
X634823D02*
X637394D01*
X428367Y490511D02*
X429101D01*
X444530D02*
X447837D01*
X460694D02*
X466205D01*
X470980D02*
X473184D01*
X477593D02*
X484573D01*
X487144D02*
X491185D01*
X493757D02*
X596618D01*
X598454D02*
X604699D01*
X609842D02*
X610945D01*
X616455D02*
X621231D01*
X634823D02*
X637394D01*
X445265Y490144D02*
X447469D01*
X454449D02*
X455551D01*
X461429D02*
X465837D01*
X470613D02*
X473919D01*
X477960D02*
X484205D01*
X487144D02*
X491553D01*
X494491D02*
X595883D01*
X599189D02*
X603965D01*
X609475D02*
X611679D01*
X616822D02*
X620863D01*
X635925D02*
X637027D01*
X445632Y489776D02*
X446735D01*
X453714D02*
X455919D01*
X461796D02*
X465103D01*
X469878D02*
X474286D01*
X478695D02*
X483103D01*
X486409D02*
X492287D01*
X494859D02*
X595515D01*
X599556D02*
X603965D01*
X608373D02*
X611679D01*
X617924D02*
X620129D01*
X626741D02*
X628210D01*
X445632Y489409D02*
X446735D01*
X453714D02*
X455919D01*
X461796D02*
X465103D01*
X469878D02*
X474286D01*
X478695D02*
X483103D01*
X486409D02*
X492287D01*
X494859D02*
X595515D01*
X599556D02*
X603965D01*
X608373D02*
X611679D01*
X617924D02*
X620129D01*
X626741D02*
X628210D01*
X437183Y489042D02*
X438285D01*
X453347D02*
X456653D01*
X462531D02*
X464735D01*
X469511D02*
X475021D01*
X478695D02*
X483103D01*
X485675D02*
X492654D01*
X495593D02*
X595883D01*
X600291D02*
X603597D01*
X608373D02*
X612781D01*
X618659D02*
X619761D01*
X626741D02*
X628945D01*
X436448Y488674D02*
X438653D01*
X452612D02*
X457021D01*
X462898D02*
X464000D01*
X468776D02*
X475389D01*
X479062D02*
X482369D01*
X485675D02*
X493389D01*
X495593D02*
X596618D01*
X600658D02*
X602863D01*
X607638D02*
X612781D01*
X626006D02*
X629313D01*
X644374D02*
X645476D01*
X419917Y488307D02*
X420285D01*
X436081D02*
X439387D01*
X452245D02*
X457755D01*
X468409D02*
X476123D01*
X479797D02*
X481266D01*
X485307D02*
X493757D01*
X495226D02*
X596985D01*
X601393D02*
X601760D01*
X606536D02*
X613149D01*
X625639D02*
X629313D01*
X644007D02*
X645476D01*
X419917Y487939D02*
X420285D01*
X436081D02*
X439387D01*
X452245D02*
X457755D01*
X468409D02*
X476123D01*
X479797D02*
X481266D01*
X485307D02*
X493757D01*
X495226D02*
X596985D01*
X601393D02*
X601760D01*
X606536D02*
X613149D01*
X625639D02*
X629313D01*
X644007D02*
X645476D01*
X419183Y487572D02*
X421019D01*
X435346D02*
X439755D01*
X451510D02*
X458123D01*
X468041D02*
X476491D01*
X480164D02*
X481266D01*
X484573D02*
X494491D01*
X494859D02*
X597352D01*
X606169D02*
X613883D01*
X624537D02*
X630047D01*
X643272D02*
X646211D01*
X418815Y487205D02*
X422121D01*
X434979D02*
X440489D01*
X451143D02*
X458857D01*
X467307D02*
X477225D01*
X484205D02*
X598087D01*
X605802D02*
X614251D01*
X624537D02*
X630415D01*
X642905D02*
X646579D01*
X661640D02*
X662742D01*
X418815Y486837D02*
X422121D01*
X434979D02*
X440489D01*
X451143D02*
X458857D01*
X467307D02*
X477225D01*
X484205D02*
X598087D01*
X605802D02*
X614251D01*
X624537D02*
X630415D01*
X642905D02*
X646579D01*
X661640D02*
X662742D01*
X402651Y486470D02*
X403753D01*
X418080D02*
X422489D01*
X434244D02*
X440857D01*
X450408D02*
X459592D01*
X466939D02*
X477593D01*
X483470D02*
X598454D01*
X605802D02*
X614986D01*
X623435D02*
X631149D01*
X642538D02*
X647313D01*
X661273D02*
X663477D01*
X401917Y486103D02*
X404121D01*
X417713D02*
X422856D01*
X433877D02*
X441959D01*
X450041D02*
X460327D01*
X466939D02*
X477960D01*
X483103D02*
X599189D01*
X605067D02*
X615353D01*
X623067D02*
X631517D01*
X641803D02*
X647681D01*
X660171D02*
X663477D01*
X401917Y485735D02*
X404121D01*
X417713D02*
X422856D01*
X433877D02*
X441959D01*
X450041D02*
X460327D01*
X466939D02*
X477960D01*
X483103D02*
X599189D01*
X605067D02*
X615353D01*
X623067D02*
X631517D01*
X641803D02*
X647681D01*
X660171D02*
X663477D01*
X401549Y485368D02*
X404488D01*
X416978D02*
X423591D01*
X433142D02*
X441959D01*
X449673D02*
X460327D01*
X465837D02*
X478695D01*
X482369D02*
X599556D01*
X603965D02*
X615720D01*
X622333D02*
X632251D01*
X641435D02*
X648415D01*
X659803D02*
X663844D01*
X401917Y485001D02*
X404121D01*
X417713D02*
X422856D01*
X433877D02*
X441224D01*
X450041D02*
X460327D01*
X466205D02*
X478695D01*
X483103D02*
X598454D01*
X604699D02*
X615353D01*
X623067D02*
X631517D01*
X641803D02*
X647681D01*
X660906D02*
X663844D01*
X401917Y484633D02*
X404121D01*
X417713D02*
X422856D01*
X433877D02*
X441224D01*
X450041D02*
X460327D01*
X466205D02*
X478695D01*
X483103D02*
X598454D01*
X604699D02*
X615353D01*
X623067D02*
X631517D01*
X641803D02*
X647681D01*
X660906D02*
X663844D01*
X402651Y484266D02*
X403753D01*
X418080D02*
X422489D01*
X434244D02*
X441224D01*
X450408D02*
X459592D01*
X466939D02*
X477593D01*
X483470D02*
X598454D01*
X605802D02*
X614986D01*
X624170D02*
X631149D01*
X642538D02*
X647313D01*
X660906D02*
X662742D01*
X418815Y483899D02*
X422121D01*
X434979D02*
X440857D01*
X451143D02*
X459225D01*
X467307D02*
X477225D01*
X484205D02*
X598087D01*
X606169D02*
X614251D01*
X624170D02*
X630415D01*
X642905D02*
X646579D01*
X661640D02*
X662375D01*
X418815Y483531D02*
X422121D01*
X434979D02*
X440857D01*
X451143D02*
X459225D01*
X467307D02*
X477225D01*
X484205D02*
X598087D01*
X606169D02*
X614251D01*
X624170D02*
X630415D01*
X642905D02*
X646579D01*
X661640D02*
X662375D01*
X419183Y483164D02*
X421387D01*
X435346D02*
X439755D01*
X451510D02*
X458123D01*
X468041D02*
X476491D01*
X480164D02*
X480899D01*
X484573D02*
X597352D01*
X606169D02*
X613883D01*
X624904D02*
X630047D01*
X643272D02*
X646211D01*
X419917Y482796D02*
X421019D01*
X436081D02*
X439387D01*
X452245D02*
X458123D01*
X462898D02*
X463633D01*
X468409D02*
X476123D01*
X479797D02*
X482001D01*
X485307D02*
X596985D01*
X601393D02*
X601760D01*
X607271D02*
X613149D01*
X625639D02*
X629313D01*
X644007D02*
X645476D01*
X419917Y482429D02*
X421019D01*
X436081D02*
X439387D01*
X452245D02*
X458123D01*
X462898D02*
X463633D01*
X468409D02*
X476123D01*
X479797D02*
X482001D01*
X485307D02*
X596985D01*
X601393D02*
X601760D01*
X607271D02*
X613149D01*
X625639D02*
X629313D01*
X644007D02*
X645476D01*
X436081Y482062D02*
X439387D01*
X452612D02*
X457021D01*
X462898D02*
X464000D01*
X468776D02*
X475389D01*
X479062D02*
X482369D01*
X485675D02*
X596618D01*
X600658D02*
X602495D01*
X607638D02*
X612781D01*
X626006D02*
X628945D01*
X644374D02*
X645109D01*
X436448Y481694D02*
X438285D01*
X445632D02*
X446367D01*
X452612D02*
X456653D01*
X462531D02*
X464735D01*
X469511D02*
X475021D01*
X478695D02*
X483103D01*
X485675D02*
X589270D01*
X590005D02*
X595883D01*
X600291D02*
X602863D01*
X608373D02*
X612047D01*
X618659D02*
X619026D01*
X626741D02*
X628210D01*
X436448Y481327D02*
X438285D01*
X445632D02*
X446367D01*
X452612D02*
X456653D01*
X462531D02*
X464735D01*
X469511D02*
X475021D01*
X478695D02*
X483103D01*
X485675D02*
X589270D01*
X590005D02*
X595883D01*
X600291D02*
X602863D01*
X608373D02*
X612047D01*
X618659D02*
X619026D01*
X626741D02*
X628210D01*
X437183Y480960D02*
X437551D01*
X445265D02*
X447469D01*
X453714D02*
X455919D01*
X461429D02*
X465103D01*
X469878D02*
X474286D01*
X477960D02*
X483470D01*
X486777D02*
X589270D01*
X590372D02*
X595515D01*
X599556D02*
X603597D01*
X608740D02*
X611679D01*
X617924D02*
X619761D01*
X627108D02*
X627843D01*
X428367Y480592D02*
X429101D01*
X445265D02*
X447837D01*
X453714D02*
X455551D01*
X461429D02*
X465837D01*
X470613D02*
X473919D01*
X477593D02*
X484205D01*
X486777D02*
X588903D01*
X591107D02*
X594781D01*
X599189D02*
X603965D01*
X609475D02*
X610945D01*
X617557D02*
X620129D01*
X635925D02*
X636292D01*
X428367Y480225D02*
X429101D01*
X445265D02*
X447837D01*
X453714D02*
X455551D01*
X461429D02*
X465837D01*
X470613D02*
X473919D01*
X477593D02*
X484205D01*
X486777D02*
X588903D01*
X591107D02*
X594781D01*
X599189D02*
X603965D01*
X609475D02*
X610945D01*
X617557D02*
X620129D01*
X635925D02*
X636292D01*
X427999Y479858D02*
X429469D01*
X444530D02*
X447837D01*
X454449D02*
X454816D01*
X460694D02*
X466939D01*
X470980D02*
X473184D01*
X477225D02*
X484573D01*
X487144D02*
X588903D01*
X591474D02*
X594413D01*
X598454D02*
X604699D01*
X609842D02*
X610577D01*
X616822D02*
X620863D01*
X635190D02*
X637027D01*
X427264Y479490D02*
X430203D01*
X443428D02*
X448571D01*
X459592D02*
X466939D01*
X470980D02*
X472817D01*
X476491D02*
X485307D01*
X487879D02*
X588168D01*
X592209D02*
X593679D01*
X598087D02*
X605067D01*
X616455D02*
X621231D01*
X634823D02*
X637394D01*
X411101Y479123D02*
X412203D01*
X426897D02*
X430571D01*
X443061D02*
X449673D01*
X459592D02*
X468041D01*
X471715D02*
X472082D01*
X476123D02*
X485675D01*
X488246D02*
X588903D01*
X592576D02*
X593311D01*
X597352D02*
X605802D01*
X615720D02*
X621965D01*
X634088D02*
X638129D01*
X653191D02*
X654293D01*
X411101Y478755D02*
X412203D01*
X426897D02*
X430571D01*
X443061D02*
X449673D01*
X459592D02*
X468041D01*
X471715D02*
X472082D01*
X476123D02*
X485675D01*
X488246D02*
X588903D01*
X592576D02*
X593311D01*
X597352D02*
X605802D01*
X615720D02*
X621965D01*
X634088D02*
X638129D01*
X653191D02*
X654293D01*
X410733Y478388D02*
X412937D01*
X426897D02*
X431673D01*
X443061D02*
X450041D01*
X458857D02*
X468409D01*
X475389D02*
X486409D01*
X488246D02*
X589270D01*
X596985D02*
X606169D01*
X615353D02*
X622333D01*
X633721D02*
X638497D01*
X652456D02*
X654293D01*
X409999Y478021D02*
X413305D01*
X425795D02*
X432040D01*
X441959D02*
X450408D01*
X458857D02*
X468776D01*
X475021D02*
X486777D01*
X487879D02*
X590005D01*
X596618D02*
X606536D01*
X614986D02*
X623067D01*
X633354D02*
X639231D01*
X651721D02*
X654660D01*
X409999Y477653D02*
X413305D01*
X425795D02*
X432040D01*
X441959D02*
X450408D01*
X458857D02*
X468776D01*
X475021D02*
X486777D01*
X487879D02*
X590005D01*
X596618D02*
X606536D01*
X614986D02*
X623067D01*
X633354D02*
X639231D01*
X651721D02*
X654660D01*
X393835Y477286D02*
X394937D01*
X409631D02*
X413672D01*
X425795D02*
X432775D01*
X441959D02*
X451143D01*
X458123D02*
X469511D01*
X474286D02*
X590372D01*
X595883D02*
X607271D01*
X614251D02*
X623435D01*
X632619D02*
X639599D01*
X651721D02*
X655395D01*
X393467Y476919D02*
X395304D01*
X408896D02*
X414407D01*
X425060D02*
X433142D01*
X440857D02*
X451510D01*
X457755D02*
X469878D01*
X473919D02*
X591107D01*
X595515D02*
X607271D01*
X613883D02*
X624170D01*
X632251D02*
X640333D01*
X650987D02*
X655762D01*
X670457D02*
X670824D01*
X393467Y476551D02*
X395304D01*
X408896D02*
X414407D01*
X425060D02*
X433142D01*
X440857D02*
X451510D01*
X457755D02*
X469878D01*
X473919D02*
X591107D01*
X595515D02*
X607271D01*
X613883D02*
X624170D01*
X632251D02*
X640333D01*
X650987D02*
X655762D01*
X670457D02*
X670824D01*
X393835Y476184D02*
X394937D01*
X409631D02*
X413672D01*
X425795D02*
X432775D01*
X441959D02*
X451143D01*
X458123D02*
X469511D01*
X474286D02*
X590372D01*
X595883D02*
X607271D01*
X614251D02*
X623435D01*
X632619D02*
X639599D01*
X651721D02*
X655395D01*
X409999Y475817D02*
X413305D01*
X425795D02*
X432040D01*
X442326D02*
X450408D01*
X458857D02*
X468776D01*
X475021D02*
X590005D01*
X596618D02*
X606536D01*
X614986D02*
X623067D01*
X633354D02*
X638497D01*
X652089D02*
X654660D01*
X409999Y475449D02*
X413305D01*
X425795D02*
X432040D01*
X442326D02*
X450408D01*
X458857D02*
X468776D01*
X475021D02*
X590005D01*
X596618D02*
X606536D01*
X614986D02*
X623067D01*
X633354D02*
X638497D01*
X652089D02*
X654660D01*
X410733Y475082D02*
X412937D01*
X426162D02*
X431673D01*
X442326D02*
X450041D01*
X459225D02*
X468409D01*
X475389D02*
X589270D01*
X596985D02*
X606169D01*
X615353D02*
X622333D01*
X633721D02*
X638497D01*
X652456D02*
X654293D01*
X411101Y474715D02*
X412203D01*
X426897D02*
X431305D01*
X443061D02*
X449673D01*
X459225D02*
X468041D01*
X471715D02*
X472082D01*
X476123D02*
X588903D01*
X597352D02*
X605067D01*
X615720D02*
X621965D01*
X634823D02*
X637394D01*
X653191D02*
X653558D01*
X411101Y474347D02*
X412203D01*
X426897D02*
X431305D01*
X443061D02*
X449673D01*
X459225D02*
X468041D01*
X471715D02*
X472082D01*
X476123D02*
X588903D01*
X597352D02*
X605067D01*
X615720D02*
X621965D01*
X634823D02*
X637394D01*
X653191D02*
X653558D01*
X427264Y473980D02*
X430571D01*
X443428D02*
X448939D01*
X459592D02*
X467307D01*
X470980D02*
X473184D01*
X476491D02*
X588168D01*
X592576D02*
X593679D01*
X598087D02*
X605067D01*
X616455D02*
X621231D01*
X635190D02*
X637027D01*
X427999Y473612D02*
X430203D01*
X444163D02*
X448571D01*
X454449D02*
X455551D01*
X460327D02*
X466939D01*
X470613D02*
X473184D01*
X477225D02*
X484573D01*
X484940D02*
X587801D01*
X592209D02*
X594413D01*
X598454D02*
X603965D01*
X617557D02*
X620863D01*
X635925D02*
X637027D01*
X427999Y473245D02*
X430203D01*
X444163D02*
X448571D01*
X454449D02*
X455551D01*
X460327D02*
X466939D01*
X470613D02*
X473184D01*
X477225D02*
X587801D01*
X592209D02*
X594413D01*
X598454D02*
X603965D01*
X617557D02*
X620863D01*
X635925D02*
X637027D01*
X428367Y472878D02*
X429469D01*
X444530D02*
X447837D01*
X453714D02*
X455919D01*
X460694D02*
X466205D01*
X469878D02*
X474286D01*
X477593D02*
X587434D01*
X591474D02*
X594781D01*
X599189D02*
X603597D01*
X609842D02*
X610945D01*
X617557D02*
X620129D01*
X437183Y472510D02*
X438285D01*
X445265D02*
X447469D01*
X453347D02*
X456653D01*
X461429D02*
X465837D01*
X469511D02*
X474286D01*
X477960D02*
X483470D01*
X484205D02*
X586699D01*
X591107D02*
X594781D01*
X599556D02*
X603597D01*
X609475D02*
X611679D01*
X617924D02*
X619761D01*
X437183Y472143D02*
X438285D01*
X445265D02*
X447469D01*
X453347D02*
X456653D01*
X461429D02*
X465837D01*
X469511D02*
X474286D01*
X477960D02*
X483470D01*
X483838D02*
X586699D01*
X591107D02*
X594781D01*
X599556D02*
X603597D01*
X609475D02*
X611679D01*
X617924D02*
X619761D01*
X436448Y471776D02*
X438653D01*
X445632D02*
X446735D01*
X452612D02*
X457021D01*
X461796D02*
X465103D01*
X469511D02*
X475389D01*
X478695D02*
X483103D01*
X483470D02*
X586331D01*
X590372D02*
X595515D01*
X600658D02*
X602863D01*
X608740D02*
X612047D01*
X618659D02*
X619026D01*
X626741D02*
X628210D01*
X419917Y471408D02*
X421019D01*
X436081D02*
X439387D01*
X452245D02*
X457755D01*
X462531D02*
X464735D01*
X468409D02*
X476123D01*
X478695D02*
X482369D01*
X483470D02*
X582290D01*
X583025D02*
X585597D01*
X589270D02*
X595883D01*
X601393D02*
X602495D01*
X607638D02*
X612047D01*
X626006D02*
X628945D01*
X419917Y471041D02*
X421019D01*
X436081D02*
X439387D01*
X452245D02*
X457755D01*
X462531D02*
X464735D01*
X468409D02*
X476123D01*
X478695D02*
X482369D01*
X483103D02*
X582290D01*
X583025D02*
X585597D01*
X589270D02*
X595883D01*
X601393D02*
X602495D01*
X607638D02*
X612047D01*
X626006D02*
X628945D01*
X419183Y470674D02*
X421387D01*
X435346D02*
X439755D01*
X451510D02*
X458123D01*
X462898D02*
X463633D01*
X468041D02*
X476491D01*
X479797D02*
X482001D01*
X482736D02*
X581923D01*
X583392D02*
X585229D01*
X589270D02*
X596618D01*
X607638D02*
X612781D01*
X626006D02*
X629313D01*
X644374D02*
X645109D01*
X418815Y470306D02*
X422121D01*
X434979D02*
X440489D01*
X451143D02*
X458857D01*
X467307D02*
X477225D01*
X479797D02*
X481266D01*
X482369D02*
X581923D01*
X584127D02*
X584495D01*
X588168D02*
X596985D01*
X606536D02*
X613883D01*
X625639D02*
X629313D01*
X644007D02*
X645476D01*
X402651Y469939D02*
X403753D01*
X418080D02*
X422489D01*
X434244D02*
X440857D01*
X450408D02*
X459225D01*
X466939D02*
X477593D01*
X480164D02*
X480899D01*
X482369D02*
X581188D01*
X588168D02*
X597352D01*
X606169D02*
X613883D01*
X624904D02*
X630047D01*
X643272D02*
X646211D01*
X402651Y469571D02*
X403753D01*
X418080D02*
X422489D01*
X434244D02*
X440857D01*
X450408D02*
X459225D01*
X466939D02*
X477593D01*
X480164D02*
X480899D01*
X482001D02*
X581188D01*
X588168D02*
X597352D01*
X606169D02*
X613883D01*
X624904D02*
X630047D01*
X643272D02*
X646211D01*
X401917Y469204D02*
X404121D01*
X417713D02*
X422856D01*
X433877D02*
X441224D01*
X450041D02*
X459592D01*
X466939D02*
X477960D01*
X481634D02*
X581923D01*
X587801D02*
X598087D01*
X605802D02*
X614251D01*
X624170D02*
X630415D01*
X642905D02*
X646579D01*
X401549Y468837D02*
X404488D01*
X416978D02*
X423591D01*
X433142D02*
X441959D01*
X449673D02*
X460327D01*
X465837D02*
X478695D01*
X481634D02*
X581923D01*
X586699D02*
X598454D01*
X605067D02*
X614986D01*
X623435D02*
X631149D01*
X642538D02*
X647313D01*
X661273D02*
X662742D01*
X401549Y468469D02*
X404488D01*
X416978D02*
X423591D01*
X433142D02*
X441959D01*
X449673D02*
X460327D01*
X465837D02*
X478695D01*
X481266D02*
X581923D01*
X586699D02*
X598454D01*
X605067D02*
X614986D01*
X623435D02*
X631149D01*
X642538D02*
X647313D01*
X661273D02*
X662742D01*
X385385Y468102D02*
X385753D01*
X400815D02*
X405590D01*
X416611D02*
X423958D01*
X432775D02*
X442326D01*
X448939D02*
X461429D01*
X465103D02*
X479062D01*
X480899D02*
X582290D01*
X586331D02*
X599189D01*
X604699D02*
X615353D01*
X623067D02*
X631517D01*
X641803D02*
X647681D01*
X661273D02*
X663477D01*
X401549Y467735D02*
X405223D01*
X416978D02*
X423591D01*
X433142D02*
X442326D01*
X449673D02*
X460327D01*
X466205D02*
X478695D01*
X480532D02*
X582290D01*
X587434D02*
X598454D01*
X605067D02*
X614986D01*
X624170D02*
X631149D01*
X642538D02*
X647313D01*
X661273D02*
X662742D01*
X401549Y467367D02*
X405223D01*
X416978D02*
X423591D01*
X433142D02*
X442326D01*
X449673D02*
X460327D01*
X466205D02*
X478695D01*
X480532D02*
X582290D01*
X587434D02*
X598454D01*
X605067D02*
X614986D01*
X624170D02*
X631149D01*
X642538D02*
X647313D01*
X661273D02*
X662742D01*
X401549Y467000D02*
X404121D01*
X417713D02*
X422856D01*
X433877D02*
X441959D01*
X450041D02*
X460327D01*
X466939D02*
X477960D01*
X480164D02*
X581188D01*
X587801D02*
X598087D01*
X605802D02*
X614251D01*
X624170D02*
X630415D01*
X642905D02*
X646579D01*
X401917Y466633D02*
X403753D01*
X418080D02*
X422489D01*
X434244D02*
X441224D01*
X450408D02*
X459592D01*
X466939D02*
X477593D01*
X479797D02*
X580821D01*
X588168D02*
X597352D01*
X606536D02*
X613883D01*
X624904D02*
X630047D01*
X643272D02*
X646211D01*
X401917Y466265D02*
X403753D01*
X418080D02*
X422489D01*
X434244D02*
X441224D01*
X450408D02*
X459592D01*
X466939D02*
X477593D01*
X479797D02*
X580821D01*
X588168D02*
X597352D01*
X606536D02*
X613883D01*
X624904D02*
X630047D01*
X643272D02*
X646211D01*
X402651Y465898D02*
X403753D01*
X418815D02*
X422121D01*
X434979D02*
X440857D01*
X451143D02*
X458857D01*
X468041D02*
X477225D01*
X479430D02*
X580086D01*
X584127D02*
X584495D01*
X588903D02*
X596985D01*
X607271D02*
X613149D01*
X625639D02*
X629313D01*
X644374D02*
X645476D01*
X419183Y465531D02*
X421387D01*
X434979D02*
X439755D01*
X451510D02*
X458123D01*
X462898D02*
X464000D01*
X468041D02*
X476491D01*
X479062D02*
X580086D01*
X583392D02*
X585229D01*
X589270D02*
X596618D01*
X607638D02*
X612781D01*
X626006D02*
X628945D01*
X419183Y465163D02*
X421387D01*
X434979D02*
X439755D01*
X451510D02*
X458123D01*
X462898D02*
X464000D01*
X468041D02*
X476491D01*
X478695D02*
X580086D01*
X583392D02*
X585229D01*
X589270D02*
X596618D01*
X607638D02*
X612781D01*
X626006D02*
X628945D01*
X419917Y464796D02*
X421019D01*
X436081D02*
X439387D01*
X452245D02*
X457755D01*
X462531D02*
X464735D01*
X468409D02*
X476123D01*
X478695D02*
X579719D01*
X583025D02*
X585597D01*
X590005D02*
X595883D01*
X601393D02*
X601760D01*
X608373D02*
X612047D01*
X626741D02*
X628210D01*
X419917Y464428D02*
X420285D01*
X436081D02*
X438653D01*
X445632D02*
X446735D01*
X452612D02*
X457021D01*
X461796D02*
X465103D01*
X468776D02*
X475389D01*
X477960D02*
X578984D01*
X582290D02*
X586331D01*
X590372D02*
X595515D01*
X600658D02*
X602495D01*
X608740D02*
X611679D01*
X627108D02*
X627843D01*
X419917Y464061D02*
X420285D01*
X436081D02*
X438653D01*
X445632D02*
X446735D01*
X452612D02*
X457021D01*
X461796D02*
X465103D01*
X468776D02*
X475389D01*
X477960D02*
X578984D01*
X582290D02*
X586331D01*
X590372D02*
X595515D01*
X600658D02*
X602495D01*
X608740D02*
X611679D01*
X627108D02*
X627843D01*
X428367Y463694D02*
X429101D01*
X436448D02*
X438285D01*
X445265D02*
X447469D01*
X452612D02*
X456653D01*
X461429D02*
X465837D01*
X469511D02*
X475021D01*
X477593D02*
X578250D01*
X581923D02*
X586699D01*
X591107D02*
X594781D01*
X600291D02*
X602863D01*
X609475D02*
X610945D01*
X618659D02*
X619026D01*
X427999Y463326D02*
X429469D01*
X437183D02*
X437551D01*
X444530D02*
X448571D01*
X453347D02*
X455919D01*
X460694D02*
X466205D01*
X469878D02*
X474286D01*
X477225D02*
X578250D01*
X581188D02*
X587434D01*
X591474D02*
X594413D01*
X599556D02*
X603597D01*
X609842D02*
X610577D01*
X617924D02*
X619761D01*
X427999Y462959D02*
X429469D01*
X437183D02*
X437551D01*
X444530D02*
X448571D01*
X453347D02*
X455919D01*
X460694D02*
X466205D01*
X469878D02*
X474286D01*
X477225D02*
X578250D01*
X581188D02*
X587434D01*
X591474D02*
X594413D01*
X599556D02*
X603597D01*
X609842D02*
X610577D01*
X617924D02*
X619761D01*
X427264Y462592D02*
X430571D01*
X443428D02*
X448571D01*
X454449D02*
X455551D01*
X460327D02*
X466939D01*
X470613D02*
X473919D01*
X477225D02*
X577515D01*
X580821D02*
X587801D01*
X592209D02*
X593679D01*
X599189D02*
X603965D01*
X617557D02*
X620129D01*
X635925D02*
X636292D01*
X411101Y462224D02*
X412203D01*
X426897D02*
X430571D01*
X443428D02*
X448939D01*
X454449D02*
X454816D01*
X459592D02*
X467307D01*
X470980D02*
X473184D01*
X476491D02*
X577147D01*
X580086D02*
X587801D01*
X592576D02*
X593311D01*
X598454D02*
X604699D01*
X616822D02*
X620863D01*
X635190D02*
X637027D01*
X411101Y461857D02*
X412203D01*
X426897D02*
X430571D01*
X443428D02*
X448939D01*
X454449D02*
X454816D01*
X459592D02*
X467307D01*
X470980D02*
X473184D01*
X476491D02*
X577147D01*
X580086D02*
X587801D01*
X592576D02*
X593311D01*
X598454D02*
X604699D01*
X616822D02*
X620863D01*
X635190D02*
X637027D01*
X410733Y461490D02*
X412937D01*
X426897D02*
X431673D01*
X442326D02*
X450041D01*
X459225D02*
X468041D01*
X471715D02*
X472817D01*
X475389D02*
X576413D01*
X579719D02*
X588903D01*
X598087D02*
X605067D01*
X616455D02*
X621231D01*
X634823D02*
X637394D01*
X393835Y461122D02*
X394569D01*
X409999D02*
X413305D01*
X426162D02*
X432040D01*
X442326D02*
X450408D01*
X458857D02*
X468409D01*
X475389D02*
X575311D01*
X578984D02*
X589270D01*
X597352D02*
X605802D01*
X615720D02*
X621965D01*
X634088D02*
X638129D01*
X653191D02*
X653558D01*
X393467Y460755D02*
X395304D01*
X409631D02*
X414407D01*
X425795D02*
X432775D01*
X441224D02*
X451143D01*
X458123D02*
X469511D01*
X474286D02*
X574943D01*
X578617D02*
X589270D01*
X596985D02*
X606169D01*
X615353D02*
X622333D01*
X634088D02*
X638497D01*
X653191D02*
X654293D01*
X393467Y460387D02*
X395304D01*
X409631D02*
X414407D01*
X425795D02*
X432775D01*
X441224D02*
X451143D01*
X458123D02*
X469511D01*
X474286D02*
X574943D01*
X578617D02*
X589270D01*
X596985D02*
X606169D01*
X615353D02*
X622333D01*
X634088D02*
X638497D01*
X653191D02*
X654293D01*
X392733Y460020D02*
X395304D01*
X408896D02*
X414774D01*
X424693D02*
X433142D01*
X441224D02*
X451510D01*
X457755D02*
X469878D01*
X473919D02*
X574208D01*
X578250D02*
X590005D01*
X596618D02*
X606536D01*
X614986D02*
X622333D01*
X633354D02*
X638497D01*
X652089D02*
X654660D01*
X392365Y459653D02*
X396406D01*
X408529D02*
X415509D01*
X424693D02*
X433877D01*
X440857D02*
X452245D01*
X457021D02*
X470613D01*
X473184D02*
X574208D01*
X577515D02*
X590372D01*
X595883D02*
X606536D01*
X614251D02*
X623435D01*
X632619D02*
X639231D01*
X651721D02*
X655395D01*
X392365Y459285D02*
X396406D01*
X408529D02*
X415509D01*
X424693D02*
X433877D01*
X440857D02*
X452245D01*
X457021D02*
X470613D01*
X473184D02*
X574208D01*
X577515D02*
X590372D01*
X595883D02*
X606536D01*
X614251D02*
X623435D01*
X632619D02*
X639231D01*
X651721D02*
X655395D01*
X392733Y458918D02*
X396039D01*
X408529D02*
X414774D01*
X425060D02*
X433142D01*
X441224D02*
X451510D01*
X457755D02*
X469878D01*
X473919D02*
X573841D01*
X578250D02*
X590005D01*
X596618D02*
X606169D01*
X614986D02*
X623067D01*
X633354D02*
X638497D01*
X652089D02*
X654660D01*
X393467Y458551D02*
X395304D01*
X409631D02*
X413672D01*
X425060D02*
X432775D01*
X441224D02*
X451143D01*
X458123D02*
X469511D01*
X474286D02*
X573106D01*
X578617D02*
X590005D01*
X596985D02*
X606169D01*
X615353D02*
X622333D01*
X634088D02*
X638129D01*
X653191D02*
X654293D01*
X393467Y458183D02*
X395304D01*
X409631D02*
X413672D01*
X425060D02*
X432775D01*
X441224D02*
X451143D01*
X458123D02*
X469511D01*
X473919D02*
X573106D01*
X578617D02*
X590005D01*
X596985D02*
X606169D01*
X615353D02*
X622333D01*
X634088D02*
X638129D01*
X653191D02*
X654293D01*
X393835Y457816D02*
X394937D01*
X409631D02*
X413672D01*
X425795D02*
X432040D01*
X441959D02*
X450408D01*
X458857D02*
X468409D01*
X473552D02*
X573106D01*
X578984D02*
X588903D01*
X597352D02*
X605802D01*
X615720D02*
X621231D01*
X634088D02*
X638129D01*
X409999Y457449D02*
X412937D01*
X426162D02*
X431673D01*
X442326D02*
X450041D01*
X459225D02*
X468409D01*
X471715D02*
X472817D01*
X473552D02*
X572739D01*
X575311D02*
X576045D01*
X580086D02*
X588168D01*
X598087D02*
X605067D01*
X616455D02*
X621231D01*
X635190D02*
X637394D01*
X409999Y457081D02*
X412937D01*
X426162D02*
X431673D01*
X442326D02*
X450041D01*
X459225D02*
X468409D01*
X471715D02*
X472817D01*
X473184D02*
X572739D01*
X575311D02*
X576045D01*
X580086D02*
X588168D01*
X598087D02*
X605067D01*
X616455D02*
X621231D01*
X635190D02*
X637394D01*
X410733Y456714D02*
X412203D01*
X426897D02*
X431305D01*
X443061D02*
X449673D01*
X454449D02*
X455551D01*
X459592D02*
X468041D01*
X470980D02*
X572004D01*
X574943D02*
X577147D01*
X580086D02*
X587801D01*
X598454D02*
X604699D01*
X617557D02*
X620863D01*
X635925D02*
X637027D01*
X411101Y456347D02*
X411835D01*
X427264D02*
X430571D01*
X443428D02*
X448939D01*
X453714D02*
X455919D01*
X460327D02*
X467307D01*
X469878D02*
X571637D01*
X574208D02*
X577147D01*
X581188D02*
X587434D01*
X592576D02*
X593679D01*
X599189D02*
X603965D01*
X617557D02*
X620129D01*
X411101Y455979D02*
X411835D01*
X427264D02*
X430571D01*
X443428D02*
X448939D01*
X453714D02*
X455919D01*
X460327D02*
X467307D01*
X469878D02*
X571637D01*
X574208D02*
X577147D01*
X581188D02*
X587434D01*
X592576D02*
X593679D01*
X599189D02*
X603965D01*
X617557D02*
X620129D01*
X427999Y455612D02*
X430203D01*
X437183D02*
X438285D01*
X444163D02*
X448571D01*
X453347D02*
X456653D01*
X460694D02*
X466939D01*
X469878D02*
X571637D01*
X573841D02*
X577515D01*
X581923D02*
X586699D01*
X592209D02*
X594413D01*
X599556D02*
X603597D01*
X618659D02*
X619761D01*
X428367Y455244D02*
X429469D01*
X436448D02*
X438653D01*
X444530D02*
X447837D01*
X452612D02*
X457021D01*
X461429D02*
X465837D01*
X468776D02*
X570902D01*
X573106D02*
X578250D01*
X582290D02*
X586699D01*
X591107D02*
X594413D01*
X600658D02*
X602863D01*
X609475D02*
X610945D01*
X428367Y454877D02*
X429469D01*
X436448D02*
X438653D01*
X444530D02*
X447837D01*
X452612D02*
X457021D01*
X461429D02*
X465837D01*
X468776D02*
X570902D01*
X573106D02*
X578250D01*
X582290D02*
X586699D01*
X591107D02*
X594413D01*
X600658D02*
X602863D01*
X609475D02*
X610945D01*
X419917Y454510D02*
X421019D01*
X436081D02*
X439387D01*
X445265D02*
X447469D01*
X452245D02*
X457755D01*
X461429D02*
X465837D01*
X468409D02*
X570535D01*
X572739D02*
X578617D01*
X583025D02*
X586331D01*
X590372D02*
X595515D01*
X601393D02*
X602495D01*
X609475D02*
X611679D01*
X419183Y454142D02*
X421387D01*
X435346D02*
X439755D01*
X445632D02*
X446735D01*
X451510D02*
X458123D01*
X461796D02*
X465103D01*
X468409D02*
X570535D01*
X572004D02*
X578984D01*
X583392D02*
X585597D01*
X590372D02*
X595515D01*
X601393D02*
X601760D01*
X608740D02*
X612047D01*
X627108D02*
X628210D01*
X419183Y453775D02*
X421387D01*
X435346D02*
X439755D01*
X445632D02*
X446735D01*
X451510D02*
X458123D01*
X461796D02*
X465103D01*
X468409D02*
X570535D01*
X572004D02*
X578984D01*
X583392D02*
X585597D01*
X590372D02*
X595515D01*
X601393D02*
X601760D01*
X608740D02*
X612047D01*
X627108D02*
X628210D01*
X402651Y453408D02*
X403019D01*
X418815D02*
X422121D01*
X434979D02*
X440489D01*
X451143D02*
X458857D01*
X462531D02*
X464000D01*
X468041D02*
X569800D01*
X571637D02*
X579719D01*
X584127D02*
X584495D01*
X589270D02*
X595883D01*
X608373D02*
X612047D01*
X626741D02*
X628210D01*
X401917Y453040D02*
X403753D01*
X418080D02*
X422489D01*
X434244D02*
X440857D01*
X450408D02*
X459225D01*
X462898D02*
X464000D01*
X467307D02*
X569433D01*
X570902D02*
X580086D01*
X588903D02*
X596618D01*
X607271D02*
X612781D01*
X626006D02*
X628945D01*
X401917Y452673D02*
X403753D01*
X418080D02*
X422489D01*
X434244D02*
X440857D01*
X450408D02*
X459225D01*
X462898D02*
X464000D01*
X467307D02*
X569433D01*
X570902D02*
X580086D01*
X588903D02*
X596618D01*
X607271D02*
X612781D01*
X626006D02*
X628945D01*
X401549Y452305D02*
X404488D01*
X417713D02*
X422856D01*
X433877D02*
X441224D01*
X450041D02*
X459592D01*
X466939D02*
X569066D01*
X570535D02*
X580821D01*
X588168D02*
X596985D01*
X607271D02*
X613149D01*
X625639D02*
X629313D01*
X644374D02*
X645476D01*
X385385Y451938D02*
X386120D01*
X400815D02*
X405223D01*
X416978D02*
X423591D01*
X433142D02*
X442326D01*
X450041D02*
X460327D01*
X466205D02*
X569066D01*
X569800D02*
X581188D01*
X588168D02*
X597352D01*
X606169D02*
X613883D01*
X624904D02*
X630047D01*
X644007D02*
X646211D01*
X384651Y451571D02*
X386855D01*
X400447D02*
X405590D01*
X416611D02*
X424693D01*
X432775D02*
X443061D01*
X449673D02*
X460694D01*
X465837D02*
X568331D01*
X569433D02*
X581923D01*
X587801D02*
X598087D01*
X605802D02*
X614251D01*
X624537D02*
X630415D01*
X642905D02*
X646211D01*
X384651Y451203D02*
X386855D01*
X400447D02*
X405590D01*
X416611D02*
X424693D01*
X432775D02*
X443061D01*
X449673D02*
X460694D01*
X465837D02*
X568331D01*
X569433D02*
X581923D01*
X587801D02*
X598087D01*
X605802D02*
X614251D01*
X624537D02*
X630415D01*
X642905D02*
X646211D01*
X384283Y450836D02*
X387222D01*
X399712D02*
X406325D01*
X415876D02*
X424693D01*
X432040D02*
X443061D01*
X448571D02*
X461429D01*
X465103D02*
X567963D01*
X569066D02*
X582290D01*
X586699D02*
X598454D01*
X605067D02*
X614986D01*
X624170D02*
X631149D01*
X642538D02*
X646579D01*
X384651Y450469D02*
X386855D01*
X400447D02*
X405590D01*
X416611D02*
X423958D01*
X432775D02*
X443061D01*
X448939D02*
X460694D01*
X465837D02*
X567963D01*
X569066D02*
X581188D01*
X587434D02*
X598087D01*
X605802D02*
X614251D01*
X624537D02*
X630415D01*
X643272D02*
X646211D01*
X384651Y450101D02*
X386855D01*
X400447D02*
X405590D01*
X416611D02*
X423958D01*
X432775D02*
X443061D01*
X448939D02*
X460694D01*
X465837D02*
X567963D01*
X569066D02*
X581188D01*
X587434D02*
X598087D01*
X605802D02*
X614251D01*
X624537D02*
X630415D01*
X643272D02*
X646211D01*
X385385Y449734D02*
X386120D01*
X400815D02*
X405223D01*
X416978D02*
X423591D01*
X433142D02*
X442326D01*
X449673D02*
X460327D01*
X466205D02*
X567229D01*
X569800D02*
X581188D01*
X588168D02*
X597352D01*
X606536D02*
X613883D01*
X624904D02*
X630047D01*
X643272D02*
X645476D01*
X401549Y449367D02*
X404488D01*
X417713D02*
X423591D01*
X433877D02*
X441959D01*
X450041D02*
X459592D01*
X466939D02*
X566861D01*
X570535D02*
X580821D01*
X588903D02*
X596985D01*
X606536D02*
X613149D01*
X625639D02*
X629313D01*
X644374D02*
X645109D01*
X401549Y448999D02*
X404488D01*
X417713D02*
X423591D01*
X433877D02*
X441959D01*
X450041D02*
X459592D01*
X466939D02*
X566861D01*
X570535D02*
X580821D01*
X588903D02*
X596985D01*
X606536D02*
X613149D01*
X625639D02*
X629313D01*
X644374D02*
X645109D01*
X401917Y448632D02*
X404121D01*
X418080D02*
X422489D01*
X434244D02*
X440857D01*
X450408D02*
X459225D01*
X462898D02*
X463633D01*
X467307D02*
X566127D01*
X566861D02*
X567963D01*
X570902D02*
X580086D01*
X588903D02*
X596618D01*
X607638D02*
X612781D01*
X626006D02*
X628945D01*
X402651Y448265D02*
X403753D01*
X418815D02*
X422121D01*
X434979D02*
X440857D01*
X445632D02*
X446367D01*
X451143D02*
X458857D01*
X462531D02*
X464735D01*
X466939D02*
X568331D01*
X571637D02*
X579719D01*
X584127D02*
X584495D01*
X590005D02*
X595883D01*
X607638D02*
X612047D01*
X626741D02*
X628210D01*
X402651Y447897D02*
X403753D01*
X418815D02*
X422121D01*
X434979D02*
X440857D01*
X445632D02*
X446367D01*
X451143D02*
X458857D01*
X462531D02*
X464735D01*
X466572D02*
X568331D01*
X571637D02*
X579719D01*
X584127D02*
X584495D01*
X590005D02*
X595883D01*
X607638D02*
X612047D01*
X626741D02*
X628210D01*
X418815Y447530D02*
X422121D01*
X435346D02*
X439755D01*
X445632D02*
X446735D01*
X451510D02*
X458123D01*
X461796D02*
X465103D01*
X466205D02*
X569066D01*
X572004D02*
X578984D01*
X583392D02*
X585229D01*
X590372D02*
X595515D01*
X608740D02*
X611679D01*
X627108D02*
X627843D01*
X419183Y447163D02*
X421019D01*
X428367D02*
X429101D01*
X435346D02*
X439387D01*
X445265D02*
X447469D01*
X452245D02*
X457755D01*
X461429D02*
X465837D01*
X466205D02*
X569433D01*
X572739D02*
X578617D01*
X583025D02*
X585597D01*
X591107D02*
X594781D01*
X601393D02*
X601760D01*
X609475D02*
X610945D01*
X419183Y446795D02*
X421019D01*
X428367D02*
X429101D01*
X435346D02*
X439387D01*
X445265D02*
X447469D01*
X452245D02*
X457755D01*
X461429D02*
X569433D01*
X572739D02*
X578617D01*
X583025D02*
X585597D01*
X591107D02*
X594781D01*
X601393D02*
X601760D01*
X609475D02*
X610945D01*
X419917Y446428D02*
X420285D01*
X427999D02*
X429469D01*
X436448D02*
X438653D01*
X444163D02*
X447837D01*
X452612D02*
X457021D01*
X460694D02*
X569433D01*
X573106D02*
X578250D01*
X582290D02*
X586331D01*
X591474D02*
X594413D01*
X600658D02*
X602495D01*
X609842D02*
X610577D01*
X411101Y446060D02*
X411835D01*
X427999D02*
X430571D01*
X436448D02*
X438285D01*
X444163D02*
X448571D01*
X453347D02*
X456653D01*
X460327D02*
X569800D01*
X573841D02*
X577515D01*
X581923D02*
X586699D01*
X592209D02*
X593679D01*
X600291D02*
X602863D01*
X618659D02*
X619026D01*
X411101Y445693D02*
X411835D01*
X427999D02*
X430571D01*
X436448D02*
X438285D01*
X444163D02*
X448571D01*
X453347D02*
X456653D01*
X460327D02*
X569800D01*
X573841D02*
X577515D01*
X581923D02*
X586699D01*
X592209D02*
X593679D01*
X600291D02*
X602863D01*
X618659D02*
X619026D01*
X410733Y445326D02*
X412203D01*
X427264D02*
X430571D01*
X437183D02*
X437551D01*
X443428D02*
X449673D01*
X453714D02*
X455919D01*
X459592D02*
X570535D01*
X574208D02*
X577147D01*
X581188D02*
X587434D01*
X592576D02*
X593311D01*
X599556D02*
X603597D01*
X617924D02*
X619761D01*
X409999Y444958D02*
X412937D01*
X426897D02*
X431305D01*
X442326D02*
X449673D01*
X454449D02*
X455551D01*
X459225D02*
X571637D01*
X574943D02*
X576413D01*
X580821D02*
X587801D01*
X599189D02*
X603965D01*
X617557D02*
X620129D01*
X409999Y444591D02*
X412937D01*
X426897D02*
X431305D01*
X442326D02*
X449673D01*
X454449D02*
X455551D01*
X459225D02*
X571637D01*
X574943D02*
X576413D01*
X580821D02*
X587801D01*
X599189D02*
X603965D01*
X617557D02*
X620129D01*
X393835Y444224D02*
X394937D01*
X409631D02*
X413305D01*
X425795D02*
X432040D01*
X442326D02*
X450408D01*
X454449D02*
X454816D01*
X458857D02*
X571637D01*
X575311D02*
X576045D01*
X580086D02*
X588168D01*
X598454D02*
X604699D01*
X616822D02*
X620863D01*
X635925D02*
X637027D01*
X393467Y443856D02*
X395304D01*
X409631D02*
X414407D01*
X425795D02*
X432775D01*
X441224D02*
X451143D01*
X458123D02*
X572004D01*
X579719D02*
X588903D01*
X598087D02*
X605067D01*
X616455D02*
X621231D01*
X635190D02*
X637027D01*
X393467Y443489D02*
X395304D01*
X409631D02*
X414407D01*
X425795D02*
X432775D01*
X441224D02*
X451143D01*
X458123D02*
X572004D01*
X579719D02*
X588903D01*
X598087D02*
X605067D01*
X616455D02*
X621231D01*
X635190D02*
X637027D01*
X392733Y443121D02*
X396039D01*
X408896D02*
X414774D01*
X424693D02*
X433142D01*
X441224D02*
X451510D01*
X457755D02*
X572739D01*
X578984D02*
X589270D01*
X597352D02*
X605802D01*
X615720D02*
X621965D01*
X634088D02*
X637394D01*
X376569Y442754D02*
X377671D01*
X392365D02*
X396406D01*
X408529D02*
X415509D01*
X424693D02*
X433877D01*
X440857D02*
X452245D01*
X457021D02*
X573106D01*
X578617D02*
X590005D01*
X596985D02*
X606169D01*
X615353D02*
X622333D01*
X634088D02*
X638129D01*
X376201Y442387D02*
X378038D01*
X391631D02*
X397141D01*
X407794D02*
X415876D01*
X423591D02*
X434244D01*
X440489D02*
X452612D01*
X456653D02*
X573841D01*
X578250D02*
X590005D01*
X596618D02*
X606536D01*
X614986D02*
X623067D01*
X633721D02*
X638497D01*
X652456D02*
X653558D01*
X376201Y442020D02*
X378038D01*
X391631D02*
X397141D01*
X407794D02*
X415876D01*
X423591D02*
X434244D01*
X440489D02*
X452612D01*
X456653D02*
X573841D01*
X578250D02*
X590005D01*
X596618D02*
X606536D01*
X614986D02*
X623067D01*
X633721D02*
X638497D01*
X652456D02*
X653558D01*
X376569Y441652D02*
X377671D01*
X392365D02*
X396406D01*
X408529D02*
X415509D01*
X424693D02*
X433877D01*
X440857D02*
X452245D01*
X457021D02*
X573106D01*
X578617D02*
X590005D01*
X596985D02*
X606169D01*
X615353D02*
X622333D01*
X634088D02*
X638129D01*
X392733Y441285D02*
X396039D01*
X408529D02*
X414774D01*
X425060D02*
X433142D01*
X441224D02*
X451510D01*
X457755D02*
X572739D01*
X578984D02*
X589270D01*
X597352D02*
X605802D01*
X615720D02*
X621965D01*
X634823D02*
X637394D01*
X392733Y440917D02*
X396039D01*
X408529D02*
X414774D01*
X425060D02*
X433142D01*
X441224D02*
X451510D01*
X457755D02*
X572739D01*
X578984D02*
X589270D01*
X597352D02*
X605802D01*
X615720D02*
X621965D01*
X634823D02*
X637394D01*
X393467Y440550D02*
X395304D01*
X408896D02*
X414407D01*
X425060D02*
X432775D01*
X441959D02*
X451143D01*
X458123D02*
X560616D01*
X561351D02*
X572004D01*
X579719D02*
X588903D01*
X598087D02*
X605067D01*
X616455D02*
X621231D01*
X635190D02*
X637027D01*
X393835Y440183D02*
X394937D01*
X409631D02*
X413672D01*
X425795D02*
X432040D01*
X441959D02*
X450408D01*
X454449D02*
X454816D01*
X458857D02*
X560249D01*
X562453D02*
X571637D01*
X580086D02*
X588168D01*
X598454D02*
X604699D01*
X616822D02*
X620129D01*
X635925D02*
X636292D01*
X393835Y439815D02*
X394937D01*
X409631D02*
X413672D01*
X425795D02*
X432040D01*
X441959D02*
X450408D01*
X454449D02*
X454816D01*
X458857D02*
X560249D01*
X562453D02*
X571637D01*
X580086D02*
X588168D01*
X598454D02*
X604699D01*
X616822D02*
X620129D01*
X635925D02*
X636292D01*
X409999Y439448D02*
X413305D01*
X426162D02*
X431673D01*
X442326D02*
X450041D01*
X453714D02*
X455551D01*
X459225D02*
X560249D01*
X562820D02*
X570902D01*
X575311D02*
X576413D01*
X580821D02*
X587801D01*
X599189D02*
X603965D01*
X617924D02*
X619761D01*
X410733Y439081D02*
X412937D01*
X426897D02*
X431305D01*
X437183D02*
X438285D01*
X443061D02*
X449673D01*
X453714D02*
X455919D01*
X459592D02*
X560249D01*
X563555D02*
X570535D01*
X574943D02*
X577147D01*
X581188D02*
X586699D01*
X600291D02*
X603597D01*
X618659D02*
X619761D01*
X410733Y438713D02*
X412937D01*
X426897D02*
X431305D01*
X437183D02*
X438285D01*
X443061D02*
X449673D01*
X453714D02*
X455919D01*
X459592D02*
X560249D01*
X563555D02*
X570535D01*
X574943D02*
X577147D01*
X581188D02*
X586699D01*
X600291D02*
X603597D01*
X618659D02*
X619761D01*
X411101Y438346D02*
X412203D01*
X427264D02*
X430571D01*
X436448D02*
X438653D01*
X443428D02*
X448939D01*
X452612D02*
X457021D01*
X459959D02*
X560616D01*
X563922D02*
X569800D01*
X574208D02*
X577515D01*
X581923D02*
X586331D01*
X592576D02*
X593679D01*
X600291D02*
X602863D01*
X419917Y437979D02*
X421019D01*
X427999D02*
X430203D01*
X436081D02*
X439387D01*
X444163D02*
X448571D01*
X452245D02*
X457021D01*
X459592D02*
X561351D01*
X564657D02*
X569433D01*
X573841D02*
X577515D01*
X582290D02*
X586331D01*
X592209D02*
X594413D01*
X600658D02*
X602495D01*
X419917Y437611D02*
X421019D01*
X427999D02*
X430203D01*
X436081D02*
X439387D01*
X444163D02*
X448571D01*
X452245D02*
X457021D01*
X459225D02*
X561351D01*
X564657D02*
X569433D01*
X573841D02*
X577515D01*
X582290D02*
X586331D01*
X592209D02*
X594413D01*
X600658D02*
X602495D01*
X419183Y437244D02*
X421387D01*
X428367D02*
X429469D01*
X435346D02*
X439755D01*
X444530D02*
X447837D01*
X452245D02*
X458123D01*
X459225D02*
X561718D01*
X565024D02*
X569066D01*
X573106D02*
X578250D01*
X583392D02*
X585597D01*
X591474D02*
X594781D01*
X601393D02*
X601760D01*
X609475D02*
X610945D01*
X402651Y436876D02*
X403753D01*
X418815D02*
X422121D01*
X434979D02*
X440489D01*
X445265D02*
X447469D01*
X451143D02*
X562453D01*
X565759D02*
X569066D01*
X572004D02*
X578617D01*
X584127D02*
X585229D01*
X590372D02*
X594781D01*
X608740D02*
X611679D01*
X402651Y436509D02*
X403753D01*
X418815D02*
X422121D01*
X434979D02*
X440489D01*
X445265D02*
X447469D01*
X451143D02*
X562453D01*
X565759D02*
X569066D01*
X572004D02*
X578617D01*
X584127D02*
X585229D01*
X590372D02*
X594781D01*
X608740D02*
X611679D01*
X401917Y436142D02*
X404121D01*
X418080D02*
X422489D01*
X434244D02*
X440857D01*
X445632D02*
X446367D01*
X450408D02*
X562820D01*
X566127D02*
X567963D01*
X571637D02*
X578984D01*
X590372D02*
X595515D01*
X608740D02*
X612047D01*
X627108D02*
X627843D01*
X401549Y435774D02*
X404488D01*
X417713D02*
X422856D01*
X433877D02*
X441224D01*
X450041D02*
X563555D01*
X566861D02*
X567229D01*
X570902D02*
X579719D01*
X589270D02*
X596618D01*
X608373D02*
X612047D01*
X626741D02*
X628210D01*
X401549Y435407D02*
X404488D01*
X417713D02*
X422856D01*
X433877D02*
X441224D01*
X450041D02*
X563555D01*
X566861D02*
X567229D01*
X570902D02*
X579719D01*
X589270D02*
X596618D01*
X608373D02*
X612047D01*
X626741D02*
X628210D01*
X385385Y435040D02*
X386120D01*
X400815D02*
X405223D01*
X416978D02*
X423591D01*
X433142D02*
X441959D01*
X450041D02*
X563555D01*
X570535D02*
X580086D01*
X588903D02*
X596618D01*
X607638D02*
X612781D01*
X626006D02*
X628945D01*
X384651Y434672D02*
X386855D01*
X400447D02*
X405590D01*
X416611D02*
X423958D01*
X432775D02*
X442326D01*
X449673D02*
X564657D01*
X570535D02*
X580821D01*
X588168D02*
X596985D01*
X606536D02*
X613149D01*
X625639D02*
X629313D01*
X644374D02*
X645109D01*
X384651Y434305D02*
X386855D01*
X400447D02*
X405590D01*
X416611D02*
X423958D01*
X432775D02*
X442326D01*
X449673D02*
X564657D01*
X570535D02*
X580821D01*
X588168D02*
X596985D01*
X606536D02*
X613149D01*
X625639D02*
X629313D01*
X644374D02*
X645109D01*
X384283Y433937D02*
X387222D01*
X399712D02*
X406325D01*
X415876D02*
X424693D01*
X432040D02*
X443061D01*
X448571D02*
X564657D01*
X569433D02*
X581188D01*
X587801D02*
X597352D01*
X606169D02*
X613883D01*
X624904D02*
X630047D01*
X644007D02*
X645476D01*
X264156Y433570D02*
X264891D01*
X383549D02*
X388324D01*
X399345D02*
X406692D01*
X415509D02*
X425060D01*
X431673D02*
X444163D01*
X447837D02*
X565024D01*
X569066D02*
X581923D01*
X587434D02*
X598087D01*
X605802D02*
X614251D01*
X624537D02*
X630415D01*
X644007D02*
X646211D01*
X662375D02*
X662742D01*
X384283Y433203D02*
X387957D01*
X399712D02*
X406325D01*
X415876D02*
X425060D01*
X432040D02*
X443061D01*
X448939D02*
X565024D01*
X569800D02*
X581188D01*
X587801D02*
X597352D01*
X606536D02*
X613883D01*
X624904D02*
X630047D01*
X644007D02*
X645476D01*
X384283Y432836D02*
X387957D01*
X399712D02*
X406325D01*
X415876D02*
X425060D01*
X432040D02*
X443061D01*
X448939D02*
X565024D01*
X569800D02*
X581188D01*
X587801D02*
X597352D01*
X606536D02*
X613883D01*
X624904D02*
X630047D01*
X644007D02*
X645476D01*
X384283Y432468D02*
X386855D01*
X400447D02*
X405590D01*
X416611D02*
X424693D01*
X432775D02*
X443061D01*
X449673D02*
X563922D01*
X570535D02*
X580821D01*
X588168D02*
X596985D01*
X606536D02*
X613149D01*
X625639D02*
X629313D01*
X644374D02*
X645109D01*
X384651Y432101D02*
X386120D01*
X400815D02*
X405223D01*
X416978D02*
X423958D01*
X433142D02*
X442326D01*
X449673D02*
X563555D01*
X570902D02*
X580086D01*
X589270D02*
X596618D01*
X607638D02*
X612781D01*
X626006D02*
X628945D01*
X384651Y431733D02*
X386120D01*
X400815D02*
X405223D01*
X416978D02*
X423958D01*
X433142D02*
X442326D01*
X449673D02*
X563555D01*
X570902D02*
X580086D01*
X589270D02*
X596618D01*
X607638D02*
X612781D01*
X626006D02*
X628945D01*
X385385Y431366D02*
X386120D01*
X401549D02*
X404488D01*
X417713D02*
X423591D01*
X433877D02*
X441224D01*
X450408D02*
X562820D01*
X566861D02*
X567229D01*
X571637D02*
X579719D01*
X590005D02*
X595883D01*
X608373D02*
X612047D01*
X627108D02*
X628210D01*
X401917Y430999D02*
X404121D01*
X417713D02*
X422489D01*
X434244D02*
X440857D01*
X445632D02*
X446735D01*
X450408D02*
X562820D01*
X566127D02*
X567963D01*
X572004D02*
X578984D01*
X590372D02*
X595515D01*
X608740D02*
X611679D01*
X401917Y430631D02*
X404121D01*
X417713D02*
X422489D01*
X434244D02*
X440857D01*
X445632D02*
X446735D01*
X450408D02*
X562820D01*
X566127D02*
X567963D01*
X572004D02*
X578984D01*
X590372D02*
X595515D01*
X608740D02*
X611679D01*
X402651Y430264D02*
X403753D01*
X418815D02*
X422121D01*
X434979D02*
X440489D01*
X445265D02*
X447469D01*
X451143D02*
X553269D01*
X554371D02*
X562453D01*
X565759D02*
X568331D01*
X572739D02*
X578617D01*
X584127D02*
X584495D01*
X591107D02*
X594781D01*
X609475D02*
X610945D01*
X418815Y429897D02*
X421387D01*
X428367D02*
X429469D01*
X435346D02*
X439755D01*
X444530D02*
X447837D01*
X451510D02*
X553269D01*
X554738D02*
X561718D01*
X565024D02*
X569066D01*
X573106D02*
X578250D01*
X583392D02*
X585229D01*
X591474D02*
X594413D01*
X609842D02*
X610577D01*
X418815Y429529D02*
X421387D01*
X428367D02*
X429469D01*
X435346D02*
X439755D01*
X444530D02*
X447837D01*
X451510D02*
X553269D01*
X554738D02*
X561718D01*
X565024D02*
X569066D01*
X573106D02*
X578250D01*
X583392D02*
X585229D01*
X591474D02*
X594413D01*
X609842D02*
X610577D01*
X411101Y429162D02*
X411835D01*
X419183D02*
X421019D01*
X427999D02*
X430203D01*
X435346D02*
X439387D01*
X444163D02*
X448571D01*
X452245D02*
X552534D01*
X555840D02*
X560616D01*
X564657D02*
X569433D01*
X573841D02*
X577515D01*
X583025D02*
X585597D01*
X592209D02*
X593679D01*
X601393D02*
X601760D01*
X410733Y428795D02*
X412203D01*
X419917D02*
X420285D01*
X427264D02*
X430571D01*
X436448D02*
X438653D01*
X443428D02*
X448939D01*
X452612D02*
X553269D01*
X556575D02*
X560616D01*
X563922D02*
X569800D01*
X574208D02*
X577147D01*
X582290D02*
X586331D01*
X592576D02*
X593311D01*
X600658D02*
X602495D01*
X410733Y428427D02*
X412203D01*
X419917D02*
X420285D01*
X427264D02*
X430571D01*
X436448D02*
X438653D01*
X443428D02*
X448939D01*
X452612D02*
X553269D01*
X556575D02*
X560616D01*
X563922D02*
X569800D01*
X574208D02*
X577147D01*
X582290D02*
X586331D01*
X592576D02*
X593311D01*
X600658D02*
X602495D01*
X409999Y428060D02*
X413305D01*
X426162D02*
X431305D01*
X437183D02*
X438285D01*
X443061D02*
X449673D01*
X452612D02*
X553636D01*
X556575D02*
X560249D01*
X563555D02*
X570535D01*
X574943D02*
X576413D01*
X581923D02*
X586699D01*
X600291D02*
X602863D01*
X618659D02*
X619026D01*
X393835Y427692D02*
X394937D01*
X409631D02*
X413305D01*
X426162D02*
X431673D01*
X437183D02*
X437551D01*
X442326D02*
X450041D01*
X452245D02*
X554371D01*
X557677D02*
X559882D01*
X562820D02*
X570902D01*
X575311D02*
X576045D01*
X581188D02*
X587434D01*
X599556D02*
X603597D01*
X617924D02*
X619761D01*
X393835Y427325D02*
X394937D01*
X409631D02*
X413305D01*
X426162D02*
X431673D01*
X437183D02*
X437551D01*
X442326D02*
X450041D01*
X451878D02*
X554371D01*
X557677D02*
X559882D01*
X562820D02*
X570902D01*
X575311D02*
X576045D01*
X581188D02*
X587434D01*
X599556D02*
X603597D01*
X617924D02*
X619761D01*
X393467Y426958D02*
X395304D01*
X409631D02*
X414407D01*
X425060D02*
X432775D01*
X441959D02*
X450408D01*
X451878D02*
X554738D01*
X558045D02*
X559147D01*
X562453D02*
X570902D01*
X580821D02*
X587801D01*
X599189D02*
X603965D01*
X617557D02*
X620129D01*
X376569Y426590D02*
X376936D01*
X392733D02*
X396406D01*
X408896D02*
X414774D01*
X425060D02*
X433142D01*
X441224D02*
X451143D01*
X451510D02*
X555473D01*
X561718D02*
X572004D01*
X580086D02*
X588168D01*
X598454D02*
X604699D01*
X616822D02*
X620863D01*
X635925D02*
X636292D01*
X376569Y426223D02*
X376936D01*
X392733D02*
X396406D01*
X408896D02*
X414774D01*
X425060D02*
X433142D01*
X441224D02*
X555473D01*
X561718D02*
X572004D01*
X580086D02*
X588168D01*
X598454D02*
X604699D01*
X616822D02*
X620863D01*
X635925D02*
X636292D01*
X376569Y425856D02*
X378038D01*
X392365D02*
X397141D01*
X408529D02*
X415509D01*
X424693D02*
X433877D01*
X440857D02*
X555840D01*
X561351D02*
X572739D01*
X579719D02*
X588903D01*
X598087D02*
X605067D01*
X616822D02*
X621231D01*
X635925D02*
X637027D01*
X375467Y425488D02*
X378773D01*
X391631D02*
X397141D01*
X407794D02*
X415876D01*
X423958D02*
X434244D01*
X440489D02*
X556575D01*
X560616D02*
X572739D01*
X578984D02*
X589270D01*
X597352D02*
X605067D01*
X615720D02*
X621231D01*
X634823D02*
X637394D01*
X375467Y425121D02*
X378773D01*
X391631D02*
X397141D01*
X407794D02*
X415876D01*
X423958D02*
X434244D01*
X440489D02*
X556575D01*
X560616D02*
X572739D01*
X578984D02*
X589270D01*
X597352D02*
X605067D01*
X615720D02*
X621231D01*
X634823D02*
X637394D01*
X375099Y424753D02*
X379140D01*
X391263D02*
X398243D01*
X407427D02*
X416611D01*
X423591D02*
X434979D01*
X439755D02*
X556943D01*
X560249D02*
X573106D01*
X578617D02*
X589270D01*
X596985D02*
X606169D01*
X615353D02*
X621965D01*
X634088D02*
X637394D01*
X375467Y424386D02*
X378773D01*
X391263D02*
X397508D01*
X407794D02*
X415876D01*
X423958D02*
X434244D01*
X440489D02*
X556575D01*
X560616D02*
X572739D01*
X578984D02*
X589270D01*
X597352D02*
X605802D01*
X615720D02*
X621965D01*
X634823D02*
X637394D01*
X376201Y424019D02*
X378038D01*
X392365D02*
X396406D01*
X407794D02*
X415509D01*
X423958D02*
X433877D01*
X440857D02*
X555840D01*
X561351D02*
X572739D01*
X579719D02*
X588903D01*
X598087D02*
X605067D01*
X616822D02*
X620863D01*
X635925D02*
X637027D01*
X376201Y423652D02*
X378038D01*
X392365D02*
X396406D01*
X407794D02*
X415509D01*
X423958D02*
X433877D01*
X440857D02*
X555840D01*
X561351D02*
X572739D01*
X579719D02*
X588903D01*
X598087D02*
X605067D01*
X616822D02*
X620863D01*
X635925D02*
X637027D01*
X376569Y423284D02*
X376936D01*
X392365D02*
X396406D01*
X408529D02*
X414774D01*
X424693D02*
X433142D01*
X441224D02*
X555473D01*
X561718D02*
X572004D01*
X580086D02*
X588168D01*
X598454D02*
X603965D01*
X616822D02*
X620863D01*
X392733Y422917D02*
X395304D01*
X408896D02*
X414407D01*
X425060D02*
X432775D01*
X441959D02*
X554738D01*
X558045D02*
X558779D01*
X562820D02*
X570902D01*
X580821D02*
X587801D01*
X599189D02*
X603965D01*
X617924D02*
X620129D01*
X392733Y422549D02*
X395304D01*
X408896D02*
X414407D01*
X425060D02*
X432775D01*
X441959D02*
X554738D01*
X558045D02*
X558779D01*
X562820D02*
X570902D01*
X580821D02*
X587801D01*
X599189D02*
X603965D01*
X617924D02*
X620129D01*
X393467Y422182D02*
X394937D01*
X409631D02*
X413672D01*
X425795D02*
X432040D01*
X437183D02*
X438285D01*
X442326D02*
X554371D01*
X557677D02*
X559882D01*
X562820D02*
X570535D01*
X581188D02*
X587434D01*
X600291D02*
X603597D01*
X618659D02*
X619761D01*
X393835Y421815D02*
X394569D01*
X409999D02*
X413305D01*
X426162D02*
X431673D01*
X436448D02*
X438653D01*
X443061D02*
X553636D01*
X556943D02*
X559882D01*
X563922D02*
X569800D01*
X575311D02*
X576413D01*
X581923D02*
X586699D01*
X600291D02*
X602863D01*
X393835Y421447D02*
X394569D01*
X409999D02*
X413305D01*
X426162D02*
X431673D01*
X436448D02*
X438653D01*
X443061D02*
X553636D01*
X556943D02*
X559882D01*
X563922D02*
X569800D01*
X575311D02*
X576413D01*
X581923D02*
X586699D01*
X600291D02*
X602863D01*
X410733Y421080D02*
X412937D01*
X419917D02*
X421019D01*
X426897D02*
X431305D01*
X436081D02*
X439387D01*
X443428D02*
X553269D01*
X556575D02*
X560249D01*
X564657D02*
X569433D01*
X574943D02*
X577147D01*
X582290D02*
X586331D01*
X600658D02*
X602495D01*
X411101Y420713D02*
X412203D01*
X419183D02*
X421387D01*
X427264D02*
X430571D01*
X435346D02*
X439755D01*
X444163D02*
X546289D01*
X546656D02*
X552534D01*
X555840D02*
X560616D01*
X565024D02*
X569433D01*
X573841D02*
X577147D01*
X583392D02*
X585597D01*
X592209D02*
X593679D01*
X601393D02*
X601760D01*
X411101Y420345D02*
X412203D01*
X419183D02*
X421387D01*
X427264D02*
X430571D01*
X435346D02*
X439755D01*
X444163D02*
X546289D01*
X546656D02*
X552534D01*
X555840D02*
X560616D01*
X565024D02*
X569433D01*
X573841D02*
X577147D01*
X583392D02*
X585597D01*
X592209D02*
X593679D01*
X601393D02*
X601760D01*
X402651Y419978D02*
X403753D01*
X418815D02*
X422121D01*
X427999D02*
X430203D01*
X434979D02*
X440489D01*
X444163D02*
X546289D01*
X547391D02*
X552167D01*
X555473D02*
X561351D01*
X565024D02*
X569066D01*
X573106D02*
X578250D01*
X583392D02*
X585229D01*
X592209D02*
X594413D01*
X401917Y419610D02*
X404121D01*
X418080D02*
X422489D01*
X428367D02*
X429469D01*
X434244D02*
X440857D01*
X444530D02*
X545554D01*
X547759D02*
X551432D01*
X554738D02*
X561718D01*
X566127D02*
X568331D01*
X573106D02*
X578250D01*
X584127D02*
X584495D01*
X591474D02*
X594781D01*
X609842D02*
X610945D01*
X401917Y419243D02*
X404121D01*
X418080D02*
X422489D01*
X428367D02*
X429469D01*
X434244D02*
X440857D01*
X444530D02*
X545554D01*
X547759D02*
X551432D01*
X554738D02*
X561718D01*
X566127D02*
X568331D01*
X573106D02*
X578250D01*
X584127D02*
X584495D01*
X591474D02*
X594781D01*
X609842D02*
X610945D01*
X385385Y418876D02*
X385753D01*
X401549D02*
X404488D01*
X417713D02*
X422856D01*
X433877D02*
X441224D01*
X445265D02*
X545554D01*
X548861D02*
X551065D01*
X554371D02*
X562453D01*
X566861D02*
X567229D01*
X572004D02*
X578617D01*
X590372D02*
X594781D01*
X608740D02*
X610945D01*
X384651Y418508D02*
X386120D01*
X400815D02*
X405223D01*
X416978D02*
X423591D01*
X433142D02*
X441959D01*
X445632D02*
X546289D01*
X548861D02*
X550698D01*
X553636D02*
X562820D01*
X571637D02*
X578984D01*
X590005D02*
X595515D01*
X608740D02*
X611679D01*
X384651Y418141D02*
X386120D01*
X400815D02*
X405223D01*
X416978D02*
X423591D01*
X433142D02*
X441959D01*
X445632D02*
X546289D01*
X548861D02*
X550698D01*
X553636D02*
X562820D01*
X571637D02*
X578984D01*
X590005D02*
X595515D01*
X608740D02*
X611679D01*
X384283Y417774D02*
X387222D01*
X400447D02*
X405590D01*
X416611D02*
X423958D01*
X432775D02*
X442326D01*
X445265D02*
X546656D01*
X549595D02*
X549963D01*
X553269D02*
X563555D01*
X570902D02*
X579719D01*
X590005D02*
X595883D01*
X608373D02*
X612047D01*
X627108D02*
X628210D01*
X368119Y417406D02*
X368854D01*
X383549D02*
X387957D01*
X399712D02*
X406325D01*
X415876D02*
X425060D01*
X432775D02*
X443061D01*
X444898D02*
X547391D01*
X552167D02*
X563922D01*
X570902D02*
X580086D01*
X588903D02*
X596618D01*
X607638D02*
X612781D01*
X626741D02*
X628945D01*
X368119Y417039D02*
X368854D01*
X383549D02*
X387957D01*
X399712D02*
X406325D01*
X415876D02*
X425060D01*
X432775D02*
X443061D01*
X444530D02*
X547391D01*
X552167D02*
X563922D01*
X570902D02*
X580086D01*
X588903D02*
X596618D01*
X607638D02*
X612781D01*
X626741D02*
X628945D01*
X367385Y416672D02*
X369589D01*
X383549D02*
X388324D01*
X399345D02*
X407427D01*
X415509D02*
X425795D01*
X432040D02*
X443428D01*
X444530D02*
X547759D01*
X552167D02*
X564657D01*
X570535D02*
X580821D01*
X588168D02*
X596985D01*
X607271D02*
X613149D01*
X625639D02*
X628945D01*
X333220Y416304D02*
X333955D01*
X367017D02*
X369956D01*
X382447D02*
X389059D01*
X398610D02*
X407427D01*
X414774D02*
X425795D01*
X431305D02*
X548493D01*
X551432D02*
X565024D01*
X569433D02*
X581188D01*
X587801D02*
X597352D01*
X606536D02*
X613883D01*
X624904D02*
X629313D01*
X333220Y415937D02*
X333955D01*
X367017D02*
X369956D01*
X382447D02*
X389059D01*
X398610D02*
X407427D01*
X414774D02*
X425795D01*
X431305D02*
X548493D01*
X551432D02*
X565024D01*
X569433D02*
X581188D01*
X587801D02*
X597352D01*
X606536D02*
X613883D01*
X624904D02*
X629313D01*
X367385Y415569D02*
X369589D01*
X383181D02*
X388324D01*
X399345D02*
X406692D01*
X415509D02*
X425795D01*
X431673D02*
X443428D01*
X443796D02*
X547759D01*
X551432D02*
X564657D01*
X569800D02*
X580821D01*
X588168D02*
X596985D01*
X607271D02*
X613149D01*
X626006D02*
X629313D01*
X368119Y415202D02*
X368854D01*
X383549D02*
X387957D01*
X399712D02*
X406325D01*
X415876D02*
X425060D01*
X432040D02*
X443061D01*
X443428D02*
X547391D01*
X552534D02*
X563922D01*
X570902D02*
X580086D01*
X589270D02*
X596618D01*
X607638D02*
X612781D01*
X626006D02*
X628210D01*
X384283Y414835D02*
X387222D01*
X400447D02*
X406325D01*
X416611D02*
X423958D01*
X432775D02*
X442326D01*
X443061D02*
X546656D01*
X553269D02*
X563555D01*
X571637D02*
X579719D01*
X589270D02*
X595883D01*
X608373D02*
X612047D01*
X627108D02*
X627843D01*
X384283Y414467D02*
X387222D01*
X400447D02*
X406325D01*
X416611D02*
X423958D01*
X432775D02*
X442326D01*
X443061D02*
X546656D01*
X553269D02*
X563555D01*
X571637D02*
X579719D01*
X589270D02*
X595883D01*
X608373D02*
X612047D01*
X627108D02*
X627843D01*
X384651Y414100D02*
X386855D01*
X400815D02*
X405223D01*
X416978D02*
X423591D01*
X433142D02*
X441959D01*
X442694D02*
X546289D01*
X549595D02*
X550698D01*
X553636D02*
X562820D01*
X571637D02*
X578984D01*
X590372D02*
X595515D01*
X608740D02*
X611679D01*
X385385Y413733D02*
X386120D01*
X401549D02*
X404488D01*
X417713D02*
X423591D01*
X428367D02*
X429101D01*
X433877D02*
X441224D01*
X442326D02*
X545554D01*
X548861D02*
X551065D01*
X554371D02*
X562453D01*
X566861D02*
X567229D01*
X572739D02*
X578617D01*
X590372D02*
X594781D01*
X609475D02*
X610945D01*
X385385Y413365D02*
X386120D01*
X401549D02*
X404488D01*
X417713D02*
X423591D01*
X428367D02*
X429101D01*
X433877D02*
X441224D01*
X441959D02*
X545554D01*
X548861D02*
X551065D01*
X554371D02*
X562453D01*
X566861D02*
X567229D01*
X572739D02*
X578617D01*
X590372D02*
X594781D01*
X609475D02*
X610945D01*
X401549Y412998D02*
X404121D01*
X418080D02*
X422489D01*
X428367D02*
X429469D01*
X434244D02*
X440857D01*
X441959D02*
X545187D01*
X547759D02*
X551432D01*
X554738D02*
X561718D01*
X566127D02*
X567963D01*
X573106D02*
X578250D01*
X591474D02*
X594781D01*
X609842D02*
X610577D01*
X401917Y412631D02*
X403753D01*
X411101D02*
X411835D01*
X418080D02*
X422121D01*
X427999D02*
X430203D01*
X434979D02*
X440489D01*
X441591D02*
X544452D01*
X547759D02*
X552167D01*
X555473D02*
X561351D01*
X565759D02*
X568331D01*
X573841D02*
X577515D01*
X584127D02*
X584495D01*
X592209D02*
X593679D01*
X401917Y412263D02*
X403753D01*
X411101D02*
X411835D01*
X418080D02*
X422121D01*
X427999D02*
X430203D01*
X434979D02*
X440489D01*
X441224D02*
X544452D01*
X547759D02*
X552167D01*
X555473D02*
X561351D01*
X565759D02*
X568331D01*
X573841D02*
X577515D01*
X584127D02*
X584495D01*
X592209D02*
X593679D01*
X402651Y411896D02*
X403019D01*
X410733D02*
X412203D01*
X419183D02*
X421387D01*
X426897D02*
X430571D01*
X435346D02*
X439755D01*
X441224D02*
X544085D01*
X546656D02*
X552167D01*
X555840D02*
X560616D01*
X565024D02*
X569066D01*
X574208D02*
X577147D01*
X583392D02*
X585229D01*
X592576D02*
X593311D01*
X393835Y411529D02*
X394569D01*
X410733D02*
X413305D01*
X419183D02*
X421019D01*
X426897D02*
X431305D01*
X436081D02*
X439387D01*
X440857D02*
X543350D01*
X546289D02*
X552534D01*
X556575D02*
X560249D01*
X564657D02*
X569433D01*
X574943D02*
X576413D01*
X583025D02*
X585597D01*
X601393D02*
X601760D01*
X393835Y411161D02*
X394569D01*
X410733D02*
X413305D01*
X419183D02*
X421019D01*
X426897D02*
X431305D01*
X436081D02*
X439387D01*
X440489D02*
X543350D01*
X546289D02*
X552534D01*
X556575D02*
X560249D01*
X564657D02*
X569433D01*
X574943D02*
X576413D01*
X583025D02*
X585597D01*
X601393D02*
X601760D01*
X393467Y410794D02*
X394937D01*
X409999D02*
X413305D01*
X419917D02*
X420285D01*
X426162D02*
X432040D01*
X436448D02*
X438653D01*
X440122D02*
X542983D01*
X546289D02*
X553269D01*
X556943D02*
X559882D01*
X563922D02*
X569800D01*
X575311D02*
X576045D01*
X582290D02*
X586331D01*
X600658D02*
X602495D01*
X392733Y410426D02*
X395304D01*
X409631D02*
X413672D01*
X425795D02*
X432040D01*
X437183D02*
X438285D01*
X440122D02*
X539309D01*
X539677D02*
X542983D01*
X545554D02*
X554371D01*
X557677D02*
X559147D01*
X563555D02*
X570535D01*
X581923D02*
X586699D01*
X600291D02*
X602863D01*
X392733Y410059D02*
X395304D01*
X409631D02*
X413672D01*
X425795D02*
X432040D01*
X437183D02*
X438285D01*
X439755D02*
X539309D01*
X539677D02*
X542983D01*
X545554D02*
X554371D01*
X557677D02*
X559147D01*
X563555D02*
X570535D01*
X581923D02*
X586699D01*
X600291D02*
X602863D01*
X376569Y409692D02*
X377671D01*
X392365D02*
X396039D01*
X408529D02*
X414774D01*
X425060D02*
X432775D01*
X437183D02*
X437551D01*
X439387D02*
X538575D01*
X540411D02*
X541881D01*
X544452D02*
X554371D01*
X558045D02*
X558779D01*
X562820D02*
X570902D01*
X581188D02*
X587434D01*
X599556D02*
X603597D01*
X618659D02*
X619761D01*
X376201Y409324D02*
X378038D01*
X392365D02*
X397141D01*
X408529D02*
X415509D01*
X424693D02*
X433877D01*
X439387D02*
X538575D01*
X540779D02*
X541513D01*
X544085D02*
X554738D01*
X562453D02*
X571637D01*
X580821D02*
X587801D01*
X599189D02*
X603965D01*
X617924D02*
X619761D01*
X376201Y408957D02*
X378038D01*
X392365D02*
X397141D01*
X408529D02*
X415509D01*
X424693D02*
X433877D01*
X439020D02*
X538575D01*
X540779D02*
X541513D01*
X544085D02*
X554738D01*
X562453D02*
X571637D01*
X580821D02*
X587801D01*
X599189D02*
X603965D01*
X617924D02*
X619761D01*
X375467Y408590D02*
X378773D01*
X391631D02*
X397508D01*
X407427D02*
X415876D01*
X423958D02*
X434244D01*
X438653D02*
X538575D01*
X543350D02*
X555473D01*
X561718D02*
X572004D01*
X580086D02*
X588168D01*
X598454D02*
X604699D01*
X616822D02*
X620129D01*
X359303Y408222D02*
X359670D01*
X375099D02*
X379140D01*
X391263D02*
X398243D01*
X407427D02*
X416611D01*
X423591D02*
X434979D01*
X438285D02*
X539677D01*
X542983D02*
X555840D01*
X561351D02*
X572739D01*
X579719D02*
X588903D01*
X598087D02*
X605067D01*
X616822D02*
X620863D01*
X359303Y407855D02*
X359670D01*
X375099D02*
X379140D01*
X391263D02*
X398243D01*
X407427D02*
X416611D01*
X423591D02*
X434979D01*
X438285D02*
X539677D01*
X542983D02*
X555840D01*
X561351D02*
X572739D01*
X579719D02*
X588903D01*
X598087D02*
X605067D01*
X616822D02*
X620863D01*
X358935Y407488D02*
X360772D01*
X374365D02*
X379875D01*
X390528D02*
X398610D01*
X406325D02*
X416978D01*
X422856D02*
X435346D01*
X437918D02*
X540411D01*
X542248D02*
X556575D01*
X560616D02*
X572739D01*
X578984D02*
X589270D01*
X597352D02*
X605802D01*
X615720D02*
X621231D01*
X635190D02*
X637027D01*
X359303Y407120D02*
X360405D01*
X375099D02*
X379140D01*
X391263D02*
X398243D01*
X407427D02*
X416611D01*
X423591D02*
X434979D01*
X437551D02*
X539309D01*
X542983D02*
X555840D01*
X561351D02*
X572739D01*
X579719D02*
X588903D01*
X598087D02*
X605067D01*
X616822D02*
X620863D01*
X375467Y406753D02*
X378773D01*
X391263D02*
X397508D01*
X407794D02*
X415876D01*
X423958D02*
X434244D01*
X437551D02*
X539309D01*
X543350D02*
X555473D01*
X561718D02*
X572004D01*
X580086D02*
X588168D01*
X598454D02*
X604699D01*
X617557D02*
X620129D01*
X375467Y406385D02*
X378773D01*
X391263D02*
X397508D01*
X407794D02*
X415876D01*
X423958D02*
X434244D01*
X437183D02*
X539309D01*
X543350D02*
X555473D01*
X561718D02*
X572004D01*
X580086D02*
X588168D01*
X598454D02*
X604699D01*
X617557D02*
X620129D01*
X376201Y406018D02*
X378038D01*
X391631D02*
X396406D01*
X407794D02*
X415509D01*
X424693D02*
X433877D01*
X436816D02*
X538575D01*
X540779D02*
X541513D01*
X544085D02*
X554738D01*
X562453D02*
X571637D01*
X580821D02*
X587801D01*
X599189D02*
X603965D01*
X617924D02*
X619761D01*
X376569Y405651D02*
X377671D01*
X392365D02*
X396406D01*
X408529D02*
X414774D01*
X424693D02*
X433142D01*
X436448D02*
X538207D01*
X540411D02*
X541881D01*
X545187D02*
X554371D01*
X562820D02*
X570535D01*
X581188D02*
X587434D01*
X599556D02*
X602863D01*
X618659D02*
X619026D01*
X376569Y405283D02*
X377671D01*
X392365D02*
X396406D01*
X408529D02*
X414774D01*
X424693D02*
X433142D01*
X436448D02*
X538207D01*
X540411D02*
X541881D01*
X545187D02*
X554371D01*
X562820D02*
X570535D01*
X581188D02*
X587434D01*
X599556D02*
X602863D01*
X618659D02*
X619026D01*
X392733Y404916D02*
X396039D01*
X408896D02*
X414407D01*
X425060D02*
X432775D01*
X436081D02*
X537472D01*
X539677D02*
X542248D01*
X545554D02*
X553636D01*
X558045D02*
X559147D01*
X563555D02*
X570535D01*
X581923D02*
X586699D01*
X600658D02*
X602495D01*
X393467Y404549D02*
X395304D01*
X409631D02*
X413672D01*
X419917D02*
X421019D01*
X425795D02*
X432040D01*
X435714D02*
X536370D01*
X539309D02*
X542983D01*
X546289D02*
X553269D01*
X557677D02*
X559882D01*
X563922D02*
X569800D01*
X582290D02*
X586331D01*
X601393D02*
X602495D01*
X393467Y404181D02*
X395304D01*
X409631D02*
X413672D01*
X419917D02*
X421019D01*
X425795D02*
X432040D01*
X435714D02*
X536370D01*
X539309D02*
X542983D01*
X546289D02*
X553269D01*
X557677D02*
X559882D01*
X563922D02*
X569800D01*
X582290D02*
X586331D01*
X601393D02*
X602495D01*
X393835Y403814D02*
X394937D01*
X409999D02*
X413305D01*
X419183D02*
X421387D01*
X426162D02*
X431673D01*
X435346D02*
X536370D01*
X538575D02*
X543350D01*
X546656D02*
X552534D01*
X556943D02*
X560249D01*
X564657D02*
X569433D01*
X575311D02*
X576413D01*
X583025D02*
X585597D01*
X402651Y403447D02*
X403753D01*
X410733D02*
X412937D01*
X418815D02*
X422121D01*
X426897D02*
X431305D01*
X434979D02*
X536003D01*
X538207D02*
X544085D01*
X547391D02*
X552167D01*
X556575D02*
X560249D01*
X565024D02*
X569066D01*
X574943D02*
X577147D01*
X583392D02*
X585229D01*
X592576D02*
X593311D01*
X402651Y403079D02*
X403753D01*
X410733D02*
X412937D01*
X418815D02*
X422121D01*
X426897D02*
X431305D01*
X434979D02*
X536003D01*
X538207D02*
X544085D01*
X547391D02*
X552167D01*
X556575D02*
X560249D01*
X565024D02*
X569066D01*
X574943D02*
X577147D01*
X583392D02*
X585229D01*
X592576D02*
X593311D01*
X401917Y402712D02*
X404121D01*
X411101D02*
X412203D01*
X418080D02*
X422489D01*
X427264D02*
X430571D01*
X434612D02*
X535268D01*
X537472D02*
X544452D01*
X547759D02*
X551432D01*
X555840D02*
X560616D01*
X566127D02*
X568331D01*
X574208D02*
X577515D01*
X584127D02*
X584495D01*
X592209D02*
X593679D01*
X385385Y402345D02*
X386120D01*
X401549D02*
X404488D01*
X417713D02*
X422856D01*
X427999D02*
X430203D01*
X433877D02*
X534901D01*
X537105D02*
X545187D01*
X548493D02*
X551432D01*
X554738D02*
X561351D01*
X566861D02*
X567963D01*
X573106D02*
X577515D01*
X591474D02*
X594413D01*
X385385Y401977D02*
X386120D01*
X401549D02*
X404488D01*
X417713D02*
X422856D01*
X427999D02*
X430203D01*
X433877D02*
X534901D01*
X537105D02*
X545187D01*
X548493D02*
X551432D01*
X554738D02*
X561351D01*
X566861D02*
X567963D01*
X573106D02*
X577515D01*
X591474D02*
X594413D01*
X384651Y401610D02*
X386855D01*
X400815D02*
X405223D01*
X416978D02*
X423591D01*
X428367D02*
X429101D01*
X433142D02*
X534166D01*
X536370D02*
X545554D01*
X548861D02*
X550698D01*
X554371D02*
X561718D01*
X573106D02*
X578250D01*
X591474D02*
X594781D01*
X609842D02*
X610577D01*
X384283Y401242D02*
X387222D01*
X400447D02*
X405590D01*
X416611D02*
X423958D01*
X432775D02*
X533799D01*
X536003D02*
X546289D01*
X549595D02*
X549963D01*
X553636D02*
X562453D01*
X572004D02*
X578984D01*
X591107D02*
X594781D01*
X609475D02*
X610945D01*
X384283Y400875D02*
X387222D01*
X400447D02*
X405590D01*
X416611D02*
X423958D01*
X432775D02*
X533799D01*
X536003D02*
X546289D01*
X549595D02*
X549963D01*
X553636D02*
X562453D01*
X572004D02*
X578984D01*
X591107D02*
X594781D01*
X609475D02*
X610945D01*
X368119Y400508D02*
X368854D01*
X383549D02*
X387957D01*
X399712D02*
X406325D01*
X415876D02*
X424693D01*
X432775D02*
X533064D01*
X535268D02*
X546289D01*
X553269D02*
X562820D01*
X571637D02*
X578984D01*
X590372D02*
X595515D01*
X608740D02*
X611679D01*
X367385Y400140D02*
X369589D01*
X383181D02*
X388324D01*
X399345D02*
X406692D01*
X415509D02*
X425060D01*
X432040D02*
X532329D01*
X534901D02*
X547391D01*
X553269D02*
X563555D01*
X570902D02*
X579719D01*
X589270D02*
X596618D01*
X608373D02*
X612047D01*
X627108D02*
X627843D01*
X367385Y399773D02*
X369589D01*
X383181D02*
X388324D01*
X399345D02*
X406692D01*
X415509D02*
X425060D01*
X432040D02*
X532329D01*
X534901D02*
X547391D01*
X553269D02*
X563555D01*
X570902D02*
X579719D01*
X589270D02*
X596618D01*
X608373D02*
X612047D01*
X627108D02*
X627843D01*
X367017Y399406D02*
X369956D01*
X382447D02*
X389059D01*
X398610D02*
X407427D01*
X414774D02*
X425795D01*
X431305D02*
X531595D01*
X534166D02*
X547759D01*
X552167D02*
X563922D01*
X570535D02*
X580086D01*
X588903D02*
X596618D01*
X607638D02*
X612781D01*
X626741D02*
X628210D01*
X366283Y399038D02*
X371058D01*
X382079D02*
X389426D01*
X398243D02*
X407794D01*
X414407D02*
X426897D01*
X430571D02*
X531595D01*
X533799D02*
X547759D01*
X551432D02*
X564657D01*
X569800D02*
X580821D01*
X588168D02*
X596985D01*
X607271D02*
X613149D01*
X626006D02*
X628945D01*
X366283Y398671D02*
X371058D01*
X382079D02*
X389426D01*
X398243D02*
X407794D01*
X414407D02*
X426897D01*
X430571D02*
X531595D01*
X533799D02*
X547759D01*
X551432D02*
X564657D01*
X569800D02*
X580821D01*
X588168D02*
X596985D01*
X607271D02*
X613149D01*
X626006D02*
X628945D01*
X367017Y398304D02*
X370691D01*
X382447D02*
X389059D01*
X398610D02*
X407427D01*
X414774D02*
X425795D01*
X431305D02*
X531227D01*
X534166D02*
X547759D01*
X552167D02*
X563922D01*
X570535D02*
X580086D01*
X589270D02*
X596618D01*
X607638D02*
X612781D01*
X626741D02*
X628210D01*
X367017Y397936D02*
X369589D01*
X383181D02*
X388324D01*
X399345D02*
X407427D01*
X415509D02*
X425795D01*
X431305D02*
X530493D01*
X534901D02*
X546656D01*
X553269D02*
X563555D01*
X570902D02*
X579719D01*
X589270D02*
X595883D01*
X608373D02*
X612047D01*
X627108D02*
X627843D01*
X367385Y397569D02*
X368854D01*
X383549D02*
X387957D01*
X399712D02*
X406692D01*
X415876D02*
X425060D01*
X430938D02*
X530125D01*
X532329D02*
X533064D01*
X535268D02*
X546289D01*
X553636D02*
X562820D01*
X572004D02*
X578984D01*
X590372D02*
X595515D01*
X608740D02*
X611679D01*
X367385Y397201D02*
X368854D01*
X383549D02*
X387957D01*
X399712D02*
X406692D01*
X415876D02*
X425060D01*
X430571D02*
X530125D01*
X532329D02*
X533064D01*
X535268D02*
X546289D01*
X553636D02*
X562820D01*
X572004D02*
X578984D01*
X590372D02*
X595515D01*
X608740D02*
X611679D01*
X368119Y396834D02*
X368854D01*
X384283D02*
X387222D01*
X400447D02*
X406325D01*
X416611D02*
X423958D01*
X430203D02*
X529391D01*
X531595D02*
X533799D01*
X536003D02*
X545554D01*
X549595D02*
X549963D01*
X554371D02*
X562453D01*
X572739D02*
X578617D01*
X591107D02*
X594781D01*
X609842D02*
X610945D01*
X384651Y396467D02*
X386855D01*
X400447D02*
X405223D01*
X416978D02*
X423591D01*
X428367D02*
X429469D01*
X430203D02*
X529391D01*
X531227D02*
X533799D01*
X536370D02*
X545554D01*
X548861D02*
X550698D01*
X554738D02*
X561718D01*
X572739D02*
X578250D01*
X591474D02*
X594413D01*
X384651Y396099D02*
X386855D01*
X400447D02*
X405223D01*
X416978D02*
X423591D01*
X428367D02*
X429469D01*
X429836D02*
X529391D01*
X531227D02*
X533799D01*
X536370D02*
X545554D01*
X548861D02*
X550698D01*
X554738D02*
X561718D01*
X572739D02*
X578250D01*
X591474D02*
X594413D01*
X385385Y395732D02*
X386120D01*
X401549D02*
X404488D01*
X417713D02*
X422856D01*
X427999D02*
X529023D01*
X530493D02*
X534901D01*
X537105D02*
X545187D01*
X548493D02*
X551065D01*
X555473D02*
X561351D01*
X566861D02*
X567229D01*
X573841D02*
X577515D01*
X592209D02*
X593679D01*
X401549Y395365D02*
X404121D01*
X411101D02*
X412203D01*
X418080D02*
X422489D01*
X427264D02*
X528288D01*
X530125D02*
X534901D01*
X537472D02*
X544452D01*
X547759D02*
X551432D01*
X555840D02*
X560616D01*
X566127D02*
X567963D01*
X574208D02*
X577147D01*
X592576D02*
X593311D01*
X401549Y394997D02*
X404121D01*
X411101D02*
X412203D01*
X418080D02*
X422489D01*
X427264D02*
X528288D01*
X530125D02*
X534901D01*
X537472D02*
X544452D01*
X547759D02*
X551432D01*
X555840D02*
X560616D01*
X566127D02*
X567963D01*
X574208D02*
X577147D01*
X592576D02*
X593311D01*
X393835Y394630D02*
X394569D01*
X401917D02*
X403753D01*
X410733D02*
X412937D01*
X418815D02*
X422121D01*
X426897D02*
X528288D01*
X529391D02*
X535268D01*
X538575D02*
X543350D01*
X547391D02*
X552167D01*
X556575D02*
X560249D01*
X565759D02*
X568331D01*
X574943D02*
X576413D01*
X584127D02*
X584495D01*
X429836Y394263D02*
X525350D01*
X429836Y393895D02*
X524248D01*
X524615D02*
X524982D01*
X429836Y393528D02*
X524248D01*
D39*
X510375Y416475D02*
X518698Y410647D01*
X506266Y413150D02*
X516824Y405757D01*
X511623Y409399D02*
X518698Y410647D01*
X510375Y416475D02*
X511623Y409399D01*
X478625Y416475D02*
X486948Y410647D01*
X474516Y413150D02*
X485075Y405757D01*
X479873Y409399D02*
X486948Y410647D01*
X478625Y416475D02*
X479873Y409399D01*
X449415Y416475D02*
X457738Y410647D01*
X445306Y413150D02*
X455865Y405757D01*
X450663Y409399D02*
X457738Y410647D01*
X449415Y416475D02*
X450663Y409399D01*
M02*
