G04 Layer_Color=255*
%FSLAX44Y44*%
%MOMM*%
G71*
G01*
G75*
%ADD10R,1.0000X0.9000*%
G04:AMPARAMS|DCode=11|XSize=0.8mm|YSize=1.2mm|CornerRadius=0mm|HoleSize=0mm|Usage=FLASHONLY|Rotation=235.000|XOffset=0mm|YOffset=0mm|HoleType=Round|Shape=Rectangle|*
%AMROTATEDRECTD11*
4,1,4,-0.2621,0.6718,0.7209,-0.0165,0.2621,-0.6718,-0.7209,0.0165,-0.2621,0.6718,0.0*
%
%ADD11ROTATEDRECTD11*%

%ADD12R,0.9000X1.0000*%
%ADD13R,0.9500X1.0000*%
%ADD14R,2.1500X3.2500*%
%ADD15R,2.1500X0.9500*%
%ADD16R,1.9000X1.8000*%
%ADD17R,1.8000X1.7000*%
%ADD18R,2.0000X2.0000*%
%ADD19R,2.5001X0.8001*%
%ADD20R,1.4001X0.7000*%
%ADD21R,1.4001X1.9500*%
%ADD22R,1.4001X1.2799*%
%ADD23R,2.0000X1.4001*%
%ADD25C,1.1000*%
%ADD26C,1.2002*%
%ADD27O,3.5560X1.7780*%
%ADD28C,1.1001*%
%ADD29C,0.8001*%
%ADD30C,1.2499*%
D10*
X516890Y435230D02*
D03*
Y451230D02*
D03*
X496570Y435230D02*
D03*
Y451230D02*
D03*
X477520Y435230D02*
D03*
Y451230D02*
D03*
D11*
X517451Y417722D02*
D03*
X508709Y405238D02*
D03*
X485701Y417722D02*
D03*
X476959Y405238D02*
D03*
X456491Y417722D02*
D03*
X447749Y405238D02*
D03*
D12*
X433960Y458470D02*
D03*
X449960D02*
D03*
Y438150D02*
D03*
X433960D02*
D03*
D13*
X449960Y478790D02*
D03*
X433960D02*
D03*
X381380Y506730D02*
D03*
X365380D02*
D03*
D14*
X404920Y458470D02*
D03*
D15*
X346920Y435470D02*
D03*
Y458470D02*
D03*
Y481470D02*
D03*
D16*
X440690Y500380D02*
D03*
X490690D02*
D03*
X465690D02*
D03*
D17*
X413690Y548880D02*
D03*
X517690D02*
D03*
D18*
X341630Y408940D02*
D03*
X316230D02*
D03*
X290830D02*
D03*
D19*
X269519Y494139D02*
D03*
Y473601D02*
D03*
Y519379D02*
D03*
Y448869D02*
D03*
D20*
X544271Y418882D02*
D03*
Y429880D02*
D03*
Y440881D02*
D03*
Y451881D02*
D03*
Y462882D02*
D03*
Y473880D02*
D03*
Y484881D02*
D03*
Y495882D02*
D03*
Y506880D02*
D03*
D21*
X552971Y555130D02*
D03*
D22*
Y405280D02*
D03*
D23*
X648970Y405882D02*
D03*
Y563880D02*
D03*
D25*
X440690Y535880D02*
D03*
X490690D02*
D03*
D26*
X318531Y446080D02*
D03*
Y471480D02*
D03*
Y496880D02*
D03*
Y522280D02*
D03*
D27*
X241320Y542371D02*
D03*
Y425369D02*
D03*
D28*
X242019Y506369D02*
D03*
Y461371D02*
D03*
D29*
X245321Y425369D02*
D03*
X249319D02*
D03*
X237320D02*
D03*
X233319D02*
D03*
X245321Y542371D02*
D03*
X249319D02*
D03*
X237320D02*
D03*
X233319D02*
D03*
D30*
X652971Y435882D02*
D03*
Y515882D02*
D03*
M02*
