M48
;Layer_Color=9474304
;FILE_FORMAT=4:4
METRIC,LZ
;TYPE=PLATED
T1F00S00C0.3000
T2F00S00C0.8001
T3F00S00C1.1000
T4F00S00C1.1001
T5F00S00C1.2499
%
T01
X00400304Y00421386
X00431292Y00412496
X00419862Y00454152
X00460756Y0045593
X00454914Y00468376
X00465836Y00480822
X00490982Y00475742
X00485902Y00470408
X00524764Y0047388
X005207Y00508
X00504698Y00521716
X00457454Y00525526
X0045212Y00513588
X0044069Y00518882
X00432396Y00528408
X00404876Y00515874
X00410718Y0050673
X0040492Y00493914
X00466832Y00550398
X00531368Y00551434
X00536702Y00558546
X00558292Y00520192
X00392938Y00508
X00391414Y00540512
X00394268Y00552704
X00389636Y00468376
X00377444Y0047879
X00364744Y0045847
X0036068Y0044958
X00366268Y00421386
X00357378Y0041148
X0032893Y00422656
X0031496Y0043053
X00332486Y00442722
X0032893Y0047371
X00337312Y00472694
X00342646Y00490474
X00343547Y00508901
X00302514Y00519684
X00288036Y0055118
X00291193Y00480314
X00250444Y00477012
X00220726Y00484886
X00284988Y0043434
X00385572Y00435102
T02
X00233319Y00425369
X0023732
X0024132
X00245321
X00249319
X00318531Y0044608
Y0047148
Y0049688
Y0052228
X00249319Y00542371
X00245321
X0024132
X0023732
X00233319
T03
X0044069Y0053588
X0049069
T04
X00242019Y00461371
Y00506369
T05
X00652971Y00435882
Y00515882
M30
