G04 Layer_Color=16711935*
%FSLAX44Y44*%
%MOMM*%
G71*
G01*
G75*
%ADD47R,2.2032X2.2032*%
%ADD53C,1.4531*%
%ADD54C,1.0033*%
%ADD55C,1.3033*%
%ADD56O,3.7592X1.9812*%
%ADD57C,1.4034*%
%ADD58C,1.3032*%
%ADD59C,0.7032*%
G04:AMPARAMS|DCode=60|XSize=0.6032mm|YSize=2.2032mm|CornerRadius=0mm|HoleSize=0mm|Usage=FLASHONLY|Rotation=225.000|XOffset=0mm|YOffset=0mm|HoleType=Round|Shape=Rectangle|*
%AMROTATEDRECTD60*
4,1,4,-0.5657,0.9922,0.9922,-0.5657,0.5657,-0.9922,-0.9922,0.5657,-0.5657,0.9922,0.0*
%
%ADD60ROTATEDRECTD60*%

G04:AMPARAMS|DCode=61|XSize=1.1532mm|YSize=1.2032mm|CornerRadius=0mm|HoleSize=0mm|Usage=FLASHONLY|Rotation=135.000|XOffset=0mm|YOffset=0mm|HoleType=Round|Shape=Rectangle|*
%AMROTATEDRECTD61*
4,1,4,0.8331,0.0177,-0.0177,-0.8331,-0.8331,-0.0177,0.0177,0.8331,0.8331,0.0177,0.0*
%
%ADD61ROTATEDRECTD61*%

G04:AMPARAMS|DCode=62|XSize=0.7112mm|YSize=1.6764mm|CornerRadius=0mm|HoleSize=0mm|Usage=FLASHONLY|Rotation=225.000|XOffset=0mm|YOffset=0mm|HoleType=Round|Shape=Rectangle|*
%AMROTATEDRECTD62*
4,1,4,-0.3412,0.8441,0.8441,-0.3412,0.3412,-0.8441,-0.8441,0.3412,-0.3412,0.8441,0.0*
%
%ADD62ROTATEDRECTD62*%

G04:AMPARAMS|DCode=63|XSize=0.7112mm|YSize=1.6764mm|CornerRadius=0mm|HoleSize=0mm|Usage=FLASHONLY|Rotation=135.000|XOffset=0mm|YOffset=0mm|HoleType=Round|Shape=Rectangle|*
%AMROTATEDRECTD63*
4,1,4,0.8441,0.3412,-0.3412,-0.8441,-0.8441,-0.3412,0.3412,0.8441,0.8441,0.3412,0.0*
%
%ADD63ROTATEDRECTD63*%

G04:AMPARAMS|DCode=64|XSize=1.1532mm|YSize=1.2032mm|CornerRadius=0mm|HoleSize=0mm|Usage=FLASHONLY|Rotation=45.000|XOffset=0mm|YOffset=0mm|HoleType=Round|Shape=Rectangle|*
%AMROTATEDRECTD64*
4,1,4,0.0177,-0.8331,-0.8331,0.0177,-0.0177,0.8331,0.8331,-0.0177,0.0177,-0.8331,0.0*
%
%ADD64ROTATEDRECTD64*%

%ADD65R,2.6432X1.3332*%
G36*
X679222Y465493D02*
X679277Y465465D01*
X679305Y465438D01*
X679361Y465354D01*
X679416Y465271D01*
Y465188D01*
Y465160D01*
Y458553D01*
X679389Y458386D01*
X679305Y458247D01*
X679222Y458164D01*
X679194Y458136D01*
X679028Y458053D01*
X678889Y457970D01*
X678778Y457942D01*
X678722Y457914D01*
X678528Y457858D01*
X678334Y457831D01*
X678223Y457803D01*
X678167D01*
X678000Y457775D01*
X677640D01*
X677529Y457803D01*
X677473Y457831D01*
X677445D01*
X677390Y457914D01*
X677362Y457997D01*
Y458080D01*
Y458108D01*
Y464743D01*
X677390Y464882D01*
X677473Y465021D01*
X677529Y465077D01*
X677556Y465104D01*
X677723Y465215D01*
X677889Y465299D01*
X678000Y465326D01*
X678028Y465354D01*
X678223Y465410D01*
X678417Y465438D01*
X678528Y465465D01*
X678584D01*
X678750Y465493D01*
X678889Y465521D01*
X679111D01*
X679222Y465493D01*
D02*
G37*
G36*
X671587Y476931D02*
X671615Y476903D01*
X671671Y476792D01*
Y476681D01*
Y476598D01*
X671643Y476542D01*
X671310Y475571D01*
X671032Y474627D01*
X670810Y473766D01*
X670699Y473350D01*
X670616Y472961D01*
X670532Y472628D01*
X670477Y472295D01*
X670421Y472017D01*
X670366Y471795D01*
X670338Y471601D01*
X670310Y471462D01*
X670283Y471379D01*
Y471351D01*
X670116Y470379D01*
X670005Y469435D01*
X669922Y468575D01*
X669894Y468158D01*
X669866Y467770D01*
X669838Y467436D01*
Y467103D01*
Y466826D01*
X669811Y466604D01*
Y466409D01*
Y466270D01*
Y466187D01*
Y466159D01*
X669838Y465188D01*
X669894Y464272D01*
X669949Y463411D01*
X670005Y463022D01*
X670061Y462661D01*
X670088Y462328D01*
X670144Y462051D01*
X670172Y461773D01*
X670199Y461551D01*
X670227Y461384D01*
X670255Y461245D01*
X670283Y461162D01*
Y461134D01*
X670477Y460246D01*
X670671Y459385D01*
X670893Y458580D01*
X671004Y458219D01*
X671115Y457886D01*
X671227Y457581D01*
X671310Y457303D01*
X671393Y457053D01*
X671476Y456831D01*
X671532Y456665D01*
X671587Y456554D01*
X671615Y456470D01*
Y456443D01*
X671671Y456248D01*
Y456137D01*
Y456054D01*
X671643Y456026D01*
X671587Y455971D01*
X671476Y455943D01*
X671282Y455860D01*
X671115Y455804D01*
X671060Y455776D01*
X671032D01*
X670810Y455748D01*
X670532D01*
X670421Y455776D01*
X670310Y455832D01*
X670283Y455860D01*
X670255Y455887D01*
X669894Y456748D01*
X669588Y457581D01*
X669311Y458414D01*
X669089Y459136D01*
X668978Y459469D01*
X668895Y459774D01*
X668839Y460052D01*
X668783Y460274D01*
X668728Y460468D01*
X668700Y460607D01*
X668672Y460690D01*
Y460718D01*
X668478Y461690D01*
X668339Y462634D01*
X668256Y463550D01*
X668228Y463966D01*
X668200Y464355D01*
X668173Y464716D01*
X668145Y465049D01*
Y465326D01*
X668117Y465576D01*
Y465771D01*
Y465937D01*
Y466021D01*
Y466048D01*
Y466548D01*
X668145Y467048D01*
X668173Y467492D01*
X668200Y467908D01*
X668228Y468242D01*
X668256Y468519D01*
X668284Y468686D01*
Y468713D01*
Y468741D01*
X668339Y469241D01*
X668395Y469713D01*
X668478Y470157D01*
X668534Y470574D01*
X668617Y470907D01*
X668645Y471157D01*
X668700Y471323D01*
Y471351D01*
Y471379D01*
X668811Y471851D01*
X668922Y472323D01*
X669033Y472739D01*
X669144Y473128D01*
X669255Y473461D01*
X669339Y473711D01*
X669366Y473877D01*
X669394Y473933D01*
X669533Y474432D01*
X669700Y474904D01*
X669838Y475321D01*
X669977Y475737D01*
X670116Y476070D01*
X670199Y476320D01*
X670255Y476487D01*
X670283Y476515D01*
Y476542D01*
X670338Y476626D01*
X670394Y476681D01*
X670449Y476737D01*
X670477D01*
X670616Y476792D01*
X670810Y476876D01*
X670977Y476903D01*
X671004Y476931D01*
X671032D01*
X671310Y476959D01*
X671476D01*
X671587Y476931D01*
D02*
G37*
G36*
X686579Y467242D02*
X686912Y467187D01*
X687051Y467159D01*
X687162Y467131D01*
X687217Y467103D01*
X687245D01*
X687634Y466937D01*
X687967Y466742D01*
X688078Y466659D01*
X688161Y466576D01*
X688217Y466548D01*
X688245Y466520D01*
X688411Y466354D01*
X688550Y466187D01*
X688772Y465826D01*
X688856Y465687D01*
X688911Y465549D01*
X688967Y465465D01*
Y465438D01*
X689050Y465160D01*
X689133Y464882D01*
X689189Y464577D01*
X689216Y464299D01*
X689244Y464049D01*
Y463855D01*
Y463744D01*
Y463689D01*
Y463328D01*
X689189Y462967D01*
X689161Y462661D01*
X689105Y462384D01*
X689050Y462162D01*
X689022Y461995D01*
X688967Y461884D01*
Y461856D01*
X688818Y461503D01*
X689022Y460829D01*
X689133Y460385D01*
X689216Y459996D01*
X689300Y459663D01*
X689355Y459413D01*
X689411Y459247D01*
Y459219D01*
Y459191D01*
X689522Y458691D01*
X689605Y458247D01*
X689688Y457803D01*
X689744Y457387D01*
X689799Y457053D01*
X689827Y456804D01*
X689855Y456637D01*
Y456609D01*
Y456581D01*
X689911Y456082D01*
X689966Y455610D01*
X689994Y455165D01*
Y454749D01*
X690022Y454416D01*
Y454138D01*
Y453972D01*
Y453944D01*
Y453916D01*
Y453416D01*
X689994Y452944D01*
X689966Y452500D01*
Y452084D01*
X689951Y451910D01*
X689966Y451917D01*
X690049Y451945D01*
X690133D01*
X690216Y451917D01*
X690299Y451890D01*
X690327Y451834D01*
X690355Y451806D01*
X690410Y451695D01*
X690466Y451556D01*
X690493Y451445D01*
Y451390D01*
X690521Y451168D01*
X690549Y450946D01*
Y450779D01*
Y450724D01*
Y450696D01*
Y450418D01*
Y450196D01*
X690521Y450057D01*
Y450002D01*
X690493Y449807D01*
X690466Y449669D01*
X690438Y449557D01*
Y449530D01*
X690382Y449419D01*
X690355Y449335D01*
X690327Y449280D01*
X690299Y449252D01*
X690188Y449141D01*
X690160Y449113D01*
X690133D01*
X689466Y448685D01*
Y448669D01*
Y448641D01*
X689355Y448169D01*
X689244Y447697D01*
X689133Y447253D01*
X689022Y446865D01*
X688911Y446559D01*
X688856Y446309D01*
X688800Y446143D01*
X688772Y446115D01*
Y446087D01*
X688633Y445615D01*
X688467Y445171D01*
X688328Y444755D01*
X688189Y444394D01*
X688050Y444061D01*
X687967Y443839D01*
X687912Y443672D01*
X687884Y443644D01*
Y443616D01*
X687828Y443533D01*
X687801Y443505D01*
X687773D01*
X687662Y443450D01*
X687634Y443422D01*
X687606D01*
X687467Y443367D01*
X687412D01*
X687329Y443339D01*
X686940D01*
X686829Y443367D01*
X686746Y443394D01*
X686718D01*
X686551Y443450D01*
X686524Y443478D01*
X686496D01*
X686440Y443589D01*
Y443616D01*
Y443644D01*
X686468Y443727D01*
X686496Y443811D01*
X686524Y443866D01*
Y443894D01*
X686829Y444810D01*
X687106Y445699D01*
X687329Y446531D01*
X687440Y446920D01*
X687523Y447309D01*
X687581Y447541D01*
X687329Y447392D01*
X687079Y447253D01*
X686829Y447114D01*
X686635Y447003D01*
X686440Y446920D01*
X686301Y446865D01*
X686190Y446809D01*
X686135Y446754D01*
X686107D01*
X685385Y446420D01*
X684691Y446143D01*
X684080Y445893D01*
X683497Y445671D01*
X683025Y445504D01*
X682831Y445449D01*
X682664Y445393D01*
X682526Y445338D01*
X682442Y445310D01*
X682387Y445282D01*
X682359D01*
X681693Y445088D01*
X681054Y444949D01*
X680471Y444810D01*
X679972Y444699D01*
X679527Y444644D01*
X679361Y444588D01*
X679194D01*
X679083Y444560D01*
X679000Y444533D01*
X678917D01*
X678306Y444449D01*
X677723Y444394D01*
X677195Y444366D01*
X676723Y444338D01*
X676335Y444310D01*
X675141D01*
X674530Y444338D01*
X673975Y444394D01*
X673475Y444449D01*
X673087Y444477D01*
X672920Y444505D01*
X672781Y444533D01*
X672670D01*
X672587Y444560D01*
X672504D01*
X671948Y444671D01*
X671393Y444782D01*
X670921Y444893D01*
X670477Y444977D01*
X670116Y445088D01*
X669838Y445171D01*
X669727Y445199D01*
X669644D01*
X669616Y445227D01*
X669588D01*
X669477Y445254D01*
X669450Y445282D01*
X669366Y445421D01*
X669339Y445476D01*
Y445504D01*
X669311Y445643D01*
X669283Y445754D01*
X669255Y445865D01*
Y445893D01*
X669228Y446087D01*
Y446254D01*
Y446393D01*
Y446448D01*
Y446754D01*
X669255Y447003D01*
X669283Y447142D01*
Y447198D01*
X669339Y447392D01*
X669394Y447503D01*
X669422Y447586D01*
X669450Y447614D01*
X669533Y447697D01*
X669588Y447725D01*
X669644Y447753D01*
X670005D01*
X670421Y447670D01*
X670782Y447586D01*
X670949Y447559D01*
X671060Y447531D01*
X671143Y447503D01*
X671171D01*
X671615Y447448D01*
X671837Y447420D01*
X672032Y447392D01*
X672198D01*
X672309Y447364D01*
X672420D01*
X672892Y447337D01*
X673087Y447309D01*
X673281D01*
X673447Y447281D01*
X673670D01*
X674114Y447253D01*
X674863D01*
X676029Y447281D01*
X676585Y447337D01*
X677084Y447364D01*
X677529Y447420D01*
X677723D01*
X677862Y447448D01*
X678000D01*
X678084Y447475D01*
X678167D01*
X678833Y447586D01*
X679500Y447697D01*
X680138Y447836D01*
X680693Y447975D01*
X681193Y448086D01*
X681387Y448142D01*
X681554Y448197D01*
X681693Y448225D01*
X681804Y448253D01*
X681859Y448280D01*
X681887D01*
X682609Y448503D01*
X683303Y448725D01*
X683969Y448974D01*
X684580Y449197D01*
X684858Y449308D01*
X685080Y449391D01*
X685302Y449474D01*
X685496Y449557D01*
X685635Y449613D01*
X685746Y449669D01*
X685802Y449696D01*
X685829D01*
X686579Y450057D01*
X687301Y450418D01*
X687995Y450779D01*
X688147Y450862D01*
X688217Y451584D01*
X688245Y452001D01*
X688272Y452361D01*
X688300Y452722D01*
Y453028D01*
X688328Y453305D01*
Y453527D01*
Y453722D01*
Y453861D01*
Y453944D01*
Y453972D01*
X688300Y454916D01*
X688245Y455832D01*
X688189Y456692D01*
X688134Y457081D01*
X688106Y457442D01*
X688050Y457775D01*
X687995Y458080D01*
X687967Y458358D01*
X687939Y458580D01*
X687912Y458775D01*
X687884Y458913D01*
X687856Y458997D01*
Y459025D01*
X687686Y459851D01*
X687662Y459830D01*
X687523Y459719D01*
X687412Y459635D01*
X687356Y459580D01*
X687329Y459552D01*
X686912Y459302D01*
X686551Y459080D01*
X686385Y459025D01*
X686274Y458969D01*
X686190Y458913D01*
X686163D01*
X685718Y458775D01*
X685496Y458719D01*
X685330Y458691D01*
X685163Y458636D01*
X685052D01*
X684969Y458608D01*
X684941D01*
X684497Y458553D01*
X684303D01*
X684136Y458525D01*
X683803D01*
X683386Y458553D01*
X683053Y458608D01*
X682887D01*
X682776Y458636D01*
X682720Y458663D01*
X682692D01*
X682331Y458830D01*
X681998Y458997D01*
X681887Y459080D01*
X681804Y459163D01*
X681748Y459191D01*
X681721Y459219D01*
X681415Y459580D01*
X681193Y459941D01*
X681110Y460079D01*
X681054Y460218D01*
X680999Y460302D01*
Y460329D01*
X680916Y460607D01*
X680860Y460912D01*
X680805Y461190D01*
X680777Y461468D01*
Y461717D01*
X680749Y461940D01*
Y462051D01*
Y462106D01*
Y462439D01*
X680777Y462772D01*
X680832Y463050D01*
X680860Y463300D01*
X680916Y463522D01*
X680943Y463661D01*
X680971Y463772D01*
Y463800D01*
X681165Y464327D01*
X681276Y464549D01*
X681360Y464743D01*
X681443Y464882D01*
X681526Y464993D01*
X681554Y465077D01*
X681582Y465104D01*
X681887Y465493D01*
X682193Y465798D01*
X682304Y465910D01*
X682415Y466021D01*
X682470Y466048D01*
X682498Y466076D01*
X682887Y466354D01*
X683248Y466576D01*
X683386Y466631D01*
X683497Y466687D01*
X683581Y466742D01*
X683608D01*
X684053Y466909D01*
X684275Y466992D01*
X684469Y467048D01*
X684636Y467076D01*
X684747Y467103D01*
X684830Y467131D01*
X684858D01*
X685358Y467214D01*
X685552Y467242D01*
X685774D01*
X685913Y467270D01*
X686163D01*
X686579Y467242D01*
D02*
G37*
G36*
Y499807D02*
X686912Y499752D01*
X687051Y499724D01*
X687162Y499696D01*
X687217Y499668D01*
X687245D01*
X687634Y499502D01*
X687967Y499307D01*
X688078Y499224D01*
X688161Y499141D01*
X688217Y499113D01*
X688245Y499085D01*
X688411Y498919D01*
X688550Y498752D01*
X688772Y498391D01*
X688856Y498252D01*
X688911Y498114D01*
X688967Y498030D01*
Y498003D01*
X689050Y497725D01*
X689133Y497447D01*
X689189Y497142D01*
X689216Y496864D01*
X689244Y496614D01*
Y496420D01*
Y496309D01*
Y496254D01*
Y495893D01*
X689189Y495532D01*
X689161Y495226D01*
X689105Y494949D01*
X689050Y494727D01*
X689022Y494560D01*
X688967Y494449D01*
Y494421D01*
X688818Y494068D01*
X689022Y493394D01*
X689133Y492950D01*
X689216Y492561D01*
X689300Y492228D01*
X689355Y491978D01*
X689411Y491812D01*
Y491784D01*
Y491756D01*
X689522Y491256D01*
X689605Y490812D01*
X689688Y490368D01*
X689744Y489952D01*
X689799Y489618D01*
X689827Y489369D01*
X689855Y489202D01*
Y489174D01*
Y489146D01*
X689911Y488647D01*
X689966Y488175D01*
X689994Y487731D01*
Y487314D01*
X690022Y486981D01*
Y486703D01*
Y486537D01*
Y486509D01*
Y486481D01*
Y485982D01*
X689994Y485510D01*
X689966Y485065D01*
Y484649D01*
X689938Y484316D01*
X689911Y484038D01*
X689883Y483872D01*
Y483844D01*
Y483816D01*
X689827Y483316D01*
X689772Y482844D01*
X689688Y482400D01*
X689633Y482012D01*
X689549Y481678D01*
X689522Y481429D01*
X689466Y481262D01*
Y481234D01*
Y481207D01*
X689355Y480736D01*
X689772Y480818D01*
X689855D01*
X689938Y480790D01*
X690049Y480707D01*
X690105Y480623D01*
X690133Y480596D01*
Y480568D01*
X690188Y480429D01*
X690216Y480262D01*
X690244Y479874D01*
X690271Y479707D01*
Y479541D01*
Y479430D01*
Y479402D01*
Y479096D01*
X690244Y478874D01*
X690216Y478708D01*
Y478680D01*
Y478652D01*
X690188Y478458D01*
X690160Y478319D01*
X690133Y478208D01*
Y478180D01*
X690077Y478069D01*
X690049Y477986D01*
X690022Y477930D01*
X689994Y477903D01*
X689938Y477847D01*
X689855Y477820D01*
X689772D01*
X688403Y477546D01*
X688328Y477320D01*
X688189Y476959D01*
X688050Y476626D01*
X687967Y476404D01*
X687912Y476237D01*
X687884Y476209D01*
Y476181D01*
X687828Y476098D01*
X687801Y476070D01*
X687773D01*
X687662Y476015D01*
X687634Y475987D01*
X687606D01*
X687467Y475932D01*
X687412D01*
X687329Y475904D01*
X686940D01*
X686829Y475932D01*
X686746Y475959D01*
X686718D01*
X686551Y476015D01*
X686524Y476043D01*
X686496D01*
X686440Y476154D01*
Y476181D01*
Y476209D01*
X686468Y476292D01*
X686496Y476376D01*
X686524Y476431D01*
Y476459D01*
X686777Y477221D01*
X682831Y476431D01*
X682637Y476404D01*
X682470D01*
X682359Y476431D01*
X682331Y476459D01*
X682276Y476515D01*
X682220Y476626D01*
X682165Y476820D01*
X682137Y476987D01*
Y477042D01*
Y477070D01*
Y477514D01*
X682109Y477930D01*
X682026Y478291D01*
X681887Y478597D01*
X681748Y478847D01*
X681582Y479013D01*
X681471Y479152D01*
X681360Y479208D01*
X681332Y479235D01*
X680999Y479402D01*
X680610Y479485D01*
X680194Y479541D01*
X679444D01*
X679166Y479485D01*
X679055D01*
X678972Y479457D01*
X678889D01*
X678334Y479319D01*
X677862Y479124D01*
X677445Y478930D01*
X677140Y478736D01*
X676890Y478541D01*
X676696Y478402D01*
X676585Y478291D01*
X676557Y478264D01*
X676307Y477930D01*
X676140Y477597D01*
X676002Y477237D01*
X675918Y476903D01*
X675863Y476626D01*
X675835Y476404D01*
Y476237D01*
Y476209D01*
Y476181D01*
X675863Y475765D01*
X675891Y475571D01*
X675918Y475404D01*
X675946Y475293D01*
X675974Y475182D01*
X676002Y475126D01*
Y475099D01*
X676140Y474766D01*
X676252Y474516D01*
X676335Y474349D01*
X676363Y474321D01*
Y474294D01*
X676501Y474072D01*
X676612Y473905D01*
X676696Y473794D01*
X676723Y473738D01*
X676834Y473600D01*
X676890Y473489D01*
X676918Y473405D01*
Y473377D01*
X676890Y473239D01*
X676862Y473211D01*
Y473183D01*
X676807Y473128D01*
X676751Y473072D01*
X676696Y473044D01*
X676668Y473017D01*
X676557Y472961D01*
X676446Y472906D01*
X676363Y472878D01*
X676307Y472850D01*
X676113Y472794D01*
X675918Y472739D01*
X675752Y472711D01*
X675696D01*
X675474Y472683D01*
X675307Y472656D01*
X675197Y472628D01*
X675169D01*
X675002Y472600D01*
X674891Y472572D01*
X674780D01*
X674613Y472600D01*
X674558Y472628D01*
X674530D01*
X674391Y472711D01*
X674364Y472767D01*
X674336D01*
X674225Y472906D01*
X674114Y473072D01*
X674031Y473211D01*
X674003Y473266D01*
X673892Y473544D01*
X673781Y473794D01*
X673753Y473905D01*
X673725Y473988D01*
X673697Y474044D01*
Y474072D01*
X673614Y474432D01*
X673531Y474738D01*
X673503Y474877D01*
Y474988D01*
X673475Y475043D01*
Y475071D01*
X673420Y475487D01*
X673392Y475821D01*
Y475959D01*
Y476070D01*
Y476126D01*
Y476154D01*
X673420Y476598D01*
X673447Y477014D01*
X673503Y477403D01*
X673559Y477736D01*
X673614Y478014D01*
X673642Y478236D01*
X673697Y478347D01*
Y478402D01*
X673836Y478791D01*
X673975Y479124D01*
X674141Y479430D01*
X674280Y479707D01*
X674419Y479957D01*
X674530Y480124D01*
X674613Y480235D01*
X674641Y480262D01*
X674919Y480568D01*
X675197Y480845D01*
X675474Y481068D01*
X675752Y481262D01*
X675974Y481429D01*
X676168Y481540D01*
X676279Y481623D01*
X676335Y481651D01*
X676723Y481845D01*
X677168Y482039D01*
X677556Y482178D01*
X677945Y482317D01*
X678306Y482400D01*
X678556Y482483D01*
X678667Y482511D01*
X678750Y482539D01*
X678806D01*
X679194Y482595D01*
X679583Y482650D01*
X679916Y482678D01*
X680805D01*
X681138Y482650D01*
X681471Y482595D01*
X681748Y482511D01*
X681998Y482456D01*
X682193Y482373D01*
X682331Y482317D01*
X682442Y482289D01*
X682470Y482261D01*
X682748Y482123D01*
X682970Y481984D01*
X683192Y481817D01*
X683386Y481651D01*
X683525Y481512D01*
X683636Y481401D01*
X683692Y481317D01*
X683719Y481290D01*
X683886Y481040D01*
X684053Y480790D01*
X684164Y480540D01*
X684247Y480290D01*
X684330Y480096D01*
X684386Y479929D01*
X684414Y479791D01*
Y479763D01*
X687641Y480398D01*
X687662Y480512D01*
X687717Y480762D01*
X687773Y480984D01*
X687801Y481179D01*
X687828Y481317D01*
X687856Y481401D01*
Y481429D01*
X688023Y482373D01*
X688134Y483289D01*
X688217Y484149D01*
X688245Y484566D01*
X688272Y484927D01*
X688300Y485288D01*
Y485593D01*
X688328Y485871D01*
Y486093D01*
Y486287D01*
Y486426D01*
Y486509D01*
Y486537D01*
X688300Y487481D01*
X688245Y488397D01*
X688189Y489258D01*
X688134Y489646D01*
X688106Y490007D01*
X688050Y490340D01*
X687995Y490646D01*
X687967Y490923D01*
X687939Y491145D01*
X687912Y491340D01*
X687884Y491479D01*
X687856Y491562D01*
Y491590D01*
X687686Y492416D01*
X687662Y492395D01*
X687523Y492284D01*
X687412Y492200D01*
X687356Y492145D01*
X687329Y492117D01*
X686912Y491867D01*
X686551Y491645D01*
X686385Y491590D01*
X686274Y491534D01*
X686190Y491479D01*
X686163D01*
X685718Y491340D01*
X685496Y491284D01*
X685330Y491256D01*
X685163Y491201D01*
X685052D01*
X684969Y491173D01*
X684941D01*
X684497Y491118D01*
X684303D01*
X684136Y491090D01*
X683803D01*
X683386Y491118D01*
X683053Y491173D01*
X682887D01*
X682776Y491201D01*
X682720Y491229D01*
X682692D01*
X682331Y491395D01*
X681998Y491562D01*
X681887Y491645D01*
X681804Y491728D01*
X681748Y491756D01*
X681721Y491784D01*
X681415Y492145D01*
X681193Y492506D01*
X681110Y492645D01*
X681054Y492783D01*
X680999Y492867D01*
Y492894D01*
X680916Y493172D01*
X680860Y493477D01*
X680805Y493755D01*
X680777Y494033D01*
Y494282D01*
X680749Y494505D01*
Y494616D01*
Y494671D01*
Y495004D01*
X680777Y495337D01*
X680832Y495615D01*
X680860Y495865D01*
X680916Y496087D01*
X680943Y496226D01*
X680971Y496337D01*
Y496365D01*
X681165Y496892D01*
X681276Y497114D01*
X681360Y497309D01*
X681443Y497447D01*
X681526Y497558D01*
X681554Y497642D01*
X681582Y497669D01*
X681887Y498058D01*
X682193Y498363D01*
X682304Y498475D01*
X682415Y498586D01*
X682470Y498613D01*
X682498Y498641D01*
X682887Y498919D01*
X683248Y499141D01*
X683386Y499196D01*
X683497Y499252D01*
X683581Y499307D01*
X683608D01*
X684053Y499474D01*
X684275Y499557D01*
X684469Y499613D01*
X684636Y499641D01*
X684747Y499668D01*
X684830Y499696D01*
X684858D01*
X685358Y499779D01*
X685552Y499807D01*
X685774D01*
X685913Y499835D01*
X686163D01*
X686579Y499807D01*
D02*
G37*
G36*
X685219Y512106D02*
X685774Y512078D01*
X686274Y512023D01*
X686690Y511967D01*
X686857Y511939D01*
X686995D01*
X687106Y511911D01*
X687217Y511884D01*
X687273D01*
X687856Y511773D01*
X688383Y511662D01*
X688883Y511550D01*
X689327Y511467D01*
X689688Y511356D01*
X689966Y511301D01*
X690049Y511245D01*
X690133D01*
X690160Y511217D01*
X690188D01*
X690299Y511162D01*
X690327Y511134D01*
Y511106D01*
X690382Y511051D01*
X690410Y510995D01*
X690438Y510940D01*
Y510912D01*
X690466Y510801D01*
X690493Y510690D01*
X690521Y510579D01*
Y510551D01*
X690549Y510384D01*
Y510190D01*
Y510051D01*
Y510024D01*
Y509996D01*
Y509663D01*
X690521Y509413D01*
X690493Y509274D01*
Y509218D01*
X690438Y509052D01*
X690410Y508941D01*
X690382Y508858D01*
X690355Y508830D01*
X690271Y508747D01*
X690188Y508691D01*
X690133Y508663D01*
X689883D01*
X689799Y508691D01*
X689772D01*
X689383Y508774D01*
X688994Y508830D01*
X688856Y508858D01*
X688744Y508885D01*
X688633D01*
X688189Y508969D01*
X687967Y508996D01*
X687773Y509024D01*
X687606D01*
X687467Y509052D01*
X687356D01*
X686884Y509108D01*
X686662Y509135D01*
X686468D01*
X686329Y509163D01*
X686079D01*
X685635Y509191D01*
X685413Y509218D01*
X684885D01*
X683719Y509163D01*
X683164Y509135D01*
X682664Y509080D01*
X682220Y509024D01*
X682054Y508996D01*
X681887D01*
X681748Y508969D01*
X681665Y508941D01*
X681582D01*
X680916Y508830D01*
X680249Y508719D01*
X679638Y508580D01*
X679055Y508441D01*
X678584Y508330D01*
X678361Y508275D01*
X678195Y508219D01*
X678056Y508191D01*
X677945Y508164D01*
X677889Y508136D01*
X677862D01*
X677140Y507914D01*
X676446Y507692D01*
X675779Y507469D01*
X675197Y507220D01*
X674919Y507136D01*
X674669Y507025D01*
X674475Y506942D01*
X674280Y506859D01*
X674141Y506803D01*
X674031Y506748D01*
X673975Y506720D01*
X673947D01*
X673198Y506387D01*
X672476Y506026D01*
X671809Y505665D01*
X671199Y505332D01*
X670921Y505165D01*
X670671Y505026D01*
X670449Y504888D01*
X670283Y504804D01*
X670116Y504693D01*
X670005Y504638D01*
X669949Y504610D01*
X669922Y504582D01*
X669811Y504527D01*
X669727Y504499D01*
X669644D01*
X669561Y504527D01*
X669477Y504582D01*
X669450Y504610D01*
X669422Y504638D01*
X669366Y504749D01*
X669311Y504888D01*
X669283Y504999D01*
Y505026D01*
X669255Y505248D01*
X669228Y505471D01*
Y505582D01*
Y505665D01*
Y505720D01*
Y505748D01*
Y506026D01*
X669255Y506248D01*
Y506359D01*
Y506414D01*
X669283Y506609D01*
X669311Y506748D01*
X669339Y506831D01*
Y506859D01*
X669394Y506970D01*
X669422Y507053D01*
X669477Y507109D01*
Y507136D01*
X669616Y507275D01*
X669644Y507331D01*
X669672D01*
X670421Y507830D01*
X671171Y508275D01*
X671837Y508663D01*
X672420Y508996D01*
X672698Y509135D01*
X672920Y509274D01*
X673142Y509385D01*
X673309Y509468D01*
X673447Y509552D01*
X673559Y509607D01*
X673614Y509635D01*
X673642D01*
X674364Y509968D01*
X675058Y510274D01*
X675696Y510523D01*
X676252Y510745D01*
X676723Y510912D01*
X676918Y510967D01*
X677084Y511023D01*
X677223Y511079D01*
X677306Y511106D01*
X677362Y511134D01*
X677390D01*
X678056Y511328D01*
X678695Y511495D01*
X679277Y511634D01*
X679777Y511745D01*
X680221Y511800D01*
X680388Y511856D01*
X680555D01*
X680666Y511884D01*
X680749Y511911D01*
X680832D01*
X681443Y511995D01*
X682026Y512050D01*
X682553Y512106D01*
X683025Y512133D01*
X683414Y512161D01*
X684608D01*
X685219Y512106D01*
D02*
G37*
G36*
X679222Y498058D02*
X679277Y498030D01*
X679305Y498003D01*
X679361Y497919D01*
X679416Y497836D01*
Y497753D01*
Y497725D01*
Y491118D01*
X679389Y490951D01*
X679305Y490812D01*
X679222Y490729D01*
X679194Y490701D01*
X679028Y490618D01*
X678889Y490535D01*
X678778Y490507D01*
X678722Y490479D01*
X678528Y490424D01*
X678334Y490396D01*
X678223Y490368D01*
X678167D01*
X678000Y490340D01*
X677640D01*
X677529Y490368D01*
X677473Y490396D01*
X677445D01*
X677390Y490479D01*
X677362Y490562D01*
Y490646D01*
Y490673D01*
Y497309D01*
X677390Y497447D01*
X677473Y497586D01*
X677529Y497642D01*
X677556Y497669D01*
X677723Y497780D01*
X677889Y497864D01*
X678000Y497892D01*
X678028Y497919D01*
X678223Y497975D01*
X678417Y498003D01*
X678528Y498030D01*
X678584D01*
X678750Y498058D01*
X678889Y498086D01*
X679111D01*
X679222Y498058D01*
D02*
G37*
%LPC*%
G36*
X686107Y464549D02*
X685718D01*
X685524Y464521D01*
X685358Y464494D01*
X685302D01*
X685052Y464466D01*
X684830Y464410D01*
X684663Y464383D01*
X684636Y464355D01*
X684608D01*
X684358Y464272D01*
X684136Y464188D01*
X683969Y464133D01*
X683942Y464105D01*
X683914D01*
X683692Y463966D01*
X683497Y463827D01*
X683359Y463744D01*
X683303Y463689D01*
X683137Y463522D01*
X682998Y463355D01*
X682914Y463217D01*
X682887Y463189D01*
Y463161D01*
X682803Y462911D01*
X682776Y462661D01*
X682748Y462578D01*
Y462495D01*
Y462439D01*
Y462411D01*
X682776Y462189D01*
X682803Y461995D01*
X682831Y461884D01*
Y461828D01*
X682914Y461690D01*
X683025Y461579D01*
X683081Y461495D01*
X683109Y461468D01*
X683248Y461384D01*
X683359Y461329D01*
X683470Y461273D01*
X683497D01*
X683692Y461245D01*
X684219D01*
X684386Y461273D01*
X684580D01*
X684830Y461301D01*
X685052Y461329D01*
X685219Y461384D01*
X685274D01*
X685524Y461468D01*
X685746Y461551D01*
X685913Y461606D01*
X685940Y461634D01*
X685968D01*
X686218Y461773D01*
X686412Y461884D01*
X686551Y461995D01*
X686607Y462023D01*
X686801Y462217D01*
X686940Y462384D01*
X687011Y462503D01*
X686912Y462800D01*
X686801Y463106D01*
X686718Y463355D01*
X686635Y463577D01*
X686579Y463744D01*
X686524Y463883D01*
X686496Y463966D01*
Y463994D01*
X686440Y464133D01*
Y464188D01*
X686496Y464327D01*
X686524Y464355D01*
X686621Y464394D01*
X686579Y464410D01*
X686496Y464466D01*
X686440D01*
X686274Y464521D01*
X686107Y464549D01*
D02*
G37*
G36*
Y497114D02*
X685718D01*
X685524Y497086D01*
X685358Y497059D01*
X685302D01*
X685052Y497031D01*
X684830Y496975D01*
X684663Y496948D01*
X684636Y496920D01*
X684608D01*
X684358Y496837D01*
X684136Y496753D01*
X683969Y496698D01*
X683942Y496670D01*
X683914D01*
X683692Y496531D01*
X683497Y496392D01*
X683359Y496309D01*
X683303Y496254D01*
X683137Y496087D01*
X682998Y495920D01*
X682914Y495782D01*
X682887Y495754D01*
Y495726D01*
X682803Y495476D01*
X682776Y495226D01*
X682748Y495143D01*
Y495060D01*
Y495004D01*
Y494977D01*
X682776Y494754D01*
X682803Y494560D01*
X682831Y494449D01*
Y494394D01*
X682914Y494255D01*
X683025Y494144D01*
X683081Y494060D01*
X683109Y494033D01*
X683248Y493949D01*
X683359Y493894D01*
X683470Y493838D01*
X683497D01*
X683692Y493811D01*
X684219D01*
X684386Y493838D01*
X684580D01*
X684830Y493866D01*
X685052Y493894D01*
X685219Y493949D01*
X685274D01*
X685524Y494033D01*
X685746Y494116D01*
X685913Y494171D01*
X685940Y494199D01*
X685968D01*
X686218Y494338D01*
X686412Y494449D01*
X686551Y494560D01*
X686607Y494588D01*
X686801Y494782D01*
X686940Y494949D01*
X687011Y495068D01*
X686912Y495365D01*
X686801Y495671D01*
X686718Y495920D01*
X686635Y496143D01*
X686579Y496309D01*
X686524Y496448D01*
X686496Y496531D01*
Y496559D01*
X686440Y496698D01*
Y496753D01*
X686496Y496892D01*
X686524Y496920D01*
X686621Y496959D01*
X686579Y496975D01*
X686496Y497031D01*
X686440D01*
X686274Y497086D01*
X686107Y497114D01*
D02*
G37*
%LPD*%
D47*
X290830Y408940D02*
D03*
X316230D02*
D03*
X341630D02*
D03*
D53*
X652971Y515882D02*
D03*
Y435882D02*
D03*
D54*
X233319Y542371D02*
D03*
X237320D02*
D03*
X249319D02*
D03*
X245321D02*
D03*
X233319Y425369D02*
D03*
X237320D02*
D03*
X249319D02*
D03*
X245321D02*
D03*
D55*
X242019Y461371D02*
D03*
Y506369D02*
D03*
D56*
X241320Y425369D02*
D03*
Y542371D02*
D03*
D57*
X318531Y522280D02*
D03*
Y496880D02*
D03*
Y471480D02*
D03*
Y446080D02*
D03*
D58*
X490690Y535880D02*
D03*
X440690D02*
D03*
D59*
X533146Y549656D02*
D03*
X518668Y560832D02*
D03*
X402413Y405238D02*
D03*
X292354Y529082D02*
D03*
X399796Y510794D02*
D03*
X444880Y468924D02*
D03*
X609331Y495300D02*
D03*
X593852Y505353D02*
D03*
X319532Y545846D02*
D03*
X433324Y523494D02*
D03*
X458216D02*
D03*
X522478Y426466D02*
D03*
X276098Y421894D02*
D03*
X350901Y493903D02*
D03*
X377698Y429006D02*
D03*
X428244D02*
D03*
X346920Y447040D02*
D03*
X399796Y484378D02*
D03*
X337566Y470154D02*
D03*
X314072Y456820D02*
D03*
X420878Y504190D02*
D03*
X427228Y519938D02*
D03*
X459556Y486349D02*
D03*
X431800Y487934D02*
D03*
X383540Y490474D02*
D03*
X419608Y439674D02*
D03*
X296418Y429260D02*
D03*
X409702Y522732D02*
D03*
X421894Y532638D02*
D03*
X458684Y462954D02*
D03*
X458470Y454938D02*
D03*
X513080Y528320D02*
D03*
X470662Y479298D02*
D03*
X470408Y512826D02*
D03*
X398673Y502813D02*
D03*
X559506Y481444D02*
D03*
D60*
X375515Y548235D02*
D03*
X367030Y539750D02*
D03*
X358545Y531265D02*
D03*
D61*
X487427Y426027D02*
D03*
X498741Y414713D02*
D03*
D62*
X448003Y416351D02*
D03*
X453570Y421919D02*
D03*
X459318Y427666D02*
D03*
X464885Y433234D02*
D03*
X470633Y438982D02*
D03*
X476201Y444549D02*
D03*
X481768Y450117D02*
D03*
X487516Y455864D02*
D03*
X493084Y461432D02*
D03*
X498831Y467180D02*
D03*
X504399Y472747D02*
D03*
X423217Y553929D02*
D03*
X417650Y548361D02*
D03*
X411902Y542614D02*
D03*
X406334Y537046D02*
D03*
X400587Y531298D02*
D03*
X395019Y525731D02*
D03*
X389452Y520163D02*
D03*
X383704Y514416D02*
D03*
X378136Y508848D02*
D03*
X372389Y503100D02*
D03*
X366821Y497533D02*
D03*
D63*
X504399D02*
D03*
X498831Y503100D02*
D03*
X493084Y508848D02*
D03*
X487516Y514416D02*
D03*
X481768Y520163D02*
D03*
X476201Y525731D02*
D03*
X470633Y531298D02*
D03*
X464885Y537046D02*
D03*
X459318Y542614D02*
D03*
X453570Y548361D02*
D03*
X448003Y553929D02*
D03*
X366821Y472747D02*
D03*
X372389Y467180D02*
D03*
X378136Y461432D02*
D03*
X383704Y455864D02*
D03*
X389452Y450117D02*
D03*
X395019Y444549D02*
D03*
X400587Y438982D02*
D03*
X406334Y433234D02*
D03*
X411902Y427666D02*
D03*
X417650Y421919D02*
D03*
X423217Y416351D02*
D03*
D64*
X356293Y427578D02*
D03*
X367607Y438891D02*
D03*
X386657Y422217D02*
D03*
X375343Y410903D02*
D03*
D65*
X538660Y520700D02*
D03*
Y495300D02*
D03*
Y469900D02*
D03*
Y444500D02*
D03*
X624660D02*
D03*
Y469900D02*
D03*
Y520700D02*
D03*
Y495300D02*
D03*
M02*
