M48
;Layer_Color=9474304
;FILE_FORMAT=4:4
METRIC,LZ
;TYPE=PLATED
T1F00S00C0.3000
T2F00S00C0.8001
T3F00S00C1.1000
T4F00S00C1.1001
T5F00S00C1.2499
%
T01
X0042291Y0040513
X0043434Y0040005
X0043561Y0041656
X004318Y0043571
X0044958Y0043307
X00420962Y0044577
X0042164Y0046863
X00411902Y0048133
X0041275Y005207
X0041656Y0052959
X0039855Y0051031
X0045339Y0052705
X0045466Y0048387
X0046101Y004699
X0047244Y0047244
X0048514Y0048387
X0049276Y00492432
X0051308Y0047879
X00520054Y00468202
X0051562Y0046228
X0051181Y0044831
X00509403Y0042545
X00490895
X0049746Y0041148
X0053975Y00405882
X0057023Y004064
X0058293Y00420603
X0059182Y00426243
X00561555Y00454875
X0048641Y0055499
X0038608Y0047498
X00367607Y00451436
X00378136Y004318
X0039116Y0040767
X0035814Y004064
X0033528Y0042164
X00329679Y00428558
X0030861Y0042545
X0029337Y0047498
X0026797Y00484084
X0024638Y00484881
X003302Y0048006
X00291984Y0054356
T02
X00233319Y00425369
X0023732
X0024132
X00245321
X00249319
X00318531Y0044608
Y0047148
Y0049688
Y0052228
X00249319Y00542371
X00245321
X0024132
X0023732
X00233319
T03
X0043855Y0054096
X0048855
T04
X00242019Y00461371
Y00506369
T05
X00652971Y00435882
Y00515882
M30
