G04 Layer_Color=32896*
%FSLAX44Y44*%
%MOMM*%
G71*
G01*
G75*
%ADD66C,0.2000*%
%ADD67C,0.1000*%
%ADD68C,0.0000*%
%ADD69C,0.0254*%
%ADD70C,0.1524*%
G36*
X435992Y408733D02*
X436018Y408270D01*
X436043Y407909D01*
X436056Y407587D01*
Y407355D01*
X436043Y407188D01*
Y407085D01*
Y407059D01*
X436365Y407304D01*
X436687Y407523D01*
X437009Y407716D01*
X437293Y407896D01*
X437537Y408038D01*
X437640Y408089D01*
X437743Y408141D01*
X437808Y408179D01*
X437859Y408205D01*
X437898Y408218D01*
X437911Y408231D01*
X438490Y407085D01*
X438091Y406892D01*
X437717Y406724D01*
X437370Y406583D01*
X437074Y406467D01*
X436829Y406377D01*
X436636Y406312D01*
X436558Y406286D01*
X436507Y406261D01*
X436481D01*
X436468Y406248D01*
X436829Y405965D01*
X437164Y405707D01*
X437447Y405449D01*
X437692Y405256D01*
X437872Y405102D01*
X438027Y404973D01*
X438065Y404934D01*
X438104Y404896D01*
X438117Y404883D01*
X438130Y404870D01*
X437254Y403994D01*
X437164Y404084D01*
X437061Y404187D01*
X436855Y404419D01*
X436623Y404702D01*
X436404Y404973D01*
X436185Y405218D01*
X436095Y405334D01*
X436018Y405437D01*
X435940Y405514D01*
X435902Y405578D01*
X435863Y405617D01*
X435850Y405630D01*
X435760Y405359D01*
X435644Y405037D01*
X435515Y404702D01*
X435374Y404380D01*
X435245Y404097D01*
X435181Y403956D01*
X435142Y403840D01*
X435090Y403762D01*
X435065Y403685D01*
X435052Y403647D01*
X435039Y403634D01*
X433906Y404226D01*
X434292Y404896D01*
X434485Y405192D01*
X434665Y405475D01*
X434820Y405707D01*
X434871Y405810D01*
X434936Y405900D01*
X434975Y405965D01*
X435013Y406003D01*
X435026Y406042D01*
X435039Y406055D01*
X434923Y406042D01*
X434781Y406055D01*
X434459Y406068D01*
X434112Y406080D01*
X433751Y406106D01*
X433416Y406132D01*
X433146Y406171D01*
X433030Y406183D01*
X432953D01*
X432914Y406196D01*
X432888D01*
X433094Y407407D01*
X433403Y407355D01*
X433751Y407291D01*
X434099Y407201D01*
X434434Y407123D01*
X434717Y407046D01*
X434949Y406969D01*
X435052Y406943D01*
X435116Y406930D01*
X435155Y406917D01*
X435168Y406904D01*
X435052Y407355D01*
X434962Y407780D01*
X434884Y408141D01*
X434807Y408450D01*
X434768Y408694D01*
X434743Y408875D01*
X434730Y408991D01*
X434717Y409029D01*
X435940Y409248D01*
X435992Y408733D01*
D02*
G37*
D66*
X611000Y440490D02*
G03*
X611000Y440490I-3000J0D01*
G01*
X604420Y451920D02*
X610770Y446840D01*
X604420Y451920D02*
X610770D01*
X604420Y446840D02*
X610770D01*
X592000Y515787D02*
Y525613D01*
X590000Y515700D02*
Y525700D01*
X588000Y515700D02*
Y525700D01*
X586000Y515700D02*
Y525700D01*
X592000Y439587D02*
Y449413D01*
X590000Y439500D02*
Y449500D01*
X588000Y439500D02*
Y449500D01*
X586000Y439500D02*
Y449500D01*
X592000Y464987D02*
Y474813D01*
X590000Y464900D02*
Y474900D01*
X588000Y464900D02*
Y474900D01*
X586000Y464900D02*
Y474900D01*
X592000Y490387D02*
Y500213D01*
X590000Y490300D02*
Y500300D01*
X588000Y490300D02*
Y500300D01*
X586000Y490300D02*
Y500300D01*
X550700Y424450D02*
Y435350D01*
Y453650D02*
Y460750D01*
Y479050D02*
Y486150D01*
Y504450D02*
Y511550D01*
X617701Y529850D02*
Y540750D01*
Y504450D02*
Y511550D01*
Y479050D02*
Y486150D01*
Y453650D02*
Y460750D01*
X607701Y540750D02*
X617701Y530750D01*
X566101Y514850D02*
Y526550D01*
X602300Y514850D02*
Y526550D01*
X592593Y516700D02*
Y524700D01*
X585001Y525700D02*
X591592D01*
X584000Y516700D02*
Y524700D01*
X585001Y515700D02*
X591592D01*
X576800Y525950D02*
X591600D01*
X575800Y516450D02*
Y524950D01*
X576800Y515450D02*
X591600D01*
X592598Y516637D02*
X592600Y516700D01*
X592593Y516575D02*
X592598Y516637D01*
X592593Y524825D02*
X592598Y524762D01*
X592600Y524700D01*
Y516700D02*
Y524700D01*
X562651Y514850D02*
X605750D01*
X562651D02*
Y526550D01*
X605750D01*
Y514850D02*
Y526550D01*
X566101Y489450D02*
Y501150D01*
X602300Y489450D02*
Y501150D01*
X592593Y491300D02*
Y499300D01*
X585001Y500300D02*
X591592D01*
X584000Y491300D02*
Y499300D01*
X585001Y490300D02*
X591592D01*
X576800Y500550D02*
X591600D01*
X575800Y491050D02*
Y499550D01*
X576800Y490050D02*
X591600D01*
X592598Y491237D02*
X592600Y491300D01*
X592593Y491175D02*
X592598Y491237D01*
X592593Y499425D02*
X592598Y499362D01*
X592600Y499300D01*
Y491300D02*
Y499300D01*
X562651Y489450D02*
X605750D01*
X562651D02*
Y501150D01*
X605750D01*
Y489450D02*
Y501150D01*
X566101Y464050D02*
Y475750D01*
X602300Y464050D02*
Y475750D01*
X592593Y465900D02*
Y473900D01*
X585001Y474900D02*
X591592D01*
X584000Y465900D02*
Y473900D01*
X585001Y464900D02*
X591592D01*
X576800Y475150D02*
X591600D01*
X575800Y465650D02*
Y474150D01*
X576800Y464650D02*
X591600D01*
X592598Y465838D02*
X592600Y465900D01*
X592593Y465775D02*
X592598Y465838D01*
X592593Y474025D02*
X592598Y473963D01*
X592600Y473900D01*
Y465900D02*
Y473900D01*
X562651Y464050D02*
X605750D01*
X562651D02*
Y475750D01*
X605750D01*
Y464050D02*
Y475750D01*
X566101Y438650D02*
Y450350D01*
X602300Y438650D02*
Y450350D01*
X592593Y440500D02*
Y448500D01*
X585001Y449500D02*
X591592D01*
X584000Y440500D02*
Y448500D01*
X585001Y439500D02*
X591592D01*
X576800Y449750D02*
X591600D01*
X575800Y440250D02*
Y448750D01*
X576800Y439250D02*
X591600D01*
X592598Y440438D02*
X592600Y440500D01*
X592593Y440375D02*
X592598Y440438D01*
X592593Y448625D02*
X592598Y448563D01*
X592600Y448500D01*
Y440500D02*
Y448500D01*
X562651Y438650D02*
X602300D01*
X562651D02*
Y450350D01*
X602300D01*
X550700Y434450D02*
X560700Y424450D01*
X550700D02*
X617701D01*
X550700Y529850D02*
Y540750D01*
X617701D01*
Y424450D02*
Y435350D01*
X573044Y430600D02*
X573520Y431552D01*
X574948Y432980D01*
X564950D01*
D67*
X584000Y516700D02*
G03*
X585000Y515700I1000J0D01*
G01*
Y525700D02*
G03*
X584000Y524700I0J-1000D01*
G01*
X592593D02*
G03*
X591593Y525700I-1000J0D01*
G01*
Y515700D02*
G03*
X592593Y516700I0J1000D01*
G01*
X576800Y525950D02*
G03*
X575800Y524950I0J-1000D01*
G01*
Y516450D02*
G03*
X576800Y515450I1000J0D01*
G01*
X591600D02*
G03*
X592593Y516575I0J1000D01*
G01*
Y524825D02*
G03*
X591600Y525950I-992J125D01*
G01*
X584000Y491300D02*
G03*
X585000Y490300I1000J0D01*
G01*
Y500300D02*
G03*
X584000Y499300I0J-1000D01*
G01*
X592593D02*
G03*
X591593Y500300I-1000J0D01*
G01*
Y490300D02*
G03*
X592593Y491300I0J1000D01*
G01*
X576800Y500550D02*
G03*
X575800Y499550I0J-1000D01*
G01*
Y491050D02*
G03*
X576800Y490050I1000J0D01*
G01*
X591600D02*
G03*
X592593Y491175I0J1000D01*
G01*
Y499425D02*
G03*
X591600Y500550I-992J125D01*
G01*
X584000Y465900D02*
G03*
X585000Y464900I1000J0D01*
G01*
Y474900D02*
G03*
X584000Y473900I0J-1000D01*
G01*
X592593D02*
G03*
X591593Y474900I-1000J0D01*
G01*
Y464900D02*
G03*
X592593Y465900I0J1000D01*
G01*
X576800Y475150D02*
G03*
X575800Y474150I0J-1000D01*
G01*
Y465650D02*
G03*
X576800Y464650I1000J0D01*
G01*
X591600D02*
G03*
X592593Y465775I0J1000D01*
G01*
Y474025D02*
G03*
X591600Y475150I-992J125D01*
G01*
X584000Y440500D02*
G03*
X585000Y439500I1000J0D01*
G01*
Y449500D02*
G03*
X584000Y448500I0J-1000D01*
G01*
X592593D02*
G03*
X591593Y449500I-1000J0D01*
G01*
Y439500D02*
G03*
X592593Y440500I0J1000D01*
G01*
X576800Y449750D02*
G03*
X575800Y448750I0J-1000D01*
G01*
Y440250D02*
G03*
X576800Y439250I1000J0D01*
G01*
X591600D02*
G03*
X592593Y440375I0J1000D01*
G01*
Y448625D02*
G03*
X591600Y449750I-992J125D01*
G01*
D68*
X387392Y544700D02*
G03*
X387392Y544700I-1270J0D01*
G01*
D69*
X273812Y435773D02*
X279146D01*
X272034Y436027D02*
X280924D01*
X270764Y436281D02*
X281940D01*
X269748Y436535D02*
X282956D01*
X268986Y436789D02*
X283718D01*
X268224Y437043D02*
X284480D01*
X267462Y437297D02*
X285242D01*
X266954Y437551D02*
X285750D01*
X266446Y437805D02*
X286258D01*
X265938Y438059D02*
X287020D01*
X265430Y438313D02*
X287528D01*
X264922Y438567D02*
X287782D01*
X264414Y438821D02*
X288290D01*
X264160Y439075D02*
X288798D01*
X263652Y439329D02*
X289052D01*
X263144Y439583D02*
X289560D01*
X262890Y439837D02*
X289814D01*
X262636Y440091D02*
X290322D01*
X262128Y440345D02*
X290576D01*
X261874Y440599D02*
X290830D01*
X261620Y440853D02*
X291338D01*
X261112Y441107D02*
X291592D01*
X260858Y441361D02*
X291846D01*
X260604Y441615D02*
X292100D01*
X260350Y441869D02*
X292354D01*
X260096Y442123D02*
X292608D01*
X259842Y442377D02*
X292862D01*
X259588Y442631D02*
X293116D01*
X259334Y442885D02*
X293370D01*
X278638Y443139D02*
X293624D01*
X259080D02*
X274320D01*
X278892Y443393D02*
X293878D01*
X258826D02*
X273812D01*
X279146Y443647D02*
X294132D01*
X258572D02*
X273558D01*
X279146Y443901D02*
X294386D01*
X258318D02*
X273558D01*
X279146Y444155D02*
X294640D01*
X258064D02*
X273558D01*
X279146Y444409D02*
X294894D01*
X258064D02*
X273558D01*
X279146Y444663D02*
X294894D01*
X257810D02*
X273812D01*
X278892Y444917D02*
X295148D01*
X257556D02*
X274066D01*
X257302Y445171D02*
X295402D01*
X257302Y445425D02*
X295656D01*
X257048Y445679D02*
X295656D01*
X256794Y445933D02*
X295910D01*
X256794Y446187D02*
X296164D01*
X256540Y446441D02*
X296164D01*
X256286Y446695D02*
X296418D01*
X256286Y446949D02*
X296672D01*
X282448Y447203D02*
X296672D01*
X256032D02*
X270510D01*
X282702Y447457D02*
X296926D01*
X255778D02*
X270002D01*
X282956Y447711D02*
X296926D01*
X255778D02*
X270002D01*
X282956Y447965D02*
X297180D01*
X255524D02*
X269748D01*
X282956Y448219D02*
X297180D01*
X255524D02*
X269748D01*
X282956Y448473D02*
X297434D01*
X255270D02*
X270002D01*
X282702Y448727D02*
X297434D01*
X255270D02*
X270002D01*
X282448Y448981D02*
X297688D01*
X255016D02*
X270256D01*
X255016Y449235D02*
X297688D01*
X254762Y449489D02*
X297942D01*
X254762Y449743D02*
X297942D01*
X254762Y449997D02*
X298196D01*
X254508Y450251D02*
X298196D01*
X254508Y450505D02*
X298450D01*
X254254Y450759D02*
X298450D01*
X254254Y451013D02*
X298450D01*
X288036Y451267D02*
X298704D01*
X254254D02*
X264922D01*
X288290Y451521D02*
X298704D01*
X254000D02*
X264414D01*
X288290Y451775D02*
X298704D01*
X254000D02*
X264414D01*
X288544Y452029D02*
X298958D01*
X254000D02*
X264414D01*
X288544Y452283D02*
X298958D01*
X253746D02*
X264414D01*
X288290Y452537D02*
X298958D01*
X253746D02*
X264414D01*
X288290Y452791D02*
X299212D01*
X253746D02*
X264414D01*
X288036Y453045D02*
X299212D01*
X253492D02*
X264922D01*
X253492Y453299D02*
X299212D01*
X253492Y453553D02*
X299212D01*
X253492Y453807D02*
X299466D01*
X253238Y454061D02*
X299466D01*
X253238Y454315D02*
X299466D01*
X253238Y454569D02*
X299466D01*
X253238Y454823D02*
X299466D01*
X253238Y455077D02*
X299720D01*
X282448Y455331D02*
X299720D01*
X253238D02*
X270256D01*
X282702Y455585D02*
X299720D01*
X252984D02*
X270002D01*
X282956Y455839D02*
X299720D01*
X252984D02*
X270002D01*
X282956Y456093D02*
X299720D01*
X252984D02*
X269748D01*
X282956Y456347D02*
X299720D01*
X252984D02*
X269748D01*
X282956Y456601D02*
X299720D01*
X252984D02*
X270002D01*
X282702Y456855D02*
X299974D01*
X252984D02*
X270002D01*
X282194Y457109D02*
X299974D01*
X252984D02*
X270510D01*
X252984Y457363D02*
X299974D01*
X252984Y457617D02*
X299974D01*
X252984Y457871D02*
X299974D01*
X252730Y458125D02*
X299974D01*
X278892Y458379D02*
X299974D01*
X252730D02*
X274066D01*
X279146Y458633D02*
X299974D01*
X252730D02*
X273812D01*
X279146Y458887D02*
X299974D01*
X252730D02*
X273558D01*
X279146Y459141D02*
X299974D01*
X252730D02*
X273558D01*
X279146Y459395D02*
X299974D01*
X252730D02*
X273558D01*
X279146Y459649D02*
X299974D01*
X252730D02*
X273558D01*
X278892Y459903D02*
X299974D01*
X252730D02*
X273812D01*
X278638Y460157D02*
X299974D01*
X252730D02*
X274320D01*
X252730Y460411D02*
X299974D01*
X252984Y460665D02*
X299974D01*
X252984Y460919D02*
X299974D01*
X252984Y461173D02*
X299974D01*
X282448Y461427D02*
X299974D01*
X252984D02*
X270256D01*
X282702Y461681D02*
X299720D01*
X252984D02*
X270002D01*
X282956Y461935D02*
X299720D01*
X252984D02*
X270002D01*
X282956Y462189D02*
X299720D01*
X252984D02*
X269748D01*
X282956Y462443D02*
X299720D01*
X252984D02*
X269748D01*
X282702Y462697D02*
X299720D01*
X252984D02*
X270002D01*
X282702Y462951D02*
X299720D01*
X252984D02*
X270256D01*
X282194Y463205D02*
X299720D01*
X253238D02*
X270510D01*
X253238Y463459D02*
X299720D01*
X253238Y463713D02*
X299466D01*
X253238Y463967D02*
X299466D01*
X253238Y464221D02*
X299466D01*
X253492Y464475D02*
X299466D01*
X253492Y464729D02*
X299212D01*
X253492Y464983D02*
X299212D01*
X253492Y465237D02*
X299212D01*
X288036Y465491D02*
X299212D01*
X253746D02*
X264668D01*
X288290Y465745D02*
X298958D01*
X253746D02*
X264414D01*
X288544Y465999D02*
X298958D01*
X253746D02*
X264414D01*
X288544Y466253D02*
X298958D01*
X253746D02*
X264414D01*
X288544Y466507D02*
X298958D01*
X254000D02*
X264414D01*
X288290Y466761D02*
X298704D01*
X254000D02*
X264414D01*
X288036Y467015D02*
X298704D01*
X254000D02*
X264668D01*
X254254Y467269D02*
X298704D01*
X254254Y467523D02*
X298450D01*
X254508Y467777D02*
X298450D01*
X254508Y468031D02*
X298196D01*
X254508Y468285D02*
X298196D01*
X254762Y468539D02*
X298196D01*
X254762Y468793D02*
X297942D01*
X255016Y469047D02*
X297942D01*
X282194Y469301D02*
X297688D01*
X255016D02*
X270510D01*
X282702Y469555D02*
X297688D01*
X255270D02*
X270256D01*
X282702Y469809D02*
X297434D01*
X255270D02*
X270002D01*
X282956Y470063D02*
X297434D01*
X255524D02*
X269748D01*
X282956Y470317D02*
X297180D01*
X255524D02*
X269748D01*
X282956Y470571D02*
X297180D01*
X255778D02*
X270002D01*
X282702Y470825D02*
X296926D01*
X255778D02*
X270002D01*
X282448Y471079D02*
X296926D01*
X256032D02*
X270256D01*
X256032Y471333D02*
X296672D01*
X256286Y471587D02*
X296418D01*
X256540Y471841D02*
X296418D01*
X256540Y472095D02*
X296164D01*
X256794Y472349D02*
X295910D01*
X257048Y472603D02*
X295910D01*
X257048Y472857D02*
X295656D01*
X257302Y473111D02*
X295402D01*
X279400Y473365D02*
X295402D01*
X257556D02*
X275082D01*
X279908Y473619D02*
X295148D01*
X257810D02*
X274828D01*
X280162Y473873D02*
X294894D01*
X257810D02*
X274574D01*
X280162Y474127D02*
X294640D01*
X258064D02*
X274574D01*
X280162Y474381D02*
X294386D01*
X258318D02*
X274574D01*
X280162Y474635D02*
X294386D01*
X258572D02*
X274574D01*
X279908Y474889D02*
X294132D01*
X258826D02*
X274574D01*
X279654Y475143D02*
X293878D01*
X259080D02*
X274828D01*
X259080Y475397D02*
X293624D01*
X259334Y475651D02*
X293370D01*
X259588Y475905D02*
X293116D01*
X259842Y476159D02*
X292862D01*
X260096Y476413D02*
X292608D01*
X260604Y476667D02*
X292354D01*
X260858Y476921D02*
X292100D01*
X261112Y477175D02*
X291592D01*
X261366Y477429D02*
X291338D01*
X261620Y477683D02*
X291084D01*
X262128Y477937D02*
X290830D01*
X262382Y478191D02*
X290322D01*
X262636Y478445D02*
X290068D01*
X263144Y478699D02*
X289814D01*
X263398Y478953D02*
X289306D01*
X263906Y479207D02*
X289052D01*
X264160Y479461D02*
X288544D01*
X264668Y479715D02*
X288036D01*
X265176Y479969D02*
X287528D01*
X265684Y480223D02*
X287274D01*
X266192Y480477D02*
X286512D01*
X266700Y480731D02*
X286004D01*
X267208Y480985D02*
X285496D01*
X267970Y481239D02*
X284734D01*
X268732Y481493D02*
X284226D01*
X269494Y481747D02*
X283464D01*
X270256Y482001D02*
X282448D01*
X271272Y482255D02*
X281432D01*
X272796Y482509D02*
X279908D01*
X275844Y482763D02*
X276860D01*
X296164Y485557D02*
X297180D01*
X296164Y485811D02*
X297180D01*
X295656Y486065D02*
X297180D01*
X295656Y486319D02*
X296418D01*
X295656Y486573D02*
X296418D01*
X294894Y486827D02*
X296418D01*
X294894Y487081D02*
X295910D01*
X294386Y487335D02*
X295910D01*
X294386Y487589D02*
X295910D01*
X294386Y487843D02*
X295910D01*
X293624Y488097D02*
X295910D01*
X293624Y488351D02*
X295910D01*
X293624Y488605D02*
X295910D01*
X292862Y488859D02*
X295910D01*
X292862Y489113D02*
X295910D01*
X292862Y489367D02*
X295910D01*
X292862Y489621D02*
X295910D01*
X292862Y489875D02*
X295910D01*
X292862Y490129D02*
X297180D01*
X292862Y490383D02*
X297180D01*
X292862Y490637D02*
X297180D01*
X291592Y490891D02*
X298450D01*
X291592Y491145D02*
X298450D01*
X291084Y491399D02*
X300990D01*
X290830Y491653D02*
X301244D01*
X290830Y491907D02*
X301244D01*
X290830Y492161D02*
X301752D01*
X291084Y492415D02*
X301752D01*
X290830Y492669D02*
X301752D01*
X289560Y492923D02*
X301752D01*
X289560Y493177D02*
X301752D01*
X289052Y493431D02*
X301752D01*
X289052Y493685D02*
X301752D01*
X289052Y493939D02*
X301752D01*
X297180Y494193D02*
X301752D01*
X289052D02*
X296418D01*
X297180Y494447D02*
X301752D01*
X289052D02*
X296418D01*
X297180Y494701D02*
X301752D01*
X288798D02*
X296418D01*
X297180Y494955D02*
X301244D01*
X287528D02*
X296418D01*
X297180Y495209D02*
X300990D01*
X287528D02*
X296418D01*
X297180Y495463D02*
X300736D01*
X287020D02*
X296672D01*
X287020Y495717D02*
X300482D01*
X287020Y495971D02*
X300482D01*
X296418Y496225D02*
X300482D01*
X287528D02*
X295656D01*
X285496D02*
X287020D01*
X296418Y496479D02*
X300482D01*
X287528D02*
X295656D01*
X285496D02*
X287020D01*
X296418Y496733D02*
X300482D01*
X284226D02*
X295656D01*
X284226Y496987D02*
X299974D01*
X284226Y497241D02*
X299974D01*
X283464D02*
X283718D01*
X285496Y497495D02*
X299974D01*
X284226D02*
X284988D01*
X283210D02*
X283718D01*
X285750Y497749D02*
X299212D01*
X284226D02*
X284988D01*
X282956D02*
X283718D01*
X285750Y498003D02*
X299212D01*
X284226D02*
X284988D01*
X282702D02*
X283718D01*
X292354Y498257D02*
X298450D01*
X281432D02*
X291846D01*
X292354Y498511D02*
X298450D01*
X281432D02*
X291592D01*
X292354Y498765D02*
X298450D01*
X282448D02*
X291592D01*
X280162D02*
X282194D01*
X282956Y499019D02*
X297688D01*
X280162D02*
X282194D01*
X282956Y499273D02*
X297688D01*
X280162D02*
X282194D01*
X280670Y499527D02*
X297688D01*
X278892D02*
X279654D01*
X282194Y499781D02*
X297688D01*
X278892D02*
X279654D01*
X282194Y500035D02*
X297688D01*
X278892D02*
X279654D01*
X295656Y500289D02*
X297688D01*
X293878D02*
X295148D01*
X291084D02*
X293116D01*
X282194D02*
X290322D01*
X276860D02*
X277622D01*
X295910Y500543D02*
X297688D01*
X293878D02*
X294894D01*
X291084D02*
X293116D01*
X282194D02*
X290322D01*
X276860D02*
X277622D01*
X295910Y500797D02*
X297434D01*
X293624D02*
X295148D01*
X291084D02*
X293116D01*
X281686D02*
X290322D01*
X274828D02*
X277622D01*
X281686Y501051D02*
X297180D01*
X274828D02*
X277114D01*
X259334D02*
X260096D01*
X258318D02*
X259080D01*
X281686Y501305D02*
X297180D01*
X274828D02*
X277114D01*
X258064D02*
X259842D01*
X296672Y501559D02*
X297180D01*
X289052D02*
X296418D01*
X280924D02*
X288290D01*
X274828D02*
X277114D01*
X257810D02*
X260096D01*
X289052Y501813D02*
X296418D01*
X280924D02*
X288290D01*
X257048D02*
X260096D01*
X289052Y502067D02*
X296418D01*
X280416D02*
X288290D01*
X258064D02*
X260604D01*
X256540D02*
X257810D01*
X293624Y502321D02*
X295910D01*
X287020D02*
X293116D01*
X280162D02*
X286258D01*
X256286D02*
X260604D01*
X293878Y502575D02*
X295910D01*
X287020D02*
X293116D01*
X280162D02*
X286258D01*
X256286D02*
X260858D01*
X293878Y502829D02*
X295910D01*
X287020D02*
X293116D01*
X279146D02*
X286258D01*
X276860D02*
X277876D01*
X259842D02*
X260858D01*
X257556D02*
X259588D01*
X256032D02*
X257302D01*
X276860Y503083D02*
X295148D01*
X255524D02*
X261366D01*
X287782Y503337D02*
X294894D01*
X276860D02*
X287528D01*
X255778D02*
X261620D01*
X287782Y503591D02*
X293878D01*
X276860D02*
X287020D01*
X259080D02*
X261366D01*
X255270D02*
X258826D01*
X287782Y503845D02*
X293878D01*
X276860D02*
X287020D01*
X257556D02*
X261366D01*
X255270D02*
X257302D01*
X254762D02*
X255016D01*
X289814Y504099D02*
X293878D01*
X287782D02*
X289560D01*
X276860D02*
X287020D01*
X254762D02*
X261620D01*
X292354Y504353D02*
X293878D01*
X290322D02*
X291592D01*
X282702D02*
X289560D01*
X277368D02*
X281178D01*
X254508D02*
X262128D01*
X292354Y504607D02*
X293878D01*
X290322D02*
X291592D01*
X282956D02*
X289560D01*
X277622D02*
X281178D01*
X261620D02*
X262128D01*
X259842D02*
X261366D01*
X257556D02*
X259588D01*
X255778D02*
X257302D01*
X254254D02*
X255524D01*
X292354Y504861D02*
X293878D01*
X290322D02*
X292100D01*
X288290D02*
X290068D01*
X282956D02*
X287782D01*
X277622D02*
X281178D01*
X260858D02*
X262128D01*
X259080D02*
X260604D01*
X253746D02*
X258826D01*
X288544Y505115D02*
X293878D01*
X283718D02*
X287528D01*
X277622D02*
X280416D01*
X261620D02*
X261874D01*
X254000D02*
X261366D01*
X288290Y505369D02*
X293878D01*
X283718D02*
X287782D01*
X277622D02*
X280416D01*
X258318D02*
X262382D01*
X253492D02*
X258064D01*
X291084Y505623D02*
X293370D01*
X285496D02*
X290322D01*
X283718D02*
X284988D01*
X277622D02*
X280416D01*
X261620D02*
X262636D01*
X258064D02*
X261366D01*
X257556D02*
X257810D01*
X255778D02*
X257302D01*
X253492D02*
X255524D01*
X291084Y505877D02*
X293116D01*
X286004D02*
X290322D01*
X283718D02*
X284988D01*
X277622D02*
X280416D01*
X253492D02*
X262636D01*
X291084Y506131D02*
X292862D01*
X286258D02*
X290322D01*
X283718D02*
X284988D01*
X277622D02*
X280416D01*
X253238D02*
X262636D01*
X286258Y506385D02*
X292608D01*
X283718D02*
X285496D01*
X277622D02*
X279146D01*
X261620D02*
X262636D01*
X254000D02*
X261366D01*
X252984D02*
X253746D01*
X286512Y506639D02*
X292354D01*
X283718D02*
X285750D01*
X277622D02*
X278892D01*
X260858D02*
X262636D01*
X252730D02*
X260604D01*
X289052Y506893D02*
X292354D01*
X282956D02*
X288290D01*
X277622D02*
X278638D01*
X259842D02*
X262636D01*
X258826D02*
X259588D01*
X257556D02*
X258572D01*
X252730D02*
X257302D01*
X252222D02*
X252476D01*
X289052Y507147D02*
X292354D01*
X282956D02*
X288290D01*
X277622D02*
X278384D01*
X262382D02*
X262890D01*
X260096D02*
X262128D01*
X256540D02*
X259842D01*
X252222D02*
X256286D01*
X289052Y507401D02*
X292354D01*
X282702D02*
X288290D01*
X277622D02*
X278384D01*
X256286D02*
X263398D01*
X255778D02*
X256032D01*
X254000D02*
X255524D01*
X251968D02*
X253746D01*
X282194Y507655D02*
X291846D01*
X251968D02*
X263398D01*
X282194Y507909D02*
X291846D01*
X257556D02*
X263398D01*
X255778D02*
X257302D01*
X251968D02*
X255524D01*
X286766Y508163D02*
X291846D01*
X283972D02*
X286512D01*
X281686D02*
X283718D01*
X260858D02*
X263398D01*
X252222D02*
X260604D01*
X287020Y508417D02*
X291084D01*
X284226D02*
X286258D01*
X281686D02*
X283718D01*
X260858D02*
X263398D01*
X252222D02*
X260096D01*
X287020Y508671D02*
X291084D01*
X284226D02*
X286258D01*
X281686D02*
X283718D01*
X261620D02*
X263652D01*
X261112D02*
X261366D01*
X259334D02*
X259842D01*
X257556D02*
X259080D01*
X252222D02*
X257302D01*
X280924Y508925D02*
X290576D01*
X261874D02*
X264160D01*
X261366D02*
X261620D01*
X256540D02*
X258826D01*
X251968D02*
X256286D01*
X280924Y509179D02*
X290576D01*
X263398D02*
X264160D01*
X262382D02*
X263144D01*
X261620D02*
X261874D01*
X257048D02*
X258572D01*
X254000D02*
X256032D01*
X251714D02*
X253746D01*
X280924Y509433D02*
X290322D01*
X261620D02*
X264160D01*
X257302D02*
X259080D01*
X251460D02*
X256286D01*
X280924Y509687D02*
X289814D01*
X262890D02*
X264160D01*
X252222D02*
X255524D01*
X251460D02*
X251968D01*
X280924Y509941D02*
X289814D01*
X262890D02*
X264160D01*
X252222D02*
X255524D01*
X251460D02*
X251968D01*
X285496Y510195D02*
X289814D01*
X280416D02*
X284988D01*
X261874D02*
X264160D01*
X259842D02*
X260604D01*
X258318D02*
X259080D01*
X250952D02*
X255270D01*
X285750Y510449D02*
X289052D01*
X280162D02*
X284988D01*
X263398D02*
X264160D01*
X261874D02*
X263144D01*
X258318D02*
X260604D01*
X251206D02*
X255016D01*
X285750Y510703D02*
X289052D01*
X280162D02*
X284988D01*
X261620D02*
X264160D01*
X258064D02*
X260858D01*
X250952D02*
X255524D01*
X279654Y510957D02*
X289052D01*
X261366D02*
X263652D01*
X260350D02*
X261112D01*
X259842D02*
X260096D01*
X259334D02*
X259588D01*
X258826D02*
X259080D01*
X258064D02*
X258572D01*
X257048D02*
X257810D01*
X254508D02*
X256794D01*
X254000D02*
X254254D01*
X252222D02*
X253746D01*
X250698D02*
X251968D01*
X279654Y511211D02*
X288544D01*
X262636D02*
X263398D01*
X250952D02*
X262382D01*
X276860Y511465D02*
X288290D01*
X250698D02*
X263398D01*
X276860Y511719D02*
X287782D01*
X259588D02*
X263398D01*
X257810D02*
X259334D01*
X250698D02*
X257556D01*
X276860Y511973D02*
X287782D01*
X250698D02*
X263398D01*
X276098Y512227D02*
X287782D01*
X261620D02*
X263398D01*
X259842D02*
X261366D01*
X250698D02*
X259588D01*
X276098Y512481D02*
X287782D01*
X254762D02*
X262636D01*
X250444D02*
X254508D01*
X276098Y512735D02*
X287782D01*
X255270D02*
X262382D01*
X251206D02*
X255016D01*
X250190D02*
X250952D01*
X276098Y512989D02*
X286512D01*
X261620D02*
X262382D01*
X260858D02*
X261366D01*
X260350D02*
X260604D01*
X259080D02*
X260096D01*
X250190D02*
X258826D01*
X276098Y513243D02*
X286512D01*
X261620D02*
X262382D01*
X250444D02*
X261366D01*
X276098Y513497D02*
X286512D01*
X257810D02*
X262382D01*
X256032D02*
X257556D01*
X250190D02*
X255778D01*
X275844Y513751D02*
X285750D01*
X261620D02*
X262382D01*
X260604D02*
X261112D01*
X259842D02*
X260350D01*
X250190D02*
X259588D01*
X275590Y514005D02*
X285750D01*
X262128D02*
X262382D01*
X259842D02*
X261874D01*
X258064D02*
X259588D01*
X250444D02*
X257810D01*
X275590Y514259D02*
X285750D01*
X256540D02*
X261620D01*
X249936D02*
X256286D01*
X275590Y514513D02*
X285750D01*
X256286D02*
X261366D01*
X254000D02*
X256032D01*
X252984D02*
X253746D01*
X252222D02*
X252730D01*
X251206D02*
X251968D01*
X249936D02*
X250952D01*
X249428D02*
X249682D01*
X275590Y514767D02*
X285750D01*
X260858D02*
X261620D01*
X259842D02*
X260096D01*
X259080D02*
X259588D01*
X254762D02*
X258826D01*
X254000D02*
X254508D01*
X249428D02*
X253746D01*
X274828Y515021D02*
X285242D01*
X260350D02*
X261366D01*
X259842D02*
X260096D01*
X258064D02*
X259588D01*
X257048D02*
X257810D01*
X256286D02*
X256794D01*
X249428D02*
X256032D01*
X274828Y515275D02*
X284988D01*
X249428D02*
X261366D01*
X274320Y515529D02*
X284988D01*
X260604D02*
X261112D01*
X259842D02*
X260350D01*
X258826D02*
X259588D01*
X254000D02*
X258572D01*
X249428D02*
X253746D01*
X274320Y515783D02*
X284480D01*
X259842D02*
X260858D01*
X258064D02*
X259588D01*
X257048D02*
X257810D01*
X254000D02*
X256794D01*
X252222D02*
X253746D01*
X250444D02*
X251968D01*
X249428D02*
X250190D01*
X274320Y516037D02*
X284480D01*
X249428D02*
X260858D01*
X274320Y516291D02*
X284480D01*
X249428D02*
X260350D01*
X274320Y516545D02*
X283718D01*
X259842D02*
X260858D01*
X259080D02*
X259588D01*
X254762D02*
X258826D01*
X254000D02*
X254508D01*
X252984D02*
X253746D01*
X252222D02*
X252730D01*
X249428D02*
X251968D01*
X274320Y516799D02*
X283718D01*
X260350D02*
X260604D01*
X259842D02*
X260096D01*
X249428D02*
X259588D01*
X274320Y517053D02*
X283718D01*
X249428D02*
X260350D01*
X274320Y517307D02*
X283718D01*
X258826D02*
X260096D01*
X254000D02*
X258572D01*
X252222D02*
X253746D01*
X249428D02*
X251968D01*
X274320Y517561D02*
X283718D01*
X258826D02*
X260096D01*
X258064D02*
X258572D01*
X256794D02*
X257556D01*
X256032D02*
X256540D01*
X254000D02*
X255778D01*
X252222D02*
X253746D01*
X250444D02*
X251968D01*
X249428D02*
X250190D01*
X274320Y517815D02*
X282956D01*
X257810D02*
X259842D01*
X256032D02*
X257556D01*
X249428D02*
X255778D01*
X274320Y518069D02*
X282956D01*
X249428D02*
X259842D01*
X274320Y518323D02*
X282448D01*
X259080D02*
X259588D01*
X258064D02*
X258572D01*
X254000D02*
X257810D01*
X252984D02*
X253746D01*
X252222D02*
X252730D01*
X251206D02*
X251968D01*
X250444D02*
X250952D01*
X249428D02*
X250190D01*
X274320Y518577D02*
X282448D01*
X258826D02*
X259588D01*
X249428D02*
X258572D01*
X274320Y518831D02*
X282448D01*
X249428D02*
X259588D01*
X274828Y519085D02*
X281940D01*
X258826D02*
X259588D01*
X258064D02*
X258572D01*
X254000D02*
X257810D01*
X252222D02*
X253746D01*
X250444D02*
X251968D01*
X249428D02*
X250190D01*
X274828Y519339D02*
X281432D01*
X257810D02*
X259588D01*
X256032D02*
X257556D01*
X254254D02*
X255778D01*
X252222D02*
X254000D01*
X250444D02*
X251968D01*
X249428D02*
X250190D01*
X274828Y519593D02*
X281178D01*
X259334D02*
X259588D01*
X257810D02*
X259080D01*
X256032D02*
X257556D01*
X249428D02*
X255778D01*
X274828Y519847D02*
X281178D01*
X249428D02*
X258572D01*
X274828Y520101D02*
X281178D01*
X258064D02*
X258826D01*
X252984D02*
X257810D01*
X251206D02*
X252730D01*
X249428D02*
X250952D01*
X280670Y520355D02*
X280924D01*
X275336D02*
X280416D01*
X249428D02*
X258826D01*
X275590Y520609D02*
X280416D01*
X249428D02*
X258572D01*
X275590Y520863D02*
X280162D01*
X258064D02*
X258826D01*
X257048D02*
X257810D01*
X254000D02*
X256794D01*
X252222D02*
X253746D01*
X250444D02*
X251968D01*
X249428D02*
X250190D01*
X275590Y521117D02*
X279908D01*
X258064D02*
X258572D01*
X249428D02*
X257810D01*
X275590Y521371D02*
X279654D01*
X249428D02*
X258826D01*
X275590Y521625D02*
X279654D01*
X249428D02*
X258572D01*
X258064Y521879D02*
X258826D01*
X252984D02*
X257810D01*
X249428D02*
X252730D01*
X249428Y522133D02*
X258826D01*
X249428Y522387D02*
X258572D01*
X249428Y522641D02*
X258572D01*
X249428Y522895D02*
X258572D01*
X273050Y523149D02*
X273304D01*
X272542D02*
X272796D01*
X272034D02*
X272288D01*
X270764D02*
X271780D01*
X270256D02*
X270510D01*
X268986D02*
X270002D01*
X268478D02*
X268732D01*
X249428D02*
X258826D01*
X267970Y523403D02*
X273558D01*
X249428D02*
X258572D01*
X267208Y523657D02*
X274066D01*
X249428D02*
X259080D01*
X267462Y523911D02*
X273812D01*
X266954D02*
X267208D01*
X249428D02*
X259334D01*
X266954Y524165D02*
X274320D01*
X265430D02*
X265684D01*
X249428D02*
X259588D01*
X274574Y524419D02*
X274828D01*
X269240D02*
X274320D01*
X267462D02*
X268986D01*
X266954D02*
X267208D01*
X266446D02*
X266700D01*
X265430D02*
X266192D01*
X258064D02*
X259588D01*
X256286D02*
X257810D01*
X255270D02*
X256032D01*
X249428D02*
X255016D01*
X265430Y524673D02*
X274828D01*
X249428D02*
X259588D01*
X272542Y524927D02*
X275082D01*
X270764D02*
X272288D01*
X265176D02*
X270510D01*
X249428D02*
X259842D01*
X278130Y525181D02*
X278384D01*
X277622D02*
X277876D01*
X276352D02*
X277368D01*
X275844D02*
X276098D01*
X274066D02*
X275590D01*
X269240D02*
X273812D01*
X267462D02*
X268986D01*
X265176D02*
X267208D01*
X258064D02*
X260604D01*
X256286D02*
X257810D01*
X249428D02*
X256032D01*
X264922Y525435D02*
X278384D01*
X259080D02*
X260858D01*
X249428D02*
X258826D01*
X264414Y525689D02*
X278384D01*
X255270D02*
X261112D01*
X254000D02*
X255016D01*
X252984D02*
X253746D01*
X252222D02*
X252730D01*
X251206D02*
X251968D01*
X250444D02*
X250952D01*
X249428D02*
X250190D01*
X255524Y525943D02*
X280924D01*
X249682D02*
X255270D01*
X280416Y526197D02*
X280924D01*
X279908D02*
X280162D01*
X279400D02*
X279654D01*
X274066D02*
X279146D01*
X269240D02*
X273812D01*
X267462D02*
X268986D01*
X265684D02*
X267208D01*
X264668D02*
X265430D01*
X263398D02*
X264414D01*
X262890D02*
X263144D01*
X261620D02*
X262636D01*
X261112D02*
X261366D01*
X259842D02*
X260858D01*
X258064D02*
X259588D01*
X249936D02*
X257810D01*
X249936Y526451D02*
X280924D01*
X276098Y526705D02*
X280924D01*
X272542D02*
X275844D01*
X270764D02*
X272288D01*
X254000D02*
X270510D01*
X250190D02*
X253746D01*
X274066Y526959D02*
X280924D01*
X269240D02*
X273812D01*
X259842D02*
X268986D01*
X250190D02*
X259588D01*
X259080Y527213D02*
X280924D01*
X250190D02*
X258826D01*
Y527467D02*
X281178D01*
X257810D02*
X258318D01*
X252222D02*
X257556D01*
X250444D02*
X251968D01*
X280670Y527721D02*
X281178D01*
X278892D02*
X280416D01*
X277876D02*
X278638D01*
X259080D02*
X277622D01*
X250952D02*
X258826D01*
X277622Y527975D02*
X280162D01*
X274066D02*
X277368D01*
X269240D02*
X273812D01*
X267462D02*
X268986D01*
X265684D02*
X267208D01*
X259842D02*
X265430D01*
X259334D02*
X259588D01*
X250698D02*
X259080D01*
X250952Y528229D02*
X280416D01*
X272542Y528483D02*
X279654D01*
X270764D02*
X272288D01*
X259588D02*
X270510D01*
X252222D02*
X259334D01*
X251460D02*
X251968D01*
X274066Y528737D02*
X279654D01*
X271018D02*
X273812D01*
X251460D02*
X270764D01*
X260096Y528991D02*
X279146D01*
X252222D02*
X259842D01*
X277622Y529245D02*
X278892D01*
X276860D02*
X277368D01*
X275844D02*
X276606D01*
X275082D02*
X275590D01*
X274066D02*
X274828D01*
X271018D02*
X273812D01*
X269240D02*
X270764D01*
X262128D02*
X268986D01*
X261366D02*
X261874D01*
X260604D02*
X261112D01*
X259588D02*
X260096D01*
X258826D02*
X259080D01*
X251968D02*
X258572D01*
X264414Y529499D02*
X278638D01*
X263652D02*
X264160D01*
X252222D02*
X263398D01*
X252984Y529753D02*
X278892D01*
X252730Y530007D02*
X278638D01*
X259334Y530261D02*
X278384D01*
X254000D02*
X259080D01*
X253492D02*
X253746D01*
X252984D02*
X253238D01*
X254000Y530515D02*
X278384D01*
X254254Y530769D02*
X278384D01*
X277622Y531023D02*
X278384D01*
X276860D02*
X277368D01*
X275844D02*
X276606D01*
X275082D02*
X275590D01*
X274066D02*
X274828D01*
X271018D02*
X273812D01*
X269240D02*
X270764D01*
X262128D02*
X268986D01*
X259334D02*
X261874D01*
X258318D02*
X259080D01*
X254508D02*
X255524D01*
X258572Y531277D02*
X278130D01*
X258064D02*
X258318D01*
Y531531D02*
X277876D01*
X259588Y531785D02*
X276860D01*
X259588Y532039D02*
X276606D01*
X272542Y532293D02*
X276352D01*
X261874D02*
X272288D01*
X261366D02*
X261620D01*
X260858D02*
X261112D01*
X260096D02*
X260604D01*
X262636Y532547D02*
X276098D01*
X275082Y532801D02*
X275590D01*
X274066D02*
X274828D01*
X271018D02*
X273812D01*
X269240D02*
X270764D01*
X267462D02*
X268986D01*
X266954D02*
X267208D01*
X266446D02*
X266700D01*
X265684D02*
X266192D01*
X265176D02*
X265430D01*
X264668D02*
X264922D01*
X263398D02*
X264414D01*
X262890D02*
X263144D01*
X268224Y533055D02*
X275590D01*
X268732Y533309D02*
X275336D01*
X268986Y533563D02*
X275082D01*
X274066Y533817D02*
X274828D01*
X272796D02*
X273812D01*
X272288D02*
X272542D01*
X271018D02*
X272034D01*
X270256D02*
X270764D01*
X270256Y534071D02*
X274574D01*
X274066Y534325D02*
X274320D01*
X272796D02*
X273812D01*
X272288D02*
X272542D01*
X271018D02*
X272034D01*
X270510D02*
X270764D01*
D70*
X435610Y413657D02*
X439023Y417070D01*
X503680Y488553D02*
X507093Y485140D01*
X432198Y553210D02*
X435610Y556623D01*
X431659Y422637D02*
X439561D01*
X364127Y485140D02*
X367539Y488553D01*
X435610Y556623D02*
X439023Y553210D01*
X503680Y481728D02*
X507093Y485140D01*
X432198Y417070D02*
X435610Y413657D01*
X364127Y485140D02*
X367539Y481728D01*
M02*
