G04 Layer_Color=8388736*
%FSLAX44Y44*%
%MOMM*%
G71*
G01*
G75*
%ADD45R,1.2032X1.1032*%
G04:AMPARAMS|DCode=46|XSize=1.0032mm|YSize=1.4032mm|CornerRadius=0mm|HoleSize=0mm|Usage=FLASHONLY|Rotation=235.000|XOffset=0mm|YOffset=0mm|HoleType=Round|Shape=Rectangle|*
%AMROTATEDRECTD46*
4,1,4,-0.2870,0.8133,0.8624,0.0085,0.2870,-0.8133,-0.8624,-0.0085,-0.2870,0.8133,0.0*
%
%ADD46ROTATEDRECTD46*%

%ADD47R,1.1032X1.2032*%
%ADD48R,1.1532X1.2032*%
%ADD49R,2.3532X3.4532*%
%ADD50R,2.3532X1.1532*%
%ADD51R,2.1032X2.0032*%
%ADD52R,2.0032X1.9032*%
%ADD53R,2.2032X2.2032*%
%ADD54R,2.7033X1.0033*%
%ADD55R,1.6033X0.9032*%
%ADD56R,1.6033X2.1532*%
%ADD57R,1.6033X1.4831*%
%ADD58R,2.2032X1.6033*%
%ADD59C,1.3032*%
%ADD60C,1.4034*%
%ADD61O,3.7592X1.9812*%
%ADD62C,1.3033*%
%ADD63C,1.0033*%
%ADD64C,1.4531*%
%ADD65C,0.7032*%
D45*
X516890Y435230D02*
D03*
Y451230D02*
D03*
X496570Y435230D02*
D03*
Y451230D02*
D03*
X477520Y435230D02*
D03*
Y451230D02*
D03*
D46*
X517451Y417722D02*
D03*
X508709Y405238D02*
D03*
X485701Y417722D02*
D03*
X476959Y405238D02*
D03*
X456491Y417722D02*
D03*
X447749Y405238D02*
D03*
D47*
X449960Y453390D02*
D03*
X433960D02*
D03*
D48*
X449960Y473710D02*
D03*
X433960D02*
D03*
D49*
X404920Y458470D02*
D03*
D50*
X346920Y435470D02*
D03*
Y458470D02*
D03*
Y481470D02*
D03*
D51*
X438550Y505460D02*
D03*
X488550D02*
D03*
X463550D02*
D03*
D52*
X411550Y553960D02*
D03*
X515550D02*
D03*
D53*
X316230Y408940D02*
D03*
X392430D02*
D03*
X367030D02*
D03*
X341630D02*
D03*
X290830D02*
D03*
X417830D02*
D03*
D54*
X269519Y494139D02*
D03*
Y473601D02*
D03*
Y519379D02*
D03*
Y448869D02*
D03*
D55*
X544271Y418882D02*
D03*
Y429880D02*
D03*
Y440881D02*
D03*
Y451881D02*
D03*
Y462882D02*
D03*
Y473880D02*
D03*
Y484881D02*
D03*
Y495882D02*
D03*
Y506880D02*
D03*
D56*
X552971Y555130D02*
D03*
D57*
Y405280D02*
D03*
D58*
X648970Y405882D02*
D03*
Y563880D02*
D03*
D59*
X438550Y540960D02*
D03*
X488550D02*
D03*
D60*
X318531Y446080D02*
D03*
Y471480D02*
D03*
Y496880D02*
D03*
Y522280D02*
D03*
D61*
X241320Y542371D02*
D03*
Y425369D02*
D03*
D62*
X242019Y506369D02*
D03*
Y461371D02*
D03*
D63*
X245321Y425369D02*
D03*
X249319D02*
D03*
X237320D02*
D03*
X233319D02*
D03*
X245321Y542371D02*
D03*
X249319D02*
D03*
X237320D02*
D03*
X233319D02*
D03*
D64*
X652971Y435882D02*
D03*
Y515882D02*
D03*
D65*
X386080Y474980D02*
D03*
X411902Y481330D02*
D03*
X454660Y483870D02*
D03*
X486410Y554990D02*
D03*
X398550Y510310D02*
D03*
X561555Y454875D02*
D03*
X453390Y527050D02*
D03*
X330200Y480060D02*
D03*
X308610Y425450D02*
D03*
X416560Y529590D02*
D03*
X412750Y520700D02*
D03*
X291984Y543560D02*
D03*
X513080Y478790D02*
D03*
X515620Y462280D02*
D03*
X520054Y468202D02*
D03*
X539750Y405882D02*
D03*
X570230Y406400D02*
D03*
X511810Y448310D02*
D03*
X485140Y483870D02*
D03*
X461010Y469900D02*
D03*
X472440Y472440D02*
D03*
X497460Y411480D02*
D03*
X492760Y492432D02*
D03*
X421640Y468630D02*
D03*
X378136Y431800D02*
D03*
X358140Y406400D02*
D03*
X449580Y433070D02*
D03*
X420962Y445770D02*
D03*
X431800Y435710D02*
D03*
X582930Y420603D02*
D03*
X591820Y426243D02*
D03*
X509403Y425450D02*
D03*
X490895D02*
D03*
X422910Y405130D02*
D03*
X367607Y451436D02*
D03*
X335280Y421640D02*
D03*
X329679Y428558D02*
D03*
X293370Y474980D02*
D03*
X391160Y407670D02*
D03*
X434340Y400050D02*
D03*
X435610Y416560D02*
D03*
X246380Y484881D02*
D03*
X267970Y484084D02*
D03*
M02*
