G04 Layer_Color=8388736*
%FSLAX44Y44*%
%MOMM*%
G71*
G01*
G75*
%ADD40R,1.2032X1.1032*%
G04:AMPARAMS|DCode=41|XSize=1.0032mm|YSize=1.4032mm|CornerRadius=0mm|HoleSize=0mm|Usage=FLASHONLY|Rotation=235.000|XOffset=0mm|YOffset=0mm|HoleType=Round|Shape=Rectangle|*
%AMROTATEDRECTD41*
4,1,4,-0.2870,0.8133,0.8624,0.0085,0.2870,-0.8133,-0.8624,-0.0085,-0.2870,0.8133,0.0*
%
%ADD41ROTATEDRECTD41*%

%ADD42R,1.1532X1.2032*%
%ADD43R,2.3532X3.4532*%
%ADD44R,2.3532X1.1532*%
%ADD45R,2.1032X2.0032*%
%ADD46R,2.0032X1.9032*%
%ADD47R,2.2032X2.2032*%
%ADD48R,2.7033X1.0033*%
%ADD49R,1.6033X0.9032*%
%ADD50R,1.6033X2.1532*%
%ADD51R,1.6033X1.4831*%
%ADD52R,2.2032X1.6033*%
%ADD53C,1.3032*%
%ADD54C,1.4034*%
%ADD55O,3.7592X1.9812*%
%ADD56C,1.3033*%
%ADD57C,1.0033*%
%ADD58C,1.4531*%
%ADD59C,0.7032*%
D40*
X514350Y453010D02*
D03*
Y469010D02*
D03*
X492760Y453010D02*
D03*
Y469010D02*
D03*
X297180Y456820D02*
D03*
Y472820D02*
D03*
X471170Y451740D02*
D03*
Y467740D02*
D03*
X408940Y488880D02*
D03*
Y504880D02*
D03*
X297180Y493650D02*
D03*
Y509650D02*
D03*
D41*
X517451Y417722D02*
D03*
X508709Y405238D02*
D03*
X485701Y417722D02*
D03*
X476959Y405238D02*
D03*
X456491Y417722D02*
D03*
X447749Y405238D02*
D03*
D42*
X444880Y458470D02*
D03*
X428880D02*
D03*
Y478790D02*
D03*
X444880D02*
D03*
X428880Y438150D02*
D03*
X444880D02*
D03*
D43*
X404920Y458470D02*
D03*
D44*
X346920Y435470D02*
D03*
Y458470D02*
D03*
Y481470D02*
D03*
D45*
X440690Y500380D02*
D03*
X490690D02*
D03*
X465690D02*
D03*
D46*
X413690Y548880D02*
D03*
X517690D02*
D03*
D47*
X290830Y408940D02*
D03*
X316230D02*
D03*
X341630D02*
D03*
D48*
X269519Y494139D02*
D03*
Y473601D02*
D03*
Y519379D02*
D03*
Y448869D02*
D03*
D49*
X544271Y418882D02*
D03*
Y429880D02*
D03*
Y440881D02*
D03*
Y451881D02*
D03*
Y462882D02*
D03*
Y473880D02*
D03*
Y484881D02*
D03*
Y495882D02*
D03*
Y506880D02*
D03*
D50*
X552971Y555130D02*
D03*
D51*
Y405280D02*
D03*
D52*
X648970Y405882D02*
D03*
Y563880D02*
D03*
D53*
X440690Y535880D02*
D03*
X490690D02*
D03*
D54*
X318531Y446080D02*
D03*
Y471480D02*
D03*
Y496880D02*
D03*
Y522280D02*
D03*
D55*
X241320Y542371D02*
D03*
Y425369D02*
D03*
D56*
X242019Y506369D02*
D03*
Y461371D02*
D03*
D57*
X245321Y425369D02*
D03*
X249319D02*
D03*
X237320D02*
D03*
X233319D02*
D03*
X245321Y542371D02*
D03*
X249319D02*
D03*
X237320D02*
D03*
X233319D02*
D03*
D58*
X652971Y435882D02*
D03*
Y515882D02*
D03*
D59*
X402413Y405238D02*
D03*
X559506Y481444D02*
D03*
X609331Y495300D02*
D03*
X398673Y502813D02*
D03*
X470408Y512826D02*
D03*
X470662Y479298D02*
D03*
X444880Y468924D02*
D03*
X292354Y529082D02*
D03*
X513080Y528320D02*
D03*
X458470Y454938D02*
D03*
X458684Y462954D02*
D03*
X518668Y560832D02*
D03*
X421894Y532638D02*
D03*
X409702Y522732D02*
D03*
X296418Y429260D02*
D03*
X419608Y439674D02*
D03*
X399796Y510794D02*
D03*
X383540Y490474D02*
D03*
X431800Y487934D02*
D03*
X459556Y486349D02*
D03*
X427228Y519938D02*
D03*
X420878Y504190D02*
D03*
X314072Y456820D02*
D03*
X337566Y470154D02*
D03*
X399796Y484378D02*
D03*
X346920Y447040D02*
D03*
X428244Y429006D02*
D03*
X377698D02*
D03*
X593852Y505353D02*
D03*
X533146Y549656D02*
D03*
X350901Y493903D02*
D03*
X276098Y421894D02*
D03*
X522478Y426466D02*
D03*
X458216Y523494D02*
D03*
X433324D02*
D03*
X319532Y545846D02*
D03*
M02*
