G04 Layer_Color=16711935*
%FSLAX44Y44*%
%MOMM*%
G71*
G01*
G75*
%ADD48R,1.1532X1.2032*%
%ADD53R,2.2032X2.2032*%
%ADD59C,1.3032*%
%ADD60C,1.4034*%
%ADD61O,3.7592X1.9812*%
%ADD62C,1.3033*%
%ADD63C,1.0033*%
%ADD64C,1.4531*%
%ADD65C,0.7032*%
%ADD66R,2.6432X1.3332*%
G04:AMPARAMS|DCode=67|XSize=1.1032mm|YSize=1.2032mm|CornerRadius=0mm|HoleSize=0mm|Usage=FLASHONLY|Rotation=45.000|XOffset=0mm|YOffset=0mm|HoleType=Round|Shape=Rectangle|*
%AMROTATEDRECTD67*
4,1,4,0.0353,-0.8154,-0.8154,0.0353,-0.0353,0.8154,0.8154,-0.0353,0.0353,-0.8154,0.0*
%
%ADD67ROTATEDRECTD67*%

G04:AMPARAMS|DCode=68|XSize=1.3532mm|YSize=1.6032mm|CornerRadius=0mm|HoleSize=0mm|Usage=FLASHONLY|Rotation=135.000|XOffset=0mm|YOffset=0mm|HoleType=Round|Shape=Rectangle|*
%AMROTATEDRECTD68*
4,1,4,1.0453,0.0884,-0.0884,-1.0453,-1.0453,-0.0884,0.0884,1.0453,1.0453,0.0884,0.0*
%
%ADD68ROTATEDRECTD68*%

G04:AMPARAMS|DCode=69|XSize=1.1532mm|YSize=1.2032mm|CornerRadius=0mm|HoleSize=0mm|Usage=FLASHONLY|Rotation=225.000|XOffset=0mm|YOffset=0mm|HoleType=Round|Shape=Rectangle|*
%AMROTATEDRECTD69*
4,1,4,-0.0177,0.8331,0.8331,-0.0177,0.0177,-0.8331,-0.8331,0.0177,-0.0177,0.8331,0.0*
%
%ADD69ROTATEDRECTD69*%

G04:AMPARAMS|DCode=70|XSize=1.1532mm|YSize=1.2032mm|CornerRadius=0mm|HoleSize=0mm|Usage=FLASHONLY|Rotation=315.000|XOffset=0mm|YOffset=0mm|HoleType=Round|Shape=Rectangle|*
%AMROTATEDRECTD70*
4,1,4,-0.8331,-0.0177,0.0177,0.8331,0.8331,0.0177,-0.0177,-0.8331,-0.8331,-0.0177,0.0*
%
%ADD70ROTATEDRECTD70*%

%ADD71R,1.2032X1.1532*%
G04:AMPARAMS|DCode=72|XSize=0.7112mm|YSize=1.6764mm|CornerRadius=0mm|HoleSize=0mm|Usage=FLASHONLY|Rotation=135.000|XOffset=0mm|YOffset=0mm|HoleType=Round|Shape=Rectangle|*
%AMROTATEDRECTD72*
4,1,4,0.8441,0.3412,-0.3412,-0.8441,-0.8441,-0.3412,0.3412,0.8441,0.8441,0.3412,0.0*
%
%ADD72ROTATEDRECTD72*%

G04:AMPARAMS|DCode=73|XSize=0.7112mm|YSize=1.6764mm|CornerRadius=0mm|HoleSize=0mm|Usage=FLASHONLY|Rotation=225.000|XOffset=0mm|YOffset=0mm|HoleType=Round|Shape=Rectangle|*
%AMROTATEDRECTD73*
4,1,4,-0.3412,0.8441,0.8441,-0.3412,0.3412,-0.8441,-0.8441,0.3412,-0.3412,0.8441,0.0*
%
%ADD73ROTATEDRECTD73*%

G36*
X659055Y465494D02*
X659113Y465465D01*
X659143Y465435D01*
X659201Y465377D01*
X659260Y465289D01*
Y465201D01*
Y465172D01*
Y458524D01*
X659230Y458348D01*
X659172Y458231D01*
X659084Y458143D01*
X659055Y458114D01*
X658879Y458026D01*
X658733Y457938D01*
X658615Y457909D01*
X658557Y457879D01*
X658352Y457821D01*
X658205Y457791D01*
X658088Y457762D01*
X658030D01*
X657854Y457733D01*
X657503D01*
X657385Y457762D01*
X657327Y457791D01*
X657298D01*
X657239Y457879D01*
X657210Y457967D01*
Y458055D01*
Y458084D01*
Y464732D01*
X657239Y464879D01*
X657327Y465025D01*
X657385Y465084D01*
X657415Y465113D01*
X657561Y465201D01*
X657737Y465289D01*
X657854Y465318D01*
X657883Y465347D01*
X658088Y465406D01*
X658235Y465435D01*
X658352Y465465D01*
X658410D01*
X658586Y465494D01*
X658703Y465523D01*
X658938D01*
X659055Y465494D01*
D02*
G37*
G36*
X686525Y486477D02*
X686906Y486419D01*
X687052Y486360D01*
X687169Y486331D01*
X687257Y486302D01*
X687287D01*
X687726Y486097D01*
X688077Y485862D01*
X688224Y485774D01*
X688312Y485687D01*
X688370Y485628D01*
X688399Y485599D01*
X688575Y485394D01*
X688751Y485189D01*
X688985Y484749D01*
X689102Y484544D01*
X689161Y484398D01*
X689219Y484281D01*
Y484252D01*
X689337Y483929D01*
X689395Y483578D01*
X689454Y483227D01*
X689512Y482904D01*
Y482612D01*
X689542Y482377D01*
Y482231D01*
Y482202D01*
Y482172D01*
X689512Y481616D01*
X689483Y481352D01*
X689454Y481147D01*
X689425Y480942D01*
X689395Y480796D01*
X689366Y480708D01*
Y480679D01*
X689249Y480181D01*
X689190Y479947D01*
X689132Y479771D01*
X689102Y479595D01*
X689044Y479478D01*
X689014Y479390D01*
Y479361D01*
X688868Y478951D01*
X688722Y478629D01*
X688663Y478512D01*
X688604Y478424D01*
X688575Y478365D01*
Y478336D01*
X688429Y478072D01*
X688312Y477896D01*
X688253Y477809D01*
X688224Y477779D01*
X688019Y477633D01*
X687931Y477604D01*
X687902Y477574D01*
X687755Y477516D01*
X687638Y477457D01*
X687550Y477428D01*
X687521Y477399D01*
X687374Y477369D01*
X687228Y477311D01*
X687111Y477281D01*
X687082D01*
X686935Y477252D01*
X686789Y477223D01*
X686701Y477194D01*
X686672D01*
X686525Y477164D01*
X685852D01*
X685734Y477194D01*
X685647Y477223D01*
X685617D01*
X685559Y477281D01*
X685529Y477369D01*
X685500Y477428D01*
Y477457D01*
X685529Y477604D01*
X685588Y477750D01*
X685647Y477867D01*
X685676Y477926D01*
X685822Y478189D01*
X685939Y478453D01*
X685998Y478541D01*
X686057Y478629D01*
X686086Y478687D01*
Y478717D01*
X686262Y479068D01*
X686379Y479419D01*
X686437Y479566D01*
X686467Y479683D01*
X686496Y479742D01*
Y479771D01*
X686613Y480210D01*
X686672Y480620D01*
X686701Y480766D01*
Y480884D01*
Y480971D01*
Y481001D01*
X686672Y481323D01*
X686642Y481586D01*
X686584Y481733D01*
X686554Y481791D01*
X686437Y481996D01*
X686320Y482172D01*
X686232Y482260D01*
X686203Y482289D01*
X686057Y482407D01*
X685881Y482465D01*
X685793Y482524D01*
X685734D01*
X685559Y482582D01*
X685412Y482612D01*
X685090D01*
X684914Y482582D01*
X684797Y482553D01*
X684739D01*
X684504Y482524D01*
X684299Y482465D01*
X684153Y482407D01*
X684124Y482377D01*
X684094D01*
X683831Y482260D01*
X683567Y482172D01*
X683391Y482055D01*
X683333Y482026D01*
X683304D01*
X682981Y481821D01*
X682689Y481645D01*
X682571Y481557D01*
X682484Y481469D01*
X682425Y481440D01*
X682396Y481411D01*
X682044Y481118D01*
X681722Y480825D01*
X681576Y480708D01*
X681459Y480591D01*
X681400Y480532D01*
X681371Y480503D01*
X680961Y480093D01*
X680551Y479683D01*
X680404Y479537D01*
X680287Y479390D01*
X680199Y479302D01*
X680170Y479273D01*
X676948Y475612D01*
X676714Y475349D01*
X676480Y475173D01*
X676304Y475026D01*
X676275Y474997D01*
X676246D01*
X675953Y474851D01*
X675719Y474763D01*
X675543Y474704D01*
X675514Y474675D01*
X675484D01*
X675250Y474616D01*
X675045Y474587D01*
X674899Y474558D01*
X674840D01*
X674635Y474529D01*
X674254D01*
X674166Y474558D01*
X674079D01*
X673932Y474616D01*
X673903Y474675D01*
X673874D01*
X673786Y474851D01*
X673756Y474909D01*
Y474939D01*
X673727Y475056D01*
Y475173D01*
Y475290D01*
Y475319D01*
Y484252D01*
X673756Y484369D01*
X673786Y484457D01*
X673815Y484486D01*
X673844Y484515D01*
X674049Y484662D01*
X674108Y484720D01*
X674137D01*
X674284Y484779D01*
X674401Y484837D01*
X674518Y484867D01*
X674547D01*
X674723Y484925D01*
X674869Y484954D01*
X674957Y484984D01*
X674986D01*
X675162Y485013D01*
X675279Y485042D01*
X675367Y485072D01*
X675396D01*
X675514Y485101D01*
X675836D01*
X675953Y485072D01*
X676041Y485042D01*
X676070Y485013D01*
X676187Y484925D01*
X676246Y484808D01*
X676275Y484720D01*
Y484691D01*
Y478804D01*
X678120Y481001D01*
X678471Y481411D01*
X678794Y481821D01*
X679116Y482143D01*
X679350Y482465D01*
X679584Y482699D01*
X679731Y482875D01*
X679848Y482992D01*
X679877Y483022D01*
X680170Y483314D01*
X680463Y483607D01*
X680726Y483842D01*
X680961Y484047D01*
X681136Y484222D01*
X681283Y484339D01*
X681371Y484427D01*
X681400Y484457D01*
X681927Y484867D01*
X682161Y485042D01*
X682337Y485189D01*
X682513Y485306D01*
X682630Y485394D01*
X682718Y485423D01*
X682747Y485452D01*
X683186Y485716D01*
X683567Y485921D01*
X683714Y485979D01*
X683831Y486038D01*
X683889Y486067D01*
X683919D01*
X684329Y486214D01*
X684709Y486331D01*
X684827Y486360D01*
X684944D01*
X685002Y486390D01*
X685032D01*
X685442Y486448D01*
X685793Y486507D01*
X686115D01*
X686525Y486477D01*
D02*
G37*
G36*
X666376Y499817D02*
X666728Y499759D01*
X666874Y499729D01*
X666991Y499700D01*
X667050Y499671D01*
X667079D01*
X667460Y499495D01*
X667782Y499319D01*
X667899Y499231D01*
X667987Y499144D01*
X668046Y499114D01*
X668075Y499085D01*
X668221Y498939D01*
X668368Y498763D01*
X668602Y498411D01*
X668661Y498236D01*
X668719Y498119D01*
X668778Y498031D01*
Y498002D01*
X668866Y497738D01*
X668953Y497445D01*
X669012Y497152D01*
X669041Y496889D01*
X669071Y496625D01*
Y496449D01*
Y496332D01*
Y496274D01*
Y495893D01*
X669041Y495571D01*
X668983Y495249D01*
X668953Y494985D01*
X668895Y494751D01*
X668836Y494604D01*
X668807Y494487D01*
Y494458D01*
X668629Y493974D01*
X668807Y493404D01*
X668895Y492964D01*
X669012Y492584D01*
X669071Y492261D01*
X669129Y491998D01*
X669188Y491822D01*
Y491793D01*
Y491763D01*
X669393Y490826D01*
X669451Y490387D01*
X669510Y489977D01*
X669568Y489655D01*
X669598Y489391D01*
X669627Y489216D01*
Y489186D01*
Y489157D01*
X669744Y488191D01*
X669773Y487751D01*
Y487371D01*
X669803Y487019D01*
Y486756D01*
Y486580D01*
Y486551D01*
Y486521D01*
Y486023D01*
X669773Y485526D01*
X669744Y485086D01*
Y484676D01*
X669715Y484354D01*
X669686Y484090D01*
X669656Y483915D01*
Y483885D01*
Y483856D01*
X669598Y483358D01*
X669539Y482890D01*
X669451Y482421D01*
X669393Y482040D01*
X669334Y481689D01*
X669305Y481455D01*
X669246Y481279D01*
Y481250D01*
Y481221D01*
X669129Y480752D01*
X669127Y480742D01*
X669598Y480840D01*
X669686D01*
X669744Y480811D01*
X669861Y480723D01*
X669920Y480635D01*
X669949Y480576D01*
X670008Y480430D01*
X670037Y480283D01*
X670066Y479873D01*
X670096Y479698D01*
Y479551D01*
Y479434D01*
Y479405D01*
Y479112D01*
X670066Y478878D01*
X670037Y478731D01*
Y478673D01*
X670008Y478468D01*
X669978Y478321D01*
X669949Y478204D01*
Y478175D01*
X669891Y478058D01*
X669861Y477970D01*
X669832Y477940D01*
X669803Y477911D01*
X669744Y477853D01*
X669656Y477823D01*
X669598D01*
X668174Y477535D01*
X668104Y477325D01*
X667958Y476945D01*
X667840Y476652D01*
X667753Y476388D01*
X667694Y476242D01*
X667665Y476183D01*
X667606Y476125D01*
X667577Y476095D01*
X667460Y476037D01*
X667430Y476007D01*
X667401D01*
X667255Y475949D01*
X667196D01*
X667108Y475920D01*
X666728D01*
X666610Y475949D01*
X666552Y475978D01*
X666523D01*
X666347Y476037D01*
X666318Y476066D01*
X666288D01*
X666230Y476183D01*
Y476213D01*
Y476242D01*
X666259Y476330D01*
X666288Y476388D01*
X666318Y476447D01*
Y476476D01*
X666579Y477212D01*
X662657Y476418D01*
X662452Y476388D01*
X662276D01*
X662159Y476418D01*
X662130Y476447D01*
X662071Y476505D01*
X662042Y476593D01*
X661983Y476798D01*
X661954Y476974D01*
Y477033D01*
Y477062D01*
Y477501D01*
X661925Y477940D01*
X661837Y478292D01*
X661690Y478585D01*
X661544Y478848D01*
X661398Y479024D01*
X661251Y479170D01*
X661163Y479229D01*
X661134Y479258D01*
X660812Y479434D01*
X660431Y479522D01*
X660021Y479551D01*
X659289D01*
X658996Y479493D01*
X658879D01*
X658791Y479463D01*
X658733D01*
X658176Y479317D01*
X657708Y479141D01*
X657298Y478965D01*
X656975Y478760D01*
X656741Y478585D01*
X656565Y478438D01*
X656448Y478321D01*
X656419Y478292D01*
X656185Y477970D01*
X656009Y477589D01*
X655863Y477238D01*
X655775Y476915D01*
X655716Y476593D01*
X655687Y476359D01*
Y476213D01*
Y476183D01*
Y476154D01*
X655716Y475744D01*
X655775Y475422D01*
Y475275D01*
X655804Y475187D01*
X655833Y475129D01*
Y475100D01*
X655980Y474777D01*
X656097Y474514D01*
X656185Y474338D01*
X656214Y474309D01*
Y474280D01*
X656360Y474045D01*
X656478Y473870D01*
X656565Y473753D01*
X656595Y473723D01*
X656712Y473577D01*
X656741Y473460D01*
X656770Y473372D01*
Y473343D01*
X656741Y473225D01*
X656712Y473196D01*
Y473167D01*
X656683Y473108D01*
X656624Y473050D01*
X656565Y473020D01*
X656536Y472991D01*
X656419Y472933D01*
X656331Y472903D01*
X656214Y472874D01*
X656185Y472845D01*
X655980Y472786D01*
X655775Y472728D01*
X655599Y472698D01*
X655540D01*
X655306Y472669D01*
X655130Y472640D01*
X655013Y472610D01*
X654984D01*
X654837Y472581D01*
X654632D01*
X654457Y472610D01*
X654398Y472640D01*
X654369D01*
X654222Y472698D01*
X654193Y472757D01*
X654164D01*
X654047Y472903D01*
X653959Y473079D01*
X653871Y473225D01*
X653842Y473284D01*
X653725Y473548D01*
X653607Y473811D01*
X653549Y474016D01*
X653520Y474045D01*
Y474075D01*
X653432Y474426D01*
X653373Y474748D01*
X653344Y474865D01*
Y474982D01*
X653315Y475041D01*
Y475070D01*
X653256Y475451D01*
X653227Y475802D01*
Y475949D01*
Y476066D01*
Y476125D01*
Y476154D01*
Y476593D01*
X653285Y477003D01*
X653315Y477384D01*
X653373Y477706D01*
X653432Y477999D01*
X653461Y478204D01*
X653520Y478321D01*
Y478380D01*
X653637Y478760D01*
X653783Y479112D01*
X653959Y479434D01*
X654105Y479727D01*
X654252Y479932D01*
X654340Y480108D01*
X654427Y480225D01*
X654457Y480254D01*
X654720Y480547D01*
X655013Y480811D01*
X655277Y481074D01*
X655570Y481279D01*
X655804Y481426D01*
X655980Y481543D01*
X656097Y481631D01*
X656155Y481660D01*
X656565Y481865D01*
X656975Y482040D01*
X657385Y482187D01*
X657795Y482333D01*
X658118Y482421D01*
X658410Y482480D01*
X658586Y482538D01*
X658645D01*
X659055Y482597D01*
X659406Y482655D01*
X659758Y482685D01*
X660636D01*
X660988Y482655D01*
X661280Y482597D01*
X661573Y482538D01*
X661837Y482450D01*
X662013Y482392D01*
X662188Y482333D01*
X662276Y482304D01*
X662305Y482275D01*
X662803Y481982D01*
X663008Y481806D01*
X663184Y481660D01*
X663330Y481513D01*
X663448Y481396D01*
X663506Y481308D01*
X663536Y481279D01*
X663711Y481045D01*
X663858Y480781D01*
X664063Y480283D01*
X664150Y480049D01*
X664209Y479873D01*
X664238Y479756D01*
Y479727D01*
X667421Y480388D01*
X667460Y480518D01*
X667518Y480781D01*
X667548Y481016D01*
X667577Y481191D01*
X667606Y481338D01*
X667635Y481426D01*
Y481455D01*
X667782Y482392D01*
X667899Y483329D01*
X667987Y484178D01*
X668016Y484588D01*
X668046Y484940D01*
X668075Y485291D01*
Y485613D01*
X668104Y485877D01*
Y486111D01*
Y486287D01*
Y486433D01*
Y486521D01*
Y486551D01*
X668075Y487488D01*
X668046Y488425D01*
X667958Y489274D01*
X667928Y489684D01*
X667870Y490036D01*
X667840Y490387D01*
X667782Y490680D01*
X667753Y490943D01*
X667723Y491178D01*
X667694Y491383D01*
X667665Y491500D01*
X667635Y491588D01*
Y491617D01*
X667492Y492381D01*
X667489Y492379D01*
X667372Y492261D01*
X667255Y492174D01*
X667196Y492144D01*
X667167Y492115D01*
X666757Y491851D01*
X666376Y491676D01*
X666230Y491588D01*
X666113Y491529D01*
X666025Y491500D01*
X665995D01*
X665556Y491353D01*
X665146Y491266D01*
X665000Y491207D01*
X664883D01*
X664795Y491178D01*
X664765D01*
X664355Y491119D01*
X663975Y491090D01*
X663623D01*
X663213Y491119D01*
X662862Y491178D01*
X662715D01*
X662598Y491207D01*
X662540Y491236D01*
X662510D01*
X662130Y491383D01*
X661837Y491558D01*
X661720Y491646D01*
X661632Y491734D01*
X661573Y491763D01*
X661544Y491793D01*
X661251Y492144D01*
X661017Y492496D01*
X660958Y492671D01*
X660900Y492789D01*
X660841Y492876D01*
Y492906D01*
X660753Y493199D01*
X660695Y493491D01*
X660636Y493784D01*
X660607Y494077D01*
Y494311D01*
X660577Y494516D01*
Y494634D01*
Y494692D01*
Y495044D01*
X660607Y495336D01*
X660636Y495629D01*
X660695Y495893D01*
X660724Y496069D01*
X660753Y496244D01*
X660782Y496332D01*
Y496361D01*
X660988Y496889D01*
X661075Y497123D01*
X661193Y497299D01*
X661251Y497474D01*
X661339Y497592D01*
X661368Y497650D01*
X661398Y497679D01*
X661690Y498089D01*
X661983Y498411D01*
X662130Y498529D01*
X662218Y498616D01*
X662276Y498646D01*
X662305Y498675D01*
X662715Y498939D01*
X663067Y499144D01*
X663213Y499231D01*
X663330Y499290D01*
X663418Y499319D01*
X663448D01*
X663916Y499495D01*
X664297Y499612D01*
X664473Y499641D01*
X664590Y499671D01*
X664678Y499700D01*
X664707D01*
X665175Y499788D01*
X665410Y499817D01*
X665585D01*
X665761Y499846D01*
X665995D01*
X666376Y499817D01*
D02*
G37*
G36*
X651264Y476886D02*
X651382Y476857D01*
X651411Y476828D01*
X651469Y476740D01*
Y476623D01*
Y476535D01*
X651440Y476505D01*
X651118Y475539D01*
X650854Y474602D01*
X650620Y473723D01*
X650503Y473313D01*
X650415Y472933D01*
X650357Y472581D01*
X650269Y472259D01*
X650210Y471966D01*
X650181Y471732D01*
X650152Y471556D01*
X650122Y471410D01*
X650093Y471322D01*
Y471292D01*
X649947Y470326D01*
X649829Y469389D01*
X649742Y468510D01*
X649712Y468100D01*
X649683Y467719D01*
X649654Y467368D01*
Y467075D01*
Y466782D01*
X649624Y466548D01*
Y466372D01*
Y466226D01*
Y466138D01*
Y466109D01*
X649654Y465142D01*
X649712Y464235D01*
X649771Y463385D01*
X649829Y463004D01*
X649859Y462624D01*
X649917Y462302D01*
X649947Y462009D01*
X649976Y461745D01*
X650034Y461511D01*
X650064Y461335D01*
Y461218D01*
X650093Y461130D01*
Y461101D01*
X650269Y460193D01*
X650474Y459344D01*
X650708Y458553D01*
X650913Y457850D01*
X651030Y457528D01*
X651118Y457264D01*
X651206Y457001D01*
X651264Y456796D01*
X651323Y456649D01*
X651382Y456532D01*
X651411Y456444D01*
Y456415D01*
X651469Y456239D01*
Y456122D01*
Y456034D01*
X651440Y456005D01*
X651294Y455917D01*
X651089Y455829D01*
X650913Y455771D01*
X650884Y455742D01*
X650854D01*
X650620Y455712D01*
X650327D01*
X650210Y455742D01*
X650122Y455800D01*
X650093Y455829D01*
X650064Y455859D01*
X649712Y456708D01*
X649390Y457557D01*
X649127Y458377D01*
X648892Y459109D01*
X648804Y459461D01*
X648717Y459754D01*
X648658Y460017D01*
X648599Y460252D01*
X648541Y460427D01*
X648512Y460574D01*
X648482Y460662D01*
Y460691D01*
X648307Y461657D01*
X648160Y462594D01*
X648072Y463502D01*
X648014Y463912D01*
X647984Y464322D01*
Y464674D01*
X647955Y464996D01*
Y465289D01*
X647926Y465523D01*
Y465728D01*
Y465874D01*
Y465962D01*
Y465992D01*
Y466519D01*
X647955Y466987D01*
X647984Y467456D01*
X648014Y467866D01*
X648043Y468217D01*
X648072Y468481D01*
X648102Y468657D01*
Y468715D01*
X648160Y469213D01*
X648219Y469682D01*
X648307Y470121D01*
X648365Y470502D01*
X648453Y470853D01*
X648482Y471087D01*
X648541Y471263D01*
Y471322D01*
X648658Y471790D01*
X648746Y472259D01*
X648863Y472698D01*
X648980Y473108D01*
X649068Y473430D01*
X649156Y473665D01*
X649185Y473840D01*
X649214Y473899D01*
X649507Y474865D01*
X649654Y475305D01*
X649800Y475685D01*
X649917Y476007D01*
X650005Y476271D01*
X650064Y476447D01*
X650093Y476505D01*
X650152Y476564D01*
X650210Y476623D01*
X650269Y476681D01*
X650298D01*
X650444Y476769D01*
X650620Y476828D01*
X650767Y476886D01*
X650825D01*
X651089Y476915D01*
X651264Y476886D01*
D02*
G37*
G36*
X674840Y446004D02*
X674899D01*
X688663Y443954D01*
X688809Y443924D01*
X688927Y443895D01*
X688985Y443866D01*
X689014D01*
X689102Y443807D01*
X689161Y443690D01*
X689219Y443602D01*
Y443573D01*
X689249Y443368D01*
X689278Y443163D01*
X689307Y442987D01*
Y442958D01*
Y442929D01*
X689337Y442577D01*
Y442226D01*
Y442050D01*
Y441933D01*
Y441845D01*
Y441816D01*
Y441406D01*
Y441084D01*
X689307Y440967D01*
Y440879D01*
Y440849D01*
Y440820D01*
X689278Y440557D01*
X689249Y440381D01*
X689219Y440234D01*
Y440205D01*
X689161Y440059D01*
X689102Y439971D01*
X689044Y439912D01*
X689014Y439883D01*
X688927Y439795D01*
X688809Y439707D01*
X688722Y439649D01*
X688692Y439619D01*
X674928Y432122D01*
X674664Y432005D01*
X674430Y431888D01*
X674313Y431859D01*
X674254Y431829D01*
X674079Y431800D01*
X673961D01*
X673874Y431829D01*
X673844Y431859D01*
X673786Y431946D01*
X673727Y432093D01*
X673698Y432181D01*
Y432239D01*
X673669Y432503D01*
Y432766D01*
Y432884D01*
Y433001D01*
Y433059D01*
Y433089D01*
Y433440D01*
X673698Y433704D01*
Y433879D01*
Y433938D01*
X673727Y434172D01*
Y434348D01*
X673756Y434465D01*
Y434494D01*
X673815Y434641D01*
X673874Y434729D01*
X673903Y434787D01*
X673932Y434817D01*
X674137Y434963D01*
X674196Y435022D01*
X674225D01*
X677271Y436603D01*
Y442431D01*
X674137Y442870D01*
X673961Y442900D01*
X673903Y442929D01*
X673874D01*
X673815Y442987D01*
X673786Y443046D01*
X673756Y443105D01*
Y443134D01*
X673727Y443280D01*
Y443427D01*
X673698Y443544D01*
Y443573D01*
X673669Y443807D01*
Y444071D01*
Y444247D01*
Y444305D01*
Y444334D01*
Y444774D01*
Y444920D01*
X673698Y445067D01*
Y445184D01*
Y445272D01*
Y445301D01*
Y445330D01*
X673727Y445564D01*
X673786Y445740D01*
X673815Y445828D01*
X673844Y445857D01*
X673961Y445975D01*
X674079Y446004D01*
X674166Y446033D01*
X674635D01*
X674840Y446004D01*
D02*
G37*
G36*
X666376Y467222D02*
X666728Y467163D01*
X666874Y467134D01*
X666991Y467104D01*
X667050Y467075D01*
X667079D01*
X667460Y466899D01*
X667782Y466724D01*
X667899Y466636D01*
X667987Y466548D01*
X668046Y466519D01*
X668075Y466489D01*
X668221Y466343D01*
X668368Y466167D01*
X668602Y465816D01*
X668661Y465640D01*
X668719Y465523D01*
X668778Y465435D01*
Y465406D01*
X668866Y465142D01*
X668953Y464850D01*
X669012Y464557D01*
X669041Y464293D01*
X669071Y464030D01*
Y463854D01*
Y463737D01*
Y463678D01*
Y463297D01*
X669041Y462975D01*
X668983Y462653D01*
X668953Y462389D01*
X668895Y462155D01*
X668836Y462009D01*
X668807Y461892D01*
Y461862D01*
X668629Y461378D01*
X668807Y460808D01*
X668895Y460369D01*
X669012Y459988D01*
X669071Y459666D01*
X669129Y459402D01*
X669188Y459226D01*
Y459197D01*
Y459168D01*
X669393Y458231D01*
X669451Y457791D01*
X669510Y457382D01*
X669568Y457059D01*
X669598Y456796D01*
X669627Y456620D01*
Y456591D01*
Y456562D01*
X669744Y455595D01*
X669773Y455156D01*
Y454775D01*
X669803Y454424D01*
Y454160D01*
Y453984D01*
Y453955D01*
Y453926D01*
Y453428D01*
X669773Y452930D01*
X669744Y452491D01*
Y452081D01*
X669725Y451866D01*
X669803Y451905D01*
X669861Y451934D01*
X669949D01*
X670037Y451905D01*
X670125Y451876D01*
X670154Y451817D01*
X670183Y451788D01*
X670242Y451671D01*
X670271Y451524D01*
X670301Y451436D01*
Y451378D01*
X670330Y451143D01*
X670359Y450938D01*
Y450763D01*
Y450704D01*
Y450675D01*
Y450382D01*
Y450177D01*
X670330Y450031D01*
Y449972D01*
X670301Y449796D01*
X670271Y449650D01*
X670242Y449562D01*
Y449533D01*
X670213Y449416D01*
X670183Y449328D01*
X670154Y449269D01*
X670125Y449240D01*
X670008Y449123D01*
X669978Y449094D01*
X669949D01*
X669246Y448625D01*
X669129Y448156D01*
X669041Y447688D01*
X668924Y447248D01*
X668807Y446868D01*
X668719Y446546D01*
X668631Y446282D01*
X668602Y446136D01*
X668573Y446106D01*
Y446077D01*
X668426Y445608D01*
X668251Y445169D01*
X668104Y444730D01*
X667958Y444349D01*
X667840Y444056D01*
X667753Y443793D01*
X667694Y443646D01*
X667665Y443588D01*
X667606Y443529D01*
X667577Y443500D01*
X667460Y443441D01*
X667430Y443412D01*
X667401D01*
X667255Y443353D01*
X667196D01*
X667108Y443324D01*
X666728D01*
X666610Y443353D01*
X666552Y443383D01*
X666523D01*
X666347Y443441D01*
X666318Y443471D01*
X666288D01*
X666230Y443588D01*
Y443617D01*
Y443646D01*
X666259Y443734D01*
X666288Y443793D01*
X666318Y443851D01*
Y443881D01*
X666640Y444788D01*
X666903Y445696D01*
X667108Y446516D01*
X667313Y447278D01*
X667348Y447486D01*
X667138Y447366D01*
X666874Y447219D01*
X666640Y447102D01*
X666435Y446985D01*
X666230Y446897D01*
X666113Y446809D01*
X665995Y446780D01*
X665937Y446721D01*
X665908D01*
X665205Y446399D01*
X664502Y446106D01*
X663887Y445872D01*
X663301Y445638D01*
X662833Y445491D01*
X662628Y445404D01*
X662481Y445345D01*
X662335Y445316D01*
X662247Y445286D01*
X662188Y445257D01*
X662159D01*
X661485Y445052D01*
X660870Y444906D01*
X660285Y444759D01*
X659787Y444642D01*
X659348Y444583D01*
X659172Y444525D01*
X659025D01*
X658908Y444496D01*
X658820Y444466D01*
X658733D01*
X658118Y444408D01*
X657561Y444349D01*
X657034Y444320D01*
X656565Y444291D01*
X656155Y444261D01*
X654955D01*
X654340Y444291D01*
X653783Y444349D01*
X653315Y444378D01*
X652905Y444437D01*
X652582Y444466D01*
X652465D01*
X652377Y444496D01*
X652319D01*
X651762Y444613D01*
X651206Y444730D01*
X650708Y444847D01*
X650269Y444935D01*
X649917Y445052D01*
X649624Y445140D01*
X649449Y445169D01*
X649419Y445198D01*
X649390D01*
X649302Y445228D01*
X649273Y445257D01*
X649185Y445404D01*
X649156Y445462D01*
Y445491D01*
X649097Y445726D01*
X649068Y445813D01*
Y445843D01*
X649039Y446048D01*
Y446223D01*
Y446370D01*
Y446428D01*
Y446751D01*
X649068Y446985D01*
X649097Y447102D01*
Y447161D01*
X649156Y447336D01*
X649185Y447483D01*
X649244Y447541D01*
Y447571D01*
X649332Y447659D01*
X649390Y447688D01*
X649449Y447717D01*
X649800D01*
X650210Y447629D01*
X650591Y447541D01*
X650737Y447512D01*
X650854D01*
X650942Y447483D01*
X650972D01*
X651440Y447424D01*
X651821Y447366D01*
X651997D01*
X652114Y447336D01*
X652231D01*
X652700Y447307D01*
X652905Y447278D01*
X653110D01*
X653256Y447248D01*
X653490D01*
X653959Y447219D01*
X654662D01*
X655833Y447248D01*
X656390Y447307D01*
X656917Y447336D01*
X657356Y447395D01*
X657532D01*
X657708Y447424D01*
X657825D01*
X657913Y447453D01*
X658000D01*
X658674Y447541D01*
X659318Y447688D01*
X659962Y447805D01*
X660519Y447951D01*
X660988Y448069D01*
X661193Y448098D01*
X661368Y448156D01*
X661515Y448186D01*
X661603Y448215D01*
X661661Y448244D01*
X661690D01*
X662423Y448479D01*
X663125Y448713D01*
X663799Y448947D01*
X664385Y449181D01*
X664912Y449386D01*
X665117Y449445D01*
X665293Y449533D01*
X665439Y449591D01*
X665556Y449650D01*
X665615Y449679D01*
X665644D01*
X666405Y450031D01*
X667138Y450382D01*
X667811Y450763D01*
X667907Y450813D01*
X667987Y451583D01*
X668016Y451993D01*
X668046Y452344D01*
X668075Y452696D01*
Y453018D01*
X668104Y453281D01*
Y453516D01*
Y453691D01*
Y453838D01*
Y453926D01*
Y453955D01*
X668075Y454892D01*
X668046Y455829D01*
X667958Y456679D01*
X667928Y457089D01*
X667870Y457440D01*
X667840Y457791D01*
X667782Y458084D01*
X667753Y458348D01*
X667723Y458582D01*
X667694Y458787D01*
X667665Y458904D01*
X667635Y458992D01*
Y459021D01*
X667492Y459786D01*
X667489Y459783D01*
X667372Y459666D01*
X667255Y459578D01*
X667196Y459549D01*
X667167Y459519D01*
X666757Y459256D01*
X666376Y459080D01*
X666230Y458992D01*
X666113Y458934D01*
X666025Y458904D01*
X665995D01*
X665556Y458758D01*
X665146Y458670D01*
X665000Y458611D01*
X664883D01*
X664795Y458582D01*
X664765D01*
X664355Y458524D01*
X663975Y458494D01*
X663623D01*
X663213Y458524D01*
X662862Y458582D01*
X662715D01*
X662598Y458611D01*
X662540Y458641D01*
X662510D01*
X662130Y458787D01*
X661837Y458963D01*
X661720Y459051D01*
X661632Y459139D01*
X661573Y459168D01*
X661544Y459197D01*
X661251Y459549D01*
X661017Y459900D01*
X660958Y460076D01*
X660900Y460193D01*
X660841Y460281D01*
Y460310D01*
X660753Y460603D01*
X660695Y460896D01*
X660636Y461189D01*
X660607Y461482D01*
Y461716D01*
X660577Y461921D01*
Y462038D01*
Y462097D01*
Y462448D01*
X660607Y462741D01*
X660636Y463034D01*
X660695Y463297D01*
X660724Y463473D01*
X660753Y463649D01*
X660782Y463737D01*
Y463766D01*
X660988Y464293D01*
X661075Y464527D01*
X661193Y464703D01*
X661251Y464879D01*
X661339Y464996D01*
X661368Y465055D01*
X661398Y465084D01*
X661690Y465494D01*
X661983Y465816D01*
X662130Y465933D01*
X662218Y466021D01*
X662276Y466050D01*
X662305Y466079D01*
X662715Y466343D01*
X663067Y466548D01*
X663213Y466636D01*
X663330Y466694D01*
X663418Y466724D01*
X663448D01*
X663916Y466899D01*
X664297Y467017D01*
X664473Y467046D01*
X664590Y467075D01*
X664678Y467104D01*
X664707D01*
X665175Y467192D01*
X665410Y467222D01*
X665585D01*
X665761Y467251D01*
X665995D01*
X666376Y467222D01*
D02*
G37*
G36*
X688663Y468876D02*
X688809Y468818D01*
X688868Y468759D01*
X688897Y468730D01*
X689014Y468613D01*
X689102Y468525D01*
X689132Y468408D01*
X689161Y468378D01*
X689219Y468203D01*
X689249Y468056D01*
Y467939D01*
Y467881D01*
Y465655D01*
X689219Y465303D01*
X689190Y465040D01*
X689161Y464923D01*
Y464835D01*
X689132Y464805D01*
Y464776D01*
X689044Y464542D01*
X688927Y464337D01*
X688839Y464190D01*
X688809Y464132D01*
X688634Y463927D01*
X688429Y463751D01*
X688282Y463634D01*
X688253Y463605D01*
X688224D01*
X687960Y463429D01*
X687697Y463283D01*
X687609Y463224D01*
X687521Y463166D01*
X687462Y463136D01*
X687433D01*
X678208Y457806D01*
Y457748D01*
X687433Y456254D01*
X687784Y456195D01*
X688048Y456137D01*
X688224Y456078D01*
X688253Y456049D01*
X688282D01*
X688517Y455932D01*
X688692Y455844D01*
X688809Y455727D01*
X688839Y455698D01*
X688985Y455493D01*
X689073Y455317D01*
X689102Y455141D01*
X689132Y455112D01*
Y455083D01*
X689190Y454790D01*
X689249Y454526D01*
Y454380D01*
Y454292D01*
Y454233D01*
Y454204D01*
Y452212D01*
Y452037D01*
X689219Y451861D01*
X689190Y451744D01*
X689161Y451715D01*
X689073Y451539D01*
X688985Y451422D01*
X688927Y451305D01*
X688897Y451275D01*
X688780Y451158D01*
X688634Y451041D01*
X688546Y450983D01*
X688487Y450953D01*
X688312Y450865D01*
X688136Y450836D01*
X688019Y450778D01*
X687960D01*
X674137Y448025D01*
X673932D01*
X673874Y448083D01*
X673815Y448142D01*
X673786Y448200D01*
Y448230D01*
X673756Y448376D01*
X673727Y448522D01*
X673698Y448640D01*
Y448669D01*
X673669Y448903D01*
Y449167D01*
Y449342D01*
Y449401D01*
Y449430D01*
Y449752D01*
X673698Y449987D01*
Y450133D01*
Y450192D01*
X673727Y450397D01*
X673756Y450514D01*
X673786Y450602D01*
Y450631D01*
X673844Y450748D01*
X673874Y450836D01*
X673932Y450865D01*
Y450895D01*
X674079Y450983D01*
X674108Y451012D01*
X674137D01*
X686789Y453530D01*
Y453560D01*
X674137Y455375D01*
X673991Y455434D01*
X673874Y455551D01*
X673815Y455668D01*
X673786Y455727D01*
X673756Y455873D01*
X673727Y456049D01*
X673698Y456430D01*
X673669Y456605D01*
Y456752D01*
Y456840D01*
Y456869D01*
Y457133D01*
X673698Y457367D01*
Y457543D01*
X673727Y457718D01*
Y457835D01*
X673756Y457923D01*
Y457982D01*
Y458011D01*
X673844Y458275D01*
X673991Y458480D01*
X674108Y458568D01*
X674166Y458597D01*
X686759Y465626D01*
Y465655D01*
X674137Y463136D01*
X673932D01*
X673874Y463195D01*
X673815Y463253D01*
X673786Y463312D01*
Y463341D01*
X673756Y463488D01*
X673727Y463634D01*
X673698Y463751D01*
Y463781D01*
X673669Y464015D01*
Y464278D01*
Y464454D01*
Y464513D01*
Y464542D01*
Y464835D01*
X673698Y465069D01*
Y465216D01*
Y465274D01*
X673727Y465479D01*
X673756Y465655D01*
X673786Y465743D01*
Y465772D01*
X673844Y465889D01*
X673874Y465948D01*
X673932Y466006D01*
X674079Y466094D01*
X674108Y466123D01*
X674137D01*
X687989Y468876D01*
X688194Y468906D01*
X688517D01*
X688663Y468876D01*
D02*
G37*
G36*
X659055Y498089D02*
X659113Y498060D01*
X659143Y498031D01*
X659201Y497972D01*
X659260Y497884D01*
Y497797D01*
Y497767D01*
Y491119D01*
X659230Y490943D01*
X659172Y490826D01*
X659084Y490738D01*
X659055Y490709D01*
X658879Y490621D01*
X658733Y490533D01*
X658615Y490504D01*
X658557Y490475D01*
X658352Y490416D01*
X658205Y490387D01*
X658088Y490358D01*
X658030D01*
X657854Y490328D01*
X657503D01*
X657385Y490358D01*
X657327Y490387D01*
X657298D01*
X657239Y490475D01*
X657210Y490563D01*
Y490651D01*
Y490680D01*
Y497328D01*
X657239Y497474D01*
X657327Y497621D01*
X657385Y497679D01*
X657415Y497709D01*
X657561Y497797D01*
X657737Y497884D01*
X657854Y497914D01*
X657883Y497943D01*
X658088Y498002D01*
X658235Y498031D01*
X658352Y498060D01*
X658410D01*
X658586Y498089D01*
X658703Y498119D01*
X658938D01*
X659055Y498089D01*
D02*
G37*
G36*
X675923Y509174D02*
X675982Y509145D01*
X676011Y509116D01*
X676099Y509057D01*
X676128Y508969D01*
X676158Y508911D01*
Y508881D01*
Y506333D01*
X688985Y508881D01*
X689132D01*
X689190Y508852D01*
X689219Y508793D01*
X689249Y508735D01*
Y508706D01*
X689278Y508588D01*
X689307Y508471D01*
X689337Y508354D01*
Y508296D01*
X689366Y508061D01*
Y507827D01*
Y507651D01*
Y507593D01*
Y507563D01*
Y507300D01*
Y507124D01*
X689337Y506978D01*
Y506948D01*
Y506802D01*
Y506685D01*
X689307Y506597D01*
Y506568D01*
Y506392D01*
X689278Y506333D01*
Y506304D01*
X689219Y506187D01*
X689190Y506158D01*
Y506128D01*
X687052Y502351D01*
X686935Y502204D01*
X686818Y502087D01*
X686730Y502028D01*
X686672Y501999D01*
X686467Y501911D01*
X686291Y501823D01*
X686144Y501794D01*
X686115Y501765D01*
X686086D01*
X685881Y501735D01*
X685676Y501706D01*
X685559Y501677D01*
X685500D01*
X685324Y501648D01*
X684944D01*
X684856Y501677D01*
X684768D01*
X684651Y501735D01*
X684622Y501765D01*
Y501911D01*
Y501970D01*
Y501999D01*
X684651Y502146D01*
X684709Y502263D01*
X684739Y502380D01*
X684768Y502409D01*
X686144Y505191D01*
X676158Y503200D01*
Y500330D01*
X676128Y500213D01*
X676099Y500125D01*
X676041Y500066D01*
X676011Y500037D01*
X675836Y499890D01*
X675748Y499861D01*
X675719Y499832D01*
X675572Y499773D01*
X675455Y499715D01*
X675338Y499685D01*
X675309D01*
X675162Y499656D01*
X675016Y499598D01*
X674899Y499568D01*
X674869D01*
X674723Y499539D01*
X674606D01*
X674518Y499510D01*
X674079D01*
X673961Y499539D01*
X673874Y499568D01*
X673844D01*
X673786Y499656D01*
X673756Y499715D01*
X673727Y499773D01*
Y499803D01*
Y508383D01*
X673756Y508501D01*
X673786Y508559D01*
X673815Y508618D01*
Y508647D01*
X674020Y508793D01*
X674079Y508852D01*
X674108D01*
X674254Y508911D01*
X674401Y508969D01*
X674489Y508998D01*
X674518D01*
X674694Y509028D01*
X674840Y509057D01*
X674928Y509086D01*
X674957D01*
X675133Y509116D01*
X675250Y509145D01*
X675338Y509174D01*
X675367D01*
X675484Y509203D01*
X675806D01*
X675923Y509174D01*
D02*
G37*
G36*
X665029Y512147D02*
X665585Y512088D01*
X666083Y512059D01*
X666493Y512000D01*
X666815Y511942D01*
X666933D01*
X667020Y511912D01*
X667079D01*
X667665Y511795D01*
X668192Y511707D01*
X668690Y511590D01*
X669129Y511473D01*
X669481Y511385D01*
X669773Y511297D01*
X669949Y511268D01*
X669978Y511239D01*
X670008D01*
X670125Y511180D01*
X670154Y511151D01*
Y511122D01*
X670183Y511063D01*
X670213Y511004D01*
X670242Y510946D01*
Y510917D01*
X670271Y510799D01*
X670301Y510682D01*
X670330Y510565D01*
Y510536D01*
X670359Y510360D01*
Y510185D01*
Y510067D01*
Y510038D01*
Y510009D01*
Y509687D01*
X670330Y509452D01*
X670301Y509306D01*
Y509247D01*
X670271Y509072D01*
X670213Y508955D01*
X670183Y508867D01*
X670154Y508837D01*
X670096Y508779D01*
X670008Y508720D01*
X669949Y508691D01*
X669715D01*
X669627Y508720D01*
X669598D01*
X669188Y508808D01*
X668807Y508867D01*
X668661Y508896D01*
X668543Y508925D01*
X668426D01*
X667958Y509013D01*
X667577Y509072D01*
X667401D01*
X667284Y509101D01*
X667167D01*
X666698Y509130D01*
X666464Y509160D01*
X666288D01*
X666113Y509189D01*
X665878D01*
X665439Y509218D01*
X665058Y509247D01*
X664707D01*
X663536Y509218D01*
X662979Y509160D01*
X662452Y509130D01*
X662013Y509072D01*
X661837Y509042D01*
X661661Y509013D01*
X661544D01*
X661456Y508984D01*
X661368D01*
X660695Y508867D01*
X660050Y508750D01*
X659435Y508603D01*
X658879Y508486D01*
X658381Y508369D01*
X658176Y508310D01*
X658000Y508252D01*
X657883Y508222D01*
X657766Y508193D01*
X657708Y508164D01*
X657678D01*
X656946Y507959D01*
X656243Y507724D01*
X655599Y507490D01*
X654984Y507256D01*
X654486Y507051D01*
X654281Y506963D01*
X654105Y506875D01*
X653959Y506817D01*
X653842Y506758D01*
X653783Y506729D01*
X653754D01*
X653022Y506377D01*
X652290Y506026D01*
X651616Y505675D01*
X651001Y505352D01*
X650737Y505206D01*
X650474Y505059D01*
X650269Y504942D01*
X650093Y504825D01*
X649947Y504737D01*
X649829Y504679D01*
X649771Y504649D01*
X649742Y504620D01*
X649624Y504562D01*
X649537Y504532D01*
X649449D01*
X649361Y504562D01*
X649302Y504620D01*
X649273Y504649D01*
X649244Y504679D01*
X649185Y504796D01*
X649127Y504942D01*
X649097Y505059D01*
Y505089D01*
X649068Y505294D01*
X649039Y505528D01*
Y505704D01*
Y505733D01*
Y505762D01*
Y506055D01*
X649068Y506260D01*
Y506377D01*
Y506436D01*
X649097Y506641D01*
X649127Y506787D01*
X649156Y506875D01*
Y506904D01*
X649214Y507022D01*
X649244Y507109D01*
X649302Y507139D01*
Y507168D01*
X649419Y507314D01*
X649449Y507373D01*
X649478D01*
X650239Y507871D01*
X650972Y508310D01*
X651645Y508691D01*
X652260Y509042D01*
X652524Y509160D01*
X652758Y509306D01*
X652963Y509394D01*
X653139Y509482D01*
X653285Y509570D01*
X653373Y509628D01*
X653432Y509657D01*
X653461D01*
X654164Y509980D01*
X654867Y510302D01*
X655482Y510536D01*
X656038Y510770D01*
X656507Y510917D01*
X656712Y511004D01*
X656858Y511063D01*
X657005Y511092D01*
X657093Y511122D01*
X657151Y511151D01*
X657180D01*
X657854Y511356D01*
X658498Y511502D01*
X659084Y511649D01*
X659582Y511766D01*
X660021Y511825D01*
X660197Y511883D01*
X660343D01*
X660460Y511912D01*
X660577Y511942D01*
X660636D01*
X661251Y512030D01*
X661808Y512088D01*
X662335Y512117D01*
X662833Y512147D01*
X663213Y512176D01*
X664414D01*
X665029Y512147D01*
D02*
G37*
G36*
X686789Y523671D02*
X687140Y523612D01*
X687287Y523554D01*
X687404Y523524D01*
X687462Y523495D01*
X687492D01*
X687872Y523290D01*
X688194Y523056D01*
X688312Y522968D01*
X688399Y522880D01*
X688458Y522822D01*
X688487Y522792D01*
X688663Y522587D01*
X688809Y522382D01*
X689044Y521943D01*
X689132Y521738D01*
X689190Y521591D01*
X689249Y521474D01*
Y521445D01*
X689337Y521123D01*
X689425Y520771D01*
X689483Y520420D01*
X689512Y520098D01*
X689542Y519776D01*
Y519542D01*
Y519395D01*
Y519366D01*
Y519337D01*
Y518956D01*
X689512Y518575D01*
X689483Y518253D01*
X689454Y517960D01*
X689395Y517696D01*
X689366Y517521D01*
X689337Y517404D01*
Y517374D01*
X689249Y517081D01*
X689161Y516789D01*
X689073Y516525D01*
X688956Y516320D01*
X688897Y516144D01*
X688809Y515998D01*
X688780Y515910D01*
X688751Y515881D01*
X688487Y515441D01*
X688341Y515236D01*
X688224Y515090D01*
X688107Y514944D01*
X688019Y514856D01*
X687960Y514797D01*
X687931Y514768D01*
X687579Y514446D01*
X687257Y514211D01*
X687140Y514123D01*
X687023Y514065D01*
X686964Y514006D01*
X686935D01*
X686554Y513801D01*
X686232Y513684D01*
X686086Y513626D01*
X685969Y513596D01*
X685910Y513567D01*
X685881D01*
X685471Y513508D01*
X685119Y513479D01*
X685002Y513450D01*
X684797D01*
X684446Y513479D01*
X684124Y513508D01*
X683860Y513596D01*
X683596Y513684D01*
X683391Y513743D01*
X683245Y513831D01*
X683128Y513860D01*
X683099Y513889D01*
X682835Y514094D01*
X682571Y514328D01*
X682337Y514563D01*
X682132Y514826D01*
X681956Y515031D01*
X681839Y515207D01*
X681751Y515324D01*
X681722Y515383D01*
X681546Y515031D01*
X681400Y514739D01*
X681224Y514446D01*
X681078Y514211D01*
X680961Y514006D01*
X680844Y513831D01*
X680785Y513743D01*
X680756Y513713D01*
X680375Y513216D01*
X680170Y512981D01*
X679994Y512806D01*
X679848Y512659D01*
X679731Y512542D01*
X679672Y512483D01*
X679643Y512454D01*
X679204Y512132D01*
X678794Y511898D01*
X678618Y511810D01*
X678471Y511751D01*
X678384Y511693D01*
X678354D01*
X677856Y511546D01*
X677593Y511488D01*
X677358Y511459D01*
X677183D01*
X677036Y511429D01*
X676890D01*
X676363Y511488D01*
X676099Y511517D01*
X675894Y511576D01*
X675719Y511634D01*
X675601Y511664D01*
X675514Y511722D01*
X675484D01*
X675045Y511986D01*
X674723Y512279D01*
X674576Y512396D01*
X674489Y512513D01*
X674430Y512571D01*
X674401Y512601D01*
X674108Y513069D01*
X673903Y513567D01*
X673815Y513743D01*
X673786Y513918D01*
X673727Y514036D01*
Y514065D01*
X673581Y514768D01*
X673522Y515119D01*
X673493Y515471D01*
Y515734D01*
X673464Y515969D01*
Y516115D01*
Y516174D01*
Y516642D01*
X673493Y517081D01*
X673551Y517462D01*
X673581Y517784D01*
X673639Y518048D01*
X673669Y518253D01*
X673698Y518399D01*
Y518429D01*
X673786Y518780D01*
X673903Y519102D01*
X673991Y519395D01*
X674108Y519659D01*
X674166Y519864D01*
X674254Y520010D01*
X674284Y520098D01*
X674313Y520127D01*
X674635Y520596D01*
X674781Y520801D01*
X674928Y520976D01*
X675045Y521123D01*
X675133Y521211D01*
X675191Y521269D01*
X675221Y521299D01*
X675601Y521621D01*
X675953Y521855D01*
X676070Y521943D01*
X676187Y522001D01*
X676246Y522060D01*
X676275D01*
X676685Y522236D01*
X677036Y522382D01*
X677153Y522411D01*
X677271Y522441D01*
X677329Y522470D01*
X677358D01*
X677739Y522529D01*
X678061Y522587D01*
X678354D01*
X678706Y522558D01*
X678999Y522529D01*
X679116Y522499D01*
X679204Y522470D01*
X679262Y522441D01*
X679291D01*
X679614Y522324D01*
X679906Y522177D01*
X680024Y522089D01*
X680111Y522060D01*
X680141Y522001D01*
X680170D01*
X680492Y521767D01*
X680756Y521533D01*
X680931Y521357D01*
X680961Y521299D01*
X680990Y521269D01*
X681283Y520918D01*
X681546Y520566D01*
X681634Y520420D01*
X681722Y520332D01*
X681751Y520244D01*
X681781Y520215D01*
X682074Y520742D01*
X682220Y520976D01*
X682337Y521152D01*
X682454Y521328D01*
X682513Y521445D01*
X682571Y521533D01*
X682601Y521562D01*
X682952Y522001D01*
X683128Y522206D01*
X683304Y522353D01*
X683421Y522499D01*
X683538Y522587D01*
X683596Y522646D01*
X683626Y522675D01*
X684065Y522997D01*
X684446Y523232D01*
X684622Y523290D01*
X684739Y523349D01*
X684827Y523407D01*
X684856D01*
X685383Y523583D01*
X685647Y523642D01*
X685881Y523671D01*
X686086Y523700D01*
X686379D01*
X686789Y523671D01*
D02*
G37*
G36*
X685002Y498983D02*
X685061Y498953D01*
Y498924D01*
X685119Y498865D01*
X685178Y498778D01*
X685207Y498719D01*
Y498690D01*
X685237Y498573D01*
X685266Y498426D01*
X685295Y498309D01*
Y498250D01*
X685324Y498016D01*
Y497782D01*
Y497606D01*
Y497547D01*
Y497518D01*
Y497196D01*
Y496962D01*
X685295Y496786D01*
Y496757D01*
Y496727D01*
X685266Y496522D01*
X685237Y496347D01*
X685207Y496230D01*
Y496200D01*
X685149Y496054D01*
X685090Y495937D01*
X685061Y495878D01*
X685032Y495849D01*
X684885Y495703D01*
X684827Y495644D01*
X684797Y495615D01*
X680521Y491602D01*
X689893Y493477D01*
X690040D01*
X690098Y493447D01*
X690186Y493389D01*
X690245Y493330D01*
X690274Y493272D01*
Y493242D01*
X690303Y493125D01*
X690332Y492979D01*
X690362Y492862D01*
Y492803D01*
X690391Y492569D01*
X690420Y492335D01*
Y492159D01*
Y492100D01*
Y492071D01*
Y491778D01*
X690391Y491544D01*
X690362Y491397D01*
Y491339D01*
X690332Y491134D01*
X690303Y490987D01*
X690274Y490870D01*
Y490841D01*
X690215Y490724D01*
X690157Y490636D01*
X690127Y490607D01*
X690098Y490577D01*
X690040Y490519D01*
X689952Y490490D01*
X689893D01*
X674108Y487327D01*
X673903D01*
X673844Y487385D01*
X673786Y487444D01*
X673756Y487502D01*
Y487532D01*
X673727Y487678D01*
Y487825D01*
X673698Y487942D01*
Y487971D01*
X673669Y488205D01*
Y488469D01*
Y488644D01*
Y488703D01*
Y488732D01*
Y489025D01*
X673698Y489230D01*
Y489377D01*
Y489435D01*
X673727Y489640D01*
X673756Y489816D01*
X673786Y489904D01*
Y489933D01*
X673844Y490050D01*
X673874Y490138D01*
X673932Y490167D01*
Y490197D01*
X673991Y490285D01*
X674079Y490314D01*
X674108Y490343D01*
X674137D01*
X679789Y491456D01*
X674166Y494004D01*
X673991Y494062D01*
X673932Y494092D01*
X673903D01*
X673786Y494238D01*
X673756Y494297D01*
Y494326D01*
X673727Y494473D01*
Y494619D01*
X673698Y494736D01*
Y494795D01*
X673669Y495029D01*
Y495293D01*
Y495410D01*
Y495498D01*
Y495556D01*
Y495585D01*
Y495908D01*
X673698Y496171D01*
Y496317D01*
Y496376D01*
X673727Y496581D01*
X673756Y496757D01*
X673786Y496845D01*
Y496874D01*
X673844Y496991D01*
X673903Y497079D01*
X673932Y497108D01*
X673961Y497137D01*
X674049Y497196D01*
X674137Y497225D01*
X674313D01*
X674430Y497196D01*
X674518Y497167D01*
X674547D01*
X674723Y497137D01*
X674899Y497079D01*
X675016Y497020D01*
X675045Y496991D01*
X680199Y494560D01*
X683772Y498309D01*
X684036Y498543D01*
X684241Y498719D01*
X684387Y498807D01*
X684417Y498836D01*
X684592Y498953D01*
X684739Y498983D01*
X684856Y499012D01*
X684944D01*
X685002Y498983D01*
D02*
G37*
%LPC*%
G36*
X665966Y497123D02*
X665556D01*
X665351Y497094D01*
X665205Y497064D01*
X665146D01*
X664883Y497035D01*
X664678Y496977D01*
X664502Y496947D01*
X664473Y496918D01*
X664443D01*
X664180Y496830D01*
X663975Y496742D01*
X663799Y496684D01*
X663770Y496654D01*
X663740D01*
X663506Y496537D01*
X663301Y496420D01*
X663184Y496303D01*
X663125Y496274D01*
X662950Y496098D01*
X662833Y495922D01*
X662745Y495776D01*
X662715Y495746D01*
Y495717D01*
X662628Y495483D01*
X662598Y495249D01*
X662569Y495073D01*
Y495014D01*
Y494985D01*
X662598Y494751D01*
X662628Y494575D01*
X662657Y494429D01*
Y494399D01*
X662745Y494253D01*
X662833Y494136D01*
X662891Y494077D01*
X662920Y494048D01*
X663067Y493960D01*
X663184Y493901D01*
X663301Y493843D01*
X663330D01*
X663506Y493814D01*
X664004D01*
X664209Y493843D01*
X664385D01*
X664648Y493872D01*
X664883Y493901D01*
X665029Y493960D01*
X665088D01*
X665351Y494048D01*
X665585Y494136D01*
X665761Y494194D01*
X665790Y494224D01*
X665820D01*
X666054Y494341D01*
X666259Y494458D01*
X666376Y494575D01*
X666435Y494604D01*
X666640Y494780D01*
X666786Y494985D01*
X666805Y495010D01*
X666786Y495073D01*
X666698Y495395D01*
X666610Y495688D01*
X666523Y495951D01*
X666435Y496186D01*
X666376Y496361D01*
X666318Y496479D01*
X666288Y496566D01*
Y496596D01*
X666230Y496713D01*
Y496771D01*
X666288Y496918D01*
X666318Y496947D01*
X666415Y496986D01*
X666318Y497035D01*
X666288D01*
X666113Y497094D01*
X665966Y497123D01*
D02*
G37*
G36*
X679701Y442167D02*
Y437804D01*
X686291Y441259D01*
X679701Y442167D01*
D02*
G37*
G36*
X665966Y464527D02*
X665556D01*
X665351Y464498D01*
X665205Y464469D01*
X665146D01*
X664883Y464440D01*
X664678Y464381D01*
X664502Y464352D01*
X664473Y464322D01*
X664443D01*
X664180Y464235D01*
X663975Y464147D01*
X663799Y464088D01*
X663770Y464059D01*
X663740D01*
X663506Y463942D01*
X663301Y463825D01*
X663184Y463707D01*
X663125Y463678D01*
X662950Y463502D01*
X662833Y463327D01*
X662745Y463180D01*
X662715Y463151D01*
Y463122D01*
X662628Y462887D01*
X662598Y462653D01*
X662569Y462477D01*
Y462419D01*
Y462389D01*
X662598Y462155D01*
X662628Y461979D01*
X662657Y461833D01*
Y461804D01*
X662745Y461657D01*
X662833Y461540D01*
X662891Y461482D01*
X662920Y461452D01*
X663067Y461364D01*
X663184Y461306D01*
X663301Y461247D01*
X663330D01*
X663506Y461218D01*
X664004D01*
X664209Y461247D01*
X664385D01*
X664648Y461277D01*
X664883Y461306D01*
X665029Y461364D01*
X665088D01*
X665351Y461452D01*
X665585Y461540D01*
X665761Y461599D01*
X665790Y461628D01*
X665820D01*
X666054Y461745D01*
X666259Y461862D01*
X666376Y461979D01*
X666435Y462009D01*
X666640Y462184D01*
X666786Y462389D01*
X666805Y462415D01*
X666786Y462477D01*
X666698Y462799D01*
X666610Y463092D01*
X666523Y463356D01*
X666435Y463590D01*
X666376Y463766D01*
X666318Y463883D01*
X666288Y463971D01*
Y464000D01*
X666230Y464117D01*
Y464176D01*
X666288Y464322D01*
X666318Y464352D01*
X666415Y464391D01*
X666318Y464440D01*
X666288D01*
X666113Y464498D01*
X665966Y464527D01*
D02*
G37*
G36*
X686086Y520625D02*
X685939D01*
X685617Y520596D01*
X685324Y520537D01*
X685207Y520508D01*
X685119Y520479D01*
X685090Y520449D01*
X685061D01*
X684768Y520303D01*
X684534Y520127D01*
X684358Y520010D01*
X684329Y519981D01*
X684299Y519952D01*
X684036Y519688D01*
X683831Y519424D01*
X683743Y519307D01*
X683684Y519219D01*
X683655Y519161D01*
X683626Y519131D01*
X683421Y518751D01*
X683216Y518399D01*
X683157Y518253D01*
X683099Y518136D01*
X683040Y518048D01*
Y518019D01*
X683216Y517696D01*
X683391Y517433D01*
X683509Y517286D01*
X683538Y517228D01*
X683714Y517023D01*
X683889Y516876D01*
X684007Y516789D01*
X684036Y516759D01*
X684212Y516642D01*
X684358Y516584D01*
X684475Y516525D01*
X684504D01*
X684709Y516496D01*
X685032D01*
X685324Y516525D01*
X685559Y516554D01*
X685734Y516584D01*
X685764Y516613D01*
X685793D01*
X686086Y516730D01*
X686291Y516876D01*
X686437Y516994D01*
X686496Y517052D01*
X686701Y517286D01*
X686877Y517521D01*
X686994Y517726D01*
X687023Y517755D01*
Y517784D01*
X687140Y518165D01*
X687199Y518546D01*
X687228Y518692D01*
Y518809D01*
Y518897D01*
Y518926D01*
X687199Y519249D01*
X687169Y519512D01*
X687140Y519659D01*
X687111Y519717D01*
X687023Y519952D01*
X686935Y520127D01*
X686847Y520215D01*
X686818Y520244D01*
X686672Y520391D01*
X686554Y520479D01*
X686437Y520508D01*
X686408Y520537D01*
X686232Y520596D01*
X686086Y520625D01*
D02*
G37*
G36*
X678325Y519424D02*
X678149D01*
X677798Y519395D01*
X677534Y519337D01*
X677417Y519307D01*
X677329Y519278D01*
X677271Y519249D01*
X677241D01*
X676948Y519102D01*
X676685Y518926D01*
X676538Y518780D01*
X676509Y518751D01*
X676480Y518721D01*
X676275Y518458D01*
X676099Y518165D01*
X676041Y518048D01*
X675982Y517960D01*
X675953Y517901D01*
Y517872D01*
X675865Y517462D01*
X675806Y517052D01*
X675777Y516876D01*
Y516730D01*
Y516642D01*
Y516613D01*
X675806Y516203D01*
X675836Y515881D01*
Y515764D01*
X675865Y515676D01*
Y515646D01*
Y515617D01*
X675953Y515354D01*
X676070Y515178D01*
X676158Y515031D01*
X676187Y515002D01*
X676363Y514856D01*
X676538Y514739D01*
X676656Y514680D01*
X676685Y514651D01*
X676890Y514592D01*
X677066Y514563D01*
X677241D01*
X677563Y514592D01*
X677827Y514621D01*
X678003Y514651D01*
X678032Y514680D01*
X678061D01*
X678354Y514826D01*
X678618Y514973D01*
X678794Y515090D01*
X678823Y515149D01*
X678852D01*
X679145Y515441D01*
X679409Y515764D01*
X679496Y515881D01*
X679584Y515998D01*
X679614Y516056D01*
X679643Y516086D01*
X679936Y516554D01*
X680170Y517052D01*
X680287Y517228D01*
X680375Y517404D01*
X680404Y517521D01*
X680434Y517550D01*
X680199Y517901D01*
X679994Y518194D01*
X679877Y518370D01*
X679819Y518399D01*
Y518429D01*
X679614Y518692D01*
X679438Y518868D01*
X679321Y518985D01*
X679262Y519014D01*
X679057Y519161D01*
X678881Y519278D01*
X678764Y519307D01*
X678706Y519337D01*
X678501Y519395D01*
X678325Y519424D01*
D02*
G37*
%LPD*%
D48*
X513460Y558800D02*
D03*
X497460D02*
D03*
D53*
X290830Y408940D02*
D03*
X316230D02*
D03*
X341630D02*
D03*
D59*
X440690Y535880D02*
D03*
X490690D02*
D03*
D60*
X318531Y446080D02*
D03*
Y471480D02*
D03*
Y496880D02*
D03*
Y522280D02*
D03*
D61*
X241320Y542371D02*
D03*
Y425369D02*
D03*
D62*
X242019Y506369D02*
D03*
Y461371D02*
D03*
D63*
X245321Y425369D02*
D03*
X249319D02*
D03*
X237320D02*
D03*
X233319D02*
D03*
X245321Y542371D02*
D03*
X249319D02*
D03*
X237320D02*
D03*
X233319D02*
D03*
D64*
X652971Y435882D02*
D03*
Y515882D02*
D03*
D65*
X440690Y518882D02*
D03*
X419862Y454152D02*
D03*
X524764Y473880D02*
D03*
X343547Y508901D02*
D03*
X404876Y515874D02*
D03*
X404920Y493914D02*
D03*
X400304Y421386D02*
D03*
X366268D02*
D03*
X454914Y468376D02*
D03*
X389636D02*
D03*
X328930Y473710D02*
D03*
X291193Y480314D02*
D03*
X431292Y412496D02*
D03*
X460756Y455930D02*
D03*
X485902Y470408D02*
D03*
X466832Y550398D02*
D03*
X457454Y525526D02*
D03*
X332486Y442722D02*
D03*
X360680Y449580D02*
D03*
X465836Y480822D02*
D03*
X385572Y435102D02*
D03*
X364744Y458470D02*
D03*
X342646Y490474D02*
D03*
X250444Y477012D02*
D03*
X284988Y434340D02*
D03*
X314960Y430530D02*
D03*
X328930Y422656D02*
D03*
X357378Y411480D02*
D03*
X391414Y540512D02*
D03*
X558292Y520192D02*
D03*
X394268Y552704D02*
D03*
X520700Y508000D02*
D03*
X452120Y513588D02*
D03*
X220726Y484886D02*
D03*
X337312Y472694D02*
D03*
X377444Y478790D02*
D03*
X490982Y475742D02*
D03*
X302514Y519684D02*
D03*
X536702Y558546D02*
D03*
X531368Y551434D02*
D03*
X504698Y521716D02*
D03*
X432396Y528408D02*
D03*
X392938Y508000D02*
D03*
X288036Y551180D02*
D03*
X410718Y506730D02*
D03*
D66*
X627200Y495300D02*
D03*
Y520700D02*
D03*
Y469900D02*
D03*
Y444500D02*
D03*
X541200D02*
D03*
Y469900D02*
D03*
Y495300D02*
D03*
Y520700D02*
D03*
D67*
X373496Y411596D02*
D03*
X384810Y422910D02*
D03*
D68*
X368184Y533516D02*
D03*
X352627Y517960D02*
D03*
X341314Y529273D02*
D03*
X356870Y544830D02*
D03*
D69*
X327776Y539866D02*
D03*
X339090Y551180D02*
D03*
X367607Y438891D02*
D03*
X356293Y427578D02*
D03*
D70*
X381577Y546793D02*
D03*
X370263Y558107D02*
D03*
X498741Y414713D02*
D03*
X487427Y426027D02*
D03*
D71*
X513080Y540510D02*
D03*
Y524510D02*
D03*
D72*
X423217Y416351D02*
D03*
X417650Y421919D02*
D03*
X411902Y427666D02*
D03*
X406334Y433234D02*
D03*
X400587Y438982D02*
D03*
X395019Y444549D02*
D03*
X389452Y450117D02*
D03*
X383704Y455864D02*
D03*
X378136Y461432D02*
D03*
X372389Y467180D02*
D03*
X366821Y472747D02*
D03*
X448003Y553929D02*
D03*
X453570Y548361D02*
D03*
X459318Y542614D02*
D03*
X464885Y537046D02*
D03*
X470633Y531298D02*
D03*
X476201Y525731D02*
D03*
X481768Y520163D02*
D03*
X487516Y514416D02*
D03*
X493084Y508848D02*
D03*
X498831Y503100D02*
D03*
X504399Y497533D02*
D03*
D73*
X366821D02*
D03*
X372389Y503100D02*
D03*
X378136Y508848D02*
D03*
X383704Y514416D02*
D03*
X389452Y520163D02*
D03*
X395019Y525731D02*
D03*
X400587Y531298D02*
D03*
X406334Y537046D02*
D03*
X411902Y542614D02*
D03*
X417650Y548361D02*
D03*
X423217Y553929D02*
D03*
X504399Y472747D02*
D03*
X498831Y467180D02*
D03*
X493084Y461432D02*
D03*
X487516Y455864D02*
D03*
X481768Y450117D02*
D03*
X476201Y444549D02*
D03*
X470633Y438982D02*
D03*
X464885Y433234D02*
D03*
X459318Y427666D02*
D03*
X453570Y421919D02*
D03*
X448003Y416351D02*
D03*
M02*
