G04 Layer_Physical_Order=1*
G04 Layer_Color=255*
%FSLAX44Y44*%
%MOMM*%
G71*
G01*
G75*
%ADD10R,1.0000X0.9000*%
G04:AMPARAMS|DCode=11|XSize=0.8mm|YSize=1.2mm|CornerRadius=0mm|HoleSize=0mm|Usage=FLASHONLY|Rotation=235.000|XOffset=0mm|YOffset=0mm|HoleType=Round|Shape=Rectangle|*
%AMROTATEDRECTD11*
4,1,4,-0.2621,0.6718,0.7209,-0.0165,0.2621,-0.6718,-0.7209,0.0165,-0.2621,0.6718,0.0*
%
%ADD11ROTATEDRECTD11*%

%ADD12R,0.9000X1.0000*%
%ADD13R,0.9500X1.0000*%
%ADD14R,2.1500X3.2500*%
%ADD15R,2.1500X0.9500*%
%ADD16R,1.9000X1.8000*%
%ADD17R,1.8000X1.7000*%
%ADD18R,2.0000X2.0000*%
%ADD19R,2.5001X0.8001*%
%ADD20R,1.4001X0.7000*%
%ADD21R,1.4001X1.9500*%
%ADD22R,1.4001X1.2799*%
%ADD23R,2.0000X1.4001*%
%ADD24C,0.2540*%
%ADD25C,1.1000*%
%ADD26C,1.2002*%
%ADD27O,3.5560X1.7780*%
%ADD28C,1.1001*%
%ADD29C,0.8001*%
%ADD30C,1.2499*%
%ADD31C,0.5000*%
G36*
X500622Y469761D02*
X494556Y463695D01*
X493938Y462771D01*
X493721Y461681D01*
X493721Y461680D01*
Y457380D01*
X491570D01*
X490404Y456896D01*
X489920Y455730D01*
Y446730D01*
X489957Y446643D01*
X489108Y445373D01*
X484982D01*
X484133Y446643D01*
X484170Y446730D01*
Y455730D01*
X483686Y456896D01*
X482520Y457380D01*
X472520D01*
X471354Y456896D01*
X470870Y455730D01*
Y454079D01*
X461251D01*
X461251Y454079D01*
X460161Y453862D01*
X459237Y453244D01*
X459237Y453244D01*
X457283Y451290D01*
X456110Y451776D01*
Y458390D01*
X456405Y458832D01*
X469167D01*
X469167Y458832D01*
X470258Y459049D01*
X471182Y459666D01*
X482547Y471031D01*
X500096D01*
X500622Y469761D01*
D02*
G37*
G36*
X535621Y470380D02*
X536105Y469214D01*
X536455Y469068D01*
Y467694D01*
X536105Y467548D01*
X535621Y466382D01*
Y459382D01*
X536105Y458215D01*
X536458Y458069D01*
Y456694D01*
X536105Y456548D01*
X535621Y455381D01*
Y454730D01*
X531611D01*
X522515Y463826D01*
X522639Y465090D01*
X522955Y465301D01*
X523845Y466632D01*
X524157Y468202D01*
X523923Y469377D01*
X524671Y470647D01*
X535621D01*
Y470380D01*
D02*
G37*
G36*
X287653Y462091D02*
X287127Y460821D01*
X265876D01*
X259919Y466777D01*
X260405Y467951D01*
X281794D01*
X287653Y462091D01*
D02*
G37*
G36*
X249881Y480853D02*
Y471170D01*
X249881Y471170D01*
X250098Y470080D01*
X250716Y469156D01*
X251376Y468495D01*
Y468443D01*
X251376Y468443D01*
X251593Y467353D01*
X252210Y466429D01*
X262681Y455958D01*
X262681Y455958D01*
X262934Y455789D01*
X262549Y454519D01*
X257019D01*
X255852Y454036D01*
X255369Y452869D01*
Y444868D01*
X255852Y443702D01*
X257019Y443219D01*
X277821D01*
Y440310D01*
X277821Y440310D01*
X278038Y439220D01*
X278656Y438296D01*
X283496Y433456D01*
X283496Y433456D01*
X284420Y432838D01*
X285510Y432621D01*
X285510Y432621D01*
X302470D01*
X302996Y431351D01*
X301673Y430028D01*
X283109D01*
X273567Y439570D01*
X272643Y440188D01*
X271553Y440405D01*
X271553Y440405D01*
X228233D01*
Y462705D01*
X246318Y480790D01*
X246380Y480778D01*
X247950Y481090D01*
X248611Y481532D01*
X249881Y480853D01*
D02*
G37*
G36*
X446517Y481634D02*
Y480360D01*
X445210D01*
X444044Y479876D01*
X443560Y478710D01*
Y468710D01*
X444044Y467544D01*
X445210Y467060D01*
X454710D01*
X455876Y467544D01*
X456051Y467966D01*
X456266Y468033D01*
X457440Y468000D01*
X458109Y466999D01*
X459440Y466110D01*
X461010Y465797D01*
X462580Y466110D01*
X463911Y466999D01*
X464800Y468330D01*
X465113Y469900D01*
X465902Y470861D01*
X468655D01*
X469539Y469539D01*
X470535Y468873D01*
X470904Y467446D01*
X467987Y464529D01*
X441199D01*
X439652Y466076D01*
X439876Y467544D01*
X440360Y468710D01*
Y478710D01*
X439876Y479876D01*
X438710Y480360D01*
X429210D01*
X428044Y479876D01*
X427560Y478710D01*
Y476773D01*
X419447D01*
X419447Y476773D01*
X418357Y476556D01*
X418026Y476334D01*
X416836Y475886D01*
X415670Y476370D01*
X414587D01*
X414382Y476620D01*
X414636Y478317D01*
X414803Y478429D01*
X415693Y479760D01*
X416005Y481330D01*
X415693Y482900D01*
X415251Y483561D01*
X415930Y484831D01*
X443320D01*
X446517Y481634D01*
D02*
G37*
G36*
X392520Y445606D02*
X391347Y445120D01*
X391223Y445244D01*
X390299Y445862D01*
X389209Y446079D01*
X389208Y446079D01*
X335201D01*
X334534Y446916D01*
X335041Y448077D01*
X365391D01*
X366037Y447645D01*
X367607Y447333D01*
X369177Y447645D01*
X370508Y448535D01*
X371397Y449866D01*
X371710Y451436D01*
X371397Y453006D01*
X370508Y454337D01*
X370487Y454351D01*
X370872Y455621D01*
X392520D01*
Y445606D01*
D02*
G37*
G36*
X392850Y428376D02*
X392850Y428376D01*
X393774Y427758D01*
X394865Y427541D01*
X434910D01*
X435830Y426763D01*
X436019Y426356D01*
Y424807D01*
X435914Y424703D01*
X433417D01*
X433417Y424703D01*
X432341Y424489D01*
X429460D01*
X428987Y424583D01*
X428987Y424583D01*
X406673D01*
X406673Y424583D01*
X406200Y424489D01*
X404060D01*
X403587Y424583D01*
X403587Y424583D01*
X381273D01*
X381273Y424583D01*
X380183Y424366D01*
X379258Y423748D01*
X379258Y423748D01*
X377622Y422112D01*
X377004Y421187D01*
X376885Y420590D01*
X370981D01*
X370446Y420947D01*
X369356Y421164D01*
X368849D01*
X367759Y420947D01*
X367224Y420590D01*
X357030D01*
X355864Y420106D01*
X355380Y418940D01*
Y409396D01*
X355239Y409301D01*
X354550Y408270D01*
X353280Y408605D01*
Y418940D01*
X352796Y420106D01*
X351630Y420590D01*
X340175D01*
X339369Y421571D01*
X339383Y421640D01*
X339071Y423210D01*
X338181Y424541D01*
X336850Y425430D01*
X335280Y425743D01*
X333994Y425487D01*
X333312Y426209D01*
X333155Y426516D01*
X333470Y426988D01*
X333782Y428558D01*
X333542Y429763D01*
X334763Y430134D01*
X335004Y429554D01*
X336170Y429070D01*
X357670D01*
X358836Y429554D01*
X359320Y430720D01*
Y435301D01*
X370606D01*
X374046Y431862D01*
X374034Y431800D01*
X374346Y430230D01*
X375235Y428899D01*
X376566Y428009D01*
X378136Y427697D01*
X379706Y428009D01*
X381037Y428899D01*
X381927Y430230D01*
X382239Y431800D01*
X381927Y433370D01*
X381485Y434031D01*
X382164Y435301D01*
X385924D01*
X392850Y428376D01*
D02*
G37*
G36*
X535621Y437380D02*
X536105Y436214D01*
X536458Y436068D01*
Y434693D01*
X536105Y434546D01*
X535621Y433380D01*
Y426380D01*
X536105Y425213D01*
X536455Y425068D01*
Y423693D01*
X536105Y423548D01*
X535621Y422382D01*
Y415381D01*
X536105Y414215D01*
X537271Y413732D01*
X544031D01*
X544645Y412462D01*
X544321Y411679D01*
Y408570D01*
X543051Y408185D01*
X542651Y408783D01*
X541320Y409672D01*
X539750Y409985D01*
X538180Y409672D01*
X536849Y408783D01*
X536384Y408087D01*
X514491D01*
X507035Y413307D01*
X505802Y413581D01*
X504737Y412902D01*
Y412902D01*
X502507Y409717D01*
X501314Y410227D01*
X501563Y411480D01*
X501250Y413050D01*
X500361Y414381D01*
X499030Y415271D01*
X497460Y415583D01*
X495890Y415271D01*
X494559Y414381D01*
X493670Y413050D01*
X493357Y411480D01*
X493670Y409910D01*
X494039Y409357D01*
X493360Y408087D01*
X482741D01*
X475285Y413307D01*
X474052Y413581D01*
X472987Y412902D01*
Y412902D01*
X469616Y408087D01*
X453531D01*
X446796Y412802D01*
Y416588D01*
X448066Y416958D01*
X448335Y416535D01*
X458165Y409653D01*
X459398Y409379D01*
X460462Y410058D01*
Y410058D01*
X465051Y416611D01*
X465324Y417844D01*
X464646Y418908D01*
X462480Y420425D01*
X462589Y420971D01*
X462589Y420971D01*
Y422331D01*
X470097Y429839D01*
X471342Y429591D01*
X471354Y429564D01*
X472520Y429080D01*
X481790D01*
X482795Y427946D01*
X482805Y427907D01*
X482752Y427643D01*
X482752Y427643D01*
Y426038D01*
X481729Y425386D01*
Y425386D01*
X477140Y418833D01*
X476867Y417600D01*
X477545Y416535D01*
X487375Y409653D01*
X488608Y409379D01*
X489673Y410058D01*
Y410058D01*
X494261Y416611D01*
X494534Y417844D01*
X493856Y418908D01*
X491929Y420258D01*
X492213Y421609D01*
X492465Y421660D01*
X493796Y422549D01*
X493831Y422601D01*
X506467D01*
X506502Y422549D01*
X507833Y421660D01*
X509137Y421400D01*
X509879Y420246D01*
X508890Y418833D01*
X508617Y417600D01*
X509295Y416535D01*
X519125Y409653D01*
X520358Y409379D01*
X521423Y410058D01*
Y410058D01*
X526011Y416611D01*
X526284Y417844D01*
X525606Y418908D01*
X519739Y423017D01*
Y429080D01*
X521890D01*
X523056Y429564D01*
X523540Y430730D01*
Y439675D01*
X535621D01*
Y437380D01*
D02*
G37*
G36*
X470870Y437962D02*
X470368Y437862D01*
X469444Y437244D01*
X469444Y437244D01*
X457726Y425526D01*
X457625Y425375D01*
X455986Y424972D01*
X454816Y425791D01*
X453584Y426064D01*
X452519Y425386D01*
Y425386D01*
X448066Y419027D01*
X447214Y419102D01*
X446796Y419259D01*
Y423319D01*
X453064Y429586D01*
X453064Y429586D01*
X453681Y430511D01*
X453898Y431601D01*
X453681Y432691D01*
X453624Y432776D01*
X453683Y433070D01*
X453371Y434640D01*
X452481Y435971D01*
X451843Y436397D01*
X452229Y437667D01*
X457721D01*
X457721Y437667D01*
X458812Y437884D01*
X459736Y438502D01*
X460910Y439675D01*
X470870D01*
Y437962D01*
D02*
G37*
G36*
X511985Y464083D02*
X511829Y463850D01*
X511517Y462280D01*
X511829Y460710D01*
X512719Y459379D01*
X513810Y458650D01*
X513625Y457445D01*
X513599Y457380D01*
X511890D01*
X510724Y456896D01*
X510240Y455730D01*
Y452101D01*
X510240Y452100D01*
X508909Y451211D01*
X508019Y449880D01*
X507707Y448310D01*
X508019Y446740D01*
X508084Y446643D01*
X507406Y445373D01*
X504032D01*
X503183Y446643D01*
X503220Y446730D01*
Y455730D01*
X502736Y456896D01*
X501570Y457380D01*
X499419D01*
Y460501D01*
X504271Y465353D01*
X511306D01*
X511985Y464083D01*
D02*
G37*
G36*
X287405Y454202D02*
X287621Y453112D01*
X288239Y452187D01*
X296361Y444066D01*
X296361Y444066D01*
X297285Y443448D01*
X298375Y443231D01*
X298375Y443231D01*
X311567D01*
X311958Y442285D01*
X313165Y440713D01*
X314169Y439943D01*
X313738Y438673D01*
X304313D01*
X304313Y438673D01*
X303223Y438456D01*
X303018Y438319D01*
X286690D01*
X283519Y441490D01*
Y444504D01*
X283670Y444868D01*
Y452869D01*
X283262Y453853D01*
X283758Y455123D01*
X286609D01*
X287405Y454202D01*
D02*
G37*
G36*
X534099Y498571D02*
X534099Y498571D01*
X535023Y497954D01*
X535621Y497835D01*
Y492382D01*
X536105Y491215D01*
X536458Y491069D01*
Y489694D01*
X536105Y489548D01*
X535621Y488381D01*
Y487730D01*
X495251D01*
X494866Y489000D01*
X495661Y489531D01*
X496521Y490817D01*
X499207D01*
X499207Y490817D01*
X500298Y491034D01*
X501222Y491652D01*
X503664Y494094D01*
X503664Y494094D01*
X504282Y495019D01*
X504499Y496109D01*
X504499Y496109D01*
Y515620D01*
X504282Y516710D01*
X503664Y517634D01*
X503664Y517634D01*
X498368Y522931D01*
X498724Y524056D01*
X498835Y524201D01*
X508469D01*
X534099Y498571D01*
D02*
G37*
G36*
X466476Y524055D02*
X466833Y522931D01*
X461536Y517634D01*
X460918Y516710D01*
X460799Y516110D01*
X454050D01*
X452884Y515626D01*
X452400Y514460D01*
Y496460D01*
X451832Y495609D01*
X450268D01*
X449700Y496460D01*
Y514460D01*
X449216Y515626D01*
X448209Y516044D01*
X447652Y517283D01*
X453328Y522960D01*
X453390Y522947D01*
X454960Y523260D01*
X456291Y524149D01*
X456326Y524201D01*
X466365D01*
X466476Y524055D01*
D02*
G37*
G36*
X697230Y394970D02*
X435937D01*
X435812Y396240D01*
X435910Y396259D01*
X437241Y397149D01*
X438130Y398480D01*
X438443Y400050D01*
X438130Y401620D01*
X437241Y402951D01*
X437189Y402986D01*
Y412775D01*
X438511Y413659D01*
X439400Y414990D01*
X439713Y416560D01*
X439400Y418130D01*
X438521Y419447D01*
X439108Y419840D01*
X439829Y420560D01*
X441099Y420034D01*
Y409076D01*
X439189Y406349D01*
X438916Y405117D01*
X439594Y404052D01*
X449424Y397169D01*
X450656Y396895D01*
X451721Y397574D01*
Y397574D01*
X455093Y402389D01*
X471178D01*
X478634Y397169D01*
X479866Y396895D01*
X480931Y397574D01*
Y397574D01*
X484303Y402389D01*
X502928D01*
X510384Y397169D01*
X511616Y396895D01*
X512681Y397574D01*
Y397574D01*
X516053Y402389D01*
X537734D01*
X538180Y402091D01*
X539750Y401779D01*
X541320Y402091D01*
X542651Y402981D01*
X543051Y403579D01*
X544321Y403194D01*
Y398880D01*
X544804Y397714D01*
X545970Y397231D01*
X559971D01*
X561137Y397714D01*
X561620Y398880D01*
Y411679D01*
X561137Y412846D01*
X559971Y413329D01*
X553211D01*
X552597Y414599D01*
X552921Y415381D01*
Y422382D01*
X552438Y423548D01*
X552087Y423693D01*
Y425068D01*
X552438Y425213D01*
X552921Y426380D01*
Y433380D01*
X552438Y434546D01*
X552084Y434693D01*
Y436068D01*
X552438Y436214D01*
X552921Y437380D01*
Y444381D01*
X552438Y445547D01*
X552084Y445694D01*
Y447068D01*
X552438Y447215D01*
X552921Y448381D01*
Y452026D01*
X558619D01*
X558653Y451973D01*
X559985Y451084D01*
X561555Y450772D01*
X561617Y450784D01*
X567381Y445019D01*
Y409336D01*
X567329Y409301D01*
X566440Y407970D01*
X566127Y406400D01*
X566440Y404830D01*
X567329Y403499D01*
X568660Y402609D01*
X570230Y402297D01*
X571800Y402609D01*
X573131Y403499D01*
X574021Y404830D01*
X574333Y406400D01*
X574021Y407970D01*
X573131Y409301D01*
X573079Y409336D01*
Y446199D01*
X572862Y447290D01*
X572244Y448214D01*
X572244Y448214D01*
X565697Y454761D01*
X565707Y455682D01*
X566887Y456275D01*
X580081Y443081D01*
Y423539D01*
X580029Y423504D01*
X579140Y422173D01*
X578827Y420603D01*
X579140Y419033D01*
X580029Y417701D01*
X581360Y416812D01*
X582930Y416500D01*
X584500Y416812D01*
X585831Y417701D01*
X586721Y419033D01*
X587033Y420603D01*
X586721Y422173D01*
X585831Y423504D01*
X585779Y423539D01*
Y442772D01*
X587049Y443298D01*
X588971Y441375D01*
Y429179D01*
X588919Y429144D01*
X588030Y427813D01*
X587717Y426243D01*
X588030Y424673D01*
X588919Y423342D01*
X590250Y422453D01*
X591820Y422140D01*
X593390Y422453D01*
X594721Y423342D01*
X595611Y424673D01*
X595923Y426243D01*
X595611Y427813D01*
X594721Y429144D01*
X594669Y429179D01*
Y442555D01*
X594669Y442555D01*
X594452Y443646D01*
X593834Y444570D01*
X593834Y444570D01*
X567214Y471190D01*
X566289Y471808D01*
X565199Y472025D01*
X565199Y472025D01*
X552921D01*
Y477380D01*
X552438Y478547D01*
X552084Y478693D01*
Y480068D01*
X552438Y480214D01*
X552921Y481381D01*
Y488381D01*
X552438Y489548D01*
X552084Y489694D01*
Y491069D01*
X552438Y491215D01*
X552921Y492382D01*
Y499382D01*
X552438Y500548D01*
X552087Y500693D01*
Y502068D01*
X552438Y502213D01*
X552921Y503380D01*
Y510380D01*
X552438Y511546D01*
X551271Y512030D01*
X537271D01*
X536105Y511546D01*
X535621Y510380D01*
Y506766D01*
X534448Y506280D01*
X511664Y529064D01*
X510740Y529682D01*
X509649Y529899D01*
X509649Y529899D01*
X456326D01*
X456291Y529951D01*
X454960Y530840D01*
X453390Y531153D01*
X451820Y530840D01*
X450489Y529951D01*
X449599Y528620D01*
X449287Y527050D01*
X449300Y526988D01*
X438421Y516110D01*
X429050D01*
X427884Y515626D01*
X427400Y514460D01*
Y496460D01*
X426832Y495609D01*
X422820D01*
X413694Y504735D01*
Y516785D01*
X414320Y516909D01*
X415651Y517799D01*
X416540Y519130D01*
X416853Y520700D01*
X416540Y522270D01*
X415651Y523601D01*
X415557Y524558D01*
X416498Y525499D01*
X416560Y525487D01*
X418130Y525799D01*
X419461Y526689D01*
X420350Y528020D01*
X420663Y529590D01*
X420350Y531160D01*
X419461Y532491D01*
X418130Y533381D01*
X416560Y533693D01*
X414990Y533381D01*
X413659Y532491D01*
X412770Y531160D01*
X412457Y529590D01*
X411516Y528843D01*
X410557D01*
X410557Y528843D01*
X409467Y528626D01*
X408543Y528008D01*
X408543Y528008D01*
X403751Y523216D01*
X403133Y522292D01*
X402916Y521202D01*
X402916Y521202D01*
Y513305D01*
X401646Y512920D01*
X401451Y513211D01*
X400120Y514101D01*
X398550Y514413D01*
X396980Y514101D01*
X395649Y513211D01*
X394919Y512119D01*
X344080D01*
X330150Y526049D01*
X329958Y527013D01*
X329340Y527937D01*
X320593Y536684D01*
X319669Y537302D01*
X318579Y537519D01*
X318579Y537519D01*
X291974D01*
X291444Y538712D01*
X292030Y539466D01*
X293554Y539770D01*
X294885Y540659D01*
X295774Y541990D01*
X296087Y543560D01*
X295774Y545130D01*
X294885Y546461D01*
X293554Y547351D01*
X291984Y547663D01*
X290414Y547351D01*
X289083Y546461D01*
X288193Y545130D01*
X287881Y543560D01*
X287893Y543498D01*
X281079Y536684D01*
X281079Y536684D01*
X275445Y531050D01*
X274827Y530126D01*
X274611Y529036D01*
X274611Y529036D01*
Y528499D01*
X271141Y525029D01*
X257019D01*
X255852Y524546D01*
X255369Y523380D01*
Y515379D01*
X255852Y514212D01*
X257019Y513729D01*
X258181D01*
X258667Y512556D01*
X250716Y504604D01*
X250716Y504604D01*
X250138Y504026D01*
X248967Y504652D01*
X249245Y506048D01*
X249181Y506369D01*
X249245Y506691D01*
X248818Y508837D01*
X248636Y509110D01*
X248572Y509432D01*
X247356Y511251D01*
X247083Y511434D01*
X246901Y511706D01*
X245081Y512922D01*
X244760Y512986D01*
X244487Y513168D01*
X242341Y513595D01*
X242175Y513562D01*
X242019Y513627D01*
X241863Y513562D01*
X241697Y513595D01*
X239551Y513168D01*
X239278Y512986D01*
X238956Y512922D01*
X237137Y511706D01*
X236954Y511434D01*
X236682Y511251D01*
X235466Y509432D01*
X235402Y509110D01*
X235220Y508837D01*
X234793Y506691D01*
X234857Y506369D01*
X234793Y506048D01*
X235220Y503901D01*
X235402Y503629D01*
X235466Y503307D01*
X236682Y501487D01*
X236954Y501305D01*
X237137Y501032D01*
X238956Y499817D01*
X239278Y499753D01*
X239551Y499570D01*
X241697Y499143D01*
X241863Y499176D01*
X242019Y499112D01*
X242175Y499176D01*
X242341Y499143D01*
X243736Y499421D01*
X244362Y498251D01*
X216426Y470314D01*
X215808Y469390D01*
X215591Y468300D01*
X215591Y468300D01*
Y417557D01*
X215591Y417557D01*
X215808Y416467D01*
X216426Y415543D01*
X233428Y398541D01*
X233428Y398540D01*
X234352Y397923D01*
X235442Y397706D01*
X262488D01*
X262488Y397706D01*
X263578Y397923D01*
X264503Y398540D01*
X272054Y406091D01*
X279180D01*
Y398940D01*
X279664Y397774D01*
X280830Y397290D01*
X300830D01*
X301996Y397774D01*
X302480Y398940D01*
Y418940D01*
X301996Y420106D01*
X300830Y420590D01*
X280830D01*
X279664Y420106D01*
X279180Y418940D01*
Y411789D01*
X270874D01*
X270874Y411789D01*
X269783Y411572D01*
X268859Y410954D01*
X268859Y410954D01*
X261308Y403404D01*
X236622D01*
X221289Y418737D01*
Y421735D01*
X222559Y421988D01*
X223334Y420117D01*
X225003Y417941D01*
X227178Y416272D01*
X229712Y415223D01*
X232430Y414865D01*
X250210D01*
X252929Y415223D01*
X255462Y416272D01*
X257638Y417941D01*
X259307Y420117D01*
X260356Y422650D01*
X260714Y425369D01*
X260356Y428087D01*
X259307Y430621D01*
X257638Y432796D01*
X256802Y433437D01*
X257233Y434707D01*
X270373D01*
X279915Y425165D01*
X279915Y425165D01*
X280839Y424548D01*
X281929Y424331D01*
X281929Y424331D01*
X302853D01*
X302853Y424331D01*
X303413Y424442D01*
X304820Y423880D01*
X305709Y422549D01*
X305761Y422514D01*
Y420395D01*
X305064Y420106D01*
X304580Y418940D01*
Y398940D01*
X305064Y397774D01*
X306230Y397290D01*
X326230D01*
X327396Y397774D01*
X327880Y398940D01*
Y418940D01*
X327396Y420106D01*
X326230Y420590D01*
X311459D01*
Y422514D01*
X311511Y422549D01*
X312400Y423880D01*
X313807Y424442D01*
X314367Y424331D01*
X314367Y424331D01*
X328301D01*
X328301Y424331D01*
X329302Y424530D01*
X329679Y424455D01*
X330965Y424711D01*
X331647Y423989D01*
X331804Y423681D01*
X331489Y423210D01*
X331177Y421640D01*
X331405Y420496D01*
X330464Y420106D01*
X329980Y418940D01*
Y398940D01*
X330464Y397774D01*
X331630Y397290D01*
X351630D01*
X352796Y397774D01*
X353280Y398940D01*
Y404194D01*
X354550Y404530D01*
X355239Y403499D01*
X355380Y403404D01*
Y398940D01*
X355864Y397774D01*
X357030Y397290D01*
X377030D01*
X378196Y397774D01*
X378680Y398940D01*
Y412943D01*
X378857Y413062D01*
X379607Y413811D01*
X380780Y413326D01*
Y398940D01*
X381264Y397774D01*
X382430Y397290D01*
X402430D01*
X403596Y397774D01*
X404080Y398940D01*
Y418791D01*
X406180D01*
Y398940D01*
X406664Y397774D01*
X407830Y397290D01*
X427830D01*
X428996Y397774D01*
X429266Y398424D01*
X430095Y398460D01*
X430620Y398374D01*
X431439Y397149D01*
X432770Y396259D01*
X432868Y396240D01*
X432743Y394970D01*
X209550D01*
Y572770D01*
X636868D01*
X637577Y571500D01*
X637320Y570880D01*
Y556880D01*
X637804Y555713D01*
X638970Y555230D01*
X658970D01*
X660136Y555713D01*
X660620Y556880D01*
Y570880D01*
X660363Y571500D01*
X661072Y572770D01*
X697230D01*
Y394970D01*
D02*
G37*
G36*
X340886Y507256D02*
X341810Y506638D01*
X342900Y506421D01*
X342900Y506421D01*
X397475D01*
X398348Y506248D01*
X398842Y505569D01*
X399093Y505020D01*
X398966Y504809D01*
X332340D01*
X322587Y514562D01*
X322842Y516103D01*
X323898Y516913D01*
X325104Y518485D01*
X325862Y520316D01*
X325903Y520627D01*
X327106Y521035D01*
X340886Y507256D01*
D02*
G37*
G36*
X317959Y530893D02*
X317542Y529739D01*
X316567Y529611D01*
X314736Y528853D01*
X313165Y527647D01*
X311958Y526075D01*
X311200Y524244D01*
X310942Y522280D01*
X311200Y520316D01*
X311958Y518485D01*
X313165Y516913D01*
X314736Y515707D01*
X315683Y515315D01*
Y514589D01*
X315683Y514589D01*
X315899Y513499D01*
X316517Y512574D01*
X328093Y500999D01*
X327567Y499729D01*
X325496D01*
X325104Y500675D01*
X323898Y502247D01*
X322326Y503453D01*
X320496Y504211D01*
X318531Y504470D01*
X316567Y504211D01*
X314736Y503453D01*
X313165Y502247D01*
X311958Y500675D01*
X311200Y498844D01*
X310942Y496880D01*
X311200Y494916D01*
X311958Y493085D01*
X313165Y491513D01*
X314736Y490307D01*
X316567Y489549D01*
X318531Y489290D01*
X320496Y489549D01*
X322326Y490307D01*
X323898Y491513D01*
X325104Y493085D01*
X325496Y494031D01*
X404170D01*
X404170Y494031D01*
X405260Y494248D01*
X406184Y494865D01*
X410845Y499526D01*
X418573Y491799D01*
X418046Y490529D01*
X368160D01*
X367070Y490312D01*
X366146Y489694D01*
X366146Y489694D01*
X360770Y484319D01*
X359320D01*
Y486220D01*
X358836Y487386D01*
X357670Y487870D01*
X336170D01*
X335004Y487386D01*
X334520Y486220D01*
Y482909D01*
X333136D01*
X333101Y482961D01*
X331770Y483851D01*
X330200Y484163D01*
X328630Y483851D01*
X327299Y482961D01*
X326409Y481630D01*
X326097Y480060D01*
X326409Y478490D01*
X327299Y477159D01*
X328630Y476269D01*
X330200Y475957D01*
X331770Y476269D01*
X333101Y477159D01*
X333136Y477211D01*
X334520D01*
Y476720D01*
X335004Y475554D01*
X336170Y475070D01*
X357670D01*
X358836Y475554D01*
X359320Y476720D01*
Y478621D01*
X361950D01*
X361950Y478621D01*
X363040Y478838D01*
X363964Y479456D01*
X369340Y484831D01*
X390355D01*
X390740Y483561D01*
X390416Y483344D01*
X390416Y483344D01*
X386142Y479071D01*
X386080Y479083D01*
X384510Y478770D01*
X383179Y477881D01*
X382290Y476550D01*
X381977Y474980D01*
X382290Y473410D01*
X383179Y472079D01*
X384510Y471189D01*
X386080Y470877D01*
X387650Y471189D01*
X388981Y472079D01*
X389870Y473410D01*
X390183Y474980D01*
X390171Y475042D01*
X393610Y478481D01*
X408966D01*
X409001Y478429D01*
X409169Y478317D01*
X409422Y476620D01*
X409217Y476370D01*
X394170D01*
X393004Y475886D01*
X392520Y474720D01*
Y461319D01*
X359320D01*
Y463220D01*
X358836Y464386D01*
X357670Y464870D01*
X336170D01*
X335004Y464386D01*
X334520Y463220D01*
Y462721D01*
X333250Y462196D01*
X325870Y469576D01*
X326121Y471480D01*
X325862Y473444D01*
X325104Y475275D01*
X323898Y476847D01*
X322326Y478053D01*
X320496Y478811D01*
X318531Y479070D01*
X316567Y478811D01*
X314736Y478053D01*
X313165Y476847D01*
X311958Y475275D01*
X311200Y473444D01*
X310942Y471480D01*
X311200Y469515D01*
X311958Y467685D01*
X313165Y466113D01*
X314736Y464907D01*
X316567Y464149D01*
X317140Y464073D01*
X317057Y462803D01*
X312784D01*
X311694Y462587D01*
X311397Y462388D01*
X309991D01*
X297460Y474918D01*
X297473Y474980D01*
X297160Y476550D01*
X296271Y477881D01*
X294940Y478770D01*
X293370Y479083D01*
X291800Y478770D01*
X290469Y477881D01*
X289580Y476550D01*
X289267Y474980D01*
X289580Y473410D01*
X290469Y472079D01*
X291800Y471189D01*
X293370Y470877D01*
X293432Y470890D01*
X305743Y458578D01*
X305217Y457308D01*
X298508D01*
X298182Y458440D01*
X297965Y459530D01*
X297348Y460454D01*
X283670Y474132D01*
Y477601D01*
X283186Y478768D01*
X282020Y479251D01*
X270266D01*
X269880Y480521D01*
X270871Y481183D01*
X271761Y482514D01*
X272073Y484084D01*
X271761Y485654D01*
X270871Y486985D01*
X270819Y487020D01*
Y488489D01*
X282020D01*
X283186Y488972D01*
X283670Y490139D01*
Y498140D01*
X283186Y499306D01*
X282020Y499789D01*
X257019D01*
X255961Y500490D01*
X255874Y501705D01*
X267898Y513729D01*
X282020D01*
X283186Y514212D01*
X283670Y515379D01*
Y523380D01*
X283186Y524546D01*
X282020Y525029D01*
X280817D01*
X280103Y526210D01*
X280105Y526299D01*
X280308Y527319D01*
X280308Y527319D01*
Y527856D01*
X284274Y531821D01*
X317198D01*
X317959Y530893D01*
D02*
G37*
%LPC*%
G36*
X242019Y468628D02*
X241863Y468564D01*
X241697Y468597D01*
X239551Y468170D01*
X239278Y467988D01*
X238956Y467924D01*
X237137Y466708D01*
X236954Y466435D01*
X236682Y466253D01*
X235466Y464433D01*
X235402Y464112D01*
X235220Y463839D01*
X234793Y461693D01*
X234857Y461371D01*
X234793Y461049D01*
X235220Y458903D01*
X235402Y458630D01*
X235466Y458308D01*
X236682Y456489D01*
X236954Y456306D01*
X237137Y456034D01*
X238956Y454818D01*
X239278Y454754D01*
X239551Y454572D01*
X241697Y454145D01*
X241863Y454178D01*
X242019Y454113D01*
X242175Y454178D01*
X242341Y454145D01*
X244487Y454572D01*
X244760Y454754D01*
X245081Y454818D01*
X246901Y456034D01*
X247083Y456306D01*
X247356Y456489D01*
X248572Y458308D01*
X248636Y458630D01*
X248818Y458903D01*
X249245Y461049D01*
X249181Y461371D01*
X249245Y461693D01*
X248818Y463839D01*
X248636Y464112D01*
X248572Y464433D01*
X247356Y466253D01*
X247083Y466435D01*
X246901Y466708D01*
X245081Y467924D01*
X244760Y467988D01*
X244487Y468170D01*
X242341Y468597D01*
X242175Y468564D01*
X242019Y468628D01*
D02*
G37*
G36*
X488550Y548217D02*
X488394Y548153D01*
X488228Y548186D01*
X486082Y547759D01*
X485809Y547576D01*
X485488Y547512D01*
X483668Y546297D01*
X483486Y546024D01*
X483213Y545842D01*
X481998Y544022D01*
X481934Y543701D01*
X481751Y543428D01*
X481324Y541282D01*
X481388Y540960D01*
X481324Y540638D01*
X481751Y538492D01*
X481934Y538219D01*
X481998Y537898D01*
X483213Y536078D01*
X483486Y535896D01*
X483668Y535623D01*
X485488Y534408D01*
X485809Y534344D01*
X486082Y534161D01*
X488228Y533734D01*
X488394Y533767D01*
X488550Y533703D01*
X488706Y533767D01*
X488872Y533734D01*
X491018Y534161D01*
X491291Y534344D01*
X491613Y534408D01*
X493432Y535623D01*
X493614Y535896D01*
X493887Y536078D01*
X495102Y537898D01*
X495166Y538219D01*
X495349Y538492D01*
X495776Y540638D01*
X495712Y540960D01*
X495776Y541282D01*
X495349Y543428D01*
X495166Y543701D01*
X495102Y544022D01*
X493887Y545842D01*
X493614Y546024D01*
X493432Y546297D01*
X491613Y547512D01*
X491291Y547576D01*
X491018Y547759D01*
X488872Y548186D01*
X488706Y548153D01*
X488550Y548217D01*
D02*
G37*
G36*
X438550D02*
X438394Y548153D01*
X438228Y548186D01*
X436082Y547759D01*
X435809Y547576D01*
X435488Y547512D01*
X433668Y546297D01*
X433486Y546024D01*
X433213Y545842D01*
X431998Y544022D01*
X431934Y543701D01*
X431751Y543428D01*
X431324Y541282D01*
X431388Y540960D01*
X431324Y540638D01*
X431751Y538492D01*
X431934Y538219D01*
X431998Y537898D01*
X433213Y536078D01*
X433486Y535896D01*
X433668Y535623D01*
X435488Y534408D01*
X435809Y534344D01*
X436082Y534161D01*
X438228Y533734D01*
X438394Y533767D01*
X438550Y533703D01*
X438706Y533767D01*
X438872Y533734D01*
X441018Y534161D01*
X441291Y534344D01*
X441613Y534408D01*
X443432Y535623D01*
X443614Y535896D01*
X443887Y536078D01*
X445102Y537898D01*
X445166Y538219D01*
X445349Y538492D01*
X445776Y540638D01*
X445712Y540960D01*
X445776Y541282D01*
X445349Y543428D01*
X445166Y543701D01*
X445102Y544022D01*
X443887Y545842D01*
X443614Y546024D01*
X443432Y546297D01*
X441613Y547512D01*
X441291Y547576D01*
X441018Y547759D01*
X438872Y548186D01*
X438706Y548153D01*
X438550Y548217D01*
D02*
G37*
G36*
X524550Y564110D02*
X506550D01*
X505384Y563626D01*
X504900Y562460D01*
Y556809D01*
X490034D01*
X489311Y557891D01*
X487980Y558781D01*
X486410Y559093D01*
X484840Y558781D01*
X483509Y557891D01*
X482620Y556560D01*
X482307Y554990D01*
X482620Y553420D01*
X483509Y552089D01*
X484840Y551199D01*
X486410Y550887D01*
X487537Y551111D01*
X504900D01*
Y545460D01*
X505384Y544294D01*
X506550Y543810D01*
X524550D01*
X525716Y544294D01*
X526200Y545460D01*
Y562460D01*
X525716Y563626D01*
X524550Y564110D01*
D02*
G37*
G36*
X658970Y414532D02*
X638970D01*
X637804Y414049D01*
X637320Y412882D01*
Y398882D01*
X637804Y397715D01*
X638970Y397232D01*
X658970D01*
X660136Y397715D01*
X660620Y398882D01*
Y412882D01*
X660136Y414049D01*
X658970Y414532D01*
D02*
G37*
G36*
X653292Y443872D02*
X652971Y443808D01*
X652649Y443872D01*
X650210Y443387D01*
X649937Y443204D01*
X649615Y443140D01*
X647548Y441759D01*
X647366Y441486D01*
X647093Y441304D01*
X645712Y439237D01*
X645648Y438915D01*
X645466Y438642D01*
X644980Y436204D01*
X645014Y436038D01*
X644949Y435882D01*
X645014Y435726D01*
X644980Y435560D01*
X645466Y433121D01*
X645648Y432849D01*
X645712Y432527D01*
X647093Y430460D01*
X647366Y430277D01*
X647548Y430004D01*
X649615Y428623D01*
X649937Y428559D01*
X650210Y428377D01*
X652649Y427892D01*
X652971Y427956D01*
X653292Y427892D01*
X655731Y428377D01*
X656004Y428559D01*
X656326Y428623D01*
X658393Y430004D01*
X658575Y430277D01*
X658848Y430460D01*
X660229Y432527D01*
X660293Y432849D01*
X660475Y433121D01*
X660960Y435560D01*
X660928Y435726D01*
X660992Y435882D01*
X660928Y436038D01*
X660960Y436204D01*
X660475Y438642D01*
X660293Y438915D01*
X660229Y439237D01*
X658848Y441304D01*
X658575Y441486D01*
X658393Y441759D01*
X656326Y443140D01*
X656004Y443204D01*
X655731Y443387D01*
X653292Y443872D01*
D02*
G37*
G36*
Y523872D02*
X652971Y523808D01*
X652649Y523872D01*
X650210Y523387D01*
X649937Y523204D01*
X649615Y523140D01*
X647548Y521759D01*
X647366Y521486D01*
X647093Y521304D01*
X645712Y519237D01*
X645648Y518915D01*
X645466Y518642D01*
X644980Y516203D01*
X645014Y516038D01*
X644949Y515882D01*
X645014Y515726D01*
X644980Y515560D01*
X645466Y513121D01*
X645648Y512849D01*
X645712Y512527D01*
X647093Y510459D01*
X647366Y510277D01*
X647548Y510004D01*
X649615Y508623D01*
X649937Y508559D01*
X650210Y508377D01*
X652649Y507892D01*
X652971Y507956D01*
X653292Y507892D01*
X655731Y508377D01*
X656004Y508559D01*
X656326Y508623D01*
X658393Y510004D01*
X658575Y510277D01*
X658848Y510459D01*
X660229Y512527D01*
X660293Y512849D01*
X660475Y513121D01*
X660960Y515560D01*
X660928Y515726D01*
X660992Y515882D01*
X660928Y516038D01*
X660960Y516203D01*
X660475Y518642D01*
X660293Y518915D01*
X660229Y519237D01*
X658848Y521304D01*
X658575Y521486D01*
X658393Y521759D01*
X656326Y523140D01*
X656004Y523204D01*
X655731Y523387D01*
X653292Y523872D01*
D02*
G37*
G36*
X250210Y552875D02*
X232430D01*
X229712Y552517D01*
X227178Y551468D01*
X225003Y549799D01*
X223334Y547623D01*
X222284Y545090D01*
X221926Y542371D01*
X222284Y539653D01*
X223334Y537119D01*
X225003Y534944D01*
X227178Y533275D01*
X229712Y532225D01*
X232430Y531867D01*
X250210D01*
X252929Y532225D01*
X255462Y533275D01*
X257638Y534944D01*
X259307Y537119D01*
X260356Y539653D01*
X260714Y542371D01*
X260356Y545090D01*
X259307Y547623D01*
X257638Y549799D01*
X255462Y551468D01*
X252929Y552517D01*
X250210Y552875D01*
D02*
G37*
G36*
X420550Y564110D02*
X402550D01*
X401384Y563626D01*
X400900Y562460D01*
Y545460D01*
X401384Y544294D01*
X402550Y543810D01*
X420550D01*
X421716Y544294D01*
X422200Y545460D01*
Y562460D01*
X421716Y563626D01*
X420550Y564110D01*
D02*
G37*
G36*
X559971Y566529D02*
X545970D01*
X544804Y566046D01*
X544321Y564879D01*
Y545380D01*
X544804Y544213D01*
X545970Y543730D01*
X559971D01*
X561137Y544213D01*
X561620Y545380D01*
Y564879D01*
X561137Y566046D01*
X559971Y566529D01*
D02*
G37*
%LPD*%
D10*
X516890Y435230D02*
D03*
Y451230D02*
D03*
X496570Y435230D02*
D03*
Y451230D02*
D03*
X477520Y435230D02*
D03*
Y451230D02*
D03*
D11*
X517451Y417722D02*
D03*
X508709Y405238D02*
D03*
X485701Y417722D02*
D03*
X476959Y405238D02*
D03*
X456491Y417722D02*
D03*
X447749Y405238D02*
D03*
D12*
X449960Y453390D02*
D03*
X433960D02*
D03*
D13*
X449960Y473710D02*
D03*
X433960D02*
D03*
D14*
X404920Y458470D02*
D03*
D15*
X346920Y435470D02*
D03*
Y458470D02*
D03*
Y481470D02*
D03*
D16*
X438550Y505460D02*
D03*
X488550D02*
D03*
X463550D02*
D03*
D17*
X411550Y553960D02*
D03*
X515550D02*
D03*
D18*
X316230Y408940D02*
D03*
X392430D02*
D03*
X367030D02*
D03*
X341630D02*
D03*
X290830D02*
D03*
X417830D02*
D03*
D19*
X269519Y494139D02*
D03*
Y473601D02*
D03*
Y519379D02*
D03*
Y448869D02*
D03*
D20*
X544271Y418882D02*
D03*
Y429880D02*
D03*
Y440881D02*
D03*
Y451881D02*
D03*
Y462882D02*
D03*
Y473880D02*
D03*
Y484881D02*
D03*
Y495882D02*
D03*
Y506880D02*
D03*
D21*
X552971Y555130D02*
D03*
D22*
Y405280D02*
D03*
D23*
X648970Y405882D02*
D03*
Y563880D02*
D03*
D24*
X515550Y462882D02*
X519430D01*
X421640Y445770D02*
Y454793D01*
X443947Y424499D02*
X451049Y431601D01*
X447749Y405238D02*
X476959D01*
X443947Y409040D02*
X447749Y405238D01*
X443947Y409040D02*
Y424499D01*
X456491Y417722D02*
X459740Y420971D01*
Y423511D01*
X471459Y435230D01*
X489614Y478960D02*
X513080D01*
X432040Y435470D02*
X434126Y437556D01*
X455930Y482600D02*
X458211Y484881D01*
X335153Y415417D02*
Y422846D01*
X392430Y408940D02*
X394970Y406400D01*
X346566Y435824D02*
X348892Y438150D01*
X459729Y442524D02*
X544271D01*
X386080Y474980D02*
X392430Y481330D01*
X411902D01*
X454660Y483870D02*
X455930Y482600D01*
X449366Y474304D02*
Y482814D01*
Y474304D02*
X449960Y473710D01*
X444500Y487680D02*
X449366Y482814D01*
X368160Y487680D02*
X444500D01*
X361950Y481470D02*
X368160Y487680D01*
X453390Y527050D02*
X509649D01*
X536114Y500586D01*
X539567D01*
X544271Y495882D01*
X335153Y415417D02*
X341630Y408940D01*
X335153Y422846D02*
X335280Y422719D01*
X303959Y435470D02*
X304313Y435824D01*
X486410Y554990D02*
X487440Y553960D01*
X515550D01*
X283094Y534670D02*
X291984Y543560D01*
X277459Y529036D02*
X283094Y534670D01*
X397510Y509270D02*
X398550Y510310D01*
X342900Y509270D02*
X397510D01*
X327326Y524844D02*
X342900Y509270D01*
X327326Y524844D02*
Y525923D01*
X318579Y534670D02*
X327326Y525923D01*
X283094Y534670D02*
X318579D01*
X544271Y451881D02*
X547265Y454875D01*
X561555D01*
X438550Y512210D02*
X453390Y527050D01*
X438550Y505460D02*
Y512210D01*
X298375Y446080D02*
X318531D01*
X290253Y454202D02*
X298375Y446080D01*
X290253Y454202D02*
Y456335D01*
X288617Y457972D02*
X290253Y456335D01*
X264696Y457972D02*
X288617D01*
X279593Y474180D02*
X295333Y458440D01*
X277459Y474180D02*
X279593D01*
X295333Y456306D02*
X297180Y454459D01*
X295333Y456306D02*
Y458440D01*
X318531Y496880D02*
X404170D01*
X400930Y501960D02*
X405765Y506795D01*
X331160Y501960D02*
X400930D01*
X405765Y521202D02*
X410557Y525994D01*
X405765Y506795D02*
Y521202D01*
X410557Y525994D02*
X412964D01*
X410845Y503555D02*
Y518795D01*
Y503555D02*
X421640Y492760D01*
X404170Y496880D02*
X410845Y503555D01*
X345510Y480060D02*
X346920Y481470D01*
X330200Y480060D02*
X345510D01*
X310803Y430744D02*
X314367Y427180D01*
X306417Y430744D02*
X310803D01*
X302853Y427180D02*
X306417Y430744D01*
X285510Y435470D02*
X303959D01*
X270874Y408940D02*
X290830D01*
X308610Y416560D02*
X316230Y408940D01*
X308610Y416560D02*
Y425450D01*
X516890Y418283D02*
X517451Y417722D01*
X516890Y418283D02*
Y435230D01*
X471459D02*
X477520D01*
X412964Y525994D02*
X416560Y529590D01*
X318531Y514589D02*
X331160Y501960D01*
X318531Y514589D02*
Y522280D01*
X410845Y518795D02*
X412750Y520700D01*
X488550Y504890D02*
Y505460D01*
X346920Y458470D02*
X404920D01*
X280670Y440310D02*
X285510Y435470D01*
X280670Y440310D02*
Y445968D01*
X277459Y449179D02*
X280670Y445968D01*
X297180Y454459D02*
X314473D01*
X314888Y454875D01*
X346920Y481470D02*
X361950D01*
X544271Y440881D02*
Y442524D01*
X516890Y451230D02*
Y452120D01*
X433960Y467740D02*
X440019Y461681D01*
X458211Y484881D02*
X478664D01*
X485140Y483434D02*
X489614Y478960D01*
X519430Y462882D02*
X530431Y451881D01*
X543887Y473496D02*
X544271Y473880D01*
X515550Y462882D02*
X515620Y462812D01*
X496570Y461681D02*
X503092Y468202D01*
X496570Y451230D02*
Y461681D01*
X491616Y484881D02*
X544271D01*
X513080Y478790D02*
Y478960D01*
X515620Y462280D02*
Y462812D01*
X510503Y473880D02*
X510887Y473496D01*
X515273D01*
X515273Y473496D01*
X520781D01*
X520781Y473496D01*
X543887D01*
X503092Y468202D02*
X520054D01*
X508709Y405238D02*
X539106D01*
X539750Y405882D01*
X561555Y454875D02*
X570230Y446199D01*
X433960Y467740D02*
Y473710D01*
X404920Y458470D02*
Y459397D01*
X433746Y473924D02*
X433960Y473710D01*
X418886Y465573D02*
X421640Y468327D01*
X418886Y457547D02*
Y465573D01*
Y457547D02*
X421640Y454793D01*
Y492760D02*
X476420D01*
X488550Y504890D01*
X478664Y484881D02*
X482947Y489164D01*
X487333D01*
X491616Y484881D01*
X485140Y483434D02*
Y483870D01*
X457200Y473710D02*
X461010Y469900D01*
X481367Y473880D02*
X510503D01*
X469167Y461681D02*
X481367Y473880D01*
X440019Y461681D02*
X469167D01*
X471170Y473710D02*
X472440Y472440D01*
X457200Y473710D02*
X471170D01*
X449960D02*
X457200D01*
X530431Y451881D02*
X544271D01*
X476959Y405238D02*
X508709D01*
X492760Y492432D02*
X493994Y493666D01*
X499207D01*
X501650Y496109D01*
Y515620D01*
X496068Y521202D02*
X501650Y515620D01*
X469132Y521202D02*
X496068D01*
X463550Y515620D02*
X469132Y521202D01*
X463550Y505460D02*
Y515620D01*
X461251Y451230D02*
X477520D01*
X455617Y445596D02*
X461251Y451230D01*
X457721Y440516D02*
X459729Y442524D01*
X443947Y406500D02*
X445209Y405238D01*
X434126Y437556D02*
Y439471D01*
X448045Y453390D02*
X449960D01*
X434126Y439471D02*
X448045Y453390D01*
X449539Y440516D02*
X457721D01*
X447435Y445596D02*
X455617D01*
X367030Y408940D02*
Y416496D01*
X404920Y459397D02*
X419447Y473924D01*
X433746D01*
X421640Y468327D02*
Y468630D01*
X367030Y416496D02*
X368849Y418315D01*
X369356D01*
Y418177D02*
Y418315D01*
Y418177D02*
X372457Y415076D01*
X371786Y438150D02*
X387104D01*
X372457Y415076D02*
X376843D01*
X379636Y417869D01*
Y420097D01*
X371786Y438150D02*
X378136Y431800D01*
X314367Y427180D02*
X328301D01*
X406579Y421640D02*
X406673Y421734D01*
X379636Y420097D02*
X381273Y421734D01*
X389209Y443230D02*
X393013Y439426D01*
X381273Y421734D02*
X403587D01*
X403681Y421640D01*
X406579D01*
X449580Y433070D02*
X451049Y431601D01*
X444286Y432022D02*
Y435263D01*
X449539Y440516D01*
X439206Y437367D02*
X447435Y445596D01*
X420962Y445770D02*
X421640D01*
X433960Y449200D02*
Y453390D01*
X387104Y438150D02*
X394865Y430390D01*
X439206Y434126D02*
Y437367D01*
X428987Y421734D02*
X429081Y421640D01*
X393013Y439426D02*
X424186D01*
X433960Y449200D01*
X431800Y435710D02*
X432040Y435470D01*
X394865Y430390D02*
X435470D01*
X439206Y434126D01*
X438867Y423627D02*
Y426603D01*
X444286Y432022D01*
X406673Y421734D02*
X428987D01*
X544271Y462882D02*
X564309D01*
X582930Y444261D01*
X544271Y473880D02*
X548975Y469176D01*
X565199D01*
X570230Y406400D02*
Y446199D01*
X582930Y420603D02*
Y444261D01*
X591820Y426243D02*
Y442555D01*
X565199Y469176D02*
X591820Y442555D01*
X490895Y425450D02*
X509403D01*
X485601Y427643D02*
X488702Y430744D01*
X492084D01*
X496570Y435230D01*
X485601Y417822D02*
X485701Y417722D01*
X485601Y417822D02*
Y427643D01*
X335280Y421640D02*
Y422719D01*
X328301Y427180D02*
X329679Y428558D01*
X304313Y435824D02*
X346566D01*
X348892Y438150D02*
X371786D01*
X333819Y443230D02*
X389209D01*
X314888Y454875D02*
X322174D01*
X333819Y443230D01*
X332947Y458470D02*
X346920D01*
X318531Y471480D02*
X319937D01*
X332947Y458470D01*
X367097Y450926D02*
X367607Y451436D01*
X333307Y450926D02*
X367097D01*
X324278Y459955D02*
X333307Y450926D01*
X312784Y459955D02*
X324278D01*
X312369Y459539D02*
X312784Y459955D01*
X308811Y459539D02*
X312369D01*
X293370Y474980D02*
X308811Y459539D01*
X429081Y421640D02*
X433203D01*
X433417Y421854D01*
X437094D01*
X438867Y423627D01*
X434340Y415290D02*
X435610Y416560D01*
X434340Y400050D02*
Y415290D01*
X262488Y400555D02*
X270874Y408940D01*
X277459Y527319D02*
Y529036D01*
X269519Y519379D02*
X277459Y527319D01*
X254225Y468443D02*
X264696Y457972D01*
X254225Y468443D02*
Y469675D01*
X252730Y471170D02*
X254225Y469675D01*
X252730Y502590D02*
X269519Y519379D01*
X235442Y400555D02*
X262488D01*
X218440Y417557D02*
X235442Y400555D01*
X218440Y417557D02*
Y468300D01*
X252730Y471170D02*
Y502590D01*
X218440Y468300D02*
X252730Y502590D01*
X225384Y437556D02*
Y463885D01*
X246380Y484881D01*
X267970Y484084D02*
Y492590D01*
X269519Y494139D01*
X225384Y437556D02*
X271553D01*
X281929Y427180D01*
X302853D01*
D25*
X438550Y540960D02*
D03*
X488550D02*
D03*
D26*
X318531Y446080D02*
D03*
Y471480D02*
D03*
Y496880D02*
D03*
Y522280D02*
D03*
D27*
X241320Y542371D02*
D03*
Y425369D02*
D03*
D28*
X242019Y506369D02*
D03*
Y461371D02*
D03*
D29*
X245321Y425369D02*
D03*
X249319D02*
D03*
X237320D02*
D03*
X233319D02*
D03*
X245321Y542371D02*
D03*
X249319D02*
D03*
X237320D02*
D03*
X233319D02*
D03*
D30*
X652971Y435882D02*
D03*
Y515882D02*
D03*
D31*
X386080Y474980D02*
D03*
X411902Y481330D02*
D03*
X454660Y483870D02*
D03*
X486410Y554990D02*
D03*
X398550Y510310D02*
D03*
X561555Y454875D02*
D03*
X453390Y527050D02*
D03*
X330200Y480060D02*
D03*
X308610Y425450D02*
D03*
X416560Y529590D02*
D03*
X412750Y520700D02*
D03*
X291984Y543560D02*
D03*
X513080Y478790D02*
D03*
X515620Y462280D02*
D03*
X520054Y468202D02*
D03*
X539750Y405882D02*
D03*
X570230Y406400D02*
D03*
X511810Y448310D02*
D03*
X485140Y483870D02*
D03*
X461010Y469900D02*
D03*
X472440Y472440D02*
D03*
X497460Y411480D02*
D03*
X492760Y492432D02*
D03*
X421640Y468630D02*
D03*
X378136Y431800D02*
D03*
X358140Y406400D02*
D03*
X449580Y433070D02*
D03*
X420962Y445770D02*
D03*
X431800Y435710D02*
D03*
X582930Y420603D02*
D03*
X591820Y426243D02*
D03*
X509403Y425450D02*
D03*
X490895D02*
D03*
X422910Y405130D02*
D03*
X367607Y451436D02*
D03*
X335280Y421640D02*
D03*
X329679Y428558D02*
D03*
X293370Y474980D02*
D03*
X391160Y407670D02*
D03*
X434340Y400050D02*
D03*
X435610Y416560D02*
D03*
X246380Y484881D02*
D03*
X267970Y484084D02*
D03*
M02*
