G04 Layer_Color=65535*
%FSLAX44Y44*%
%MOMM*%
G71*
G01*
G75*
%ADD37C,0.2500*%
%ADD38C,0.1270*%
%ADD39C,0.0367*%
D37*
X339670Y491970D02*
G03*
X339670Y491970I-1250J0D01*
G01*
D38*
X449415Y416475D02*
X450663Y409399D01*
X457738Y410647D01*
X445306Y413150D02*
X455865Y405757D01*
X449415Y416475D02*
X457738Y410647D01*
X478625Y416475D02*
X479873Y409399D01*
X486948Y410647D01*
X474516Y413150D02*
X485075Y405757D01*
X478625Y416475D02*
X486948Y410647D01*
X510375Y416475D02*
X511623Y409399D01*
X518698Y410647D01*
X506266Y413150D02*
X516824Y405757D01*
X510375Y416475D02*
X518698Y410647D01*
D39*
X422878Y395365D02*
X517290D01*
X517657Y395732D02*
X518024D01*
X422878D02*
X517290D01*
X422878Y396099D02*
X518391D01*
X577169Y396467D02*
X577537D01*
X567985D02*
X569455D01*
X558801D02*
X561373D01*
X549617D02*
X553291D01*
X540433D02*
X545209D01*
X531617D02*
X536392D01*
X522433D02*
X528310D01*
X419939D02*
X521330D01*
X411857D02*
X415163D01*
X403775D02*
X405979D01*
X394958D02*
X396795D01*
X386877D02*
X387611D01*
X585619Y396834D02*
X586353D01*
X567251D02*
X570189D01*
X559169D02*
X561005D01*
X548882D02*
X553658D01*
X540801D02*
X544474D01*
X530514D02*
X537494D01*
X523167D02*
X527943D01*
X420306D02*
X521330D01*
X411122D02*
X415531D01*
X404142D02*
X405245D01*
X394591D02*
X397163D01*
X585619Y397201D02*
X586353D01*
X567251D02*
X570189D01*
X559169D02*
X561005D01*
X548882D02*
X553658D01*
X540801D02*
X544474D01*
X530514D02*
X537494D01*
X523167D02*
X527943D01*
X420306D02*
X521330D01*
X411122D02*
X415531D01*
X404142D02*
X405245D01*
X394591D02*
X397163D01*
X585251Y397569D02*
X586721D01*
X566883D02*
X570557D01*
X559903D02*
X560271D01*
X548515D02*
X554393D01*
X541535D02*
X544107D01*
X530147D02*
X538229D01*
X523535D02*
X527943D01*
X421041D02*
X522065D01*
X410755D02*
X415898D01*
X394591D02*
X397530D01*
X378427D02*
X379162D01*
X584516Y397936D02*
X587455D01*
X565781D02*
X571291D01*
X547780D02*
X554760D01*
X541903D02*
X543739D01*
X529412D02*
X538596D01*
X524269D02*
X526841D01*
X422878D02*
X522433D01*
X421409D02*
X422510D01*
X410020D02*
X416633D01*
X393489D02*
X398265D01*
X377693D02*
X379897D01*
X584516Y398304D02*
X587455D01*
X565781D02*
X571291D01*
X547780D02*
X554760D01*
X541903D02*
X543739D01*
X529412D02*
X538596D01*
X524269D02*
X526841D01*
X423245D02*
X522433D01*
X421409D02*
X422510D01*
X410020D02*
X416633D01*
X393489D02*
X398265D01*
X377693D02*
X379897D01*
X602884Y398671D02*
X603987D01*
X584149D02*
X587823D01*
X565781D02*
X571659D01*
X547413D02*
X555495D01*
X542637D02*
X543005D01*
X529045D02*
X538596D01*
X524637D02*
X526841D01*
X423245D02*
X522433D01*
X409653D02*
X417000D01*
X393489D02*
X399367D01*
X377325D02*
X380264D01*
X361161D02*
X361896D01*
X601782Y399038D02*
X604721D01*
X583414D02*
X588557D01*
X565046D02*
X572026D01*
X546678D02*
X555862D01*
X528310D02*
X539331D01*
X525371D02*
X526106D01*
X423613D02*
X523167D01*
X408918D02*
X418102D01*
X392754D02*
X399734D01*
X376590D02*
X380999D01*
X360427D02*
X361896D01*
X601782Y399406D02*
X604721D01*
X583414D02*
X588557D01*
X565046D02*
X572026D01*
X546678D02*
X555862D01*
X528310D02*
X539331D01*
X525371D02*
X526106D01*
X423980D02*
X523167D01*
X408918D02*
X418102D01*
X392754D02*
X399734D01*
X376590D02*
X380999D01*
X360427D02*
X361896D01*
X620150Y399773D02*
X620885D01*
X601415D02*
X605089D01*
X582312D02*
X588925D01*
X563944D02*
X572761D01*
X546311D02*
X556597D01*
X527943D02*
X539698D01*
X424347D02*
X523535D01*
X408551D02*
X418837D01*
X392387D02*
X400469D01*
X376223D02*
X381366D01*
X360059D02*
X362631D01*
X619783Y400140D02*
X621252D01*
X600680D02*
X605823D01*
X582312D02*
X589659D01*
X563577D02*
X573128D01*
X545209D02*
X556964D01*
X527208D02*
X540801D01*
X424347D02*
X524269D01*
X407816D02*
X418837D01*
X391652D02*
X400469D01*
X375488D02*
X382101D01*
X360059D02*
X363733D01*
X619048Y400508D02*
X621987D01*
X600313D02*
X606191D01*
X581210D02*
X590027D01*
X562842D02*
X573863D01*
X544474D02*
X557699D01*
X526841D02*
X540801D01*
X423613D02*
X524637D01*
X407449D02*
X419939D01*
X391285D02*
X400836D01*
X375121D02*
X382468D01*
X359325D02*
X364100D01*
X619048Y400875D02*
X621987D01*
X600313D02*
X606191D01*
X581210D02*
X590027D01*
X562842D02*
X573863D01*
X544474D02*
X557699D01*
X526841D02*
X540801D01*
X423613D02*
X524637D01*
X407449D02*
X419939D01*
X391285D02*
X400836D01*
X375121D02*
X382468D01*
X359325D02*
X364100D01*
X619783Y401242D02*
X621252D01*
X600680D02*
X605823D01*
X581945D02*
X589659D01*
X563577D02*
X573128D01*
X545209D02*
X556964D01*
X527208D02*
X540801D01*
X424347D02*
X524637D01*
X407816D02*
X418837D01*
X391652D02*
X400469D01*
X375488D02*
X382101D01*
X360059D02*
X362998D01*
X620150Y401610D02*
X620885D01*
X601415D02*
X605089D01*
X582312D02*
X589659D01*
X563944D02*
X572761D01*
X546311D02*
X556597D01*
X527943D02*
X540433D01*
X425082D02*
X525371D01*
X408551D02*
X418102D01*
X392387D02*
X399734D01*
X376223D02*
X381366D01*
X360427D02*
X362631D01*
X620150Y401977D02*
X620885D01*
X601415D02*
X605089D01*
X582312D02*
X589659D01*
X563944D02*
X572761D01*
X546311D02*
X556597D01*
X527943D02*
X540433D01*
X425082D02*
X525371D01*
X408551D02*
X418102D01*
X392387D02*
X399734D01*
X376223D02*
X381366D01*
X360427D02*
X362631D01*
X601782Y402345D02*
X604721D01*
X583414D02*
X588557D01*
X564679D02*
X572026D01*
X546311D02*
X555862D01*
X528310D02*
X539331D01*
X425817D02*
X526106D01*
X408918D02*
X417735D01*
X392754D02*
X399367D01*
X376590D02*
X380999D01*
X361161D02*
X361896D01*
X602517Y402712D02*
X603987D01*
X584149D02*
X587823D01*
X565046D02*
X572026D01*
X546678D02*
X555495D01*
X542637D02*
X543005D01*
X529045D02*
X539331D01*
X425817D02*
X526841D01*
X409653D02*
X417000D01*
X393489D02*
X398632D01*
X377325D02*
X380264D01*
X602517Y403079D02*
X603987D01*
X584149D02*
X587823D01*
X565046D02*
X572026D01*
X546678D02*
X555495D01*
X542637D02*
X543005D01*
X529045D02*
X539331D01*
X425817D02*
X526841D01*
X409653D02*
X417000D01*
X393489D02*
X398632D01*
X377325D02*
X380264D01*
X602884Y403447D02*
X603619D01*
X584516D02*
X587823D01*
X566148D02*
X571291D01*
X547413D02*
X554760D01*
X541903D02*
X543739D01*
X529412D02*
X538596D01*
X426184D02*
X527208D01*
X421409D02*
X422143D01*
X410020D02*
X416633D01*
X393856D02*
X398265D01*
X377693D02*
X379897D01*
X584516Y403814D02*
X587455D01*
X566148D02*
X570557D01*
X559903D02*
X561005D01*
X547780D02*
X554393D01*
X541535D02*
X544474D01*
X530147D02*
X538229D01*
X426919D02*
X527943D01*
X421041D02*
X423245D01*
X410755D02*
X415898D01*
X394591D02*
X397530D01*
X378427D02*
X379162D01*
X584516Y404181D02*
X587455D01*
X566148D02*
X570557D01*
X559903D02*
X561005D01*
X547780D02*
X554393D01*
X541535D02*
X544474D01*
X530147D02*
X538229D01*
X426919D02*
X527943D01*
X421041D02*
X423245D01*
X410755D02*
X415898D01*
X394591D02*
X397530D01*
X378427D02*
X379162D01*
X585251Y404549D02*
X586721D01*
X577169D02*
X577537D01*
X567251D02*
X570557D01*
X559169D02*
X561373D01*
X548882D02*
X553658D01*
X540801D02*
X544474D01*
X530514D02*
X537494D01*
X427654D02*
X528310D01*
X420306D02*
X423613D01*
X411122D02*
X415531D01*
X404142D02*
X405245D01*
X394958D02*
X397163D01*
X585619Y404916D02*
X586353D01*
X576435D02*
X578271D01*
X567985D02*
X570189D01*
X558066D02*
X562107D01*
X549617D02*
X553291D01*
X540433D02*
X545209D01*
X531249D02*
X537127D01*
X428021D02*
X529045D01*
X419939D02*
X424347D01*
X411857D02*
X415163D01*
X403775D02*
X405979D01*
X395693D02*
X396795D01*
X585619Y405283D02*
X586353D01*
X576435D02*
X578271D01*
X567985D02*
X570189D01*
X558066D02*
X562107D01*
X549617D02*
X553291D01*
X540433D02*
X545209D01*
X531249D02*
X537127D01*
X428021D02*
X529045D01*
X419939D02*
X424347D01*
X411857D02*
X415163D01*
X403775D02*
X405979D01*
X395693D02*
X396795D01*
X576067Y405651D02*
X578639D01*
X568353D02*
X569455D01*
X557699D02*
X562475D01*
X549985D02*
X553291D01*
X539698D02*
X545576D01*
X531617D02*
X536392D01*
X428388D02*
X529412D01*
X419204D02*
X424715D01*
X412224D02*
X414429D01*
X403040D02*
X406347D01*
X386877D02*
X387979D01*
X594435Y406018D02*
X595537D01*
X575332D02*
X579373D01*
X556964D02*
X562842D01*
X550719D02*
X552923D01*
X539331D02*
X546311D01*
X532351D02*
X536025D01*
X428756D02*
X529412D01*
X418837D02*
X425082D01*
X412959D02*
X414061D01*
X402673D02*
X406714D01*
X386509D02*
X388346D01*
X594435Y406385D02*
X595537D01*
X575332D02*
X579373D01*
X556964D02*
X562842D01*
X550719D02*
X552923D01*
X539331D02*
X546311D01*
X532351D02*
X536025D01*
X428756D02*
X529412D01*
X418837D02*
X425082D01*
X412959D02*
X414061D01*
X402673D02*
X406714D01*
X386509D02*
X388346D01*
X593700Y406753D02*
X595537D01*
X574965D02*
X579741D01*
X556597D02*
X563577D01*
X551087D02*
X552189D01*
X538596D02*
X546678D01*
X532719D02*
X535290D01*
X429123D02*
X530514D01*
X418102D02*
X425817D01*
X401938D02*
X407449D01*
X385774D02*
X389081D01*
X611701Y407120D02*
X612068D01*
X592598D02*
X595905D01*
X574230D02*
X580475D01*
X555862D02*
X563577D01*
X538229D02*
X547413D01*
X533453D02*
X534923D01*
X429490D02*
X531249D01*
X417735D02*
X426184D01*
X401571D02*
X407816D01*
X385407D02*
X389448D01*
X369611D02*
X370713D01*
X611701Y407488D02*
X612068D01*
X592598D02*
X595905D01*
X574230D02*
X580475D01*
X555862D02*
X563577D01*
X538229D02*
X547413D01*
X533453D02*
X534923D01*
X429490D02*
X531249D01*
X417735D02*
X426184D01*
X401571D02*
X407816D01*
X385407D02*
X389448D01*
X369611D02*
X370713D01*
X610966Y407855D02*
X612803D01*
X592231D02*
X597007D01*
X573863D02*
X580843D01*
X555495D02*
X564679D01*
X537127D02*
X547780D01*
X533821D02*
X534555D01*
X429858D02*
X531617D01*
X417735D02*
X426919D01*
X400836D02*
X408551D01*
X384672D02*
X389448D01*
X369243D02*
X371080D01*
X610599Y408222D02*
X613171D01*
X591496D02*
X597741D01*
X573128D02*
X581210D01*
X554760D02*
X565046D01*
X536392D02*
X548515D01*
X430225D02*
X532351D01*
X417000D02*
X427286D01*
X400836D02*
X408918D01*
X384305D02*
X390550D01*
X368509D02*
X371815D01*
X610599Y408590D02*
X613171D01*
X591496D02*
X597741D01*
X573128D02*
X581210D01*
X554760D02*
X565046D01*
X536392D02*
X548515D01*
X430592D02*
X532351D01*
X417000D02*
X427286D01*
X400836D02*
X408918D01*
X384305D02*
X390550D01*
X368509D02*
X371815D01*
X609864Y408957D02*
X613905D01*
X591129D02*
X598109D01*
X572761D02*
X581945D01*
X554393D02*
X565781D01*
X536025D02*
X548882D01*
X430592D02*
X532351D01*
X416633D02*
X428021D01*
X400469D02*
X409653D01*
X384305D02*
X391285D01*
X368141D02*
X372182D01*
X352345D02*
X353447D01*
X628232Y409324D02*
X630069D01*
X608762D02*
X614273D01*
X590394D02*
X598843D01*
X572026D02*
X582312D01*
X553658D02*
X565781D01*
X535290D02*
X549617D01*
X430960D02*
X533453D01*
X415898D02*
X428388D01*
X399367D02*
X410020D01*
X383570D02*
X391652D01*
X367407D02*
X372917D01*
X351977D02*
X353814D01*
X609864Y409692D02*
X613905D01*
X591129D02*
X598109D01*
X572761D02*
X581945D01*
X554393D02*
X565781D01*
X536025D02*
X548882D01*
X431327D02*
X532719D01*
X416633D02*
X428021D01*
X400469D02*
X409653D01*
X384305D02*
X391285D01*
X368141D02*
X372182D01*
X352345D02*
X352712D01*
X609864Y410059D02*
X613905D01*
X591129D02*
X598109D01*
X572761D02*
X581945D01*
X554393D02*
X565781D01*
X536025D02*
X548882D01*
X431327D02*
X532719D01*
X416633D02*
X428021D01*
X400469D02*
X409653D01*
X384305D02*
X391285D01*
X368141D02*
X372182D01*
X352345D02*
X352712D01*
X609864Y410426D02*
X613171D01*
X591496D02*
X597741D01*
X573128D02*
X581210D01*
X554760D02*
X565046D01*
X536392D02*
X548515D01*
X431694D02*
X531617D01*
X417000D02*
X427286D01*
X400469D02*
X408918D01*
X384672D02*
X390550D01*
X368509D02*
X371815D01*
X610966Y410794D02*
X612803D01*
X592231D02*
X597007D01*
X573863D02*
X580843D01*
X555495D02*
X564679D01*
X537127D02*
X547780D01*
X533821D02*
X534555D01*
X432062D02*
X531617D01*
X417735D02*
X426919D01*
X401571D02*
X408551D01*
X385407D02*
X390183D01*
X369243D02*
X371080D01*
X610966Y411161D02*
X612803D01*
X592231D02*
X597007D01*
X573863D02*
X580843D01*
X555495D02*
X564679D01*
X537127D02*
X547780D01*
X533821D02*
X534555D01*
X432429D02*
X531617D01*
X417735D02*
X426919D01*
X401571D02*
X408551D01*
X385407D02*
X390183D01*
X369243D02*
X371080D01*
X611701Y411529D02*
X612803D01*
X592598D02*
X596639D01*
X574230D02*
X580475D01*
X555862D02*
X563944D01*
X551087D02*
X551821D01*
X537494D02*
X547413D01*
X533453D02*
X534923D01*
X432429D02*
X531617D01*
X430225D02*
X430592D01*
X418102D02*
X425817D01*
X401571D02*
X407816D01*
X385407D02*
X389081D01*
X369611D02*
X370713D01*
X593333Y411896D02*
X595905D01*
X574965D02*
X579741D01*
X556597D02*
X563577D01*
X550719D02*
X552189D01*
X538596D02*
X547413D01*
X532719D02*
X536025D01*
X432797D02*
X532351D01*
X430225D02*
X431327D01*
X418837D02*
X425082D01*
X402673D02*
X406714D01*
X385774D02*
X388346D01*
X593333Y412263D02*
X595905D01*
X574965D02*
X579741D01*
X556597D02*
X563577D01*
X550719D02*
X552189D01*
X538596D02*
X547413D01*
X532719D02*
X536025D01*
X433164D02*
X532351D01*
X430225D02*
X431327D01*
X418837D02*
X425082D01*
X402673D02*
X406714D01*
X385774D02*
X388346D01*
X593700Y412631D02*
X595537D01*
X575332D02*
X579373D01*
X568353D02*
X569087D01*
X556964D02*
X562842D01*
X549985D02*
X552923D01*
X539331D02*
X546311D01*
X433164D02*
X536025D01*
X429490D02*
X431694D01*
X419204D02*
X425082D01*
X412959D02*
X413326D01*
X403040D02*
X406347D01*
X386509D02*
X387979D01*
X594435Y412998D02*
X594803D01*
X576067D02*
X578639D01*
X567985D02*
X569455D01*
X557699D02*
X562475D01*
X549617D02*
X553291D01*
X539331D02*
X545576D01*
X433531D02*
X536392D01*
X429123D02*
X432429D01*
X419939D02*
X424347D01*
X412224D02*
X414061D01*
X403775D02*
X406347D01*
X386877D02*
X387611D01*
X594435Y413365D02*
X594803D01*
X576067D02*
X578639D01*
X567985D02*
X569455D01*
X557699D02*
X562475D01*
X549617D02*
X553291D01*
X539331D02*
X545576D01*
X433899D02*
X536392D01*
X429123D02*
X432429D01*
X419939D02*
X424347D01*
X412224D02*
X414061D01*
X403775D02*
X406347D01*
X386877D02*
X387611D01*
X585619Y413733D02*
X586353D01*
X576435D02*
X578271D01*
X567251D02*
X570189D01*
X558066D02*
X562107D01*
X548882D02*
X553658D01*
X539698D02*
X545209D01*
X434266D02*
X537127D01*
X428388D02*
X432797D01*
X419939D02*
X423613D01*
X412224D02*
X414429D01*
X403775D02*
X405245D01*
X395693D02*
X396061D01*
X585251Y414100D02*
X586721D01*
X577169D02*
X577537D01*
X566883D02*
X570557D01*
X558801D02*
X561373D01*
X548515D02*
X554393D01*
X540801D02*
X545209D01*
X434266D02*
X537494D01*
X428021D02*
X433531D01*
X421041D02*
X423245D01*
X411122D02*
X415163D01*
X404142D02*
X404877D01*
X394958D02*
X396795D01*
X585251Y414467D02*
X586721D01*
X577169D02*
X577537D01*
X566883D02*
X570557D01*
X558801D02*
X561373D01*
X548515D02*
X554393D01*
X540801D02*
X545209D01*
X434633D02*
X537494D01*
X428021D02*
X433531D01*
X421041D02*
X423245D01*
X411122D02*
X415163D01*
X404142D02*
X404877D01*
X394958D02*
X396795D01*
X602884Y414835D02*
X603619D01*
X584516D02*
X587823D01*
X566148D02*
X571291D01*
X559169D02*
X561005D01*
X547780D02*
X554760D01*
X540801D02*
X544474D01*
X435001D02*
X538229D01*
X427286D02*
X433899D01*
X421409D02*
X422510D01*
X411122D02*
X415531D01*
X394591D02*
X397163D01*
X602517Y415202D02*
X603987D01*
X583414D02*
X587823D01*
X565781D02*
X571659D01*
X559903D02*
X560271D01*
X547413D02*
X555495D01*
X541903D02*
X544107D01*
X435001D02*
X538596D01*
X426919D02*
X434266D01*
X421409D02*
X422143D01*
X410755D02*
X416633D01*
X394591D02*
X397530D01*
X378427D02*
X379162D01*
X602517Y415569D02*
X603987D01*
X583414D02*
X587823D01*
X565781D02*
X571659D01*
X559903D02*
X560271D01*
X547413D02*
X555495D01*
X541903D02*
X544107D01*
X435368D02*
X538596D01*
X426919D02*
X434266D01*
X421409D02*
X422143D01*
X410755D02*
X416633D01*
X394591D02*
X397530D01*
X378427D02*
X379162D01*
X601782Y415937D02*
X604721D01*
X583414D02*
X588557D01*
X564679D02*
X572026D01*
X546678D02*
X555862D01*
X542637D02*
X543739D01*
X435736D02*
X539331D01*
X426184D02*
X435001D01*
X410020D02*
X416633D01*
X393856D02*
X398265D01*
X377693D02*
X379897D01*
X620150Y416304D02*
X620885D01*
X601415D02*
X605089D01*
X582312D02*
X588925D01*
X564679D02*
X572761D01*
X546311D02*
X556597D01*
X436103D02*
X539698D01*
X425817D02*
X435368D01*
X409653D02*
X417000D01*
X393489D02*
X399367D01*
X377325D02*
X380264D01*
X620150Y416672D02*
X620885D01*
X601415D02*
X605089D01*
X582312D02*
X588925D01*
X564679D02*
X572761D01*
X546311D02*
X556597D01*
X436103D02*
X539698D01*
X425817D02*
X435368D01*
X409653D02*
X417000D01*
X393489D02*
X399367D01*
X377325D02*
X380264D01*
X619048Y417039D02*
X621252D01*
X600680D02*
X605823D01*
X582312D02*
X589659D01*
X563944D02*
X573128D01*
X545576D02*
X556964D01*
X436470D02*
X540433D01*
X425082D02*
X436103D01*
X408918D02*
X418102D01*
X392754D02*
X399367D01*
X376590D02*
X380999D01*
X361161D02*
X361896D01*
X619048Y417406D02*
X622355D01*
X600313D02*
X606191D01*
X581210D02*
X590027D01*
X562842D02*
X573863D01*
X544474D02*
X557699D01*
X436838D02*
X540801D01*
X424715D02*
X436470D01*
X408551D02*
X418837D01*
X392387D02*
X399734D01*
X376223D02*
X381366D01*
X360427D02*
X362631D01*
X617946Y417774D02*
X622355D01*
X599578D02*
X606925D01*
X580843D02*
X590394D01*
X562475D02*
X574230D01*
X544474D02*
X558066D01*
X424347D02*
X541535D01*
X407816D02*
X418837D01*
X391652D02*
X400469D01*
X375488D02*
X382101D01*
X360059D02*
X362998D01*
X326262D02*
X326997D01*
X617946Y418141D02*
X622355D01*
X599578D02*
X606925D01*
X580843D02*
X590394D01*
X562475D02*
X574230D01*
X544474D02*
X558066D01*
X424347D02*
X541535D01*
X407816D02*
X418837D01*
X391652D02*
X400469D01*
X375488D02*
X382101D01*
X360059D02*
X362998D01*
X326262D02*
X326997D01*
X618681Y418508D02*
X621987D01*
X600313D02*
X606191D01*
X581210D02*
X590027D01*
X563577D02*
X573863D01*
X545209D02*
X557699D01*
X437572D02*
X540801D01*
X425082D02*
X436470D01*
X408551D02*
X418837D01*
X392387D02*
X400469D01*
X376590D02*
X381366D01*
X360427D02*
X362631D01*
X619783Y418876D02*
X621987D01*
X600680D02*
X605823D01*
X581945D02*
X589659D01*
X563944D02*
X573128D01*
X545209D02*
X556964D01*
X437572D02*
X540433D01*
X425817D02*
X436103D01*
X408918D02*
X418102D01*
X392754D02*
X399367D01*
X376590D02*
X380999D01*
X361161D02*
X361896D01*
X619783Y419243D02*
X621987D01*
X600680D02*
X605823D01*
X581945D02*
X589659D01*
X563944D02*
X573128D01*
X545209D02*
X556964D01*
X437940D02*
X540433D01*
X425817D02*
X436103D01*
X408918D02*
X418102D01*
X392754D02*
X399367D01*
X376590D02*
X380999D01*
X361161D02*
X361896D01*
X620150Y419610D02*
X621252D01*
X601415D02*
X605089D01*
X583047D02*
X588925D01*
X563944D02*
X572761D01*
X546311D02*
X556597D01*
X542637D02*
X543005D01*
X438307D02*
X539698D01*
X425817D02*
X435368D01*
X409653D02*
X417000D01*
X393489D02*
X398632D01*
X377325D02*
X380264D01*
X601782Y419978D02*
X604721D01*
X583047D02*
X588557D01*
X564679D02*
X572026D01*
X546678D02*
X555862D01*
X541903D02*
X543739D01*
X438674D02*
X539331D01*
X426184D02*
X435001D01*
X410020D02*
X416633D01*
X393856D02*
X398265D01*
X377693D02*
X379162D01*
X601782Y420345D02*
X604721D01*
X583047D02*
X588557D01*
X564679D02*
X572026D01*
X546678D02*
X555862D01*
X541903D02*
X543739D01*
X438674D02*
X539331D01*
X426184D02*
X435001D01*
X410020D02*
X416633D01*
X393856D02*
X398265D01*
X377693D02*
X379162D01*
X601782Y420713D02*
X603987D01*
X583414D02*
X587823D01*
X565046D02*
X571659D01*
X559903D02*
X560271D01*
X547413D02*
X555495D01*
X541903D02*
X544107D01*
X438307D02*
X538596D01*
X426919D02*
X434266D01*
X410755D02*
X415898D01*
X394591D02*
X397530D01*
X378427D02*
X378795D01*
X602884Y421080D02*
X603987D01*
X584516D02*
X587823D01*
X577169D02*
X577537D01*
X566148D02*
X571291D01*
X559169D02*
X561373D01*
X547780D02*
X554760D01*
X540801D02*
X544474D01*
X437572D02*
X538596D01*
X427286D02*
X433899D01*
X421409D02*
X422510D01*
X411122D02*
X415531D01*
X394958D02*
X397163D01*
X602884Y421447D02*
X603987D01*
X584516D02*
X587823D01*
X577169D02*
X577537D01*
X566148D02*
X571291D01*
X559169D02*
X561373D01*
X547780D02*
X554760D01*
X540801D02*
X544474D01*
X437572D02*
X538596D01*
X427286D02*
X433899D01*
X421409D02*
X422510D01*
X411122D02*
X415531D01*
X394958D02*
X397163D01*
X585251Y421815D02*
X587455D01*
X576435D02*
X578271D01*
X566148D02*
X571291D01*
X558066D02*
X562107D01*
X548515D02*
X554393D01*
X540433D02*
X545209D01*
X437205D02*
X539331D01*
X428021D02*
X433531D01*
X421041D02*
X423245D01*
X411857D02*
X415163D01*
X395693D02*
X396795D01*
X594435Y422182D02*
X594803D01*
X585251D02*
X586721D01*
X576435D02*
X578639D01*
X566883D02*
X570189D01*
X558066D02*
X562475D01*
X548882D02*
X553658D01*
X539698D02*
X545576D01*
X437205D02*
X539331D01*
X428388D02*
X432797D01*
X420306D02*
X423613D01*
X412224D02*
X414429D01*
X404142D02*
X405245D01*
X594435Y422549D02*
X594803D01*
X585251D02*
X586721D01*
X576435D02*
X578639D01*
X566883D02*
X570189D01*
X558066D02*
X562475D01*
X548882D02*
X553658D01*
X539698D02*
X545576D01*
X437205D02*
X539331D01*
X428388D02*
X432797D01*
X420306D02*
X423613D01*
X412224D02*
X414429D01*
X404142D02*
X405245D01*
X593700Y422917D02*
X595537D01*
X575332D02*
X579373D01*
X567985D02*
X570189D01*
X557699D02*
X562475D01*
X549617D02*
X553291D01*
X436470D02*
X546311D01*
X429123D02*
X432429D01*
X419939D02*
X424347D01*
X412959D02*
X414061D01*
X403775D02*
X405979D01*
X593333Y423284D02*
X595905D01*
X574965D02*
X579741D01*
X568353D02*
X569455D01*
X556964D02*
X562842D01*
X549985D02*
X552923D01*
X436103D02*
X546678D01*
X429490D02*
X431694D01*
X419204D02*
X424715D01*
X403040D02*
X406347D01*
X386877D02*
X387611D01*
X593333Y423652D02*
X595905D01*
X574965D02*
X579741D01*
X568353D02*
X569455D01*
X556964D02*
X562842D01*
X549985D02*
X552923D01*
X436103D02*
X546678D01*
X429490D02*
X431694D01*
X419204D02*
X424715D01*
X403040D02*
X406347D01*
X386877D02*
X387611D01*
X611701Y424019D02*
X612803D01*
X593333D02*
X596639D01*
X574230D02*
X580475D01*
X555862D02*
X563577D01*
X550719D02*
X552923D01*
X435368D02*
X547413D01*
X430225D02*
X431327D01*
X418837D02*
X425082D01*
X402673D02*
X406714D01*
X386509D02*
X387979D01*
X610966Y424386D02*
X613171D01*
X592231D02*
X597007D01*
X573863D02*
X580843D01*
X555862D02*
X563944D01*
X551087D02*
X551821D01*
X435001D02*
X547780D01*
X418102D02*
X425817D01*
X401938D02*
X407449D01*
X385774D02*
X388346D01*
X610966Y424753D02*
X613171D01*
X592231D02*
X597007D01*
X573863D02*
X580843D01*
X555862D02*
X563944D01*
X551087D02*
X551821D01*
X435001D02*
X547780D01*
X418102D02*
X425817D01*
X401938D02*
X407449D01*
X385774D02*
X388346D01*
X609864Y425121D02*
X613905D01*
X591496D02*
X597007D01*
X573128D02*
X581210D01*
X554760D02*
X565046D01*
X434266D02*
X548515D01*
X417735D02*
X426184D01*
X401571D02*
X407816D01*
X385407D02*
X389448D01*
X369611D02*
X369978D01*
X628967Y425488D02*
X630069D01*
X609864D02*
X613905D01*
X591129D02*
X598109D01*
X572761D02*
X581945D01*
X554393D02*
X565781D01*
X433899D02*
X548882D01*
X417000D02*
X426919D01*
X400836D02*
X408551D01*
X385407D02*
X389448D01*
X369243D02*
X371080D01*
X628967Y425856D02*
X630069D01*
X609864D02*
X613905D01*
X591129D02*
X598109D01*
X572761D02*
X581945D01*
X554393D02*
X565781D01*
X433899D02*
X548882D01*
X417000D02*
X426919D01*
X400836D02*
X408551D01*
X385407D02*
X389448D01*
X369243D02*
X371080D01*
X627865Y426223D02*
X630436D01*
X608762D02*
X615007D01*
X590394D02*
X598843D01*
X572026D02*
X582312D01*
X553658D02*
X565781D01*
X433531D02*
X549617D01*
X417000D02*
X427286D01*
X400836D02*
X408918D01*
X384305D02*
X390550D01*
X368509D02*
X371815D01*
X627130Y426590D02*
X630436D01*
X608395D02*
X615007D01*
X590027D02*
X599211D01*
X571659D02*
X582312D01*
X553291D02*
X566148D01*
X432797D02*
X549985D01*
X416633D02*
X428021D01*
X400469D02*
X409653D01*
X384305D02*
X391285D01*
X368141D02*
X372182D01*
X627865Y426958D02*
X630436D01*
X608762D02*
X614273D01*
X590394D02*
X598109D01*
X572026D02*
X582312D01*
X553658D02*
X565781D01*
X433531D02*
X549617D01*
X417000D02*
X427286D01*
X400836D02*
X408918D01*
X384672D02*
X390183D01*
X368509D02*
X371815D01*
X627865Y427325D02*
X630436D01*
X608762D02*
X614273D01*
X590394D02*
X598109D01*
X572026D02*
X582312D01*
X553658D02*
X565781D01*
X433531D02*
X549617D01*
X417000D02*
X427286D01*
X400836D02*
X408918D01*
X384672D02*
X390183D01*
X368509D02*
X371815D01*
X628967Y427692D02*
X630069D01*
X609864D02*
X614273D01*
X591129D02*
X598109D01*
X572761D02*
X581945D01*
X554393D02*
X565781D01*
X433899D02*
X548882D01*
X417735D02*
X426919D01*
X401571D02*
X408551D01*
X385407D02*
X390183D01*
X369611D02*
X371080D01*
X628967Y428060D02*
X629334D01*
X609864D02*
X613905D01*
X591496D02*
X597741D01*
X573128D02*
X581210D01*
X554760D02*
X565046D01*
X434266D02*
X548515D01*
X418102D02*
X426184D01*
X401938D02*
X407816D01*
X385774D02*
X389448D01*
X369611D02*
X369978D01*
X628967Y428427D02*
X629334D01*
X609864D02*
X613905D01*
X591496D02*
X597741D01*
X573128D02*
X581210D01*
X554760D02*
X565046D01*
X444552D02*
X548515D01*
X434266D02*
X444185D01*
X418102D02*
X426184D01*
X401938D02*
X407816D01*
X385774D02*
X389448D01*
X369611D02*
X369978D01*
X610599Y428795D02*
X613171D01*
X592231D02*
X597007D01*
X573863D02*
X580843D01*
X555495D02*
X563944D01*
X551087D02*
X552189D01*
X444920D02*
X547780D01*
X435001D02*
X443450D01*
X418102D02*
X425817D01*
X402673D02*
X407449D01*
X386509D02*
X388346D01*
X610966Y429162D02*
X612803D01*
X592598D02*
X596639D01*
X574230D02*
X580475D01*
X568353D02*
X569087D01*
X555862D02*
X563944D01*
X550719D02*
X552923D01*
X444920D02*
X547413D01*
X435368D02*
X443083D01*
X430225D02*
X430592D01*
X419204D02*
X424715D01*
X402673D02*
X406347D01*
X386877D02*
X387979D01*
X610966Y429529D02*
X612803D01*
X592598D02*
X596639D01*
X574230D02*
X580475D01*
X568353D02*
X569087D01*
X555862D02*
X563944D01*
X550719D02*
X552923D01*
X445287D02*
X547413D01*
X435368D02*
X443083D01*
X430225D02*
X430592D01*
X419204D02*
X424715D01*
X402673D02*
X406347D01*
X386877D02*
X387979D01*
X611701Y429897D02*
X612068D01*
X593333D02*
X595905D01*
X574965D02*
X579741D01*
X567985D02*
X569455D01*
X556597D02*
X563577D01*
X549617D02*
X553291D01*
X445654D02*
X546678D01*
X436103D02*
X442715D01*
X430225D02*
X431327D01*
X419204D02*
X424347D01*
X403040D02*
X406347D01*
X593700Y430264D02*
X595537D01*
X585619D02*
X586353D01*
X575332D02*
X579373D01*
X567251D02*
X570189D01*
X556964D02*
X562842D01*
X549617D02*
X553658D01*
X445654D02*
X546311D01*
X436470D02*
X441981D01*
X429490D02*
X431694D01*
X420306D02*
X423613D01*
X412959D02*
X413326D01*
X403775D02*
X405245D01*
X593700Y430631D02*
X595537D01*
X585619D02*
X586353D01*
X575332D02*
X579373D01*
X567251D02*
X570189D01*
X556964D02*
X562842D01*
X549617D02*
X553658D01*
X445654D02*
X546311D01*
X436470D02*
X441981D01*
X429490D02*
X431694D01*
X420306D02*
X423613D01*
X412959D02*
X413326D01*
X403775D02*
X405245D01*
X594435Y430999D02*
X594803D01*
X585251D02*
X586721D01*
X576067D02*
X578639D01*
X566883D02*
X570557D01*
X557699D02*
X562475D01*
X548882D02*
X553658D01*
X445287D02*
X545576D01*
X437205D02*
X441613D01*
X428388D02*
X432429D01*
X421041D02*
X423245D01*
X412224D02*
X414061D01*
X404142D02*
X404877D01*
X602884Y431366D02*
X603619D01*
X584516D02*
X587455D01*
X576435D02*
X578271D01*
X566148D02*
X571291D01*
X558066D02*
X562107D01*
X547780D02*
X554760D01*
X444552D02*
X546311D01*
X437572D02*
X440878D01*
X428388D02*
X432797D01*
X421409D02*
X422510D01*
X411857D02*
X414429D01*
X602884Y431733D02*
X603619D01*
X584516D02*
X587455D01*
X576435D02*
X578271D01*
X566148D02*
X571291D01*
X558066D02*
X562107D01*
X547780D02*
X554760D01*
X444552D02*
X546311D01*
X437572D02*
X440878D01*
X428388D02*
X432797D01*
X421409D02*
X422510D01*
X411857D02*
X414429D01*
X602517Y432101D02*
X603987D01*
X584149D02*
X587823D01*
X577169D02*
X577537D01*
X565781D02*
X571659D01*
X558801D02*
X561373D01*
X547413D02*
X555495D01*
X444185D02*
X546311D01*
X438307D02*
X440511D01*
X428021D02*
X433531D01*
X411857D02*
X415163D01*
X395693D02*
X396795D01*
X601782Y432468D02*
X604721D01*
X583414D02*
X588557D01*
X565046D02*
X572026D01*
X559169D02*
X561005D01*
X443450D02*
X555862D01*
X438674D02*
X439776D01*
X427286D02*
X433899D01*
X410755D02*
X415531D01*
X394958D02*
X397163D01*
X601782Y432836D02*
X604721D01*
X583414D02*
X588557D01*
X565046D02*
X572026D01*
X559169D02*
X561005D01*
X443450D02*
X555862D01*
X438674D02*
X439776D01*
X427286D02*
X433899D01*
X410755D02*
X415531D01*
X394958D02*
X397163D01*
X620150Y433203D02*
X621252D01*
X601415D02*
X605089D01*
X583047D02*
X588925D01*
X564679D02*
X572761D01*
X559903D02*
X560271D01*
X443450D02*
X555862D01*
X426919D02*
X434266D01*
X410755D02*
X416633D01*
X394591D02*
X397530D01*
X378427D02*
X379162D01*
X619048Y433570D02*
X621987D01*
X600680D02*
X605823D01*
X582312D02*
X589659D01*
X563944D02*
X573128D01*
X442715D02*
X556597D01*
X426184D02*
X435368D01*
X410020D02*
X417000D01*
X393856D02*
X398265D01*
X377693D02*
X379162D01*
X619048Y433937D02*
X621987D01*
X600680D02*
X605823D01*
X582312D02*
X589659D01*
X563944D02*
X573128D01*
X442715D02*
X556597D01*
X426184D02*
X435368D01*
X410020D02*
X417000D01*
X393856D02*
X398265D01*
X377693D02*
X379162D01*
X637416Y434305D02*
X638151D01*
X618681D02*
X622355D01*
X599578D02*
X606191D01*
X581210D02*
X590027D01*
X563577D02*
X573863D01*
X442715D02*
X556964D01*
X425817D02*
X436103D01*
X409653D02*
X417735D01*
X393489D02*
X398632D01*
X377325D02*
X379897D01*
X637049Y434672D02*
X638518D01*
X617946D02*
X623089D01*
X599578D02*
X606925D01*
X580843D02*
X590394D01*
X562842D02*
X574230D01*
X441981D02*
X558066D01*
X425082D02*
X436103D01*
X408918D02*
X418102D01*
X392754D02*
X399367D01*
X377325D02*
X380999D01*
X637049Y435040D02*
X638518D01*
X617946D02*
X623089D01*
X599578D02*
X606925D01*
X580843D02*
X590394D01*
X562842D02*
X574230D01*
X441981D02*
X558066D01*
X425082D02*
X436103D01*
X408918D02*
X418102D01*
X392754D02*
X399367D01*
X377325D02*
X380999D01*
X655417Y435407D02*
X655784D01*
X637049D02*
X639253D01*
X617579D02*
X623457D01*
X598843D02*
X607293D01*
X580475D02*
X591129D01*
X562107D02*
X574965D01*
X440878D02*
X558066D01*
X424715D02*
X437205D01*
X408551D02*
X418102D01*
X392387D02*
X399734D01*
X376590D02*
X381366D01*
X257198D02*
X257933D01*
X637049Y435774D02*
X638518D01*
X617946D02*
X623089D01*
X599211D02*
X606925D01*
X580843D02*
X590394D01*
X562475D02*
X574230D01*
X441613D02*
X557699D01*
X425082D02*
X436103D01*
X408918D02*
X417735D01*
X392754D02*
X399367D01*
X377325D02*
X380264D01*
X637416Y436142D02*
X638151D01*
X618681D02*
X622355D01*
X599578D02*
X606191D01*
X581210D02*
X590027D01*
X563577D02*
X573863D01*
X442715D02*
X557699D01*
X425817D02*
X435368D01*
X409653D02*
X417000D01*
X393489D02*
X398632D01*
X377693D02*
X379897D01*
X637416Y436509D02*
X638151D01*
X618681D02*
X622355D01*
X599578D02*
X606191D01*
X581210D02*
X590027D01*
X563577D02*
X573863D01*
X442715D02*
X557699D01*
X425817D02*
X435368D01*
X409653D02*
X417000D01*
X393489D02*
X398632D01*
X377693D02*
X379897D01*
X619048Y436876D02*
X621987D01*
X600680D02*
X605823D01*
X581945D02*
X589659D01*
X563577D02*
X573128D01*
X443083D02*
X556597D01*
X426184D02*
X435001D01*
X410020D02*
X416633D01*
X393856D02*
X398265D01*
X378427D02*
X379162D01*
X619783Y437244D02*
X621252D01*
X601415D02*
X605089D01*
X582312D02*
X589659D01*
X563944D02*
X572761D01*
X559903D02*
X560271D01*
X443083D02*
X556597D01*
X426919D02*
X434266D01*
X410755D02*
X415898D01*
X394591D02*
X397530D01*
X619783Y437611D02*
X621252D01*
X601415D02*
X605089D01*
X582312D02*
X589659D01*
X563944D02*
X572761D01*
X559903D02*
X560271D01*
X443083D02*
X556597D01*
X426919D02*
X434266D01*
X410755D02*
X415898D01*
X394591D02*
X397530D01*
X620150Y437979D02*
X620885D01*
X601782D02*
X605089D01*
X583414D02*
X588557D01*
X564679D02*
X572026D01*
X559169D02*
X561005D01*
X443450D02*
X555862D01*
X438674D02*
X439409D01*
X427286D02*
X433899D01*
X411122D02*
X415531D01*
X394958D02*
X397163D01*
X601782Y438346D02*
X604721D01*
X583414D02*
X587823D01*
X577169D02*
X578271D01*
X565046D02*
X571659D01*
X558801D02*
X562107D01*
X444185D02*
X555495D01*
X438307D02*
X440511D01*
X428021D02*
X433531D01*
X411857D02*
X415163D01*
X395693D02*
X396795D01*
X601782Y438713D02*
X604721D01*
X583414D02*
X587823D01*
X577169D02*
X578271D01*
X565046D02*
X571659D01*
X558801D02*
X562107D01*
X444185D02*
X555495D01*
X438307D02*
X440511D01*
X428021D02*
X433531D01*
X411857D02*
X415163D01*
X395693D02*
X396795D01*
X602517Y439081D02*
X603987D01*
X594435D02*
X594803D01*
X584516D02*
X587823D01*
X576435D02*
X578639D01*
X566148D02*
X571291D01*
X558066D02*
X562107D01*
X452267D02*
X554760D01*
X445287D02*
X451165D01*
X437572D02*
X440878D01*
X428388D02*
X432797D01*
X421409D02*
X422510D01*
X412224D02*
X414429D01*
X593700Y439448D02*
X595537D01*
X585251D02*
X587455D01*
X575332D02*
X579373D01*
X566883D02*
X570557D01*
X557699D02*
X562475D01*
X452267D02*
X554393D01*
X445287D02*
X450062D01*
X437205D02*
X441613D01*
X429123D02*
X432429D01*
X421041D02*
X423245D01*
X412959D02*
X414061D01*
X593700Y439815D02*
X595537D01*
X585251D02*
X587455D01*
X575332D02*
X579373D01*
X566883D02*
X570557D01*
X557699D02*
X562475D01*
X452634D02*
X554393D01*
X445287D02*
X450062D01*
X437205D02*
X441613D01*
X429123D02*
X432429D01*
X421041D02*
X423245D01*
X412959D02*
X414061D01*
X593333Y440183D02*
X595905D01*
X585619D02*
X586721D01*
X574965D02*
X579373D01*
X567251D02*
X570557D01*
X556964D02*
X562842D01*
X453001D02*
X553658D01*
X445654D02*
X450062D01*
X436470D02*
X441981D01*
X429490D02*
X431694D01*
X420306D02*
X423613D01*
X404142D02*
X405245D01*
X611701Y440550D02*
X612803D01*
X593333D02*
X596639D01*
X574230D02*
X579741D01*
X567985D02*
X570189D01*
X556597D02*
X563577D01*
X452634D02*
X553291D01*
X446756D02*
X448960D01*
X436103D02*
X442715D01*
X430225D02*
X431327D01*
X419939D02*
X424347D01*
X403775D02*
X405979D01*
X611701Y440917D02*
X612803D01*
X593333D02*
X596639D01*
X574230D02*
X579741D01*
X567985D02*
X570189D01*
X556597D02*
X563577D01*
X452634D02*
X553291D01*
X446756D02*
X448960D01*
X436103D02*
X442715D01*
X430225D02*
X431327D01*
X419939D02*
X424347D01*
X403775D02*
X405979D01*
X610966Y441285D02*
X612803D01*
X592231D02*
X597007D01*
X573863D02*
X580843D01*
X568353D02*
X569455D01*
X555862D02*
X563944D01*
X452267D02*
X553291D01*
X446756D02*
X448593D01*
X435368D02*
X443083D01*
X419204D02*
X424715D01*
X403040D02*
X406347D01*
X628967Y441652D02*
X629334D01*
X609864D02*
X613171D01*
X591496D02*
X597741D01*
X573128D02*
X581210D01*
X555495D02*
X564679D01*
X451899D02*
X553291D01*
X447491D02*
X447858D01*
X435001D02*
X443450D01*
X418837D02*
X425082D01*
X402673D02*
X406714D01*
X386877D02*
X387979D01*
X628967Y442020D02*
X629334D01*
X609864D02*
X613171D01*
X591496D02*
X597741D01*
X573128D02*
X581210D01*
X555495D02*
X564679D01*
X451899D02*
X553291D01*
X447491D02*
X447858D01*
X435001D02*
X443450D01*
X418837D02*
X425082D01*
X402673D02*
X406714D01*
X386877D02*
X387979D01*
X628232Y442387D02*
X630069D01*
X609497D02*
X614273D01*
X591129D02*
X598109D01*
X572761D02*
X581945D01*
X554393D02*
X565046D01*
X451165D02*
X553658D01*
X435001D02*
X444185D01*
X418102D02*
X425817D01*
X401938D02*
X407449D01*
X386509D02*
X388346D01*
X627865Y442754D02*
X630436D01*
X608762D02*
X615007D01*
X590394D02*
X598843D01*
X572026D02*
X582312D01*
X450797D02*
X565781D01*
X434266D02*
X444552D01*
X418102D02*
X426184D01*
X401571D02*
X407816D01*
X385774D02*
X389081D01*
X627865Y443121D02*
X630436D01*
X608762D02*
X615007D01*
X590394D02*
X598843D01*
X572026D02*
X582312D01*
X450797D02*
X565781D01*
X434266D02*
X444552D01*
X418102D02*
X426184D01*
X401571D02*
X407816D01*
X385774D02*
X389081D01*
X627130Y443489D02*
X631171D01*
X608395D02*
X615375D01*
X590027D02*
X599211D01*
X571659D02*
X583047D01*
X450062D02*
X566148D01*
X433899D02*
X445287D01*
X417735D02*
X426919D01*
X401571D02*
X408551D01*
X385407D02*
X389448D01*
X369611D02*
X370713D01*
X645498Y443856D02*
X646600D01*
X626763D02*
X631539D01*
X608027D02*
X616109D01*
X589659D02*
X599578D01*
X571291D02*
X583047D01*
X449695D02*
X566883D01*
X433531D02*
X445654D01*
X416633D02*
X427286D01*
X400836D02*
X408918D01*
X384672D02*
X390183D01*
X369243D02*
X371080D01*
X645498Y444224D02*
X646600D01*
X626763D02*
X631539D01*
X608027D02*
X616109D01*
X589659D02*
X599578D01*
X571291D02*
X583047D01*
X449695D02*
X566883D01*
X433531D02*
X445654D01*
X416633D02*
X427286D01*
X400836D02*
X408918D01*
X384672D02*
X390183D01*
X369243D02*
X371080D01*
X627130Y444591D02*
X631171D01*
X608395D02*
X615375D01*
X590027D02*
X599211D01*
X571659D02*
X583047D01*
X450062D02*
X566148D01*
X433899D02*
X445287D01*
X417735D02*
X426919D01*
X401571D02*
X408551D01*
X385407D02*
X389448D01*
X369611D02*
X370713D01*
X627130Y444958D02*
X630436D01*
X608762D02*
X615007D01*
X590394D02*
X598843D01*
X572026D02*
X582312D01*
X450797D02*
X565781D01*
X434266D02*
X444552D01*
X417735D02*
X426184D01*
X401938D02*
X407816D01*
X385774D02*
X389081D01*
X628232Y445326D02*
X630069D01*
X609497D02*
X614273D01*
X591129D02*
X598109D01*
X572761D02*
X581945D01*
X451165D02*
X565046D01*
X434266D02*
X444185D01*
X418837D02*
X425817D01*
X402673D02*
X407449D01*
X386509D02*
X388346D01*
X628232Y445693D02*
X630069D01*
X609497D02*
X614273D01*
X591129D02*
X598109D01*
X572761D02*
X581945D01*
X451165D02*
X565046D01*
X434266D02*
X444185D01*
X418837D02*
X425817D01*
X402673D02*
X407449D01*
X386509D02*
X388346D01*
X628967Y446060D02*
X630069D01*
X609864D02*
X613905D01*
X591496D02*
X597741D01*
X573128D02*
X581210D01*
X568353D02*
X569087D01*
X451899D02*
X564679D01*
X447491D02*
X447858D01*
X435368D02*
X443450D01*
X418837D02*
X425082D01*
X402673D02*
X406347D01*
X386877D02*
X387979D01*
X610599Y446428D02*
X613171D01*
X592231D02*
X597007D01*
X573863D02*
X580843D01*
X567985D02*
X569455D01*
X452267D02*
X564679D01*
X447491D02*
X448593D01*
X435368D02*
X442715D01*
X419939D02*
X424347D01*
X403040D02*
X405979D01*
X610599Y446795D02*
X613171D01*
X592231D02*
X597007D01*
X573863D02*
X580843D01*
X567985D02*
X569455D01*
X452267D02*
X564679D01*
X447491D02*
X448593D01*
X435368D02*
X442715D01*
X419939D02*
X424347D01*
X403040D02*
X405979D01*
X610966Y447163D02*
X612803D01*
X592598D02*
X596639D01*
X585619D02*
X586353D01*
X574230D02*
X580475D01*
X567251D02*
X570189D01*
X452634D02*
X563577D01*
X446756D02*
X448960D01*
X436470D02*
X442715D01*
X430225D02*
X430592D01*
X420306D02*
X423613D01*
X403775D02*
X405245D01*
X611701Y447530D02*
X612068D01*
X593333D02*
X595905D01*
X585251D02*
X586721D01*
X574965D02*
X579741D01*
X566883D02*
X570557D01*
X453369D02*
X562842D01*
X446389D02*
X449695D01*
X437205D02*
X441613D01*
X429490D02*
X431327D01*
X421041D02*
X423613D01*
X404142D02*
X404877D01*
X611701Y447897D02*
X612068D01*
X593333D02*
X595905D01*
X585251D02*
X586721D01*
X574965D02*
X579741D01*
X566883D02*
X570557D01*
X453369D02*
X562842D01*
X446389D02*
X449695D01*
X437205D02*
X441613D01*
X429490D02*
X431327D01*
X421041D02*
X423613D01*
X404142D02*
X404877D01*
X602884Y448265D02*
X603619D01*
X593700D02*
X595537D01*
X584516D02*
X587455D01*
X575332D02*
X579373D01*
X566148D02*
X571291D01*
X453736D02*
X562475D01*
X445654D02*
X450062D01*
X437205D02*
X440878D01*
X429490D02*
X431694D01*
X421041D02*
X422510D01*
X412959D02*
X413326D01*
X602517Y448632D02*
X603987D01*
X594435D02*
X594803D01*
X584149D02*
X587823D01*
X576067D02*
X578639D01*
X565781D02*
X571659D01*
X454471D02*
X562475D01*
X445287D02*
X450797D01*
X438307D02*
X440511D01*
X428388D02*
X432429D01*
X421409D02*
X422143D01*
X412224D02*
X414061D01*
X602517Y448999D02*
X603987D01*
X594435D02*
X594803D01*
X584149D02*
X587823D01*
X576067D02*
X578639D01*
X565781D02*
X571659D01*
X459247D02*
X562475D01*
X454471D02*
X458879D01*
X445287D02*
X450797D01*
X438307D02*
X440511D01*
X428388D02*
X432429D01*
X421409D02*
X422143D01*
X412224D02*
X414061D01*
X620150Y449367D02*
X620885D01*
X601782D02*
X604721D01*
X583414D02*
X588557D01*
X576435D02*
X578271D01*
X565046D02*
X572026D01*
X459247D02*
X562107D01*
X454838D02*
X458144D01*
X444552D02*
X451165D01*
X438674D02*
X439776D01*
X428388D02*
X432797D01*
X411857D02*
X415163D01*
X619783Y449734D02*
X621252D01*
X600680D02*
X605089D01*
X583047D02*
X588925D01*
X577169D02*
X577537D01*
X564679D02*
X572761D01*
X459614D02*
X561373D01*
X455573D02*
X457777D01*
X444185D02*
X451899D01*
X438674D02*
X439409D01*
X428021D02*
X433899D01*
X411857D02*
X415163D01*
X395693D02*
X396795D01*
X619783Y450101D02*
X621252D01*
X600680D02*
X605089D01*
X583047D02*
X588925D01*
X577169D02*
X577537D01*
X564679D02*
X572761D01*
X459981D02*
X561373D01*
X455573D02*
X457777D01*
X444185D02*
X451899D01*
X438674D02*
X439409D01*
X428021D02*
X433899D01*
X411857D02*
X415163D01*
X395693D02*
X396795D01*
X619048Y450469D02*
X621987D01*
X600680D02*
X605823D01*
X581945D02*
X589659D01*
X563944D02*
X573128D01*
X559903D02*
X561005D01*
X460349D02*
X559169D01*
X455940D02*
X456675D01*
X443450D02*
X452267D01*
X427286D02*
X433899D01*
X411122D02*
X415531D01*
X394958D02*
X397163D01*
X637416Y450836D02*
X638151D01*
X618681D02*
X622355D01*
X599578D02*
X606191D01*
X581945D02*
X590027D01*
X563577D02*
X573863D01*
X459981D02*
X559903D01*
X443083D02*
X452634D01*
X426919D02*
X435001D01*
X410755D02*
X416633D01*
X394591D02*
X397530D01*
X637416Y451203D02*
X638151D01*
X618681D02*
X622355D01*
X599578D02*
X606191D01*
X581945D02*
X590027D01*
X563577D02*
X573863D01*
X459981D02*
X559903D01*
X443083D02*
X452634D01*
X426919D02*
X435001D01*
X410755D02*
X416633D01*
X394591D02*
X397530D01*
X636314Y451571D02*
X638518D01*
X617946D02*
X623089D01*
X599578D02*
X606925D01*
X581210D02*
X590394D01*
X562842D02*
X574230D01*
X459247D02*
X560271D01*
X442715D02*
X453369D01*
X426184D02*
X435368D01*
X410020D02*
X416633D01*
X393856D02*
X398265D01*
X378427D02*
X379162D01*
X636314Y451938D02*
X639253D01*
X617579D02*
X623457D01*
X598843D02*
X607293D01*
X580475D02*
X591129D01*
X562107D02*
X574230D01*
X458879D02*
X561005D01*
X441981D02*
X453736D01*
X425817D02*
X436103D01*
X409653D02*
X417000D01*
X393489D02*
X398632D01*
X377693D02*
X379897D01*
X636314Y452305D02*
X639253D01*
X617579D02*
X623457D01*
X598843D02*
X607293D01*
X580475D02*
X591129D01*
X562107D02*
X574230D01*
X458879D02*
X561005D01*
X441981D02*
X453736D01*
X425817D02*
X436103D01*
X409653D02*
X417000D01*
X393489D02*
X398632D01*
X377693D02*
X379897D01*
X635579Y452673D02*
X639620D01*
X617211D02*
X624191D01*
X598109D02*
X608027D01*
X579741D02*
X591496D01*
X562107D02*
X575332D01*
X458144D02*
X561005D01*
X441613D02*
X454471D01*
X425082D02*
X436103D01*
X408918D02*
X417735D01*
X392754D02*
X399367D01*
X377325D02*
X380264D01*
X635947Y453040D02*
X639253D01*
X617579D02*
X623457D01*
X598843D02*
X607293D01*
X580843D02*
X591129D01*
X562475D02*
X574965D01*
X458879D02*
X561373D01*
X442715D02*
X453736D01*
X425817D02*
X436103D01*
X409653D02*
X417735D01*
X393489D02*
X398632D01*
X377693D02*
X379897D01*
X635947Y453408D02*
X639253D01*
X617579D02*
X623457D01*
X598843D02*
X607293D01*
X580843D02*
X591129D01*
X562475D02*
X574965D01*
X458879D02*
X561373D01*
X442715D02*
X453736D01*
X425817D02*
X436103D01*
X409653D02*
X417735D01*
X393489D02*
X398632D01*
X377693D02*
X379897D01*
X637049Y453775D02*
X639253D01*
X617946D02*
X623089D01*
X599211D02*
X606925D01*
X581210D02*
X590394D01*
X562842D02*
X574230D01*
X459247D02*
X562107D01*
X443083D02*
X453369D01*
X426184D02*
X435368D01*
X410020D02*
X416633D01*
X393856D02*
X398265D01*
X378427D02*
X379162D01*
X637416Y454142D02*
X638518D01*
X618681D02*
X622355D01*
X600313D02*
X606191D01*
X581210D02*
X590027D01*
X563577D02*
X573863D01*
X459981D02*
X562107D01*
X443083D02*
X452634D01*
X426919D02*
X434266D01*
X410755D02*
X415898D01*
X394591D02*
X397530D01*
X619048Y454510D02*
X621987D01*
X600313D02*
X605823D01*
X581945D02*
X589659D01*
X563944D02*
X573128D01*
X460349D02*
X562475D01*
X455940D02*
X457042D01*
X443450D02*
X452267D01*
X427286D02*
X433899D01*
X411122D02*
X415531D01*
X394958D02*
X396795D01*
X619048Y454877D02*
X621987D01*
X600313D02*
X605823D01*
X581945D02*
X589659D01*
X563944D02*
X573128D01*
X460349D02*
X562475D01*
X455940D02*
X457042D01*
X443450D02*
X452267D01*
X427286D02*
X433899D01*
X411122D02*
X415531D01*
X394958D02*
X396795D01*
X619783Y455244D02*
X621252D01*
X601415D02*
X605089D01*
X582312D02*
X588925D01*
X577169D02*
X577537D01*
X564679D02*
X572761D01*
X461083D02*
X562842D01*
X455573D02*
X457042D01*
X444185D02*
X451899D01*
X428021D02*
X433531D01*
X411857D02*
X415163D01*
X395693D02*
X396061D01*
X620150Y455612D02*
X621252D01*
X601782D02*
X605089D01*
X594435D02*
X594803D01*
X583414D02*
X588557D01*
X576435D02*
X578639D01*
X565046D02*
X572026D01*
X461451D02*
X563577D01*
X454838D02*
X458144D01*
X444552D02*
X451165D01*
X438674D02*
X439776D01*
X428388D02*
X432797D01*
X412224D02*
X414429D01*
X620150Y455979D02*
X621252D01*
X601782D02*
X605089D01*
X594435D02*
X594803D01*
X583414D02*
X588557D01*
X576435D02*
X578639D01*
X565046D02*
X572026D01*
X461451D02*
X563577D01*
X454838D02*
X458144D01*
X444552D02*
X451165D01*
X438674D02*
X439776D01*
X428388D02*
X432797D01*
X412224D02*
X414429D01*
X602517Y456347D02*
X604721D01*
X594435D02*
X595537D01*
X583414D02*
X588557D01*
X576067D02*
X579373D01*
X565781D02*
X571659D01*
X461451D02*
X563577D01*
X454471D02*
X458879D01*
X445287D02*
X450797D01*
X438307D02*
X440511D01*
X429123D02*
X432429D01*
X412959D02*
X414061D01*
X602517Y456714D02*
X603987D01*
X593700D02*
X595905D01*
X584149D02*
X587455D01*
X575332D02*
X579741D01*
X566148D02*
X571291D01*
X461818D02*
X563944D01*
X454471D02*
X458879D01*
X445654D02*
X450062D01*
X437572D02*
X440878D01*
X429490D02*
X431694D01*
X421409D02*
X422510D01*
X602517Y457081D02*
X603987D01*
X593700D02*
X595905D01*
X584149D02*
X587455D01*
X575332D02*
X579741D01*
X566148D02*
X571291D01*
X461818D02*
X563944D01*
X454471D02*
X458879D01*
X445654D02*
X450062D01*
X437572D02*
X440878D01*
X429490D02*
X431694D01*
X421409D02*
X422510D01*
X611701Y457449D02*
X612803D01*
X592598D02*
X596639D01*
X585251D02*
X587455D01*
X574965D02*
X579741D01*
X566883D02*
X570557D01*
X462920D02*
X564679D01*
X453736D02*
X459981D01*
X446389D02*
X449695D01*
X437205D02*
X441613D01*
X430225D02*
X431327D01*
X421041D02*
X423245D01*
X610599Y457816D02*
X613171D01*
X592231D02*
X597007D01*
X585619D02*
X586721D01*
X574230D02*
X580475D01*
X567251D02*
X570189D01*
X462920D02*
X564679D01*
X453369D02*
X460349D01*
X446756D02*
X448960D01*
X436470D02*
X441981D01*
X420306D02*
X423613D01*
X404142D02*
X404877D01*
X610599Y458183D02*
X613171D01*
X592231D02*
X597007D01*
X585619D02*
X586721D01*
X574230D02*
X580475D01*
X567251D02*
X570189D01*
X462920D02*
X564679D01*
X453369D02*
X460349D01*
X446756D02*
X448960D01*
X436470D02*
X441981D01*
X420306D02*
X423613D01*
X404142D02*
X404877D01*
X628967Y458551D02*
X630069D01*
X610599D02*
X613905D01*
X591496D02*
X597741D01*
X573128D02*
X580843D01*
X567985D02*
X570189D01*
X464022D02*
X565046D01*
X452634D02*
X461083D01*
X447491D02*
X448593D01*
X436103D02*
X442715D01*
X419939D02*
X424347D01*
X403775D02*
X405245D01*
X628232Y458918D02*
X630436D01*
X609497D02*
X614273D01*
X591129D02*
X598109D01*
X573128D02*
X581210D01*
X568353D02*
X569087D01*
X466226D02*
X565781D01*
X464757D02*
X465859D01*
X452267D02*
X461451D01*
X435368D02*
X443083D01*
X419204D02*
X424715D01*
X403040D02*
X405979D01*
X628232Y459285D02*
X630436D01*
X609497D02*
X614273D01*
X591129D02*
X598109D01*
X573128D02*
X581210D01*
X568353D02*
X569087D01*
X466594D02*
X565781D01*
X464757D02*
X465859D01*
X452267D02*
X461451D01*
X435368D02*
X443083D01*
X419204D02*
X424715D01*
X403040D02*
X405979D01*
X627130Y459653D02*
X631171D01*
X608762D02*
X614273D01*
X590394D02*
X598843D01*
X572026D02*
X581945D01*
X466594D02*
X566148D01*
X451899D02*
X461451D01*
X435001D02*
X443450D01*
X418837D02*
X425082D01*
X402673D02*
X406714D01*
X386877D02*
X387979D01*
X646233Y460020D02*
X647335D01*
X627130D02*
X631171D01*
X608395D02*
X615375D01*
X590027D02*
X599211D01*
X571659D02*
X583047D01*
X466961D02*
X566148D01*
X451165D02*
X462553D01*
X434266D02*
X444185D01*
X418102D02*
X425817D01*
X402673D02*
X406714D01*
X386509D02*
X388346D01*
X646233Y460387D02*
X647335D01*
X627130D02*
X631171D01*
X608395D02*
X615375D01*
X590027D02*
X599211D01*
X571659D02*
X583047D01*
X467328D02*
X566148D01*
X451165D02*
X462553D01*
X434266D02*
X444185D01*
X418102D02*
X425817D01*
X402673D02*
X406714D01*
X386509D02*
X388346D01*
X645131Y460755D02*
X647702D01*
X626395D02*
X631539D01*
X608027D02*
X616109D01*
X589659D02*
X599211D01*
X571291D02*
X583047D01*
X466961D02*
X566883D01*
X450797D02*
X462920D01*
X434266D02*
X444552D01*
X418102D02*
X426184D01*
X401571D02*
X407816D01*
X385774D02*
X389081D01*
X644763Y461122D02*
X648437D01*
X625661D02*
X632273D01*
X607293D02*
X616477D01*
X588925D02*
X599578D01*
X570557D02*
X583414D01*
X466226D02*
X567251D01*
X450062D02*
X463655D01*
X433899D02*
X445287D01*
X417735D02*
X426919D01*
X401571D02*
X408551D01*
X385407D02*
X389448D01*
X644763Y461490D02*
X648437D01*
X625661D02*
X632273D01*
X607293D02*
X616477D01*
X588925D02*
X599578D01*
X570557D02*
X583414D01*
X466226D02*
X567251D01*
X450062D02*
X463655D01*
X433899D02*
X445287D01*
X417735D02*
X426919D01*
X401571D02*
X408551D01*
X385407D02*
X389448D01*
X645131Y461857D02*
X647702D01*
X626395D02*
X631539D01*
X608027D02*
X615375D01*
X589659D02*
X599578D01*
X571291D02*
X583047D01*
X466961D02*
X567251D01*
X450797D02*
X462920D01*
X434266D02*
X444552D01*
X417735D02*
X426184D01*
X401938D02*
X407816D01*
X385774D02*
X388346D01*
X646233Y462224D02*
X647335D01*
X627130D02*
X631539D01*
X608395D02*
X615375D01*
X590027D02*
X599211D01*
X571659D02*
X582312D01*
X467328D02*
X567985D01*
X451165D02*
X462553D01*
X434266D02*
X444185D01*
X418837D02*
X425817D01*
X402673D02*
X407449D01*
X386509D02*
X388346D01*
X646233Y462592D02*
X647335D01*
X627130D02*
X631539D01*
X608395D02*
X615375D01*
X590027D02*
X599211D01*
X571659D02*
X582312D01*
X467328D02*
X567985D01*
X451165D02*
X462553D01*
X434266D02*
X444185D01*
X418837D02*
X425817D01*
X402673D02*
X407449D01*
X386509D02*
X388346D01*
X646233Y462959D02*
X646600D01*
X627130D02*
X631171D01*
X608762D02*
X615007D01*
X590394D02*
X598843D01*
X572026D02*
X582312D01*
X468431D02*
X568353D01*
X451899D02*
X461451D01*
X435368D02*
X443450D01*
X419204D02*
X425082D01*
X403040D02*
X406347D01*
X386877D02*
X387611D01*
X627865Y463326D02*
X630436D01*
X609497D02*
X614273D01*
X591129D02*
X598109D01*
X572761D02*
X581945D01*
X468431D02*
X569455D01*
X464757D02*
X465859D01*
X452267D02*
X461083D01*
X435368D02*
X443083D01*
X419939D02*
X424715D01*
X403775D02*
X405979D01*
X628232Y463694D02*
X630069D01*
X609864D02*
X613905D01*
X591496D02*
X597741D01*
X585619D02*
X586353D01*
X573128D02*
X580843D01*
X469533D02*
X570189D01*
X464022D02*
X466226D01*
X452634D02*
X460349D01*
X447491D02*
X447858D01*
X436470D02*
X441981D01*
X419939D02*
X423613D01*
X404142D02*
X405245D01*
X628232Y464061D02*
X630069D01*
X609864D02*
X613905D01*
X591496D02*
X597741D01*
X585619D02*
X586353D01*
X573128D02*
X580843D01*
X469533D02*
X570189D01*
X464022D02*
X466226D01*
X452634D02*
X460349D01*
X447491D02*
X447858D01*
X436470D02*
X441981D01*
X419939D02*
X423613D01*
X404142D02*
X405245D01*
X628967Y464428D02*
X629334D01*
X610599D02*
X613171D01*
X592231D02*
X597007D01*
X585251D02*
X586721D01*
X573863D02*
X580843D01*
X470267D02*
X570557D01*
X463655D02*
X466961D01*
X453369D02*
X459981D01*
X447491D02*
X448593D01*
X436470D02*
X441613D01*
X420306D02*
X423613D01*
X610966Y464796D02*
X612803D01*
X602884D02*
X603619D01*
X592598D02*
X596639D01*
X584516D02*
X587455D01*
X574230D02*
X580475D01*
X470267D02*
X571291D01*
X462920D02*
X467328D01*
X453736D02*
X459247D01*
X446389D02*
X448960D01*
X437572D02*
X441613D01*
X430225D02*
X430592D01*
X421041D02*
X422510D01*
X610966Y465163D02*
X612803D01*
X602884D02*
X603619D01*
X592598D02*
X596639D01*
X584516D02*
X587455D01*
X574230D02*
X580475D01*
X470267D02*
X571291D01*
X462920D02*
X467328D01*
X453736D02*
X459247D01*
X446389D02*
X448960D01*
X437572D02*
X441613D01*
X430225D02*
X430592D01*
X421041D02*
X422510D01*
X611701Y465531D02*
X612068D01*
X602517D02*
X603987D01*
X593333D02*
X595905D01*
X584149D02*
X587823D01*
X574965D02*
X579741D01*
X470635D02*
X571291D01*
X462553D02*
X468063D01*
X454471D02*
X458879D01*
X445654D02*
X449695D01*
X438307D02*
X440511D01*
X429490D02*
X431327D01*
X421409D02*
X422143D01*
X620150Y465898D02*
X620885D01*
X601782D02*
X604721D01*
X593700D02*
X595537D01*
X583414D02*
X588557D01*
X575332D02*
X579373D01*
X471002D02*
X572026D01*
X461818D02*
X468431D01*
X454838D02*
X458144D01*
X445654D02*
X450062D01*
X438674D02*
X439776D01*
X429123D02*
X431694D01*
X412959D02*
X413326D01*
X620150Y466265D02*
X620885D01*
X601782D02*
X604721D01*
X593700D02*
X595537D01*
X583414D02*
X588557D01*
X575332D02*
X579373D01*
X471002D02*
X572026D01*
X461818D02*
X468431D01*
X454838D02*
X458144D01*
X445654D02*
X450062D01*
X438674D02*
X439776D01*
X429123D02*
X431694D01*
X412959D02*
X413326D01*
X619783Y466633D02*
X621252D01*
X601415D02*
X605089D01*
X594435D02*
X594803D01*
X583047D02*
X588925D01*
X576067D02*
X578639D01*
X471737D02*
X572761D01*
X461451D02*
X469165D01*
X455573D02*
X457777D01*
X445287D02*
X450797D01*
X429123D02*
X432429D01*
X412959D02*
X414061D01*
X619048Y467000D02*
X621987D01*
X600680D02*
X605823D01*
X582312D02*
X589659D01*
X576435D02*
X578271D01*
X471737D02*
X573128D01*
X461083D02*
X469533D01*
X455940D02*
X457042D01*
X444552D02*
X451165D01*
X428021D02*
X432797D01*
X412224D02*
X414429D01*
X619048Y467367D02*
X621987D01*
X600680D02*
X605823D01*
X582312D02*
X589659D01*
X576435D02*
X578271D01*
X472104D02*
X573128D01*
X461083D02*
X469533D01*
X455940D02*
X457042D01*
X444552D02*
X451165D01*
X428021D02*
X432797D01*
X412224D02*
X414429D01*
X637416Y467735D02*
X638518D01*
X618681D02*
X622355D01*
X600313D02*
X606191D01*
X581945D02*
X590027D01*
X577169D02*
X577537D01*
X472472D02*
X573128D01*
X461083D02*
X470267D01*
X444185D02*
X451899D01*
X428021D02*
X433899D01*
X411857D02*
X415163D01*
X395693D02*
X396795D01*
X636314Y468102D02*
X639253D01*
X617946D02*
X623089D01*
X599578D02*
X606925D01*
X581210D02*
X590394D01*
X472839D02*
X573863D01*
X459981D02*
X470635D01*
X443450D02*
X452634D01*
X427286D02*
X434266D01*
X411122D02*
X415531D01*
X394958D02*
X396795D01*
X636314Y468469D02*
X639253D01*
X617946D02*
X623089D01*
X599578D02*
X606925D01*
X581210D02*
X590394D01*
X472839D02*
X573863D01*
X459981D02*
X470635D01*
X443450D02*
X452634D01*
X427286D02*
X434266D01*
X411122D02*
X415531D01*
X394958D02*
X396795D01*
X635947Y468837D02*
X639620D01*
X617211D02*
X623457D01*
X598843D02*
X607293D01*
X580843D02*
X591129D01*
X473206D02*
X574230D01*
X459981D02*
X471002D01*
X443083D02*
X453369D01*
X426919D02*
X435001D01*
X410755D02*
X415898D01*
X394591D02*
X397163D01*
X654315Y469204D02*
X655784D01*
X635579D02*
X640355D01*
X617211D02*
X624191D01*
X598109D02*
X608027D01*
X580475D02*
X591496D01*
X473574D02*
X575332D01*
X459247D02*
X471737D01*
X442715D02*
X453369D01*
X426184D02*
X435368D01*
X410020D02*
X416633D01*
X394591D02*
X398265D01*
X654315Y469571D02*
X655784D01*
X635579D02*
X640355D01*
X617211D02*
X624191D01*
X598109D02*
X608027D01*
X580475D02*
X591496D01*
X473574D02*
X575332D01*
X459247D02*
X471737D01*
X442715D02*
X453369D01*
X426184D02*
X435368D01*
X410020D02*
X416633D01*
X394591D02*
X398265D01*
X654315Y469939D02*
X656519D01*
X634845D02*
X640723D01*
X616109D02*
X624559D01*
X597741D02*
X608395D01*
X579373D02*
X592231D01*
X473941D02*
X575332D01*
X458144D02*
X472104D01*
X441981D02*
X454471D01*
X425817D02*
X435368D01*
X409653D02*
X417000D01*
X393856D02*
X398632D01*
X378427D02*
X378795D01*
X654315Y470306D02*
X655784D01*
X635579D02*
X640355D01*
X616477D02*
X624191D01*
X598109D02*
X608027D01*
X579741D02*
X591496D01*
X474308D02*
X574965D01*
X458879D02*
X471737D01*
X442715D02*
X453369D01*
X426184D02*
X435001D01*
X410020D02*
X416633D01*
X394591D02*
X397530D01*
X654315Y470674D02*
X655784D01*
X635579D02*
X640355D01*
X616477D02*
X624191D01*
X598109D02*
X608027D01*
X579741D02*
X591496D01*
X474676D02*
X574965D01*
X458879D02*
X471737D01*
X442715D02*
X453369D01*
X426184D02*
X435001D01*
X410020D02*
X416633D01*
X394591D02*
X397530D01*
X635947Y471041D02*
X639620D01*
X617211D02*
X623457D01*
X598843D02*
X607293D01*
X580843D02*
X591129D01*
X474676D02*
X574965D01*
X459981D02*
X471002D01*
X443083D02*
X452634D01*
X426919D02*
X434266D01*
X410755D02*
X415898D01*
X394958D02*
X397163D01*
X636314Y471408D02*
X639253D01*
X617946D02*
X623089D01*
X599211D02*
X606925D01*
X581210D02*
X590394D01*
X475043D02*
X574230D01*
X473206D02*
X473941D01*
X459981D02*
X470635D01*
X443450D02*
X452267D01*
X427286D02*
X433899D01*
X411122D02*
X415531D01*
X395693D02*
X396795D01*
X636314Y471776D02*
X639253D01*
X617946D02*
X623089D01*
X599211D02*
X606925D01*
X581210D02*
X590394D01*
X475410D02*
X574230D01*
X473206D02*
X473941D01*
X459981D02*
X470635D01*
X443450D02*
X452267D01*
X427286D02*
X433899D01*
X411122D02*
X415531D01*
X395693D02*
X396795D01*
X637049Y472143D02*
X638518D01*
X618681D02*
X622355D01*
X599578D02*
X606925D01*
X581210D02*
X590027D01*
X577169D02*
X577537D01*
X475410D02*
X574965D01*
X472839D02*
X474308D01*
X460349D02*
X470267D01*
X444185D02*
X451899D01*
X428021D02*
X433531D01*
X411857D02*
X415163D01*
X637416Y472510D02*
X638151D01*
X619048D02*
X622355D01*
X600680D02*
X605823D01*
X582312D02*
X589659D01*
X576435D02*
X578271D01*
X475778D02*
X574965D01*
X472839D02*
X475043D01*
X461083D02*
X469533D01*
X455940D02*
X456675D01*
X444552D02*
X451165D01*
X428388D02*
X432797D01*
X412224D02*
X414429D01*
X619048Y472878D02*
X621987D01*
X600680D02*
X605089D01*
X594435D02*
X595537D01*
X582312D02*
X588925D01*
X576067D02*
X578639D01*
X476145D02*
X575332D01*
X471737D02*
X475410D01*
X461451D02*
X469165D01*
X455573D02*
X457777D01*
X445287D02*
X450797D01*
X429123D02*
X432429D01*
X412959D02*
X414061D01*
X619048Y473245D02*
X621987D01*
X600680D02*
X605089D01*
X594435D02*
X595537D01*
X582312D02*
X588925D01*
X576067D02*
X578639D01*
X476512D02*
X575332D01*
X471737D02*
X475410D01*
X461451D02*
X469165D01*
X455573D02*
X457777D01*
X445287D02*
X450797D01*
X429123D02*
X432429D01*
X412959D02*
X414061D01*
X619783Y473612D02*
X621252D01*
X611701D02*
X612068D01*
X601782D02*
X605089D01*
X593700D02*
X595905D01*
X583414D02*
X588557D01*
X476512D02*
X579373D01*
X471737D02*
X476145D01*
X462553D02*
X468431D01*
X454838D02*
X458144D01*
X445654D02*
X450062D01*
X438674D02*
X439776D01*
X429490D02*
X431694D01*
X610966Y473980D02*
X612803D01*
X602517D02*
X604721D01*
X592598D02*
X596639D01*
X584149D02*
X587823D01*
X476880D02*
X579741D01*
X471002D02*
X476512D01*
X462553D02*
X467328D01*
X454471D02*
X458879D01*
X446389D02*
X449695D01*
X438307D02*
X440511D01*
X430225D02*
X431327D01*
X610966Y474347D02*
X612803D01*
X602517D02*
X604721D01*
X592598D02*
X596639D01*
X584149D02*
X587823D01*
X477247D02*
X579741D01*
X471002D02*
X476512D01*
X462553D02*
X467328D01*
X454471D02*
X458879D01*
X446389D02*
X449695D01*
X438307D02*
X440511D01*
X430225D02*
X431327D01*
X610599Y474715D02*
X613171D01*
X602884D02*
X603987D01*
X592231D02*
X596639D01*
X584516D02*
X587823D01*
X470635D02*
X580475D01*
X462920D02*
X467328D01*
X453736D02*
X459247D01*
X446756D02*
X448960D01*
X437572D02*
X440878D01*
X421409D02*
X422510D01*
X628967Y475082D02*
X630069D01*
X610599D02*
X613905D01*
X591496D02*
X597007D01*
X585251D02*
X587455D01*
X470267D02*
X580843D01*
X463655D02*
X466226D01*
X453369D02*
X459981D01*
X447491D02*
X448593D01*
X437205D02*
X441613D01*
X421041D02*
X423245D01*
X628967Y475449D02*
X630069D01*
X610599D02*
X613905D01*
X591496D02*
X597007D01*
X585251D02*
X587455D01*
X477982D02*
X580843D01*
X470267D02*
X477615D01*
X463655D02*
X466226D01*
X453369D02*
X459981D01*
X447491D02*
X448593D01*
X437205D02*
X441613D01*
X421041D02*
X423245D01*
X628232Y475817D02*
X630069D01*
X609497D02*
X614273D01*
X591129D02*
X598109D01*
X585619D02*
X586721D01*
X469533D02*
X581210D01*
X464022D02*
X466226D01*
X452634D02*
X460349D01*
X436470D02*
X441981D01*
X420306D02*
X423613D01*
X646233Y476184D02*
X646600D01*
X627865D02*
X630436D01*
X608762D02*
X615007D01*
X590394D02*
X598109D01*
X469165D02*
X581945D01*
X464757D02*
X465124D01*
X452267D02*
X461083D01*
X436103D02*
X442715D01*
X419939D02*
X424347D01*
X404142D02*
X405245D01*
X646233Y476551D02*
X646600D01*
X627865D02*
X630436D01*
X608762D02*
X615007D01*
X590394D02*
X598109D01*
X469165D02*
X581945D01*
X464757D02*
X465124D01*
X452267D02*
X461083D01*
X436103D02*
X442715D01*
X419939D02*
X424347D01*
X404142D02*
X405245D01*
X645498Y476919D02*
X647335D01*
X626763D02*
X631539D01*
X608395D02*
X615375D01*
X590027D02*
X599211D01*
X468431D02*
X582312D01*
X452267D02*
X461451D01*
X435368D02*
X443083D01*
X419204D02*
X424715D01*
X403775D02*
X405979D01*
X645131Y477286D02*
X647702D01*
X626395D02*
X631539D01*
X608027D02*
X616109D01*
X589659D02*
X599578D01*
X468063D02*
X583047D01*
X451899D02*
X461818D01*
X435368D02*
X443450D01*
X418837D02*
X425082D01*
X403040D02*
X406347D01*
X645131Y477653D02*
X647702D01*
X626395D02*
X631539D01*
X608027D02*
X616109D01*
X589659D02*
X599578D01*
X468063D02*
X583047D01*
X451899D02*
X461818D01*
X435368D02*
X443450D01*
X418837D02*
X425082D01*
X403040D02*
X406347D01*
X644763Y478021D02*
X648437D01*
X625661D02*
X632641D01*
X607293D02*
X616477D01*
X588925D02*
X600313D01*
X467328D02*
X583414D01*
X451165D02*
X462553D01*
X435001D02*
X444185D01*
X418837D02*
X425817D01*
X402673D02*
X406714D01*
X386877D02*
X387979D01*
X663499Y478388D02*
X663866D01*
X644029D02*
X648804D01*
X625293D02*
X633375D01*
X606925D02*
X617211D01*
X588557D02*
X600313D01*
X466961D02*
X584149D01*
X450797D02*
X462920D01*
X433899D02*
X444552D01*
X418102D02*
X426184D01*
X401938D02*
X407449D01*
X386509D02*
X388346D01*
X663499Y478755D02*
X663866D01*
X644029D02*
X648804D01*
X625293D02*
X633375D01*
X606925D02*
X617211D01*
X588557D02*
X600313D01*
X466961D02*
X584149D01*
X450797D02*
X462920D01*
X433899D02*
X444552D01*
X418102D02*
X426184D01*
X401938D02*
X407449D01*
X386509D02*
X388346D01*
X644763Y479123D02*
X648437D01*
X625661D02*
X632641D01*
X607293D02*
X616477D01*
X588925D02*
X600313D01*
X467328D02*
X583414D01*
X451165D02*
X462553D01*
X435001D02*
X444185D01*
X418837D02*
X425817D01*
X402673D02*
X406714D01*
X386877D02*
X387979D01*
X644763Y479490D02*
X647702D01*
X626395D02*
X632273D01*
X608027D02*
X616109D01*
X589659D02*
X599578D01*
X480921D02*
X583047D01*
X468063D02*
X479819D01*
X451899D02*
X461818D01*
X435001D02*
X443450D01*
X418837D02*
X425082D01*
X403040D02*
X406347D01*
X644763Y479858D02*
X647702D01*
X626395D02*
X632273D01*
X608027D02*
X616109D01*
X589659D02*
X599578D01*
X480921D02*
X583047D01*
X468063D02*
X479819D01*
X451899D02*
X461818D01*
X435001D02*
X443450D01*
X418837D02*
X425082D01*
X403040D02*
X406347D01*
X645498Y480225D02*
X647335D01*
X626763D02*
X631539D01*
X608395D02*
X615375D01*
X590027D02*
X599211D01*
X481288D02*
X582312D01*
X468431D02*
X479451D01*
X451899D02*
X461451D01*
X436103D02*
X443083D01*
X419939D02*
X424715D01*
X403775D02*
X405979D01*
X646233Y480592D02*
X647335D01*
X627130D02*
X631171D01*
X608762D02*
X615007D01*
X590394D02*
X598843D01*
X585619D02*
X586353D01*
X481288D02*
X581945D01*
X469165D02*
X478717D01*
X464757D02*
X465124D01*
X452634D02*
X461083D01*
X436103D02*
X442715D01*
X419939D02*
X423613D01*
X404142D02*
X405245D01*
X646233Y480960D02*
X647335D01*
X627130D02*
X631171D01*
X608762D02*
X615007D01*
X590394D02*
X598843D01*
X585619D02*
X586353D01*
X481288D02*
X581945D01*
X469165D02*
X478717D01*
X464757D02*
X465124D01*
X452634D02*
X461083D01*
X436103D02*
X442715D01*
X419939D02*
X423613D01*
X404142D02*
X405245D01*
X627865Y481327D02*
X630436D01*
X609497D02*
X614273D01*
X591129D02*
X598109D01*
X585251D02*
X586721D01*
X480921D02*
X581210D01*
X469533D02*
X478349D01*
X464022D02*
X465859D01*
X452634D02*
X459981D01*
X436470D02*
X441613D01*
X420306D02*
X423245D01*
X628232Y481694D02*
X630069D01*
X609864D02*
X613905D01*
X602884D02*
X603619D01*
X591496D02*
X597741D01*
X584516D02*
X587455D01*
X480186D02*
X581945D01*
X470267D02*
X477615D01*
X464022D02*
X466226D01*
X453736D02*
X459981D01*
X447491D02*
X447858D01*
X437572D02*
X440878D01*
X421041D02*
X422510D01*
X628967Y482062D02*
X629334D01*
X610599D02*
X613171D01*
X602517D02*
X603987D01*
X592231D02*
X597007D01*
X584149D02*
X587823D01*
X479819D02*
X581945D01*
X470635D02*
X477247D01*
X463655D02*
X466961D01*
X454471D02*
X458879D01*
X446756D02*
X448593D01*
X438307D02*
X440878D01*
X421409D02*
X422143D01*
X628967Y482429D02*
X629334D01*
X610599D02*
X613171D01*
X602517D02*
X603987D01*
X592231D02*
X597007D01*
X584149D02*
X587823D01*
X479819D02*
X581945D01*
X470635D02*
X477247D01*
X463655D02*
X466961D01*
X454471D02*
X458879D01*
X446756D02*
X448593D01*
X438307D02*
X440878D01*
X421409D02*
X422143D01*
X620150Y482796D02*
X620885D01*
X610966D02*
X612803D01*
X601782D02*
X604721D01*
X592598D02*
X596639D01*
X583414D02*
X588557D01*
X479819D02*
X582312D01*
X471002D02*
X476512D01*
X462920D02*
X467328D01*
X454471D02*
X458144D01*
X446756D02*
X448960D01*
X438307D02*
X440511D01*
X430225D02*
X430592D01*
X619783Y483164D02*
X621252D01*
X611701D02*
X612068D01*
X601415D02*
X605089D01*
X593333D02*
X595905D01*
X583047D02*
X588925D01*
X478717D02*
X582312D01*
X471737D02*
X476145D01*
X462553D02*
X468063D01*
X455573D02*
X457777D01*
X445654D02*
X449695D01*
X438674D02*
X439409D01*
X429490D02*
X431327D01*
X619783Y483531D02*
X621252D01*
X611701D02*
X612068D01*
X601415D02*
X605089D01*
X593333D02*
X595905D01*
X583047D02*
X588925D01*
X478717D02*
X582312D01*
X471737D02*
X476145D01*
X462553D02*
X468063D01*
X455573D02*
X457777D01*
X445654D02*
X449695D01*
X438674D02*
X439409D01*
X429490D02*
X431327D01*
X637416Y483899D02*
X638151D01*
X619048D02*
X621987D01*
X600680D02*
X605823D01*
X593700D02*
X595537D01*
X478717D02*
X589659D01*
X472104D02*
X475410D01*
X461818D02*
X468431D01*
X455940D02*
X457042D01*
X445654D02*
X450062D01*
X429123D02*
X432429D01*
X637049Y484266D02*
X638518D01*
X618681D02*
X622355D01*
X600313D02*
X606191D01*
X594435D02*
X594803D01*
X478349D02*
X590027D01*
X472839D02*
X475043D01*
X461451D02*
X469165D01*
X455940D02*
X456675D01*
X445287D02*
X451165D01*
X429123D02*
X432429D01*
X412959D02*
X414061D01*
X637049Y484633D02*
X638518D01*
X618681D02*
X622355D01*
X600313D02*
X606191D01*
X594435D02*
X594803D01*
X478349D02*
X590027D01*
X472839D02*
X475043D01*
X461451D02*
X469165D01*
X455940D02*
X456675D01*
X445287D02*
X451165D01*
X429123D02*
X432429D01*
X412959D02*
X414061D01*
X636314Y485001D02*
X639253D01*
X617946D02*
X623089D01*
X599211D02*
X606925D01*
X477615D02*
X590394D01*
X473206D02*
X473941D01*
X461083D02*
X469533D01*
X444552D02*
X451165D01*
X428388D02*
X432797D01*
X412224D02*
X414429D01*
X654682Y485368D02*
X655417D01*
X635947D02*
X639620D01*
X617211D02*
X623457D01*
X599211D02*
X607293D01*
X477247D02*
X591129D01*
X460349D02*
X470267D01*
X444185D02*
X452267D01*
X428021D02*
X433899D01*
X411857D02*
X415163D01*
X654682Y485735D02*
X655417D01*
X635947D02*
X639620D01*
X617211D02*
X623457D01*
X599211D02*
X607293D01*
X477247D02*
X591129D01*
X460349D02*
X470267D01*
X444185D02*
X452267D01*
X428021D02*
X433899D01*
X411857D02*
X415163D01*
X653948Y486103D02*
X655784D01*
X635579D02*
X640355D01*
X617211D02*
X624191D01*
X598843D02*
X608027D01*
X476512D02*
X591496D01*
X459981D02*
X470635D01*
X443450D02*
X452634D01*
X427286D02*
X434266D01*
X411122D02*
X415531D01*
X395693D02*
X396795D01*
X653948Y486470D02*
X656886D01*
X634845D02*
X640723D01*
X616109D02*
X624559D01*
X597741D02*
X608395D01*
X476145D02*
X591496D01*
X459247D02*
X471737D01*
X443083D02*
X453369D01*
X426919D02*
X434266D01*
X410755D02*
X415898D01*
X394958D02*
X397163D01*
X653948Y486837D02*
X656886D01*
X634845D02*
X640723D01*
X616109D02*
X624559D01*
X597741D02*
X608395D01*
X476145D02*
X591496D01*
X459247D02*
X471737D01*
X443083D02*
X453369D01*
X426919D02*
X434266D01*
X410755D02*
X415898D01*
X394958D02*
X397163D01*
X652845Y487205D02*
X656886D01*
X634477D02*
X641457D01*
X615375D02*
X625293D01*
X597007D02*
X608762D01*
X475410D02*
X592598D01*
X458879D02*
X471737D01*
X442715D02*
X453369D01*
X426184D02*
X435001D01*
X410020D02*
X416633D01*
X394591D02*
X397530D01*
X653213Y487572D02*
X656519D01*
X634845D02*
X640723D01*
X616109D02*
X624559D01*
X598109D02*
X608395D01*
X476145D02*
X592231D01*
X459981D02*
X471002D01*
X443083D02*
X453369D01*
X426919D02*
X435001D01*
X410755D02*
X415898D01*
X394958D02*
X397163D01*
X653213Y487939D02*
X656519D01*
X634845D02*
X640723D01*
X616109D02*
X624559D01*
X598109D02*
X608395D01*
X476145D02*
X592231D01*
X459981D02*
X471002D01*
X443083D02*
X453369D01*
X426919D02*
X435001D01*
X410755D02*
X415898D01*
X394958D02*
X397163D01*
X654315Y488307D02*
X656519D01*
X635579D02*
X640355D01*
X616477D02*
X624191D01*
X598843D02*
X608027D01*
X476512D02*
X591496D01*
X459981D02*
X470635D01*
X443450D02*
X452634D01*
X427286D02*
X433899D01*
X411122D02*
X415531D01*
X395693D02*
X396795D01*
X654682Y488674D02*
X655784D01*
X635947D02*
X639620D01*
X617579D02*
X623457D01*
X598843D02*
X607293D01*
X477247D02*
X591129D01*
X460349D02*
X470267D01*
X444185D02*
X451899D01*
X428021D02*
X433531D01*
X411857D02*
X415163D01*
X654682Y489042D02*
X655784D01*
X635947D02*
X639620D01*
X617579D02*
X623457D01*
X598843D02*
X607293D01*
X477247D02*
X591129D01*
X460349D02*
X470267D01*
X444185D02*
X451899D01*
X428021D02*
X433531D01*
X411857D02*
X415163D01*
X636314Y489409D02*
X639253D01*
X617579D02*
X623089D01*
X599211D02*
X606925D01*
X487901D02*
X590394D01*
X477615D02*
X487533D01*
X473206D02*
X474308D01*
X461083D02*
X469533D01*
X444552D02*
X451165D01*
X428388D02*
X432797D01*
X412224D02*
X414061D01*
X637049Y489776D02*
X638518D01*
X618681D02*
X622355D01*
X599578D02*
X606191D01*
X594435D02*
X594803D01*
X488268D02*
X590027D01*
X478349D02*
X486799D01*
X472839D02*
X474308D01*
X461451D02*
X469165D01*
X445287D02*
X450797D01*
X429123D02*
X432429D01*
X412959D02*
X413326D01*
X637049Y490144D02*
X638518D01*
X618681D02*
X622355D01*
X599578D02*
X606191D01*
X594435D02*
X594803D01*
X488268D02*
X590027D01*
X478349D02*
X486799D01*
X472839D02*
X474308D01*
X461451D02*
X469165D01*
X445287D02*
X450797D01*
X429123D02*
X432429D01*
X412959D02*
X413326D01*
X637416Y490511D02*
X638518D01*
X619048D02*
X622355D01*
X600680D02*
X605823D01*
X593700D02*
X595905D01*
X488635D02*
X589659D01*
X478717D02*
X486431D01*
X472104D02*
X475410D01*
X461818D02*
X468431D01*
X455940D02*
X457042D01*
X445654D02*
X450062D01*
X429490D02*
X431694D01*
X619783Y490878D02*
X621987D01*
X611701D02*
X612803D01*
X601415D02*
X605823D01*
X593333D02*
X596639D01*
X488635D02*
X588925D01*
X478717D02*
X485696D01*
X471737D02*
X476145D01*
X462553D02*
X468063D01*
X455573D02*
X457777D01*
X446389D02*
X449695D01*
X430225D02*
X431327D01*
X619783Y491246D02*
X621252D01*
X610966D02*
X613171D01*
X601415D02*
X604721D01*
X592598D02*
X597007D01*
X487901D02*
X588557D01*
X479451D02*
X485329D01*
X471737D02*
X476145D01*
X462920D02*
X467328D01*
X454838D02*
X458144D01*
X446756D02*
X448960D01*
X438674D02*
X439776D01*
X619783Y491613D02*
X621252D01*
X610966D02*
X613171D01*
X601415D02*
X604721D01*
X592598D02*
X597007D01*
X487901D02*
X588557D01*
X479451D02*
X485329D01*
X471737D02*
X476145D01*
X462920D02*
X467328D01*
X454838D02*
X458144D01*
X446756D02*
X448960D01*
X438674D02*
X439776D01*
X628967Y491980D02*
X630069D01*
X609864D02*
X613905D01*
X602517D02*
X604721D01*
X592231D02*
X597007D01*
X487533D02*
X588925D01*
X480186D02*
X484594D01*
X471002D02*
X477247D01*
X463655D02*
X466961D01*
X454471D02*
X458879D01*
X447491D02*
X448593D01*
X438307D02*
X440511D01*
X627865Y492348D02*
X630436D01*
X609497D02*
X614273D01*
X602884D02*
X603987D01*
X591496D02*
X597741D01*
X486799D02*
X589659D01*
X480186D02*
X484227D01*
X470635D02*
X477615D01*
X464022D02*
X466226D01*
X453736D02*
X459247D01*
X437572D02*
X440878D01*
X421409D02*
X422143D01*
X627865Y492715D02*
X630436D01*
X609497D02*
X614273D01*
X602884D02*
X603987D01*
X591496D02*
X597741D01*
X486799D02*
X589659D01*
X480186D02*
X484227D01*
X470635D02*
X477615D01*
X464022D02*
X466226D01*
X453736D02*
X459247D01*
X437572D02*
X440878D01*
X421409D02*
X422143D01*
X646233Y493083D02*
X647335D01*
X627865D02*
X631171D01*
X608762D02*
X615007D01*
X590394D02*
X598109D01*
X486431D02*
X589659D01*
X481288D02*
X483492D01*
X470267D02*
X478349D01*
X464757D02*
X465859D01*
X453369D02*
X459981D01*
X437205D02*
X441613D01*
X421041D02*
X422510D01*
X645498Y493450D02*
X647335D01*
X626763D02*
X631539D01*
X608395D02*
X615375D01*
X590394D02*
X598843D01*
X485696D02*
X590027D01*
X482023D02*
X483125D01*
X469533D02*
X478717D01*
X452634D02*
X460349D01*
X436470D02*
X441981D01*
X420306D02*
X423245D01*
X645498Y493817D02*
X647335D01*
X626763D02*
X631539D01*
X608395D02*
X615375D01*
X590394D02*
X598843D01*
X485696D02*
X590027D01*
X482023D02*
X483125D01*
X469533D02*
X478717D01*
X452634D02*
X460349D01*
X436470D02*
X441981D01*
X420306D02*
X423245D01*
X645131Y494185D02*
X648437D01*
X626395D02*
X631539D01*
X608027D02*
X616109D01*
X485329D02*
X599578D01*
X469165D02*
X478717D01*
X452267D02*
X461083D01*
X436103D02*
X442715D01*
X419939D02*
X424347D01*
X404142D02*
X405245D01*
X663499Y494552D02*
X664601D01*
X644763D02*
X648437D01*
X625661D02*
X632273D01*
X607293D02*
X616477D01*
X484594D02*
X600313D01*
X468431D02*
X479819D01*
X451899D02*
X461451D01*
X435368D02*
X443083D01*
X419939D02*
X424715D01*
X403775D02*
X405979D01*
X663499Y494919D02*
X664601D01*
X644763D02*
X648437D01*
X625661D02*
X632273D01*
X607293D02*
X616477D01*
X484594D02*
X600313D01*
X468431D02*
X479819D01*
X451899D02*
X461451D01*
X435368D02*
X443083D01*
X419939D02*
X424715D01*
X403775D02*
X405979D01*
X662397Y495287D02*
X664968D01*
X643661D02*
X648804D01*
X625293D02*
X633375D01*
X606925D02*
X617211D01*
X484227D02*
X600313D01*
X468063D02*
X480186D01*
X451899D02*
X461818D01*
X435368D02*
X443450D01*
X418837D02*
X425082D01*
X403040D02*
X406347D01*
X662029Y495654D02*
X664968D01*
X642927D02*
X649539D01*
X624559D02*
X633375D01*
X606191D02*
X617211D01*
X483492D02*
X600680D01*
X467328D02*
X480921D01*
X451165D02*
X462553D01*
X435001D02*
X444185D01*
X418837D02*
X425817D01*
X402673D02*
X406714D01*
X662029Y496021D02*
X664968D01*
X642927D02*
X649539D01*
X624559D02*
X633375D01*
X606191D02*
X617211D01*
X483492D02*
X600680D01*
X467328D02*
X480921D01*
X451165D02*
X462553D01*
X435001D02*
X444185D01*
X418837D02*
X425817D01*
X402673D02*
X406714D01*
X663131Y496389D02*
X664968D01*
X643661D02*
X648804D01*
X625293D02*
X632641D01*
X606925D02*
X617211D01*
X484227D02*
X600313D01*
X468063D02*
X480186D01*
X451165D02*
X461818D01*
X435001D02*
X443450D01*
X419204D02*
X425082D01*
X403040D02*
X405979D01*
X663499Y496756D02*
X664601D01*
X644763D02*
X648437D01*
X625661D02*
X632641D01*
X607293D02*
X616477D01*
X484594D02*
X599578D01*
X468431D02*
X479819D01*
X451899D02*
X461451D01*
X435368D02*
X443083D01*
X419939D02*
X424715D01*
X404142D02*
X405979D01*
X663499Y497123D02*
X664601D01*
X644763D02*
X648437D01*
X625661D02*
X632641D01*
X607293D02*
X616477D01*
X484594D02*
X599578D01*
X468431D02*
X479819D01*
X451899D02*
X461451D01*
X435368D02*
X443083D01*
X419939D02*
X424715D01*
X404142D02*
X405979D01*
X663499Y497491D02*
X663866D01*
X644763D02*
X648437D01*
X626395D02*
X632273D01*
X608027D02*
X616109D01*
X485696D02*
X599578D01*
X469165D02*
X478717D01*
X452634D02*
X461083D01*
X436470D02*
X442715D01*
X420306D02*
X424347D01*
X404142D02*
X405245D01*
X645131Y497858D02*
X647702D01*
X626763D02*
X631539D01*
X608395D02*
X615375D01*
X485696D02*
X598843D01*
X482023D02*
X483125D01*
X469533D02*
X478349D01*
X452634D02*
X460349D01*
X437205D02*
X441981D01*
X421041D02*
X423245D01*
X645131Y498226D02*
X647702D01*
X626763D02*
X631539D01*
X608395D02*
X615375D01*
X485696D02*
X598843D01*
X482023D02*
X483125D01*
X469533D02*
X478349D01*
X452634D02*
X460349D01*
X437205D02*
X441981D01*
X421041D02*
X423245D01*
X645498Y498593D02*
X647335D01*
X627130D02*
X631171D01*
X608762D02*
X615007D01*
X602884D02*
X603619D01*
X486799D02*
X598109D01*
X481288D02*
X483492D01*
X470267D02*
X477615D01*
X464757D02*
X465124D01*
X453736D02*
X459247D01*
X437205D02*
X440878D01*
X421041D02*
X422510D01*
X627865Y498960D02*
X630436D01*
X609497D02*
X614273D01*
X602517D02*
X603987D01*
X487533D02*
X598109D01*
X480921D02*
X484227D01*
X470635D02*
X477247D01*
X464757D02*
X465859D01*
X453736D02*
X458879D01*
X437572D02*
X440878D01*
X627865Y499328D02*
X630436D01*
X609497D02*
X614273D01*
X602517D02*
X603987D01*
X487533D02*
X598109D01*
X480921D02*
X484227D01*
X470635D02*
X477247D01*
X464757D02*
X465859D01*
X453736D02*
X458879D01*
X437572D02*
X440878D01*
X628232Y499695D02*
X630069D01*
X620150D02*
X620885D01*
X609864D02*
X613905D01*
X601782D02*
X604721D01*
X495248D02*
X597741D01*
X487533D02*
X494880D01*
X480186D02*
X484594D01*
X471002D02*
X476512D01*
X463655D02*
X466961D01*
X454838D02*
X458879D01*
X447491D02*
X447858D01*
X438307D02*
X439776D01*
X628967Y500062D02*
X629334D01*
X619783D02*
X621252D01*
X610599D02*
X613171D01*
X601415D02*
X605089D01*
X495248D02*
X597007D01*
X487901D02*
X493778D01*
X479819D02*
X485329D01*
X471737D02*
X476145D01*
X462920D02*
X466961D01*
X454838D02*
X457777D01*
X446756D02*
X448593D01*
X438674D02*
X439409D01*
X637416Y500430D02*
X638151D01*
X619048D02*
X621987D01*
X610966D02*
X612803D01*
X600680D02*
X605823D01*
X495615D02*
X596639D01*
X488635D02*
X493411D01*
X479451D02*
X485696D01*
X472104D02*
X475410D01*
X462920D02*
X467328D01*
X455940D02*
X457042D01*
X446389D02*
X448960D01*
X430225D02*
X430592D01*
X637416Y500797D02*
X638151D01*
X619048D02*
X621987D01*
X610966D02*
X612803D01*
X600680D02*
X605823D01*
X495983D02*
X596639D01*
X488635D02*
X493411D01*
X479451D02*
X485696D01*
X472104D02*
X475410D01*
X462920D02*
X467328D01*
X455940D02*
X457042D01*
X446389D02*
X448960D01*
X430225D02*
X430592D01*
X637049Y501165D02*
X638518D01*
X618681D02*
X622355D01*
X611701D02*
X612068D01*
X600313D02*
X606191D01*
X495615D02*
X595905D01*
X489003D02*
X493411D01*
X478717D02*
X486431D01*
X472839D02*
X475043D01*
X462553D02*
X468063D01*
X446389D02*
X449695D01*
X430225D02*
X431327D01*
X636314Y501532D02*
X639253D01*
X617946D02*
X623089D01*
X599578D02*
X606925D01*
X494880D02*
X595905D01*
X489370D02*
X492309D01*
X478349D02*
X486799D01*
X473206D02*
X474308D01*
X461818D02*
X468431D01*
X445287D02*
X450062D01*
X429490D02*
X431694D01*
X636314Y501899D02*
X639253D01*
X617946D02*
X623089D01*
X599578D02*
X606925D01*
X494880D02*
X595905D01*
X489370D02*
X492309D01*
X478349D02*
X486799D01*
X473206D02*
X474308D01*
X461818D02*
X468431D01*
X445287D02*
X450062D01*
X429490D02*
X431694D01*
X654682Y502267D02*
X655784D01*
X635947D02*
X639620D01*
X617579D02*
X623457D01*
X599211D02*
X607293D01*
X494513D02*
X596639D01*
X490105D02*
X492309D01*
X478349D02*
X487533D01*
X461451D02*
X469165D01*
X445287D02*
X451165D01*
X429123D02*
X432429D01*
X412959D02*
X414061D01*
X653948Y502634D02*
X656519D01*
X635579D02*
X640355D01*
X617211D02*
X624191D01*
X598843D02*
X608027D01*
X493778D02*
X596639D01*
X490472D02*
X491207D01*
X477247D02*
X487901D01*
X461083D02*
X470267D01*
X444552D02*
X451899D01*
X428388D02*
X432797D01*
X412224D02*
X414429D01*
X653948Y503001D02*
X656519D01*
X635579D02*
X640355D01*
X617211D02*
X624191D01*
X598843D02*
X608027D01*
X493778D02*
X596639D01*
X490472D02*
X491207D01*
X477247D02*
X487901D01*
X461083D02*
X470267D01*
X444552D02*
X451899D01*
X428388D02*
X432797D01*
X412224D02*
X414429D01*
X672316Y503369D02*
X672683D01*
X653213D02*
X656886D01*
X634477D02*
X640723D01*
X616109D02*
X624559D01*
X598109D02*
X608395D01*
X493411D02*
X597007D01*
X477247D02*
X488635D01*
X460349D02*
X470635D01*
X444185D02*
X452267D01*
X428021D02*
X433531D01*
X411857D02*
X414429D01*
X671581Y503736D02*
X673050D01*
X652845D02*
X657621D01*
X634477D02*
X641457D01*
X615375D02*
X625293D01*
X597741D02*
X608762D01*
X492676D02*
X597007D01*
X476512D02*
X489003D01*
X459981D02*
X470635D01*
X443450D02*
X452634D01*
X427286D02*
X433899D01*
X411857D02*
X415531D01*
X671581Y504103D02*
X673050D01*
X652845D02*
X657621D01*
X634477D02*
X641457D01*
X615375D02*
X625293D01*
X597741D02*
X608762D01*
X492676D02*
X597007D01*
X476512D02*
X489003D01*
X459981D02*
X470635D01*
X443450D02*
X452634D01*
X427286D02*
X433899D01*
X411857D02*
X415531D01*
X671581Y504471D02*
X673785D01*
X652111D02*
X657988D01*
X633375D02*
X641825D01*
X615007D02*
X625661D01*
X492309D02*
X609497D01*
X475410D02*
X489370D01*
X459247D02*
X471737D01*
X443083D02*
X452634D01*
X426919D02*
X434266D01*
X411122D02*
X415898D01*
X671581Y504838D02*
X673050D01*
X652845D02*
X657621D01*
X633743D02*
X641457D01*
X615375D02*
X625293D01*
X492676D02*
X608762D01*
X476145D02*
X489003D01*
X459981D02*
X470635D01*
X443450D02*
X452267D01*
X427286D02*
X433899D01*
X411857D02*
X415163D01*
X671581Y505205D02*
X673050D01*
X652845D02*
X657621D01*
X633743D02*
X641457D01*
X615375D02*
X625293D01*
X492676D02*
X608762D01*
X476145D02*
X489003D01*
X459981D02*
X470635D01*
X443450D02*
X452267D01*
X427286D02*
X433899D01*
X411857D02*
X415163D01*
X653213Y505573D02*
X656886D01*
X634477D02*
X640723D01*
X616109D02*
X624559D01*
X493411D02*
X608395D01*
X477247D02*
X488635D01*
X460349D02*
X470267D01*
X444185D02*
X451899D01*
X428021D02*
X433531D01*
X412224D02*
X414429D01*
X653948Y505940D02*
X656519D01*
X635579D02*
X640355D01*
X617211D02*
X624191D01*
X493778D02*
X608027D01*
X490472D02*
X491207D01*
X477247D02*
X487901D01*
X461083D02*
X469533D01*
X444552D02*
X451165D01*
X428388D02*
X432797D01*
X412959D02*
X414061D01*
X653948Y506307D02*
X656519D01*
X635579D02*
X640355D01*
X617211D02*
X624191D01*
X493778D02*
X608027D01*
X490472D02*
X491207D01*
X477247D02*
X487901D01*
X461083D02*
X469533D01*
X444552D02*
X451165D01*
X428388D02*
X432797D01*
X412959D02*
X414061D01*
X654315Y506675D02*
X655784D01*
X635947D02*
X639620D01*
X617211D02*
X624191D01*
X494513D02*
X607293D01*
X490105D02*
X491574D01*
X477615D02*
X487533D01*
X461451D02*
X469165D01*
X445287D02*
X450797D01*
X429123D02*
X432429D01*
X412959D02*
X413326D01*
X654682Y507042D02*
X655417D01*
X636314D02*
X639620D01*
X617946D02*
X623089D01*
X494880D02*
X606925D01*
X490105D02*
X492309D01*
X478349D02*
X486799D01*
X473206D02*
X473941D01*
X461818D02*
X468431D01*
X445654D02*
X450062D01*
X429490D02*
X431694D01*
X654682Y507410D02*
X655417D01*
X636314D02*
X639620D01*
X617946D02*
X623089D01*
X494880D02*
X606925D01*
X490105D02*
X492309D01*
X478349D02*
X486799D01*
X473206D02*
X473941D01*
X461818D02*
X468431D01*
X445654D02*
X450062D01*
X429490D02*
X431694D01*
X636314Y507777D02*
X639253D01*
X617946D02*
X622355D01*
X611701D02*
X612803D01*
X495615D02*
X606191D01*
X489003D02*
X492676D01*
X478717D02*
X486431D01*
X472839D02*
X475043D01*
X462553D02*
X468063D01*
X455940D02*
X456675D01*
X446389D02*
X449695D01*
X430225D02*
X431327D01*
X637049Y508144D02*
X638518D01*
X628967D02*
X629334D01*
X619048D02*
X622355D01*
X610966D02*
X613171D01*
X600680D02*
X605823D01*
X495983D02*
X600313D01*
X489003D02*
X493411D01*
X479819D02*
X485696D01*
X472104D02*
X475410D01*
X462920D02*
X467328D01*
X455940D02*
X457042D01*
X446756D02*
X448960D01*
X637049Y508512D02*
X638518D01*
X628967D02*
X629334D01*
X619048D02*
X622355D01*
X610966D02*
X613171D01*
X600680D02*
X605823D01*
X495983D02*
X600313D01*
X489003D02*
X493411D01*
X479819D02*
X485696D01*
X472104D02*
X475410D01*
X462920D02*
X467328D01*
X455940D02*
X457042D01*
X446756D02*
X448960D01*
X628967Y508879D02*
X630069D01*
X619783D02*
X621987D01*
X609864D02*
X613905D01*
X601415D02*
X605089D01*
X496717D02*
X600680D01*
X488635D02*
X493778D01*
X479819D02*
X484594D01*
X471737D02*
X476145D01*
X463655D02*
X466961D01*
X455573D02*
X457777D01*
X447491D02*
X448593D01*
X627865Y509246D02*
X630436D01*
X620150D02*
X621252D01*
X609497D02*
X613905D01*
X601782D02*
X605089D01*
X497085D02*
X601415D01*
X487901D02*
X494513D01*
X480186D02*
X484594D01*
X471002D02*
X476512D01*
X464022D02*
X466226D01*
X454838D02*
X458144D01*
X438674D02*
X439776D01*
X646233Y509614D02*
X646600D01*
X627865D02*
X631171D01*
X608762D02*
X614273D01*
X602517D02*
X604721D01*
X502228D02*
X601415D01*
X497819D02*
X501860D01*
X487533D02*
X494880D01*
X480921D02*
X483492D01*
X470635D02*
X477247D01*
X464757D02*
X465859D01*
X454471D02*
X458879D01*
X438307D02*
X440511D01*
X646233Y509981D02*
X646600D01*
X627865D02*
X631171D01*
X608762D02*
X614273D01*
X602517D02*
X604721D01*
X502595D02*
X601415D01*
X497819D02*
X501860D01*
X487533D02*
X494880D01*
X480921D02*
X483492D01*
X470635D02*
X477247D01*
X464757D02*
X465859D01*
X454471D02*
X458879D01*
X438307D02*
X440511D01*
X645498Y510349D02*
X647335D01*
X626763D02*
X631539D01*
X608395D02*
X615375D01*
X602884D02*
X603987D01*
X502595D02*
X601782D01*
X498187D02*
X501493D01*
X486799D02*
X495615D01*
X481288D02*
X483492D01*
X470267D02*
X477615D01*
X453736D02*
X459247D01*
X437572D02*
X440878D01*
X663499Y510716D02*
X663866D01*
X645131D02*
X647702D01*
X626395D02*
X632273D01*
X608027D02*
X615375D01*
X502595D02*
X602517D01*
X498554D02*
X500758D01*
X486431D02*
X495983D01*
X482023D02*
X482390D01*
X469533D02*
X478349D01*
X453369D02*
X459981D01*
X437205D02*
X441613D01*
X421409D02*
X422510D01*
X663499Y511083D02*
X663866D01*
X645131D02*
X647702D01*
X626395D02*
X632273D01*
X608027D02*
X615375D01*
X502595D02*
X602517D01*
X498554D02*
X500758D01*
X486431D02*
X495983D01*
X482023D02*
X482390D01*
X469533D02*
X478349D01*
X453369D02*
X459981D01*
X437205D02*
X441613D01*
X421409D02*
X422510D01*
X663131Y511451D02*
X664601D01*
X644029D02*
X648804D01*
X625661D02*
X632641D01*
X607293D02*
X616477D01*
X502595D02*
X602884D01*
X499289D02*
X500391D01*
X485696D02*
X496717D01*
X469533D02*
X478717D01*
X452634D02*
X460349D01*
X436470D02*
X441981D01*
X421041D02*
X423613D01*
X662397Y511818D02*
X664968D01*
X643661D02*
X648804D01*
X625293D02*
X633375D01*
X606925D02*
X617211D01*
X501860D02*
X602884D01*
X485329D02*
X497819D01*
X469165D02*
X479451D01*
X452634D02*
X461083D01*
X436103D02*
X442715D01*
X420306D02*
X423613D01*
X404142D02*
X404877D01*
X662397Y512185D02*
X664968D01*
X643661D02*
X648804D01*
X625293D02*
X633375D01*
X606925D02*
X617211D01*
X501860D02*
X602884D01*
X485329D02*
X497819D01*
X469165D02*
X479451D01*
X452634D02*
X461083D01*
X436103D02*
X442715D01*
X420306D02*
X423613D01*
X404142D02*
X404877D01*
X662029Y512553D02*
X665703D01*
X642927D02*
X649906D01*
X624559D02*
X633743D01*
X606191D02*
X617579D01*
X501493D02*
X603619D01*
X484594D02*
X497819D01*
X468431D02*
X479819D01*
X452267D02*
X461451D01*
X436103D02*
X443083D01*
X419939D02*
X424715D01*
X404142D02*
X405245D01*
X661295Y512920D02*
X666070D01*
X642559D02*
X650641D01*
X624191D02*
X633743D01*
X605823D02*
X617579D01*
X500758D02*
X603987D01*
X484227D02*
X498554D01*
X468063D02*
X480186D01*
X451165D02*
X461818D01*
X435368D02*
X443450D01*
X419204D02*
X424715D01*
X403775D02*
X405979D01*
X661295Y513287D02*
X666070D01*
X642559D02*
X650641D01*
X624191D02*
X633743D01*
X605823D02*
X617579D01*
X500758D02*
X603987D01*
X484227D02*
X498554D01*
X468063D02*
X480186D01*
X451165D02*
X461818D01*
X435368D02*
X443450D01*
X419204D02*
X424715D01*
X403775D02*
X405979D01*
X662029Y513655D02*
X665703D01*
X642927D02*
X649539D01*
X624559D02*
X633743D01*
X606191D02*
X617579D01*
X501493D02*
X603987D01*
X484594D02*
X498187D01*
X468431D02*
X479819D01*
X452267D02*
X461451D01*
X436103D02*
X443083D01*
X419939D02*
X424347D01*
X404142D02*
X405245D01*
X662397Y514022D02*
X664968D01*
X643661D02*
X649539D01*
X625293D02*
X633375D01*
X606925D02*
X617211D01*
X501860D02*
X604721D01*
X485329D02*
X497085D01*
X469165D02*
X479451D01*
X452267D02*
X461083D01*
X436103D02*
X442715D01*
X420306D02*
X423613D01*
X662397Y514389D02*
X664968D01*
X643661D02*
X649539D01*
X625293D02*
X633375D01*
X606925D02*
X617211D01*
X501860D02*
X604721D01*
X485329D02*
X497085D01*
X469165D02*
X479451D01*
X452267D02*
X461083D01*
X436103D02*
X442715D01*
X420306D02*
X423613D01*
X663131Y514757D02*
X664601D01*
X644029D02*
X648804D01*
X625661D02*
X632641D01*
X607293D02*
X616477D01*
X502595D02*
X605089D01*
X499289D02*
X499656D01*
X485696D02*
X496717D01*
X469165D02*
X478717D01*
X453369D02*
X460349D01*
X437205D02*
X441981D01*
X421041D02*
X423245D01*
X663499Y515124D02*
X664601D01*
X644763D02*
X648437D01*
X626395D02*
X632273D01*
X608027D02*
X616109D01*
X502962D02*
X605089D01*
X498554D02*
X500391D01*
X486431D02*
X495983D01*
X482023D02*
X482390D01*
X470267D02*
X478349D01*
X453369D02*
X459981D01*
X437205D02*
X440878D01*
X421409D02*
X422510D01*
X663499Y515491D02*
X664601D01*
X644763D02*
X648437D01*
X626395D02*
X632273D01*
X608027D02*
X616109D01*
X502962D02*
X605089D01*
X498554D02*
X500391D01*
X486431D02*
X495983D01*
X482023D02*
X482390D01*
X470267D02*
X478349D01*
X453369D02*
X459981D01*
X437205D02*
X440878D01*
X421409D02*
X422510D01*
X645131Y515859D02*
X647702D01*
X626763D02*
X631539D01*
X608395D02*
X615375D01*
X503697D02*
X605823D01*
X498187D02*
X501493D01*
X486799D02*
X495615D01*
X481288D02*
X483125D01*
X470267D02*
X477247D01*
X453736D02*
X458879D01*
X437572D02*
X440878D01*
X645498Y516226D02*
X647335D01*
X627130D02*
X631171D01*
X620150D02*
X620885D01*
X608762D02*
X615007D01*
X504064D02*
X606191D01*
X497819D02*
X501860D01*
X487533D02*
X494880D01*
X481288D02*
X483492D01*
X471002D02*
X477247D01*
X464757D02*
X465124D01*
X454838D02*
X458144D01*
X438307D02*
X439776D01*
X645498Y516594D02*
X647335D01*
X627130D02*
X631171D01*
X620150D02*
X620885D01*
X608762D02*
X615007D01*
X504064D02*
X606191D01*
X497819D02*
X501860D01*
X487533D02*
X494880D01*
X481288D02*
X483492D01*
X471002D02*
X477247D01*
X464757D02*
X465124D01*
X454838D02*
X458144D01*
X438307D02*
X439776D01*
X646233Y516961D02*
X646600D01*
X627865D02*
X630436D01*
X619783D02*
X621252D01*
X609497D02*
X614273D01*
X504799D02*
X606925D01*
X497085D02*
X502595D01*
X487901D02*
X494513D01*
X480921D02*
X484227D01*
X471737D02*
X476145D01*
X464022D02*
X466226D01*
X455573D02*
X458144D01*
X438674D02*
X439409D01*
X637416Y517328D02*
X638151D01*
X628232D02*
X630069D01*
X619048D02*
X621987D01*
X609864D02*
X613905D01*
X505167D02*
X606925D01*
X496717D02*
X502962D01*
X488635D02*
X493778D01*
X480186D02*
X484594D01*
X471737D02*
X475410D01*
X464022D02*
X466226D01*
X455573D02*
X457777D01*
X447491D02*
X447858D01*
X637416Y517696D02*
X638151D01*
X628232D02*
X630069D01*
X619048D02*
X621987D01*
X609864D02*
X613905D01*
X505167D02*
X606925D01*
X496717D02*
X502962D01*
X488635D02*
X493778D01*
X480186D02*
X484594D01*
X471737D02*
X475410D01*
X464022D02*
X466226D01*
X455573D02*
X457777D01*
X447491D02*
X447858D01*
X637049Y518063D02*
X638518D01*
X628967D02*
X629334D01*
X618681D02*
X622355D01*
X610599D02*
X613171D01*
X505901D02*
X607293D01*
X495983D02*
X503697D01*
X489003D02*
X493411D01*
X479819D02*
X485329D01*
X472839D02*
X475043D01*
X462920D02*
X466961D01*
X455940D02*
X456675D01*
X446756D02*
X448593D01*
X654682Y518430D02*
X655417D01*
X636314D02*
X639253D01*
X617946D02*
X623089D01*
X610966D02*
X612803D01*
X506269D02*
X608027D01*
X495615D02*
X504064D01*
X489370D02*
X492676D01*
X479451D02*
X485696D01*
X473206D02*
X474308D01*
X462920D02*
X467328D01*
X446389D02*
X449695D01*
X654315Y518798D02*
X655784D01*
X635947D02*
X639620D01*
X617579D02*
X623457D01*
X611701D02*
X612068D01*
X506269D02*
X608395D01*
X495615D02*
X504799D01*
X490105D02*
X492309D01*
X478717D02*
X486431D01*
X473206D02*
X473941D01*
X462553D02*
X468431D01*
X446389D02*
X450062D01*
X430225D02*
X431327D01*
X654315Y519165D02*
X655784D01*
X635947D02*
X639620D01*
X617579D02*
X623457D01*
X611701D02*
X612068D01*
X506269D02*
X608395D01*
X495615D02*
X504799D01*
X490105D02*
X492309D01*
X478717D02*
X486431D01*
X473206D02*
X473941D01*
X462553D02*
X468431D01*
X446389D02*
X450062D01*
X430225D02*
X431327D01*
X653948Y519533D02*
X656519D01*
X635579D02*
X640355D01*
X617211D02*
X624191D01*
X507371D02*
X608395D01*
X494880D02*
X505167D01*
X490472D02*
X491207D01*
X478349D02*
X486799D01*
X461818D02*
X468431D01*
X445654D02*
X450062D01*
X429490D02*
X431694D01*
X672316Y519900D02*
X672683D01*
X653213D02*
X656886D01*
X634845D02*
X640723D01*
X616477D02*
X624559D01*
X509575D02*
X608762D01*
X507371D02*
X508840D01*
X494513D02*
X505901D01*
X477615D02*
X487533D01*
X461451D02*
X469533D01*
X445287D02*
X451165D01*
X429123D02*
X432429D01*
X672316Y520267D02*
X672683D01*
X653213D02*
X656886D01*
X634845D02*
X640723D01*
X616477D02*
X624559D01*
X509575D02*
X608762D01*
X507371D02*
X508840D01*
X494513D02*
X505901D01*
X477615D02*
X487533D01*
X461451D02*
X469533D01*
X445287D02*
X451165D01*
X429123D02*
X432429D01*
X671213Y520634D02*
X673050D01*
X652845D02*
X657621D01*
X634477D02*
X641457D01*
X616109D02*
X625293D01*
X509942D02*
X609497D01*
X493778D02*
X506269D01*
X477247D02*
X487901D01*
X461083D02*
X470267D01*
X444552D02*
X451899D01*
X428388D02*
X432797D01*
X412959D02*
X414061D01*
X671213Y521002D02*
X673785D01*
X652111D02*
X657988D01*
X633743D02*
X641825D01*
X615007D02*
X625661D01*
X509575D02*
X609497D01*
X493411D02*
X507003D01*
X476512D02*
X489003D01*
X460349D02*
X470635D01*
X444185D02*
X452267D01*
X428021D02*
X433531D01*
X412224D02*
X414429D01*
X671213Y521369D02*
X673785D01*
X652111D02*
X657988D01*
X633743D02*
X641825D01*
X615007D02*
X625661D01*
X509575D02*
X609497D01*
X493411D02*
X507003D01*
X476512D02*
X489003D01*
X460349D02*
X470635D01*
X444185D02*
X452267D01*
X428021D02*
X433531D01*
X412224D02*
X414429D01*
X670111Y521737D02*
X674152D01*
X651743D02*
X658723D01*
X632641D02*
X642559D01*
X614273D02*
X626395D01*
X508840D02*
X609864D01*
X492676D02*
X507371D01*
X476145D02*
X489003D01*
X459981D02*
X470635D01*
X443450D02*
X452267D01*
X427286D02*
X433899D01*
X411857D02*
X415163D01*
X361529D02*
X361896D01*
X670479Y522104D02*
X673785D01*
X652111D02*
X657988D01*
X633375D02*
X641825D01*
X615375D02*
X625661D01*
X509942D02*
X609864D01*
X493411D02*
X507003D01*
X476512D02*
X488635D01*
X460349D02*
X470635D01*
X444185D02*
X452267D01*
X428021D02*
X433531D01*
X412224D02*
X414429D01*
X670479Y522471D02*
X673785D01*
X652111D02*
X657988D01*
X633375D02*
X641825D01*
X615375D02*
X625661D01*
X509942D02*
X609864D01*
X493411D02*
X507003D01*
X476512D02*
X488635D01*
X460349D02*
X470635D01*
X444185D02*
X452267D01*
X428021D02*
X433531D01*
X412224D02*
X414429D01*
X671581Y522839D02*
X673785D01*
X652845D02*
X657621D01*
X633743D02*
X641457D01*
X616109D02*
X625293D01*
X509942D02*
X610966D01*
X493778D02*
X505901D01*
X477247D02*
X487901D01*
X461083D02*
X470267D01*
X444552D02*
X451165D01*
X428388D02*
X432797D01*
X412959D02*
X414061D01*
X672316Y523206D02*
X673050D01*
X653213D02*
X656886D01*
X634845D02*
X640723D01*
X616109D02*
X624559D01*
X510677D02*
X610966D01*
X507738D02*
X508840D01*
X494513D02*
X505167D01*
X477615D02*
X487533D01*
X461451D02*
X469165D01*
X445287D02*
X450797D01*
X429123D02*
X432429D01*
X672316Y523573D02*
X673050D01*
X653213D02*
X656886D01*
X634845D02*
X640723D01*
X616109D02*
X624559D01*
X510677D02*
X610966D01*
X507738D02*
X508840D01*
X494513D02*
X505167D01*
X477615D02*
X487533D01*
X461451D02*
X469165D01*
X445287D02*
X450797D01*
X429123D02*
X432429D01*
X653948Y523941D02*
X656519D01*
X634845D02*
X640355D01*
X616477D02*
X624191D01*
X511779D02*
X611701D01*
X507371D02*
X509575D01*
X494880D02*
X504799D01*
X490472D02*
X491574D01*
X478349D02*
X486799D01*
X461818D02*
X468431D01*
X445654D02*
X450062D01*
X429490D02*
X431327D01*
X654315Y524308D02*
X655784D01*
X635947D02*
X639620D01*
X617211D02*
X623457D01*
X511779D02*
X612068D01*
X507003D02*
X509942D01*
X495615D02*
X504064D01*
X490105D02*
X491574D01*
X478717D02*
X486431D01*
X462553D02*
X468063D01*
X446389D02*
X449695D01*
X430225D02*
X430592D01*
X654315Y524675D02*
X655784D01*
X635947D02*
X639620D01*
X617211D02*
X623457D01*
X511779D02*
X612068D01*
X507003D02*
X509942D01*
X495615D02*
X504064D01*
X490105D02*
X491574D01*
X478717D02*
X486431D01*
X462553D02*
X468063D01*
X446389D02*
X449695D01*
X430225D02*
X430592D01*
X654682Y525043D02*
X655417D01*
X636314D02*
X639620D01*
X617946D02*
X623089D01*
X512881D02*
X613171D01*
X506269D02*
X510677D01*
X495983D02*
X503697D01*
X489370D02*
X492676D01*
X479451D02*
X485696D01*
X473206D02*
X474308D01*
X462920D02*
X467328D01*
X446756D02*
X448960D01*
X637049Y525410D02*
X639253D01*
X628967D02*
X630069D01*
X618681D02*
X623089D01*
X513248D02*
X613905D01*
X505901D02*
X511044D01*
X495983D02*
X502962D01*
X489003D02*
X493411D01*
X479819D02*
X485329D01*
X472839D02*
X475043D01*
X463655D02*
X466961D01*
X447491D02*
X448593D01*
X637049Y525778D02*
X639253D01*
X628967D02*
X630069D01*
X618681D02*
X623089D01*
X513248D02*
X613905D01*
X505901D02*
X511044D01*
X495983D02*
X502962D01*
X489003D02*
X493411D01*
X479819D02*
X485329D01*
X472839D02*
X475043D01*
X463655D02*
X466961D01*
X447491D02*
X448593D01*
X637049Y526145D02*
X638518D01*
X628232D02*
X630436D01*
X618681D02*
X621987D01*
X513248D02*
X614273D01*
X505167D02*
X511779D01*
X496717D02*
X502595D01*
X489003D02*
X493411D01*
X480186D02*
X484594D01*
X472104D02*
X475410D01*
X464022D02*
X466226D01*
X455940D02*
X457042D01*
X646233Y526512D02*
X647335D01*
X627130D02*
X631171D01*
X619783D02*
X621987D01*
X513983D02*
X614273D01*
X504799D02*
X512146D01*
X497819D02*
X501860D01*
X487901D02*
X494513D01*
X480921D02*
X484227D01*
X471737D02*
X476145D01*
X464757D02*
X465859D01*
X455573D02*
X457777D01*
X646233Y526880D02*
X647335D01*
X627130D02*
X631171D01*
X619783D02*
X621987D01*
X513983D02*
X614273D01*
X504799D02*
X512146D01*
X497819D02*
X501860D01*
X487901D02*
X494513D01*
X480921D02*
X484227D01*
X471737D02*
X476145D01*
X464757D02*
X465859D01*
X455573D02*
X457777D01*
X645131Y527247D02*
X647702D01*
X626763D02*
X631539D01*
X620150D02*
X621252D01*
X514351D02*
X615007D01*
X504064D02*
X512881D01*
X497819D02*
X501493D01*
X487901D02*
X494880D01*
X481288D02*
X483492D01*
X471002D02*
X476512D01*
X454838D02*
X458144D01*
X438674D02*
X439409D01*
X663499Y527614D02*
X664601D01*
X645131D02*
X648437D01*
X626395D02*
X632273D01*
X515085D02*
X615375D01*
X503697D02*
X513248D01*
X498554D02*
X500758D01*
X487533D02*
X495615D01*
X482023D02*
X483125D01*
X470635D02*
X477247D01*
X454471D02*
X458879D01*
X438307D02*
X439776D01*
X663131Y527982D02*
X664601D01*
X644029D02*
X648437D01*
X625661D02*
X632641D01*
X515085D02*
X616109D01*
X502962D02*
X513983D01*
X499289D02*
X500391D01*
X486799D02*
X495983D01*
X470267D02*
X477615D01*
X453736D02*
X459247D01*
X437572D02*
X440511D01*
X663131Y528349D02*
X664601D01*
X644029D02*
X648437D01*
X625661D02*
X632641D01*
X515453D02*
X616109D01*
X502962D02*
X513983D01*
X499289D02*
X500391D01*
X486799D02*
X495983D01*
X470267D02*
X477615D01*
X453736D02*
X459247D01*
X437572D02*
X440511D01*
X662397Y528717D02*
X665703D01*
X643661D02*
X648804D01*
X625293D02*
X633375D01*
X515820D02*
X616477D01*
X502595D02*
X514351D01*
X486431D02*
X495983D01*
X469533D02*
X478349D01*
X453369D02*
X459981D01*
X437205D02*
X441613D01*
X421409D02*
X422510D01*
X680765Y529084D02*
X681132D01*
X662029D02*
X665703D01*
X642927D02*
X649539D01*
X624559D02*
X633743D01*
X515820D02*
X617211D01*
X501860D02*
X515085D01*
X485696D02*
X497085D01*
X469165D02*
X478717D01*
X452634D02*
X460349D01*
X437205D02*
X441981D01*
X421041D02*
X423245D01*
X680765Y529451D02*
X681132D01*
X662029D02*
X665703D01*
X642927D02*
X649539D01*
X624559D02*
X633743D01*
X516187D02*
X617211D01*
X501860D02*
X515085D01*
X485696D02*
X497085D01*
X469165D02*
X478717D01*
X452634D02*
X460349D01*
X437205D02*
X441981D01*
X421041D02*
X423245D01*
X679663Y529818D02*
X682234D01*
X660927D02*
X666070D01*
X642559D02*
X650641D01*
X624191D02*
X633743D01*
X516555D02*
X617579D01*
X501493D02*
X515453D01*
X485329D02*
X497819D01*
X469165D02*
X479451D01*
X452634D02*
X461083D01*
X436103D02*
X442715D01*
X420306D02*
X423613D01*
X679295Y530186D02*
X682234D01*
X660193D02*
X666805D01*
X641825D02*
X650641D01*
X623457D02*
X634477D01*
X516922D02*
X617946D01*
X500758D02*
X516187D01*
X484594D02*
X498187D01*
X468431D02*
X479819D01*
X452267D02*
X461451D01*
X436103D02*
X443083D01*
X419939D02*
X424347D01*
X679295Y530553D02*
X682234D01*
X660193D02*
X666805D01*
X641825D02*
X650641D01*
X623457D02*
X634477D01*
X516922D02*
X617946D01*
X500758D02*
X516187D01*
X484594D02*
X498187D01*
X468431D02*
X479819D01*
X452267D02*
X461451D01*
X436103D02*
X443083D01*
X419939D02*
X424347D01*
X679663Y530921D02*
X682234D01*
X661295D02*
X666070D01*
X642559D02*
X649906D01*
X624191D02*
X633743D01*
X517290D02*
X617579D01*
X501493D02*
X515453D01*
X485329D02*
X497819D01*
X468431D02*
X479451D01*
X452267D02*
X461083D01*
X436470D02*
X442715D01*
X420306D02*
X423613D01*
X680765Y531288D02*
X681867D01*
X662029D02*
X665703D01*
X642927D02*
X649906D01*
X624559D02*
X633743D01*
X517657D02*
X617211D01*
X501860D02*
X515085D01*
X485696D02*
X497085D01*
X469165D02*
X478717D01*
X452634D02*
X460349D01*
X437205D02*
X441981D01*
X421041D02*
X423245D01*
X680765Y531655D02*
X681867D01*
X662029D02*
X665703D01*
X642927D02*
X649906D01*
X624559D02*
X633743D01*
X517657D02*
X617211D01*
X501860D02*
X515085D01*
X485696D02*
X497085D01*
X469165D02*
X478717D01*
X452634D02*
X460349D01*
X437205D02*
X441981D01*
X421041D02*
X423245D01*
X662029Y532023D02*
X665703D01*
X643661D02*
X649539D01*
X625293D02*
X633375D01*
X518024D02*
X617211D01*
X516187D02*
X517657D01*
X502595D02*
X514351D01*
X486431D02*
X495983D01*
X470267D02*
X478349D01*
X453736D02*
X459981D01*
X437572D02*
X441613D01*
X421409D02*
X422510D01*
X662397Y532390D02*
X664968D01*
X644029D02*
X648804D01*
X625661D02*
X632641D01*
X518391D02*
X617579D01*
X516187D02*
X518024D01*
X502962D02*
X513983D01*
X499289D02*
X500391D01*
X486799D02*
X495615D01*
X470267D02*
X477615D01*
X453736D02*
X459247D01*
X437572D02*
X440511D01*
X662397Y532757D02*
X664968D01*
X644029D02*
X648804D01*
X625661D02*
X632641D01*
X518759D02*
X617579D01*
X516187D02*
X518024D01*
X502962D02*
X513983D01*
X499289D02*
X500391D01*
X486799D02*
X495615D01*
X470267D02*
X477615D01*
X453736D02*
X459247D01*
X437572D02*
X440511D01*
X663131Y533125D02*
X664601D01*
X644763D02*
X648437D01*
X626395D02*
X632273D01*
X620150D02*
X620885D01*
X515453D02*
X617946D01*
X504064D02*
X513248D01*
X498554D02*
X500758D01*
X487533D02*
X495615D01*
X482023D02*
X482390D01*
X471002D02*
X476512D01*
X454471D02*
X458144D01*
X438674D02*
X439776D01*
X645131Y533492D02*
X647702D01*
X626763D02*
X631539D01*
X620150D02*
X621252D01*
X515085D02*
X618681D01*
X504799D02*
X512881D01*
X498187D02*
X501493D01*
X487901D02*
X494513D01*
X482023D02*
X483125D01*
X471002D02*
X476145D01*
X454838D02*
X458144D01*
X645131Y533859D02*
X647702D01*
X626763D02*
X631539D01*
X620150D02*
X621252D01*
X519494D02*
X618681D01*
X515085D02*
X519126D01*
X504799D02*
X512881D01*
X498187D02*
X501493D01*
X487901D02*
X494513D01*
X482023D02*
X483125D01*
X471002D02*
X476145D01*
X454838D02*
X458144D01*
X645498Y534227D02*
X647335D01*
X637416D02*
X638151D01*
X627130D02*
X631171D01*
X619048D02*
X621987D01*
X514351D02*
X618681D01*
X504799D02*
X512146D01*
X497819D02*
X501860D01*
X488635D02*
X493778D01*
X480921D02*
X484227D01*
X472104D02*
X476145D01*
X464757D02*
X465124D01*
X455573D02*
X457042D01*
X646233Y534594D02*
X646600D01*
X637049D02*
X638518D01*
X627865D02*
X630436D01*
X513983D02*
X622355D01*
X505167D02*
X511779D01*
X497085D02*
X502595D01*
X489003D02*
X493411D01*
X480186D02*
X484594D01*
X472104D02*
X475043D01*
X464022D02*
X465859D01*
X455940D02*
X456675D01*
X646233Y534962D02*
X646600D01*
X637049D02*
X638518D01*
X627865D02*
X630436D01*
X513983D02*
X622355D01*
X505167D02*
X511779D01*
X497085D02*
X502595D01*
X489003D02*
X493411D01*
X480186D02*
X484594D01*
X472104D02*
X475043D01*
X464022D02*
X465859D01*
X455940D02*
X456675D01*
X654682Y535329D02*
X655417D01*
X636314D02*
X639253D01*
X628232D02*
X630069D01*
X513248D02*
X623089D01*
X505901D02*
X510677D01*
X496717D02*
X502962D01*
X489370D02*
X492676D01*
X480186D02*
X484594D01*
X473206D02*
X474308D01*
X463655D02*
X466226D01*
X447491D02*
X447858D01*
X654315Y535696D02*
X655784D01*
X635947D02*
X639620D01*
X628967D02*
X629334D01*
X512881D02*
X623457D01*
X506269D02*
X510677D01*
X495983D02*
X503697D01*
X490105D02*
X492309D01*
X479819D02*
X485329D01*
X463655D02*
X467328D01*
X447491D02*
X448593D01*
X654315Y536064D02*
X655784D01*
X635947D02*
X639620D01*
X628967D02*
X629334D01*
X512881D02*
X623457D01*
X506269D02*
X510677D01*
X495983D02*
X503697D01*
X490105D02*
X492309D01*
X479819D02*
X485329D01*
X463655D02*
X467328D01*
X447491D02*
X448593D01*
X653948Y536431D02*
X656519D01*
X635579D02*
X640355D01*
X512146D02*
X624191D01*
X507003D02*
X509575D01*
X495615D02*
X504064D01*
X490472D02*
X491574D01*
X479451D02*
X485696D01*
X462553D02*
X467328D01*
X446756D02*
X448960D01*
X672316Y536798D02*
X673050D01*
X653213D02*
X656886D01*
X634845D02*
X640723D01*
X511779D02*
X624559D01*
X507371D02*
X509575D01*
X494880D02*
X504799D01*
X490472D02*
X491207D01*
X478717D02*
X486431D01*
X462553D02*
X468431D01*
X446389D02*
X449695D01*
X430225D02*
X431327D01*
X671213Y537166D02*
X673785D01*
X652845D02*
X657621D01*
X634477D02*
X641457D01*
X511044D02*
X625293D01*
X507738D02*
X508473D01*
X494513D02*
X505167D01*
X478349D02*
X487533D01*
X461818D02*
X469165D01*
X445654D02*
X450062D01*
X429490D02*
X431694D01*
X671213Y537533D02*
X673785D01*
X652845D02*
X657621D01*
X634477D02*
X641457D01*
X511044D02*
X625293D01*
X507738D02*
X508473D01*
X494513D02*
X505167D01*
X478349D02*
X487533D01*
X461818D02*
X469165D01*
X445654D02*
X450062D01*
X429490D02*
X431694D01*
X670479Y537901D02*
X674152D01*
X651743D02*
X657988D01*
X633375D02*
X641825D01*
X510677D02*
X625661D01*
X494513D02*
X505901D01*
X477615D02*
X487901D01*
X461451D02*
X469533D01*
X445287D02*
X450797D01*
X429123D02*
X431694D01*
X688847Y538268D02*
X689949D01*
X670111D02*
X674887D01*
X651743D02*
X658723D01*
X632641D02*
X642559D01*
X509942D02*
X626395D01*
X493778D02*
X506269D01*
X477247D02*
X487901D01*
X461083D02*
X470267D01*
X444552D02*
X451165D01*
X429123D02*
X432797D01*
X688847Y538635D02*
X689949D01*
X670111D02*
X674887D01*
X651743D02*
X658723D01*
X632641D02*
X642559D01*
X509942D02*
X626395D01*
X493778D02*
X506269D01*
X477247D02*
X487901D01*
X461083D02*
X470267D01*
X444552D02*
X451165D01*
X429123D02*
X432797D01*
X688847Y539003D02*
X691051D01*
X669377D02*
X675254D01*
X650641D02*
X659090D01*
X632273D02*
X642927D01*
X509575D02*
X626763D01*
X492676D02*
X507003D01*
X476512D02*
X489003D01*
X460349D02*
X470267D01*
X444185D02*
X451899D01*
X428388D02*
X433531D01*
X413326D02*
X414061D01*
X688847Y539370D02*
X690316D01*
X670111D02*
X674887D01*
X651009D02*
X658723D01*
X632641D02*
X642559D01*
X509942D02*
X626395D01*
X493411D02*
X506269D01*
X477247D02*
X487901D01*
X461083D02*
X469533D01*
X444552D02*
X451165D01*
X428388D02*
X432429D01*
X688847Y539737D02*
X690316D01*
X670111D02*
X674887D01*
X651009D02*
X658723D01*
X632641D02*
X642559D01*
X509942D02*
X626395D01*
X493411D02*
X506269D01*
X477247D02*
X487901D01*
X461083D02*
X469533D01*
X444552D02*
X451165D01*
X428388D02*
X432429D01*
X670479Y540105D02*
X674152D01*
X651743D02*
X657988D01*
X633375D02*
X641825D01*
X523902D02*
X625661D01*
X510677D02*
X523535D01*
X494513D02*
X505901D01*
X477615D02*
X487901D01*
X461451D02*
X469165D01*
X445287D02*
X450797D01*
X429490D02*
X431694D01*
X671213Y540472D02*
X673785D01*
X652845D02*
X657621D01*
X634477D02*
X641457D01*
X523902D02*
X625293D01*
X511044D02*
X523167D01*
X507738D02*
X508473D01*
X494513D02*
X505167D01*
X478349D02*
X486799D01*
X461818D02*
X468431D01*
X445654D02*
X450062D01*
X430225D02*
X431327D01*
X671213Y540839D02*
X673785D01*
X652845D02*
X657621D01*
X634477D02*
X641457D01*
X524269D02*
X625293D01*
X511044D02*
X523167D01*
X507738D02*
X508473D01*
X494513D02*
X505167D01*
X478349D02*
X486799D01*
X461818D02*
X468431D01*
X445654D02*
X450062D01*
X430225D02*
X431327D01*
X671581Y541207D02*
X673050D01*
X653213D02*
X656886D01*
X634477D02*
X641457D01*
X524269D02*
X624559D01*
X511779D02*
X522433D01*
X507371D02*
X508840D01*
X494880D02*
X504799D01*
X478717D02*
X486431D01*
X462553D02*
X468431D01*
X446389D02*
X449695D01*
X430225D02*
X430592D01*
X672316Y541574D02*
X672683D01*
X653948D02*
X656886D01*
X635579D02*
X640355D01*
X523535D02*
X624191D01*
X512146D02*
X522065D01*
X507371D02*
X509575D01*
X495615D02*
X504064D01*
X490472D02*
X491207D01*
X479451D02*
X485696D01*
X462920D02*
X467328D01*
X446756D02*
X448960D01*
X672316Y541941D02*
X672683D01*
X653948D02*
X656886D01*
X635579D02*
X640355D01*
X523535D02*
X624191D01*
X512146D02*
X522065D01*
X507371D02*
X509575D01*
X495615D02*
X504064D01*
X490472D02*
X491207D01*
X479451D02*
X485696D01*
X462920D02*
X467328D01*
X446756D02*
X448960D01*
X653948Y542309D02*
X656519D01*
X635579D02*
X639620D01*
X628967D02*
X630069D01*
X523167D02*
X624559D01*
X512881D02*
X521330D01*
X506269D02*
X509942D01*
X495983D02*
X503697D01*
X490105D02*
X492309D01*
X479819D02*
X485329D01*
X473206D02*
X473941D01*
X463655D02*
X466961D01*
X447491D02*
X448593D01*
X654315Y542676D02*
X655784D01*
X636314D02*
X639620D01*
X628232D02*
X630436D01*
X522433D02*
X624559D01*
X513248D02*
X520963D01*
X506269D02*
X510677D01*
X497085D02*
X502962D01*
X489370D02*
X492676D01*
X480186D02*
X484594D01*
X473206D02*
X474308D01*
X464022D02*
X466226D01*
X654315Y543044D02*
X655784D01*
X636314D02*
X639620D01*
X628232D02*
X630436D01*
X522433D02*
X624559D01*
X513248D02*
X520963D01*
X506269D02*
X510677D01*
X497085D02*
X502962D01*
X489370D02*
X492676D01*
X480186D02*
X484594D01*
X473206D02*
X474308D01*
X464022D02*
X466226D01*
X646233Y543411D02*
X647335D01*
X637049D02*
X639253D01*
X627130D02*
X631171D01*
X522065D02*
X625293D01*
X513983D02*
X520228D01*
X505901D02*
X511044D01*
X497085D02*
X501860D01*
X489003D02*
X493411D01*
X480921D02*
X484227D01*
X472839D02*
X475043D01*
X464757D02*
X465859D01*
X645131Y543778D02*
X647702D01*
X637416D02*
X638518D01*
X626763D02*
X631171D01*
X522065D02*
X625661D01*
X514351D02*
X519861D01*
X505167D02*
X511779D01*
X497819D02*
X501860D01*
X488635D02*
X493778D01*
X481288D02*
X483492D01*
X472104D02*
X475410D01*
X455940D02*
X457042D01*
X645131Y544146D02*
X647702D01*
X637416D02*
X638518D01*
X626763D02*
X631171D01*
X522065D02*
X625661D01*
X514351D02*
X519861D01*
X505167D02*
X511779D01*
X497819D02*
X501860D01*
X488635D02*
X493778D01*
X481288D02*
X483492D01*
X472104D02*
X475410D01*
X455940D02*
X457042D01*
X663499Y544513D02*
X663866D01*
X645131D02*
X648437D01*
X520963D02*
X631539D01*
X515085D02*
X519126D01*
X504799D02*
X512146D01*
X498187D02*
X500758D01*
X487901D02*
X494513D01*
X482023D02*
X483125D01*
X471737D02*
X476145D01*
X455573D02*
X457777D01*
X663131Y544880D02*
X664601D01*
X644029D02*
X648804D01*
X520963D02*
X632641D01*
X515453D02*
X518759D01*
X504064D02*
X512881D01*
X498554D02*
X500758D01*
X487533D02*
X494880D01*
X471002D02*
X476512D01*
X454838D02*
X458144D01*
X663131Y545248D02*
X664601D01*
X644029D02*
X648804D01*
X520963D02*
X632641D01*
X515453D02*
X518759D01*
X504064D02*
X512881D01*
X498554D02*
X500758D01*
X487533D02*
X494880D01*
X471002D02*
X476512D01*
X454838D02*
X458144D01*
X680765Y545615D02*
X681132D01*
X662397D02*
X664968D01*
X643661D02*
X648804D01*
X519861D02*
X632641D01*
X516187D02*
X518024D01*
X503697D02*
X513983D01*
X499289D02*
X499656D01*
X486799D02*
X495615D01*
X470635D02*
X477247D01*
X454471D02*
X458879D01*
X438674D02*
X439776D01*
X680397Y545982D02*
X681867D01*
X661295D02*
X666070D01*
X642927D02*
X649906D01*
X519861D02*
X633375D01*
X516555D02*
X517657D01*
X502962D02*
X514351D01*
X486799D02*
X495983D01*
X470267D02*
X477615D01*
X453736D02*
X459247D01*
X438307D02*
X440878D01*
X679663Y546350D02*
X682234D01*
X660927D02*
X666070D01*
X642559D02*
X650641D01*
X519126D02*
X634477D01*
X502595D02*
X515085D01*
X486431D02*
X496717D01*
X469533D02*
X478349D01*
X453369D02*
X459981D01*
X437572D02*
X440878D01*
X421409D02*
X422143D01*
X679663Y546717D02*
X682234D01*
X660927D02*
X666070D01*
X642559D02*
X650641D01*
X519126D02*
X634477D01*
X502595D02*
X515085D01*
X486431D02*
X496717D01*
X469533D02*
X478349D01*
X453369D02*
X459981D01*
X437572D02*
X440878D01*
X421409D02*
X422143D01*
X679295Y547085D02*
X682969D01*
X660193D02*
X667172D01*
X641825D02*
X650641D01*
X518759D02*
X634845D01*
X501860D02*
X515085D01*
X485696D02*
X497085D01*
X469533D02*
X478717D01*
X453369D02*
X460349D01*
X437205D02*
X441981D01*
X421409D02*
X422510D01*
X678561Y547452D02*
X683336D01*
X659825D02*
X667907D01*
X641457D02*
X651009D01*
X518024D02*
X634845D01*
X501493D02*
X516187D01*
X485329D02*
X497819D01*
X468431D02*
X479451D01*
X452634D02*
X461083D01*
X436470D02*
X442715D01*
X421041D02*
X423245D01*
X678561Y547819D02*
X683336D01*
X659825D02*
X667907D01*
X641457D02*
X651009D01*
X518024D02*
X634845D01*
X501493D02*
X516187D01*
X485329D02*
X497819D01*
X468431D02*
X479451D01*
X452634D02*
X461083D01*
X436470D02*
X442715D01*
X421041D02*
X423245D01*
X679295Y548187D02*
X682969D01*
X660193D02*
X666805D01*
X641825D02*
X651009D01*
X518759D02*
X634845D01*
X501860D02*
X515453D01*
X485696D02*
X497085D01*
X469533D02*
X478717D01*
X453369D02*
X460349D01*
X437205D02*
X441613D01*
X421409D02*
X422510D01*
X679663Y548554D02*
X682234D01*
X660927D02*
X666805D01*
X642559D02*
X650641D01*
X519126D02*
X634477D01*
X502595D02*
X514351D01*
X486431D02*
X496717D01*
X469533D02*
X478349D01*
X453369D02*
X459981D01*
X437572D02*
X440878D01*
X679663Y548921D02*
X682234D01*
X660927D02*
X666805D01*
X642559D02*
X650641D01*
X519126D02*
X634477D01*
X502595D02*
X514351D01*
X486431D02*
X496717D01*
X469533D02*
X478349D01*
X453369D02*
X459981D01*
X437572D02*
X440878D01*
X680397Y549289D02*
X681867D01*
X661295D02*
X666070D01*
X642927D02*
X649906D01*
X519861D02*
X633743D01*
X516555D02*
X516922D01*
X502962D02*
X513983D01*
X486431D02*
X495983D01*
X470635D02*
X477615D01*
X454471D02*
X459247D01*
X438307D02*
X440511D01*
X680765Y549656D02*
X681867D01*
X662029D02*
X665703D01*
X643661D02*
X649539D01*
X520228D02*
X633375D01*
X516187D02*
X517657D01*
X503697D02*
X513248D01*
X499289D02*
X499656D01*
X487533D02*
X495615D01*
X470635D02*
X477247D01*
X454471D02*
X458144D01*
X438674D02*
X439776D01*
X680765Y550023D02*
X681867D01*
X662029D02*
X665703D01*
X643661D02*
X649539D01*
X520228D02*
X633375D01*
X516187D02*
X517657D01*
X503697D02*
X513248D01*
X499289D02*
X499656D01*
X487533D02*
X495615D01*
X470635D02*
X477247D01*
X454471D02*
X458144D01*
X438674D02*
X439776D01*
X662397Y550391D02*
X664968D01*
X644029D02*
X648804D01*
X531249D02*
X632641D01*
X520963D02*
X530514D01*
X515453D02*
X518759D01*
X504064D02*
X512881D01*
X498554D02*
X500391D01*
X487533D02*
X494513D01*
X471002D02*
X476145D01*
X454838D02*
X458144D01*
X663131Y550758D02*
X664601D01*
X644763D02*
X648437D01*
X637416D02*
X638151D01*
X531249D02*
X632273D01*
X521330D02*
X530147D01*
X515085D02*
X519126D01*
X504799D02*
X512146D01*
X498554D02*
X500758D01*
X488635D02*
X494513D01*
X482023D02*
X482390D01*
X472104D02*
X475410D01*
X455573D02*
X457042D01*
X663131Y551125D02*
X664601D01*
X644763D02*
X648437D01*
X637416D02*
X638151D01*
X531617D02*
X632273D01*
X521330D02*
X530147D01*
X515085D02*
X519126D01*
X504799D02*
X512146D01*
X498554D02*
X500758D01*
X488635D02*
X494513D01*
X482023D02*
X482390D01*
X472104D02*
X475410D01*
X455573D02*
X457042D01*
X663499Y551493D02*
X663866D01*
X645131D02*
X647702D01*
X637049D02*
X638518D01*
X531249D02*
X631539D01*
X522065D02*
X529412D01*
X514351D02*
X519861D01*
X505167D02*
X511779D01*
X497819D02*
X501493D01*
X489003D02*
X493411D01*
X481288D02*
X483492D01*
X472839D02*
X475410D01*
X455940D02*
X456675D01*
X654682Y551860D02*
X655417D01*
X645498D02*
X647335D01*
X636314D02*
X639253D01*
X530514D02*
X631539D01*
X522065D02*
X529045D01*
X513983D02*
X520228D01*
X505901D02*
X511044D01*
X497819D02*
X501860D01*
X489003D02*
X492676D01*
X481288D02*
X483492D01*
X472839D02*
X475043D01*
X464757D02*
X465124D01*
X654682Y552228D02*
X655417D01*
X645498D02*
X647335D01*
X636314D02*
X639253D01*
X530514D02*
X631539D01*
X522065D02*
X529045D01*
X513983D02*
X520228D01*
X505901D02*
X511044D01*
X497819D02*
X501860D01*
X489003D02*
X492676D01*
X481288D02*
X483492D01*
X472839D02*
X475043D01*
X464757D02*
X465124D01*
X654315Y552595D02*
X655784D01*
X646233D02*
X646600D01*
X635947D02*
X639620D01*
X530147D02*
X631539D01*
X523167D02*
X528310D01*
X513248D02*
X520963D01*
X506269D02*
X510677D01*
X497085D02*
X502595D01*
X490105D02*
X492309D01*
X480186D02*
X484227D01*
X473206D02*
X473941D01*
X464022D02*
X465859D01*
X672316Y552962D02*
X672683D01*
X653948D02*
X656519D01*
X635579D02*
X640355D01*
X529412D02*
X632273D01*
X523167D02*
X527943D01*
X512881D02*
X521330D01*
X507003D02*
X509942D01*
X496717D02*
X502962D01*
X490472D02*
X491574D01*
X480186D02*
X484594D01*
X463655D02*
X466961D01*
X672316Y553330D02*
X672683D01*
X653948D02*
X656519D01*
X635579D02*
X640355D01*
X529412D02*
X632273D01*
X523167D02*
X527943D01*
X512881D02*
X521330D01*
X507003D02*
X509942D01*
X496717D02*
X502962D01*
X490472D02*
X491574D01*
X480186D02*
X484594D01*
X463655D02*
X466961D01*
X671581Y553697D02*
X673050D01*
X653213D02*
X656886D01*
X634845D02*
X640723D01*
X529045D02*
X632641D01*
X523535D02*
X527208D01*
X512881D02*
X522065D01*
X507371D02*
X509575D01*
X495983D02*
X503697D01*
X490472D02*
X491207D01*
X479819D02*
X485696D01*
X463655D02*
X467328D01*
X447491D02*
X448593D01*
X671213Y554064D02*
X673785D01*
X652845D02*
X657621D01*
X634477D02*
X641457D01*
X528310D02*
X632641D01*
X524637D02*
X526841D01*
X512146D02*
X522433D01*
X507738D02*
X508473D01*
X495615D02*
X504064D01*
X479451D02*
X485696D01*
X462920D02*
X467328D01*
X446756D02*
X448960D01*
X671213Y554432D02*
X673785D01*
X652845D02*
X657621D01*
X634477D02*
X641457D01*
X528310D02*
X632641D01*
X524637D02*
X526841D01*
X512146D02*
X522433D01*
X507738D02*
X508473D01*
X495615D02*
X504064D01*
X479451D02*
X485696D01*
X462920D02*
X467328D01*
X446756D02*
X448960D01*
X689581Y554799D02*
X689949D01*
X670479D02*
X674152D01*
X652111D02*
X657988D01*
X633743D02*
X641825D01*
X528310D02*
X633375D01*
X524637D02*
X526106D01*
X511779D02*
X523167D01*
X494880D02*
X504799D01*
X478717D02*
X486799D01*
X462553D02*
X468431D01*
X446389D02*
X449695D01*
X688847Y555166D02*
X690316D01*
X670111D02*
X674887D01*
X651743D02*
X658723D01*
X527208D02*
X642559D01*
X511044D02*
X523535D01*
X494513D02*
X505167D01*
X478349D02*
X487533D01*
X461818D02*
X469165D01*
X445654D02*
X450062D01*
X430225D02*
X431327D01*
X335079D02*
X338018D01*
X303853D02*
X305690D01*
X283648D02*
X285853D01*
X270791D02*
X272628D01*
X688479Y555534D02*
X691051D01*
X669377D02*
X675254D01*
X651009D02*
X659090D01*
X526841D02*
X642927D01*
X510677D02*
X524269D01*
X493778D02*
X506269D01*
X477615D02*
X487901D01*
X461451D02*
X469533D01*
X445287D02*
X450797D01*
X429490D02*
X431694D01*
X382101D02*
X390550D01*
X375856D02*
X377693D01*
X363366D02*
X372550D01*
X353447D02*
X356753D01*
X333977D02*
X339120D01*
X326629D02*
X328466D01*
X320017D02*
X321854D01*
X314139D02*
X315976D01*
X308996D02*
X310466D01*
X303118D02*
X306425D01*
X297241D02*
X299445D01*
X290996D02*
X292832D01*
X282546D02*
X286955D01*
X275934D02*
X277403D01*
X270056D02*
X273730D01*
X253892D02*
X260137D01*
X688479Y555901D02*
X691051D01*
X669377D02*
X675254D01*
X651009D02*
X659090D01*
X526841D02*
X642927D01*
X510677D02*
X524269D01*
X493778D02*
X506269D01*
X477615D02*
X487901D01*
X461451D02*
X469533D01*
X445287D02*
X450797D01*
X429490D02*
X431694D01*
X382101D02*
X390550D01*
X375856D02*
X378060D01*
X363366D02*
X372550D01*
X353447D02*
X356753D01*
X333609D02*
X339855D01*
X326629D02*
X328466D01*
X320017D02*
X321854D01*
X314139D02*
X315976D01*
X308996D02*
X310466D01*
X302751D02*
X307159D01*
X296873D02*
X299445D01*
X290996D02*
X292832D01*
X282179D02*
X287689D01*
X275934D02*
X277403D01*
X269689D02*
X274097D01*
X253892D02*
X261607D01*
X687377Y556269D02*
X691418D01*
X669009D02*
X675989D01*
X649906D02*
X659825D01*
X526106D02*
X643661D01*
X509942D02*
X524637D01*
X493411D02*
X506269D01*
X477247D02*
X487901D01*
X461083D02*
X470267D01*
X444552D02*
X451165D01*
X429123D02*
X432429D01*
X382468D02*
X390550D01*
X375856D02*
X378427D01*
X363733D02*
X372917D01*
X353079D02*
X357120D01*
X333242D02*
X340222D01*
X326629D02*
X328834D01*
X320017D02*
X321854D01*
X314139D02*
X316343D01*
X308996D02*
X310466D01*
X302751D02*
X307527D01*
X296873D02*
X299077D01*
X290996D02*
X292832D01*
X281812D02*
X288057D01*
X275934D02*
X277403D01*
X269689D02*
X274464D01*
X253892D02*
X262709D01*
X687745Y556636D02*
X691051D01*
X669377D02*
X675254D01*
X651009D02*
X659090D01*
X527208D02*
X642927D01*
X510677D02*
X524269D01*
X493778D02*
X505901D01*
X477615D02*
X487901D01*
X461451D02*
X469533D01*
X445287D02*
X450797D01*
X429490D02*
X431694D01*
X382468D02*
X390550D01*
X375856D02*
X378427D01*
X363733D02*
X372917D01*
X353079D02*
X357120D01*
X338018D02*
X340589D01*
X332875D02*
X335813D01*
X326629D02*
X328834D01*
X320017D02*
X322221D01*
X314139D02*
X316343D01*
X308996D02*
X310833D01*
X302384D02*
X307894D01*
X296506D02*
X299077D01*
X290996D02*
X293200D01*
X281812D02*
X288057D01*
X275934D02*
X277771D01*
X269321D02*
X274832D01*
X253892D02*
X263444D01*
X687745Y557003D02*
X691051D01*
X669377D02*
X675254D01*
X651009D02*
X659090D01*
X527208D02*
X642927D01*
X510677D02*
X524269D01*
X493778D02*
X505901D01*
X477615D02*
X487901D01*
X461451D02*
X469533D01*
X445287D02*
X450797D01*
X429490D02*
X431694D01*
X385774D02*
X387979D01*
X375856D02*
X378427D01*
X363733D02*
X372917D01*
X353079D02*
X357488D01*
X338385D02*
X340957D01*
X332875D02*
X335446D01*
X326629D02*
X328834D01*
X320017D02*
X322221D01*
X314139D02*
X316343D01*
X308996D02*
X310833D01*
X306792D02*
X308262D01*
X302384D02*
X305323D01*
X296506D02*
X298710D01*
X290996D02*
X293200D01*
X286955D02*
X288057D01*
X281812D02*
X284750D01*
X275934D02*
X277771D01*
X273730D02*
X275199D01*
X269321D02*
X272260D01*
X254260D02*
X263811D01*
X688847Y557371D02*
X691051D01*
X670111D02*
X674887D01*
X651009D02*
X658723D01*
X527208D02*
X642559D01*
X511044D02*
X523535D01*
X494513D02*
X505901D01*
X478349D02*
X487533D01*
X461818D02*
X468431D01*
X445654D02*
X450062D01*
X430225D02*
X431327D01*
X385774D02*
X387979D01*
X375856D02*
X378427D01*
X364100D02*
X366304D01*
X353079D02*
X357488D01*
X338752D02*
X341324D01*
X332507D02*
X335079D01*
X326997D02*
X328834D01*
X320017D02*
X322221D01*
X314139D02*
X316343D01*
X309364D02*
X310833D01*
X307159D02*
X308629D01*
X302384D02*
X304955D01*
X296139D02*
X298710D01*
X290996D02*
X293200D01*
X287689D02*
X288424D01*
X281444D02*
X284016D01*
X276301D02*
X277771D01*
X274097D02*
X275567D01*
X269321D02*
X271893D01*
X260137D02*
X264178D01*
X254260D02*
X256464D01*
X689581Y557738D02*
X690316D01*
X670479D02*
X674152D01*
X652111D02*
X657988D01*
X527943D02*
X641825D01*
X525371D02*
X526106D01*
X511779D02*
X523167D01*
X494880D02*
X504799D01*
X478717D02*
X486431D01*
X462553D02*
X468063D01*
X446389D02*
X449695D01*
X385774D02*
X387979D01*
X376223D02*
X378427D01*
X364100D02*
X366672D01*
X356018D02*
X357855D01*
X353079D02*
X355284D01*
X339120D02*
X341691D01*
X332507D02*
X335079D01*
X326997D02*
X328834D01*
X320384D02*
X322221D01*
X314507D02*
X316343D01*
X309364D02*
X310833D01*
X307894D02*
X308629D01*
X302384D02*
X304588D01*
X296139D02*
X298343D01*
X291363D02*
X293200D01*
X281444D02*
X284016D01*
X276301D02*
X277771D01*
X274832D02*
X275567D01*
X269321D02*
X271525D01*
X261239D02*
X264546D01*
X254260D02*
X256464D01*
X689581Y558105D02*
X690316D01*
X670479D02*
X674152D01*
X652111D02*
X657988D01*
X527943D02*
X641825D01*
X525371D02*
X526106D01*
X511779D02*
X523167D01*
X494880D02*
X504799D01*
X478717D02*
X486431D01*
X462553D02*
X468063D01*
X446389D02*
X449695D01*
X385774D02*
X387979D01*
X376590D02*
X378427D01*
X364468D02*
X367407D01*
X356018D02*
X358223D01*
X353079D02*
X354916D01*
X339487D02*
X341691D01*
X332507D02*
X334711D01*
X326997D02*
X329201D01*
X320384D02*
X322221D01*
X314507D02*
X316711D01*
X309364D02*
X310833D01*
X308262D02*
X308996D01*
X302384D02*
X304588D01*
X296139D02*
X298343D01*
X291363D02*
X293200D01*
X281444D02*
X283648D01*
X276301D02*
X277771D01*
X275199D02*
X275934D01*
X269321D02*
X271525D01*
X261974D02*
X264913D01*
X254260D02*
X256464D01*
X671213Y558473D02*
X673785D01*
X652111D02*
X657621D01*
X529045D02*
X641457D01*
X524637D02*
X526841D01*
X512146D02*
X522065D01*
X507738D02*
X508840D01*
X495615D02*
X504064D01*
X479451D02*
X485696D01*
X462920D02*
X467328D01*
X446756D02*
X448960D01*
X386142D02*
X388346D01*
X365202D02*
X367774D01*
X356386D02*
X358223D01*
X353079D02*
X354916D01*
X339855D02*
X342059D01*
X332507D02*
X334711D01*
X326997D02*
X329201D01*
X320384D02*
X322589D01*
X314507D02*
X316711D01*
X309364D02*
X311200D01*
X308262D02*
X308996D01*
X302384D02*
X304588D01*
X295771D02*
X298343D01*
X291363D02*
X293567D01*
X281444D02*
X283648D01*
X276301D02*
X278138D01*
X275199D02*
X275934D01*
X269321D02*
X271525D01*
X262341D02*
X265280D01*
X254260D02*
X256464D01*
X671581Y558840D02*
X673050D01*
X653213D02*
X656886D01*
X529045D02*
X640723D01*
X524269D02*
X527208D01*
X512881D02*
X522065D01*
X507371D02*
X508840D01*
X495983D02*
X503697D01*
X479819D02*
X485329D01*
X463655D02*
X466961D01*
X447491D02*
X447858D01*
X386142D02*
X388346D01*
X365570D02*
X368141D01*
X356386D02*
X358590D01*
X353079D02*
X354916D01*
X339855D02*
X342059D01*
X332507D02*
X334711D01*
X326997D02*
X329201D01*
X320384D02*
X322589D01*
X314507D02*
X316711D01*
X308629D02*
X311200D01*
X302384D02*
X304588D01*
X295771D02*
X297975D01*
X291363D02*
X293567D01*
X281444D02*
X283648D01*
X275567D02*
X278138D01*
X269321D02*
X271525D01*
X262709D02*
X265648D01*
X254627D02*
X256831D01*
X671581Y559207D02*
X673050D01*
X653213D02*
X656886D01*
X529045D02*
X640723D01*
X524269D02*
X527208D01*
X512881D02*
X522065D01*
X507371D02*
X508840D01*
X495983D02*
X503697D01*
X479819D02*
X485329D01*
X463655D02*
X466961D01*
X447491D02*
X447858D01*
X386142D02*
X388346D01*
X365937D02*
X368509D01*
X356753D02*
X358590D01*
X352712D02*
X354916D01*
X340222D02*
X342426D01*
X332507D02*
X334711D01*
X327364D02*
X329201D01*
X320384D02*
X322589D01*
X314507D02*
X316711D01*
X309731D02*
X311200D01*
X308996D02*
X309364D01*
X302384D02*
X304588D01*
X295404D02*
X297975D01*
X291363D02*
X293567D01*
X281444D02*
X283648D01*
X276668D02*
X278138D01*
X275934D02*
X276301D01*
X269321D02*
X271525D01*
X263076D02*
X265648D01*
X254627D02*
X256831D01*
X672316Y559575D02*
X672683D01*
X653948D02*
X656886D01*
X529412D02*
X640355D01*
X523535D02*
X527943D01*
X513248D02*
X521330D01*
X507003D02*
X509942D01*
X496717D02*
X502962D01*
X490472D02*
X491574D01*
X480186D02*
X484594D01*
X464022D02*
X466226D01*
X386142D02*
X388346D01*
X366304D02*
X369243D01*
X356753D02*
X358957D01*
X352712D02*
X354916D01*
X340222D02*
X342426D01*
X332507D02*
X334711D01*
X327364D02*
X329201D01*
X320752D02*
X322589D01*
X314874D02*
X316711D01*
X308996D02*
X311200D01*
X302384D02*
X304588D01*
X295404D02*
X297608D01*
X291730D02*
X293567D01*
X281444D02*
X283648D01*
X275934D02*
X278138D01*
X269321D02*
X271525D01*
X263076D02*
X266015D01*
X254627D02*
X256831D01*
X654315Y559942D02*
X656519D01*
X646233D02*
X647335D01*
X530514D02*
X640355D01*
X523167D02*
X528310D01*
X513248D02*
X520228D01*
X506269D02*
X510677D01*
X497085D02*
X502595D01*
X490105D02*
X492309D01*
X480921D02*
X484227D01*
X473206D02*
X473941D01*
X464757D02*
X465859D01*
X386142D02*
X388346D01*
X366672D02*
X369611D01*
X357120D02*
X358957D01*
X352712D02*
X354916D01*
X340222D02*
X342426D01*
X332507D02*
X334711D01*
X327364D02*
X329568D01*
X320752D02*
X322956D01*
X314874D02*
X316711D01*
X309364D02*
X311200D01*
X302751D02*
X304588D01*
X295037D02*
X297608D01*
X291730D02*
X293567D01*
X281444D02*
X283648D01*
X276301D02*
X278138D01*
X269689D02*
X271525D01*
X263444D02*
X266015D01*
X254627D02*
X256831D01*
X654315Y560309D02*
X656519D01*
X646233D02*
X647335D01*
X530514D02*
X640355D01*
X523167D02*
X528310D01*
X513248D02*
X520228D01*
X506269D02*
X510677D01*
X497085D02*
X502595D01*
X490105D02*
X492309D01*
X480921D02*
X484227D01*
X473206D02*
X473941D01*
X464757D02*
X465859D01*
X386509D02*
X388713D01*
X367407D02*
X369978D01*
X357120D02*
X359325D01*
X352712D02*
X354916D01*
X340222D02*
X342426D01*
X332507D02*
X334711D01*
X327364D02*
X329568D01*
X320752D02*
X322956D01*
X314874D02*
X317078D01*
X309364D02*
X311568D01*
X302751D02*
X304955D01*
X295037D02*
X297241D01*
X291730D02*
X293934D01*
X281444D02*
X283648D01*
X276301D02*
X278505D01*
X269689D02*
X271893D01*
X263811D02*
X266382D01*
X254627D02*
X256831D01*
X654315Y560677D02*
X655784D01*
X645498D02*
X647702D01*
X538596D02*
X639253D01*
X530514D02*
X538229D01*
X522433D02*
X529045D01*
X513983D02*
X519861D01*
X506269D02*
X510677D01*
X497819D02*
X501860D01*
X489370D02*
X492676D01*
X481288D02*
X483492D01*
X473206D02*
X474308D01*
X386509D02*
X388713D01*
X367774D02*
X370345D01*
X357488D02*
X359325D01*
X352712D02*
X354916D01*
X340589D02*
X342793D01*
X332507D02*
X334711D01*
X327364D02*
X329568D01*
X320752D02*
X322956D01*
X314874D02*
X317078D01*
X309364D02*
X311568D01*
X302751D02*
X304955D01*
X294669D02*
X297241D01*
X291730D02*
X293934D01*
X281812D02*
X283648D01*
X276301D02*
X278505D01*
X269689D02*
X271893D01*
X263811D02*
X266382D01*
X254994D02*
X257198D01*
X663499Y561044D02*
X664601D01*
X644763D02*
X648437D01*
X538596D02*
X639253D01*
X531249D02*
X537127D01*
X522065D02*
X529412D01*
X515085D02*
X519126D01*
X505167D02*
X511779D01*
X498187D02*
X501493D01*
X489003D02*
X493411D01*
X482023D02*
X483125D01*
X472839D02*
X475043D01*
X386509D02*
X388713D01*
X368141D02*
X370713D01*
X357488D02*
X359692D01*
X352712D02*
X354916D01*
X340589D02*
X342793D01*
X332875D02*
X335079D01*
X327732D02*
X329568D01*
X320752D02*
X322956D01*
X314874D02*
X317078D01*
X309364D02*
X311568D01*
X302751D02*
X304955D01*
X294669D02*
X296873D01*
X291730D02*
X293934D01*
X281812D02*
X284016D01*
X276301D02*
X278505D01*
X269689D02*
X271893D01*
X264178D02*
X266382D01*
X254994D02*
X257198D01*
X663499Y561412D02*
X664601D01*
X644763D02*
X648437D01*
X538596D02*
X639253D01*
X531249D02*
X537127D01*
X522065D02*
X529412D01*
X515085D02*
X519126D01*
X505167D02*
X511779D01*
X498187D02*
X501493D01*
X489003D02*
X493411D01*
X482023D02*
X483125D01*
X472839D02*
X475043D01*
X386509D02*
X388713D01*
X368509D02*
X371080D01*
X357855D02*
X359692D01*
X352712D02*
X354549D01*
X340589D02*
X342793D01*
X332875D02*
X335079D01*
X327732D02*
X329568D01*
X321119D02*
X323323D01*
X315241D02*
X317078D01*
X309731D02*
X311568D01*
X302751D02*
X304955D01*
X295037D02*
X296873D01*
X292098D02*
X293934D01*
X281812D02*
X284016D01*
X276668D02*
X278505D01*
X269689D02*
X271893D01*
X264178D02*
X266750D01*
X254994D02*
X257198D01*
X662397Y561779D02*
X664968D01*
X644029D02*
X648804D01*
X538229D02*
X638518D01*
X531617D02*
X536392D01*
X521330D02*
X530147D01*
X515085D02*
X518759D01*
X505167D02*
X512146D01*
X498554D02*
X500758D01*
X488635D02*
X493778D01*
X472104D02*
X475410D01*
X455940D02*
X456675D01*
X386509D02*
X388713D01*
X368876D02*
X371447D01*
X357855D02*
X360059D01*
X352345D02*
X354549D01*
X340589D02*
X342793D01*
X332875D02*
X335079D01*
X327732D02*
X329936D01*
X321119D02*
X323323D01*
X315241D02*
X317078D01*
X309731D02*
X311568D01*
X303118D02*
X304955D01*
X295404D02*
X297241D01*
X292098D02*
X293934D01*
X281812D02*
X284016D01*
X276668D02*
X278505D01*
X270056D02*
X271893D01*
X264178D02*
X266750D01*
X254994D02*
X257198D01*
X680765Y562146D02*
X681867D01*
X662397D02*
X665703D01*
X643661D02*
X649539D01*
X537494D02*
X638518D01*
X532351D02*
X536392D01*
X520963D02*
X530514D01*
X516187D02*
X518024D01*
X504799D02*
X512881D01*
X499289D02*
X500391D01*
X487901D02*
X494513D01*
X471737D02*
X476145D01*
X455573D02*
X457042D01*
X386877D02*
X389081D01*
X369243D02*
X371815D01*
X358223D02*
X360059D01*
X352345D02*
X354549D01*
X340589D02*
X342793D01*
X333242D02*
X335446D01*
X327732D02*
X329936D01*
X321119D02*
X323691D01*
X315241D02*
X317446D01*
X309731D02*
X311935D01*
X303118D02*
X305323D01*
X295771D02*
X297608D01*
X292098D02*
X294302D01*
X282179D02*
X284383D01*
X276668D02*
X278873D01*
X270056D02*
X272260D01*
X264178D02*
X266750D01*
X255362D02*
X257198D01*
X680765Y562514D02*
X681867D01*
X662397D02*
X665703D01*
X643661D02*
X649539D01*
X537494D02*
X638518D01*
X532351D02*
X536392D01*
X520963D02*
X530514D01*
X516187D02*
X518024D01*
X504799D02*
X512881D01*
X499289D02*
X500391D01*
X487901D02*
X494513D01*
X471737D02*
X476145D01*
X455573D02*
X457042D01*
X386877D02*
X389081D01*
X369611D02*
X372182D01*
X358223D02*
X360427D01*
X352345D02*
X354549D01*
X340589D02*
X342793D01*
X333242D02*
X335446D01*
X327732D02*
X329936D01*
X323323D02*
X324058D01*
X321119D02*
X322956D01*
X315241D02*
X317446D01*
X309731D02*
X311935D01*
X303118D02*
X305323D01*
X295771D02*
X297975D01*
X292098D02*
X294302D01*
X282179D02*
X284383D01*
X276668D02*
X278873D01*
X270056D02*
X272260D01*
X264546D02*
X266750D01*
X255362D02*
X257566D01*
X680397Y562881D02*
X681867D01*
X661295D02*
X665703D01*
X642927D02*
X649906D01*
X537127D02*
X639253D01*
X532719D02*
X535290D01*
X520228D02*
X531249D01*
X516555D02*
X517657D01*
X504064D02*
X513248D01*
X487533D02*
X494880D01*
X471002D02*
X476512D01*
X454838D02*
X457777D01*
X386877D02*
X389081D01*
X369978D02*
X372550D01*
X358590D02*
X360794D01*
X352345D02*
X354549D01*
X340589D02*
X342793D01*
X333609D02*
X335813D01*
X327732D02*
X329936D01*
X323323D02*
X324058D01*
X321119D02*
X322956D01*
X315241D02*
X317446D01*
X309731D02*
X311935D01*
X303118D02*
X305323D01*
X296139D02*
X298710D01*
X292098D02*
X294302D01*
X282546D02*
X284383D01*
X276668D02*
X278873D01*
X270056D02*
X272260D01*
X264546D02*
X266750D01*
X255362D02*
X257566D01*
X679663Y563248D02*
X682969D01*
X660927D02*
X666070D01*
X642559D02*
X650641D01*
X536392D02*
X639620D01*
X533453D02*
X534923D01*
X519861D02*
X531617D01*
X503697D02*
X513248D01*
X486799D02*
X495615D01*
X470635D02*
X477247D01*
X454471D02*
X458879D01*
X438674D02*
X439776D01*
X386877D02*
X389081D01*
X369978D02*
X372917D01*
X358590D02*
X360794D01*
X352345D02*
X354549D01*
X340222D02*
X342793D01*
X333609D02*
X335813D01*
X327732D02*
X329936D01*
X323691D02*
X324425D01*
X321487D02*
X322956D01*
X315609D02*
X317446D01*
X310098D02*
X311935D01*
X303118D02*
X305323D01*
X296506D02*
X299077D01*
X292465D02*
X294302D01*
X282546D02*
X284750D01*
X277036D02*
X278873D01*
X270056D02*
X272260D01*
X264546D02*
X266750D01*
X255362D02*
X257566D01*
X679663Y563616D02*
X682969D01*
X660927D02*
X666070D01*
X642559D02*
X650641D01*
X536392D02*
X639620D01*
X533453D02*
X534923D01*
X519861D02*
X531617D01*
X503697D02*
X513248D01*
X486799D02*
X495615D01*
X470635D02*
X477247D01*
X454471D02*
X458879D01*
X438674D02*
X439776D01*
X386877D02*
X389081D01*
X370345D02*
X373284D01*
X358957D02*
X361161D01*
X352345D02*
X354549D01*
X340222D02*
X342426D01*
X333977D02*
X336181D01*
X327364D02*
X329936D01*
X323691D02*
X324793D01*
X321487D02*
X322956D01*
X315609D02*
X317446D01*
X310098D02*
X311935D01*
X303486D02*
X305323D01*
X296873D02*
X299445D01*
X292465D02*
X294302D01*
X282914D02*
X285118D01*
X277036D02*
X278873D01*
X270423D02*
X272260D01*
X264546D02*
X266750D01*
X255362D02*
X257566D01*
X679295Y563983D02*
X682969D01*
X660193D02*
X666805D01*
X641825D02*
X651009D01*
X536025D02*
X639620D01*
X533821D02*
X534555D01*
X519126D02*
X532351D01*
X502962D02*
X514351D01*
X486431D02*
X495983D01*
X470267D02*
X477615D01*
X454471D02*
X459247D01*
X438307D02*
X440511D01*
X387244D02*
X389448D01*
X370713D02*
X373284D01*
X358957D02*
X361161D01*
X352345D02*
X354549D01*
X339855D02*
X342426D01*
X334344D02*
X336916D01*
X326997D02*
X329936D01*
X324058D02*
X325527D01*
X321487D02*
X323323D01*
X315609D02*
X317813D01*
X310098D02*
X312302D01*
X303486D02*
X305690D01*
X297241D02*
X299812D01*
X292465D02*
X294669D01*
X289159D02*
X289526D01*
X282914D02*
X285485D01*
X277036D02*
X279240D01*
X270423D02*
X272628D01*
X264546D02*
X267117D01*
X255729D02*
X257566D01*
X678193Y564350D02*
X683336D01*
X659825D02*
X667907D01*
X641457D02*
X651009D01*
X535290D02*
X640355D01*
X518759D02*
X532719D01*
X502595D02*
X515085D01*
X486431D02*
X496717D01*
X470267D02*
X478349D01*
X453369D02*
X459981D01*
X437572D02*
X440878D01*
X387244D02*
X389448D01*
X370713D02*
X373652D01*
X359325D02*
X361529D01*
X351977D02*
X354182D01*
X339487D02*
X342426D01*
X334344D02*
X337283D01*
X324425D02*
X329936D01*
X321487D02*
X323323D01*
X315609D02*
X317813D01*
X310098D02*
X312302D01*
X303486D02*
X305690D01*
X297608D02*
X300180D01*
X292465D02*
X294669D01*
X288424D02*
X289526D01*
X283281D02*
X286220D01*
X277036D02*
X279240D01*
X270423D02*
X272628D01*
X264546D02*
X267117D01*
X255729D02*
X257933D01*
X677458Y564718D02*
X684071D01*
X659090D02*
X667907D01*
X534923D02*
X651743D01*
X518024D02*
X533453D01*
X501860D02*
X515453D01*
X485696D02*
X497085D01*
X469533D02*
X478717D01*
X452634D02*
X460349D01*
X437205D02*
X441613D01*
X387244D02*
X389448D01*
X371080D02*
X373652D01*
X359325D02*
X361529D01*
X351977D02*
X354182D01*
X334711D02*
X342059D01*
X324793D02*
X329568D01*
X321487D02*
X323323D01*
X315609D02*
X317813D01*
X310098D02*
X312302D01*
X303486D02*
X305690D01*
X297975D02*
X300547D01*
X292465D02*
X294669D01*
X283648D02*
X289526D01*
X277036D02*
X279240D01*
X270423D02*
X272628D01*
X264546D02*
X267117D01*
X255729D02*
X257933D01*
X677458Y565085D02*
X684071D01*
X659090D02*
X667907D01*
X534923D02*
X651743D01*
X518024D02*
X533453D01*
X501860D02*
X515453D01*
X485696D02*
X497085D01*
X469533D02*
X478717D01*
X452634D02*
X460349D01*
X437205D02*
X441613D01*
X387244D02*
X389448D01*
X371080D02*
X374019D01*
X359692D02*
X361896D01*
X351977D02*
X354182D01*
X335446D02*
X341691D01*
X325160D02*
X329568D01*
X321854D02*
X323323D01*
X315976D02*
X317813D01*
X310466D02*
X312302D01*
X303486D02*
X305690D01*
X298343D02*
X300914D01*
X292832D02*
X294669D01*
X284383D02*
X289893D01*
X277403D02*
X279240D01*
X270423D02*
X272628D01*
X264546D02*
X266750D01*
X255729D02*
X257933D01*
X678561Y565452D02*
X683336D01*
X659825D02*
X667172D01*
X641457D02*
X651009D01*
X535290D02*
X640723D01*
X518759D02*
X532719D01*
X502595D02*
X515085D01*
X485696D02*
X496717D01*
X469533D02*
X478349D01*
X453736D02*
X459981D01*
X437572D02*
X440878D01*
X387244D02*
X389448D01*
X371080D02*
X374019D01*
X359692D02*
X361896D01*
X351977D02*
X354182D01*
X336181D02*
X341324D01*
X325527D02*
X329201D01*
X321854D02*
X323323D01*
X315976D02*
X317813D01*
X310466D02*
X312302D01*
X303853D02*
X305690D01*
X298710D02*
X300914D01*
X292832D02*
X294669D01*
X284750D02*
X289893D01*
X277403D02*
X279240D01*
X270791D02*
X272628D01*
X264546D02*
X266750D01*
X255729D02*
X257933D01*
X679295Y565820D02*
X682969D01*
X660193D02*
X667172D01*
X641825D02*
X650641D01*
X536025D02*
X641457D01*
X519126D02*
X532351D01*
X502962D02*
X514351D01*
X486431D02*
X495983D01*
X470267D02*
X477615D01*
X454471D02*
X459247D01*
X438307D02*
X440511D01*
X387611D02*
X389815D01*
X384305D02*
X384672D01*
X371080D02*
X374019D01*
X360059D02*
X362263D01*
X351977D02*
X354182D01*
X337283D02*
X340222D01*
X326629D02*
X328466D01*
X292832D02*
X295037D01*
X285853D02*
X288791D01*
X264178D02*
X266750D01*
X256096D02*
X257933D01*
X679295Y566187D02*
X682969D01*
X660193D02*
X667172D01*
X641825D02*
X650641D01*
X536025D02*
X641457D01*
X519126D02*
X532351D01*
X502962D02*
X514351D01*
X486431D02*
X495983D01*
X470267D02*
X477615D01*
X454471D02*
X459247D01*
X438307D02*
X440511D01*
X387611D02*
X389815D01*
X384305D02*
X385407D01*
X371080D02*
X374019D01*
X360059D02*
X362263D01*
X351977D02*
X354182D01*
X292832D02*
X295037D01*
X264178D02*
X266750D01*
X256096D02*
X258300D01*
X679663Y566555D02*
X682234D01*
X660927D02*
X666805D01*
X642559D02*
X650641D01*
X536392D02*
X641825D01*
X533453D02*
X534923D01*
X519861D02*
X531617D01*
X503697D02*
X513248D01*
X487533D02*
X495615D01*
X471002D02*
X477247D01*
X454838D02*
X458879D01*
X438674D02*
X439776D01*
X387611D02*
X389815D01*
X384305D02*
X386142D01*
X371080D02*
X374019D01*
X360427D02*
X362631D01*
X351977D02*
X354182D01*
X292832D02*
X295037D01*
X263811D02*
X266750D01*
X256096D02*
X258300D01*
X679663Y566922D02*
X682234D01*
X661295D02*
X666070D01*
X642927D02*
X649906D01*
X537127D02*
X641825D01*
X533453D02*
X535290D01*
X520228D02*
X531249D01*
X516555D02*
X517657D01*
X504064D02*
X512881D01*
X487533D02*
X494880D01*
X471002D02*
X476512D01*
X454838D02*
X457777D01*
X387611D02*
X389815D01*
X384672D02*
X386877D01*
X371080D02*
X374019D01*
X360794D02*
X362998D01*
X351610D02*
X354182D01*
X293200D02*
X295037D01*
X263444D02*
X266382D01*
X256096D02*
X258300D01*
X679663Y567289D02*
X682234D01*
X661295D02*
X666070D01*
X642927D02*
X649906D01*
X537127D02*
X641825D01*
X533453D02*
X535290D01*
X520228D02*
X531249D01*
X516555D02*
X517657D01*
X504064D02*
X512881D01*
X487533D02*
X494880D01*
X471002D02*
X476512D01*
X454838D02*
X457777D01*
X385040D02*
X389815D01*
X370713D02*
X374019D01*
X365937D02*
X367039D01*
X360794D02*
X362998D01*
X351610D02*
X354182D01*
X293200D02*
X295037D01*
X263076D02*
X266382D01*
X256096D02*
X258300D01*
X680397Y567657D02*
X681867D01*
X662029D02*
X665703D01*
X643661D02*
X649539D01*
X537494D02*
X642559D01*
X532719D02*
X536025D01*
X521330D02*
X530514D01*
X516187D02*
X518024D01*
X504799D02*
X512881D01*
X499289D02*
X499656D01*
X488635D02*
X493778D01*
X471737D02*
X475410D01*
X455573D02*
X457042D01*
X385774D02*
X390183D01*
X370345D02*
X374019D01*
X366304D02*
X368141D01*
X361161D02*
X363366D01*
X351610D02*
X353814D01*
X293200D02*
X295404D01*
X262341D02*
X266015D01*
X256464D02*
X258300D01*
X662397Y568024D02*
X664968D01*
X644029D02*
X648804D01*
X538229D02*
X642927D01*
X532351D02*
X536392D01*
X522065D02*
X530147D01*
X515453D02*
X518759D01*
X505167D02*
X511779D01*
X499289D02*
X500391D01*
X488635D02*
X493411D01*
X472104D02*
X475410D01*
X455940D02*
X456675D01*
X386142D02*
X390183D01*
X366304D02*
X374019D01*
X361161D02*
X363366D01*
X351610D02*
X353814D01*
X316343D02*
X318180D01*
X293200D02*
X295404D01*
X256464D02*
X265648D01*
X662397Y568391D02*
X664968D01*
X644029D02*
X648804D01*
X538229D02*
X642927D01*
X532351D02*
X536392D01*
X522065D02*
X530147D01*
X515453D02*
X518759D01*
X505167D02*
X511779D01*
X499289D02*
X500391D01*
X488635D02*
X493411D01*
X472104D02*
X475410D01*
X455940D02*
X456675D01*
X386877D02*
X390183D01*
X366304D02*
X373652D01*
X361529D02*
X363733D01*
X351610D02*
X353814D01*
X316343D02*
X318915D01*
X293567D02*
X295404D01*
X256464D02*
X264913D01*
X663131Y568759D02*
X664601D01*
X654682D02*
X655417D01*
X644763D02*
X648437D01*
X538596D02*
X643661D01*
X531617D02*
X537127D01*
X522065D02*
X529412D01*
X515085D02*
X519126D01*
X505901D02*
X511044D01*
X498187D02*
X501493D01*
X489370D02*
X493411D01*
X482023D02*
X482390D01*
X472839D02*
X474308D01*
X387611D02*
X390183D01*
X366672D02*
X373284D01*
X361529D02*
X363733D01*
X351610D02*
X353814D01*
X316343D02*
X318915D01*
X293567D02*
X295404D01*
X256464D02*
X264178D01*
X663499Y569126D02*
X663866D01*
X654315D02*
X655784D01*
X645131D02*
X647702D01*
X539331D02*
X644029D01*
X531249D02*
X537494D01*
X522433D02*
X529045D01*
X514351D02*
X519861D01*
X506269D02*
X510677D01*
X497819D02*
X501860D01*
X489370D02*
X492309D01*
X481288D02*
X483125D01*
X473206D02*
X473941D01*
X388346D02*
X390183D01*
X367407D02*
X372917D01*
X361896D02*
X363733D01*
X351610D02*
X353814D01*
X316343D02*
X318915D01*
X293567D02*
X295404D01*
X256831D02*
X263076D01*
X663499Y569493D02*
X663866D01*
X654315D02*
X655784D01*
X645131D02*
X647702D01*
X539331D02*
X644029D01*
X531249D02*
X537494D01*
X522433D02*
X529045D01*
X514351D02*
X519861D01*
X506269D02*
X510677D01*
X497819D02*
X501860D01*
X489370D02*
X492309D01*
X481288D02*
X483125D01*
X473206D02*
X473941D01*
X368876D02*
X371815D01*
X316711D02*
X318915D01*
X293567D02*
X295771D01*
X672316Y569861D02*
X672683D01*
X653948D02*
X656519D01*
X645498D02*
X647335D01*
X539698D02*
X644029D01*
X530514D02*
X538229D01*
X523167D02*
X528310D01*
X513983D02*
X520228D01*
X507003D02*
X509942D01*
X497085D02*
X501860D01*
X490472D02*
X491574D01*
X480921D02*
X483492D01*
X464757D02*
X465124D01*
X317078D02*
X318915D01*
X293567D02*
X295771D01*
X671581Y570228D02*
X673050D01*
X653213D02*
X656886D01*
X646233D02*
X646600D01*
X540433D02*
X644763D01*
X530147D02*
X538596D01*
X523535D02*
X527943D01*
X513248D02*
X520963D01*
X507371D02*
X509575D01*
X497085D02*
X502595D01*
X480921D02*
X484594D01*
X464757D02*
X465859D01*
X293934D02*
X295771D01*
X671581Y570596D02*
X673050D01*
X653213D02*
X656886D01*
X646233D02*
X646600D01*
X545576D02*
X644763D01*
X540433D02*
X545209D01*
X530147D02*
X538596D01*
X523535D02*
X527943D01*
X513248D02*
X520963D01*
X507371D02*
X509575D01*
X497085D02*
X502595D01*
X480921D02*
X484594D01*
X464757D02*
X465859D01*
X671213Y570963D02*
X673785D01*
X652845D02*
X657621D01*
X545576D02*
X644763D01*
X540801D02*
X545209D01*
X529412D02*
X539331D01*
X524269D02*
X526841D01*
X512881D02*
X521330D01*
X507738D02*
X508840D01*
X496717D02*
X502962D01*
X479819D02*
X484594D01*
X464022D02*
X466226D01*
X689581Y571330D02*
X690316D01*
X670479D02*
X674152D01*
X652111D02*
X657988D01*
X545576D02*
X645131D01*
X541535D02*
X544474D01*
X529045D02*
X539698D01*
X524637D02*
X526841D01*
X512146D02*
X522065D01*
X507738D02*
X508473D01*
X495983D02*
X503697D01*
X479819D02*
X485696D01*
X463655D02*
X466961D01*
X447491D02*
X448593D01*
X689581Y571698D02*
X690316D01*
X670479D02*
X674152D01*
X652111D02*
X657988D01*
X545576D02*
X645131D01*
X541535D02*
X544474D01*
X529045D02*
X539698D01*
X524637D02*
X526841D01*
X512146D02*
X522065D01*
X507738D02*
X508473D01*
X495983D02*
X503697D01*
X479819D02*
X485696D01*
X463655D02*
X466961D01*
X447491D02*
X448593D01*
X688847Y572065D02*
X691051D01*
X670111D02*
X674887D01*
X651743D02*
X658723D01*
X545209D02*
X645131D01*
X541903D02*
X544107D01*
X528310D02*
X540433D01*
X525371D02*
X525739D01*
X511779D02*
X522433D01*
X495615D02*
X504799D01*
X479451D02*
X486431D01*
X462920D02*
X467328D01*
X446756D02*
X448960D01*
X687745Y572432D02*
X691418D01*
X669009D02*
X675254D01*
X650641D02*
X659090D01*
X544474D02*
X644763D01*
X542637D02*
X543739D01*
X527943D02*
X540801D01*
X511044D02*
X523167D01*
X494880D02*
X505167D01*
X478717D02*
X486799D01*
X462553D02*
X468063D01*
X446389D02*
X449695D01*
X687745Y572800D02*
X691418D01*
X669009D02*
X675254D01*
X650641D02*
X659090D01*
X544474D02*
X644763D01*
X542637D02*
X543739D01*
X527943D02*
X540801D01*
X511044D02*
X523167D01*
X494880D02*
X505167D01*
X478717D02*
X486799D01*
X462553D02*
X468063D01*
X446389D02*
X449695D01*
X687377Y573167D02*
X692153D01*
X669009D02*
X675989D01*
X649906D02*
X659825D01*
X544107D02*
X644763D01*
X527208D02*
X541903D01*
X510677D02*
X523535D01*
X494513D02*
X505167D01*
X478349D02*
X487533D01*
X461818D02*
X468431D01*
X445654D02*
X450062D01*
X547413Y573534D02*
X642927D01*
X548148Y573902D02*
X642927D01*
X616844Y574269D02*
X642927D01*
M02*
