G04 Layer_Color=8388736*
%FSLAX44Y44*%
%MOMM*%
G71*
G01*
G75*
%ADD24C,0.2540*%
%ADD75C,0.1524*%
D24*
X731268Y395202D02*
Y412750D01*
Y555454D02*
Y573002D01*
X726189Y410442D02*
X731268Y395202D01*
X736348Y410442D01*
X726189Y557762D02*
X731268Y573002D01*
X736348Y557762D01*
X728728Y395202D02*
X733809D01*
X728728Y573002D02*
X733809D01*
X209321Y586740D02*
X372921D01*
X533400D02*
X697001D01*
X209321D02*
X224561Y591820D01*
X209321Y586740D02*
X224561Y581660D01*
X681761Y591820D02*
X697001Y586740D01*
X681761Y581660D02*
X697001Y586740D01*
X209321Y584200D02*
Y589280D01*
X697001Y584200D02*
Y589280D01*
X171450Y177800D02*
X172720Y176530D01*
X210820Y396240D02*
Y571500D01*
X695960D01*
X210820Y396240D02*
X695960D01*
Y571500D01*
D75*
X740410Y415290D02*
Y420368D01*
Y417829D01*
X725175D01*
X727714Y415290D01*
X725175Y427986D02*
Y438143D01*
X727714D01*
X737871Y427986D01*
X740410D01*
Y443221D02*
X737871D01*
Y445760D01*
X740410D01*
Y443221D01*
X725175Y455917D02*
Y466074D01*
X727714D01*
X737871Y455917D01*
X740410D01*
X727714Y471152D02*
X725175Y473691D01*
Y478769D01*
X727714Y481309D01*
X730253D01*
X732793Y478769D01*
X735332Y481309D01*
X737871D01*
X740410Y478769D01*
Y473691D01*
X737871Y471152D01*
X735332D01*
X732793Y473691D01*
X730253Y471152D01*
X727714D01*
X732793Y473691D02*
Y478769D01*
X740410Y506700D02*
X735332Y501622D01*
X730253D01*
X725175Y506700D01*
X740410Y514318D02*
X730253D01*
Y516857D01*
X732793Y519396D01*
X740410D01*
X732793D01*
X730253Y521936D01*
X732793Y524475D01*
X740410D01*
Y529553D02*
X730253D01*
Y532092D01*
X732793Y534631D01*
X740410D01*
X732793D01*
X730253Y537171D01*
X732793Y539710D01*
X740410D01*
Y544788D02*
X735332Y549866D01*
X730253D01*
X725175Y544788D01*
X383079Y577598D02*
Y592834D01*
X375461Y585216D01*
X385618D01*
X390696Y590294D02*
X393236Y592834D01*
X398314D01*
X400853Y590294D01*
Y587755D01*
X398314Y585216D01*
X400853Y582677D01*
Y580138D01*
X398314Y577598D01*
X393236D01*
X390696Y580138D01*
Y582677D01*
X393236Y585216D01*
X390696Y587755D01*
Y590294D01*
X393236Y585216D02*
X398314D01*
X405931Y577598D02*
Y580138D01*
X408471D01*
Y577598D01*
X405931D01*
X418627Y592834D02*
X428784D01*
Y590294D01*
X418627Y580138D01*
Y577598D01*
X444019Y592834D02*
X438941Y590294D01*
X433862Y585216D01*
Y580138D01*
X436402Y577598D01*
X441480D01*
X444019Y580138D01*
Y582677D01*
X441480Y585216D01*
X433862D01*
X449098Y590294D02*
X451637Y592834D01*
X456715D01*
X459254Y590294D01*
Y587755D01*
X456715Y585216D01*
X459254Y582677D01*
Y580138D01*
X456715Y577598D01*
X451637D01*
X449098Y580138D01*
Y582677D01*
X451637Y585216D01*
X449098Y587755D01*
Y590294D01*
X451637Y585216D02*
X456715D01*
X484646Y577598D02*
X479568Y582677D01*
Y587755D01*
X484646Y592834D01*
X492263Y577598D02*
Y587755D01*
X494803D01*
X497342Y585216D01*
Y577598D01*
Y585216D01*
X499881Y587755D01*
X502420Y585216D01*
Y577598D01*
X507499D02*
Y587755D01*
X510038D01*
X512577Y585216D01*
Y577598D01*
Y585216D01*
X515116Y587755D01*
X517655Y585216D01*
Y577598D01*
X522734D02*
X527812Y582677D01*
Y587755D01*
X522734Y592834D01*
M02*
