G04 Layer_Physical_Order=2*
G04 Layer_Color=16711680*
%FSLAX44Y44*%
%MOMM*%
G71*
G01*
G75*
%ADD17R,2.0000X2.0000*%
%ADD23C,0.2540*%
%ADD24C,1.2499*%
%ADD25C,0.8001*%
%ADD26C,1.1001*%
%ADD27O,3.5560X1.7780*%
%ADD28C,1.2002*%
%ADD29C,1.1000*%
%ADD30C,0.5000*%
G04:AMPARAMS|DCode=31|XSize=0.4mm|YSize=2mm|CornerRadius=0mm|HoleSize=0mm|Usage=FLASHONLY|Rotation=225.000|XOffset=0mm|YOffset=0mm|HoleType=Round|Shape=Rectangle|*
%AMROTATEDRECTD31*
4,1,4,-0.5657,0.8485,0.8485,-0.5657,0.5657,-0.8485,-0.8485,0.5657,-0.5657,0.8485,0.0*
%
%ADD31ROTATEDRECTD31*%

G04:AMPARAMS|DCode=32|XSize=0.95mm|YSize=1mm|CornerRadius=0mm|HoleSize=0mm|Usage=FLASHONLY|Rotation=135.000|XOffset=0mm|YOffset=0mm|HoleType=Round|Shape=Rectangle|*
%AMROTATEDRECTD32*
4,1,4,0.6894,0.0177,-0.0177,-0.6894,-0.6894,-0.0177,0.0177,0.6894,0.6894,0.0177,0.0*
%
%ADD32ROTATEDRECTD32*%

G04:AMPARAMS|DCode=33|XSize=0.508mm|YSize=1.4732mm|CornerRadius=0mm|HoleSize=0mm|Usage=FLASHONLY|Rotation=225.000|XOffset=0mm|YOffset=0mm|HoleType=Round|Shape=Rectangle|*
%AMROTATEDRECTD33*
4,1,4,-0.3412,0.7005,0.7005,-0.3412,0.3412,-0.7005,-0.7005,0.3412,-0.3412,0.7005,0.0*
%
%ADD33ROTATEDRECTD33*%

G04:AMPARAMS|DCode=34|XSize=0.508mm|YSize=1.4732mm|CornerRadius=0mm|HoleSize=0mm|Usage=FLASHONLY|Rotation=135.000|XOffset=0mm|YOffset=0mm|HoleType=Round|Shape=Rectangle|*
%AMROTATEDRECTD34*
4,1,4,0.7005,0.3412,-0.3412,-0.7005,-0.7005,-0.3412,0.3412,0.7005,0.7005,0.3412,0.0*
%
%ADD34ROTATEDRECTD34*%

G04:AMPARAMS|DCode=35|XSize=0.95mm|YSize=1mm|CornerRadius=0mm|HoleSize=0mm|Usage=FLASHONLY|Rotation=45.000|XOffset=0mm|YOffset=0mm|HoleType=Round|Shape=Rectangle|*
%AMROTATEDRECTD35*
4,1,4,0.0177,-0.6894,-0.6894,0.0177,-0.0177,0.6894,0.6894,-0.0177,0.0177,-0.6894,0.0*
%
%ADD35ROTATEDRECTD35*%

%ADD36R,2.4400X1.1300*%
G36*
X597861Y522568D02*
Y510263D01*
X596591Y509584D01*
X595818Y510100D01*
X595122Y510239D01*
Y505353D01*
Y500467D01*
X595818Y500605D01*
X596591Y501122D01*
X597861Y500443D01*
Y479208D01*
X566002Y447349D01*
X552509D01*
Y450150D01*
X552026Y451316D01*
X550860Y451800D01*
X526460D01*
X525293Y451316D01*
X524810Y450150D01*
Y439680D01*
X523540Y439154D01*
X515167Y447527D01*
Y464828D01*
X515167Y464828D01*
X514950Y465918D01*
X514332Y466842D01*
X514332Y466843D01*
X512698Y468477D01*
X513053Y469335D01*
X513430Y469899D01*
X516959D01*
X516959Y469899D01*
X518049Y470115D01*
X518974Y470733D01*
X523540Y475300D01*
X524810Y474773D01*
Y464250D01*
X525293Y463084D01*
X526460Y462600D01*
X550860D01*
X552026Y463084D01*
X552509Y464250D01*
Y467051D01*
X571500D01*
X571500Y467051D01*
X572590Y467268D01*
X573514Y467886D01*
X586214Y480586D01*
X586214Y480586D01*
X586832Y481510D01*
X587049Y482600D01*
X587049Y482600D01*
Y490220D01*
X586832Y491310D01*
X586214Y492234D01*
X585290Y492852D01*
X584200Y493069D01*
X557530D01*
X557530Y493069D01*
X556440Y492852D01*
X555516Y492234D01*
X553779Y490498D01*
X552509Y491024D01*
Y500950D01*
X552026Y502116D01*
X550860Y502600D01*
X526460D01*
X525293Y502116D01*
X524810Y500950D01*
Y498083D01*
X524053Y497932D01*
X523129Y497314D01*
X523129Y497314D01*
X516398Y490583D01*
X506363D01*
X505877Y491756D01*
X507128Y493007D01*
X503501Y496635D01*
X504399Y497533D01*
X503501Y498431D01*
X510541Y505471D01*
X509642Y506368D01*
X508802Y506930D01*
X507811Y507127D01*
X507275Y507020D01*
X507002Y507679D01*
X503410Y511271D01*
X502806Y511521D01*
X502037Y512054D01*
X501505Y512823D01*
X501382Y513118D01*
X502853Y514589D01*
X523722D01*
X523722Y514589D01*
X524812Y514806D01*
X524926Y514771D01*
X525293Y513884D01*
X526460Y513400D01*
X550860D01*
X552026Y513884D01*
X552509Y515050D01*
Y526350D01*
X552026Y527516D01*
X550860Y528000D01*
X528636D01*
X528000Y529270D01*
X528389Y529789D01*
X590640D01*
X597861Y522568D01*
D02*
G37*
G36*
X697230Y396240D02*
X413626D01*
X413443Y396474D01*
X413494Y398036D01*
X416034Y400576D01*
X416034Y400576D01*
X416652Y401500D01*
X416869Y402590D01*
Y405130D01*
X416869Y405130D01*
X416652Y406220D01*
X416034Y407144D01*
X416034Y407144D01*
X413313Y409866D01*
Y411114D01*
X414583Y412175D01*
X414903Y412117D01*
X415046Y411772D01*
X418638Y408180D01*
X419805Y407697D01*
X420971Y408180D01*
X426294Y413503D01*
X430586D01*
X430586Y413502D01*
X431677Y413719D01*
X432601Y414337D01*
X438175Y419911D01*
X439488Y419428D01*
X439832Y418597D01*
X450249Y408180D01*
X451415Y407697D01*
X452273Y408052D01*
X456702Y403624D01*
X457626Y403006D01*
X458716Y402789D01*
X458716Y402789D01*
X501396D01*
X501396Y402789D01*
X502486Y403006D01*
X503410Y403624D01*
X514332Y414546D01*
X514332Y414546D01*
X514950Y415470D01*
X515167Y416560D01*
X515167Y416560D01*
Y437810D01*
X516340Y438296D01*
X522311Y432326D01*
X523235Y431708D01*
X522976Y430470D01*
X522478Y430569D01*
X520908Y430257D01*
X519577Y429367D01*
X518688Y428036D01*
X518375Y426466D01*
X518688Y424896D01*
X519577Y423565D01*
X520908Y422676D01*
X522478Y422363D01*
X522540Y422375D01*
X530578Y414337D01*
X530578Y414337D01*
X531503Y413719D01*
X532593Y413502D01*
X532593Y413503D01*
X646729D01*
X646729Y413502D01*
X647819Y413719D01*
X648744Y414337D01*
X664192Y429786D01*
X664810Y430710D01*
X665027Y431800D01*
X665027Y431800D01*
Y536702D01*
X665027Y536702D01*
X664810Y537792D01*
X664192Y538716D01*
X664192Y538716D01*
X633966Y568942D01*
X633042Y569560D01*
X631952Y569777D01*
X631952Y569777D01*
X294386D01*
X294386Y569777D01*
X293296Y569560D01*
X292372Y568942D01*
X292372Y568942D01*
X274084Y550654D01*
X273466Y549730D01*
X273249Y548640D01*
X273249Y548640D01*
Y424830D01*
X273197Y424795D01*
X272307Y423464D01*
X271995Y421894D01*
X272307Y420324D01*
X273197Y418993D01*
X274528Y418103D01*
X276098Y417791D01*
X276970Y417965D01*
X278240Y417075D01*
Y410210D01*
X290830D01*
Y407670D01*
X278240D01*
Y398940D01*
X278437Y397949D01*
X278731Y397510D01*
X278202Y396276D01*
X278168Y396240D01*
X210820D01*
Y572770D01*
X697230D01*
Y396240D01*
D02*
G37*
G36*
X399796Y480275D02*
X399858Y480288D01*
X422093Y458052D01*
Y444264D01*
X420823Y443535D01*
X419608Y443777D01*
X418038Y443465D01*
X416707Y442575D01*
X416672Y442523D01*
X410156D01*
X409984Y443385D01*
X409423Y444225D01*
X408525Y445123D01*
X401485Y438084D01*
X394445Y431044D01*
X395343Y430146D01*
X396183Y429584D01*
X397174Y429387D01*
X397808Y429513D01*
X398163Y428655D01*
X401756Y425063D01*
X402922Y424580D01*
X403248Y424254D01*
X403731Y423088D01*
X407323Y419495D01*
X408490Y419012D01*
X409229Y417944D01*
X409351Y417649D01*
X408450Y416748D01*
X407832Y415823D01*
X407615Y414733D01*
X407615Y414733D01*
Y409955D01*
X406375Y408738D01*
X406134Y408742D01*
X406047Y408872D01*
X404380Y409986D01*
X403683Y410124D01*
Y405238D01*
X402413D01*
Y403968D01*
X397439D01*
X396574Y402793D01*
X379626D01*
X379140Y403966D01*
X379812Y404639D01*
X374445Y410005D01*
X369079Y415372D01*
X366618Y412911D01*
X366057Y412071D01*
X365859Y411080D01*
X365915Y410800D01*
X364745Y410174D01*
X363964Y410954D01*
X363040Y411572D01*
X361950Y411789D01*
X361950Y411789D01*
X353280D01*
Y418415D01*
X354549Y418941D01*
X354638Y418852D01*
X355479Y418291D01*
X356470Y418093D01*
X357461Y418291D01*
X358301Y418852D01*
X360762Y421313D01*
X356293Y425781D01*
X351107Y420596D01*
X351105Y420590D01*
X331630D01*
X330464Y420106D01*
X329980Y418940D01*
Y398940D01*
X330464Y397774D01*
X331100Y397510D01*
X330847Y396240D01*
X327013D01*
X326760Y397510D01*
X327396Y397774D01*
X327880Y398940D01*
Y418940D01*
X327396Y420106D01*
X326230Y420590D01*
X308609D01*
X303985Y425214D01*
X303061Y425831D01*
X301970Y426048D01*
X301970Y426048D01*
X300639D01*
X299960Y427318D01*
X300208Y427690D01*
X300521Y429260D01*
X300508Y429322D01*
X303512Y432326D01*
X303512Y432326D01*
X304130Y433250D01*
X304347Y434340D01*
X304347Y434340D01*
Y466942D01*
X309778Y472374D01*
X310981Y471780D01*
X310942Y471480D01*
X311200Y469515D01*
X311958Y467685D01*
X313165Y466113D01*
X314736Y464907D01*
X316567Y464149D01*
X318531Y463890D01*
X320496Y464149D01*
X322326Y464907D01*
X323898Y466113D01*
X325104Y467685D01*
X325862Y469515D01*
X326121Y471480D01*
X325862Y473444D01*
X325104Y475275D01*
X323898Y476847D01*
X323092Y477465D01*
X323523Y478735D01*
X362040D01*
X363767Y477008D01*
Y475618D01*
X358650Y470501D01*
X358167Y469335D01*
X358650Y468168D01*
X362242Y464576D01*
X362629Y464416D01*
X363529Y463888D01*
X364058Y462987D01*
X364218Y462601D01*
X367810Y459009D01*
X368976Y458526D01*
X369715Y457457D01*
X369965Y456853D01*
X373558Y453261D01*
X374724Y452778D01*
X375373Y451672D01*
X375533Y451286D01*
X379125Y447693D01*
X380292Y447210D01*
X381031Y446142D01*
X381235Y445647D01*
X377328Y441740D01*
X373809D01*
X368597Y446952D01*
X367430Y447435D01*
X366264Y446952D01*
X361052Y441740D01*
X357563D01*
X350715Y448588D01*
X350710Y448610D01*
X349821Y449941D01*
X348490Y450830D01*
X346920Y451143D01*
X345350Y450830D01*
X344019Y449941D01*
X343129Y448610D01*
X342817Y447040D01*
X343129Y445470D01*
X344019Y444139D01*
X345350Y443250D01*
X346920Y442937D01*
X348078Y443167D01*
X353763Y437482D01*
X354180Y436540D01*
X353747Y435765D01*
X351824Y433842D01*
X356293Y429374D01*
X360585Y433666D01*
X359381Y434869D01*
X359867Y436042D01*
X361405D01*
X366617Y430830D01*
X367784Y430347D01*
X368950Y430830D01*
X370397Y432278D01*
X373607Y429068D01*
X373595Y429006D01*
X373908Y427436D01*
X374797Y426105D01*
X376128Y425215D01*
X377698Y424903D01*
X378254Y425014D01*
X378879Y423843D01*
X378596Y423560D01*
X378113Y422394D01*
X378596Y421227D01*
X385667Y414156D01*
X386834Y413673D01*
X388000Y414156D01*
X394718Y420874D01*
X395201Y422040D01*
X394718Y423207D01*
X389506Y428419D01*
Y434010D01*
X389943Y434334D01*
X390133Y434371D01*
X391575Y434002D01*
X391751Y433738D01*
X392649Y432840D01*
X399689Y439880D01*
X406729Y446919D01*
X405831Y447817D01*
X404991Y448379D01*
X403999Y448576D01*
X403463Y448469D01*
X403190Y449128D01*
X399598Y452720D01*
X398432Y453204D01*
X397783Y454309D01*
X397623Y454696D01*
X394030Y458288D01*
X392864Y458771D01*
X392125Y459840D01*
X391875Y460443D01*
X388283Y464035D01*
X387896Y464196D01*
X387056Y464689D01*
X386685Y465952D01*
X396516Y475783D01*
X396516Y475783D01*
X397133Y476707D01*
X397350Y477797D01*
X397350Y477798D01*
Y479761D01*
X398620Y480509D01*
X399796Y480275D01*
D02*
G37*
G36*
X506769Y461038D02*
X507667Y461936D01*
X508199Y462733D01*
X508318Y462758D01*
X509469Y462521D01*
Y446347D01*
X509469Y446347D01*
X509469Y446347D01*
Y417740D01*
X508362Y416633D01*
X507466Y416721D01*
X505005Y419182D01*
X499639Y413815D01*
X498741Y414713D01*
X497843Y413815D01*
X492653Y419005D01*
X490015Y416367D01*
X489454Y415527D01*
X489257Y414536D01*
X489454Y413545D01*
X490015Y412705D01*
X493060Y409660D01*
X492574Y408487D01*
X459896D01*
X457292Y411091D01*
X457710Y412469D01*
X457974Y412522D01*
X458814Y413083D01*
X459712Y413981D01*
X452672Y421021D01*
X454468Y422817D01*
X461508Y415777D01*
X462406Y416675D01*
X462968Y417515D01*
X463080Y418080D01*
X464233Y418571D01*
X464376Y418580D01*
X464600Y418356D01*
X465524Y417738D01*
X466614Y417521D01*
X466614Y417521D01*
X473710D01*
X473710Y417521D01*
X474800Y417738D01*
X475724Y418356D01*
X479879Y422510D01*
X481540D01*
X486084Y417966D01*
X487250Y417483D01*
X488417Y417966D01*
X495488Y425037D01*
X495971Y426204D01*
X495488Y427370D01*
X488770Y434088D01*
X487604Y434571D01*
X486437Y434088D01*
X481225Y428876D01*
X479367D01*
X479367Y428876D01*
X478277Y428659D01*
X477353Y428041D01*
X477353Y428041D01*
X472530Y423219D01*
X469848D01*
X468793Y424437D01*
X468842Y424765D01*
X469078Y424903D01*
X469464Y425063D01*
X473057Y428655D01*
X473307Y429259D01*
X473839Y430028D01*
X474608Y430560D01*
X475212Y430811D01*
X478804Y434403D01*
X478964Y434789D01*
X479493Y435690D01*
X480393Y436218D01*
X480780Y436378D01*
X484372Y439970D01*
X484532Y440357D01*
X485060Y441257D01*
X485961Y441786D01*
X486347Y441946D01*
X489939Y445538D01*
X490190Y446142D01*
X490722Y446911D01*
X491491Y447443D01*
X492095Y447693D01*
X495687Y451286D01*
X495847Y451672D01*
X496376Y452573D01*
X497276Y453101D01*
X497663Y453261D01*
X501255Y456853D01*
X501610Y457711D01*
X502244Y457585D01*
X503235Y457782D01*
X504075Y458344D01*
X504973Y459242D01*
X497933Y466282D01*
X499729Y468078D01*
X506769Y461038D01*
D02*
G37*
G36*
X411970Y479430D02*
X411971Y479430D01*
X412895Y478812D01*
X413985Y478596D01*
X413985Y478596D01*
X454651D01*
X454651Y478596D01*
X455741Y478812D01*
X456665Y479430D01*
X459494Y482259D01*
X459556Y482247D01*
X461126Y482559D01*
X461209Y482615D01*
X462479Y481936D01*
Y474004D01*
X462696Y472914D01*
X463314Y471989D01*
X464238Y471372D01*
X465328Y471155D01*
X475996D01*
X477086Y471372D01*
X478010Y471989D01*
X478628Y472914D01*
X478845Y474004D01*
Y476340D01*
X480224Y477719D01*
X489727D01*
X491611Y475835D01*
X491869Y474297D01*
X489995Y472423D01*
X489434Y471583D01*
X489237Y470592D01*
X489363Y469959D01*
X488505Y469603D01*
X484913Y466011D01*
X484429Y464845D01*
X483324Y464196D01*
X482937Y464035D01*
X479345Y460443D01*
X479095Y459840D01*
X478563Y459070D01*
X477793Y458538D01*
X477189Y458288D01*
X473597Y454696D01*
X473437Y454309D01*
X472909Y453409D01*
X472008Y452880D01*
X471622Y452720D01*
X468030Y449128D01*
X467870Y448742D01*
X467341Y447841D01*
X466441Y447313D01*
X466054Y447153D01*
X462462Y443560D01*
X461274Y444012D01*
X461319Y444235D01*
Y452002D01*
X461371Y452037D01*
X462261Y453368D01*
X462573Y454938D01*
X462261Y456508D01*
X461371Y457840D01*
X460965Y458111D01*
Y459638D01*
X461586Y460052D01*
X462475Y461384D01*
X462787Y462954D01*
X462475Y464524D01*
X461586Y465855D01*
X460255Y466744D01*
X458684Y467056D01*
X457114Y466744D01*
X455783Y465855D01*
X454894Y464524D01*
X454581Y462954D01*
X454594Y462892D01*
X429100Y437398D01*
X429061Y437339D01*
X427791Y437725D01*
Y459232D01*
X427574Y460322D01*
X426956Y461246D01*
X426956Y461246D01*
X403886Y484316D01*
X403899Y484378D01*
X403599Y485887D01*
X403591Y486013D01*
X403802Y486202D01*
X404898Y486502D01*
X411970Y479430D01*
D02*
G37*
G36*
X659329Y535522D02*
Y522544D01*
X659164Y522406D01*
X658059Y521982D01*
X656326Y523140D01*
X656004Y523204D01*
X655731Y523387D01*
X653292Y523872D01*
X652971Y523808D01*
X652649Y523872D01*
X650210Y523387D01*
X649937Y523204D01*
X649615Y523140D01*
X647548Y521759D01*
X647366Y521486D01*
X647093Y521304D01*
X646485Y520393D01*
X645215Y520779D01*
Y545008D01*
X644998Y546099D01*
X644380Y547023D01*
X644380Y547023D01*
X634145Y557258D01*
X633220Y557876D01*
X632130Y558093D01*
X632130Y558093D01*
X524310D01*
X523515Y559363D01*
X523554Y559562D01*
X513782D01*
X513821Y559363D01*
X513026Y558093D01*
X460453D01*
X460453Y558093D01*
X459363Y557876D01*
X458829Y557519D01*
X457698Y557867D01*
X457453Y558068D01*
X457400Y558332D01*
X456838Y559173D01*
X455941Y560071D01*
X448901Y553031D01*
X441861Y545991D01*
X442759Y545093D01*
X443599Y544532D01*
X444590Y544334D01*
X445126Y544441D01*
X445399Y543782D01*
X448991Y540190D01*
X449595Y539940D01*
X450365Y539408D01*
X450897Y538638D01*
X451147Y538035D01*
X454739Y534443D01*
X455905Y533959D01*
X456231Y533633D01*
X456715Y532467D01*
X460307Y528875D01*
X461157Y528523D01*
X461553Y527403D01*
X460099Y527075D01*
X459786Y527285D01*
X458216Y527597D01*
X456646Y527285D01*
X455315Y526395D01*
X455280Y526343D01*
X436260D01*
X436225Y526395D01*
X434894Y527285D01*
X433324Y527597D01*
X431754Y527285D01*
X430423Y526395D01*
X429534Y525064D01*
X429479Y524789D01*
X428798Y523728D01*
X428099Y523868D01*
X427228Y524041D01*
X425658Y523728D01*
X424327Y522839D01*
X423438Y521508D01*
X423125Y519938D01*
X423138Y519876D01*
X418864Y515602D01*
X418246Y514678D01*
X418029Y513588D01*
X418029Y513588D01*
Y507126D01*
X417977Y507091D01*
X417088Y505760D01*
X416775Y504190D01*
X417088Y502620D01*
X417844Y501488D01*
X417693Y500594D01*
X417486Y500089D01*
X417356Y500057D01*
X412478Y504934D01*
X411554Y505552D01*
X410464Y505769D01*
X410464Y505769D01*
X403633D01*
X403248Y507039D01*
X403430Y507160D01*
X404544Y508828D01*
X404682Y509524D01*
X399796D01*
Y512064D01*
X404682D01*
X404544Y512761D01*
X403430Y514428D01*
X401763Y515542D01*
X399796Y515933D01*
X399180Y517105D01*
X399212Y517400D01*
X399598Y517560D01*
X402419Y520381D01*
X403549Y520718D01*
X404473Y520100D01*
X405563Y519883D01*
X406766D01*
X406801Y519831D01*
X408132Y518941D01*
X409702Y518629D01*
X411272Y518941D01*
X412603Y519831D01*
X413493Y521162D01*
X413805Y522732D01*
X413493Y524302D01*
X412603Y525633D01*
X411272Y526522D01*
X410806Y526615D01*
X410017Y527918D01*
X410259Y528604D01*
X410913Y528875D01*
X411828Y529789D01*
X418958D01*
X418993Y529737D01*
X420324Y528848D01*
X421894Y528535D01*
X423464Y528848D01*
X424795Y529737D01*
X425685Y531068D01*
X425997Y532638D01*
X425685Y534208D01*
X424795Y535539D01*
X423464Y536428D01*
X421894Y536741D01*
X420324Y536428D01*
X420140Y536306D01*
X419331Y537292D01*
X420073Y538035D01*
X420323Y538638D01*
X421062Y539707D01*
X422229Y540190D01*
X425821Y543782D01*
X425981Y544169D01*
X426630Y545275D01*
X427796Y545758D01*
X431388Y549350D01*
X431871Y550516D01*
X431388Y551683D01*
X420971Y562100D01*
X419805Y562583D01*
X418638Y562100D01*
X415046Y558508D01*
X414886Y558121D01*
X414237Y557015D01*
X413071Y556532D01*
X409479Y552940D01*
X409229Y552336D01*
X408490Y551268D01*
X407323Y550785D01*
X403731Y547192D01*
X403571Y546806D01*
X402922Y545700D01*
X401756Y545217D01*
X398163Y541625D01*
X397913Y541021D01*
X397174Y539953D01*
X396008Y539469D01*
X392416Y535877D01*
X391933Y534711D01*
X390827Y534062D01*
X390749Y534030D01*
X388929Y535850D01*
Y537670D01*
X388929Y537671D01*
X388712Y538761D01*
X388094Y539685D01*
X388094Y539685D01*
X385518Y542261D01*
X385647Y542571D01*
X385650Y542578D01*
X385167Y543745D01*
X385167Y543745D01*
X371025Y557887D01*
X369865Y558367D01*
X369858Y558370D01*
X368692Y557887D01*
X368692Y557887D01*
X365864Y555059D01*
X365383Y553899D01*
X365380Y553892D01*
X365863Y552726D01*
X365864Y552726D01*
X380006Y538584D01*
X381172Y538100D01*
X381490Y538232D01*
X383231Y536491D01*
Y534670D01*
X383231Y534670D01*
X383448Y533580D01*
X384066Y532656D01*
X386503Y530219D01*
X385983Y529036D01*
X384851Y528792D01*
X384793Y528850D01*
X383869Y529468D01*
X382779Y529684D01*
X382779Y529684D01*
X377738D01*
X376647Y529468D01*
X376242Y529197D01*
X376130Y529249D01*
X375865Y530780D01*
X377346Y532262D01*
X377908Y533102D01*
X378105Y534093D01*
X377908Y535084D01*
X377346Y535924D01*
X371174Y542097D01*
X367928Y538852D01*
X364683Y535606D01*
X370440Y529850D01*
X369914Y528579D01*
X366391D01*
X354054Y540916D01*
X352895Y541397D01*
X352888Y541400D01*
X351721Y540916D01*
X351721Y540916D01*
X348893Y538088D01*
X348413Y536928D01*
X348410Y536922D01*
X348893Y535755D01*
X348893Y535755D01*
X363035Y521613D01*
X364195Y521133D01*
X364202Y521130D01*
X365368Y521613D01*
X365368Y521613D01*
X366637Y522882D01*
X376295D01*
X376780Y522045D01*
X376851Y521642D01*
X374868Y519659D01*
X374307Y518819D01*
X374110Y517828D01*
X374216Y517292D01*
X373558Y517019D01*
X369965Y513427D01*
X369715Y512823D01*
X368976Y511754D01*
X367810Y511271D01*
X364218Y507679D01*
X364058Y507293D01*
X363409Y506187D01*
X362242Y505704D01*
X358918Y502379D01*
X357383Y502118D01*
X347248Y512253D01*
X346323Y512871D01*
X345233Y513088D01*
X345233Y513088D01*
X315919D01*
X314630Y514376D01*
X315349Y515453D01*
X316567Y514949D01*
X318531Y514690D01*
X320496Y514949D01*
X322326Y515707D01*
X323898Y516913D01*
X325104Y518485D01*
X325862Y520316D01*
X326121Y522280D01*
X325862Y524244D01*
X325104Y526075D01*
X323898Y527647D01*
X322326Y528853D01*
X320496Y529611D01*
X318531Y529870D01*
X316567Y529611D01*
X314736Y528853D01*
X313165Y527647D01*
X311958Y526075D01*
X311200Y524244D01*
X310942Y522280D01*
X311200Y520316D01*
X311705Y519098D01*
X310628Y518378D01*
X304712Y524294D01*
X304168Y524658D01*
X303817Y526102D01*
X319470Y541755D01*
X319532Y541743D01*
X321102Y542056D01*
X322433Y542945D01*
X323322Y544276D01*
X323635Y545846D01*
X323322Y547416D01*
X322433Y548747D01*
X321102Y549636D01*
X319532Y549949D01*
X317962Y549636D01*
X316631Y548747D01*
X315742Y547416D01*
X315429Y545846D01*
X315441Y545784D01*
X298677Y529019D01*
X297402Y529540D01*
X297102Y531049D01*
X295988Y532716D01*
X294321Y533830D01*
X293624Y533968D01*
Y529082D01*
X292354D01*
Y527812D01*
X287468D01*
X287606Y527116D01*
X288720Y525448D01*
X290387Y524334D01*
X291896Y524034D01*
X292417Y522759D01*
X289109Y519452D01*
X288492Y518528D01*
X288275Y517438D01*
X288275Y517438D01*
Y426716D01*
X288275Y426716D01*
X288492Y425626D01*
X289109Y424702D01*
X291108Y422703D01*
X290622Y421530D01*
X281423D01*
X280201Y421894D01*
X279888Y423464D01*
X278999Y424795D01*
X278947Y424830D01*
Y547460D01*
X295566Y564079D01*
X449265D01*
X449651Y562809D01*
X449584Y562765D01*
X445273Y558454D01*
X448003Y555725D01*
X454144Y561867D01*
X453246Y562765D01*
X453180Y562809D01*
X453565Y564079D01*
X513429D01*
X514028Y562959D01*
X513920Y562799D01*
X513782Y562102D01*
X523554D01*
X523416Y562799D01*
X523308Y562959D01*
X523907Y564079D01*
X630772D01*
X659329Y535522D01*
D02*
G37*
G36*
X639517Y543828D02*
Y529057D01*
X638247Y528478D01*
X637851Y528743D01*
X636860Y528940D01*
X625930D01*
Y520700D01*
Y512460D01*
X636860D01*
X637851Y512657D01*
X638247Y512922D01*
X639517Y512343D01*
Y503657D01*
X638247Y503078D01*
X637851Y503343D01*
X636860Y503540D01*
X625930D01*
Y495300D01*
Y487060D01*
X636860D01*
X637851Y487257D01*
X638247Y487522D01*
X639517Y486943D01*
Y478257D01*
X638247Y477678D01*
X637851Y477943D01*
X636860Y478140D01*
X625930D01*
Y469900D01*
Y461660D01*
X636860D01*
X637851Y461857D01*
X638247Y462122D01*
X639517Y461543D01*
Y452857D01*
X638247Y452278D01*
X637851Y452543D01*
X636860Y452740D01*
X625930D01*
Y444500D01*
X624660D01*
Y443230D01*
X609870D01*
Y438850D01*
X609948Y438459D01*
X609104Y437189D01*
X553191D01*
X552347Y438459D01*
X552509Y438850D01*
Y441651D01*
X567182D01*
X567182Y441651D01*
X568272Y441868D01*
X569196Y442486D01*
X602724Y476014D01*
X602724Y476014D01*
X603342Y476938D01*
X603559Y478028D01*
X603559Y478028D01*
Y492581D01*
X604829Y492966D01*
X605697Y491666D01*
X607364Y490552D01*
X609331Y490161D01*
X610000Y488999D01*
X610067Y488659D01*
X610629Y487819D01*
X611469Y487257D01*
X612460Y487060D01*
X623390D01*
Y495300D01*
Y503540D01*
X612460D01*
X611469Y503343D01*
X610629Y502781D01*
X610067Y501941D01*
X610000Y501600D01*
X609331Y500439D01*
X607364Y500048D01*
X605697Y498934D01*
X604829Y497634D01*
X603559Y498019D01*
Y523748D01*
X603559Y523748D01*
X603342Y524838D01*
X602724Y525762D01*
X602724Y525762D01*
X593834Y534652D01*
X592910Y535270D01*
X591820Y535487D01*
X591820Y535487D01*
X526589D01*
X525499Y535270D01*
X524575Y534652D01*
X524575Y534652D01*
X520213Y530291D01*
X519596Y529367D01*
X519379Y528276D01*
X519379Y528276D01*
Y527208D01*
X518312Y526212D01*
X517770Y526261D01*
X516995Y527376D01*
X517183Y528320D01*
X516870Y529890D01*
X515981Y531221D01*
X514650Y532110D01*
X513939Y532252D01*
X500653Y545537D01*
X501180Y546807D01*
X530210D01*
X530245Y546755D01*
X531576Y545866D01*
X533146Y545553D01*
X534716Y545866D01*
X536047Y546755D01*
X536936Y548086D01*
X537249Y549656D01*
X536957Y551125D01*
X536984Y551426D01*
X537502Y552395D01*
X630950D01*
X639517Y543828D01*
D02*
G37*
%LPC*%
G36*
X592582Y504083D02*
X588966D01*
X589104Y503386D01*
X590218Y501719D01*
X591885Y500605D01*
X592582Y500467D01*
Y504083D01*
D02*
G37*
G36*
Y510239D02*
X591885Y510100D01*
X590218Y508986D01*
X589104Y507319D01*
X588966Y506623D01*
X592582D01*
Y510239D01*
D02*
G37*
G36*
X512337Y503674D02*
X506195Y497533D01*
X508924Y494803D01*
X513235Y499114D01*
X513796Y499954D01*
X513993Y500945D01*
X513796Y501936D01*
X513235Y502776D01*
X512337Y503674D01*
D02*
G37*
G36*
X250210Y435873D02*
X232430D01*
X229712Y435515D01*
X227178Y434465D01*
X225003Y432796D01*
X223334Y430621D01*
X222284Y428087D01*
X221926Y425369D01*
X222284Y422650D01*
X223334Y420117D01*
X225003Y417941D01*
X227178Y416272D01*
X229712Y415223D01*
X232430Y414865D01*
X250210D01*
X252929Y415223D01*
X255462Y416272D01*
X257638Y417941D01*
X259307Y420117D01*
X260356Y422650D01*
X260714Y425369D01*
X260356Y428087D01*
X259307Y430621D01*
X257638Y432796D01*
X255462Y434465D01*
X252929Y435515D01*
X250210Y435873D01*
D02*
G37*
G36*
Y552875D02*
X232430D01*
X229712Y552517D01*
X227178Y551468D01*
X225003Y549799D01*
X223334Y547623D01*
X222284Y545090D01*
X221926Y542371D01*
X222284Y539653D01*
X223334Y537119D01*
X225003Y534944D01*
X227178Y533275D01*
X229712Y532225D01*
X232430Y531867D01*
X250210D01*
X252929Y532225D01*
X255462Y533275D01*
X257638Y534944D01*
X259307Y537119D01*
X260356Y539653D01*
X260714Y542371D01*
X260356Y545090D01*
X259307Y547623D01*
X257638Y549799D01*
X255462Y551468D01*
X252929Y552517D01*
X250210Y552875D01*
D02*
G37*
G36*
X242019Y513627D02*
X241863Y513562D01*
X241697Y513595D01*
X239551Y513168D01*
X239278Y512986D01*
X238956Y512922D01*
X237137Y511706D01*
X236954Y511434D01*
X236682Y511251D01*
X235466Y509432D01*
X235402Y509110D01*
X235220Y508837D01*
X234793Y506691D01*
X234857Y506369D01*
X234793Y506048D01*
X235220Y503901D01*
X235402Y503629D01*
X235466Y503307D01*
X236682Y501487D01*
X236954Y501305D01*
X237137Y501032D01*
X238956Y499817D01*
X239278Y499753D01*
X239551Y499570D01*
X241697Y499143D01*
X241863Y499176D01*
X242019Y499112D01*
X242175Y499176D01*
X242341Y499143D01*
X244487Y499570D01*
X244760Y499753D01*
X245081Y499817D01*
X246901Y501032D01*
X247083Y501305D01*
X247356Y501487D01*
X248572Y503307D01*
X248636Y503629D01*
X248818Y503901D01*
X249245Y506048D01*
X249181Y506369D01*
X249245Y506691D01*
X248818Y508837D01*
X248636Y509110D01*
X248572Y509432D01*
X247356Y511251D01*
X247083Y511434D01*
X246901Y511706D01*
X245081Y512922D01*
X244760Y512986D01*
X244487Y513168D01*
X242341Y513595D01*
X242175Y513562D01*
X242019Y513627D01*
D02*
G37*
G36*
Y468628D02*
X241863Y468564D01*
X241697Y468597D01*
X239551Y468170D01*
X239278Y467988D01*
X238956Y467924D01*
X237137Y466708D01*
X236954Y466435D01*
X236682Y466253D01*
X235466Y464433D01*
X235402Y464112D01*
X235220Y463839D01*
X234793Y461693D01*
X234857Y461371D01*
X234793Y461049D01*
X235220Y458903D01*
X235402Y458630D01*
X235466Y458308D01*
X236682Y456489D01*
X236954Y456306D01*
X237137Y456034D01*
X238956Y454818D01*
X239278Y454754D01*
X239551Y454572D01*
X241697Y454145D01*
X241863Y454178D01*
X242019Y454113D01*
X242175Y454178D01*
X242341Y454145D01*
X244487Y454572D01*
X244760Y454754D01*
X245081Y454818D01*
X246901Y456034D01*
X247083Y456306D01*
X247356Y456489D01*
X248572Y458308D01*
X248636Y458630D01*
X248818Y458903D01*
X249245Y461049D01*
X249181Y461371D01*
X249245Y461693D01*
X248818Y463839D01*
X248636Y464112D01*
X248572Y464433D01*
X247356Y466253D01*
X247083Y466435D01*
X246901Y466708D01*
X245081Y467924D01*
X244760Y467988D01*
X244487Y468170D01*
X242341Y468597D01*
X242175Y468564D01*
X242019Y468628D01*
D02*
G37*
G36*
X381431Y415195D02*
X377140Y410903D01*
X381608Y406435D01*
X384069Y408895D01*
X384630Y409736D01*
X384827Y410727D01*
X384630Y411718D01*
X384069Y412558D01*
X381431Y415195D01*
D02*
G37*
G36*
X326978Y444810D02*
X319801D01*
Y437633D01*
X320761Y437759D01*
X322839Y438620D01*
X324623Y439989D01*
X325992Y441773D01*
X326852Y443850D01*
X326978Y444810D01*
D02*
G37*
G36*
X362381Y431870D02*
X358089Y427578D01*
X362558Y423109D01*
X365018Y425569D01*
X365580Y426410D01*
X365777Y427401D01*
X365580Y428392D01*
X365018Y429232D01*
X362381Y431870D01*
D02*
G37*
G36*
X350028Y432046D02*
X347567Y429585D01*
X347006Y428745D01*
X346809Y427754D01*
X347006Y426763D01*
X347567Y425923D01*
X350205Y423285D01*
X354497Y427578D01*
X350028Y432046D01*
D02*
G37*
G36*
X317261Y444810D02*
X310084D01*
X310210Y443850D01*
X311071Y441773D01*
X312440Y439989D01*
X314224Y438620D01*
X316302Y437759D01*
X317261Y437633D01*
Y444810D01*
D02*
G37*
G36*
X401143Y410124D02*
X400447Y409986D01*
X398780Y408872D01*
X397666Y407205D01*
X397527Y406508D01*
X401143D01*
Y410124D01*
D02*
G37*
G36*
X375167Y420387D02*
X374176Y420190D01*
X373335Y419629D01*
X370875Y417168D01*
X375343Y412700D01*
X379635Y416991D01*
X376998Y419629D01*
X376158Y420190D01*
X375167Y420387D01*
D02*
G37*
G36*
X337566Y474257D02*
X335996Y473945D01*
X334665Y473055D01*
X333775Y471724D01*
X333463Y470154D01*
X333475Y470092D01*
X323052Y459669D01*
X317008D01*
X316973Y459721D01*
X315642Y460611D01*
X314072Y460923D01*
X312502Y460611D01*
X311171Y459721D01*
X310282Y458390D01*
X309969Y456820D01*
X310282Y455250D01*
X311171Y453919D01*
X311952Y453397D01*
X312106Y453008D01*
X312215Y451963D01*
X312181Y451833D01*
X311071Y450387D01*
X310210Y448310D01*
X310084Y447350D01*
X326978D01*
X326852Y448310D01*
X325992Y450387D01*
X324623Y452171D01*
X323932Y452701D01*
X324168Y453699D01*
X324336Y453992D01*
X325322Y454188D01*
X326246Y454806D01*
X337504Y466063D01*
X337566Y466051D01*
X339136Y466363D01*
X340467Y467253D01*
X341357Y468584D01*
X341669Y470154D01*
X341357Y471724D01*
X340467Y473055D01*
X339136Y473945D01*
X337566Y474257D01*
D02*
G37*
G36*
X498917Y424197D02*
X497926Y424000D01*
X497086Y423438D01*
X494449Y420801D01*
X498741Y416509D01*
X503209Y420978D01*
X500749Y423438D01*
X499908Y424000D01*
X498917Y424197D01*
D02*
G37*
G36*
X449766Y467654D02*
X446150D01*
Y464038D01*
X446847Y464176D01*
X448514Y465290D01*
X449627Y466957D01*
X449766Y467654D01*
D02*
G37*
G36*
X443610D02*
X439994D01*
X440132Y466957D01*
X441246Y465290D01*
X442914Y464176D01*
X443610Y464038D01*
Y467654D01*
D02*
G37*
G36*
Y473810D02*
X442914Y473671D01*
X441246Y472557D01*
X440132Y470890D01*
X439994Y470194D01*
X443610D01*
Y473810D01*
D02*
G37*
G36*
X446150D02*
Y470194D01*
X449766D01*
X449627Y470890D01*
X448514Y472557D01*
X446847Y473671D01*
X446150Y473810D01*
D02*
G37*
G36*
X291084Y533968D02*
X290387Y533830D01*
X288720Y532716D01*
X287606Y531049D01*
X287468Y530352D01*
X291084D01*
Y533968D01*
D02*
G37*
G36*
X440690Y543137D02*
X440534Y543073D01*
X440368Y543106D01*
X438222Y542679D01*
X437949Y542496D01*
X437627Y542433D01*
X435808Y541217D01*
X435626Y540944D01*
X435353Y540762D01*
X434138Y538942D01*
X434074Y538621D01*
X433891Y538348D01*
X433464Y536202D01*
X433528Y535880D01*
X433464Y535558D01*
X433891Y533412D01*
X434074Y533139D01*
X434138Y532818D01*
X435353Y530998D01*
X435626Y530816D01*
X435808Y530543D01*
X437627Y529328D01*
X437949Y529264D01*
X438222Y529081D01*
X440368Y528654D01*
X440534Y528687D01*
X440690Y528623D01*
X440846Y528687D01*
X441012Y528654D01*
X443158Y529081D01*
X443431Y529264D01*
X443753Y529328D01*
X445572Y530543D01*
X445754Y530816D01*
X446027Y530998D01*
X447242Y532818D01*
X447306Y533139D01*
X447489Y533412D01*
X447916Y535558D01*
X447852Y535880D01*
X447916Y536202D01*
X447489Y538348D01*
X447306Y538621D01*
X447242Y538942D01*
X446027Y540762D01*
X445754Y540944D01*
X445572Y541217D01*
X443753Y542433D01*
X443431Y542496D01*
X443158Y542679D01*
X441012Y543106D01*
X440846Y543073D01*
X440690Y543137D01*
D02*
G37*
G36*
X443477Y556658D02*
X439167Y552347D01*
X438605Y551507D01*
X438408Y550516D01*
X438605Y549525D01*
X439167Y548685D01*
X440065Y547787D01*
X446207Y553929D01*
X443477Y556658D01*
D02*
G37*
G36*
X357230Y547754D02*
X356713Y547238D01*
X356152Y546398D01*
X355955Y545407D01*
X356152Y544416D01*
X356713Y543576D01*
X362887Y537403D01*
X365234Y539750D01*
X357230Y547754D01*
D02*
G37*
G36*
X361373Y550825D02*
X360382Y550628D01*
X359542Y550066D01*
X359026Y549550D01*
X367030Y541546D01*
X369377Y543894D01*
X363204Y550066D01*
X362364Y550628D01*
X361373Y550825D01*
D02*
G37*
G36*
X623390Y452740D02*
X612460D01*
X611469Y452543D01*
X610629Y451981D01*
X610067Y451141D01*
X609870Y450150D01*
Y445770D01*
X623390D01*
Y452740D01*
D02*
G37*
G36*
Y468630D02*
X609870D01*
Y464250D01*
X610067Y463259D01*
X610629Y462419D01*
X611469Y461857D01*
X612460Y461660D01*
X623390D01*
Y468630D01*
D02*
G37*
G36*
Y528940D02*
X612460D01*
X611469Y528743D01*
X610629Y528181D01*
X610067Y527341D01*
X609870Y526350D01*
Y521970D01*
X623390D01*
Y528940D01*
D02*
G37*
G36*
Y519430D02*
X609870D01*
Y515050D01*
X610067Y514059D01*
X610629Y513219D01*
X611469Y512657D01*
X612460Y512460D01*
X623390D01*
Y519430D01*
D02*
G37*
G36*
Y478140D02*
X612460D01*
X611469Y477943D01*
X610629Y477381D01*
X610067Y476541D01*
X609870Y475550D01*
Y471170D01*
X623390D01*
Y478140D01*
D02*
G37*
%LPD*%
D17*
X290830Y408940D02*
D03*
X316230D02*
D03*
X341630D02*
D03*
D23*
X498741Y414782D02*
X502920D01*
X397764Y508762D02*
X404219D01*
X286044Y416331D02*
X290830D01*
X428282Y428968D02*
X431114Y431800D01*
X421233Y421919D02*
X428282Y428968D01*
X367607Y439097D02*
X367813Y438891D01*
X410464Y414733D02*
X417650Y421919D01*
X410464Y408686D02*
Y414733D01*
Y408686D02*
X414020Y405130D01*
Y402590D02*
Y405130D01*
X411480Y400050D02*
X414020Y402590D01*
X404712Y400050D02*
X411480D01*
X404606Y399944D02*
X404712Y400050D01*
X370946Y399944D02*
X404606D01*
X361950Y408940D02*
X370946Y399944D01*
X341630Y408940D02*
X361950D01*
X295966Y522280D02*
X319532Y545846D01*
X291124Y517438D02*
X295966Y522280D01*
X302698D01*
X314739Y510239D01*
X345233D01*
X378988Y476484D01*
X454651Y481444D02*
X459556Y486349D01*
X413985Y481444D02*
X454651D01*
X405424Y490006D02*
X413985Y481444D01*
X394502Y490006D02*
X405424D01*
X394502Y477797D02*
Y490006D01*
X512318Y446347D02*
Y464828D01*
Y416560D02*
Y446347D01*
X524325Y434340D01*
X504399Y472747D02*
X512318Y464828D01*
X504399Y472747D02*
X516959D01*
X624660Y495300D02*
Y520700D01*
Y469900D02*
Y495300D01*
Y444500D02*
Y469900D01*
X493084Y508848D02*
X501673Y517438D01*
X523722D01*
X526984Y520700D01*
X538660D01*
X497546Y526836D02*
X501356Y523026D01*
X519731D01*
X522228Y525522D01*
Y528276D01*
X526589Y532638D01*
X481768Y520163D02*
X488441Y526836D01*
X497546D01*
X526589Y532638D02*
X591820D01*
X600710Y523748D01*
Y478028D02*
Y523748D01*
X567182Y444500D02*
X600710Y478028D01*
X538660Y444500D02*
X567182D01*
X524325Y434340D02*
X636301D01*
X639654Y437693D01*
Y445344D02*
X642366Y448056D01*
X639654Y437693D02*
Y445344D01*
X479044Y505944D02*
X487516Y514416D01*
X479044Y497586D02*
Y505944D01*
Y497586D02*
X490106Y486524D01*
X492135D01*
X496005Y482654D01*
X519682D01*
X523552Y486524D01*
X553834D01*
X490327Y473964D02*
X497111Y467180D01*
X498831D01*
X525656Y481444D02*
X559506D01*
X486077Y473964D02*
X490327D01*
X499572Y477574D02*
X504399Y472747D01*
X493901Y477574D02*
X499572D01*
X490907Y480568D02*
X493901Y477574D01*
X479044Y480568D02*
X490907D01*
X516959Y472747D02*
X525656Y481444D01*
X498110Y487734D02*
X517578D01*
X492760Y493084D02*
X498110Y487734D01*
X517578D02*
X525144Y495300D01*
X553834Y486524D02*
X557530Y490220D01*
X584200D01*
Y482600D02*
Y490220D01*
X571500Y469900D02*
X584200Y482600D01*
X538660Y469900D02*
X571500D01*
X492760Y497029D02*
X498831Y503100D01*
X492760Y493084D02*
Y497029D01*
X525144Y495300D02*
X538660D01*
X493084Y508848D02*
Y509125D01*
X609331Y495300D02*
X624660D01*
X642366Y448056D02*
Y545008D01*
X632130Y555244D02*
X642366Y545008D01*
X532593Y416351D02*
X646729D01*
X466360Y549656D02*
X533146D01*
X459318Y542614D02*
X466360Y549656D01*
X460453Y555244D02*
X632130D01*
X453570Y548361D02*
X460453Y555244D01*
X528012Y505353D02*
X593852D01*
X520192Y497533D02*
X528012Y505353D01*
X454906Y560832D02*
X518668D01*
X294386Y566928D02*
X631952D01*
X646729Y416351D02*
X662178Y431800D01*
Y536702D01*
X631952Y566928D02*
X662178Y536702D01*
X522478Y426466D02*
X532593Y416351D01*
X290830Y408940D02*
Y416331D01*
X318531Y446080D02*
X337034Y427578D01*
X356293D01*
X286044Y416331D02*
Y547283D01*
X374052Y410903D02*
X375343D01*
X390329D01*
X396748D01*
X402413Y405238D01*
X390329Y410903D02*
X395986Y416560D01*
X356293Y427578D02*
X357378D01*
X374052Y410903D01*
X395986Y416560D02*
Y434381D01*
X400587Y438982D01*
X292354Y538734D02*
X304800Y551180D01*
X286044Y547283D02*
X289941Y551180D01*
X304800D01*
X292354Y529082D02*
Y538734D01*
X355195Y551180D02*
X366625Y539750D01*
X304800Y551180D02*
X355195D01*
X366625Y539750D02*
X367030D01*
X383704Y511646D02*
X386588Y508762D01*
X397764D01*
X399796Y510794D01*
X383704Y511646D02*
Y514416D01*
X404219Y508762D02*
X424180Y527344D01*
X427533Y530697D01*
Y537515D01*
X443947Y553929D01*
X498741Y414713D02*
Y414782D01*
X453570Y421460D02*
X460317Y414713D01*
X453570Y421460D02*
Y421919D01*
X460317Y414713D02*
X498741D01*
X502920Y414782D02*
Y463091D01*
X444880Y468924D02*
X481036D01*
X486077Y473964D01*
X498831Y467180D02*
X502920Y463091D01*
X443947Y553929D02*
X448003D01*
X454906Y560832D01*
X504399Y497533D02*
X520192D01*
X469646Y531368D02*
X470633D01*
X474980Y525780D02*
X476201D01*
X382779Y526836D02*
X389452Y520163D01*
X377738Y526836D02*
X382779D01*
X376633Y525731D02*
X377738Y526836D01*
X364079Y525731D02*
X376633D01*
X358545Y531265D02*
X364079Y525731D01*
X386080Y534670D02*
X395019Y525731D01*
X386080Y534670D02*
Y537671D01*
X375515Y548235D02*
X386080Y537671D01*
X372389Y467180D02*
X378988Y473779D01*
Y476484D01*
X350901Y493903D02*
X363220Y481584D01*
X367813Y438891D02*
X378508D01*
X367607D02*
X367813D01*
X377698Y429006D01*
X301970Y423200D02*
X316230Y408940D01*
X294640Y423200D02*
X301970D01*
X291124Y426716D02*
X294640Y423200D01*
X291124Y426716D02*
Y517438D01*
X372389Y467180D02*
Y468122D01*
X433324Y523494D02*
X458216D01*
X276098Y548640D02*
X294386Y566928D01*
X276098Y421894D02*
Y548640D01*
X366821Y472747D02*
Y477983D01*
X501396Y405638D02*
X512318Y416560D01*
X458716Y405638D02*
X501396D01*
X448003Y416351D02*
X458716Y405638D01*
X367607Y438891D02*
Y439097D01*
X428244Y429006D02*
X428282Y428968D01*
X346920Y447040D02*
X348234D01*
X356383Y438891D01*
X367607D01*
X411902Y427666D02*
X415728D01*
X424942Y436880D01*
Y459232D01*
X399796Y484378D02*
X424942Y459232D01*
X324232Y456820D02*
X337566Y470154D01*
X314072Y456820D02*
X324232D01*
X420878Y504190D02*
Y513588D01*
X427228Y519938D01*
X378136Y461432D02*
X394502Y477797D01*
X417830Y487934D02*
X431800D01*
X409682Y496082D02*
X417830Y487934D01*
X392704Y496082D02*
X409682D01*
X389382Y492760D02*
X392704Y496082D01*
X389382Y487672D02*
Y492760D01*
X386080Y484370D02*
X389382Y487672D01*
X379984Y484370D02*
X386080D01*
X366821Y497533D02*
X379984Y484370D01*
X383540Y490474D02*
Y491949D01*
X372389Y503100D02*
X383540Y491949D01*
X406334Y433234D02*
Y437185D01*
X408824Y439674D01*
X419608D01*
X296418Y429260D02*
X301498Y434340D01*
Y468122D01*
X314960Y481584D01*
X363220D01*
X366821Y477983D01*
X400587Y527708D02*
Y531298D01*
Y527708D02*
X405563Y522732D01*
X409702D01*
X406334Y536006D02*
Y537046D01*
Y536006D02*
X409702Y532638D01*
X421894D01*
X431114Y435383D02*
X458684Y462954D01*
X431114Y431800D02*
Y435383D01*
X417650Y421919D02*
X421233D01*
X423217Y416351D02*
X430586D01*
X458470Y444235D01*
Y454938D01*
X513080Y528320D02*
Y529082D01*
X497840Y544322D02*
X513080Y529082D01*
X472162Y544322D02*
X497840D01*
X464885Y537046D02*
X472162Y544322D01*
X470633Y531298D02*
Y531368D01*
X465114Y526836D02*
X469646Y531368D01*
X465114Y509594D02*
Y526836D01*
Y509594D02*
X470662Y504046D01*
Y479298D02*
Y504046D01*
X398780Y502920D02*
X410464D01*
X416814Y496570D01*
X457200D01*
X465328Y488442D01*
Y474004D02*
Y488442D01*
Y474004D02*
X475996D01*
Y477520D01*
X479044Y480568D01*
X476201Y525731D02*
Y525780D01*
X470408Y521208D02*
X474980Y525780D01*
X470408Y512826D02*
Y521208D01*
X378136Y508848D02*
X384171Y502813D01*
X398673D01*
X386657Y436187D02*
X395019Y444549D01*
X386657Y422217D02*
Y436187D01*
X378508Y438891D02*
X389452Y449835D01*
Y450117D01*
X459318Y427666D02*
X466614Y420370D01*
X473710D01*
X479367Y426027D01*
X487427D01*
D24*
X652971Y515882D02*
D03*
Y435882D02*
D03*
D25*
X233319Y542371D02*
D03*
X237320D02*
D03*
X249319D02*
D03*
X245321D02*
D03*
X233319Y425369D02*
D03*
X237320D02*
D03*
X249319D02*
D03*
X245321D02*
D03*
D26*
X242019Y461371D02*
D03*
Y506369D02*
D03*
D27*
X241320Y425369D02*
D03*
Y542371D02*
D03*
D28*
X318531Y522280D02*
D03*
Y496880D02*
D03*
Y471480D02*
D03*
Y446080D02*
D03*
D29*
X490690Y535880D02*
D03*
X440690D02*
D03*
D30*
X533146Y549656D02*
D03*
X518668Y560832D02*
D03*
X402413Y405238D02*
D03*
X292354Y529082D02*
D03*
X399796Y510794D02*
D03*
X444880Y468924D02*
D03*
X609331Y495300D02*
D03*
X593852Y505353D02*
D03*
X319532Y545846D02*
D03*
X433324Y523494D02*
D03*
X458216D02*
D03*
X522478Y426466D02*
D03*
X276098Y421894D02*
D03*
X350901Y493903D02*
D03*
X377698Y429006D02*
D03*
X428244D02*
D03*
X346920Y447040D02*
D03*
X399796Y484378D02*
D03*
X337566Y470154D02*
D03*
X314072Y456820D02*
D03*
X420878Y504190D02*
D03*
X427228Y519938D02*
D03*
X459556Y486349D02*
D03*
X431800Y487934D02*
D03*
X383540Y490474D02*
D03*
X419608Y439674D02*
D03*
X296418Y429260D02*
D03*
X409702Y522732D02*
D03*
X421894Y532638D02*
D03*
X458684Y462954D02*
D03*
X458470Y454938D02*
D03*
X513080Y528320D02*
D03*
X470662Y479298D02*
D03*
X470408Y512826D02*
D03*
X398673Y502813D02*
D03*
X559506Y481444D02*
D03*
D31*
X375515Y548235D02*
D03*
X367030Y539750D02*
D03*
X358545Y531265D02*
D03*
D32*
X487427Y426027D02*
D03*
X498741Y414713D02*
D03*
D33*
X448003Y416351D02*
D03*
X453570Y421919D02*
D03*
X459318Y427666D02*
D03*
X464885Y433234D02*
D03*
X470633Y438982D02*
D03*
X476201Y444549D02*
D03*
X481768Y450117D02*
D03*
X487516Y455864D02*
D03*
X493084Y461432D02*
D03*
X498831Y467180D02*
D03*
X504399Y472747D02*
D03*
X423217Y553929D02*
D03*
X417650Y548361D02*
D03*
X411902Y542614D02*
D03*
X406334Y537046D02*
D03*
X400587Y531298D02*
D03*
X395019Y525731D02*
D03*
X389452Y520163D02*
D03*
X383704Y514416D02*
D03*
X378136Y508848D02*
D03*
X372389Y503100D02*
D03*
X366821Y497533D02*
D03*
D34*
X504399D02*
D03*
X498831Y503100D02*
D03*
X493084Y508848D02*
D03*
X487516Y514416D02*
D03*
X481768Y520163D02*
D03*
X476201Y525731D02*
D03*
X470633Y531298D02*
D03*
X464885Y537046D02*
D03*
X459318Y542614D02*
D03*
X453570Y548361D02*
D03*
X448003Y553929D02*
D03*
X366821Y472747D02*
D03*
X372389Y467180D02*
D03*
X378136Y461432D02*
D03*
X383704Y455864D02*
D03*
X389452Y450117D02*
D03*
X395019Y444549D02*
D03*
X400587Y438982D02*
D03*
X406334Y433234D02*
D03*
X411902Y427666D02*
D03*
X417650Y421919D02*
D03*
X423217Y416351D02*
D03*
D35*
X356293Y427578D02*
D03*
X367607Y438891D02*
D03*
X386657Y422217D02*
D03*
X375343Y410903D02*
D03*
D36*
X538660Y520700D02*
D03*
Y495300D02*
D03*
Y469900D02*
D03*
Y444500D02*
D03*
X624660D02*
D03*
Y469900D02*
D03*
Y520700D02*
D03*
Y495300D02*
D03*
M02*
