G04 Layer_Physical_Order=1*
G04 Layer_Color=255*
%FSLAX44Y44*%
%MOMM*%
G71*
G01*
G75*
%ADD10R,1.0000X0.9000*%
G04:AMPARAMS|DCode=11|XSize=0.8mm|YSize=1.2mm|CornerRadius=0mm|HoleSize=0mm|Usage=FLASHONLY|Rotation=235.000|XOffset=0mm|YOffset=0mm|HoleType=Round|Shape=Rectangle|*
%AMROTATEDRECTD11*
4,1,4,-0.2621,0.6718,0.7209,-0.0165,0.2621,-0.6718,-0.7209,0.0165,-0.2621,0.6718,0.0*
%
%ADD11ROTATEDRECTD11*%

%ADD12R,0.9000X1.0000*%
%ADD13R,0.9500X1.0000*%
%ADD14R,2.1500X3.2500*%
%ADD15R,2.1500X0.9500*%
%ADD16R,1.9000X1.8000*%
%ADD17R,1.8000X1.7000*%
%ADD18R,2.0000X2.0000*%
%ADD19R,2.5001X0.8001*%
%ADD20R,1.4001X0.7000*%
%ADD21R,1.4001X1.9500*%
%ADD22R,1.4001X1.2799*%
%ADD23R,2.0000X1.4001*%
%ADD24C,0.2540*%
%ADD25C,1.1000*%
%ADD26C,1.2002*%
%ADD27O,3.5560X1.7780*%
%ADD28C,1.1001*%
%ADD29C,0.8001*%
%ADD30C,1.2499*%
%ADD31C,0.5000*%
G36*
X328751Y513760D02*
X328802Y513505D01*
X321828Y506531D01*
X318531D01*
X317441Y506314D01*
X316517Y505696D01*
X315899Y504772D01*
X315718Y503859D01*
X314736Y503453D01*
X313165Y502247D01*
X311958Y500675D01*
X311200Y498844D01*
X310942Y496880D01*
X311200Y494916D01*
X311958Y493085D01*
X313165Y491513D01*
X313785Y491037D01*
X313354Y489767D01*
X309880D01*
X309880Y489767D01*
X308790Y489550D01*
X307866Y488932D01*
X307866Y488932D01*
X302532Y483598D01*
X301914Y482674D01*
X301697Y481584D01*
X301697Y481584D01*
Y449227D01*
X300524Y448741D01*
X298382Y450883D01*
X297457Y451501D01*
X296367Y451718D01*
X296367Y451717D01*
X283670D01*
Y452869D01*
X283186Y454036D01*
X282020Y454519D01*
X257906D01*
X257380Y455789D01*
X265340Y463749D01*
X290335D01*
X290335Y463749D01*
X291425Y463966D01*
X292349Y464584D01*
X298686Y470921D01*
X298686Y470921D01*
X299304Y471845D01*
X299521Y472935D01*
Y496660D01*
X313497Y510636D01*
X322651D01*
X322651Y510636D01*
X323741Y510853D01*
X324665Y511470D01*
X327373Y514178D01*
X328751Y513760D01*
D02*
G37*
G36*
X371937Y456456D02*
X371937Y456456D01*
X372861Y455838D01*
X373951Y455621D01*
X373951Y455621D01*
X392521D01*
Y442220D01*
X393004Y441054D01*
X394170Y440570D01*
X402071D01*
Y438868D01*
X402071Y438868D01*
X402288Y437778D01*
X402906Y436853D01*
X427201Y412558D01*
X427189Y412496D01*
X427501Y410926D01*
X428391Y409595D01*
X429438Y408895D01*
X429840Y407783D01*
X429893Y407377D01*
X429585Y406963D01*
X360146D01*
X359761Y408233D01*
X360279Y408579D01*
X361169Y409910D01*
X361481Y411480D01*
X361169Y413050D01*
X360279Y414381D01*
X358948Y415271D01*
X358195Y415420D01*
Y421894D01*
X357978Y422984D01*
X357555Y423617D01*
X357913Y424623D01*
X358117Y424887D01*
X360680D01*
X361770Y425104D01*
X362694Y425722D01*
X363312Y426646D01*
X363529Y427736D01*
Y446644D01*
X363581Y446679D01*
X364470Y448010D01*
X364783Y449580D01*
X364662Y450187D01*
X365832Y450813D01*
X381482Y435164D01*
X381469Y435102D01*
X381782Y433532D01*
X382671Y432201D01*
X384002Y431311D01*
X385572Y430999D01*
X387142Y431311D01*
X388473Y432201D01*
X389362Y433532D01*
X389675Y435102D01*
X389362Y436672D01*
X388473Y438003D01*
X387142Y438893D01*
X385572Y439205D01*
X385510Y439193D01*
X368242Y456461D01*
X368535Y456900D01*
X368727Y457869D01*
X370073Y458319D01*
X371937Y456456D01*
D02*
G37*
G36*
X411292Y513050D02*
X410790Y512017D01*
X410683Y511862D01*
X408751Y511478D01*
X407084Y510364D01*
X405970Y508697D01*
X405832Y508000D01*
X410718D01*
Y506730D01*
X411988D01*
Y501844D01*
X412685Y501982D01*
X414352Y503096D01*
X415466Y504763D01*
X415850Y506695D01*
X416005Y506802D01*
X417038Y507304D01*
X425209Y499132D01*
Y490220D01*
X425209Y490220D01*
X425426Y489130D01*
X426043Y488206D01*
X428251Y485998D01*
X428044Y484956D01*
X427560Y483790D01*
Y481639D01*
X408730D01*
X408730Y481639D01*
X407769Y482428D01*
Y490978D01*
X407821Y491012D01*
X408711Y492344D01*
X409023Y493914D01*
X408711Y495484D01*
X407821Y496815D01*
X406490Y497704D01*
X404920Y498017D01*
X403350Y497704D01*
X402019Y496815D01*
X401130Y495484D01*
X400817Y493914D01*
X401130Y492344D01*
X402019Y491012D01*
X402071Y490978D01*
Y476370D01*
X394170D01*
X393004Y475886D01*
X392521Y474720D01*
Y472635D01*
X391401Y472037D01*
X391206Y472166D01*
X389636Y472479D01*
X388066Y472166D01*
X387360Y471695D01*
X364058D01*
X363532Y472965D01*
X366508Y475941D01*
X374508D01*
X374543Y475889D01*
X375874Y475000D01*
X377444Y474687D01*
X379014Y475000D01*
X380345Y475889D01*
X381235Y477220D01*
X381547Y478790D01*
X381235Y480360D01*
X380345Y481691D01*
X379014Y482580D01*
X377444Y482893D01*
X375874Y482580D01*
X374543Y481691D01*
X374508Y481639D01*
X365328D01*
X365328Y481639D01*
X364238Y481422D01*
X363314Y480804D01*
X363314Y480804D01*
X361433Y478923D01*
X360260Y479409D01*
Y480200D01*
X333580D01*
Y476720D01*
X333705Y476093D01*
X332509Y475597D01*
X331831Y476611D01*
X330500Y477500D01*
X328930Y477813D01*
X327360Y477500D01*
X326029Y476611D01*
X325866Y476368D01*
X324305Y476317D01*
X323898Y476847D01*
X322326Y478053D01*
X320496Y478811D01*
X318531Y479070D01*
X316567Y478811D01*
X314736Y478053D01*
X313165Y476847D01*
X311958Y475275D01*
X311200Y473444D01*
X310942Y471480D01*
X311200Y469515D01*
X311958Y467685D01*
X313165Y466113D01*
X314736Y464907D01*
X316567Y464149D01*
X318531Y463890D01*
X320496Y464149D01*
X321442Y464541D01*
X329527Y456456D01*
X329527Y456456D01*
X330451Y455838D01*
X331541Y455621D01*
X334520D01*
Y453720D01*
X335003Y452554D01*
X336170Y452070D01*
X356093D01*
X356820Y450800D01*
X356577Y449580D01*
X356889Y448010D01*
X357779Y446679D01*
X357831Y446644D01*
Y441977D01*
X357670Y441869D01*
X337289D01*
X336589Y442722D01*
X336277Y444292D01*
X335387Y445623D01*
X334056Y446512D01*
X332486Y446825D01*
X330916Y446512D01*
X329585Y445623D01*
X328695Y444292D01*
X328383Y442722D01*
X328396Y442660D01*
X327266Y441531D01*
X326189Y442250D01*
X326852Y443850D01*
X326978Y444810D01*
X318531D01*
Y446080D01*
X317261D01*
Y454527D01*
X316302Y454401D01*
X314224Y453540D01*
X312440Y452171D01*
X311071Y450387D01*
X310210Y448310D01*
X309947Y446308D01*
X308820Y445638D01*
X307395Y447064D01*
Y480404D01*
X311060Y484069D01*
X325120D01*
X325120Y484069D01*
X326210Y484286D01*
X327134Y484904D01*
X339501Y497270D01*
X340118Y498194D01*
X340335Y499284D01*
X340335Y499284D01*
Y504680D01*
X341605Y505359D01*
X341977Y505111D01*
X343547Y504798D01*
X345117Y505111D01*
X346448Y506000D01*
X347338Y507331D01*
X347650Y508901D01*
X347638Y508963D01*
X351700Y513025D01*
X358142D01*
X358991Y511755D01*
X358980Y511730D01*
Y510514D01*
X358648Y509325D01*
X357558Y509108D01*
X356634Y508490D01*
X356634Y508490D01*
X342708Y494565D01*
X342646Y494577D01*
X341076Y494264D01*
X339745Y493375D01*
X338856Y492044D01*
X338543Y490474D01*
X338621Y490080D01*
X337579Y488810D01*
X336170D01*
X335179Y488613D01*
X334339Y488051D01*
X333777Y487211D01*
X333580Y486220D01*
Y482740D01*
X360260D01*
Y486220D01*
X360062Y487211D01*
X359501Y488051D01*
X358661Y488613D01*
X357670Y488810D01*
X347713D01*
X346670Y490080D01*
X346749Y490474D01*
X346736Y490536D01*
X357807Y501606D01*
X359199Y501202D01*
X359464Y500564D01*
X360630Y500080D01*
X370130D01*
X371296Y500564D01*
X371780Y501730D01*
Y511730D01*
X372945Y512236D01*
X372955Y512236D01*
X373003Y512214D01*
X374040Y511159D01*
Y508000D01*
X381380D01*
Y506730D01*
X382650D01*
Y499140D01*
X386130D01*
X387121Y499337D01*
X387961Y499899D01*
X388523Y500739D01*
X388720Y501730D01*
Y503230D01*
X389990Y503908D01*
X390971Y503252D01*
X391668Y503114D01*
Y508000D01*
X392938D01*
Y509270D01*
X397824D01*
X397686Y509967D01*
X396572Y511634D01*
X396390Y511755D01*
X396775Y513025D01*
X401940D01*
X401975Y512973D01*
X403306Y512084D01*
X404876Y511771D01*
X406446Y512084D01*
X407777Y512973D01*
X408496Y514049D01*
X409892Y514450D01*
X411292Y513050D01*
D02*
G37*
G36*
X560777Y515602D02*
Y475906D01*
X553620Y468749D01*
X552543Y469468D01*
X552921Y470380D01*
Y473349D01*
X554998Y473931D01*
X555150Y474009D01*
X555318Y474042D01*
X555642Y474258D01*
X555989Y474435D01*
X556100Y474565D01*
X556242Y474660D01*
X556459Y474983D01*
X556712Y475279D01*
X556765Y475442D01*
X556860Y475584D01*
X556936Y475966D01*
X557057Y476336D01*
X557043Y476506D01*
X557077Y476674D01*
Y514948D01*
X558230Y516101D01*
X558292Y516089D01*
X559507Y516331D01*
X560777Y515602D01*
D02*
G37*
G36*
X272306Y419880D02*
X272306Y419880D01*
X273230Y419262D01*
X274320Y419045D01*
X274320Y419045D01*
X279110D01*
X279180Y418940D01*
Y411789D01*
X229526D01*
X224879Y416435D01*
X225718Y417392D01*
X227178Y416272D01*
X229712Y415223D01*
X232430Y414865D01*
X250210D01*
X252929Y415223D01*
X255462Y416272D01*
X257638Y417941D01*
X259307Y420117D01*
X260356Y422650D01*
X260714Y425369D01*
X260356Y428087D01*
X259307Y430621D01*
X257785Y432605D01*
X258741Y433444D01*
X272306Y419880D01*
D02*
G37*
G36*
X494702Y514274D02*
X494702Y514274D01*
X495627Y513656D01*
X496717Y513439D01*
X496717Y513439D01*
X521218D01*
X521316Y513275D01*
X520975Y512626D01*
X520555Y512074D01*
X519130Y511791D01*
X517799Y510901D01*
X516909Y509570D01*
X516597Y508000D01*
X516904Y506455D01*
X503013Y492564D01*
X501840Y493050D01*
Y509380D01*
X501357Y510546D01*
X500190Y511030D01*
X493442D01*
X493322Y511630D01*
X492705Y512554D01*
X492705Y512554D01*
X491952Y513307D01*
X492478Y514577D01*
X494399D01*
X494702Y514274D01*
D02*
G37*
G36*
X306558Y434649D02*
X306033Y433379D01*
X289978D01*
X289079Y434278D01*
X289091Y434340D01*
X288778Y435910D01*
X287889Y437241D01*
X286558Y438130D01*
X284988Y438443D01*
X283418Y438130D01*
X282087Y437241D01*
X281197Y435910D01*
X280885Y434340D01*
X281197Y432770D01*
X282087Y431439D01*
X283418Y430550D01*
X284988Y430237D01*
X285050Y430249D01*
X286784Y428516D01*
X287708Y427898D01*
X288798Y427681D01*
X288798Y427681D01*
X312024D01*
X312059Y427629D01*
X313390Y426740D01*
X314960Y426427D01*
X316530Y426740D01*
X317861Y427629D01*
X318750Y428960D01*
X319063Y430530D01*
X318874Y431477D01*
X319772Y432682D01*
X320471Y432629D01*
X320579Y432643D01*
X320687Y432621D01*
X334089D01*
X334140Y432323D01*
X333074Y431107D01*
X323422D01*
X322332Y430890D01*
X321407Y430273D01*
X320790Y429348D01*
X320573Y428258D01*
Y420590D01*
X308609D01*
X305290Y423908D01*
X304366Y424526D01*
X303276Y424743D01*
X303276Y424743D01*
X275500D01*
X258197Y442045D01*
X258683Y443219D01*
X282020D01*
X283186Y443702D01*
X283670Y444868D01*
Y446020D01*
X295187D01*
X306558Y434649D01*
D02*
G37*
G36*
X540327Y554617D02*
Y541980D01*
X540544Y540889D01*
X541162Y539965D01*
X542086Y539348D01*
X543176Y539131D01*
X567780D01*
X574112Y532799D01*
Y459015D01*
X558826Y443729D01*
X552921D01*
Y444381D01*
X552714Y444879D01*
X552441Y445551D01*
X553098Y446547D01*
X553103Y446550D01*
X553664Y447390D01*
X553861Y448381D01*
Y450611D01*
X544271D01*
X534681D01*
Y448381D01*
X534878Y447390D01*
X535440Y446550D01*
X535445Y446547D01*
X536102Y445551D01*
X535828Y444879D01*
X535621Y444381D01*
Y437380D01*
X536105Y436214D01*
X536458Y436068D01*
Y434693D01*
X536105Y434546D01*
X535621Y433380D01*
Y426380D01*
X536105Y425213D01*
X536455Y425068D01*
Y423693D01*
X536105Y423548D01*
X535621Y422382D01*
Y415381D01*
X536105Y414215D01*
X537271Y413732D01*
X544031D01*
X544645Y412462D01*
X544321Y411679D01*
Y398880D01*
X544804Y397714D01*
X545296Y397510D01*
X545044Y396240D01*
X514387D01*
X513784Y397510D01*
X515017Y399271D01*
X509021Y403469D01*
X505970Y399112D01*
X508257Y397510D01*
X507857Y396240D01*
X482637D01*
X482034Y397510D01*
X483267Y399271D01*
X477271Y403469D01*
X474220Y399112D01*
X476507Y397510D01*
X476107Y396240D01*
X453427D01*
X452824Y397510D01*
X454057Y399271D01*
X448061Y403469D01*
X445010Y399112D01*
X447297Y397510D01*
X446897Y396240D01*
X352413D01*
X352160Y397510D01*
X352796Y397774D01*
X353280Y398940D01*
Y401265D01*
X431800D01*
X431800Y401265D01*
X432890Y401482D01*
X433814Y402100D01*
X436720Y405006D01*
X437125Y404989D01*
X438122Y404612D01*
X438356Y404012D01*
X439054Y403282D01*
X442929Y400569D01*
X446709Y405967D01*
X450489Y411365D01*
X446614Y414078D01*
X445689Y414485D01*
X444679Y414507D01*
X443737Y414140D01*
X443007Y413442D01*
X440745Y410211D01*
X439475Y410611D01*
Y416942D01*
X439475Y416942D01*
X439258Y418032D01*
X438640Y418956D01*
X438640Y418956D01*
X436809Y420788D01*
Y431500D01*
X438460D01*
X439626Y431984D01*
X440110Y433150D01*
Y443150D01*
X439626Y444316D01*
X438460Y444800D01*
X429460D01*
X428294Y444316D01*
X427810Y443150D01*
Y433150D01*
X428294Y431984D01*
X429460Y431500D01*
X431111D01*
Y419608D01*
X431111Y419608D01*
X431328Y418518D01*
X431798Y417815D01*
X430811Y417006D01*
X408516Y439300D01*
X409042Y440570D01*
X415670D01*
X416837Y441054D01*
X417320Y442220D01*
Y449600D01*
X418590Y450302D01*
X419862Y450049D01*
X421432Y450362D01*
X422763Y451251D01*
X423652Y452582D01*
X423965Y454152D01*
X423952Y454214D01*
X425360Y455621D01*
X427810D01*
Y453470D01*
X428294Y452304D01*
X429460Y451820D01*
X438460D01*
X439626Y452304D01*
X440110Y453470D01*
Y463470D01*
X439626Y464636D01*
X438460Y465120D01*
X429460D01*
X428294Y464636D01*
X427810Y463470D01*
Y461319D01*
X424180D01*
X423090Y461102D01*
X422166Y460484D01*
X422166Y460484D01*
X419924Y458242D01*
X419862Y458255D01*
X418590Y458002D01*
X417320Y458704D01*
Y474720D01*
X418189Y475941D01*
X427560D01*
Y473790D01*
X428044Y472624D01*
X429210Y472140D01*
X438710D01*
X439876Y472624D01*
X440360Y473790D01*
Y483790D01*
X440671Y484256D01*
X442238D01*
X442620Y483790D01*
Y480060D01*
X449960D01*
Y477520D01*
X442620D01*
Y473790D01*
X442817Y472799D01*
X443379Y471959D01*
X444219Y471397D01*
X445210Y471200D01*
X450693D01*
X450773Y471050D01*
X451041Y469930D01*
X447946Y466834D01*
X447328Y465910D01*
X447171Y465120D01*
X445460D01*
X444294Y464636D01*
X443810Y463470D01*
Y453470D01*
X444294Y452304D01*
X445460Y451820D01*
X454460D01*
X455626Y452304D01*
X456080Y453399D01*
X456419Y453536D01*
X457380Y453740D01*
X457855Y453029D01*
X459186Y452140D01*
X460756Y451827D01*
X460818Y451839D01*
X463442Y449216D01*
X464366Y448598D01*
X465456Y448381D01*
X465456Y448381D01*
X466511D01*
X466512Y448381D01*
X466512Y448381D01*
X470870D01*
Y446730D01*
X470913Y446627D01*
X470208Y445571D01*
X449960D01*
X448870Y445354D01*
X448040Y444800D01*
X445460D01*
X444294Y444316D01*
X443810Y443150D01*
Y433150D01*
X444294Y431984D01*
X445460Y431500D01*
X452591D01*
X453642Y430276D01*
X453642Y430276D01*
Y427266D01*
X453584Y426064D01*
X452519Y425386D01*
Y425386D01*
X447930Y418833D01*
X447657Y417600D01*
X448335Y416535D01*
X458165Y409652D01*
X459398Y409379D01*
X460463Y410058D01*
Y410058D01*
X465051Y416611D01*
X465325Y417843D01*
X464646Y418908D01*
X459340Y422624D01*
Y429096D01*
X462625Y432381D01*
X470870D01*
Y430730D01*
X471354Y429564D01*
X472520Y429080D01*
X482520D01*
X483686Y429564D01*
X484170Y430730D01*
Y439730D01*
X483949Y440263D01*
X484614Y440708D01*
X487408Y443502D01*
X487408Y443502D01*
X488026Y444426D01*
X488243Y445516D01*
Y459194D01*
X488442Y459368D01*
X489435Y459798D01*
X490799Y458435D01*
X490501Y456937D01*
X490404Y456896D01*
X489920Y455730D01*
Y446730D01*
X490404Y445564D01*
X491570Y445080D01*
X501570D01*
X502736Y445564D01*
X503220Y446730D01*
Y455730D01*
X502736Y456896D01*
X501570Y457380D01*
X498875D01*
X498694Y458290D01*
X498076Y459214D01*
X491002Y466289D01*
X491374Y467439D01*
X491468Y467559D01*
X502502D01*
X511508Y458553D01*
X511180Y457085D01*
X510724Y456896D01*
X510240Y455730D01*
Y446730D01*
X510724Y445564D01*
X511890Y445080D01*
X521890D01*
X523056Y445564D01*
X523540Y446730D01*
Y455730D01*
X523056Y456896D01*
X521890Y457380D01*
X519703D01*
X519522Y458290D01*
X518904Y459214D01*
X506496Y471623D01*
X507021Y472893D01*
X515620D01*
X515620Y472893D01*
X516710Y473110D01*
X517634Y473728D01*
X519882Y475975D01*
X520321Y475764D01*
X520929Y475226D01*
X520661Y473880D01*
X520974Y472310D01*
X521863Y470979D01*
X523194Y470090D01*
X524764Y469777D01*
X526334Y470090D01*
X527665Y470979D01*
X527700Y471031D01*
X535621D01*
Y470380D01*
X536105Y469214D01*
X536455Y469068D01*
Y467694D01*
X536105Y467548D01*
X535621Y466382D01*
Y459382D01*
X535828Y458883D01*
X536102Y458211D01*
X535445Y457216D01*
X535440Y457213D01*
X534878Y456372D01*
X534681Y455381D01*
Y453151D01*
X544271D01*
X553861D01*
Y455381D01*
X553664Y456372D01*
X553103Y457213D01*
X553098Y457216D01*
X552441Y458211D01*
X552714Y458883D01*
X552921Y459382D01*
Y460283D01*
X553796Y460868D01*
X565640Y472712D01*
X565640Y472712D01*
X566258Y473636D01*
X566475Y474726D01*
X566475Y474726D01*
Y529220D01*
X566475Y529220D01*
X566258Y530310D01*
X565640Y531235D01*
X565640Y531235D01*
X563041Y533834D01*
X562117Y534451D01*
X561027Y534668D01*
X561026Y534668D01*
X534196D01*
X530203Y538661D01*
X530148Y538716D01*
X530147Y538717D01*
X529224Y539334D01*
X529280Y540379D01*
X529280Y540380D01*
X529280Y540593D01*
Y545416D01*
X530098Y546087D01*
Y551434D01*
X531368D01*
Y552704D01*
X536254D01*
X536144Y553259D01*
X536377Y553755D01*
X536918Y554486D01*
X538272Y554756D01*
X539057Y555280D01*
X540327Y554617D01*
D02*
G37*
G36*
X255369Y497473D02*
Y490139D01*
X255852Y488972D01*
X256367Y488759D01*
X256719Y487316D01*
X250506Y481102D01*
X250444Y481115D01*
X248874Y480802D01*
X247543Y479913D01*
X246653Y478582D01*
X246341Y477012D01*
X246653Y475442D01*
X247543Y474111D01*
X248874Y473222D01*
X250444Y472909D01*
X252014Y473222D01*
X253345Y474111D01*
X254099Y475239D01*
X254998Y475163D01*
X255369Y475028D01*
Y469600D01*
X255852Y468434D01*
X257019Y467951D01*
X259825D01*
X260311Y466777D01*
X251986Y458452D01*
X251368Y457528D01*
X251151Y456438D01*
X251151Y456438D01*
Y442214D01*
X251151Y442214D01*
X251368Y441124D01*
X251986Y440200D01*
X258285Y433900D01*
X257446Y432943D01*
X255462Y434465D01*
X252929Y435515D01*
X250210Y435873D01*
X232430D01*
X229712Y435515D01*
X227178Y434465D01*
X225003Y432796D01*
X224777Y432502D01*
X223575Y432910D01*
Y467474D01*
X254099Y497999D01*
X255369Y497473D01*
D02*
G37*
G36*
X529550Y502942D02*
X529789Y502850D01*
Y499184D01*
X529789Y499184D01*
X530006Y498093D01*
X530624Y497169D01*
X533926Y493867D01*
X533926Y493867D01*
X534850Y493250D01*
X535621Y493096D01*
Y492382D01*
X536105Y491215D01*
X536458Y491069D01*
Y489694D01*
X536105Y489548D01*
X535621Y488381D01*
Y487730D01*
X524759D01*
X524759Y487730D01*
X523669Y487513D01*
X522744Y486895D01*
X514440Y478591D01*
X506078D01*
X505552Y479861D01*
X528048Y502357D01*
X528048Y502357D01*
X528519Y503062D01*
X529550Y502942D01*
D02*
G37*
G36*
X475496Y487849D02*
X475599Y487609D01*
X475650Y487352D01*
X475816Y487103D01*
X475935Y486828D01*
X476122Y486645D01*
X476268Y486428D01*
X476516Y486261D01*
X476731Y486053D01*
X476974Y485956D01*
X477192Y485810D01*
X477485Y485752D01*
X477763Y485641D01*
X478025Y485644D01*
X478282Y485593D01*
X500351D01*
X501020Y484323D01*
X500748Y483925D01*
X483362D01*
X483362Y483925D01*
X482272Y483708D01*
X481348Y483090D01*
X481348Y483090D01*
X477792Y479534D01*
X477174Y478610D01*
X476957Y477520D01*
X476957Y477520D01*
Y468122D01*
X476957Y468122D01*
X477174Y467032D01*
X477792Y466108D01*
X480499Y463400D01*
X479973Y462131D01*
X472594D01*
X468685Y466040D01*
Y477886D01*
X468737Y477921D01*
X469627Y479252D01*
X469939Y480822D01*
X469627Y482392D01*
X468737Y483723D01*
X467406Y484613D01*
X465836Y484925D01*
X464266Y484613D01*
X464233Y484591D01*
X462556Y484829D01*
X462556Y484829D01*
X458924Y488460D01*
X459450Y489730D01*
X475095D01*
X475496Y487849D01*
D02*
G37*
G36*
X503700Y534688D02*
X503700Y534688D01*
X504624Y534070D01*
X505714Y533853D01*
X505714Y533853D01*
X526954D01*
X531002Y529805D01*
X531002Y529805D01*
X531926Y529188D01*
X533016Y528971D01*
X533016Y528971D01*
X559847D01*
X560777Y528040D01*
Y524782D01*
X559507Y524053D01*
X558292Y524295D01*
X556722Y523983D01*
X555391Y523093D01*
X554501Y521762D01*
X554189Y520192D01*
X554202Y520130D01*
X552214Y518142D01*
X551596Y517218D01*
X551379Y516128D01*
X551379Y516128D01*
Y512102D01*
X551271Y512030D01*
X537271D01*
X536757Y511817D01*
X535487Y512588D01*
Y518188D01*
X535487Y518188D01*
X535270Y519278D01*
X534652Y520202D01*
X525254Y529600D01*
X524330Y530218D01*
X523240Y530435D01*
X523240Y530435D01*
X497178D01*
X496499Y531705D01*
X497243Y532818D01*
X497307Y533139D01*
X497489Y533412D01*
X497916Y535558D01*
X497852Y535880D01*
X497916Y536202D01*
X497489Y538348D01*
X497307Y538621D01*
X497243Y538942D01*
X496426Y540166D01*
X497412Y540975D01*
X503700Y534688D01*
D02*
G37*
G36*
X495785Y542602D02*
X494976Y541615D01*
X493753Y542433D01*
X493431Y542496D01*
X493158Y542679D01*
X491012Y543106D01*
X490846Y543073D01*
X490690Y543137D01*
X490534Y543073D01*
X490369Y543106D01*
X488223Y542679D01*
X487950Y542496D01*
X487628Y542433D01*
X485809Y541217D01*
X485626Y540944D01*
X485354Y540762D01*
X484138Y538942D01*
X484074Y538621D01*
X483892Y538348D01*
X483465Y536202D01*
X483529Y535880D01*
X483465Y535558D01*
X483892Y533412D01*
X484074Y533139D01*
X484138Y532818D01*
X484312Y532557D01*
X483702Y531184D01*
X483117Y531098D01*
X479773Y534441D01*
Y540306D01*
X479773Y540306D01*
X479557Y541396D01*
X478939Y542320D01*
X478939Y542320D01*
X470923Y550336D01*
X470935Y550398D01*
X470701Y551574D01*
X471449Y552844D01*
X485543D01*
X495785Y542602D01*
D02*
G37*
G36*
X328080Y562047D02*
X300500Y534466D01*
X299882Y533542D01*
X299665Y532452D01*
X299665Y532452D01*
Y522620D01*
X299613Y522585D01*
X298724Y521254D01*
X298411Y519684D01*
X298724Y518114D01*
X299613Y516783D01*
X300944Y515894D01*
X302514Y515581D01*
X304084Y515894D01*
X305415Y516783D01*
X306304Y518114D01*
X306617Y519684D01*
X306304Y521254D01*
X305415Y522585D01*
X305363Y522620D01*
Y531272D01*
X314583Y540492D01*
X315753Y539866D01*
X315683Y539511D01*
X315683Y539511D01*
Y529245D01*
X314736Y528853D01*
X313165Y527647D01*
X311958Y526075D01*
X311200Y524244D01*
X310942Y522280D01*
X311200Y520316D01*
X311958Y518485D01*
X312635Y517604D01*
X312480Y516986D01*
X312049Y516280D01*
X311227Y516117D01*
X310303Y515499D01*
X310303Y515499D01*
X294658Y499854D01*
X294040Y498930D01*
X293823Y497840D01*
X293823Y497840D01*
Y484790D01*
X292553Y484146D01*
X291193Y484417D01*
X289623Y484104D01*
X288292Y483215D01*
X287403Y481884D01*
X287090Y480314D01*
X287103Y480252D01*
X284843Y477992D01*
X283373Y478318D01*
X283186Y478768D01*
X282020Y479251D01*
X258508D01*
X257982Y480521D01*
X263126Y485666D01*
X263126Y485666D01*
X263744Y486590D01*
X263961Y487680D01*
X264831Y488489D01*
X282020D01*
X283186Y488972D01*
X283670Y490139D01*
Y498140D01*
X283186Y499306D01*
X282020Y499789D01*
X257458D01*
X256896Y500503D01*
X256703Y500811D01*
X256657Y500963D01*
X256849Y501928D01*
X256849Y501928D01*
Y512649D01*
X257019Y512789D01*
X268249D01*
Y519379D01*
Y525970D01*
X260386D01*
X259900Y527143D01*
X282072Y549315D01*
X283480Y548927D01*
X284402Y547546D01*
X286070Y546432D01*
X286766Y546294D01*
Y551180D01*
X288036D01*
Y552450D01*
X292922D01*
X292784Y553147D01*
X291670Y554814D01*
X290289Y555736D01*
X289901Y557144D01*
X296074Y563317D01*
X327554D01*
X328080Y562047D01*
D02*
G37*
G36*
X462963Y551574D02*
X462729Y550398D01*
X463042Y548828D01*
X463931Y547497D01*
X465262Y546608D01*
X466832Y546295D01*
X466894Y546308D01*
X474076Y539126D01*
Y533261D01*
X474076Y533261D01*
X474293Y532171D01*
X474910Y531247D01*
X480586Y525572D01*
X480586Y525572D01*
X481510Y524954D01*
X482600Y524737D01*
X482600Y524737D01*
X499244D01*
X499908Y523467D01*
X499812Y522986D01*
X504698D01*
Y520446D01*
X499812D01*
X499820Y520407D01*
X499085Y519335D01*
X497775Y519258D01*
X497593Y519440D01*
X496669Y520058D01*
X495579Y520275D01*
X495579Y520275D01*
X476640D01*
X464040Y532874D01*
X463116Y533492D01*
X462026Y533709D01*
X462026Y533709D01*
X454660D01*
X453570Y533492D01*
X452646Y532874D01*
X452646Y532874D01*
X450106Y530334D01*
X449488Y529410D01*
X449271Y528320D01*
X449271Y528320D01*
Y516524D01*
X449219Y516489D01*
X448330Y515158D01*
X448017Y513588D01*
X448273Y512300D01*
X447579Y511030D01*
X443539D01*
Y515946D01*
X443591Y515981D01*
X444481Y517312D01*
X444793Y518882D01*
X444481Y520452D01*
X443591Y521783D01*
X442260Y522673D01*
X440690Y522985D01*
X439120Y522673D01*
X437789Y521783D01*
X436899Y520452D01*
X436587Y518882D01*
X436899Y517312D01*
X437789Y515981D01*
X437841Y515946D01*
Y511030D01*
X431190D01*
X430024Y510546D01*
X429540Y509380D01*
Y504518D01*
X428367Y504032D01*
X409176Y523222D01*
X408252Y523840D01*
X407162Y524057D01*
X407162Y524057D01*
X340360D01*
X340360Y524057D01*
X339270Y523840D01*
X338346Y523222D01*
X338346Y523222D01*
X337131Y522008D01*
X335784Y522457D01*
X335691Y523101D01*
X350253Y537663D01*
X388478D01*
X388513Y537611D01*
X389844Y536721D01*
X391414Y536409D01*
X392984Y536721D01*
X394315Y537611D01*
X395205Y538942D01*
X395517Y540512D01*
X395205Y542082D01*
X395114Y542217D01*
X395640Y543716D01*
X395649Y543719D01*
X395917Y543664D01*
X398979Y540602D01*
Y537464D01*
X399196Y536374D01*
X399814Y535450D01*
X400738Y534832D01*
X401828Y534615D01*
X426720D01*
X426720Y534615D01*
X427810Y534832D01*
X428734Y535450D01*
X428889Y535605D01*
X428889Y535605D01*
X429507Y536529D01*
X429724Y537619D01*
X429724Y537619D01*
Y542380D01*
X434215Y546871D01*
X453454D01*
X453454Y546871D01*
X454544Y547088D01*
X455468Y547706D01*
X460606Y552844D01*
X462215D01*
X462963Y551574D01*
D02*
G37*
G36*
X697230Y396240D02*
X659894D01*
X659641Y397510D01*
X660136Y397715D01*
X660620Y398882D01*
Y412882D01*
X660136Y414049D01*
X658970Y414532D01*
X638970D01*
X637804Y414049D01*
X637320Y412882D01*
Y398882D01*
X637804Y397715D01*
X638299Y397510D01*
X638046Y396240D01*
X560898D01*
X560645Y397510D01*
X561137Y397714D01*
X561620Y398880D01*
Y411679D01*
X561137Y412846D01*
X559971Y413329D01*
X553211D01*
X552597Y414599D01*
X552921Y415381D01*
Y422382D01*
X552438Y423548D01*
X552087Y423693D01*
Y425068D01*
X552438Y425213D01*
X552921Y426380D01*
Y433380D01*
X552438Y434546D01*
X552084Y434693D01*
Y436068D01*
X552438Y436214D01*
X552921Y437380D01*
Y438032D01*
X560006D01*
X560006Y438032D01*
X561097Y438249D01*
X562021Y438866D01*
X578975Y455821D01*
X578975Y455821D01*
X579593Y456745D01*
X579810Y457835D01*
X579810Y457835D01*
Y533979D01*
X579593Y535069D01*
X578975Y535993D01*
X578975Y535993D01*
X570974Y543994D01*
X570050Y544612D01*
X568960Y544828D01*
X568960Y544828D01*
X561989D01*
X561620Y545380D01*
Y564879D01*
X561137Y566046D01*
X559971Y566529D01*
X545970D01*
X544804Y566046D01*
X544693Y565778D01*
X543195Y565480D01*
X540494Y568180D01*
X539570Y568798D01*
X538480Y569015D01*
X538480Y569015D01*
X294894D01*
X294894Y569015D01*
X293804Y568798D01*
X292880Y568180D01*
X292880Y568180D01*
X251986Y527286D01*
X251368Y526362D01*
X251151Y525272D01*
X251151Y525272D01*
Y503108D01*
X224748Y476705D01*
X223575Y477191D01*
Y481950D01*
X223627Y481985D01*
X224517Y483316D01*
X224829Y484886D01*
X224517Y486456D01*
X223627Y487787D01*
X222296Y488676D01*
X220726Y488989D01*
X219156Y488676D01*
X217825Y487787D01*
X216936Y486456D01*
X216623Y484886D01*
X216936Y483316D01*
X217825Y481985D01*
X217877Y481950D01*
Y468655D01*
X217877Y468654D01*
X217877Y468654D01*
Y416560D01*
X217877Y416560D01*
X218094Y415470D01*
X218712Y414546D01*
X226332Y406926D01*
X227256Y406308D01*
X228346Y406091D01*
X228346Y406091D01*
X279180D01*
Y398940D01*
X279664Y397774D01*
X280300Y397510D01*
X280047Y396240D01*
X210820D01*
Y572770D01*
X636868D01*
X637577Y571500D01*
X637320Y570880D01*
Y556880D01*
X637804Y555713D01*
X638970Y555230D01*
X658970D01*
X660136Y555713D01*
X660620Y556880D01*
Y570880D01*
X660363Y571500D01*
X661072Y572770D01*
X697230D01*
Y396240D01*
D02*
G37*
G36*
X456379Y556674D02*
X452274Y552569D01*
X433035D01*
X433035Y552569D01*
X431945Y552352D01*
X431021Y551734D01*
X425610Y546324D01*
X424340Y546850D01*
Y557380D01*
X424717Y557944D01*
X455853D01*
X456379Y556674D01*
D02*
G37*
%LPC*%
G36*
X400304Y425489D02*
X398734Y425177D01*
X397403Y424287D01*
X397368Y424235D01*
X369204D01*
X369169Y424287D01*
X367838Y425177D01*
X366268Y425489D01*
X364698Y425177D01*
X363367Y424287D01*
X362477Y422956D01*
X362165Y421386D01*
X362477Y419816D01*
X363367Y418485D01*
X364698Y417595D01*
X366268Y417283D01*
X367838Y417595D01*
X369169Y418485D01*
X369204Y418537D01*
X397368D01*
X397403Y418485D01*
X398734Y417595D01*
X400304Y417283D01*
X401874Y417595D01*
X403205Y418485D01*
X404095Y419816D01*
X404407Y421386D01*
X404095Y422956D01*
X403205Y424287D01*
X401874Y425177D01*
X400304Y425489D01*
D02*
G37*
G36*
X380110Y505460D02*
X374040D01*
Y501730D01*
X374237Y500739D01*
X374799Y499899D01*
X375639Y499337D01*
X376630Y499140D01*
X380110D01*
Y505460D01*
D02*
G37*
G36*
X319801Y454527D02*
Y447350D01*
X326978D01*
X326852Y448310D01*
X325992Y450387D01*
X324623Y452171D01*
X322839Y453540D01*
X320761Y454401D01*
X319801Y454527D01*
D02*
G37*
G36*
X409448Y505460D02*
X405832D01*
X405970Y504763D01*
X407084Y503096D01*
X408751Y501982D01*
X409448Y501844D01*
Y505460D01*
D02*
G37*
G36*
X397824Y506730D02*
X394208D01*
Y503114D01*
X394905Y503252D01*
X396572Y504366D01*
X397686Y506034D01*
X397824Y506730D01*
D02*
G37*
G36*
X500944Y409125D02*
X499379Y406889D01*
X498972Y405964D01*
X498950Y404953D01*
X499316Y404012D01*
X500014Y403282D01*
X503889Y400569D01*
X506940Y404926D01*
X500944Y409125D01*
D02*
G37*
G36*
X469194D02*
X467629Y406889D01*
X467222Y405964D01*
X467200Y404953D01*
X467566Y404012D01*
X468265Y403282D01*
X472139Y400569D01*
X475190Y404926D01*
X469194Y409125D01*
D02*
G37*
G36*
X452569Y409908D02*
X449518Y405550D01*
X455514Y401352D01*
X457080Y403588D01*
X457487Y404513D01*
X457509Y405523D01*
X457142Y406465D01*
X456444Y407195D01*
X452569Y409908D01*
D02*
G37*
G36*
X513529D02*
X510478Y405550D01*
X516474Y401352D01*
X518040Y403588D01*
X518447Y404513D01*
X518469Y405523D01*
X518102Y406465D01*
X517404Y407195D01*
X513529Y409908D01*
D02*
G37*
G36*
X505639Y414507D02*
X504697Y414140D01*
X503967Y413442D01*
X502401Y411205D01*
X508397Y407007D01*
X511449Y411365D01*
X507574Y414078D01*
X506649Y414485D01*
X505639Y414507D01*
D02*
G37*
G36*
X473889D02*
X472947Y414140D01*
X472217Y413442D01*
X470651Y411205D01*
X476647Y407007D01*
X479699Y411365D01*
X475824Y414078D01*
X474899Y414485D01*
X473889Y414507D01*
D02*
G37*
G36*
X521890Y441380D02*
X511890D01*
X510724Y440896D01*
X510240Y439730D01*
Y430730D01*
X510724Y429564D01*
X511890Y429080D01*
X514041D01*
Y426519D01*
X514041Y426519D01*
X514178Y425831D01*
X513479Y425386D01*
Y425386D01*
X508890Y418833D01*
X508617Y417600D01*
X509296Y416535D01*
X519125Y409652D01*
X520358Y409379D01*
X521423Y410058D01*
Y410058D01*
X526011Y416611D01*
X526284Y417843D01*
X525606Y418908D01*
X520300Y422624D01*
Y425958D01*
X520300Y425958D01*
X520083Y427048D01*
X519739Y427563D01*
Y429080D01*
X521890D01*
X523056Y429564D01*
X523540Y430730D01*
Y439730D01*
X523056Y440896D01*
X521890Y441380D01*
D02*
G37*
G36*
X501570D02*
X491570D01*
X490404Y440896D01*
X489920Y439730D01*
Y430730D01*
X490390Y429596D01*
X485531Y424737D01*
X484026Y425791D01*
X482794Y426064D01*
X481729Y425386D01*
Y425386D01*
X477140Y418833D01*
X476867Y417600D01*
X477546Y416535D01*
X487375Y409652D01*
X488608Y409379D01*
X489673Y410058D01*
Y410058D01*
X494261Y416611D01*
X494534Y417843D01*
X493856Y418908D01*
X491080Y420852D01*
X490969Y422118D01*
X497932Y429080D01*
X501570D01*
X502736Y429564D01*
X503220Y430730D01*
Y439730D01*
X502736Y440896D01*
X501570Y441380D01*
D02*
G37*
G36*
X481779Y409908D02*
X478728Y405550D01*
X484724Y401352D01*
X486290Y403588D01*
X486697Y404513D01*
X486719Y405523D01*
X486353Y406465D01*
X485654Y407195D01*
X481779Y409908D01*
D02*
G37*
G36*
X536254Y550164D02*
X532638D01*
Y546548D01*
X533335Y546686D01*
X535002Y547800D01*
X536116Y549468D01*
X536254Y550164D01*
D02*
G37*
G36*
X242019Y468628D02*
X241863Y468564D01*
X241697Y468597D01*
X239551Y468170D01*
X239278Y467988D01*
X238956Y467924D01*
X237137Y466708D01*
X236954Y466435D01*
X236682Y466253D01*
X235466Y464433D01*
X235402Y464112D01*
X235220Y463839D01*
X234793Y461693D01*
X234857Y461371D01*
X234793Y461049D01*
X235220Y458903D01*
X235402Y458630D01*
X235466Y458308D01*
X236682Y456489D01*
X236954Y456306D01*
X237137Y456034D01*
X238956Y454818D01*
X239278Y454754D01*
X239551Y454572D01*
X241697Y454145D01*
X241863Y454178D01*
X242019Y454113D01*
X242175Y454178D01*
X242341Y454145D01*
X244487Y454572D01*
X244760Y454754D01*
X245081Y454818D01*
X246901Y456034D01*
X247083Y456306D01*
X247356Y456489D01*
X248572Y458308D01*
X248636Y458630D01*
X248818Y458903D01*
X249245Y461049D01*
X249181Y461371D01*
X249245Y461693D01*
X248818Y463839D01*
X248636Y464112D01*
X248572Y464433D01*
X247356Y466253D01*
X247083Y466435D01*
X246901Y466708D01*
X245081Y467924D01*
X244760Y467988D01*
X244487Y468170D01*
X242341Y468597D01*
X242175Y468564D01*
X242019Y468628D01*
D02*
G37*
G36*
X282020Y525970D02*
X270789D01*
Y520649D01*
X284610D01*
Y523380D01*
X284413Y524371D01*
X283851Y525211D01*
X283011Y525772D01*
X282020Y525970D01*
D02*
G37*
G36*
X292922Y549910D02*
X289306D01*
Y546294D01*
X290002Y546432D01*
X291670Y547546D01*
X292784Y549213D01*
X292922Y549910D01*
D02*
G37*
G36*
X284610Y518109D02*
X270789D01*
Y512789D01*
X282020D01*
X283011Y512986D01*
X283851Y513548D01*
X284413Y514388D01*
X284610Y515379D01*
Y518109D01*
D02*
G37*
G36*
X431126Y527138D02*
X427510D01*
X427648Y526441D01*
X428762Y524774D01*
X430429Y523660D01*
X431126Y523522D01*
Y527138D01*
D02*
G37*
G36*
X440690Y543137D02*
X440534Y543073D01*
X440368Y543106D01*
X438222Y542679D01*
X437949Y542496D01*
X437627Y542433D01*
X435808Y541217D01*
X435626Y540944D01*
X435353Y540762D01*
X434138Y538942D01*
X434074Y538621D01*
X433891Y538348D01*
X433464Y536202D01*
X433528Y535880D01*
X433464Y535558D01*
X433657Y534591D01*
X432577Y533511D01*
X432396Y533547D01*
X430429Y533155D01*
X428762Y532042D01*
X427648Y530374D01*
X427510Y529678D01*
X432396D01*
Y528408D01*
X433666D01*
Y523522D01*
X434362Y523660D01*
X436030Y524774D01*
X437143Y526441D01*
X437465Y528060D01*
X437610Y528255D01*
X438341Y528801D01*
X438715Y528983D01*
X440368Y528654D01*
X440534Y528687D01*
X440690Y528623D01*
X440846Y528687D01*
X441012Y528654D01*
X443158Y529081D01*
X443431Y529264D01*
X443753Y529328D01*
X445572Y530543D01*
X445754Y530816D01*
X446027Y530998D01*
X447242Y532818D01*
X447306Y533139D01*
X447489Y533412D01*
X447916Y535558D01*
X447852Y535880D01*
X447916Y536202D01*
X447489Y538348D01*
X447306Y538621D01*
X447242Y538942D01*
X446027Y540762D01*
X445754Y540944D01*
X445572Y541217D01*
X443753Y542433D01*
X443431Y542496D01*
X443158Y542679D01*
X441012Y543106D01*
X440846Y543073D01*
X440690Y543137D01*
D02*
G37*
G36*
X653292Y443872D02*
X652971Y443808D01*
X652649Y443872D01*
X650210Y443387D01*
X649937Y443204D01*
X649615Y443140D01*
X647548Y441759D01*
X647366Y441486D01*
X647093Y441304D01*
X645712Y439237D01*
X645648Y438915D01*
X645466Y438642D01*
X644980Y436204D01*
X645014Y436038D01*
X644949Y435882D01*
X645014Y435726D01*
X644980Y435560D01*
X645466Y433121D01*
X645648Y432849D01*
X645712Y432527D01*
X647093Y430460D01*
X647366Y430277D01*
X647548Y430004D01*
X649615Y428623D01*
X649937Y428559D01*
X650210Y428377D01*
X652649Y427892D01*
X652971Y427956D01*
X653292Y427892D01*
X655731Y428377D01*
X656004Y428559D01*
X656326Y428623D01*
X658393Y430004D01*
X658575Y430277D01*
X658848Y430460D01*
X660229Y432527D01*
X660293Y432849D01*
X660475Y433121D01*
X660960Y435560D01*
X660928Y435726D01*
X660992Y435882D01*
X660928Y436038D01*
X660960Y436204D01*
X660475Y438642D01*
X660293Y438915D01*
X660229Y439237D01*
X658848Y441304D01*
X658575Y441486D01*
X658393Y441759D01*
X656326Y443140D01*
X656004Y443204D01*
X655731Y443387D01*
X653292Y443872D01*
D02*
G37*
G36*
Y523872D02*
X652971Y523808D01*
X652649Y523872D01*
X650210Y523387D01*
X649937Y523204D01*
X649615Y523140D01*
X647548Y521759D01*
X647366Y521486D01*
X647093Y521304D01*
X645712Y519237D01*
X645648Y518915D01*
X645466Y518642D01*
X644980Y516203D01*
X645014Y516038D01*
X644949Y515882D01*
X645014Y515726D01*
X644980Y515560D01*
X645466Y513121D01*
X645648Y512849D01*
X645712Y512527D01*
X647093Y510459D01*
X647366Y510277D01*
X647548Y510004D01*
X649615Y508623D01*
X649937Y508559D01*
X650210Y508377D01*
X652649Y507892D01*
X652971Y507956D01*
X653292Y507892D01*
X655731Y508377D01*
X656004Y508559D01*
X656326Y508623D01*
X658393Y510004D01*
X658575Y510277D01*
X658848Y510459D01*
X660229Y512527D01*
X660293Y512849D01*
X660475Y513121D01*
X660960Y515560D01*
X660928Y515726D01*
X660992Y515882D01*
X660928Y516038D01*
X660960Y516203D01*
X660475Y518642D01*
X660293Y518915D01*
X660229Y519237D01*
X658848Y521304D01*
X658575Y521486D01*
X658393Y521759D01*
X656326Y523140D01*
X656004Y523204D01*
X655731Y523387D01*
X653292Y523872D01*
D02*
G37*
G36*
X250210Y552875D02*
X232430D01*
X229712Y552517D01*
X227178Y551468D01*
X225003Y549799D01*
X223334Y547623D01*
X222284Y545090D01*
X221926Y542371D01*
X222284Y539653D01*
X223334Y537119D01*
X225003Y534944D01*
X227178Y533275D01*
X229712Y532225D01*
X232430Y531867D01*
X250210D01*
X252929Y532225D01*
X255462Y533275D01*
X257638Y534944D01*
X259307Y537119D01*
X260356Y539653D01*
X260714Y542371D01*
X260356Y545090D01*
X259307Y547623D01*
X257638Y549799D01*
X255462Y551468D01*
X252929Y552517D01*
X250210Y552875D01*
D02*
G37*
G36*
X242019Y513627D02*
X241863Y513562D01*
X241697Y513595D01*
X239551Y513168D01*
X239278Y512986D01*
X238956Y512922D01*
X237137Y511706D01*
X236954Y511434D01*
X236682Y511251D01*
X235466Y509432D01*
X235402Y509110D01*
X235220Y508837D01*
X234793Y506691D01*
X234857Y506369D01*
X234793Y506048D01*
X235220Y503901D01*
X235402Y503629D01*
X235466Y503307D01*
X236682Y501487D01*
X236954Y501305D01*
X237137Y501032D01*
X238956Y499817D01*
X239278Y499753D01*
X239551Y499570D01*
X241697Y499143D01*
X241863Y499176D01*
X242019Y499112D01*
X242175Y499176D01*
X242341Y499143D01*
X244487Y499570D01*
X244760Y499753D01*
X245081Y499817D01*
X246901Y501032D01*
X247083Y501305D01*
X247356Y501487D01*
X248572Y503307D01*
X248636Y503629D01*
X248818Y503901D01*
X249245Y506048D01*
X249181Y506369D01*
X249245Y506691D01*
X248818Y508837D01*
X248636Y509110D01*
X248572Y509432D01*
X247356Y511251D01*
X247083Y511434D01*
X246901Y511706D01*
X245081Y512922D01*
X244760Y512986D01*
X244487Y513168D01*
X242341Y513595D01*
X242175Y513562D01*
X242019Y513627D01*
D02*
G37*
%LPD*%
D10*
X516890Y435230D02*
D03*
Y451230D02*
D03*
X496570Y435230D02*
D03*
Y451230D02*
D03*
X477520Y435230D02*
D03*
Y451230D02*
D03*
D11*
X517451Y417722D02*
D03*
X508709Y405238D02*
D03*
X485701Y417722D02*
D03*
X476959Y405238D02*
D03*
X456491Y417722D02*
D03*
X447749Y405238D02*
D03*
D12*
X433960Y458470D02*
D03*
X449960D02*
D03*
Y438150D02*
D03*
X433960D02*
D03*
D13*
X449960Y478790D02*
D03*
X433960D02*
D03*
X381380Y506730D02*
D03*
X365380D02*
D03*
D14*
X404920Y458470D02*
D03*
D15*
X346920Y435470D02*
D03*
Y458470D02*
D03*
Y481470D02*
D03*
D16*
X440690Y500380D02*
D03*
X490690D02*
D03*
X465690D02*
D03*
D17*
X413690Y548880D02*
D03*
X517690D02*
D03*
D18*
X341630Y408940D02*
D03*
X316230D02*
D03*
X290830D02*
D03*
D19*
X269519Y494139D02*
D03*
Y473601D02*
D03*
Y519379D02*
D03*
Y448869D02*
D03*
D20*
X544271Y418882D02*
D03*
Y429880D02*
D03*
Y440881D02*
D03*
Y451881D02*
D03*
Y462882D02*
D03*
Y473880D02*
D03*
Y484881D02*
D03*
Y495882D02*
D03*
Y506880D02*
D03*
D21*
X552971Y555130D02*
D03*
D22*
Y405280D02*
D03*
D23*
X648970Y405882D02*
D03*
Y563880D02*
D03*
D24*
X351954Y481470D02*
Y484269D01*
X442468Y405238D02*
Y478790D01*
X278130Y519379D02*
Y541274D01*
X391668Y506730D02*
X410718D01*
X485701Y417722D02*
Y420878D01*
X496570Y431747D01*
Y435230D01*
X517451Y417722D02*
Y425958D01*
X516890Y426519D02*
X517451Y425958D01*
X516890Y426519D02*
Y435230D01*
X456491Y417722D02*
Y430276D01*
X461445Y435230D01*
X477520D01*
X318531Y471480D02*
X331541Y458470D01*
X346920D01*
X440690Y500380D02*
Y518882D01*
X408730Y478790D02*
X433960D01*
X404920Y474980D02*
X408730Y478790D01*
X404920Y458470D02*
Y474980D01*
X424180Y458470D02*
X433960D01*
X419862Y454152D02*
X424180Y458470D01*
X524764Y473880D02*
X544271D01*
X343547Y508901D02*
X350520Y515874D01*
X404876D01*
X366268Y421386D02*
X400304D01*
X449960Y458470D02*
Y464820D01*
X453516Y468376D01*
X454914D01*
X389166Y468846D02*
X389636Y468376D01*
X344092Y468846D02*
X389166D01*
X342646Y467400D02*
X344092Y468846D01*
X332018Y467400D02*
X342646D01*
X332018D02*
Y470622D01*
X328930Y473710D02*
X332018Y470622D01*
X284480Y473601D02*
X291193Y480314D01*
X269519Y473601D02*
X284480D01*
X346920Y458470D02*
X359252D01*
Y463766D01*
X368655D01*
X373951Y458470D01*
X404920D01*
Y438868D02*
X431292Y412496D01*
X404920Y438868D02*
Y458470D01*
X460756Y455930D02*
X465456Y451230D01*
X485902Y470408D02*
X503682D01*
X516890Y457200D01*
Y451230D02*
Y457200D01*
X535940Y495882D02*
X544271D01*
X532638Y499184D02*
X535940Y495882D01*
X532638Y499184D02*
Y518188D01*
X523240Y527586D02*
X532638Y518188D01*
X482600Y527586D02*
X523240D01*
X476925Y533261D02*
X482600Y527586D01*
X476925Y533261D02*
Y540306D01*
X466832Y550398D02*
X476925Y540306D01*
X490690Y500380D02*
Y510540D01*
X488885Y512346D02*
X490690Y510540D01*
X470634Y512346D02*
X488885D01*
X457454Y525526D02*
X470634Y512346D01*
X269519Y448869D02*
X296367D01*
X325707Y435943D02*
X332486Y442722D01*
X433960Y419608D02*
Y438150D01*
Y419608D02*
X436626Y416942D01*
Y408940D02*
Y416942D01*
X431800Y404114D02*
X436626Y408940D01*
X350266Y404114D02*
X431800D01*
X341630Y408940D02*
X350266D01*
X316230D02*
X323422Y416132D01*
Y428258D01*
X334010D01*
X334532Y427736D01*
X360680D01*
Y449580D01*
X465836Y464860D02*
Y480822D01*
Y464860D02*
X471414Y459282D01*
X485394D01*
Y445516D02*
Y459282D01*
X482600Y442722D02*
X485394Y445516D01*
X449960Y442722D02*
X482600D01*
X449960Y438150D02*
Y442722D01*
X364744Y455930D02*
X385572Y435102D01*
X364744Y455930D02*
Y458470D01*
X342646Y490474D02*
X358648Y506476D01*
X365380D02*
Y506730D01*
X261112Y494139D02*
X269519D01*
X250444Y477012D02*
X261112Y487680D01*
X284988Y434340D02*
X288798Y430530D01*
X314960D01*
X328930Y422656D02*
X329692Y421894D01*
X355346D01*
Y413512D02*
Y421894D01*
Y413512D02*
X357378Y411480D01*
X349073Y540512D02*
X391414D01*
X332406Y523845D02*
X349073Y540512D01*
X332406Y513080D02*
Y523845D01*
X323008Y503682D02*
X332406Y513080D01*
X318531Y496880D02*
Y503682D01*
X320687Y435470D02*
Y435943D01*
X296367Y448869D02*
X309293Y435943D01*
X466512Y451230D02*
X477520D01*
X460542Y457200D02*
Y482814D01*
X456252Y487104D02*
X460542Y482814D01*
X431173Y487104D02*
X456252D01*
X428058Y490220D02*
X431173Y487104D01*
X428058Y490220D02*
Y500312D01*
X407162Y521208D02*
X428058Y500312D01*
X340360Y521208D02*
X407162D01*
X337486Y518334D02*
X340360Y521208D01*
X337486Y499284D02*
Y518334D01*
X325120Y486918D02*
X337486Y499284D01*
X309880Y486918D02*
X325120D01*
X304546Y481584D02*
X309880Y486918D01*
X304546Y445884D02*
Y481584D01*
Y445884D02*
X314487Y435943D01*
X320687Y435470D01*
X346920D01*
X544271Y473880D02*
X554228Y476674D01*
Y516128D01*
X558292Y520192D01*
X318531Y522280D02*
Y539511D01*
X331724Y552704D01*
X394268D01*
X520700Y506222D02*
Y508000D01*
X502920Y488442D02*
X520700Y506222D01*
X478282Y488442D02*
X502920D01*
X475742Y500380D02*
X478282Y488442D01*
X465690Y500380D02*
X475742D01*
X452120Y513588D02*
Y528320D01*
X454660Y530860D01*
X462026D01*
X475460Y517426D01*
X495579D01*
X496717Y516288D01*
X523240D01*
X526034Y513494D01*
Y504371D02*
Y513494D01*
X502739Y481076D02*
X526034Y504371D01*
X483362Y481076D02*
X502739D01*
X479806Y477520D02*
X483362Y481076D01*
X479806Y468122D02*
Y477520D01*
Y468122D02*
X483362Y464566D01*
X488696D01*
X496062Y457200D01*
Y451230D02*
X496570D01*
X544271Y440881D02*
X560006D01*
X576961Y457835D01*
Y533979D01*
X568960Y541980D02*
X576961Y533979D01*
X543176Y541980D02*
X568960D01*
X543176D02*
Y561470D01*
X538480Y566166D02*
X543176Y561470D01*
X294894Y566166D02*
X538480D01*
X254000Y525272D02*
X294894Y566166D01*
X254000Y501928D02*
Y525272D01*
X220726Y468654D02*
X254000Y501928D01*
X220726Y416560D02*
X228346Y408940D01*
X290830D01*
X544271Y462882D02*
X551782D01*
X563626Y474726D01*
Y529220D01*
X561027Y531820D02*
X563626Y529220D01*
X533016Y531820D02*
X561027D01*
X528134Y536702D02*
X533016Y531820D01*
X505714Y536702D02*
X528134D01*
X486723Y555693D02*
X505714Y536702D01*
X459427Y555693D02*
X486723D01*
X453454Y549720D02*
X459427Y555693D01*
X433035Y549720D02*
X453454D01*
X426875Y543560D02*
X433035Y549720D01*
X426875Y537619D02*
Y543560D01*
X426720Y537464D02*
X426875Y537619D01*
X401828Y537464D02*
X426720D01*
X401828D02*
Y541782D01*
X396240Y547370D02*
X401828Y541782D01*
X336470Y547370D02*
X396240D01*
X327326Y538226D02*
X336470Y547370D01*
X327326Y518160D02*
Y538226D01*
X322651Y513485D02*
X327326Y518160D01*
X312317Y513485D02*
X322651D01*
X296672Y497840D02*
X312317Y513485D01*
X296672Y472935D02*
Y497840D01*
X290335Y466598D02*
X296672Y472935D01*
X264160Y466598D02*
X290335D01*
X254000Y456438D02*
X264160Y466598D01*
X254000Y442214D02*
Y456438D01*
Y442214D02*
X274320Y421894D01*
X303276D01*
X316230Y408940D01*
X337312Y472694D02*
X338544Y473926D01*
X360464D01*
X365328Y478790D01*
X377444D01*
X524759Y484881D02*
X544271D01*
X515620Y475742D02*
X524759Y484881D01*
X490982Y475742D02*
X515620D01*
X302514Y519684D02*
Y532452D01*
X330854Y560792D01*
X530939D01*
X533186Y558546D01*
X536702D01*
X309293Y435943D02*
X314487D01*
X320687D01*
X325707D01*
X465456Y451230D02*
X466512D01*
X404920Y474980D02*
Y493914D01*
X220726Y416560D02*
Y468654D01*
Y484886D01*
X496062Y451230D02*
Y457200D01*
X460542D02*
X466512Y451230D01*
X318531Y503682D02*
X323008D01*
X261112Y487680D02*
Y494139D01*
X350266Y404114D02*
Y408940D01*
X358648Y506476D02*
X365380D01*
X528814Y548880D02*
X531368Y551434D01*
X563880Y536900D02*
X569468Y531312D01*
X527572Y548880D02*
X528814D01*
X517690D02*
X527572D01*
X539552Y536900D02*
X563880D01*
X527572Y548880D02*
X539552Y536900D01*
X503908Y522506D02*
X504698Y521716D01*
X457454Y544322D02*
X479270Y522506D01*
X503908D01*
X556006Y451881D02*
X569468Y465343D01*
Y531312D01*
X544271Y451881D02*
X556006D01*
X534416D02*
X544271D01*
X534416Y416560D02*
Y451881D01*
X523094Y405238D02*
X534416Y416560D01*
X508709Y405238D02*
X523094D01*
X476959D02*
X508709D01*
X437134Y544322D02*
X457454D01*
X432396Y539584D02*
X437134Y544322D01*
X432396Y528408D02*
Y539584D01*
X391668Y506730D02*
X392938Y508000D01*
X278130Y541274D02*
X288036Y551180D01*
X381380Y506730D02*
X391668D01*
X269519Y519379D02*
X278130D01*
X442468Y478790D02*
X449960D01*
X378719Y484269D02*
X381380Y486930D01*
X447749Y405238D02*
X476959D01*
X442468D02*
X447749D01*
X381380Y486930D02*
Y506730D01*
X351954Y484269D02*
X378719D01*
X346920Y481470D02*
X351954D01*
X314960D02*
X346920D01*
X309626Y476136D02*
X314960Y481470D01*
X309626Y454985D02*
Y476136D01*
Y454985D02*
X318531Y446080D01*
D25*
X440690Y535880D02*
D03*
X490690D02*
D03*
D26*
X318531Y446080D02*
D03*
Y471480D02*
D03*
Y496880D02*
D03*
Y522280D02*
D03*
D27*
X241320Y542371D02*
D03*
Y425369D02*
D03*
D28*
X242019Y506369D02*
D03*
Y461371D02*
D03*
D29*
X245321Y425369D02*
D03*
X249319D02*
D03*
X237320D02*
D03*
X233319D02*
D03*
X245321Y542371D02*
D03*
X249319D02*
D03*
X237320D02*
D03*
X233319D02*
D03*
D30*
X652971Y435882D02*
D03*
Y515882D02*
D03*
D31*
X440690Y518882D02*
D03*
X419862Y454152D02*
D03*
X524764Y473880D02*
D03*
X343547Y508901D02*
D03*
X404876Y515874D02*
D03*
X404920Y493914D02*
D03*
X400304Y421386D02*
D03*
X366268D02*
D03*
X454914Y468376D02*
D03*
X389636D02*
D03*
X328930Y473710D02*
D03*
X291193Y480314D02*
D03*
X431292Y412496D02*
D03*
X460756Y455930D02*
D03*
X485902Y470408D02*
D03*
X466832Y550398D02*
D03*
X457454Y525526D02*
D03*
X332486Y442722D02*
D03*
X360680Y449580D02*
D03*
X465836Y480822D02*
D03*
X385572Y435102D02*
D03*
X364744Y458470D02*
D03*
X342646Y490474D02*
D03*
X250444Y477012D02*
D03*
X284988Y434340D02*
D03*
X314960Y430530D02*
D03*
X328930Y422656D02*
D03*
X357378Y411480D02*
D03*
X391414Y540512D02*
D03*
X558292Y520192D02*
D03*
X394268Y552704D02*
D03*
X520700Y508000D02*
D03*
X452120Y513588D02*
D03*
X220726Y484886D02*
D03*
X337312Y472694D02*
D03*
X377444Y478790D02*
D03*
X490982Y475742D02*
D03*
X302514Y519684D02*
D03*
X536702Y558546D02*
D03*
X531368Y551434D02*
D03*
X504698Y521716D02*
D03*
X432396Y528408D02*
D03*
X392938Y508000D02*
D03*
X288036Y551180D02*
D03*
X410718Y506730D02*
D03*
M02*
