G04 Layer_Physical_Order=2*
G04 Layer_Color=16711680*
%FSLAX44Y44*%
%MOMM*%
G71*
G01*
G75*
%ADD13R,0.9500X1.0000*%
%ADD18R,2.0000X2.0000*%
%ADD24C,0.2540*%
%ADD25C,1.1000*%
%ADD26C,1.2002*%
%ADD27O,3.5560X1.7780*%
%ADD28C,1.1001*%
%ADD29C,0.8001*%
%ADD30C,1.2499*%
%ADD31C,0.5000*%
%ADD32R,2.4400X1.1300*%
G04:AMPARAMS|DCode=33|XSize=0.9mm|YSize=1mm|CornerRadius=0mm|HoleSize=0mm|Usage=FLASHONLY|Rotation=45.000|XOffset=0mm|YOffset=0mm|HoleType=Round|Shape=Rectangle|*
%AMROTATEDRECTD33*
4,1,4,0.0353,-0.6717,-0.6717,0.0353,-0.0353,0.6717,0.6717,-0.0353,0.0353,-0.6717,0.0*
%
%ADD33ROTATEDRECTD33*%

G04:AMPARAMS|DCode=34|XSize=1.15mm|YSize=1.4mm|CornerRadius=0mm|HoleSize=0mm|Usage=FLASHONLY|Rotation=135.000|XOffset=0mm|YOffset=0mm|HoleType=Round|Shape=Rectangle|*
%AMROTATEDRECTD34*
4,1,4,0.9016,0.0884,-0.0884,-0.9016,-0.9016,-0.0884,0.0884,0.9016,0.9016,0.0884,0.0*
%
%ADD34ROTATEDRECTD34*%

G04:AMPARAMS|DCode=35|XSize=0.95mm|YSize=1mm|CornerRadius=0mm|HoleSize=0mm|Usage=FLASHONLY|Rotation=225.000|XOffset=0mm|YOffset=0mm|HoleType=Round|Shape=Rectangle|*
%AMROTATEDRECTD35*
4,1,4,-0.0177,0.6894,0.6894,-0.0177,0.0177,-0.6894,-0.6894,0.0177,-0.0177,0.6894,0.0*
%
%ADD35ROTATEDRECTD35*%

G04:AMPARAMS|DCode=36|XSize=0.95mm|YSize=1mm|CornerRadius=0mm|HoleSize=0mm|Usage=FLASHONLY|Rotation=315.000|XOffset=0mm|YOffset=0mm|HoleType=Round|Shape=Rectangle|*
%AMROTATEDRECTD36*
4,1,4,-0.6894,-0.0177,0.0177,0.6894,0.6894,0.0177,-0.0177,-0.6894,-0.6894,-0.0177,0.0*
%
%ADD36ROTATEDRECTD36*%

%ADD37R,1.0000X0.9500*%
G04:AMPARAMS|DCode=38|XSize=0.508mm|YSize=1.4732mm|CornerRadius=0mm|HoleSize=0mm|Usage=FLASHONLY|Rotation=135.000|XOffset=0mm|YOffset=0mm|HoleType=Round|Shape=Rectangle|*
%AMROTATEDRECTD38*
4,1,4,0.7005,0.3412,-0.3412,-0.7005,-0.7005,-0.3412,0.3412,0.7005,0.7005,0.3412,0.0*
%
%ADD38ROTATEDRECTD38*%

G04:AMPARAMS|DCode=39|XSize=0.508mm|YSize=1.4732mm|CornerRadius=0mm|HoleSize=0mm|Usage=FLASHONLY|Rotation=225.000|XOffset=0mm|YOffset=0mm|HoleType=Round|Shape=Rectangle|*
%AMROTATEDRECTD39*
4,1,4,-0.3412,0.7005,0.7005,-0.3412,0.3412,-0.7005,-0.7005,0.3412,-0.3412,0.7005,0.0*
%
%ADD39ROTATEDRECTD39*%

G36*
X697230Y396240D02*
X354292D01*
X354258Y396276D01*
X353729Y397510D01*
X354023Y397949D01*
X354220Y398940D01*
Y407223D01*
X355490Y407902D01*
X355808Y407690D01*
X357378Y407377D01*
X358948Y407690D01*
X360279Y408579D01*
X360392Y408748D01*
X367648D01*
X372683Y403712D01*
X373850Y403229D01*
X375016Y403712D01*
X381380Y410076D01*
X381863Y411243D01*
X381380Y412409D01*
X374998Y418791D01*
X375524Y420061D01*
X378962D01*
X383997Y415026D01*
X385163Y414543D01*
X386330Y415026D01*
X392694Y421390D01*
X393177Y422556D01*
X392694Y423723D01*
X386523Y429893D01*
X386941Y431272D01*
X387142Y431311D01*
X388473Y432201D01*
X389362Y433532D01*
X389460Y434024D01*
X389949Y434323D01*
X391190Y434578D01*
X391751Y433738D01*
X392649Y432840D01*
X399689Y439880D01*
X406729Y446919D01*
X405831Y447817D01*
X404991Y448379D01*
X403999Y448576D01*
X403463Y448469D01*
X403190Y449128D01*
X399598Y452720D01*
X398432Y453204D01*
X397783Y454309D01*
X397751Y454387D01*
X400215Y456852D01*
X415479D01*
X415949Y455973D01*
X416044Y455582D01*
X415759Y454152D01*
X416072Y452582D01*
X416961Y451251D01*
X417013Y451216D01*
Y439992D01*
X414779Y437758D01*
X414506Y437813D01*
X410913Y441405D01*
X410055Y441760D01*
X410181Y442394D01*
X409984Y443385D01*
X409423Y444225D01*
X408525Y445123D01*
X401485Y438084D01*
X394445Y431044D01*
X395343Y430146D01*
X396183Y429584D01*
X396910Y429440D01*
X397514Y428531D01*
X397651Y428187D01*
X397455Y427204D01*
X397455Y427203D01*
Y424322D01*
X397403Y424287D01*
X396513Y422956D01*
X396201Y421386D01*
X396513Y419816D01*
X397403Y418485D01*
X398734Y417595D01*
X400304Y417283D01*
X401874Y417595D01*
X403205Y418485D01*
X404095Y419816D01*
X404279Y420743D01*
X405645Y421173D01*
X407323Y419495D01*
X408490Y419012D01*
X408996Y418506D01*
X409479Y417340D01*
X413071Y413748D01*
X414237Y413265D01*
X414563Y412939D01*
X415046Y411772D01*
X418638Y408180D01*
X419805Y407697D01*
X420971Y408180D01*
X426045Y413254D01*
X427215Y412628D01*
X427189Y412496D01*
X427501Y410926D01*
X428391Y409595D01*
X429722Y408705D01*
X431292Y408393D01*
X432862Y408705D01*
X434193Y409595D01*
X434228Y409647D01*
X448003D01*
X448652Y409776D01*
X450249Y408180D01*
X451415Y407697D01*
X452582Y408180D01*
X456174Y411772D01*
X456447Y412431D01*
X456983Y412324D01*
X457974Y412522D01*
X458814Y413083D01*
X459712Y413981D01*
X452672Y421021D01*
X454468Y422817D01*
X461508Y415777D01*
X462406Y416675D01*
X462968Y417515D01*
X463127Y418318D01*
X463470Y418689D01*
X464322Y419198D01*
X465090Y419045D01*
X485005D01*
X486084Y417966D01*
X487250Y417483D01*
X488417Y417966D01*
X495488Y425037D01*
X495971Y426204D01*
X495488Y427370D01*
X488770Y434088D01*
X487604Y434571D01*
X486437Y434088D01*
X479366Y427017D01*
X478883Y425850D01*
X478904Y425799D01*
X478199Y424743D01*
X470940D01*
X470414Y426013D01*
X473057Y428655D01*
X473307Y429259D01*
X473839Y430028D01*
X474608Y430560D01*
X475212Y430811D01*
X478804Y434403D01*
X478964Y434789D01*
X479493Y435690D01*
X480393Y436218D01*
X480780Y436378D01*
X484372Y439970D01*
X484532Y440357D01*
X485060Y441257D01*
X485961Y441786D01*
X486347Y441946D01*
X489939Y445538D01*
X490423Y446704D01*
X490928Y447210D01*
X492095Y447693D01*
X495687Y451286D01*
X496170Y452452D01*
X496496Y452778D01*
X497663Y453261D01*
X501255Y456853D01*
X501610Y457711D01*
X502244Y457585D01*
X503235Y457782D01*
X504075Y458344D01*
X504973Y459242D01*
X497933Y466282D01*
X499729Y468078D01*
X506769Y461038D01*
X507667Y461936D01*
X508228Y462776D01*
X508425Y463767D01*
X508319Y464303D01*
X508978Y464576D01*
X512570Y468168D01*
X513053Y469335D01*
X513430Y469899D01*
X523631D01*
X523631Y469899D01*
X523893Y469951D01*
X524764Y469777D01*
X526080Y470039D01*
X527350Y469357D01*
Y464250D01*
X527833Y463084D01*
X529000Y462600D01*
X529302D01*
X529788Y461427D01*
X522750Y454388D01*
X522132Y453464D01*
X521915Y452374D01*
X521915Y452374D01*
Y435864D01*
X522132Y434774D01*
X522750Y433850D01*
X523674Y433232D01*
X524764Y433015D01*
X556768D01*
X556911Y433044D01*
X557056Y433030D01*
X557452Y433151D01*
X557858Y433232D01*
X557979Y433313D01*
X558119Y433356D01*
X558438Y433619D01*
X558782Y433850D01*
X558863Y433971D01*
X558976Y434064D01*
X572438Y450574D01*
X572632Y450939D01*
X572862Y451284D01*
X572890Y451427D01*
X572959Y451556D01*
X572998Y451968D01*
X573079Y452374D01*
Y473710D01*
X573079Y473710D01*
X572862Y474800D01*
X572244Y475724D01*
X572244Y475724D01*
X560814Y487154D01*
X559890Y487772D01*
X558800Y487989D01*
X558800Y487989D01*
X555731D01*
X554887Y489259D01*
X555049Y489650D01*
Y500950D01*
X554566Y502116D01*
X553400Y502600D01*
X536733D01*
X528834Y510498D01*
Y513290D01*
X529000Y513400D01*
X550638D01*
X550983Y512883D01*
X551908Y512266D01*
X552998Y512049D01*
X563586D01*
X564677Y512266D01*
X565601Y512883D01*
X566218Y513807D01*
X566435Y514898D01*
Y531662D01*
X566218Y532752D01*
X565601Y533676D01*
X565601Y533676D01*
X540793Y558484D01*
X540805Y558546D01*
X540493Y560116D01*
X539603Y561447D01*
X538272Y562337D01*
X536702Y562649D01*
X535132Y562337D01*
X533801Y561447D01*
X532911Y560116D01*
X532599Y558546D01*
X532790Y557585D01*
X532638Y557409D01*
Y552704D01*
X536755D01*
X537339Y553582D01*
X537588Y553631D01*
X560738Y530482D01*
Y529159D01*
X559468Y528633D01*
X545576Y542524D01*
X544652Y543142D01*
X543562Y543359D01*
X543562Y543359D01*
X519730D01*
Y545260D01*
X519246Y546426D01*
X518080Y546909D01*
X515929D01*
Y548448D01*
X516092Y548692D01*
X516309Y549782D01*
X516309Y549782D01*
Y552150D01*
X518210D01*
X519376Y552634D01*
X519860Y553800D01*
Y563800D01*
X519376Y564966D01*
X518210Y565450D01*
X508710D01*
X507544Y564966D01*
X507060Y563800D01*
Y553800D01*
X506629Y553154D01*
X505793Y553131D01*
X504800Y554154D01*
Y557530D01*
X490120D01*
Y553800D01*
X489474Y553013D01*
X476414D01*
X470289Y559137D01*
X469365Y559755D01*
X468275Y559972D01*
X468275Y559972D01*
X462332D01*
X462332Y559972D01*
X461242Y559755D01*
X460318Y559137D01*
X460318Y559137D01*
X458830Y557650D01*
X457453Y558068D01*
X457400Y558332D01*
X456838Y559173D01*
X455941Y560071D01*
X448901Y553031D01*
X441861Y545991D01*
X442759Y545093D01*
X443599Y544532D01*
X444590Y544334D01*
X445126Y544441D01*
X445399Y543782D01*
X448991Y540190D01*
X449595Y539940D01*
X450365Y539408D01*
X450897Y538638D01*
X451147Y538035D01*
X453029Y536152D01*
X452543Y534979D01*
X450850D01*
X450850Y534979D01*
X449760Y534762D01*
X448944Y534216D01*
X448570Y534331D01*
X447782Y534887D01*
X447916Y535558D01*
X447852Y535880D01*
X447916Y536202D01*
X447489Y538348D01*
X447306Y538621D01*
X447242Y538942D01*
X446027Y540762D01*
X445754Y540944D01*
X445572Y541217D01*
X443753Y542433D01*
X443431Y542496D01*
X443158Y542679D01*
X441012Y543106D01*
X440846Y543073D01*
X440690Y543137D01*
X440534Y543073D01*
X440368Y543106D01*
X438222Y542679D01*
X437949Y542496D01*
X437627Y542433D01*
X435808Y541217D01*
X435626Y540944D01*
X435353Y540762D01*
X434138Y538942D01*
X434074Y538621D01*
X433891Y538348D01*
X433464Y536202D01*
X433528Y535880D01*
X433464Y535558D01*
X433657Y534591D01*
X432577Y533511D01*
X432396Y533547D01*
X430429Y533155D01*
X428762Y532042D01*
X427648Y530374D01*
X427510Y529678D01*
X432396D01*
Y527138D01*
X427510D01*
X427648Y526441D01*
X428762Y524774D01*
X430429Y523660D01*
X431760Y523396D01*
X431956Y523224D01*
X432589Y522201D01*
X432620Y522028D01*
X432507Y521462D01*
X432507Y521462D01*
Y502881D01*
X432507Y502880D01*
X432724Y501790D01*
X433342Y500866D01*
X443973Y490235D01*
X443447Y488965D01*
X406869D01*
X406671Y489571D01*
X406658Y490235D01*
X407821Y491012D01*
X408711Y492344D01*
X409023Y493914D01*
X408711Y495484D01*
X407821Y496815D01*
X406490Y497704D01*
X404920Y498017D01*
X403350Y497704D01*
X402019Y496815D01*
X401984Y496762D01*
X394251D01*
X387730Y503283D01*
X388119Y504571D01*
X389043Y504758D01*
X389304Y504366D01*
X390971Y503252D01*
X391668Y503114D01*
Y508000D01*
X392938D01*
Y509270D01*
X397824D01*
X397686Y509967D01*
X396572Y511634D01*
X396043Y511987D01*
X396539Y513183D01*
X397332Y513025D01*
X397332Y513025D01*
X401940D01*
X401975Y512973D01*
X403306Y512084D01*
X404876Y511771D01*
X406446Y512084D01*
X407777Y512973D01*
X408666Y514304D01*
X408979Y515874D01*
X408666Y517444D01*
X407777Y518775D01*
X406446Y519664D01*
X404876Y519977D01*
X403547Y519712D01*
X402958Y520415D01*
X402798Y520760D01*
X403190Y521152D01*
X403674Y522318D01*
X404779Y522967D01*
X405166Y523127D01*
X408758Y526720D01*
X409008Y527323D01*
X409747Y528392D01*
X410913Y528875D01*
X414506Y532467D01*
X414666Y532854D01*
X415315Y533959D01*
X416481Y534443D01*
X420073Y538035D01*
X420323Y538638D01*
X421062Y539707D01*
X422229Y540190D01*
X425821Y543782D01*
X425981Y544169D01*
X426630Y545275D01*
X427796Y545758D01*
X431388Y549350D01*
X431871Y550516D01*
X431388Y551683D01*
X420971Y562100D01*
X419805Y562583D01*
X418638Y562100D01*
X415046Y558508D01*
X414886Y558121D01*
X414237Y557015D01*
X413071Y556532D01*
X409479Y552940D01*
X409229Y552336D01*
X408490Y551268D01*
X407323Y550785D01*
X403770Y547231D01*
X398358Y552642D01*
X398371Y552704D01*
X398059Y554274D01*
X397169Y555605D01*
X395838Y556494D01*
X394268Y556807D01*
X392698Y556494D01*
X391367Y555605D01*
X390477Y554274D01*
X390165Y552704D01*
X390477Y551134D01*
X391367Y549803D01*
X392698Y548913D01*
X394268Y548601D01*
X394330Y548614D01*
X399741Y543202D01*
X398163Y541625D01*
X397913Y541021D01*
X397382Y540252D01*
X396703Y540127D01*
X395517Y540512D01*
X395205Y542082D01*
X394315Y543413D01*
X392984Y544302D01*
X391414Y544615D01*
X389955Y544325D01*
X389883Y544382D01*
X389600Y545765D01*
X389638Y545803D01*
X390121Y546970D01*
X389638Y548136D01*
X382920Y554854D01*
X381754Y555337D01*
X380587Y554854D01*
X373516Y547783D01*
X373033Y546616D01*
X373516Y545450D01*
X374734Y544233D01*
X372217Y541716D01*
X370234Y543698D01*
X369067Y544182D01*
X367901Y543698D01*
X367052Y544548D01*
X367535Y545714D01*
X367052Y546880D01*
X358920Y555012D01*
X357754Y555495D01*
X356587Y555012D01*
X346688Y545112D01*
X346205Y543946D01*
X346688Y542780D01*
X354820Y534648D01*
X355986Y534165D01*
X357152Y534648D01*
X358002Y533799D01*
X357519Y532632D01*
X358002Y531466D01*
X366133Y523334D01*
X367300Y522851D01*
X368466Y523334D01*
X378366Y533234D01*
X378849Y534400D01*
X378366Y535567D01*
X376245Y537687D01*
X377493Y538935D01*
X378871Y538517D01*
X378945Y538144D01*
X379563Y537220D01*
X386738Y530044D01*
X386688Y529923D01*
X386039Y528817D01*
X384873Y528334D01*
X381281Y524742D01*
X380925Y523884D01*
X380292Y524010D01*
X379300Y523813D01*
X378460Y523251D01*
X377562Y522353D01*
X384602Y515313D01*
X382806Y513517D01*
X375766Y520557D01*
X374868Y519659D01*
X374307Y518819D01*
X374110Y517828D01*
X374216Y517292D01*
X373558Y517019D01*
X369965Y513427D01*
X369715Y512823D01*
X368976Y511754D01*
X367810Y511271D01*
X364218Y507679D01*
X364058Y507293D01*
X363409Y506187D01*
X362242Y505704D01*
X360390Y503851D01*
X345294D01*
X345117Y505111D01*
X346448Y506000D01*
X347338Y507331D01*
X347650Y508901D01*
X347648Y508910D01*
X348819Y509536D01*
X350577Y507778D01*
X351743Y507295D01*
X352910Y507778D01*
X362809Y517677D01*
X363292Y518844D01*
X362809Y520010D01*
X354678Y528142D01*
X353511Y528625D01*
X352345Y528142D01*
X351496Y528991D01*
X351979Y530157D01*
X351496Y531324D01*
X343364Y539455D01*
X342197Y539939D01*
X341031Y539455D01*
X337327Y535752D01*
X335196Y537883D01*
X335837Y538523D01*
X336320Y539690D01*
X335837Y540856D01*
X328766Y547927D01*
X327600Y548410D01*
X326433Y547927D01*
X319716Y541209D01*
X319233Y540043D01*
X319716Y538877D01*
X326787Y531806D01*
X327953Y531323D01*
X329119Y531806D01*
X331168Y533854D01*
X333298Y531723D01*
X331132Y529556D01*
X330648Y528390D01*
X331132Y527223D01*
X338465Y519890D01*
Y511135D01*
X338465Y511135D01*
X338682Y510045D01*
X339299Y509120D01*
X339457Y508963D01*
X339444Y508901D01*
X339757Y507331D01*
X340646Y506000D01*
X341977Y505111D01*
X341800Y503851D01*
X338359D01*
X334482Y507728D01*
X333557Y508346D01*
X332467Y508563D01*
X332467Y508563D01*
X317664D01*
X306604Y519622D01*
X306617Y519684D01*
X306304Y521254D01*
X305415Y522585D01*
X304084Y523475D01*
X302514Y523787D01*
X300944Y523475D01*
X299613Y522585D01*
X298724Y521254D01*
X298411Y519684D01*
X298724Y518114D01*
X299613Y516783D01*
X300944Y515894D01*
X302514Y515581D01*
X302576Y515593D01*
X313819Y504350D01*
X313778Y502743D01*
X313736Y502685D01*
X313165Y502247D01*
X311958Y500675D01*
X311200Y498844D01*
X310942Y496880D01*
X311200Y494916D01*
X311958Y493085D01*
X313165Y491513D01*
X314447Y490529D01*
X314115Y489259D01*
X222250D01*
X222250Y489259D01*
X221160Y489042D01*
X220999Y488935D01*
X220726Y488989D01*
X219156Y488676D01*
X217825Y487787D01*
X216936Y486456D01*
X216623Y484886D01*
X216936Y483316D01*
X217825Y481985D01*
X219156Y481096D01*
X220726Y480783D01*
X222296Y481096D01*
X223627Y481985D01*
X224517Y483316D01*
X224565Y483561D01*
X286996D01*
X287675Y482291D01*
X287403Y481884D01*
X287090Y480314D01*
X287403Y478744D01*
X288292Y477413D01*
X289623Y476524D01*
X291193Y476211D01*
X292763Y476524D01*
X294094Y477413D01*
X294129Y477465D01*
X312038D01*
X312665Y476195D01*
X311958Y475275D01*
X311200Y473444D01*
X310942Y471480D01*
X311200Y469515D01*
X311592Y468569D01*
X288816Y445793D01*
X288198Y444869D01*
X287981Y443779D01*
X287981Y443778D01*
Y438707D01*
X286711Y438028D01*
X286558Y438130D01*
X284988Y438443D01*
X283418Y438130D01*
X282087Y437241D01*
X282052Y437189D01*
X263816D01*
X253293Y447712D01*
Y474076D01*
X253345Y474111D01*
X254235Y475442D01*
X254547Y477012D01*
X254235Y478582D01*
X253345Y479913D01*
X252014Y480802D01*
X250444Y481115D01*
X248874Y480802D01*
X247543Y479913D01*
X246653Y478582D01*
X246341Y477012D01*
X246653Y475442D01*
X247543Y474111D01*
X247595Y474076D01*
Y467771D01*
X246325Y467092D01*
X245081Y467924D01*
X244760Y467988D01*
X244487Y468170D01*
X242341Y468597D01*
X242175Y468564D01*
X242019Y468628D01*
X241863Y468564D01*
X241697Y468597D01*
X239551Y468170D01*
X239278Y467988D01*
X238956Y467924D01*
X237137Y466708D01*
X236954Y466435D01*
X236682Y466253D01*
X235466Y464433D01*
X235402Y464112D01*
X235220Y463839D01*
X234793Y461693D01*
X234857Y461371D01*
X234793Y461049D01*
X235220Y458903D01*
X235402Y458630D01*
X235466Y458308D01*
X236682Y456489D01*
X236954Y456306D01*
X237137Y456034D01*
X238956Y454818D01*
X239278Y454754D01*
X239551Y454572D01*
X241697Y454145D01*
X241863Y454178D01*
X242019Y454113D01*
X242175Y454178D01*
X242341Y454145D01*
X244487Y454572D01*
X244760Y454754D01*
X245081Y454818D01*
X246325Y455649D01*
X247595Y454970D01*
Y446532D01*
X247595Y446532D01*
X247812Y445442D01*
X248430Y444518D01*
X260622Y432326D01*
X260622Y432326D01*
X261546Y431708D01*
X262636Y431491D01*
X262636Y431491D01*
X282052D01*
X282087Y431439D01*
X283418Y430550D01*
X284988Y430237D01*
X286558Y430550D01*
X286711Y430652D01*
X287981Y429973D01*
Y420590D01*
X280830D01*
X279664Y420106D01*
X279180Y418940D01*
Y398940D01*
X279664Y397774D01*
X280300Y397510D01*
X280047Y396240D01*
X210820D01*
Y572770D01*
X697230D01*
Y396240D01*
D02*
G37*
G36*
X369067Y489362D02*
X370234Y488879D01*
X371400Y489362D01*
X374992Y492954D01*
X375152Y493340D01*
X375646Y494181D01*
X376909Y494552D01*
X392653Y478808D01*
X392653Y478808D01*
X393577Y478190D01*
X394667Y477973D01*
X394667Y477973D01*
X461789D01*
X461897Y477829D01*
X461257Y476559D01*
X382204D01*
X381356Y477829D01*
X381547Y478790D01*
X381235Y480360D01*
X380345Y481691D01*
X379014Y482580D01*
X377444Y482893D01*
X375874Y482580D01*
X374543Y481691D01*
X373694Y480421D01*
X373540Y480260D01*
X372339Y479979D01*
X371400Y480918D01*
X370234Y481401D01*
X369067Y480918D01*
X367293Y479144D01*
X365915Y479562D01*
X365852Y479880D01*
X365234Y480804D01*
X365234Y480804D01*
X349155Y496884D01*
X349681Y498154D01*
X360275D01*
X369067Y489362D01*
D02*
G37*
G36*
X448251Y514764D02*
X448017Y513588D01*
X448330Y512018D01*
X449219Y510687D01*
X450550Y509798D01*
X452120Y509485D01*
X453690Y509798D01*
X455021Y510687D01*
X455056Y510739D01*
X475193D01*
X475193Y510739D01*
X476283Y510956D01*
X477208Y511574D01*
X477498Y511864D01*
X477793Y511742D01*
X478563Y511210D01*
X479095Y510440D01*
X479345Y509837D01*
X482937Y506245D01*
X483324Y506084D01*
X484224Y505556D01*
X484752Y504655D01*
X484913Y504269D01*
X488505Y500677D01*
X489108Y500427D01*
X489878Y499895D01*
X490410Y499125D01*
X490660Y498521D01*
X493866Y495315D01*
X493340Y494045D01*
X448220D01*
X438205Y504060D01*
Y514292D01*
X439475Y515021D01*
X440690Y514780D01*
X442260Y515092D01*
X443591Y515981D01*
X443626Y516034D01*
X447503D01*
X448251Y514764D01*
D02*
G37*
G36*
X473220Y548150D02*
X473220Y548150D01*
X474144Y547532D01*
X475234Y547315D01*
X506143D01*
X506756Y546045D01*
X506430Y545260D01*
Y535760D01*
X506078Y535233D01*
X502158D01*
X502158Y535233D01*
X501068Y535016D01*
X500144Y534398D01*
X500144Y534398D01*
X499062Y533317D01*
X498772Y533354D01*
X497758Y534764D01*
X497916Y535558D01*
X497852Y535880D01*
X497916Y536202D01*
X497489Y538348D01*
X497307Y538621D01*
X497243Y538942D01*
X496027Y540762D01*
X495755Y540944D01*
X495572Y541217D01*
X493753Y542433D01*
X493431Y542496D01*
X493158Y542679D01*
X491012Y543106D01*
X490846Y543073D01*
X490690Y543137D01*
X490534Y543073D01*
X490369Y543106D01*
X488223Y542679D01*
X487950Y542496D01*
X487628Y542433D01*
X485809Y541217D01*
X485626Y540944D01*
X485354Y540762D01*
X484138Y538942D01*
X484074Y538621D01*
X483892Y538348D01*
X483465Y536202D01*
X483529Y535880D01*
X483465Y535558D01*
X483892Y533412D01*
X484074Y533139D01*
X484138Y532818D01*
X485101Y531377D01*
X484114Y530567D01*
X480780Y533902D01*
X480393Y534062D01*
X479493Y534590D01*
X478964Y535491D01*
X478804Y535877D01*
X475212Y539469D01*
X474608Y539720D01*
X473839Y540252D01*
X473307Y541021D01*
X473057Y541625D01*
X469464Y545217D01*
X469078Y545377D01*
X468807Y545536D01*
X468802Y545547D01*
X468794Y546869D01*
X469733Y547497D01*
X470623Y548828D01*
X470643Y548930D01*
X472021Y549348D01*
X473220Y548150D01*
D02*
G37*
G36*
X550870Y529173D02*
X550384Y528000D01*
X529000D01*
X528984Y527993D01*
X528618Y528189D01*
X528000Y529113D01*
X528000Y529113D01*
X522714Y534398D01*
X521790Y535016D01*
X520872Y535199D01*
X520530Y535367D01*
X519730Y535995D01*
Y537661D01*
X542382D01*
X550870Y529173D01*
D02*
G37*
G36*
X482041Y471623D02*
X481799Y470408D01*
X481811Y470346D01*
X465845Y454380D01*
X464675Y455006D01*
X464859Y455930D01*
X464547Y457500D01*
X463657Y458831D01*
X462326Y459720D01*
X460756Y460033D01*
X460694Y460020D01*
X459000Y461715D01*
X458076Y462332D01*
X456986Y462549D01*
X456986Y462549D01*
X426411D01*
X426212Y462589D01*
X426212Y462589D01*
X395986D01*
X395986Y462589D01*
X394896Y462372D01*
X393972Y461754D01*
X393972Y461754D01*
X392530Y460313D01*
X391875Y460443D01*
X389267Y463052D01*
X389475Y463740D01*
X389807Y464307D01*
X391206Y464585D01*
X392537Y465475D01*
X392572Y465527D01*
X451978D01*
X452013Y465475D01*
X453344Y464585D01*
X454914Y464273D01*
X456484Y464585D01*
X457815Y465475D01*
X458704Y466806D01*
X459017Y468376D01*
X458775Y469591D01*
X459504Y470861D01*
X469939D01*
X469940Y470861D01*
X471030Y471078D01*
X471954Y471696D01*
X473152Y472893D01*
X481312D01*
X482041Y471623D01*
D02*
G37*
G36*
X567381Y472530D02*
Y453388D01*
X556319Y439822D01*
X555049Y440274D01*
Y442601D01*
X555590Y443410D01*
X555807Y444500D01*
Y452977D01*
X558274Y455445D01*
X558274Y455445D01*
X558892Y456369D01*
X559109Y457459D01*
X559109Y457459D01*
Y476758D01*
X558892Y477848D01*
X558274Y478772D01*
X558274Y478772D01*
X556026Y481021D01*
X556398Y482170D01*
X556399Y482172D01*
X557689Y482223D01*
X567381Y472530D01*
D02*
G37*
G36*
X456665Y455992D02*
X456653Y455930D01*
X456965Y454360D01*
X457855Y453029D01*
X459186Y452140D01*
X460756Y451827D01*
X461680Y452011D01*
X462306Y450841D01*
X432398Y420933D01*
X431386D01*
X427796Y424522D01*
X426630Y425005D01*
X426304Y425331D01*
X425821Y426498D01*
X425430Y426889D01*
X430766Y432225D01*
X430766Y432226D01*
X431384Y433150D01*
X431601Y434240D01*
X431601Y434240D01*
Y456852D01*
X455806D01*
X456665Y455992D01*
D02*
G37*
G36*
X553411Y462593D02*
Y458639D01*
X550944Y456171D01*
X550326Y455247D01*
X550109Y454157D01*
X550109Y454157D01*
Y451800D01*
X530014D01*
X529488Y453070D01*
X536684Y460266D01*
X536684Y460266D01*
X537302Y461190D01*
X537519Y462280D01*
Y462600D01*
X553400D01*
X553411Y462593D01*
D02*
G37*
G36*
X338785Y491689D02*
X338543Y490474D01*
X338856Y488904D01*
X339745Y487573D01*
X339797Y487538D01*
Y480568D01*
X339797Y480568D01*
X340014Y479478D01*
X340632Y478554D01*
X360653Y458532D01*
X360641Y458470D01*
X360953Y456900D01*
X361843Y455569D01*
X363174Y454679D01*
X364744Y454367D01*
X366314Y454679D01*
X367645Y455569D01*
X368535Y456900D01*
X368546Y456960D01*
X369867Y457090D01*
X369965Y456853D01*
X371009Y455810D01*
X367628Y452429D01*
X363616D01*
X363581Y452481D01*
X362250Y453371D01*
X360680Y453683D01*
X359110Y453371D01*
X357779Y452481D01*
X356889Y451150D01*
X356577Y449580D01*
X356889Y448010D01*
X357779Y446679D01*
X359110Y445789D01*
X360680Y445477D01*
X362250Y445789D01*
X363211Y446431D01*
X363821Y446305D01*
X364242Y445030D01*
X364223Y444911D01*
X361052Y441740D01*
X337497D01*
X336576Y442660D01*
X336589Y442722D01*
X336277Y444292D01*
X335387Y445623D01*
X334056Y446512D01*
X332486Y446825D01*
X330916Y446512D01*
X329585Y445623D01*
X328695Y444292D01*
X328383Y442722D01*
X328695Y441152D01*
X329585Y439821D01*
X330916Y438932D01*
X332486Y438619D01*
X332548Y438632D01*
X334302Y436877D01*
X334302Y436877D01*
X335227Y436259D01*
X336317Y436042D01*
X336317Y436042D01*
X352365D01*
X352851Y434869D01*
X351824Y433842D01*
X356293Y429374D01*
X360585Y433666D01*
X359381Y434869D01*
X359867Y436042D01*
X361405D01*
X366617Y430830D01*
X367784Y430347D01*
X368950Y430830D01*
X375668Y437548D01*
X376151Y438714D01*
X375668Y439881D01*
X369814Y445735D01*
X370197Y447148D01*
X370822Y447566D01*
X374345Y451088D01*
X375936Y450883D01*
X379125Y447693D01*
X380292Y447210D01*
X381031Y446142D01*
X381281Y445538D01*
X384873Y441946D01*
X385259Y441786D01*
X386100Y441292D01*
X386344Y440161D01*
X385489Y439188D01*
X384002Y438893D01*
X382671Y438003D01*
X381782Y436672D01*
X381469Y435102D01*
X381782Y433532D01*
X382671Y432201D01*
X382938Y432023D01*
X383024Y431721D01*
X382970Y430474D01*
X378255Y425759D01*
X367792D01*
X367792Y425759D01*
X366702Y425542D01*
X365772Y426395D01*
X365629Y426657D01*
X365777Y427401D01*
X365580Y428392D01*
X365018Y429232D01*
X362381Y431870D01*
X357191Y426679D01*
X356293Y427578D01*
X355395Y426679D01*
X350028Y432046D01*
X347567Y429585D01*
X347006Y428745D01*
X346809Y427754D01*
X347006Y426763D01*
X347567Y425923D01*
X350691Y422800D01*
X350165Y421530D01*
X342900D01*
Y408940D01*
X340360D01*
Y421530D01*
X333810D01*
X333004Y422511D01*
X333033Y422656D01*
X332720Y424226D01*
X331831Y425557D01*
X331571Y425731D01*
X331562Y425778D01*
X330944Y426702D01*
X330944Y426702D01*
X325102Y432544D01*
X324178Y433162D01*
X323088Y433379D01*
X323088Y433379D01*
X317896D01*
X317861Y433431D01*
X316530Y434320D01*
X314960Y434633D01*
X313745Y434391D01*
X312475Y435120D01*
Y438526D01*
X313614Y439088D01*
X314224Y438620D01*
X316302Y437759D01*
X317261Y437633D01*
Y446080D01*
X318531D01*
Y447350D01*
X326978D01*
X326852Y448310D01*
X325992Y450387D01*
X324623Y452171D01*
X323342Y453154D01*
X323082Y454690D01*
X337038Y468646D01*
X337312Y468591D01*
X338882Y468904D01*
X340213Y469793D01*
X341102Y471124D01*
X341415Y472694D01*
X341102Y474264D01*
X340213Y475595D01*
X338882Y476484D01*
X337312Y476797D01*
X335742Y476484D01*
X334411Y475595D01*
X334058Y475067D01*
X332720Y475280D01*
X331831Y476611D01*
X330500Y477500D01*
X328930Y477813D01*
X328868Y477800D01*
X324340Y482328D01*
X324241Y482395D01*
X324509Y483743D01*
X324686Y483778D01*
X325610Y484396D01*
X334174Y492959D01*
X338056D01*
X338785Y491689D01*
D02*
G37*
G36*
X327360Y469920D02*
X328276Y469737D01*
X328700Y468365D01*
X318098Y457763D01*
X312420D01*
X311330Y457546D01*
X310406Y456928D01*
X310406Y456928D01*
X307612Y454134D01*
X306994Y453210D01*
X306777Y452120D01*
X306777Y452120D01*
Y427148D01*
X306777Y427148D01*
X306994Y426058D01*
X307612Y425134D01*
X310983Y421763D01*
X310497Y420590D01*
X306230D01*
X305064Y420106D01*
X304580Y418940D01*
Y398940D01*
X305064Y397774D01*
X305700Y397510D01*
X305447Y396240D01*
X301613D01*
X301360Y397510D01*
X301996Y397774D01*
X302480Y398940D01*
Y418940D01*
X301996Y420106D01*
X300830Y420590D01*
X293679D01*
Y442599D01*
X315621Y464541D01*
X316567Y464149D01*
X318531Y463890D01*
X320496Y464149D01*
X322326Y464907D01*
X323898Y466113D01*
X325104Y467685D01*
X325822Y469419D01*
X326045Y469691D01*
X327032Y470139D01*
X327360Y469920D01*
D02*
G37*
%LPC*%
G36*
X451415Y563523D02*
X450424Y563326D01*
X449584Y562765D01*
X445273Y558454D01*
X448003Y555725D01*
X454144Y561867D01*
X453246Y562765D01*
X452406Y563326D01*
X451415Y563523D01*
D02*
G37*
G36*
X376528Y562576D02*
X372059Y558107D01*
X376351Y553815D01*
X378988Y556453D01*
X379550Y557293D01*
X379747Y558284D01*
X379550Y559275D01*
X378988Y560115D01*
X376528Y562576D01*
D02*
G37*
G36*
X364175Y562399D02*
X361537Y559762D01*
X360976Y558921D01*
X360779Y557930D01*
X360976Y556939D01*
X361537Y556099D01*
X363998Y553638D01*
X368467Y558107D01*
X364175Y562399D01*
D02*
G37*
G36*
X370440Y567591D02*
X369449Y567394D01*
X368608Y566833D01*
X365971Y564195D01*
X370263Y559903D01*
X374732Y564372D01*
X372271Y566833D01*
X371431Y567394D01*
X370440Y567591D01*
D02*
G37*
G36*
X625930Y468630D02*
X612410D01*
Y464250D01*
X612607Y463259D01*
X613169Y462419D01*
X614009Y461857D01*
X615000Y461660D01*
X625930D01*
Y468630D01*
D02*
G37*
G36*
X641990D02*
X628470D01*
Y461660D01*
X639400D01*
X640391Y461857D01*
X641231Y462419D01*
X641793Y463259D01*
X641990Y464250D01*
Y468630D01*
D02*
G37*
G36*
X625930Y494030D02*
X612410D01*
Y489650D01*
X612607Y488659D01*
X613169Y487819D01*
X614009Y487257D01*
X615000Y487060D01*
X625930D01*
Y494030D01*
D02*
G37*
G36*
X641990D02*
X628470D01*
Y487060D01*
X639400D01*
X640391Y487257D01*
X641231Y487819D01*
X641793Y488659D01*
X641990Y489650D01*
Y494030D01*
D02*
G37*
G36*
X625930Y503540D02*
X615000D01*
X614009Y503343D01*
X613169Y502781D01*
X612607Y501941D01*
X612410Y500950D01*
Y496570D01*
X625930D01*
Y503540D01*
D02*
G37*
G36*
Y478140D02*
X615000D01*
X614009Y477943D01*
X613169Y477381D01*
X612607Y476541D01*
X612410Y475550D01*
Y471170D01*
X625930D01*
Y478140D01*
D02*
G37*
G36*
X639400D02*
X628470D01*
Y471170D01*
X641990D01*
Y475550D01*
X641793Y476541D01*
X641231Y477381D01*
X640391Y477943D01*
X639400Y478140D01*
D02*
G37*
G36*
X338913Y560664D02*
X337922Y560467D01*
X337082Y559906D01*
X334621Y557445D01*
X339090Y552976D01*
X343382Y557268D01*
X340745Y559906D01*
X339904Y560467D01*
X338913Y560664D01*
D02*
G37*
G36*
X639400Y452740D02*
X628470D01*
Y445770D01*
X641990D01*
Y450150D01*
X641793Y451141D01*
X641231Y451981D01*
X640391Y452543D01*
X639400Y452740D01*
D02*
G37*
G36*
X250210Y435873D02*
X232430D01*
X229712Y435515D01*
X227178Y434465D01*
X225003Y432796D01*
X223334Y430621D01*
X222284Y428087D01*
X221926Y425369D01*
X222284Y422650D01*
X223334Y420117D01*
X225003Y417941D01*
X227178Y416272D01*
X229712Y415223D01*
X232430Y414865D01*
X250210D01*
X252929Y415223D01*
X255462Y416272D01*
X257638Y417941D01*
X259307Y420117D01*
X260356Y422650D01*
X260714Y425369D01*
X260356Y428087D01*
X259307Y430621D01*
X257638Y432796D01*
X255462Y434465D01*
X252929Y435515D01*
X250210Y435873D01*
D02*
G37*
G36*
X498917Y424197D02*
X497926Y424000D01*
X497086Y423438D01*
X494449Y420801D01*
X498741Y416509D01*
X503209Y420978D01*
X500749Y423438D01*
X499908Y424000D01*
X498917Y424197D01*
D02*
G37*
G36*
X502210Y566390D02*
X498730D01*
Y560070D01*
X504800D01*
Y563800D01*
X504603Y564791D01*
X504041Y565631D01*
X503201Y566193D01*
X502210Y566390D01*
D02*
G37*
G36*
X498741Y412917D02*
X494272Y408448D01*
X496733Y405987D01*
X497573Y405426D01*
X498564Y405229D01*
X499555Y405426D01*
X500395Y405987D01*
X503033Y408625D01*
X498741Y412917D01*
D02*
G37*
G36*
X492653Y419005D02*
X490015Y416367D01*
X489454Y415527D01*
X489257Y414536D01*
X489454Y413545D01*
X490015Y412705D01*
X492476Y410244D01*
X496945Y414713D01*
X492653Y419005D01*
D02*
G37*
G36*
X505005Y419182D02*
X500537Y414713D01*
X504829Y410421D01*
X507466Y413058D01*
X508028Y413899D01*
X508225Y414890D01*
X508028Y415881D01*
X507466Y416721D01*
X505005Y419182D01*
D02*
G37*
G36*
X496190Y566390D02*
X492710D01*
X491719Y566193D01*
X490879Y565631D01*
X490317Y564791D01*
X490120Y563800D01*
Y560070D01*
X496190D01*
Y566390D01*
D02*
G37*
G36*
X653292Y443872D02*
X652971Y443808D01*
X652649Y443872D01*
X650210Y443387D01*
X649937Y443204D01*
X649615Y443140D01*
X647548Y441759D01*
X647366Y441486D01*
X647093Y441304D01*
X645712Y439237D01*
X645648Y438915D01*
X645466Y438642D01*
X644980Y436204D01*
X645014Y436038D01*
X644949Y435882D01*
X645014Y435726D01*
X644980Y435560D01*
X645466Y433121D01*
X645648Y432849D01*
X645712Y432527D01*
X647093Y430460D01*
X647366Y430277D01*
X647548Y430004D01*
X649615Y428623D01*
X649937Y428559D01*
X650210Y428377D01*
X652649Y427892D01*
X652971Y427956D01*
X653292Y427892D01*
X655731Y428377D01*
X656004Y428559D01*
X656326Y428623D01*
X658393Y430004D01*
X658575Y430277D01*
X658848Y430460D01*
X660229Y432527D01*
X660293Y432849D01*
X660475Y433121D01*
X660960Y435560D01*
X660928Y435726D01*
X660992Y435882D01*
X660928Y436038D01*
X660960Y436204D01*
X660475Y438642D01*
X660293Y438915D01*
X660229Y439237D01*
X658848Y441304D01*
X658575Y441486D01*
X658393Y441759D01*
X656326Y443140D01*
X656004Y443204D01*
X655731Y443387D01*
X653292Y443872D01*
D02*
G37*
G36*
X625930Y452740D02*
X615000D01*
X614009Y452543D01*
X613169Y451981D01*
X612607Y451141D01*
X612410Y450150D01*
Y445770D01*
X625930D01*
Y452740D01*
D02*
G37*
G36*
Y443230D02*
X612410D01*
Y438850D01*
X612607Y437859D01*
X613169Y437019D01*
X614009Y436457D01*
X615000Y436260D01*
X625930D01*
Y443230D01*
D02*
G37*
G36*
X641990D02*
X628470D01*
Y436260D01*
X639400D01*
X640391Y436457D01*
X641231Y437019D01*
X641793Y437859D01*
X641990Y438850D01*
Y443230D01*
D02*
G37*
G36*
X639400Y503540D02*
X628470D01*
Y496570D01*
X641990D01*
Y500950D01*
X641793Y501941D01*
X641231Y502781D01*
X640391Y503343D01*
X639400Y503540D01*
D02*
G37*
G36*
X370263Y556311D02*
X365794Y551842D01*
X368255Y549382D01*
X369095Y548820D01*
X370086Y548623D01*
X371077Y548820D01*
X371917Y549382D01*
X374555Y552019D01*
X370263Y556311D01*
D02*
G37*
G36*
X339090Y549384D02*
X334798Y545092D01*
X337435Y542454D01*
X338276Y541893D01*
X339267Y541696D01*
X340258Y541893D01*
X341098Y542454D01*
X343559Y544915D01*
X339090Y549384D01*
D02*
G37*
G36*
X286766Y549910D02*
X283150D01*
X283288Y549213D01*
X284402Y547546D01*
X286070Y546432D01*
X286766Y546294D01*
Y549910D01*
D02*
G37*
G36*
X653292Y523872D02*
X652971Y523808D01*
X652649Y523872D01*
X650210Y523387D01*
X649937Y523204D01*
X649615Y523140D01*
X647548Y521759D01*
X647366Y521486D01*
X647093Y521304D01*
X645712Y519237D01*
X645648Y518915D01*
X645466Y518642D01*
X644980Y516203D01*
X645014Y516038D01*
X644949Y515882D01*
X645014Y515726D01*
X644980Y515560D01*
X645466Y513121D01*
X645648Y512849D01*
X645712Y512527D01*
X647093Y510459D01*
X647366Y510277D01*
X647548Y510004D01*
X649615Y508623D01*
X649937Y508559D01*
X650210Y508377D01*
X652649Y507892D01*
X652971Y507956D01*
X653292Y507892D01*
X655731Y508377D01*
X656004Y508559D01*
X656326Y508623D01*
X658393Y510004D01*
X658575Y510277D01*
X658848Y510459D01*
X660229Y512527D01*
X660293Y512849D01*
X660475Y513121D01*
X660960Y515560D01*
X660928Y515726D01*
X660992Y515882D01*
X660928Y516038D01*
X660960Y516203D01*
X660475Y518642D01*
X660293Y518915D01*
X660229Y519237D01*
X658848Y521304D01*
X658575Y521486D01*
X658393Y521759D01*
X656326Y523140D01*
X656004Y523204D01*
X655731Y523387D01*
X653292Y523872D01*
D02*
G37*
G36*
X286766Y556066D02*
X286070Y555928D01*
X284402Y554814D01*
X283288Y553147D01*
X283150Y552450D01*
X286766D01*
Y556066D01*
D02*
G37*
G36*
X250210Y552875D02*
X232430D01*
X229712Y552517D01*
X227178Y551468D01*
X225003Y549799D01*
X223334Y547623D01*
X222284Y545090D01*
X221926Y542371D01*
X222284Y539653D01*
X223334Y537119D01*
X225003Y534944D01*
X227178Y533275D01*
X229712Y532225D01*
X232430Y531867D01*
X250210D01*
X252929Y532225D01*
X255462Y533275D01*
X257638Y534944D01*
X259307Y537119D01*
X260356Y539653D01*
X260714Y542371D01*
X260356Y545090D01*
X259307Y547623D01*
X257638Y549799D01*
X255462Y551468D01*
X252929Y552517D01*
X250210Y552875D01*
D02*
G37*
G36*
X345178Y555472D02*
X340886Y551180D01*
X345355Y546711D01*
X347816Y549172D01*
X348377Y550012D01*
X348574Y551003D01*
X348377Y551994D01*
X347816Y552835D01*
X345178Y555472D01*
D02*
G37*
G36*
X332825Y555649D02*
X330364Y553188D01*
X329803Y552348D01*
X329606Y551357D01*
X329803Y550366D01*
X330364Y549525D01*
X333002Y546888D01*
X337294Y551180D01*
X332825Y555649D01*
D02*
G37*
G36*
X443477Y556658D02*
X439167Y552347D01*
X438605Y551507D01*
X438408Y550516D01*
X438605Y549525D01*
X439167Y548685D01*
X440065Y547787D01*
X446207Y553929D01*
X443477Y556658D01*
D02*
G37*
G36*
X292922Y549910D02*
X289306D01*
Y546294D01*
X290002Y546432D01*
X291670Y547546D01*
X292784Y549213D01*
X292922Y549910D01*
D02*
G37*
G36*
X530098Y550164D02*
X526482D01*
X526620Y549468D01*
X527734Y547800D01*
X529402Y546686D01*
X530098Y546548D01*
Y550164D01*
D02*
G37*
G36*
X536254D02*
X532638D01*
Y546548D01*
X533335Y546686D01*
X535002Y547800D01*
X536116Y549468D01*
X536254Y550164D01*
D02*
G37*
G36*
X639400Y528940D02*
X628470D01*
Y521970D01*
X641990D01*
Y526350D01*
X641793Y527341D01*
X641231Y528181D01*
X640391Y528743D01*
X639400Y528940D01*
D02*
G37*
G36*
X409448Y511616D02*
X408751Y511478D01*
X407084Y510364D01*
X405970Y508697D01*
X405832Y508000D01*
X409448D01*
Y511616D01*
D02*
G37*
G36*
X411988D02*
Y508000D01*
X415604D01*
X415466Y508697D01*
X414352Y510364D01*
X412685Y511478D01*
X411988Y511616D01*
D02*
G37*
G36*
X530098Y556320D02*
X529402Y556182D01*
X527734Y555068D01*
X526620Y553400D01*
X526482Y552704D01*
X530098D01*
Y556320D01*
D02*
G37*
G36*
X409448Y505460D02*
X405832D01*
X405970Y504763D01*
X407084Y503096D01*
X408751Y501982D01*
X409448Y501844D01*
Y505460D01*
D02*
G37*
G36*
X415604D02*
X411988D01*
Y501844D01*
X412685Y501982D01*
X414352Y503096D01*
X415466Y504763D01*
X415604Y505460D01*
D02*
G37*
G36*
X397824Y506730D02*
X394208D01*
Y503114D01*
X394905Y503252D01*
X396572Y504366D01*
X397686Y506034D01*
X397824Y506730D01*
D02*
G37*
G36*
X318531Y529870D02*
X316567Y529611D01*
X314736Y528853D01*
X313165Y527647D01*
X311958Y526075D01*
X311200Y524244D01*
X310942Y522280D01*
X311200Y520316D01*
X311958Y518485D01*
X313165Y516913D01*
X314736Y515707D01*
X316567Y514949D01*
X318531Y514690D01*
X320496Y514949D01*
X322326Y515707D01*
X323898Y516913D01*
X325104Y518485D01*
X325862Y520316D01*
X326121Y522280D01*
X325862Y524244D01*
X325104Y526075D01*
X323898Y527647D01*
X322326Y528853D01*
X320496Y529611D01*
X318531Y529870D01*
D02*
G37*
G36*
X289306Y556066D02*
Y552450D01*
X292922D01*
X292784Y553147D01*
X291670Y554814D01*
X290002Y555928D01*
X289306Y556066D01*
D02*
G37*
G36*
X625930Y528940D02*
X615000D01*
X614009Y528743D01*
X613169Y528181D01*
X612607Y527341D01*
X612410Y526350D01*
Y521970D01*
X625930D01*
Y528940D01*
D02*
G37*
G36*
Y519430D02*
X612410D01*
Y515050D01*
X612607Y514059D01*
X613169Y513219D01*
X614009Y512657D01*
X615000Y512460D01*
X625930D01*
Y519430D01*
D02*
G37*
G36*
X641990D02*
X628470D01*
Y512460D01*
X639400D01*
X640391Y512657D01*
X641231Y513219D01*
X641793Y514059D01*
X641990Y515050D01*
Y519430D01*
D02*
G37*
G36*
X242019Y513627D02*
X241863Y513562D01*
X241697Y513595D01*
X239551Y513168D01*
X239278Y512986D01*
X238956Y512922D01*
X237137Y511706D01*
X236954Y511434D01*
X236682Y511251D01*
X235466Y509432D01*
X235402Y509110D01*
X235220Y508837D01*
X234793Y506691D01*
X234857Y506369D01*
X234793Y506048D01*
X235220Y503901D01*
X235402Y503629D01*
X235466Y503307D01*
X236682Y501487D01*
X236954Y501305D01*
X237137Y501032D01*
X238956Y499817D01*
X239278Y499753D01*
X239551Y499570D01*
X241697Y499143D01*
X241863Y499176D01*
X242019Y499112D01*
X242175Y499176D01*
X242341Y499143D01*
X244487Y499570D01*
X244760Y499753D01*
X245081Y499817D01*
X246901Y501032D01*
X247083Y501305D01*
X247356Y501487D01*
X248572Y503307D01*
X248636Y503629D01*
X248818Y503901D01*
X249245Y506048D01*
X249181Y506369D01*
X249245Y506691D01*
X248818Y508837D01*
X248636Y509110D01*
X248572Y509432D01*
X247356Y511251D01*
X247083Y511434D01*
X246901Y511706D01*
X245081Y512922D01*
X244760Y512986D01*
X244487Y513168D01*
X242341Y513595D01*
X242175Y513562D01*
X242019Y513627D01*
D02*
G37*
G36*
X326978Y444810D02*
X319801D01*
Y437633D01*
X320761Y437759D01*
X322839Y438620D01*
X324623Y439989D01*
X325992Y441773D01*
X326852Y443850D01*
X326978Y444810D01*
D02*
G37*
%LPD*%
D13*
X513460Y558800D02*
D03*
X497460D02*
D03*
D18*
X290830Y408940D02*
D03*
X316230D02*
D03*
X341630D02*
D03*
D24*
X393128Y435113D02*
X394970Y433271D01*
X383704Y514350D02*
X386588D01*
X437642Y552450D02*
X448003D01*
X498741Y414528D02*
X503428D01*
Y414713D02*
Y460551D01*
Y414528D02*
Y414713D01*
Y460551D02*
X504444Y461567D01*
X448003Y552450D02*
X457756Y562203D01*
X502412Y558800D02*
Y561848D01*
X513080Y549402D02*
X513460Y549782D01*
Y558800D01*
X327776Y539866D02*
X329184D01*
X339777Y529273D01*
X341314D01*
X368184Y533516D02*
Y533654D01*
X381323Y546793D01*
X381577D01*
X459318Y427666D02*
X465090Y421894D01*
X487427D02*
Y426027D01*
X440690Y518882D02*
X471384D01*
X476201Y523699D01*
Y525731D01*
X510540Y550164D02*
X513080Y547624D01*
X475234Y550164D02*
X510540D01*
X468275Y557123D02*
X475234Y550164D01*
X462332Y557123D02*
X468275D01*
X453570Y548361D02*
X462332Y557123D01*
X419862Y438812D02*
Y454152D01*
X411902Y430853D02*
X419862Y438812D01*
X411902Y427666D02*
Y430853D01*
X381577Y539234D02*
Y546793D01*
Y539234D02*
X391668Y529143D01*
X391607D02*
X391668D01*
X391607D02*
X395019Y525731D01*
X523631Y472747D02*
X524764Y473880D01*
X504399Y472747D02*
X523631D01*
X341314Y511135D02*
Y529273D01*
Y511135D02*
X343547Y508901D01*
X397332Y515874D02*
X404876D01*
X393043Y520163D02*
X397332Y515874D01*
X389452Y520163D02*
X393043D01*
X393071Y493914D02*
X404920D01*
X290830Y443779D02*
X318531Y471480D01*
X290830Y408940D02*
Y443779D01*
X400304Y427204D02*
X406334Y433234D01*
X400304Y421386D02*
Y427204D01*
X366268Y421386D02*
X367792Y422910D01*
X384810D01*
X389636Y468376D02*
X454914D01*
X322326Y480314D02*
X328930Y473710D01*
X291193Y480314D02*
X322326D01*
X417650Y421919D02*
Y423138D01*
X428752Y434240D01*
Y457200D01*
X395986Y459740D02*
X426212D01*
X389452Y453206D02*
X395986Y459740D01*
X389452Y450117D02*
Y453206D01*
X448003Y412496D02*
Y416351D01*
X389452Y450117D02*
X399035Y459700D01*
X456986D02*
X460756Y455930D01*
X462624Y537046D02*
X464885D01*
X457708Y532130D02*
X462624Y537046D01*
X450850Y532130D02*
X457708D01*
X444246Y525526D02*
X450850Y532130D01*
X439420Y525526D02*
X444246D01*
X435356Y521462D02*
X439420Y525526D01*
X435356Y502880D02*
Y521462D01*
Y502880D02*
X447040Y491196D01*
X493990D01*
X497765Y487422D01*
X505464D01*
X513588Y479298D01*
X553720D01*
X556260Y476758D01*
Y457459D02*
Y476758D01*
X552958Y454157D02*
X556260Y457459D01*
X541200Y444500D02*
X552958D01*
X423217Y416351D02*
Y418084D01*
X433578D02*
X485902Y470408D01*
X540004Y495300D02*
X541200D01*
X525986Y509318D02*
X540004Y495300D01*
X525986Y509318D02*
Y527098D01*
X520700Y532384D02*
X525986Y527098D01*
X502158Y532384D02*
X520700D01*
X487516Y517742D02*
X502158Y532384D01*
X487516Y514416D02*
Y517742D01*
X459318Y542884D02*
X466832Y550398D01*
X459318Y542614D02*
Y542884D01*
X457454Y525526D02*
X468452D01*
X470633Y527707D01*
Y531298D01*
X332486Y442722D02*
X336317Y438891D01*
X367607D01*
X360680Y449580D02*
X368808D01*
X378136Y458908D01*
Y461432D01*
X372389Y503100D02*
X394667Y480822D01*
X465836D01*
X385572Y435102D02*
X395019Y444549D01*
X342646Y480568D02*
X364744Y458470D01*
X342646Y480568D02*
Y490474D01*
X250444Y446532D02*
Y477012D01*
Y446532D02*
X262636Y434340D01*
X284988D01*
X314960Y430530D02*
X323088D01*
X328930Y424688D01*
Y422656D02*
Y424688D01*
X357378Y411480D02*
X357494Y411596D01*
X373496D01*
X391414Y540471D02*
X400587Y531298D01*
X391414Y540471D02*
Y540512D01*
X400868Y486116D02*
X488910D01*
X492685Y482342D01*
X499577D01*
X504399Y477520D01*
Y472747D02*
Y477520D01*
X558292Y520192D02*
Y525780D01*
X543562Y540510D02*
X558292Y525780D01*
X513080Y540510D02*
X543562D01*
X394268Y552704D02*
X406334Y540638D01*
Y537046D02*
Y540638D01*
X493084Y508848D02*
Y512439D01*
X496933Y516288D01*
X512412D01*
X520700Y508000D01*
X475193Y513588D02*
X481768Y520163D01*
X452120Y513588D02*
X475193D01*
X220726Y484886D02*
X222250Y486410D01*
X323596D01*
X332994Y495808D01*
X346202D01*
X363220Y478790D01*
Y472747D02*
X366821D01*
X316230Y408940D02*
Y420544D01*
X309626Y427148D02*
X316230Y420544D01*
X309626Y427148D02*
Y452120D01*
X312420Y454914D01*
X319278D01*
X337058Y472694D01*
X337312D01*
X377444Y473710D02*
Y478790D01*
X376698Y473710D02*
X377444D01*
X375740Y467180D02*
X376698Y473710D01*
X471972Y475742D02*
X490982D01*
X469940Y473710D02*
X471972Y475742D01*
X372389Y467180D02*
X375740D01*
X366821Y497533D02*
Y501002D01*
X332467Y505714D02*
X337179Y501002D01*
X316484Y505714D02*
X332467D01*
X302514Y519684D02*
X316484Y505714D01*
X536702Y558546D02*
X563586Y531662D01*
Y514898D02*
Y531662D01*
X552998Y514898D02*
X563586D01*
X541200Y520700D02*
X552998D01*
X498831Y503100D02*
X502084D01*
X506645Y507661D01*
X515281Y506235D01*
Y497840D02*
Y506235D01*
Y497840D02*
X527981Y485140D01*
X558800D01*
X570230Y473710D01*
Y452374D02*
Y473710D01*
X556768Y435864D02*
X570230Y452374D01*
X524764Y435864D02*
X556768D01*
X524764D02*
Y452374D01*
X534670Y462280D01*
Y469900D02*
X541200D01*
X426212Y459740D02*
X426252Y459700D01*
X428752Y457200D01*
X399035Y459700D02*
X426252D01*
X456986D01*
X378136Y508848D02*
X393071Y493914D01*
X400868Y486116D01*
X513080Y540510D02*
Y547624D01*
Y549402D01*
X377444Y473710D02*
X469940D01*
X534670Y462280D02*
Y469900D01*
X552958Y444500D02*
Y454157D01*
X552998Y514898D02*
Y520700D01*
X337179Y501002D02*
X366821D01*
X363220Y472747D02*
Y478790D01*
X423217Y418084D02*
X433578D01*
X431292Y412496D02*
X448003D01*
X465090Y421894D02*
X487427D01*
X562864Y567436D02*
X566420Y563880D01*
X533908D02*
X566420D01*
X531368Y561340D02*
X533908Y563880D01*
X566420D02*
X609600Y520700D01*
X531368Y551434D02*
Y561340D01*
X508000Y567436D02*
X562864D01*
X609600Y520700D02*
X627200D01*
Y495300D02*
Y520700D01*
X502412Y561848D02*
X508000Y567436D01*
X497460Y558800D02*
X502412D01*
X477138D02*
X497460D01*
X457756Y562203D02*
X473735D01*
X477138Y558800D01*
X507492Y524510D02*
X513080D01*
X504698Y521716D02*
X507492Y524510D01*
X448003Y552450D02*
Y553929D01*
X627200Y469900D02*
Y495300D01*
X601472Y469900D02*
X627200D01*
Y444500D02*
Y469900D01*
X546285Y414713D02*
X601472Y469900D01*
X503428Y414713D02*
X546285D01*
X498831Y467180D02*
X504444Y461567D01*
X453570Y421919D02*
X457522D01*
X464728Y414713D01*
X498741D02*
X503428D01*
X498741Y414528D02*
Y414713D01*
X464728D02*
X498741D01*
X462973D02*
X464728D01*
X453136Y404876D02*
X462973Y414713D01*
X432241Y552450D02*
X437642D01*
X376290Y564134D02*
X420557D01*
X410718Y525526D02*
X437642Y552450D01*
X420557Y564134D02*
X432241Y552450D01*
X410718Y506730D02*
X432396Y528408D01*
X410718Y506730D02*
Y525526D01*
X386588Y514350D02*
X392938Y508000D01*
X370263Y558107D02*
X376290Y564134D01*
X351351Y558107D02*
X370263D01*
X344424Y551180D02*
X351351Y558107D01*
X288036Y551180D02*
X339090D01*
X383704Y514350D02*
Y514416D01*
X339090Y551180D02*
X344424D01*
X396996Y438982D02*
X400587D01*
X393128Y435113D02*
X396996Y438982D01*
X394970Y416306D02*
Y433271D01*
X406400Y404876D02*
X453136D01*
X394970Y416306D02*
X406400Y404876D01*
X356293Y423603D02*
Y427578D01*
X337034D02*
X356293D01*
X341630Y408940D02*
X356293Y423603D01*
X318531Y446080D02*
X337034Y427578D01*
D25*
X440690Y535880D02*
D03*
X490690D02*
D03*
D26*
X318531Y446080D02*
D03*
Y471480D02*
D03*
Y496880D02*
D03*
Y522280D02*
D03*
D27*
X241320Y542371D02*
D03*
Y425369D02*
D03*
D28*
X242019Y506369D02*
D03*
Y461371D02*
D03*
D29*
X245321Y425369D02*
D03*
X249319D02*
D03*
X237320D02*
D03*
X233319D02*
D03*
X245321Y542371D02*
D03*
X249319D02*
D03*
X237320D02*
D03*
X233319D02*
D03*
D30*
X652971Y435882D02*
D03*
Y515882D02*
D03*
D31*
X440690Y518882D02*
D03*
X419862Y454152D02*
D03*
X524764Y473880D02*
D03*
X343547Y508901D02*
D03*
X404876Y515874D02*
D03*
X404920Y493914D02*
D03*
X400304Y421386D02*
D03*
X366268D02*
D03*
X454914Y468376D02*
D03*
X389636D02*
D03*
X328930Y473710D02*
D03*
X291193Y480314D02*
D03*
X431292Y412496D02*
D03*
X460756Y455930D02*
D03*
X485902Y470408D02*
D03*
X466832Y550398D02*
D03*
X457454Y525526D02*
D03*
X332486Y442722D02*
D03*
X360680Y449580D02*
D03*
X465836Y480822D02*
D03*
X385572Y435102D02*
D03*
X364744Y458470D02*
D03*
X342646Y490474D02*
D03*
X250444Y477012D02*
D03*
X284988Y434340D02*
D03*
X314960Y430530D02*
D03*
X328930Y422656D02*
D03*
X357378Y411480D02*
D03*
X391414Y540512D02*
D03*
X558292Y520192D02*
D03*
X394268Y552704D02*
D03*
X520700Y508000D02*
D03*
X452120Y513588D02*
D03*
X220726Y484886D02*
D03*
X337312Y472694D02*
D03*
X377444Y478790D02*
D03*
X490982Y475742D02*
D03*
X302514Y519684D02*
D03*
X536702Y558546D02*
D03*
X531368Y551434D02*
D03*
X504698Y521716D02*
D03*
X432396Y528408D02*
D03*
X392938Y508000D02*
D03*
X288036Y551180D02*
D03*
X410718Y506730D02*
D03*
D32*
X627200Y495300D02*
D03*
Y520700D02*
D03*
Y469900D02*
D03*
Y444500D02*
D03*
X541200D02*
D03*
Y469900D02*
D03*
Y495300D02*
D03*
Y520700D02*
D03*
D33*
X373496Y411596D02*
D03*
X384810Y422910D02*
D03*
D34*
X368184Y533516D02*
D03*
X352627Y517960D02*
D03*
X341314Y529273D02*
D03*
X356870Y544830D02*
D03*
D35*
X327776Y539866D02*
D03*
X339090Y551180D02*
D03*
X367607Y438891D02*
D03*
X356293Y427578D02*
D03*
D36*
X381577Y546793D02*
D03*
X370263Y558107D02*
D03*
X498741Y414713D02*
D03*
X487427Y426027D02*
D03*
D37*
X513080Y540510D02*
D03*
Y524510D02*
D03*
D38*
X423217Y416351D02*
D03*
X417650Y421919D02*
D03*
X411902Y427666D02*
D03*
X406334Y433234D02*
D03*
X400587Y438982D02*
D03*
X395019Y444549D02*
D03*
X389452Y450117D02*
D03*
X383704Y455864D02*
D03*
X378136Y461432D02*
D03*
X372389Y467180D02*
D03*
X366821Y472747D02*
D03*
X448003Y553929D02*
D03*
X453570Y548361D02*
D03*
X459318Y542614D02*
D03*
X464885Y537046D02*
D03*
X470633Y531298D02*
D03*
X476201Y525731D02*
D03*
X481768Y520163D02*
D03*
X487516Y514416D02*
D03*
X493084Y508848D02*
D03*
X498831Y503100D02*
D03*
X504399Y497533D02*
D03*
D39*
X366821D02*
D03*
X372389Y503100D02*
D03*
X378136Y508848D02*
D03*
X383704Y514416D02*
D03*
X389452Y520163D02*
D03*
X395019Y525731D02*
D03*
X400587Y531298D02*
D03*
X406334Y537046D02*
D03*
X411902Y542614D02*
D03*
X417650Y548361D02*
D03*
X423217Y553929D02*
D03*
X504399Y472747D02*
D03*
X498831Y467180D02*
D03*
X493084Y461432D02*
D03*
X487516Y455864D02*
D03*
X481768Y450117D02*
D03*
X476201Y444549D02*
D03*
X470633Y438982D02*
D03*
X464885Y433234D02*
D03*
X459318Y427666D02*
D03*
X453570Y421919D02*
D03*
X448003Y416351D02*
D03*
M02*
