G04 Layer_Physical_Order=1*
G04 Layer_Color=255*
%FSLAX44Y44*%
%MOMM*%
G71*
G01*
G75*
%ADD10R,0.9500X1.0000*%
%ADD11R,1.0000X0.9000*%
%ADD12R,2.0000X1.4001*%
%ADD13R,1.4001X1.2799*%
%ADD14R,1.4001X1.9500*%
%ADD15R,1.4001X0.7000*%
%ADD16R,2.5001X0.8001*%
%ADD17R,2.0000X2.0000*%
%ADD18R,1.8000X1.7000*%
%ADD19R,1.9000X1.8000*%
G04:AMPARAMS|DCode=20|XSize=0.8mm|YSize=1.2mm|CornerRadius=0mm|HoleSize=0mm|Usage=FLASHONLY|Rotation=235.000|XOffset=0mm|YOffset=0mm|HoleType=Round|Shape=Rectangle|*
%AMROTATEDRECTD20*
4,1,4,-0.2621,0.6718,0.7209,-0.0165,0.2621,-0.6718,-0.7209,0.0165,-0.2621,0.6718,0.0*
%
%ADD20ROTATEDRECTD20*%

%ADD21R,2.1500X0.9500*%
%ADD22R,2.1500X3.2500*%
%ADD23C,0.2540*%
%ADD24C,1.2499*%
%ADD25C,0.8001*%
%ADD26C,1.1001*%
%ADD27O,3.5560X1.7780*%
%ADD28C,1.2002*%
%ADD29C,1.1000*%
%ADD30C,0.5000*%
G36*
X697230Y394970D02*
X512713D01*
X512475Y396240D01*
X512721Y396336D01*
X513451Y397035D01*
X515017Y399271D01*
X509021Y403469D01*
X505970Y399112D01*
X509844Y396399D01*
X510205Y396240D01*
X509938Y394970D01*
X480963D01*
X480724Y396240D01*
X480971Y396336D01*
X481701Y397035D01*
X483267Y399271D01*
X477271Y403469D01*
X474220Y399112D01*
X478094Y396399D01*
X478455Y396240D01*
X478188Y394970D01*
X451753D01*
X451515Y396240D01*
X451761Y396336D01*
X452491Y397035D01*
X454057Y399271D01*
X448061Y403469D01*
X445010Y399112D01*
X448884Y396399D01*
X449245Y396240D01*
X448978Y394970D01*
X209550D01*
Y572770D01*
X636868D01*
X637577Y571500D01*
X637320Y570880D01*
Y556880D01*
X637804Y555713D01*
X638970Y555230D01*
X658970D01*
X660136Y555713D01*
X660620Y556880D01*
Y570880D01*
X660363Y571500D01*
X661072Y572770D01*
X697230D01*
Y394970D01*
D02*
G37*
%LPC*%
G36*
X452220Y457200D02*
X446150D01*
Y450880D01*
X449630D01*
X450621Y451077D01*
X451461Y451639D01*
X452023Y452479D01*
X452220Y453470D01*
Y457200D01*
D02*
G37*
G36*
X449766Y467654D02*
X439994D01*
X440064Y467302D01*
X440066Y467259D01*
X439562Y466219D01*
X439313Y465897D01*
X439139Y465863D01*
X438299Y465301D01*
X437737Y464461D01*
X437540Y463470D01*
Y459740D01*
X444880D01*
X452220D01*
Y463470D01*
X452023Y464461D01*
X451461Y465301D01*
X450621Y465863D01*
X450447Y465897D01*
X450198Y466219D01*
X449694Y467259D01*
X449696Y467302D01*
X449766Y467654D01*
D02*
G37*
G36*
X653292Y443872D02*
X652971Y443808D01*
X652649Y443872D01*
X650210Y443387D01*
X649937Y443204D01*
X649615Y443140D01*
X647548Y441759D01*
X647366Y441486D01*
X647093Y441304D01*
X645712Y439237D01*
X645648Y438915D01*
X645466Y438642D01*
X644980Y436204D01*
X645014Y436038D01*
X644949Y435882D01*
X645014Y435726D01*
X644980Y435560D01*
X645466Y433121D01*
X645648Y432849D01*
X645712Y432527D01*
X647093Y430460D01*
X647366Y430277D01*
X647548Y430004D01*
X649615Y428623D01*
X649937Y428559D01*
X650210Y428377D01*
X652649Y427892D01*
X652971Y427956D01*
X653292Y427892D01*
X655731Y428377D01*
X656004Y428559D01*
X656326Y428623D01*
X658393Y430004D01*
X658575Y430277D01*
X658848Y430460D01*
X660229Y432527D01*
X660293Y432849D01*
X660475Y433121D01*
X660960Y435560D01*
X660928Y435726D01*
X660992Y435882D01*
X660928Y436038D01*
X660960Y436204D01*
X660475Y438642D01*
X660293Y438915D01*
X660229Y439237D01*
X658848Y441304D01*
X658575Y441486D01*
X658393Y441759D01*
X656326Y443140D01*
X656004Y443204D01*
X655731Y443387D01*
X653292Y443872D01*
D02*
G37*
G36*
X443610Y457200D02*
X437540D01*
Y453470D01*
X437737Y452479D01*
X438299Y451639D01*
X439139Y451077D01*
X440130Y450880D01*
X443610D01*
Y457200D01*
D02*
G37*
G36*
X497760Y475160D02*
X487760D01*
X486594Y474676D01*
X486110Y473510D01*
Y468295D01*
X480912Y463097D01*
X477915D01*
X477820Y463240D01*
Y472240D01*
X477336Y473406D01*
X476170Y473890D01*
X466170D01*
X465004Y473406D01*
X464520Y472240D01*
Y471299D01*
X463471Y470589D01*
X462381Y470372D01*
X461866Y470028D01*
X458650D01*
X457560Y469812D01*
X456636Y469194D01*
X456018Y468270D01*
X455802Y467180D01*
X456018Y466090D01*
X456054Y466036D01*
X455783Y465855D01*
X454894Y464524D01*
X454581Y462954D01*
X454894Y461384D01*
X455783Y460052D01*
X456189Y459781D01*
Y458254D01*
X455569Y457840D01*
X454679Y456508D01*
X454367Y454938D01*
X454679Y453368D01*
X455569Y452037D01*
X456900Y451148D01*
X458470Y450835D01*
X460040Y451148D01*
X461371Y452037D01*
X462261Y453368D01*
X462535Y454747D01*
X463297Y455276D01*
X464520Y454703D01*
Y447240D01*
X465004Y446074D01*
X466170Y445590D01*
X468321D01*
Y443087D01*
X454477Y429242D01*
X453859Y428318D01*
X453650Y427267D01*
X453642Y427228D01*
X453621Y426800D01*
X453584Y426064D01*
X452519Y425386D01*
Y425386D01*
X447930Y418833D01*
X447657Y417600D01*
X448335Y416535D01*
X458165Y409652D01*
X459398Y409379D01*
X460463Y410058D01*
Y410058D01*
X465051Y416611D01*
X465325Y417843D01*
X464646Y418908D01*
X459340Y422624D01*
Y426048D01*
X473184Y439893D01*
X473184Y439893D01*
X473802Y440817D01*
X474019Y441907D01*
Y445590D01*
X476170D01*
X477336Y446074D01*
X477820Y447240D01*
Y456240D01*
X477777Y456343D01*
X478482Y457399D01*
X482092D01*
X482092Y457399D01*
X483182Y457616D01*
X484106Y458234D01*
X488733Y462860D01*
X497760D01*
X498926Y463344D01*
X499410Y464510D01*
Y473510D01*
X498926Y474676D01*
X497760Y475160D01*
D02*
G37*
G36*
X443610Y486380D02*
X440130D01*
X439139Y486183D01*
X438299Y485621D01*
X437737Y484781D01*
X437540Y483790D01*
Y480060D01*
X443610D01*
Y486380D01*
D02*
G37*
G36*
X449630D02*
X446150D01*
Y480060D01*
X452220D01*
Y483790D01*
X452023Y484781D01*
X451461Y485621D01*
X450621Y486183D01*
X449630Y486380D01*
D02*
G37*
G36*
X401143Y410124D02*
X400447Y409986D01*
X398780Y408872D01*
X397666Y407205D01*
X397527Y406508D01*
X401143D01*
Y410124D01*
D02*
G37*
G36*
X452220Y477520D02*
X444880D01*
X437540D01*
Y473790D01*
X437737Y472799D01*
X438299Y471959D01*
X439139Y471397D01*
X439821Y470194D01*
X449939D01*
X450621Y471397D01*
X451461Y471959D01*
X452023Y472799D01*
X452220Y473790D01*
Y477520D01*
D02*
G37*
G36*
X473889Y414507D02*
X472947Y414140D01*
X472217Y413442D01*
X470651Y411205D01*
X476647Y407007D01*
X479699Y411365D01*
X475824Y414078D01*
X474899Y414485D01*
X473889Y414507D01*
D02*
G37*
G36*
X505639D02*
X504697Y414140D01*
X503967Y413442D01*
X502401Y411205D01*
X508397Y407007D01*
X511449Y411365D01*
X507574Y414078D01*
X506649Y414485D01*
X505639Y414507D01*
D02*
G37*
G36*
X403683Y410124D02*
Y406508D01*
X407299D01*
X407161Y407205D01*
X406047Y408872D01*
X404380Y409986D01*
X403683Y410124D01*
D02*
G37*
G36*
X444679Y414507D02*
X443737Y414140D01*
X443007Y413442D01*
X441441Y411205D01*
X447437Y407007D01*
X450489Y411365D01*
X446614Y414078D01*
X445689Y414485D01*
X444679Y414507D01*
D02*
G37*
G36*
X497760Y459160D02*
X487760D01*
X486594Y458676D01*
X486110Y457510D01*
Y448510D01*
X486594Y447344D01*
X487760Y446860D01*
X489911D01*
Y440039D01*
X483686Y433814D01*
X483069Y432890D01*
X482852Y431800D01*
X482852Y431800D01*
Y427266D01*
X482794Y426064D01*
X481729Y425386D01*
Y425386D01*
X477140Y418833D01*
X476867Y417600D01*
X477546Y416535D01*
X487375Y409652D01*
X488608Y409379D01*
X489673Y410058D01*
Y410058D01*
X494261Y416611D01*
X494534Y417843D01*
X493856Y418908D01*
X488550Y422624D01*
Y430620D01*
X494774Y436845D01*
X494774Y436845D01*
X495392Y437769D01*
X495609Y438859D01*
Y446860D01*
X497760D01*
X498926Y447344D01*
X499410Y448510D01*
Y457510D01*
X498926Y458676D01*
X497760Y459160D01*
D02*
G37*
G36*
X443610Y445740D02*
X440130D01*
X439139Y445543D01*
X438299Y444981D01*
X437737Y444141D01*
X437540Y443150D01*
Y439420D01*
X443610D01*
Y445740D01*
D02*
G37*
G36*
X449630D02*
X446150D01*
Y439420D01*
X452220D01*
Y443150D01*
X452023Y444141D01*
X451461Y444981D01*
X450621Y445543D01*
X449630Y445740D01*
D02*
G37*
G36*
X443610Y436880D02*
X437540D01*
Y433150D01*
X437737Y432159D01*
X438299Y431319D01*
X439139Y430757D01*
X440130Y430560D01*
X443610D01*
Y436880D01*
D02*
G37*
G36*
X452220D02*
X446150D01*
Y430560D01*
X449630D01*
X450621Y430757D01*
X451461Y431319D01*
X452023Y432159D01*
X452220Y433150D01*
Y436880D01*
D02*
G37*
G36*
X513529Y409908D02*
X510478Y405550D01*
X516474Y401352D01*
X518040Y403588D01*
X518447Y404513D01*
X518469Y405523D01*
X518102Y406465D01*
X517404Y407195D01*
X513529Y409908D01*
D02*
G37*
G36*
X469194Y409125D02*
X467629Y406889D01*
X467222Y405964D01*
X467200Y404953D01*
X467566Y404012D01*
X468265Y403282D01*
X472139Y400569D01*
X475190Y404926D01*
X469194Y409125D01*
D02*
G37*
G36*
X439984D02*
X438419Y406889D01*
X438012Y405964D01*
X437990Y404953D01*
X438356Y404012D01*
X439054Y403282D01*
X442929Y400569D01*
X445980Y404926D01*
X439984Y409125D01*
D02*
G37*
G36*
X653292Y523872D02*
X652971Y523808D01*
X652649Y523872D01*
X650210Y523387D01*
X649937Y523204D01*
X649615Y523140D01*
X647548Y521759D01*
X647366Y521486D01*
X647093Y521304D01*
X645712Y519237D01*
X645648Y518915D01*
X645466Y518642D01*
X644980Y516203D01*
X645014Y516038D01*
X644949Y515882D01*
X645014Y515726D01*
X644980Y515560D01*
X645466Y513121D01*
X645648Y512849D01*
X645712Y512527D01*
X647093Y510459D01*
X647366Y510277D01*
X647548Y510004D01*
X649615Y508623D01*
X649937Y508559D01*
X650210Y508377D01*
X652649Y507892D01*
X652971Y507956D01*
X653292Y507892D01*
X655731Y508377D01*
X656004Y508559D01*
X656326Y508623D01*
X658393Y510004D01*
X658575Y510277D01*
X658848Y510459D01*
X660229Y512527D01*
X660293Y512849D01*
X660475Y513121D01*
X660960Y515560D01*
X660928Y515726D01*
X660992Y515882D01*
X660928Y516038D01*
X660960Y516203D01*
X660475Y518642D01*
X660293Y518915D01*
X660229Y519237D01*
X658848Y521304D01*
X658575Y521486D01*
X658393Y521759D01*
X656326Y523140D01*
X656004Y523204D01*
X655731Y523387D01*
X653292Y523872D01*
D02*
G37*
G36*
X500944Y409125D02*
X499379Y406889D01*
X498972Y405964D01*
X498950Y404953D01*
X499316Y404012D01*
X500014Y403282D01*
X503889Y400569D01*
X506940Y404926D01*
X500944Y409125D01*
D02*
G37*
G36*
X658970Y414532D02*
X638970D01*
X637804Y414049D01*
X637320Y412882D01*
Y398882D01*
X637804Y397715D01*
X638970Y397232D01*
X658970D01*
X660136Y397715D01*
X660620Y398882D01*
Y412882D01*
X660136Y414049D01*
X658970Y414532D01*
D02*
G37*
G36*
X528320Y569015D02*
X528320Y569015D01*
X490982D01*
X490982Y569015D01*
X489892Y568798D01*
X488968Y568180D01*
X488968Y568180D01*
X438240Y517453D01*
X431818D01*
X431106Y518694D01*
X431754Y519703D01*
X432453Y519564D01*
X433324Y519391D01*
X434894Y519703D01*
X436225Y520593D01*
X437114Y521924D01*
X437427Y523494D01*
X437114Y525064D01*
X436225Y526395D01*
X435157Y527109D01*
Y529451D01*
X436427Y530130D01*
X437627Y529328D01*
X437949Y529264D01*
X438222Y529081D01*
X440368Y528654D01*
X440534Y528687D01*
X440690Y528623D01*
X440846Y528687D01*
X441012Y528654D01*
X443158Y529081D01*
X443431Y529264D01*
X443753Y529328D01*
X445572Y530543D01*
X445754Y530816D01*
X446027Y530998D01*
X447242Y532818D01*
X447306Y533139D01*
X447489Y533412D01*
X447916Y535558D01*
X447852Y535880D01*
X447916Y536202D01*
X447489Y538348D01*
X447306Y538621D01*
X447242Y538942D01*
X446027Y540762D01*
X445754Y540944D01*
X445572Y541217D01*
X443753Y542433D01*
X443431Y542496D01*
X443158Y542679D01*
X441012Y543106D01*
X440846Y543073D01*
X440690Y543137D01*
X440534Y543073D01*
X440368Y543106D01*
X438222Y542679D01*
X437949Y542496D01*
X437627Y542433D01*
X436427Y541630D01*
X435157Y542309D01*
Y559816D01*
X435157Y559816D01*
X434940Y560906D01*
X434322Y561830D01*
X428734Y567418D01*
X427810Y568036D01*
X426720Y568253D01*
X426720Y568253D01*
X339090D01*
X338000Y568036D01*
X337076Y567418D01*
X337076Y567418D01*
X319594Y549936D01*
X319532Y549949D01*
X317962Y549636D01*
X316631Y548747D01*
X315742Y547416D01*
X315429Y545846D01*
X315742Y544276D01*
X316631Y542945D01*
X317149Y542599D01*
X316764Y541329D01*
X275082D01*
X273992Y541112D01*
X273068Y540494D01*
X273068Y540494D01*
X263742Y531169D01*
X253697D01*
X253444Y532439D01*
X255462Y533275D01*
X257638Y534944D01*
X259307Y537119D01*
X260356Y539653D01*
X260714Y542371D01*
X260356Y545090D01*
X259307Y547623D01*
X257638Y549799D01*
X255462Y551468D01*
X252929Y552517D01*
X250210Y552875D01*
X232430D01*
X229712Y552517D01*
X227178Y551468D01*
X225003Y549799D01*
X223334Y547623D01*
X222284Y545090D01*
X221926Y542371D01*
X222284Y539653D01*
X223334Y537119D01*
X225003Y534944D01*
X227178Y533275D01*
X229712Y532225D01*
X230246Y532155D01*
X230430Y531445D01*
X230409Y530853D01*
X229634Y530334D01*
X229634Y530334D01*
X218712Y519412D01*
X218094Y518488D01*
X217877Y517398D01*
X217877Y517398D01*
Y418846D01*
X217877Y418846D01*
X218094Y417756D01*
X218712Y416832D01*
X228618Y406926D01*
X228618Y406926D01*
X229542Y406308D01*
X230632Y406091D01*
X279180D01*
Y398940D01*
X279664Y397774D01*
X280830Y397290D01*
X300830D01*
X301996Y397774D01*
X302480Y398940D01*
Y417002D01*
X303653Y417488D01*
X304580Y416561D01*
Y398940D01*
X305064Y397774D01*
X306230Y397290D01*
X326230D01*
X327396Y397774D01*
X327880Y398940D01*
Y417002D01*
X329053Y417488D01*
X329980Y416561D01*
Y398940D01*
X330464Y397774D01*
X331630Y397290D01*
X351630D01*
X352796Y397774D01*
X353280Y398940D01*
Y418940D01*
X352796Y420106D01*
X351630Y420590D01*
X334009D01*
X327257Y427341D01*
X327706Y428688D01*
X328363Y428782D01*
X331234Y425911D01*
X331234Y425911D01*
X332158Y425294D01*
X333248Y425077D01*
X366522D01*
X366522Y425077D01*
X367612Y425294D01*
X368536Y425911D01*
X372466Y429841D01*
X373637Y429216D01*
X373595Y429006D01*
X373908Y427436D01*
X374797Y426105D01*
X376128Y425215D01*
X377698Y424903D01*
X379268Y425215D01*
X380599Y426105D01*
X380634Y426157D01*
X425308D01*
X425343Y426105D01*
X426674Y425215D01*
X428244Y424903D01*
X429814Y425215D01*
X431145Y426105D01*
X432034Y427436D01*
X432347Y429006D01*
X432103Y430230D01*
X432828Y431500D01*
X433630D01*
X434796Y431984D01*
X435280Y433150D01*
Y443150D01*
X434796Y444316D01*
X433630Y444800D01*
X431729D01*
Y451820D01*
X433630D01*
X434796Y452304D01*
X435280Y453470D01*
Y463470D01*
X434796Y464636D01*
X433630Y465120D01*
X431729D01*
Y472140D01*
X433630D01*
X434796Y472624D01*
X435280Y473790D01*
Y483790D01*
X434796Y484956D01*
X435373Y486039D01*
X435591Y486364D01*
X435903Y487934D01*
X435798Y488460D01*
X436840Y489730D01*
X450190D01*
X451356Y490214D01*
X451840Y491380D01*
Y509380D01*
X451356Y510546D01*
X450190Y511030D01*
X441385D01*
X441000Y512300D01*
X441434Y512590D01*
X452937Y524093D01*
X454113Y523494D01*
X454426Y521924D01*
X455315Y520593D01*
X456646Y519703D01*
X458216Y519391D01*
X459786Y519703D01*
X461117Y520593D01*
X461152Y520645D01*
X497665D01*
X497665Y520645D01*
X497665Y520645D01*
X499110D01*
X499110Y520645D01*
X500200Y520862D01*
X501124Y521480D01*
X507735Y528091D01*
X509107Y527666D01*
X509290Y526750D01*
X510179Y525419D01*
X510231Y525384D01*
Y514260D01*
X503013Y507042D01*
X501840Y507528D01*
Y509380D01*
X501357Y510546D01*
X500190Y511030D01*
X481190D01*
X480024Y510546D01*
X479541Y509380D01*
Y491380D01*
X479919Y490468D01*
X479380Y489198D01*
X477001D01*
X476462Y490468D01*
X476840Y491380D01*
Y509380D01*
X476357Y510546D01*
X475190Y511030D01*
X474406Y512300D01*
X474511Y512826D01*
X474198Y514396D01*
X473309Y515727D01*
X471978Y516617D01*
X470408Y516929D01*
X468838Y516617D01*
X467507Y515727D01*
X466618Y514396D01*
X466305Y512826D01*
X466420Y512250D01*
X465199Y511030D01*
X456190D01*
X455024Y510546D01*
X454541Y509380D01*
Y491380D01*
X455024Y490214D01*
X455617Y489968D01*
X456148Y488664D01*
X456141Y488481D01*
X455766Y487920D01*
X455453Y486349D01*
X455766Y484780D01*
X456655Y483448D01*
X457986Y482559D01*
X459556Y482247D01*
X461126Y482559D01*
X462457Y483448D01*
X462492Y483501D01*
X467423D01*
X467808Y482231D01*
X467761Y482199D01*
X466871Y480868D01*
X466559Y479298D01*
X466871Y477728D01*
X467761Y476397D01*
X469092Y475508D01*
X470662Y475195D01*
X472232Y475508D01*
X473563Y476397D01*
X473598Y476449D01*
X508168D01*
X508388Y476136D01*
X508184Y474676D01*
X507700Y473510D01*
Y464510D01*
X508184Y463344D01*
X509350Y462860D01*
X519350D01*
X520516Y463344D01*
X521000Y464510D01*
Y473510D01*
X520516Y474676D01*
X519350Y475160D01*
X518391D01*
X517199Y475488D01*
X516982Y476578D01*
X516364Y477502D01*
X512554Y481312D01*
X511630Y481930D01*
X510540Y482147D01*
X510540Y482147D01*
X474817D01*
X474755Y482231D01*
X475394Y483501D01*
X516980D01*
X522738Y477743D01*
Y470696D01*
X522738Y470695D01*
X522955Y469605D01*
X523572Y468681D01*
X528325Y463928D01*
X528223Y462662D01*
X522076Y458230D01*
X520518Y458672D01*
X520516Y458676D01*
X519350Y459160D01*
X509350D01*
X508184Y458676D01*
X507700Y457510D01*
Y448510D01*
X508184Y447344D01*
X509350Y446860D01*
X511501D01*
Y424273D01*
X511501Y424272D01*
X511718Y423182D01*
X511824Y423023D01*
X508890Y418833D01*
X508617Y417600D01*
X509296Y416535D01*
X519125Y409652D01*
X520358Y409379D01*
X521423Y410058D01*
Y410058D01*
X526011Y416611D01*
X526284Y417843D01*
X525606Y418908D01*
X522402Y421152D01*
X522418Y421400D01*
X522796Y422426D01*
X524048Y422676D01*
X525379Y423565D01*
X526269Y424896D01*
X526581Y426466D01*
X526269Y428036D01*
X525379Y429367D01*
X525327Y429402D01*
Y453550D01*
X534320Y460033D01*
X535621D01*
Y459382D01*
X535828Y458883D01*
X536102Y458211D01*
X535445Y457216D01*
X535440Y457213D01*
X534878Y456372D01*
X534681Y455381D01*
Y453151D01*
X544271D01*
X553861D01*
Y455381D01*
X553664Y456372D01*
X553103Y457213D01*
X553098Y457216D01*
X552441Y458211D01*
X552714Y458883D01*
X552921Y459382D01*
Y466382D01*
X552438Y467548D01*
X552087Y467694D01*
Y469068D01*
X552438Y469214D01*
X552921Y470380D01*
Y471226D01*
X553032Y471248D01*
X553956Y471866D01*
X559444Y477354D01*
X559506Y477341D01*
X561076Y477654D01*
X562407Y478543D01*
X563297Y479874D01*
X563609Y481444D01*
X563297Y483014D01*
X562407Y484345D01*
X561076Y485235D01*
X559506Y485547D01*
X557936Y485235D01*
X556605Y484345D01*
X555716Y483014D01*
X555403Y481444D01*
X555416Y481382D01*
X553354Y479321D01*
X553248Y479365D01*
X552742Y480949D01*
X552921Y481381D01*
Y488381D01*
X552438Y489548D01*
X552084Y489694D01*
Y491069D01*
X552438Y491215D01*
X552921Y492382D01*
Y493033D01*
X554228D01*
X555318Y493250D01*
X556242Y493867D01*
X556860Y494791D01*
X557077Y495882D01*
Y512318D01*
X556860Y513408D01*
X556242Y514332D01*
X556242Y514332D01*
X535995Y534580D01*
Y546720D01*
X536047Y546755D01*
X536936Y548086D01*
X537249Y549656D01*
X536936Y551226D01*
X536047Y552557D01*
X534716Y553447D01*
X533146Y553759D01*
X531576Y553447D01*
X530550Y552761D01*
X529510Y553141D01*
X529280Y553324D01*
Y557380D01*
X529083Y558371D01*
X528521Y559211D01*
X527681Y559772D01*
X526690Y559969D01*
X524515D01*
X523807Y560832D01*
X523565Y562047D01*
X524480Y563317D01*
X527140D01*
X539187Y551270D01*
Y537201D01*
X539187Y537200D01*
X539404Y536110D01*
X540022Y535186D01*
X554744Y520464D01*
X554744Y520464D01*
X555668Y519846D01*
X556758Y519629D01*
X599022D01*
X611831Y506820D01*
Y501102D01*
X610601Y500222D01*
Y495300D01*
Y490378D01*
X611831Y489498D01*
Y457300D01*
X598260Y443729D01*
X552921D01*
Y444381D01*
X552714Y444879D01*
X552441Y445551D01*
X553098Y446547D01*
X553103Y446550D01*
X553664Y447390D01*
X553861Y448381D01*
Y450611D01*
X544271D01*
X534681D01*
Y448381D01*
X534878Y447390D01*
X535440Y446550D01*
X535445Y446547D01*
X536102Y445551D01*
X535828Y444879D01*
X535621Y444381D01*
Y437380D01*
X536105Y436214D01*
X536458Y436068D01*
Y434693D01*
X536105Y434546D01*
X535621Y433380D01*
Y426380D01*
X536105Y425213D01*
X536455Y425068D01*
Y423693D01*
X536105Y423548D01*
X535621Y422382D01*
Y415381D01*
X536105Y414215D01*
X537271Y413732D01*
X544031D01*
X544645Y412462D01*
X544321Y411679D01*
Y398880D01*
X544804Y397714D01*
X545970Y397231D01*
X559971D01*
X561137Y397714D01*
X561620Y398880D01*
Y411679D01*
X561137Y412846D01*
X559971Y413329D01*
X553211D01*
X552597Y414599D01*
X552921Y415381D01*
Y422382D01*
X552438Y423548D01*
X552087Y423693D01*
Y425068D01*
X552438Y425213D01*
X552921Y426380D01*
Y433380D01*
X552438Y434546D01*
X552084Y434693D01*
Y436068D01*
X552438Y436214D01*
X552921Y437380D01*
Y438032D01*
X599440D01*
X599440Y438032D01*
X600530Y438249D01*
X601454Y438866D01*
X616694Y454106D01*
X616694Y454106D01*
X617312Y455030D01*
X617529Y456120D01*
X617529Y456121D01*
Y508000D01*
X617529Y508000D01*
X617312Y509090D01*
X616694Y510014D01*
X616694Y510014D01*
X602216Y524492D01*
X601292Y525110D01*
X600202Y525327D01*
X600202Y525327D01*
X557938D01*
X544885Y538380D01*
Y543037D01*
X545941Y543743D01*
X545970Y543730D01*
X559971D01*
X561137Y544213D01*
X561620Y545380D01*
Y564879D01*
X561137Y566046D01*
X559971Y566529D01*
X545970D01*
X544804Y566046D01*
X544321Y564879D01*
Y555990D01*
X543051Y555464D01*
X530334Y568180D01*
X529410Y568798D01*
X528320Y569015D01*
D02*
G37*
G36*
X407299Y403968D02*
X403683D01*
Y400352D01*
X404380Y400491D01*
X406047Y401605D01*
X407161Y403272D01*
X407299Y403968D01*
D02*
G37*
G36*
X401143D02*
X397527D01*
X397666Y403272D01*
X398780Y401605D01*
X400447Y400491D01*
X401143Y400352D01*
Y403968D01*
D02*
G37*
G36*
X452569Y409908D02*
X449518Y405550D01*
X455514Y401352D01*
X457080Y403588D01*
X457487Y404513D01*
X457509Y405523D01*
X457142Y406465D01*
X456444Y407195D01*
X452569Y409908D01*
D02*
G37*
G36*
X592582Y504083D02*
X588966D01*
X589104Y503386D01*
X590218Y501719D01*
X591885Y500605D01*
X592582Y500467D01*
Y504083D01*
D02*
G37*
G36*
X598738D02*
X595122D01*
Y500467D01*
X595818Y500605D01*
X597486Y501719D01*
X598600Y503386D01*
X598738Y504083D01*
D02*
G37*
G36*
X608061Y494030D02*
X604445D01*
X604583Y493334D01*
X605697Y491666D01*
X607364Y490552D01*
X608061Y490414D01*
Y494030D01*
D02*
G37*
G36*
Y500186D02*
X607364Y500048D01*
X605697Y498934D01*
X604583Y497267D01*
X604445Y496570D01*
X608061D01*
Y500186D01*
D02*
G37*
G36*
X595122Y510239D02*
Y506623D01*
X598738D01*
X598600Y507319D01*
X597486Y508986D01*
X595818Y510100D01*
X595122Y510239D01*
D02*
G37*
G36*
X481779Y409908D02*
X478728Y405550D01*
X484724Y401352D01*
X486290Y403588D01*
X486697Y404513D01*
X486719Y405523D01*
X486353Y406465D01*
X485654Y407195D01*
X481779Y409908D01*
D02*
G37*
G36*
X592582Y510239D02*
X591885Y510100D01*
X590218Y508986D01*
X589104Y507319D01*
X588966Y506623D01*
X592582D01*
Y510239D01*
D02*
G37*
%LPD*%
G36*
X513771Y562047D02*
X513529Y560832D01*
X512821Y559969D01*
X508690D01*
X507699Y559772D01*
X506859Y559211D01*
X506297Y558371D01*
X506100Y557380D01*
Y550150D01*
X517690D01*
Y548880D01*
X518960D01*
Y537790D01*
X526690D01*
X527681Y537987D01*
X528521Y538549D01*
X529027Y539306D01*
X529120Y539319D01*
X530297Y538589D01*
Y533400D01*
X530297Y533400D01*
X530514Y532310D01*
X531132Y531386D01*
X549314Y513203D01*
X548828Y512030D01*
X537271D01*
X536757Y512373D01*
Y518160D01*
X536757Y518160D01*
X536540Y519250D01*
X535922Y520174D01*
X535922Y520174D01*
X534916Y521180D01*
X534916Y521180D01*
X520468Y535629D01*
X520468Y535629D01*
X520428Y535668D01*
X519504Y536286D01*
X518414Y536503D01*
X518414Y536503D01*
X509270D01*
X509071Y536463D01*
X507786D01*
X506696Y536246D01*
X505771Y535629D01*
X505771Y535629D01*
X496485Y526343D01*
X461152D01*
X461117Y526395D01*
X459786Y527285D01*
X458216Y527597D01*
X457617Y528773D01*
X492162Y563317D01*
X512856D01*
X513771Y562047D01*
D02*
G37*
G36*
X403041Y557380D02*
Y540380D01*
X403524Y539213D01*
X404690Y538730D01*
X422690D01*
X422865Y538803D01*
X423946Y538081D01*
X423933Y537360D01*
X422827Y536555D01*
X421894Y536741D01*
X420324Y536428D01*
X418993Y535539D01*
X418958Y535487D01*
X328889D01*
X327799Y535270D01*
X326875Y534652D01*
X326875Y534652D01*
X321442Y529219D01*
X320496Y529611D01*
X318531Y529870D01*
X316567Y529611D01*
X314736Y528853D01*
X313165Y527647D01*
X311958Y526075D01*
X311200Y524244D01*
X310942Y522280D01*
X311200Y520316D01*
X311958Y518485D01*
X313165Y516913D01*
X314736Y515707D01*
X316567Y514949D01*
X318531Y514690D01*
X320496Y514949D01*
X322326Y515707D01*
X323898Y516913D01*
X325104Y518485D01*
X325862Y520316D01*
X326121Y522280D01*
X325862Y524244D01*
X325470Y525190D01*
X330069Y529789D01*
X418958D01*
X418993Y529737D01*
X420324Y528848D01*
X421894Y528535D01*
X423109Y528777D01*
X424379Y528048D01*
Y522874D01*
X424327Y522839D01*
X423438Y521508D01*
X423125Y519938D01*
X423367Y518723D01*
X422638Y517453D01*
X410298D01*
X410172Y518723D01*
X411272Y518941D01*
X412603Y519831D01*
X413493Y521162D01*
X413805Y522732D01*
X413493Y524302D01*
X412603Y525633D01*
X411272Y526522D01*
X409702Y526835D01*
X408132Y526522D01*
X406801Y525633D01*
X406766Y525581D01*
X344384D01*
X344383Y525581D01*
X343293Y525364D01*
X342369Y524746D01*
X342369Y524746D01*
X321442Y503819D01*
X320496Y504211D01*
X318531Y504470D01*
X316567Y504211D01*
X314736Y503453D01*
X313165Y502247D01*
X311958Y500675D01*
X311200Y498844D01*
X310942Y496880D01*
X311200Y494916D01*
X311958Y493085D01*
X313165Y491513D01*
X314736Y490307D01*
X316567Y489549D01*
X318531Y489290D01*
X320496Y489549D01*
X322326Y490307D01*
X323898Y491513D01*
X325104Y493085D01*
X325862Y494916D01*
X326121Y496880D01*
X325862Y498844D01*
X325470Y499790D01*
X345563Y519883D01*
X371349D01*
X371734Y518613D01*
X371277Y518307D01*
X371277Y518307D01*
X350963Y497994D01*
X350901Y498006D01*
X349331Y497693D01*
X348000Y496804D01*
X347110Y495473D01*
X346798Y493903D01*
X347110Y492333D01*
X348000Y491002D01*
X349331Y490112D01*
X349494Y490080D01*
X349369Y488810D01*
X348190D01*
Y482740D01*
X360260D01*
Y486220D01*
X360062Y487211D01*
X359501Y488051D01*
X358661Y488613D01*
X357670Y488810D01*
X352433D01*
X352308Y490080D01*
X352471Y490112D01*
X353802Y491002D01*
X354692Y492333D01*
X355004Y493903D01*
X354991Y493965D01*
X374471Y513444D01*
X394094D01*
X394932Y512174D01*
X394910Y512064D01*
X399796D01*
Y509524D01*
X394910D01*
X395048Y508828D01*
X396004Y507397D01*
X396139Y505959D01*
X395772Y505714D01*
X394882Y504383D01*
X394570Y502813D01*
X394882Y501243D01*
X395772Y499912D01*
X397103Y499022D01*
X398673Y498710D01*
X400243Y499022D01*
X401210Y499669D01*
X402430Y499486D01*
X402720Y499342D01*
X402774Y499213D01*
X403940Y498730D01*
X413940D01*
X415106Y499213D01*
X415590Y500380D01*
Y503641D01*
X416860Y503766D01*
X417088Y502620D01*
X417977Y501289D01*
X418029Y501254D01*
Y496918D01*
X415566Y494455D01*
X415106Y494546D01*
X413940Y495029D01*
X403940D01*
X402774Y494546D01*
X402290Y493380D01*
Y488962D01*
X401020Y488237D01*
X399796Y488481D01*
X399734Y488469D01*
X390380Y497822D01*
X389456Y498440D01*
X388366Y498657D01*
X388366Y498657D01*
X380492D01*
X380492Y498657D01*
X379402Y498440D01*
X378478Y497822D01*
X378478Y497822D01*
X375430Y494774D01*
X374812Y493850D01*
X374595Y492760D01*
X374595Y492760D01*
Y477938D01*
X369660Y473003D01*
X358510D01*
X358385Y474273D01*
X358661Y474328D01*
X359501Y474889D01*
X360062Y475729D01*
X360260Y476720D01*
Y480200D01*
X333580D01*
Y476720D01*
X333777Y475729D01*
X334339Y474889D01*
X334731Y474627D01*
X334860Y473295D01*
X334818Y473158D01*
X334665Y473055D01*
X333775Y471724D01*
X333463Y470154D01*
X333775Y468584D01*
X334665Y467253D01*
X335996Y466363D01*
X337122Y466140D01*
X336996Y464870D01*
X336170D01*
X335003Y464386D01*
X334520Y463220D01*
Y461319D01*
X332721D01*
X325470Y468569D01*
X325862Y469515D01*
X326121Y471480D01*
X325862Y473444D01*
X325104Y475275D01*
X323898Y476847D01*
X322326Y478053D01*
X320496Y478811D01*
X318531Y479070D01*
X316567Y478811D01*
X314736Y478053D01*
X313165Y476847D01*
X311958Y475275D01*
X311200Y473444D01*
X310942Y471480D01*
X311200Y469515D01*
X311958Y467685D01*
X313165Y466113D01*
X314736Y464907D01*
X316567Y464149D01*
X318531Y463890D01*
X320496Y464149D01*
X321442Y464541D01*
X329527Y456456D01*
X329527Y456456D01*
X330451Y455838D01*
X331541Y455621D01*
X334520D01*
Y453720D01*
X335003Y452554D01*
X336170Y452070D01*
X345078D01*
X345325Y450896D01*
X345305Y450800D01*
X344019Y449941D01*
X343129Y448610D01*
X342817Y447040D01*
X343129Y445470D01*
X344019Y444139D01*
X344071Y444104D01*
Y441869D01*
X336170D01*
X335003Y441386D01*
X334520Y440220D01*
Y439983D01*
X326219D01*
X325593Y441253D01*
X325992Y441773D01*
X326852Y443850D01*
X326978Y444810D01*
X318531D01*
Y447350D01*
X326978D01*
X326852Y448310D01*
X325992Y450387D01*
X324623Y452171D01*
X322839Y453540D01*
X320761Y454401D01*
X318938Y454641D01*
X318829Y454702D01*
X318171Y455504D01*
X317993Y455904D01*
X318175Y456820D01*
X317862Y458390D01*
X316973Y459721D01*
X315642Y460611D01*
X314072Y460923D01*
X312502Y460611D01*
X311171Y459721D01*
X311136Y459669D01*
X303830D01*
Y461320D01*
X303346Y462486D01*
X302180Y462970D01*
X292180D01*
X291014Y462486D01*
X290530Y461320D01*
Y452320D01*
X290128Y451717D01*
X283670D01*
Y452869D01*
X283186Y454036D01*
X282020Y454519D01*
X257019D01*
X256849Y454632D01*
Y467837D01*
X257019Y467951D01*
X282020D01*
X283186Y468434D01*
X283670Y469600D01*
Y470752D01*
X290530D01*
Y468320D01*
X291014Y467154D01*
X292180Y466670D01*
X302180D01*
X303346Y467154D01*
X303830Y468320D01*
Y477320D01*
X303346Y478486D01*
X302180Y478970D01*
X292180D01*
X291014Y478486D01*
X290530Y477320D01*
Y476450D01*
X283670D01*
Y477601D01*
X283186Y478768D01*
X282020Y479251D01*
X257019D01*
X256849Y479365D01*
Y488376D01*
X257019Y488489D01*
X282020D01*
X283186Y488972D01*
X283670Y490139D01*
Y491291D01*
X290530D01*
Y489150D01*
X291014Y487984D01*
X292180Y487500D01*
X302180D01*
X303346Y487984D01*
X303830Y489150D01*
Y498150D01*
X303346Y499316D01*
X302180Y499800D01*
X292180D01*
X291014Y499316D01*
X290530Y498150D01*
Y496988D01*
X283670D01*
Y498140D01*
X283186Y499306D01*
X282020Y499789D01*
X260113D01*
X259627Y500963D01*
X265466Y506801D01*
X290530D01*
Y505150D01*
X291014Y503984D01*
X292180Y503500D01*
X302180D01*
X303346Y503984D01*
X303830Y505150D01*
Y514150D01*
X303346Y515316D01*
X302180Y515800D01*
X292180D01*
X291014Y515316D01*
X290530Y514150D01*
Y512499D01*
X284562D01*
X284251Y512957D01*
X283999Y513769D01*
X284413Y514388D01*
X284610Y515379D01*
Y518109D01*
X254429D01*
Y515379D01*
X254626Y514388D01*
X255188Y513548D01*
X256028Y512986D01*
X257019Y512789D01*
X261669D01*
X262029Y512116D01*
X262126Y511519D01*
X251986Y501378D01*
X251368Y500454D01*
X251151Y499364D01*
X251151Y499364D01*
Y441960D01*
X251151Y441960D01*
X251368Y440870D01*
X251986Y439946D01*
X257194Y434738D01*
X256355Y433781D01*
X255462Y434465D01*
X252929Y435515D01*
X250210Y435873D01*
X232430D01*
X229712Y435515D01*
X227178Y434465D01*
X225003Y432796D01*
X224777Y432502D01*
X223575Y432910D01*
Y516218D01*
X232828Y525471D01*
X253834D01*
X254443Y524626D01*
X254592Y524201D01*
X254429Y523380D01*
Y520649D01*
X268249D01*
Y526324D01*
X267870Y527239D01*
X276262Y535631D01*
X324176D01*
X324177Y535631D01*
X325267Y535848D01*
X326191Y536466D01*
X347201Y557475D01*
X402977D01*
X403041Y557380D01*
D02*
G37*
%LPC*%
G36*
X490690Y543137D02*
X490534Y543073D01*
X490369Y543106D01*
X488223Y542679D01*
X487950Y542496D01*
X487628Y542433D01*
X485809Y541217D01*
X485626Y540944D01*
X485354Y540762D01*
X484138Y538942D01*
X484074Y538621D01*
X483892Y538348D01*
X483465Y536202D01*
X483529Y535880D01*
X483465Y535558D01*
X483892Y533412D01*
X484074Y533139D01*
X484138Y532818D01*
X485354Y530998D01*
X485626Y530816D01*
X485809Y530543D01*
X487628Y529328D01*
X487950Y529264D01*
X488223Y529081D01*
X490369Y528654D01*
X490534Y528687D01*
X490690Y528623D01*
X490846Y528687D01*
X491012Y528654D01*
X493158Y529081D01*
X493431Y529264D01*
X493753Y529328D01*
X495572Y530543D01*
X495754Y530816D01*
X496027Y530998D01*
X497243Y532818D01*
X497307Y533139D01*
X497489Y533412D01*
X497916Y535558D01*
X497852Y535880D01*
X497916Y536202D01*
X497489Y538348D01*
X497307Y538621D01*
X497243Y538942D01*
X496027Y540762D01*
X495755Y540944D01*
X495572Y541217D01*
X493753Y542433D01*
X493431Y542496D01*
X493158Y542679D01*
X491012Y543106D01*
X490846Y543073D01*
X490690Y543137D01*
D02*
G37*
G36*
X516420Y547610D02*
X506100D01*
Y540380D01*
X506297Y539389D01*
X506859Y538549D01*
X507699Y537987D01*
X508690Y537790D01*
X516420D01*
Y547610D01*
D02*
G37*
G36*
X291084Y533968D02*
X290387Y533830D01*
X288720Y532716D01*
X287606Y531049D01*
X287468Y530352D01*
X291084D01*
Y533968D01*
D02*
G37*
G36*
X297240Y527812D02*
X293624D01*
Y524196D01*
X294321Y524334D01*
X295988Y525448D01*
X297102Y527116D01*
X297240Y527812D01*
D02*
G37*
G36*
X293624Y533968D02*
Y530352D01*
X297240D01*
X297102Y531049D01*
X295988Y532716D01*
X294321Y533830D01*
X293624Y533968D01*
D02*
G37*
G36*
X345650Y488810D02*
X336170D01*
X335179Y488613D01*
X334339Y488051D01*
X333777Y487211D01*
X333580Y486220D01*
Y482740D01*
X345650D01*
Y488810D01*
D02*
G37*
G36*
X242019Y468628D02*
X241863Y468564D01*
X241697Y468597D01*
X239551Y468170D01*
X239278Y467988D01*
X238956Y467924D01*
X237137Y466708D01*
X236954Y466435D01*
X236682Y466253D01*
X235466Y464433D01*
X235402Y464112D01*
X235220Y463839D01*
X234793Y461693D01*
X234857Y461371D01*
X234793Y461049D01*
X235220Y458903D01*
X235402Y458630D01*
X235466Y458308D01*
X236682Y456489D01*
X236954Y456306D01*
X237137Y456034D01*
X238956Y454818D01*
X239278Y454754D01*
X239551Y454572D01*
X241697Y454145D01*
X241863Y454178D01*
X242019Y454113D01*
X242175Y454178D01*
X242341Y454145D01*
X244487Y454572D01*
X244760Y454754D01*
X245081Y454818D01*
X246901Y456034D01*
X247083Y456306D01*
X247356Y456489D01*
X248572Y458308D01*
X248636Y458630D01*
X248818Y458903D01*
X249245Y461049D01*
X249181Y461371D01*
X249245Y461693D01*
X248818Y463839D01*
X248636Y464112D01*
X248572Y464433D01*
X247356Y466253D01*
X247083Y466435D01*
X246901Y466708D01*
X245081Y467924D01*
X244760Y467988D01*
X244487Y468170D01*
X242341Y468597D01*
X242175Y468564D01*
X242019Y468628D01*
D02*
G37*
G36*
Y513627D02*
X241863Y513562D01*
X241697Y513595D01*
X239551Y513168D01*
X239278Y512986D01*
X238956Y512922D01*
X237137Y511706D01*
X236954Y511434D01*
X236682Y511251D01*
X235466Y509432D01*
X235402Y509110D01*
X235220Y508837D01*
X234793Y506691D01*
X234857Y506369D01*
X234793Y506048D01*
X235220Y503901D01*
X235402Y503629D01*
X235466Y503307D01*
X236682Y501487D01*
X236954Y501305D01*
X237137Y501032D01*
X238956Y499817D01*
X239278Y499753D01*
X239551Y499570D01*
X241697Y499143D01*
X241863Y499176D01*
X242019Y499112D01*
X242175Y499176D01*
X242341Y499143D01*
X244487Y499570D01*
X244760Y499753D01*
X245081Y499817D01*
X246901Y501032D01*
X247083Y501305D01*
X247356Y501487D01*
X248572Y503307D01*
X248636Y503629D01*
X248818Y503901D01*
X249245Y506048D01*
X249181Y506369D01*
X249245Y506691D01*
X248818Y508837D01*
X248636Y509110D01*
X248572Y509432D01*
X247356Y511251D01*
X247083Y511434D01*
X246901Y511706D01*
X245081Y512922D01*
X244760Y512986D01*
X244487Y513168D01*
X242341Y513595D01*
X242175Y513562D01*
X242019Y513627D01*
D02*
G37*
G36*
X291084Y527812D02*
X287468D01*
X287606Y527116D01*
X288720Y525448D01*
X290387Y524334D01*
X291084Y524196D01*
Y527812D01*
D02*
G37*
G36*
X282020Y525970D02*
X270789D01*
Y520649D01*
X284610D01*
Y523380D01*
X284413Y524371D01*
X283851Y525211D01*
X283011Y525772D01*
X282020Y525970D01*
D02*
G37*
%LPD*%
D10*
X444880Y438150D02*
D03*
X428880D02*
D03*
X444880Y478790D02*
D03*
X428880D02*
D03*
Y458470D02*
D03*
X444880D02*
D03*
D11*
X297180Y509650D02*
D03*
Y493650D02*
D03*
X408940Y504880D02*
D03*
Y488880D02*
D03*
X471170Y467740D02*
D03*
Y451740D02*
D03*
X297180Y472820D02*
D03*
Y456820D02*
D03*
X492760Y469010D02*
D03*
Y453010D02*
D03*
X514350Y469010D02*
D03*
Y453010D02*
D03*
D12*
X648970Y563880D02*
D03*
Y405882D02*
D03*
D13*
X552971Y405280D02*
D03*
D14*
Y555130D02*
D03*
D15*
X544271Y506880D02*
D03*
Y495882D02*
D03*
Y484881D02*
D03*
Y473880D02*
D03*
Y462882D02*
D03*
Y451881D02*
D03*
Y440881D02*
D03*
Y429880D02*
D03*
Y418882D02*
D03*
D16*
X269519Y448869D02*
D03*
Y519379D02*
D03*
Y473601D02*
D03*
Y494139D02*
D03*
D17*
X341630Y408940D02*
D03*
X316230D02*
D03*
X290830D02*
D03*
D18*
X517690Y548880D02*
D03*
X413690D02*
D03*
D19*
X465690Y500380D02*
D03*
X490690D02*
D03*
X440690D02*
D03*
D20*
X447749Y405238D02*
D03*
X456491Y417722D02*
D03*
X476959Y405238D02*
D03*
X485701Y417722D02*
D03*
X508709Y405238D02*
D03*
X517451Y417722D02*
D03*
D21*
X346920Y481470D02*
D03*
Y458470D02*
D03*
Y435470D02*
D03*
D22*
X404920Y458470D02*
D03*
D23*
X518668Y548880D02*
Y560832D01*
X406654Y481878D02*
Y488880D01*
X264922Y528320D02*
X275082Y538480D01*
X231648Y528320D02*
X264922D01*
X220726Y517398D02*
X231648Y528320D01*
X509230Y533614D02*
X518454D01*
X507786D02*
X509230D01*
X509270Y533654D01*
X499110Y523494D02*
X509230Y533614D01*
X497665Y523494D02*
X499110D01*
X458216D02*
X497665D01*
X532902Y519166D02*
X533908Y518160D01*
X518454Y533614D02*
X532902Y519166D01*
X518414Y533654D02*
X518454Y533614D01*
X339090Y565404D02*
X426720D01*
X398673Y502813D02*
X400740Y504880D01*
X593852Y479821D02*
X609331Y495300D01*
X565912Y451881D02*
X593852Y479821D01*
X282651Y519379D02*
X302565D01*
X309626Y484378D02*
Y512318D01*
Y467868D02*
Y484378D01*
X462910Y467180D02*
X463471Y467740D01*
X458684Y462954D02*
X462910Y467180D01*
X470610D01*
X458650D02*
X462910D01*
X319532Y545846D02*
X339090Y565404D01*
X426720D02*
X432308Y559816D01*
Y524510D02*
Y559816D01*
X497665Y523494D02*
X507786Y533614D01*
X533908Y487680D02*
Y518160D01*
Y487680D02*
X544271Y484881D01*
X432308Y524510D02*
X433324Y523494D01*
X509270Y533654D02*
X518414D01*
X532902Y487680D02*
Y519166D01*
Y487680D02*
X544271Y484881D01*
X522478Y455008D02*
X533400Y462882D01*
X522478Y426466D02*
Y455008D01*
X276098Y421894D02*
X303276D01*
X316230Y408940D01*
X350901Y493903D02*
X373291Y516293D01*
X404645D01*
X406334Y514604D01*
X439420D01*
X490982Y566166D01*
X528320D01*
X542036Y552450D01*
Y537200D02*
Y552450D01*
Y537200D02*
X556758Y522478D01*
X600202D01*
X614680Y508000D01*
Y456120D02*
Y508000D01*
X599440Y440881D02*
X614680Y456120D01*
X544271Y440881D02*
X599440D01*
X544271Y495882D02*
X554228D01*
Y512318D01*
X533146Y533400D02*
X554228Y512318D01*
X533146Y533400D02*
Y549656D01*
X302565Y519379D02*
X309626Y512318D01*
Y484378D02*
X312534Y481470D01*
X346920D01*
X318531Y446080D02*
Y453659D01*
X322072Y457200D01*
X316738Y462534D02*
X322072Y457200D01*
X314960Y462534D02*
X316738D01*
X309626Y467868D02*
X314960Y462534D01*
X593852Y479821D02*
Y505353D01*
X377698Y429006D02*
X428244D01*
X346920Y435470D02*
Y437134D01*
Y447040D01*
X269519Y448869D02*
X296367D01*
X308102Y437134D01*
X388366Y495808D02*
X399796Y484378D01*
X380492Y495808D02*
X388366D01*
X377444Y492760D02*
X380492Y495808D01*
X377444Y476758D02*
Y492760D01*
X370840Y470154D02*
X377444Y476758D01*
X337566Y470154D02*
X370840D01*
X297180Y456820D02*
X314072D01*
X408940Y488880D02*
X414020D01*
X420878Y495738D01*
Y504190D01*
X427228Y519938D02*
Y557276D01*
X424180Y560324D02*
X427228Y557276D01*
X346021Y560324D02*
X424180D01*
X324177Y538480D02*
X346021Y560324D01*
X275082Y538480D02*
X324177D01*
X220726Y418846D02*
Y517398D01*
Y418846D02*
X230632Y408940D01*
X290830D01*
X331541Y458470D02*
X346920D01*
X318531Y471480D02*
X331541Y458470D01*
X533400Y462882D02*
X544271D01*
X525587Y470695D02*
X533400Y462882D01*
X525587Y470695D02*
Y478923D01*
X518160Y486349D02*
X525587Y478923D01*
X459556Y486349D02*
X518160D01*
X432054Y500380D02*
X440690D01*
X431800Y487934D02*
X432054Y488188D01*
X406654Y488880D02*
X408940D01*
X403860Y479084D02*
X406654Y481878D01*
X394930Y479084D02*
X403860D01*
X383540Y490474D02*
X394930Y479084D01*
X399034Y510032D02*
X399796Y510794D01*
X384048Y510032D02*
X399034D01*
X371856Y497840D02*
X384048Y510032D01*
X371856Y487566D02*
Y497840D01*
X365760Y481470D02*
X371856Y487566D01*
X346920Y481470D02*
X365760D01*
X418338Y438404D02*
X419608Y439674D01*
X377001Y438404D02*
X418338D01*
X366522Y427925D02*
X377001Y438404D01*
X333248Y427925D02*
X366522D01*
X329119Y432054D02*
X333248Y427925D01*
X305080Y432054D02*
X329119D01*
X301270Y435864D02*
X305080Y432054D01*
X260096Y435864D02*
X301270D01*
X254000Y441960D02*
X260096Y435864D01*
X254000Y441960D02*
Y499364D01*
X264286Y509650D01*
X297180D01*
X323596Y426974D02*
X341630Y408940D01*
X298704Y426974D02*
X323596D01*
X296418Y429260D02*
X298704Y426974D01*
X344383Y522732D02*
X409702D01*
X318531Y496880D02*
X344383Y522732D01*
X328889Y532638D02*
X421894D01*
X318531Y522280D02*
X328889Y532638D01*
X517690Y548880D02*
X518668D01*
X508709Y405238D02*
X521570D01*
X527812Y411480D01*
Y446293D01*
X533400Y451881D01*
X544271D01*
X514350Y424272D02*
Y453010D01*
Y424272D02*
X517451Y421172D01*
Y417722D02*
Y421172D01*
X463471Y467740D02*
X471170D01*
X458470Y454938D02*
X463780Y460248D01*
X482092D01*
X490854Y469010D01*
X492760D01*
X490690Y500380D02*
X500380D01*
X513080Y513080D01*
Y528320D01*
X282651Y519379D02*
X292354Y529082D01*
X269519Y519379D02*
X282651D01*
X444880Y468924D02*
Y478790D01*
Y458470D02*
Y468924D01*
X470662Y479298D02*
X510540D01*
X514350Y475488D01*
Y469010D02*
Y475488D01*
X470408Y512210D02*
Y512826D01*
X465690Y507492D02*
X470408Y512210D01*
X465690Y500380D02*
Y507492D01*
X428880Y478790D02*
Y482600D01*
X426466D02*
Y509524D01*
X408940Y504880D02*
Y509524D01*
X400740Y504880D02*
X408940D01*
X544271Y451881D02*
X565912D01*
X544271Y473880D02*
X551942D01*
X559506Y481444D01*
X402413Y405238D02*
X447749D01*
X446111Y406385D02*
X447749Y405238D01*
X444754Y406385D02*
X446111D01*
X444754D02*
Y415706D01*
X444880Y415832D01*
Y438150D01*
X471170Y441907D02*
Y451740D01*
X456491Y427228D02*
X471170Y441907D01*
X456491Y417722D02*
Y427228D01*
X404920Y458470D02*
X428880D01*
Y478790D01*
Y438150D02*
Y458470D01*
X346920D02*
X404920D01*
X476959Y405238D02*
X508709D01*
X447749D02*
X476959D01*
X444880Y438150D02*
Y458470D01*
X492760Y438859D02*
Y453010D01*
X485701Y431800D02*
X492760Y438859D01*
X485701Y417722D02*
Y431800D01*
X296691Y494139D02*
X297180Y493650D01*
X296399Y473601D02*
X297180Y472820D01*
X269519Y473601D02*
X296399D01*
X269519Y494139D02*
X296691D01*
X470610Y467180D02*
X471170Y467740D01*
X432054Y488188D02*
Y500380D01*
X426466Y482600D02*
X428880D01*
X408940Y509524D02*
X426466D01*
X308102Y437134D02*
X346920D01*
D24*
X652971Y515882D02*
D03*
Y435882D02*
D03*
D25*
X233319Y542371D02*
D03*
X237320D02*
D03*
X249319D02*
D03*
X245321D02*
D03*
X233319Y425369D02*
D03*
X237320D02*
D03*
X249319D02*
D03*
X245321D02*
D03*
D26*
X242019Y461371D02*
D03*
Y506369D02*
D03*
D27*
X241320Y425369D02*
D03*
Y542371D02*
D03*
D28*
X318531Y522280D02*
D03*
Y496880D02*
D03*
Y471480D02*
D03*
Y446080D02*
D03*
D29*
X490690Y535880D02*
D03*
X440690D02*
D03*
D30*
X319532Y545846D02*
D03*
X433324Y523494D02*
D03*
X458216D02*
D03*
X522478Y426466D02*
D03*
X276098Y421894D02*
D03*
X350901Y493903D02*
D03*
X533146Y549656D02*
D03*
X593852Y505353D02*
D03*
X377698Y429006D02*
D03*
X428244D02*
D03*
X346920Y447040D02*
D03*
X399796Y484378D02*
D03*
X337566Y470154D02*
D03*
X314072Y456820D02*
D03*
X420878Y504190D02*
D03*
X427228Y519938D02*
D03*
X459556Y486349D02*
D03*
X431800Y487934D02*
D03*
X383540Y490474D02*
D03*
X399796Y510794D02*
D03*
X419608Y439674D02*
D03*
X296418Y429260D02*
D03*
X409702Y522732D02*
D03*
X421894Y532638D02*
D03*
X518668Y560832D02*
D03*
X458684Y462954D02*
D03*
X458470Y454938D02*
D03*
X513080Y528320D02*
D03*
X292354Y529082D02*
D03*
X444880Y468924D02*
D03*
X470662Y479298D02*
D03*
X470408Y512826D02*
D03*
X398673Y502813D02*
D03*
X609331Y495300D02*
D03*
X559506Y481444D02*
D03*
X402413Y405238D02*
D03*
M02*
