G04 Layer_Color=16711935*
%FSLAX44Y44*%
%MOMM*%
G71*
G01*
G75*
%ADD47R,2.2032X2.2032*%
%ADD53C,1.4531*%
%ADD54C,1.0033*%
%ADD55C,1.3033*%
%ADD56O,3.7592X1.9812*%
%ADD57C,1.4034*%
%ADD58C,1.3032*%
%ADD59C,0.7032*%
G04:AMPARAMS|DCode=60|XSize=0.6032mm|YSize=2.2032mm|CornerRadius=0mm|HoleSize=0mm|Usage=FLASHONLY|Rotation=225.000|XOffset=0mm|YOffset=0mm|HoleType=Round|Shape=Rectangle|*
%AMROTATEDRECTD60*
4,1,4,-0.5657,0.9922,0.9922,-0.5657,0.5657,-0.9922,-0.9922,0.5657,-0.5657,0.9922,0.0*
%
%ADD60ROTATEDRECTD60*%

G04:AMPARAMS|DCode=61|XSize=1.1532mm|YSize=1.2032mm|CornerRadius=0mm|HoleSize=0mm|Usage=FLASHONLY|Rotation=135.000|XOffset=0mm|YOffset=0mm|HoleType=Round|Shape=Rectangle|*
%AMROTATEDRECTD61*
4,1,4,0.8331,0.0177,-0.0177,-0.8331,-0.8331,-0.0177,0.0177,0.8331,0.8331,0.0177,0.0*
%
%ADD61ROTATEDRECTD61*%

G04:AMPARAMS|DCode=62|XSize=0.7112mm|YSize=1.6764mm|CornerRadius=0mm|HoleSize=0mm|Usage=FLASHONLY|Rotation=225.000|XOffset=0mm|YOffset=0mm|HoleType=Round|Shape=Rectangle|*
%AMROTATEDRECTD62*
4,1,4,-0.3412,0.8441,0.8441,-0.3412,0.3412,-0.8441,-0.8441,0.3412,-0.3412,0.8441,0.0*
%
%ADD62ROTATEDRECTD62*%

G04:AMPARAMS|DCode=63|XSize=0.7112mm|YSize=1.6764mm|CornerRadius=0mm|HoleSize=0mm|Usage=FLASHONLY|Rotation=135.000|XOffset=0mm|YOffset=0mm|HoleType=Round|Shape=Rectangle|*
%AMROTATEDRECTD63*
4,1,4,0.8441,0.3412,-0.3412,-0.8441,-0.8441,-0.3412,0.3412,0.8441,0.8441,0.3412,0.0*
%
%ADD63ROTATEDRECTD63*%

G04:AMPARAMS|DCode=64|XSize=1.1532mm|YSize=1.2032mm|CornerRadius=0mm|HoleSize=0mm|Usage=FLASHONLY|Rotation=45.000|XOffset=0mm|YOffset=0mm|HoleType=Round|Shape=Rectangle|*
%AMROTATEDRECTD64*
4,1,4,0.0177,-0.8331,-0.8331,0.0177,-0.0177,0.8331,0.8331,-0.0177,0.0177,-0.8331,0.0*
%
%ADD64ROTATEDRECTD64*%

%ADD65R,2.6432X1.3332*%
G36*
X679245Y465494D02*
X679304Y465465D01*
X679333Y465435D01*
X679392Y465377D01*
X679450Y465289D01*
Y465201D01*
Y465172D01*
Y458524D01*
X679421Y458348D01*
X679362Y458231D01*
X679275Y458143D01*
X679245Y458114D01*
X679070Y458026D01*
X678923Y457938D01*
X678806Y457909D01*
X678747Y457879D01*
X678542Y457821D01*
X678396Y457791D01*
X678279Y457762D01*
X678220D01*
X678045Y457733D01*
X677693D01*
X677576Y457762D01*
X677517Y457791D01*
X677488D01*
X677430Y457879D01*
X677400Y457967D01*
Y458055D01*
Y458084D01*
Y464732D01*
X677430Y464879D01*
X677517Y465025D01*
X677576Y465084D01*
X677605Y465113D01*
X677752Y465201D01*
X677927Y465289D01*
X678045Y465318D01*
X678074Y465347D01*
X678279Y465406D01*
X678425Y465435D01*
X678542Y465465D01*
X678601D01*
X678777Y465494D01*
X678894Y465523D01*
X679128D01*
X679245Y465494D01*
D02*
G37*
G36*
X671455Y476886D02*
X671572Y476857D01*
X671601Y476828D01*
X671660Y476740D01*
Y476623D01*
Y476535D01*
X671631Y476505D01*
X671309Y475539D01*
X671045Y474602D01*
X670811Y473723D01*
X670694Y473313D01*
X670606Y472933D01*
X670547Y472581D01*
X670459Y472259D01*
X670401Y471966D01*
X670371Y471732D01*
X670342Y471556D01*
X670313Y471410D01*
X670284Y471322D01*
Y471292D01*
X670137Y470326D01*
X670020Y469389D01*
X669932Y468510D01*
X669903Y468100D01*
X669874Y467719D01*
X669844Y467368D01*
Y467075D01*
Y466782D01*
X669815Y466548D01*
Y466372D01*
Y466226D01*
Y466138D01*
Y466109D01*
X669844Y465142D01*
X669903Y464235D01*
X669961Y463385D01*
X670020Y463004D01*
X670049Y462624D01*
X670108Y462302D01*
X670137Y462009D01*
X670166Y461745D01*
X670225Y461511D01*
X670254Y461335D01*
Y461218D01*
X670284Y461130D01*
Y461101D01*
X670459Y460193D01*
X670664Y459344D01*
X670899Y458553D01*
X671104Y457850D01*
X671221Y457528D01*
X671309Y457264D01*
X671396Y457001D01*
X671455Y456796D01*
X671514Y456649D01*
X671572Y456532D01*
X671601Y456444D01*
Y456415D01*
X671660Y456239D01*
Y456122D01*
Y456034D01*
X671631Y456005D01*
X671484Y455917D01*
X671279Y455829D01*
X671104Y455771D01*
X671074Y455742D01*
X671045D01*
X670811Y455712D01*
X670518D01*
X670401Y455742D01*
X670313Y455800D01*
X670284Y455829D01*
X670254Y455859D01*
X669903Y456708D01*
X669581Y457557D01*
X669317Y458377D01*
X669083Y459109D01*
X668995Y459461D01*
X668907Y459754D01*
X668849Y460017D01*
X668790Y460252D01*
X668732Y460427D01*
X668702Y460574D01*
X668673Y460662D01*
Y460691D01*
X668497Y461657D01*
X668351Y462594D01*
X668263Y463502D01*
X668204Y463912D01*
X668175Y464322D01*
Y464674D01*
X668146Y464996D01*
Y465289D01*
X668116Y465523D01*
Y465728D01*
Y465874D01*
Y465962D01*
Y465992D01*
Y466519D01*
X668146Y466987D01*
X668175Y467456D01*
X668204Y467866D01*
X668234Y468217D01*
X668263Y468481D01*
X668292Y468657D01*
Y468715D01*
X668351Y469213D01*
X668409Y469682D01*
X668497Y470121D01*
X668556Y470502D01*
X668644Y470853D01*
X668673Y471087D01*
X668732Y471263D01*
Y471322D01*
X668849Y471790D01*
X668936Y472259D01*
X669054Y472698D01*
X669171Y473108D01*
X669259Y473430D01*
X669346Y473665D01*
X669376Y473840D01*
X669405Y473899D01*
X669698Y474865D01*
X669844Y475305D01*
X669991Y475685D01*
X670108Y476007D01*
X670196Y476271D01*
X670254Y476447D01*
X670284Y476505D01*
X670342Y476564D01*
X670401Y476623D01*
X670459Y476681D01*
X670489D01*
X670635Y476769D01*
X670811Y476828D01*
X670957Y476886D01*
X671016D01*
X671279Y476915D01*
X671455Y476886D01*
D02*
G37*
G36*
X686567Y467222D02*
X686918Y467163D01*
X687065Y467134D01*
X687182Y467104D01*
X687240Y467075D01*
X687270D01*
X687650Y466899D01*
X687972Y466724D01*
X688090Y466636D01*
X688177Y466548D01*
X688236Y466519D01*
X688265Y466489D01*
X688412Y466343D01*
X688558Y466167D01*
X688792Y465816D01*
X688851Y465640D01*
X688910Y465523D01*
X688968Y465435D01*
Y465406D01*
X689056Y465142D01*
X689144Y464850D01*
X689202Y464557D01*
X689232Y464293D01*
X689261Y464030D01*
Y463854D01*
Y463737D01*
Y463678D01*
Y463297D01*
X689232Y462975D01*
X689173Y462653D01*
X689144Y462389D01*
X689085Y462155D01*
X689027Y462009D01*
X688997Y461892D01*
Y461862D01*
X688819Y461378D01*
X688997Y460808D01*
X689085Y460369D01*
X689202Y459988D01*
X689261Y459666D01*
X689320Y459402D01*
X689378Y459226D01*
Y459197D01*
Y459168D01*
X689583Y458231D01*
X689642Y457791D01*
X689700Y457382D01*
X689759Y457059D01*
X689788Y456796D01*
X689818Y456620D01*
Y456591D01*
Y456562D01*
X689935Y455595D01*
X689964Y455156D01*
Y454775D01*
X689993Y454424D01*
Y454160D01*
Y453984D01*
Y453955D01*
Y453926D01*
Y453428D01*
X689964Y452930D01*
X689935Y452491D01*
Y452081D01*
X689915Y451866D01*
X689993Y451905D01*
X690052Y451934D01*
X690140D01*
X690228Y451905D01*
X690315Y451876D01*
X690345Y451817D01*
X690374Y451788D01*
X690433Y451671D01*
X690462Y451524D01*
X690491Y451436D01*
Y451378D01*
X690520Y451143D01*
X690550Y450938D01*
Y450763D01*
Y450704D01*
Y450675D01*
Y450382D01*
Y450177D01*
X690520Y450031D01*
Y449972D01*
X690491Y449796D01*
X690462Y449650D01*
X690433Y449562D01*
Y449533D01*
X690403Y449416D01*
X690374Y449328D01*
X690345Y449269D01*
X690315Y449240D01*
X690198Y449123D01*
X690169Y449094D01*
X690140D01*
X689437Y448625D01*
X689320Y448156D01*
X689232Y447688D01*
X689115Y447248D01*
X688997Y446868D01*
X688910Y446546D01*
X688822Y446282D01*
X688792Y446136D01*
X688763Y446106D01*
Y446077D01*
X688617Y445608D01*
X688441Y445169D01*
X688295Y444730D01*
X688148Y444349D01*
X688031Y444056D01*
X687943Y443793D01*
X687885Y443646D01*
X687855Y443588D01*
X687797Y443529D01*
X687767Y443500D01*
X687650Y443441D01*
X687621Y443412D01*
X687592D01*
X687445Y443353D01*
X687387D01*
X687299Y443324D01*
X686918D01*
X686801Y443353D01*
X686742Y443383D01*
X686713D01*
X686537Y443441D01*
X686508Y443471D01*
X686479D01*
X686420Y443588D01*
Y443617D01*
Y443646D01*
X686450Y443734D01*
X686479Y443793D01*
X686508Y443851D01*
Y443881D01*
X686830Y444788D01*
X687094Y445696D01*
X687299Y446516D01*
X687504Y447278D01*
X687539Y447486D01*
X687328Y447366D01*
X687065Y447219D01*
X686830Y447102D01*
X686625Y446985D01*
X686420Y446897D01*
X686303Y446809D01*
X686186Y446780D01*
X686127Y446721D01*
X686098D01*
X685395Y446399D01*
X684692Y446106D01*
X684077Y445872D01*
X683492Y445638D01*
X683023Y445491D01*
X682818Y445404D01*
X682672Y445345D01*
X682525Y445316D01*
X682437Y445286D01*
X682379Y445257D01*
X682349D01*
X681676Y445052D01*
X681061Y444906D01*
X680475Y444759D01*
X679977Y444642D01*
X679538Y444583D01*
X679362Y444525D01*
X679216D01*
X679099Y444496D01*
X679011Y444466D01*
X678923D01*
X678308Y444408D01*
X677752Y444349D01*
X677225Y444320D01*
X676756Y444291D01*
X676346Y444261D01*
X675145D01*
X674530Y444291D01*
X673974Y444349D01*
X673505Y444378D01*
X673095Y444437D01*
X672773Y444466D01*
X672656D01*
X672568Y444496D01*
X672509D01*
X671953Y444613D01*
X671396Y444730D01*
X670899Y444847D01*
X670459Y444935D01*
X670108Y445052D01*
X669815Y445140D01*
X669639Y445169D01*
X669610Y445198D01*
X669581D01*
X669493Y445228D01*
X669464Y445257D01*
X669376Y445404D01*
X669346Y445462D01*
Y445491D01*
X669288Y445726D01*
X669259Y445813D01*
Y445843D01*
X669229Y446048D01*
Y446223D01*
Y446370D01*
Y446428D01*
Y446751D01*
X669259Y446985D01*
X669288Y447102D01*
Y447161D01*
X669346Y447336D01*
X669376Y447483D01*
X669434Y447541D01*
Y447571D01*
X669522Y447659D01*
X669581Y447688D01*
X669639Y447717D01*
X669991D01*
X670401Y447629D01*
X670781Y447541D01*
X670928Y447512D01*
X671045D01*
X671133Y447483D01*
X671162D01*
X671631Y447424D01*
X672011Y447366D01*
X672187D01*
X672304Y447336D01*
X672421D01*
X672890Y447307D01*
X673095Y447278D01*
X673300D01*
X673447Y447248D01*
X673681D01*
X674149Y447219D01*
X674852D01*
X676024Y447248D01*
X676580Y447307D01*
X677107Y447336D01*
X677547Y447395D01*
X677722D01*
X677898Y447424D01*
X678015D01*
X678103Y447453D01*
X678191D01*
X678865Y447541D01*
X679509Y447688D01*
X680153Y447805D01*
X680710Y447951D01*
X681178Y448069D01*
X681383Y448098D01*
X681559Y448156D01*
X681705Y448186D01*
X681793Y448215D01*
X681852Y448244D01*
X681881D01*
X682613Y448479D01*
X683316Y448713D01*
X683990Y448947D01*
X684575Y449181D01*
X685102Y449386D01*
X685307Y449445D01*
X685483Y449533D01*
X685630Y449591D01*
X685747Y449650D01*
X685805Y449679D01*
X685835D01*
X686596Y450031D01*
X687328Y450382D01*
X688002Y450763D01*
X688098Y450813D01*
X688177Y451583D01*
X688207Y451993D01*
X688236Y452344D01*
X688265Y452696D01*
Y453018D01*
X688295Y453281D01*
Y453516D01*
Y453691D01*
Y453838D01*
Y453926D01*
Y453955D01*
X688265Y454892D01*
X688236Y455829D01*
X688148Y456679D01*
X688119Y457089D01*
X688060Y457440D01*
X688031Y457791D01*
X687972Y458084D01*
X687943Y458348D01*
X687914Y458582D01*
X687885Y458787D01*
X687855Y458904D01*
X687826Y458992D01*
Y459021D01*
X687683Y459786D01*
X687680Y459783D01*
X687562Y459666D01*
X687445Y459578D01*
X687387Y459549D01*
X687357Y459519D01*
X686947Y459256D01*
X686567Y459080D01*
X686420Y458992D01*
X686303Y458934D01*
X686215Y458904D01*
X686186D01*
X685747Y458758D01*
X685337Y458670D01*
X685190Y458611D01*
X685073D01*
X684985Y458582D01*
X684956D01*
X684546Y458524D01*
X684165Y458494D01*
X683814D01*
X683404Y458524D01*
X683052Y458582D01*
X682906D01*
X682789Y458611D01*
X682730Y458641D01*
X682701D01*
X682320Y458787D01*
X682027Y458963D01*
X681910Y459051D01*
X681822Y459139D01*
X681764Y459168D01*
X681734Y459197D01*
X681442Y459549D01*
X681207Y459900D01*
X681149Y460076D01*
X681090Y460193D01*
X681032Y460281D01*
Y460310D01*
X680944Y460603D01*
X680885Y460896D01*
X680827Y461189D01*
X680797Y461482D01*
Y461716D01*
X680768Y461921D01*
Y462038D01*
Y462097D01*
Y462448D01*
X680797Y462741D01*
X680827Y463034D01*
X680885Y463297D01*
X680915Y463473D01*
X680944Y463649D01*
X680973Y463737D01*
Y463766D01*
X681178Y464293D01*
X681266Y464527D01*
X681383Y464703D01*
X681442Y464879D01*
X681529Y464996D01*
X681559Y465055D01*
X681588Y465084D01*
X681881Y465494D01*
X682174Y465816D01*
X682320Y465933D01*
X682408Y466021D01*
X682467Y466050D01*
X682496Y466079D01*
X682906Y466343D01*
X683257Y466548D01*
X683404Y466636D01*
X683521Y466694D01*
X683609Y466724D01*
X683638D01*
X684107Y466899D01*
X684487Y467017D01*
X684663Y467046D01*
X684780Y467075D01*
X684868Y467104D01*
X684897D01*
X685366Y467192D01*
X685600Y467222D01*
X685776D01*
X685952Y467251D01*
X686186D01*
X686567Y467222D01*
D02*
G37*
G36*
Y499817D02*
X686918Y499759D01*
X687065Y499729D01*
X687182Y499700D01*
X687240Y499671D01*
X687270D01*
X687650Y499495D01*
X687972Y499319D01*
X688090Y499231D01*
X688177Y499144D01*
X688236Y499114D01*
X688265Y499085D01*
X688412Y498939D01*
X688558Y498763D01*
X688792Y498411D01*
X688851Y498236D01*
X688910Y498119D01*
X688968Y498031D01*
Y498002D01*
X689056Y497738D01*
X689144Y497445D01*
X689202Y497152D01*
X689232Y496889D01*
X689261Y496625D01*
Y496449D01*
Y496332D01*
Y496274D01*
Y495893D01*
X689232Y495571D01*
X689173Y495249D01*
X689144Y494985D01*
X689085Y494751D01*
X689027Y494604D01*
X688997Y494487D01*
Y494458D01*
X688819Y493974D01*
X688997Y493404D01*
X689085Y492964D01*
X689202Y492584D01*
X689261Y492261D01*
X689320Y491998D01*
X689378Y491822D01*
Y491793D01*
Y491763D01*
X689583Y490826D01*
X689642Y490387D01*
X689700Y489977D01*
X689759Y489655D01*
X689788Y489391D01*
X689818Y489216D01*
Y489186D01*
Y489157D01*
X689935Y488191D01*
X689964Y487751D01*
Y487371D01*
X689993Y487019D01*
Y486756D01*
Y486580D01*
Y486551D01*
Y486521D01*
Y486023D01*
X689964Y485526D01*
X689935Y485086D01*
Y484676D01*
X689905Y484354D01*
X689876Y484090D01*
X689847Y483915D01*
Y483885D01*
Y483856D01*
X689788Y483358D01*
X689730Y482890D01*
X689642Y482421D01*
X689583Y482040D01*
X689525Y481689D01*
X689495Y481455D01*
X689437Y481279D01*
Y481250D01*
Y481221D01*
X689320Y480752D01*
X689318Y480742D01*
X689788Y480840D01*
X689876D01*
X689935Y480811D01*
X690052Y480723D01*
X690110Y480635D01*
X690140Y480576D01*
X690198Y480430D01*
X690228Y480283D01*
X690257Y479873D01*
X690286Y479698D01*
Y479551D01*
Y479434D01*
Y479405D01*
Y479112D01*
X690257Y478878D01*
X690228Y478731D01*
Y478673D01*
X690198Y478468D01*
X690169Y478321D01*
X690140Y478204D01*
Y478175D01*
X690081Y478058D01*
X690052Y477970D01*
X690023Y477940D01*
X689993Y477911D01*
X689935Y477853D01*
X689847Y477823D01*
X689788D01*
X688364Y477535D01*
X688295Y477325D01*
X688148Y476945D01*
X688031Y476652D01*
X687943Y476388D01*
X687885Y476242D01*
X687855Y476183D01*
X687797Y476125D01*
X687767Y476095D01*
X687650Y476037D01*
X687621Y476007D01*
X687592D01*
X687445Y475949D01*
X687387D01*
X687299Y475920D01*
X686918D01*
X686801Y475949D01*
X686742Y475978D01*
X686713D01*
X686537Y476037D01*
X686508Y476066D01*
X686479D01*
X686420Y476183D01*
Y476213D01*
Y476242D01*
X686450Y476330D01*
X686479Y476388D01*
X686508Y476447D01*
Y476476D01*
X686769Y477212D01*
X682847Y476418D01*
X682642Y476388D01*
X682467D01*
X682349Y476418D01*
X682320Y476447D01*
X682262Y476505D01*
X682232Y476593D01*
X682174Y476798D01*
X682144Y476974D01*
Y477033D01*
Y477062D01*
Y477501D01*
X682115Y477940D01*
X682027Y478292D01*
X681881Y478585D01*
X681734Y478848D01*
X681588Y479024D01*
X681442Y479170D01*
X681354Y479229D01*
X681324Y479258D01*
X681002Y479434D01*
X680622Y479522D01*
X680212Y479551D01*
X679480D01*
X679187Y479493D01*
X679070D01*
X678982Y479463D01*
X678923D01*
X678367Y479317D01*
X677898Y479141D01*
X677488Y478965D01*
X677166Y478760D01*
X676932Y478585D01*
X676756Y478438D01*
X676639Y478321D01*
X676609Y478292D01*
X676375Y477970D01*
X676199Y477589D01*
X676053Y477238D01*
X675965Y476915D01*
X675907Y476593D01*
X675877Y476359D01*
Y476213D01*
Y476183D01*
Y476154D01*
X675907Y475744D01*
X675965Y475422D01*
Y475275D01*
X675994Y475187D01*
X676024Y475129D01*
Y475100D01*
X676170Y474777D01*
X676287Y474514D01*
X676375Y474338D01*
X676404Y474309D01*
Y474280D01*
X676551Y474045D01*
X676668Y473870D01*
X676756Y473753D01*
X676785Y473723D01*
X676902Y473577D01*
X676932Y473460D01*
X676961Y473372D01*
Y473343D01*
X676932Y473225D01*
X676902Y473196D01*
Y473167D01*
X676873Y473108D01*
X676814Y473050D01*
X676756Y473020D01*
X676727Y472991D01*
X676609Y472933D01*
X676522Y472903D01*
X676404Y472874D01*
X676375Y472845D01*
X676170Y472786D01*
X675965Y472728D01*
X675789Y472698D01*
X675731D01*
X675497Y472669D01*
X675321Y472640D01*
X675204Y472610D01*
X675174D01*
X675028Y472581D01*
X674823D01*
X674647Y472610D01*
X674589Y472640D01*
X674559D01*
X674413Y472698D01*
X674384Y472757D01*
X674354D01*
X674237Y472903D01*
X674149Y473079D01*
X674062Y473225D01*
X674032Y473284D01*
X673915Y473548D01*
X673798Y473811D01*
X673739Y474016D01*
X673710Y474045D01*
Y474075D01*
X673622Y474426D01*
X673564Y474748D01*
X673534Y474865D01*
Y474982D01*
X673505Y475041D01*
Y475070D01*
X673447Y475451D01*
X673417Y475802D01*
Y475949D01*
Y476066D01*
Y476125D01*
Y476154D01*
Y476593D01*
X673476Y477003D01*
X673505Y477384D01*
X673564Y477706D01*
X673622Y477999D01*
X673652Y478204D01*
X673710Y478321D01*
Y478380D01*
X673827Y478760D01*
X673974Y479112D01*
X674149Y479434D01*
X674296Y479727D01*
X674442Y479932D01*
X674530Y480108D01*
X674618Y480225D01*
X674647Y480254D01*
X674911Y480547D01*
X675204Y480811D01*
X675467Y481074D01*
X675760Y481279D01*
X675994Y481426D01*
X676170Y481543D01*
X676287Y481631D01*
X676346Y481660D01*
X676756Y481865D01*
X677166Y482040D01*
X677576Y482187D01*
X677986Y482333D01*
X678308Y482421D01*
X678601Y482480D01*
X678777Y482538D01*
X678835D01*
X679245Y482597D01*
X679597Y482655D01*
X679948Y482685D01*
X680827D01*
X681178Y482655D01*
X681471Y482597D01*
X681764Y482538D01*
X682027Y482450D01*
X682203Y482392D01*
X682379Y482333D01*
X682467Y482304D01*
X682496Y482275D01*
X682994Y481982D01*
X683199Y481806D01*
X683375Y481660D01*
X683521Y481513D01*
X683638Y481396D01*
X683697Y481308D01*
X683726Y481279D01*
X683902Y481045D01*
X684048Y480781D01*
X684253Y480283D01*
X684341Y480049D01*
X684400Y479873D01*
X684429Y479756D01*
Y479727D01*
X687611Y480388D01*
X687650Y480518D01*
X687709Y480781D01*
X687738Y481016D01*
X687767Y481191D01*
X687797Y481338D01*
X687826Y481426D01*
Y481455D01*
X687972Y482392D01*
X688090Y483329D01*
X688177Y484178D01*
X688207Y484588D01*
X688236Y484940D01*
X688265Y485291D01*
Y485613D01*
X688295Y485877D01*
Y486111D01*
Y486287D01*
Y486433D01*
Y486521D01*
Y486551D01*
X688265Y487488D01*
X688236Y488425D01*
X688148Y489274D01*
X688119Y489684D01*
X688060Y490036D01*
X688031Y490387D01*
X687972Y490680D01*
X687943Y490943D01*
X687914Y491178D01*
X687885Y491383D01*
X687855Y491500D01*
X687826Y491588D01*
Y491617D01*
X687683Y492381D01*
X687680Y492379D01*
X687562Y492261D01*
X687445Y492174D01*
X687387Y492144D01*
X687357Y492115D01*
X686947Y491851D01*
X686567Y491676D01*
X686420Y491588D01*
X686303Y491529D01*
X686215Y491500D01*
X686186D01*
X685747Y491353D01*
X685337Y491266D01*
X685190Y491207D01*
X685073D01*
X684985Y491178D01*
X684956D01*
X684546Y491119D01*
X684165Y491090D01*
X683814D01*
X683404Y491119D01*
X683052Y491178D01*
X682906D01*
X682789Y491207D01*
X682730Y491236D01*
X682701D01*
X682320Y491383D01*
X682027Y491558D01*
X681910Y491646D01*
X681822Y491734D01*
X681764Y491763D01*
X681734Y491793D01*
X681442Y492144D01*
X681207Y492496D01*
X681149Y492671D01*
X681090Y492789D01*
X681032Y492876D01*
Y492906D01*
X680944Y493199D01*
X680885Y493491D01*
X680827Y493784D01*
X680797Y494077D01*
Y494311D01*
X680768Y494516D01*
Y494634D01*
Y494692D01*
Y495044D01*
X680797Y495336D01*
X680827Y495629D01*
X680885Y495893D01*
X680915Y496069D01*
X680944Y496244D01*
X680973Y496332D01*
Y496361D01*
X681178Y496889D01*
X681266Y497123D01*
X681383Y497299D01*
X681442Y497474D01*
X681529Y497592D01*
X681559Y497650D01*
X681588Y497679D01*
X681881Y498089D01*
X682174Y498411D01*
X682320Y498529D01*
X682408Y498616D01*
X682467Y498646D01*
X682496Y498675D01*
X682906Y498939D01*
X683257Y499144D01*
X683404Y499231D01*
X683521Y499290D01*
X683609Y499319D01*
X683638D01*
X684107Y499495D01*
X684487Y499612D01*
X684663Y499641D01*
X684780Y499671D01*
X684868Y499700D01*
X684897D01*
X685366Y499788D01*
X685600Y499817D01*
X685776D01*
X685952Y499846D01*
X686186D01*
X686567Y499817D01*
D02*
G37*
G36*
X685220Y512147D02*
X685776Y512088D01*
X686274Y512059D01*
X686684Y512000D01*
X687006Y511942D01*
X687123D01*
X687211Y511912D01*
X687270D01*
X687855Y511795D01*
X688382Y511707D01*
X688880Y511590D01*
X689320Y511473D01*
X689671Y511385D01*
X689964Y511297D01*
X690140Y511268D01*
X690169Y511239D01*
X690198D01*
X690315Y511180D01*
X690345Y511151D01*
Y511122D01*
X690374Y511063D01*
X690403Y511004D01*
X690433Y510946D01*
Y510917D01*
X690462Y510799D01*
X690491Y510682D01*
X690520Y510565D01*
Y510536D01*
X690550Y510360D01*
Y510185D01*
Y510067D01*
Y510038D01*
Y510009D01*
Y509687D01*
X690520Y509452D01*
X690491Y509306D01*
Y509247D01*
X690462Y509072D01*
X690403Y508955D01*
X690374Y508867D01*
X690345Y508837D01*
X690286Y508779D01*
X690198Y508720D01*
X690140Y508691D01*
X689905D01*
X689818Y508720D01*
X689788D01*
X689378Y508808D01*
X688997Y508867D01*
X688851Y508896D01*
X688734Y508925D01*
X688617D01*
X688148Y509013D01*
X687767Y509072D01*
X687592D01*
X687475Y509101D01*
X687357D01*
X686889Y509130D01*
X686655Y509160D01*
X686479D01*
X686303Y509189D01*
X686069D01*
X685630Y509218D01*
X685249Y509247D01*
X684897D01*
X683726Y509218D01*
X683170Y509160D01*
X682642Y509130D01*
X682203Y509072D01*
X682027Y509042D01*
X681852Y509013D01*
X681734D01*
X681647Y508984D01*
X681559D01*
X680885Y508867D01*
X680241Y508750D01*
X679626Y508603D01*
X679070Y508486D01*
X678572Y508369D01*
X678367Y508310D01*
X678191Y508252D01*
X678074Y508222D01*
X677957Y508193D01*
X677898Y508164D01*
X677869D01*
X677137Y507959D01*
X676434Y507724D01*
X675789Y507490D01*
X675174Y507256D01*
X674677Y507051D01*
X674472Y506963D01*
X674296Y506875D01*
X674149Y506817D01*
X674032Y506758D01*
X673974Y506729D01*
X673944D01*
X673212Y506377D01*
X672480Y506026D01*
X671806Y505675D01*
X671191Y505352D01*
X670928Y505206D01*
X670664Y505059D01*
X670459Y504942D01*
X670284Y504825D01*
X670137Y504737D01*
X670020Y504679D01*
X669961Y504649D01*
X669932Y504620D01*
X669815Y504562D01*
X669727Y504532D01*
X669639D01*
X669551Y504562D01*
X669493Y504620D01*
X669464Y504649D01*
X669434Y504679D01*
X669376Y504796D01*
X669317Y504942D01*
X669288Y505059D01*
Y505089D01*
X669259Y505294D01*
X669229Y505528D01*
Y505704D01*
Y505733D01*
Y505762D01*
Y506055D01*
X669259Y506260D01*
Y506377D01*
Y506436D01*
X669288Y506641D01*
X669317Y506787D01*
X669346Y506875D01*
Y506904D01*
X669405Y507022D01*
X669434Y507109D01*
X669493Y507139D01*
Y507168D01*
X669610Y507314D01*
X669639Y507373D01*
X669669D01*
X670430Y507871D01*
X671162Y508310D01*
X671836Y508691D01*
X672451Y509042D01*
X672714Y509160D01*
X672949Y509306D01*
X673154Y509394D01*
X673329Y509482D01*
X673476Y509570D01*
X673564Y509628D01*
X673622Y509657D01*
X673652D01*
X674354Y509980D01*
X675057Y510302D01*
X675672Y510536D01*
X676229Y510770D01*
X676697Y510917D01*
X676902Y511004D01*
X677049Y511063D01*
X677195Y511092D01*
X677283Y511122D01*
X677342Y511151D01*
X677371D01*
X678045Y511356D01*
X678689Y511502D01*
X679275Y511649D01*
X679772Y511766D01*
X680212Y511825D01*
X680387Y511883D01*
X680534D01*
X680651Y511912D01*
X680768Y511942D01*
X680827D01*
X681442Y512030D01*
X681998Y512088D01*
X682525Y512117D01*
X683023Y512147D01*
X683404Y512176D01*
X684605D01*
X685220Y512147D01*
D02*
G37*
G36*
X679245Y498089D02*
X679304Y498060D01*
X679333Y498031D01*
X679392Y497972D01*
X679450Y497884D01*
Y497797D01*
Y497767D01*
Y491119D01*
X679421Y490943D01*
X679362Y490826D01*
X679275Y490738D01*
X679245Y490709D01*
X679070Y490621D01*
X678923Y490533D01*
X678806Y490504D01*
X678747Y490475D01*
X678542Y490416D01*
X678396Y490387D01*
X678279Y490358D01*
X678220D01*
X678045Y490328D01*
X677693D01*
X677576Y490358D01*
X677517Y490387D01*
X677488D01*
X677430Y490475D01*
X677400Y490563D01*
Y490651D01*
Y490680D01*
Y497328D01*
X677430Y497474D01*
X677517Y497621D01*
X677576Y497679D01*
X677605Y497709D01*
X677752Y497797D01*
X677927Y497884D01*
X678045Y497914D01*
X678074Y497943D01*
X678279Y498002D01*
X678425Y498031D01*
X678542Y498060D01*
X678601D01*
X678777Y498089D01*
X678894Y498119D01*
X679128D01*
X679245Y498089D01*
D02*
G37*
%LPC*%
G36*
X686157Y464527D02*
X685747D01*
X685542Y464498D01*
X685395Y464469D01*
X685337D01*
X685073Y464440D01*
X684868Y464381D01*
X684692Y464352D01*
X684663Y464322D01*
X684634D01*
X684370Y464235D01*
X684165Y464147D01*
X683990Y464088D01*
X683960Y464059D01*
X683931D01*
X683697Y463942D01*
X683492Y463825D01*
X683375Y463707D01*
X683316Y463678D01*
X683140Y463502D01*
X683023Y463327D01*
X682935Y463180D01*
X682906Y463151D01*
Y463122D01*
X682818Y462887D01*
X682789Y462653D01*
X682759Y462477D01*
Y462419D01*
Y462389D01*
X682789Y462155D01*
X682818Y461979D01*
X682847Y461833D01*
Y461804D01*
X682935Y461657D01*
X683023Y461540D01*
X683082Y461482D01*
X683111Y461452D01*
X683257Y461364D01*
X683375Y461306D01*
X683492Y461247D01*
X683521D01*
X683697Y461218D01*
X684195D01*
X684400Y461247D01*
X684575D01*
X684839Y461277D01*
X685073Y461306D01*
X685220Y461364D01*
X685278D01*
X685542Y461452D01*
X685776Y461540D01*
X685952Y461599D01*
X685981Y461628D01*
X686010D01*
X686245Y461745D01*
X686450Y461862D01*
X686567Y461979D01*
X686625Y462009D01*
X686830Y462184D01*
X686977Y462389D01*
X686996Y462415D01*
X686977Y462477D01*
X686889Y462799D01*
X686801Y463092D01*
X686713Y463356D01*
X686625Y463590D01*
X686567Y463766D01*
X686508Y463883D01*
X686479Y463971D01*
Y464000D01*
X686420Y464117D01*
Y464176D01*
X686479Y464322D01*
X686508Y464352D01*
X686606Y464391D01*
X686508Y464440D01*
X686479D01*
X686303Y464498D01*
X686157Y464527D01*
D02*
G37*
G36*
Y497123D02*
X685747D01*
X685542Y497094D01*
X685395Y497064D01*
X685337D01*
X685073Y497035D01*
X684868Y496977D01*
X684692Y496947D01*
X684663Y496918D01*
X684634D01*
X684370Y496830D01*
X684165Y496742D01*
X683990Y496684D01*
X683960Y496654D01*
X683931D01*
X683697Y496537D01*
X683492Y496420D01*
X683375Y496303D01*
X683316Y496274D01*
X683140Y496098D01*
X683023Y495922D01*
X682935Y495776D01*
X682906Y495746D01*
Y495717D01*
X682818Y495483D01*
X682789Y495249D01*
X682759Y495073D01*
Y495014D01*
Y494985D01*
X682789Y494751D01*
X682818Y494575D01*
X682847Y494429D01*
Y494399D01*
X682935Y494253D01*
X683023Y494136D01*
X683082Y494077D01*
X683111Y494048D01*
X683257Y493960D01*
X683375Y493901D01*
X683492Y493843D01*
X683521D01*
X683697Y493814D01*
X684195D01*
X684400Y493843D01*
X684575D01*
X684839Y493872D01*
X685073Y493901D01*
X685220Y493960D01*
X685278D01*
X685542Y494048D01*
X685776Y494136D01*
X685952Y494194D01*
X685981Y494224D01*
X686010D01*
X686245Y494341D01*
X686450Y494458D01*
X686567Y494575D01*
X686625Y494604D01*
X686830Y494780D01*
X686977Y494985D01*
X686996Y495010D01*
X686977Y495073D01*
X686889Y495395D01*
X686801Y495688D01*
X686713Y495951D01*
X686625Y496186D01*
X686567Y496361D01*
X686508Y496479D01*
X686479Y496566D01*
Y496596D01*
X686420Y496713D01*
Y496771D01*
X686479Y496918D01*
X686508Y496947D01*
X686606Y496986D01*
X686508Y497035D01*
X686479D01*
X686303Y497094D01*
X686157Y497123D01*
D02*
G37*
%LPD*%
D47*
X290830Y408940D02*
D03*
X316230D02*
D03*
X341630D02*
D03*
D53*
X652971Y515882D02*
D03*
Y435882D02*
D03*
D54*
X233319Y542371D02*
D03*
X237320D02*
D03*
X249319D02*
D03*
X245321D02*
D03*
X233319Y425369D02*
D03*
X237320D02*
D03*
X249319D02*
D03*
X245321D02*
D03*
D55*
X242019Y461371D02*
D03*
Y506369D02*
D03*
D56*
X241320Y425369D02*
D03*
Y542371D02*
D03*
D57*
X318531Y522280D02*
D03*
Y496880D02*
D03*
Y471480D02*
D03*
Y446080D02*
D03*
D58*
X490690Y535880D02*
D03*
X440690D02*
D03*
D59*
X319532Y545846D02*
D03*
X433324Y523494D02*
D03*
X458216D02*
D03*
X522478Y426466D02*
D03*
X276098Y421894D02*
D03*
X350901Y493903D02*
D03*
X533146Y549656D02*
D03*
X593852Y505353D02*
D03*
X377698Y429006D02*
D03*
X428244D02*
D03*
X346920Y447040D02*
D03*
X399796Y484378D02*
D03*
X337566Y470154D02*
D03*
X314072Y456820D02*
D03*
X420878Y504190D02*
D03*
X427228Y519938D02*
D03*
X459556Y486349D02*
D03*
X431800Y487934D02*
D03*
X383540Y490474D02*
D03*
X399796Y510794D02*
D03*
X419608Y439674D02*
D03*
X296418Y429260D02*
D03*
X409702Y522732D02*
D03*
X421894Y532638D02*
D03*
X518668Y560832D02*
D03*
X458684Y462954D02*
D03*
X458470Y454938D02*
D03*
X513080Y528320D02*
D03*
X292354Y529082D02*
D03*
X444880Y468924D02*
D03*
X470662Y479298D02*
D03*
X470408Y512826D02*
D03*
X398673Y502813D02*
D03*
X609331Y495300D02*
D03*
X559506Y481444D02*
D03*
X402413Y405238D02*
D03*
D60*
X375515Y548235D02*
D03*
X367030Y539750D02*
D03*
X358545Y531265D02*
D03*
D61*
X487427Y426027D02*
D03*
X498741Y414713D02*
D03*
D62*
X448003Y416351D02*
D03*
X453570Y421919D02*
D03*
X459318Y427666D02*
D03*
X464885Y433234D02*
D03*
X470633Y438982D02*
D03*
X476201Y444549D02*
D03*
X481768Y450117D02*
D03*
X487516Y455864D02*
D03*
X493084Y461432D02*
D03*
X498831Y467180D02*
D03*
X504399Y472747D02*
D03*
X423217Y553929D02*
D03*
X417650Y548361D02*
D03*
X411902Y542614D02*
D03*
X406334Y537046D02*
D03*
X400587Y531298D02*
D03*
X395019Y525731D02*
D03*
X389452Y520163D02*
D03*
X383704Y514416D02*
D03*
X378136Y508848D02*
D03*
X372389Y503100D02*
D03*
X366821Y497533D02*
D03*
D63*
X504399D02*
D03*
X498831Y503100D02*
D03*
X493084Y508848D02*
D03*
X487516Y514416D02*
D03*
X481768Y520163D02*
D03*
X476201Y525731D02*
D03*
X470633Y531298D02*
D03*
X464885Y537046D02*
D03*
X459318Y542614D02*
D03*
X453570Y548361D02*
D03*
X448003Y553929D02*
D03*
X366821Y472747D02*
D03*
X372389Y467180D02*
D03*
X378136Y461432D02*
D03*
X383704Y455864D02*
D03*
X389452Y450117D02*
D03*
X395019Y444549D02*
D03*
X400587Y438982D02*
D03*
X406334Y433234D02*
D03*
X411902Y427666D02*
D03*
X417650Y421919D02*
D03*
X423217Y416351D02*
D03*
D64*
X356293Y427578D02*
D03*
X367607Y438891D02*
D03*
X386657Y422217D02*
D03*
X375343Y410903D02*
D03*
D65*
X541200Y520700D02*
D03*
Y495300D02*
D03*
Y469900D02*
D03*
Y444500D02*
D03*
X627200D02*
D03*
Y469900D02*
D03*
Y520700D02*
D03*
Y495300D02*
D03*
M02*
